<?xml version="1.0" encoding="UTF-8" standalone="no"?>
<svg xmlns="http://www.w3.org/2000/svg" height="300" width="500">
 <rect transform="scale(1-1)" y="-300" height="150" width="500" fill="#fcdd09"/>
 <path d="m0 150l.715-150 499.28.255-.031 149.58" color="#000"/>
 <path d="m337.98 41.34h-175.98v127.15c0 43.996 34.1 90.19 87.991 90.19 53.894 0 87.991-46.2 87.991-90.19v-127.15" fill="#0f47af"/>
 <g stroke="#000">
  <g fill-rule="evenodd">
   <path d="m250 131.96v12.32" fill="none" stroke-width=".44"/>
   <g stroke-linejoin="round" stroke-linecap="round">
    <g stroke-width="1.32">
     <path d="m171.46 115.68c0 3.96 3.08 2.64 3.08 5.72-1.76 0-1.76 3.08 1.32 3.08v88l26.84-54.56v-33.44c3.08 0 3.08-3.08 1.32-3.08 0-3.08 3.08-1.76 3.08-5.72z" fill="#fff"/>
     <g fill="#0f47af">
      <path d="m182.02 129.32h4.4v12.32h-4.4z"/>
      <path d="m192.14 129.32h4.4v12.32h-4.4z"/>
      <path d="m182.02 151.32h4.4v12.32h-4.4z"/>
      <path d="m192.14 151.32h4.4v12.32h-4.4z"/>
     </g>
    </g>
    <path d="m67.5 91l44.5 60h-89z" fill="#da121a" stroke-width="3" transform="matrix(.44 0 0 .44 159.58 49.24)"/>
    <g stroke-width="1.32">
     <path d="m187.74 80.92v10.12h3.08v-10.12z" fill="#fcdd09"/>
     <path d="m310.72 89.28l-19.58 26.4h39.16z" fill="#da121a"/>
     <path d="m328.54 115.68c0 3.96-3.08 2.64-3.08 5.72 1.76 0 1.76 3.08-1.32 3.08v88l-26.84-54.56v-33.44c-3.08 0-3.08-3.08-1.32-3.08 0-3.08-3.08-1.76-3.08-5.72z" fill="#fff"/>
     <g fill="#0f47af">
      <path d="m317.98 129.32h-4.4v12.32h4.4z"/>
      <path d="m307.86 129.32h-4.4v12.32h4.4z"/>
      <path d="m317.98 151.32h-4.4v12.32h4.4z"/>
      <path d="m307.86 151.32h-4.4v12.32h4.4z"/>
     </g>
     <path d="m225.57 99.84c1.305.084 0 4.84 2.2 4.84-2.2 0-2.2 3.52 1.32 3.52v28.6h41.8v-28.6c3.52 0 3.52-3.52.88-3.52 2.64 0 1.32-4.84 2.64-4.84 0-2.64 3.96-.88 3.96-5.72h-56.76c0 4.84 3.96 3.08 3.96 5.72z" fill="#fff"/>
     <path d="m250 57.02l31.38 37.1h-62.76l31.38-37.1" fill="#da121a"/>
    </g>
   </g>
  </g>
  <g fill="#fcdd09" stroke-linejoin="round" stroke-linecap="round" stroke-width="1.32">
   <ellipse ry="2.943" rx="2.943" cy="53.05" cx="249.91"/>
   <ellipse ry="2.943" rx="2.943" cy="65.44" cx="207.77"/>
   <ellipse ry="2.943" rx="2.943" cy="65.44" cx="292.23"/>
   <ellipse ry="2.943" rx="2.943" cy="123.08" cx="216.56"/>
   <ellipse ry="2.943" rx="2.943" cy="123.08" cx="283.44"/>
  </g>
 </g>
 <g fill-rule="evenodd">
  <path d="m250 144.23c-41.775 1.182-57.17 46.11-66.44 83.21 38.551 43.47 99.67 39.38 132.77-.308-10.129-32.71-23.594-83.04-66.33-82.903" fill="#da121a"/>
  <path d="m324.8 215.12c-11-44-37.4-83.16-74.36-83.16-36.96 0-64.24 39.16-75.24 83.16l8.8 12.32c11-44 29.48-83.21 66.44-83.21 36.96 0 54.56 39.21 65.56 83.21 3.979-3.689 6.191-8.08 8.8-12.32z" fill="#fff" stroke="#000" stroke-linejoin="round" stroke-linecap="round" stroke-width="1.32"/>
 </g>
 <g stroke="#000" stroke-linejoin="round" stroke-linecap="round">
  <path d="m337.98 41.34h-175.98v127.15c0 43.996 34.1 90.19 87.991 90.19 53.894 0 87.991-46.2 87.991-90.19v-127.15" fill="none" stroke-width="2.64"/>
  <g fill-rule="evenodd">
   <path d="m273.32 168.09c-.813.902-1.188-.462-1.694-1.869.546 2.314.986 2.57-1.46 2.746l-.526-1.986c.814 4.437-2.055 3.213-3.33 3.038.455-2.161 6.574-5.328 6.574-5.328.174 1.11.955 1.735.436 3.4zm.935 4.848c-.032-.577-.241-1.623-.935-2.161-1.379.442-.759.944-.759 2.278l-.584-1.402c-1.379.09-1.189 1.034-1.285 1.694-.117-.974.062-2.317-1.694-1.051v1.051c-.723-1.982-.966-1.045-2.22-.73 1.83 2.293 5 1 7.477.321z" fill="#fff" stroke-width=".44"/>
   <g stroke-width=".88">
    <path d="m264.29 170.68c3.174-.908 8.499-1.258 11.156-3.924 1.426-1.525 3.641-3.804 4.626-2.396 1.682 2.403-2.157 3.907-4.213 5.205-2.527 1.595-7.514 2.796-10.757 3.063z" fill="#0f47af"/>
    <path d="m273.67 163.83c.743-1.7 2.042-4.753-.467-4.79-2.931-.044-7.244-.283-10.515.467 1.314-.941 1.931-1.883 1.485-2.824-3.996 1.308-7.992 1.692-11.988 1.017-.349-2.795-1.465-5.334-5.745-6.819 2.868 6.721-3.747 9.927.92 12.481-4.942.996.45 7.59-1.374 11.546-.948-6.214-5.233 2.073-1.758 4.109-3.042.0001-3.818 4.328-1.636 5.841-2.886.131-3.214 4.17-1.718 5.428-3.59.344-3.94 5.508-1.69 6.06-5.324 3.212-9.584 2.203-13.994 1.225-6.06-1.344-6.943-5.335-14.73-1.487-4.108 2.03-9.857-4.537-1.253-7.791 7.509-2.84 14.746-3.957 22.486-8.209 7.363-4.045 8.285-11.26 4.152-15.898-2.95-3.31-8.9-1.952-12.906 1.345-3.066 2.524-5.9 5.55-10.435 4.702 2.308 2.349 5.201 3.172 8.167.92-1.207 3.905 3.705 5.872 6.639 4.246-9.703-5.57 2.469-12.549 5.665-9.925 4.989 4.097 2.146 10.01-3.588 13.14-5.338 2.915-10.5 4.01-15.856 5.058-7.852 1.541-11.7 5.04-12.132 8.735-.635 5.444 5.805 8.02 10.126 5.701-2.186 2.27-1.397 4.044-1.053 5.893-3.484-1.157-5.841.598-9.113 1.485-1.924.521-5.169-.687-6.358 1.634-.407.795-2.245 1.72-.9 3.887 2.058 3.316.992 5.081 1.881 7.865 1.388 4.346 3.7 8.713 5.417 12.06-4.355.558-2.778 1.691-.399 2.901.022 3.885 2.838 3.02 2.337-.607.261 1.039.786 3.01.856 4.098.136 2.103 1.724 6.488 2.951 1.014 5.667.544-.176-2.936 1.239-4.645 1.183.821 2.321 1.262 2.677 2.757.65 2.728 2.6 5.453 2.49 1.176 2.471-3.197-2.247-3.878-3.684-5.707 3.02 2.027 5.137 1.801 3.285-.177.621-5.085-3.761.613-6.146-2.665-1.766-5.65.975-11.198-2.16-16.193 5.272-.018 5.697 1.843 8.347 2.227 2.868.416 5.799-.534 8.838-1.979-2.12 1.819-.854 3.628-1.57 5.248-1.068 2.415-3.211 3.941-1.852 6.66 4.192 8.389 11.465 7.811 15.587 15.15-3.643.287-4.13 1.497-1.336 2.636 1.911 4.292 3.318 1.551 2.957-2.584.699 1.492 2.088 2.557 1.793 4.166-.594 3.242 3.281 5.752 3.294.354 3.376-1.419 3.18-3.253.094-4.699 1.016.246 3.961.329 4.641 2.103.899 2.345 3.089 4.48 2.975-.411 3.41-3.278.918-3.51-.489-2.949-1.778.709-3.187-.439-4.09-1.026 1.716 1.528 5.748.385 2.818-1.414-1.816-2.811-3.307 2.194-6.278.715-6.552-3.261-7.11-11.03-12.512-16.576 4.152-.956 10-1.187 9.03-4.333 7.07 4.406 17.871 8.06 20.921 5.377-.306 3.767 5.666 4.891 9.481 7.01 5.28 2.932 8.05 3.968 12.06 5.938-2.553 2.415-1.972 3.525.758 3.739.907 4.892 3.919 3.279 2.616.403-.404-.891.555-1.85.339-2.945.928.796 2.639 1.523 2.46 2.913-.348 2.693 2.39 4.141 3.439 1.319 2.01-.609 3.668-1.333 1.565-3.243 1.654.744 5.656 4.677 4.633.083 1.321-3.926-3.146-1.316-5.559-3.054 2.786.375 3.446-.485 1.461-1.716-1.84-4.312-1.142 1.081-3.83 1.188-2.19.087-4.398-2.563-6.403-5.442-4.588-6.59-11.584-6.178-8.762-11.917-.396 2.877.841 2.425 3.359 2.552 2.411.121 3.722-.753 4.352-1.383 4.821-4.822 9.162-10.02 10.982-16.01.369 4.058 2.103 4.933 3.038 1.986 2.635-1.172.084-2.744-1.051-4.206 1.907-.17 6.665 3.888 5.257-.701 3.918-4.259-1.175-2.973-5.02-2.453 4.607-2.239 7.622-4.726.467-3.739-2.809-4.02-2.968.797-4.084 2.423 2.096-5.23.457-4.924-1.524-4.058-2.207-.16-2.839 1.976-1.5 2.252 1.646.339 3.02 1.807.799 5.109-2.549 3.782-11.478 6.06-8.412 10.398-2.604-1.831-5.01-3.703-6.075-5.842.989.304 2.071.792 2.921.818-.712-2.376-2.288-4.751-4.556-7.127 1.468.364 2.916.713 3.622.467-1.45-2.471-2.719-4.694-6.075-6.542l2.57.818c-.333-1.824-1.069-5.234-3.505-6.893 4.739-.296 1.568-5.467-1.051-6.776 1.726.025 2.301-.398 5.725.35 2.659.581 3.274-2.921 1.636-4.323-4.748 1.869-8.324 1.02-7.828-2.804.242-1.866 6.807-5.04 7.36-6.309z" fill="#fcdd09"/>
    <path d="m288.01 196.46c.63-.644 1.261-1.23 1.891-2.781m-4.32 38.967c1.018 1.056 2.643.835 4.231 1.057m-49.23 3.37c1.316.298 2.427.082 4.02 1.072m-36.425-7.989c.468.619.79 1.287 1.695 1.76m48.803-16.67c.462 1.872-.365 3.666-.653 6.295m-32.1-6.602c1.611 2.324 6.407.053 2.083-1.814 1.673.621 3.506.937 5.02 2.479 1.399 1.425 2.179 1.425 2.932-.109m1.973-3.139c-4.955-1.556-10.683-.814-15.892.774.751 1.296 1.147 3.211 3.097 2.2 1.546-.801 3.376-1.34 2.895-3.55 2.952-.264 6.693 2.836 9.249 4.376m-36.515-5.783c.498 1.949 2.454 1.827 4.089 2.509m74.08-4.893c-3.036.414-6.135-.055-8.859-1.664-3.365 1.866-4.824-.425-6.546-2.144-2.364 2.951-5.887.239-7.663-1.822-3.855 1.546-6.336.053-8.01-3.222-4.859 1.599-6.339-.223-5.511-2.896-1.341.713-2.27.466-3.15.104m1.69-6.06c1.186 1.494 2.768 1.604 4.576.922 1.272 4.909 4.24 5.893 8.471 3.951 1.913 4.74 5.438 5.17 8.217 2.658 1.485 3.089 4.063 2.902 6.94 1.817.704 1.852 2.935 2.07 4.535 2.727m-2.635-6.528c-1.903.069-3.539-.394-4.358-2.493-2.673 1.395-5.643 2.01-7.703-2.877-3.947 3.276-6.05 1.032-7.683-2.644-2.175 1.856-6.116 1.823-6.361-3.222-.636.334-1.196.82-2.279.259m1.636-5.842c2.171.999 3.522.031 4.939-.778 1.401 4.657 4.295 6.153 8.344 5.205 1.622 2.967 3.756 5.363 7.62 2.799 1.028 2.155 2.3 2.886 3.631 3.524m-1.986-12.851c-1.83.009-6.161-1.057-5.475-4.454m-15.315 2.448c4.796-2.789 6.8-.423 7.559 4.239 3.379-1.013 6.651-1.763 7.435 3.635 2.407-1.189 4.75-1.611 6.847.908m-5.526-20.16c2.152.124 5.095-1.381 2.13-3.332 1.173 1.865.281 2.867-2.13 3.332m.385-4.03c-1.799.786-4.116 1.358-3.043 3.528m-10.808-8.587c1.721 2.572-.044 4.705.345 5.686.638 1.612 3.059.597 3-2.433m-72.59 63.58c11-44 33.88-83.19 70.84-83.19 36.96 0 58.96 39.629 69.96 83.63m-92.61-127.6l22.21-25.35 22.21 25.35m-35.26 0l13.05-14.221 13.05 14.221m-9.167 0l-3.878-4.328-3.878 4.328m17.804 14.08v19.8m-6.966-19.8v19.8m-6.967-19.8v19.8m-6.967-19.8v19.8m-6.967-19.8v19.8m-6.967 0h41.8m-41.8-19.8h41.8m-43.12-3.52h44m-46.2-4.84h48.84m33.887 15.84l2.42-3.08 2.42 3.08m5.72 0l-8.14-10.12-8.14 10.12m22 0l-13.86-18.04-13.86 18.04m21.12 65.12h-5.28m5.28-4.84h-7.92m14.08-5.72h-17.16m17.16-23.76h-26.84m26.84-22h-26.84m28.16-3.08h-29.48m-121.44 0h29.48m-28.16 3.08h26.84m-26.84 22h26.84m-26.84 23.76h17.16m-11 5.72h7.92m-7.92 4.84h5.28m-11.88-65.12l13.86-18.04 13.86 18.04m-22 0l8.14-10.12 8.14 10.12m-5.72 0l-2.42-3.08-2.42 3.08" fill="none"/>
    <g fill="#0f47af">
     <path d="m292.75 203.89c-.412-.625.562-2.672 2.355-1.084.787.697.711 1.852 2.546 2.227-2.101 1.743-3.88.404-4.901-1.143z"/>
     <path d="m295.22 235.4c-.728.176-2.118 1.667-.043 2.42 1.199.435 2.193-1.211 3.881.344-1.111-3.284-2.345-3.124-3.837-2.764z"/>
     <path d="m290.14 238.49c-.516-.543-3.206 1-2.01 2.507.878 1.105 2.415.55 2.707 2.533 2.248-2.042.161-4.139-.696-5.04z"/>
     <path d="m279.26 237.34c.403-.631 3.134-.314 1.674 2.456-.587 1.114-1.992.751-1.897 3.121-1.78-1.632-.829-3.929.223-5.577z"/>
     <path d="m246.33 235.71c-.607.439-.245 2.242 1.095 1.599.883-.424 2.309-.383 3.469-.099-1.089-2.964-3.667-2.149-4.564-1.501z"/>
     <path d="m249.84 240.12c-.878-.578-2.498 1.262-1.178 2.601.895.908 2.095 1.119 2.386 2.556.898-2.087.294-4.169-1.207-5.157z"/>
     <path d="m242.63 243.64c-.636-.911-3.428-.241-1.824 2.448.653 1.095 2.178 1.271 2.577 2.929.969-2.022.167-4.059-.753-5.377z"/>
     <path d="m231.93 241.73c.527-.532 2.404.45 1.614 2.217-.521 1.164-1.599.849-2.221 2.346-1.269-1.593-.468-3.479.607-4.563z"/>
     <path d="m212.67 230.1c-.749 0-.273 2.665.856 2.137.904-.423 2.156.129 3.01-.006-1.054-1.677-2.052-2.132-3.867-2.131z"/>
     <path d="m214.19 236.1c-.718-.213-2.52 1.436-1.065 2.733 1.084.966 2.501.107 3.066 2.442 1.372-2.604-.176-4.633-2-5.175z"/>
     <path d="m208.57 237.58c-.375-.648-1.967-1.641-2.192 1.482-.092 1.272 1.899 1.139 1.254 3.814 3.149-1.041 1.962-3.526.939-5.296z"/>
     <path d="m199.37 232.94c.365-.654 2.656-.837 2.178 2.257-.195 1.26-2.334.45-1.1 3.462-2.803-1.299-1.929-4.196-1.078-5.719z"/>
     <path d="m298.32 196.69c-.743.092-1.609 2.075.374 2.631 1.231.345 2.445-.288 4.415 1.376-.142-3.851-2.542-4.286-4.789-4.01z"/>
     <path d="m292.56 190.51c-.224.714 1.108 2.797 2.619 1.628 1.01-.78.561-3.421 3.22-3.503-2.507-2.788-5.359.343-5.84 1.875z"/>
     <path d="m286.81 190.53c-.125.738 1.42 3.03 2.878.259.594-1.128-1.547-2.326.715-4.309-2.623.312-3.196 1.703-3.593 4.05z"/>
     <path d="m290.69 230.92c-.511.547.506 1.684 1.611 1.249 1.187-.467 1.349-1.161 2.815-1.24-1.927-1.985-3.35-1.161-4.427-.009z"/>
    </g>
   </g>
  </g>
  <g fill="#fcdd09" stroke-width="1.32">
   <ellipse ry="1.98" rx="1.98" cy="78.863" cx="189.22"/>
   <ellipse ry="1.98" rx="1.98" cy="82.68" cx="192.8"/>
   <ellipse ry="1.98" rx="1.98" cy="82.68" cx="185.76"/>
   <path d="m309.18 80.92v10.12h3.08v-10.12z" fill-rule="evenodd"/>
   <ellipse ry="1.98" rx="1.98" cx="310.66" cy="78.863"/>
   <ellipse ry="1.98" rx="1.98" cx="314.24" cy="82.68"/>
   <ellipse ry="1.98" rx="1.98" cx="307.2" cy="82.68"/>
  </g>
 </g>
</svg>
