<!-- Created with Inkscape (http://www.inkscape.org/) -->
<svg xmlns:rdf="http://www.w3.org/1999/02/22-rdf-syntax-ns#" xmlns="http://www.w3.org/2000/svg" height="300" width="500" version="1.1" xmlns:cc="http://creativecommons.org/ns#" xmlns:dc="http://purl.org/dc/elements/1.1/">
 <metadata>
  <rdf:RDF>
   <cc:Work rdf:about="">
    <dc:format>image/svg+xml</dc:format>
    <dc:type rdf:resource="http://purl.org/dc/dcmitype/StillImage"/>
    <dc:title/>
   </cc:Work>
  </rdf:RDF>
 </metadata>
 <rect height="150" width="500" y="-0.0010391" x="0.000028906" fill="#0039a6"/>
 <path stroke-linejoin="miter" style="enable-background:accumulate;color:#000000;" d="m0.25103,150.15,0.71466,149.6,498.78-0.26-0.04-149.18" stroke-dashoffset="0" stroke="#000" stroke-linecap="butt" stroke-miterlimit="4" stroke-dasharray="none" stroke-width="0.5020625" fill="#fabc00"/>
 <g transform="matrix(0.35999818,0,0,0.35999818,175.24492,43.192315)">
  <path fill="#fabc00" d="m33.885,71.856,9.333,48.004,325.33,1.33,7.33-48.668c0,0.001-139.33-39.333-342-0.666z"/>
  <path stroke-linejoin="round" d="m380.55,80.773c-136.5-33.25-312.25-11-337-4.5l-3-14c24.75-6.5,200.5-28.75,337,4.5l3,14z" stroke="#000" stroke-width="4" fill="#fabc00"/>
  <polygon stroke-linejoin="round" stroke="#000" points="225.05,42.523,237.55,29.523,178.55,29.523,191.55,42.523" stroke-width="4" fill="#fabc00"/>
  <rect stroke-linejoin="round" height="63.5" width="43.5" stroke="#000" y="38.523" x="186.05" stroke-width="4" fill="#fabc00"/>
  <polygon stroke-linejoin="round" stroke="#000" points="198.05,16.023,218.55,16.023,218.55,2.273,237.55,2.273,237.55,29.523,178.55,29.523,178.55,2.023,197.55,2.023" stroke-width="4" fill="#fabc00"/>
  <path stroke-linejoin="round" d="m212.55,101.77h-10v-25.497c5.63-5.625,10,0,10,0v25.497z" stroke="#000" stroke-width="4"/>
  <polygon stroke-linejoin="round" stroke="#000" points="310.64,46.659,323.96,34.506,265.09,30.636,277.21,44.461" stroke-width="4" fill="#fabc00"/>
  <rect stroke-linejoin="round" transform="matrix(0.9978,0.0656,-0.0656,0.9978,5.4298,-18.967)" height="63.5" width="43.501" stroke="#000" y="41.467" x="269.86" stroke-width="4" fill="#fabc00"/>
  <polygon stroke-linejoin="round" stroke="#000" points="285.44,18.444,305.89,19.789,306.79,6.069,325.75,7.315,323.96,34.506,265.09,30.636,266.9,3.196,285.85,4.442" stroke-width="4" fill="#fabc00"/>
  <path stroke-linejoin="round" d="m294.28,104.96-9.98-0.66,1.67-25.44c5.98-5.244,9.98,0.656,9.98,0.656l-1.67,25.444z" stroke="#000" stroke-width="4"/>
  <polygon stroke-linejoin="round" stroke="#000" points="394.57,57.525,408.93,46.62,350.65,37.469,361.48,52.329" stroke-width="4" fill="#fabc00"/>
  <rect stroke-linejoin="round" transform="matrix(0.9879,0.1551,-0.1551,0.9879,17.276,-56.892)" height="63.5" width="43.501" stroke="#000" y="50.514" x="351.48" stroke-width="4" fill="#fabc00"/>
  <polygon stroke-linejoin="round" stroke="#000" points="372.01,27.158,392.26,30.337,394.39,16.753,413.16,19.7,408.93,46.62,350.65,37.469,354.91,10.303,373.68,13.25" stroke-width="4" fill="#fabc00"/>
  <path stroke-linejoin="round" d="m373.03,114.12-9.88-1.55,3.96-25.193c6.43-4.685,9.88,1.55,9.88,1.55l-3.96,25.193z" stroke="#000" stroke-width="4"/>
  <polygon stroke-linejoin="round" stroke="#000" points="139.61,42.771,151.51,29.223,92.573,31.868,106.14,44.272" stroke-width="4" fill="#fabc00"/>
  <rect stroke-linejoin="round" transform="matrix(0.999,-0.0448,0.0448,0.999,-3.0707,5.6138)" height="63.5" width="43.5" stroke="#000" y="39.516" x="101.87" stroke-width="4" fill="#fabc00"/>
  <polygon stroke-linejoin="round" stroke="#000" points="111.45,17.507,131.93,16.588,131.31,2.853,150.29,2,151.51,29.223,92.573,31.868,91.34,4.396,110.32,3.544" stroke-width="4" fill="#fabc00"/>
  <path stroke-linejoin="round" d="m129.78,102.52-9.99,0.45-1.15-25.475c5.37-5.872,9.99-0.448,9.99-0.448l1.15,25.473z" stroke="#000" stroke-width="4"/>
  <polygon stroke-linejoin="round" stroke="#000" points="54.148,48.034,64.513,33.274,6.207,42.3,21.043,53.159" stroke-width="4" fill="#fabc00"/>
  <rect stroke-linejoin="round" transform="matrix(0.9882,-0.153,0.153,0.9882,-11.461,7.2447)" height="63.5" width="43.5" stroke="#000" y="46.347" x="19.597" stroke-width="4" fill="#fabc00"/>
  <polygon stroke-linejoin="round" stroke="#000" points="23.412,25.976,43.67,22.841,41.567,9.252,60.343,6.345,64.513,33.274,6.207,42.3,2,15.125,20.776,12.218" stroke-width="4" fill="#fabc00"/>
  <path stroke-linejoin="round" d="m50.86,108.5-9.882,1.53-3.901-25.201c4.698-6.42,9.882-1.53,9.882-1.53l3.901,25.201z" stroke="#000" stroke-width="4"/>
  <rect stroke-linejoin="round" transform="matrix(0.99752,-0.0704,0.0704,0.99752,0,0)" height="7.9988" width="11.5" stroke="#000" y="62.13" x="71.587" stroke-width="0.99998"/>
  <rect stroke-linejoin="round" transform="matrix(0.9996,-0.0284,0.0284,0.9996,0,0)" height="7.999" width="11.5" stroke="#000" y="55.468" x="158.43" stroke-width="1"/>
  <rect stroke-linejoin="round" transform="matrix(0.99956,0.0295,-0.0295,0.99956,0,0)" height="7.9993" width="11.498" stroke="#000" y="43.852" x="246.58" stroke-width="1"/>
  <rect stroke-linejoin="round" transform="matrix(0.99024,0.1394,-0.1394,0.99024,0,0)" height="7.9997" width="11.498" stroke="#000" y="11.923" x="335.08" stroke-width="0.99996"/>
  <path stroke-linejoin="round" d="m22.552,119.02s13,19,7.5,34l352.5,1c-2-11.5,6.5-32,6.5-32s-165.83-27.164-366.5-3z" stroke="#000" stroke-width="4" fill="#fabc00"/>
  <path stroke-linejoin="round" d="m25.052,163.02c-11-13,7.5-16,7.5-16,24-5.5,227.5-15,350,1.5,0,0,17.5,6.5,1.5,15" stroke="#000" stroke-width="4" fill="#fabc00"/>
  <path stroke-linejoin="round" d="m16.052,120.52c-6-15,93.998-18.5,189-18,95,0.5,198.5,8.5,193,21.5s-34-6-193.5-6-182.5,17.5-188.5,2.5z" stroke="#000" stroke-width="4" fill="#fabc00"/>
  <path d="m201.05,588.52c-116,0-190.5-62-190.5-159v-263c56-14,330-14.5,389.5,0v263c0,96-83,159-199,159z" stroke="#000" stroke-width="6" fill="#0039a6"/>
  <path stroke-linejoin="round" d="m223.89,273.52v186c0,61.34,99.33,28.34,102.66-29l-23-1.33c12.67-31.33,20.65-67.96,24.34-90.83,3.69-22.86,14.52-9.19,18.87-0.24,4.36,8.95,27.04,66.57,22.79,91.74l-16.66,1.66c0.41,6-20.17,110-148,110-127.84,0-145.84-100.33-145.34-108.66l-17.667-1.34c-3.083-27.5,19.917-86.16,25.667-97.33s12.667-9.75,15.333-0.33c2.666,9.41,24.165,93.08,25.665,96l-22.665,2.33c8.667,69.08,103.66,82.58,103.66,28.33v-186.66" stroke="#000" stroke-width="6" fill="#fabc00"/>
  <path fill="none" d="m339.92,346.02s5.21,46.88,0.69,81.25"/>
  <path stroke-linejoin="round" d="m337.37,426.34c3.7-26.09,3.07-53.08,1.28-79.66,3.99,26.45,6.92,53.23,5.33,80.51l-6.61-0.85z" stroke="#000" stroke-width="2"/>
  <path fill="none" d="m72.549,349.86s-7.259,49.8-1.52,78.5"/>
  <path stroke-linejoin="round" d="m67.668,428.5c-3.584-26.65-0.236-52.59,3.491-78.33-1.571,25.83-2.51,52.44,3.053,77.06l-6.544,1.27z" stroke="#000" stroke-width="2"/>
  <path d="m353.88,205.52s-43.66,37-47,44.67l17.34,16.67c8.66-8.34,39.66-53.34,39.66-53.34" stroke="#000" stroke-width="6" fill="#fabc00"/>
  <circle stroke-width="6" d="m 378.54999,201.52 c 0,7.17971 -5.8203,13 -13,13 -7.1797,0 -13,-5.82029 -13,-13 0,-7.1797 5.8203,-13 13,-13 7.1797,0 13,5.8203 13,13 z" cx="365.55" cy="201.52" stroke="#000" r="13" fill="#fabc00"/>
  <path fill="none" d="m364.05,208.52s8.17-0.83,6.5-10"/>
  <path stroke-linejoin="round" stroke="#000" d="m372.2,198.32c1.16,5-2.85,10.95-7.97,10.85,5.08-1.46,6.52-6.68,4.69-10.27l3.28-0.58z"/>
  <line stroke-width="4" y2="223.36" x2="356.55" stroke="#000" stroke-linecap="round" y1="212.19" x1="345.39" fill="none"/>
  <line stroke-width="4" y2="228.52" x2="352.05" stroke="#000" stroke-linecap="round" y1="217.36" x1="340.89" fill="none"/>
  <line stroke-width="4" y2="234.36" x2="347.39" stroke="#000" stroke-linecap="round" y1="223.19" x1="336.22" fill="none"/>
  <line stroke-width="4" y2="240.02" x2="342.39" stroke="#000" stroke-linecap="round" y1="228.86" x1="331.22" fill="none"/>
  <line stroke-width="4" y2="247.02" x2="338.89" stroke="#000" stroke-linecap="round" y1="233.19" x1="324.89" fill="none"/>
  <line stroke-width="4" y2="252.86" x2="333.39" stroke="#000" stroke-linecap="round" y1="239.02" x1="319.39" fill="none"/>
  <line stroke-width="4" y2="258.69" x2="328.55" stroke="#000" stroke-linecap="round" y1="244.86" x1="314.55" fill="none"/>
  <path d="m290.88,255.52s-230,260.34-216.66,273.67c13.331,13.33,246.66-248.33,246.66-248.33" stroke="#000" stroke-linecap="round" stroke-width="4" fill="#d9d9d9"/>
  <polyline stroke-linejoin="round" stroke="#000" points="302.88,263.52,92.885,508.19,309.22,269.19" stroke-width="4" fill="none"/>
  <path d="m273.22,231.19-5.67,11.33s52.67,23,68,61l11.67-8.33c-13.67-26.67-45.67-53.67-74-64z" stroke="#000" stroke-width="6" fill="#fabc00"/>
  <line stroke-width="4" y2="244.75" x2="300.17" stroke="#000" stroke-linecap="round" y1="255.04" x1="291.69" fill="none"/>
  <line stroke-width="4" y2="271.19" x2="329.76" stroke="#000" stroke-linecap="round" y1="281.1" x1="320.84" fill="none"/>
  <path d="m59.328,205.52s43.672,37,47.002,44.67l-17.336,16.67c-8.666-8.34-39.666-53.34-39.666-53.34" stroke="#000" stroke-width="6" fill="#fabc00"/>
  <circle stroke-width="6" d="m 60.660999,201.52 c 0,7.17971 -5.820298,13 -13,13 -7.179701,0 -13,-5.82029 -13,-13 0,-7.1797 5.820299,-13 13,-13 7.179702,0 13,5.8203 13,13 z" cx="47.661" cy="201.52" stroke="#000" r="13" fill="#fabc00"/>
  <path fill="none" d="m49.16,209.52s-8.167-0.83-6.5-10"/>
  <path stroke-linejoin="round" stroke="#000" d="m44.291,199.9c-1.314,3.83,0.492,8.03,4.875,8.95-4.416,0.64-8.802-4.29-8.158-9.53l3.283,0.58z"/>
  <line stroke-width="4" y2="223.36" x2="56.661" stroke="#000" stroke-linecap="round" y1="212.19" x1="67.827" fill="none"/>
  <line stroke-width="4" y2="228.52" x2="61.161" stroke="#000" stroke-linecap="round" y1="217.36" x1="72.327" fill="none"/>
  <line stroke-width="4" y2="234.36" x2="65.828" stroke="#000" stroke-linecap="round" y1="223.19" x1="76.994" fill="none"/>
  <line stroke-width="4" y2="240.02" x2="70.828" stroke="#000" stroke-linecap="round" y1="228.86" x1="81.994" fill="none"/>
  <line stroke-width="4" y2="247.02" x2="74.327" stroke="#000" stroke-linecap="round" y1="233.19" x1="88.327" fill="none"/>
  <line stroke-width="4" y2="252.86" x2="79.827" stroke="#000" stroke-linecap="round" y1="239.02" x1="93.827" fill="none"/>
  <line stroke-width="4" y2="258.69" x2="84.661" stroke="#000" stroke-linecap="round" y1="244.86" x1="98.661" fill="none"/>
  <path d="m122.33,255.52s230,260.34,216.66,273.67c-13.33,13.33-246.66-248.33-246.66-248.33" stroke="#000" stroke-linecap="round" stroke-width="4" fill="#d9d9d9"/>
  <polyline stroke-linejoin="round" stroke="#000" points="110.33,263.52,320.33,508.19,103.99,269.19" stroke-width="4" fill="none"/>
  <path d="m139.99,231.19,5.67,11.33s-52.666,23-67.999,61l-11.667-8.33c13.667-26.67,45.666-53.67,73.996-64z" stroke="#000" stroke-width="6" fill="#fabc00"/>
  <line stroke-width="4" y2="244.75" x2="113.05" stroke="#000" stroke-linecap="round" y1="255.04" x1="121.53" fill="none"/>
  <line stroke-width="4" y2="271.19" x2="83.451" stroke="#000" stroke-linecap="round" y1="281.1" x1="92.371" fill="none"/>
  <path d="M223.89,273.52" stroke="#000" stroke-width="6" fill="#f8b334"/>
  <path stroke-linejoin="round" d="M189.55,460.52v-186.66l34.34-0.34v186" stroke="#000" stroke-width="6" fill="#fabc00"/>
  <path d="m224.05,236.53v21.49l28-0.5v24.23c-44.35-6.17-91-0.23-91-0.23l0.1-24.5,28.94,2v-22.77" stroke="#000" stroke-width="6" fill="#fabc00"/>
  <circle stroke-width="6" d="m 242.55,209.02 c 0,19.60611 -15.89389,35.5 -35.5,35.5 -19.60611,0 -35.5,-15.89389 -35.5,-35.5 0,-19.6061 15.89389,-35.5 35.5,-35.5 19.60611,0 35.5,15.8939 35.5,35.5 z" cx="207.05" cy="209.02" stroke="#000" r="35.5" fill="#fabc00"/>
  <circle stroke-width="6" d="m 222.05,209.02 c 0,8.28428 -6.71573,15 -15,15 -8.28427,0 -15,-6.71572 -15,-15 0,-8.28427 6.71573,-15 15,-15 8.28427,0 15,6.71573 15,15 z" cx="207.05" cy="209.02" stroke="#000" r="15" fill="#0039a6"/>
 </g>
</svg>
