<?xml version="1.0" encoding="UTF-8"?>
<svg version="1.1" xmlns="http://www.w3.org/2000/svg" width="512" height="307">
<path d="M0 0 C168.96 0 337.92 0 512 0 C512 101.31 512 202.62 512 307 C343.04 307 174.08 307 0 307 C0 205.69 0 104.38 0 0 Z " fill="#06882F" transform="translate(0,0)"/>
<path d="M0 0 C62.7 0 125.4 0 190 0 C190.33 15.51 190.66 31.02 191 47 C194.78469301 68.44659371 199.9216741 88.73360473 218.71484375 101.90234375 C235.26387181 112.18840192 255.45479737 114.55407947 274.4375 110.8125 C291.33218171 106.57898419 303.49067336 98.12659897 313.125 83.5625 C315.73192403 78.9825761 317.53729179 74.21664404 319.25 69.25 C319.49637207 68.54818604 319.74274414 67.84637207 319.99658203 67.12329102 C326.85726192 46.05052546 324.54508823 20.92594145 325 0 C386.71 0 448.42 0 512 0 C512 50.82 512 101.64 512 154 C343.04 154 174.08 154 0 154 C0 103.18 0 52.36 0 0 Z " fill="#FFFFFF" transform="translate(0,153)"/>
<path d="M0 0 C1.32229189 2.64458379 1.09677194 4.67761301 1.0625 7.625 C1.05347656 8.62789062 1.04445312 9.63078125 1.03515625 10.6640625 C1.02355469 11.43492188 1.01195312 12.20578125 1 13 C2.98 13 4.96 13 7 13 C7 8.71 7 4.42 7 0 C15.25 0 23.5 0 32 0 C32 4.62 32 9.24 32 14 C33.98 14 35.96 14 38 14 C38.495 7.565 38.495 7.565 39 1 C46.53073733 0.77850773 53.63354547 1.33739 61 3 C61.495 3.495 61.495 3.495 62 4 C61.90968426 6.35694954 61.75311872 8.71153582 61.5625 11.0625 C61.46066406 12.35285156 61.35882813 13.64320312 61.25390625 14.97265625 C61.12822266 16.47119141 61.12822266 16.47119141 61 18 C62.98 18 64.96 18 67 18 C67.06058594 17.39671875 67.12117188 16.7934375 67.18359375 16.171875 C67.30927734 14.97304688 67.30927734 14.97304688 67.4375 13.75 C67.55931641 12.56664062 67.55931641 12.56664062 67.68359375 11.359375 C67.97634993 9.17635361 68.42064419 7.1226818 69 5 C75.06324531 6.03281734 81.10561127 7.17376093 87.125 8.4375 C88.22070312 8.66308594 89.31640625 8.88867188 90.4453125 9.12109375 C91.70988281 9.55615234 91.70988281 9.55615234 93 10 C94.41115322 14.23345966 92.84392938 17.31949165 91.47265625 21.38671875 C91.07100502 22.61223198 91.07100502 22.61223198 90.66123962 23.86250305 C89.80332363 26.47366773 88.93308732 29.08053598 88.0625 31.6875 C87.47900222 33.45611137 86.89630974 35.22498865 86.31445312 36.99414062 C84.88563134 41.33256879 83.44574613 45.66718382 82 50 C83.32 50.33 84.64 50.66 86 51 C86.04691991 65.23079618 86.08195272 79.46158021 86.10362434 93.69243813 C86.11402939 100.3014966 86.12812838 106.91050283 86.15087891 113.51953125 C86.1727246 119.90619795 86.18459324 126.29281464 86.18975449 132.67951584 C86.19342928 135.10736248 86.20060481 137.53520661 86.21146011 139.96303177 C86.34317818 170.66330277 86.34317818 170.66330277 81.4375 185 C81.18137939 185.75273193 80.92525879 186.50546387 80.66137695 187.28100586 C74.78174464 203.5727383 63.77529245 216.56611066 48 224 C27.8520677 231.59297792 5.48249645 231.20947981 -14.25 222.4453125 C-18.63850603 220.13885336 -22.30962167 217.28987215 -26 214 C-26.60328125 213.48953125 -27.2065625 212.9790625 -27.828125 212.453125 C-35.99645375 205.02068172 -40.87941259 195.30503108 -44.375 185 C-44.61355713 184.30156982 -44.85211426 183.60313965 -45.09790039 182.88354492 C-49.83374583 167.92635182 -49.26385821 152.73766046 -49.1953125 137.23046875 C-49.19157671 134.73798232 -49.18873241 132.24549441 -49.18673706 129.75300598 C-49.17914518 123.2314337 -49.15953536 116.70995223 -49.1373291 110.18841553 C-49.11567415 103.51820643 -49.10771485 96.84796885 -49.09765625 90.17773438 C-49.07628488 77.11845112 -49.04259437 64.05923042 -49 51 C-47.02 50.505 -47.02 50.505 -45 50 C-45.36875244 48.89487061 -45.73750488 47.78974121 -46.11743164 46.65112305 C-47.48127247 42.55593379 -48.83335203 38.4569425 -50.18188477 34.35668945 C-50.76754021 32.58153808 -51.35639373 30.80743851 -51.94848633 29.03442383 C-52.79828433 26.48787909 -53.63656455 23.93779134 -54.47265625 21.38671875 C-54.87412621 20.19594978 -54.87412621 20.19594978 -55.28370667 18.98112488 C-57.11387171 13.34161512 -57.11387171 13.34161512 -56 10 C-54.12988281 9.18457031 -54.12988281 9.18457031 -51.703125 8.578125 C-50.8265625 8.35769531 -49.95 8.13726562 -49.046875 7.91015625 C-48.12390625 7.69230469 -47.2009375 7.47445312 -46.25 7.25 C-45.3425 7.01667969 -44.435 6.78335938 -43.5 6.54296875 C-38.58275651 5.34241369 -36.16185341 4.96762932 -31 6 C-30.34 9.96 -29.68 13.92 -29 18 C-27.02 17.34 -25.04 16.68 -23 16 C-23.99 9.565 -23.99 9.565 -25 3 C-16.71570616 1.38617652 -8.46323055 0 0 0 Z " fill="#0A0A0A" transform="translate(239,37)"/>
<path d="M0 0 C20.79 0 41.58 0 63 0 C63.12032643 25.69192065 63.12032643 25.69192065 63.14648438 36.75195312 C63.16432866 44.26088931 63.1853012 51.76971442 63.22631836 59.27856445 C63.25922274 65.34106847 63.27691772 71.40345315 63.28463173 77.46603966 C63.29012001 79.76416588 63.30083483 82.06228653 63.31719017 84.3603611 C63.52245109 114.43264673 63.52245109 114.43264673 59 128 C58.29875 127.67 57.5975 127.34 56.875 127 C53.71942887 125.90241004 51.31774392 125.77379019 48 126 C47.67 126.33 47.34 126.66 47 127 C47.721875 126.773125 48.44375 126.54625 49.1875 126.3125 C52.75584692 125.91601701 54.13871099 126.95622213 57 129 C56.19643921 141.32126538 47.99920211 151.41417549 39.375 159.6875 C28.15092922 168.94243556 14.4102469 173.13244712 0 173 C-0.14852367 168.37367797 -0.25729019 163.74874758 -0.32958984 159.12060547 C-0.35973081 157.54711737 -0.40065294 155.97379688 -0.45263672 154.40087891 C-0.52558491 152.13662413 -0.55947806 149.87459186 -0.5859375 147.609375 C-0.61690521 146.90818542 -0.64787292 146.20699585 -0.67977905 145.48455811 C-0.68115234 143.48339844 -0.68115234 143.48339844 0 140 C3.49353024 136.90342039 4.98542958 135.94841167 9.6875 136.1875 C13 137 13 137 16 138 C16.391875 137.13375 16.78375 136.2675 17.1875 135.375 C19.1396907 131.73988628 21.32652821 129.12415525 24 126 C23.07058594 125.5153125 22.14117187 125.030625 21.18359375 124.53125 C4.76108538 115.72896293 4.76108538 115.72896293 2.3671875 107.94140625 C2.0625 106 2.0625 106 2 103 C7.10915111 105.50975844 12.08334206 108.13194953 17 111 C16.34 110.01 15.68 109.02 15 108 C14.15510419 104.72676159 13.87697685 101.67321741 13.88647461 98.30151367 C13.88655014 97.40095749 13.88662567 96.50040131 13.88670349 95.57255554 C13.89186478 94.6140419 13.89702606 93.65552826 13.90234375 92.66796875 C13.9037587 91.67622147 13.90517365 90.68447418 13.90663147 89.66267395 C13.91221582 86.50425157 13.92476548 83.34590085 13.9375 80.1875 C13.94251702 78.04231873 13.94707958 75.89713635 13.95117188 73.75195312 C13.96218012 68.50127776 13.9789027 63.250644 14 58 C14.66 58.33 15.32 58.66 16 59 C16.33 73.52 16.66 88.04 17 103 C17 102.67 17 102.34 17 102 C17 86.33333333 17 70.66666667 17 55 C16.67 55.66 16.34 56.32 16 57 C15.01 56.67 14.02 56.34 13 56 C11.77100654 49.93184478 10.72439786 44.20104812 11 38 C9.02 38.495 9.02 38.495 7 39 C5 36 5 36 5.375 33.3125 C5.58125 32.549375 5.7875 31.78625 6 31 C7.65 31.33 9.3 31.66 11 32 C11 30.68 11 29.36 11 28 C10.34 28.66 9.68 29.32 9 30 C6.375 30.125 6.375 30.125 4 30 C4.30893932 31.6256807 4.6222695 33.25052748 4.9375 34.875 C5.11152344 35.77992187 5.28554688 36.68484375 5.46484375 37.6171875 C5.89963701 39.99956317 5.89963701 39.99956317 7 42 C7.99 41.34 8.98 40.68 10 40 C10.50579714 43.04080421 11.00480759 46.08246646 11.5 49.125 C11.71462891 50.40890625 11.71462891 50.40890625 11.93359375 51.71875 C12.65695734 56.19671505 13.17918816 60.44563435 13 65 C9 65 9 65 0 60 C0 40.2 0 20.4 0 0 Z " fill="#CC1118" transform="translate(259,91)"/>
<path d="M0 0 C1.32229189 2.64458379 1.09677194 4.67761301 1.0625 7.625 C1.05347656 8.62789062 1.04445312 9.63078125 1.03515625 10.6640625 C1.02355469 11.43492188 1.01195312 12.20578125 1 13 C2.98 13 4.96 13 7 13 C7 8.71 7 4.42 7 0 C15.25 0 23.5 0 32 0 C32 4.62 32 9.24 32 14 C33.98 14 35.96 14 38 14 C38.495 7.565 38.495 7.565 39 1 C46.53073733 0.77850773 53.63354547 1.33739 61 3 C61.495 3.495 61.495 3.495 62 4 C61.90968426 6.35694954 61.75311872 8.71153582 61.5625 11.0625 C61.46066406 12.35285156 61.35882813 13.64320312 61.25390625 14.97265625 C61.12822266 16.47119141 61.12822266 16.47119141 61 18 C62.98 18 64.96 18 67 18 C67.06058594 17.39671875 67.12117188 16.7934375 67.18359375 16.171875 C67.30927734 14.97304688 67.30927734 14.97304688 67.4375 13.75 C67.55931641 12.56664062 67.55931641 12.56664062 67.68359375 11.359375 C67.97634993 9.17635361 68.42064419 7.1226818 69 5 C75.06324531 6.03281734 81.10561127 7.17376093 87.125 8.4375 C88.22070312 8.66308594 89.31640625 8.88867188 90.4453125 9.12109375 C91.70988281 9.55615234 91.70988281 9.55615234 93 10 C94.34580566 14.03741698 93.06523794 16.80435115 91.796875 20.6953125 C91.55841858 21.44336151 91.31996216 22.19141052 91.07427979 22.96212769 C90.56753821 24.54212308 90.05616566 26.12063958 89.54052734 27.69775391 C88.75227629 30.11801084 87.98672126 32.54467116 87.22265625 34.97265625 C86.72792315 36.50564812 86.23187368 38.03821591 85.734375 39.5703125 C85.50611023 40.29944855 85.27784546 41.02858459 85.04266357 41.77981567 C84.45277905 43.55279575 83.73621067 45.28261363 83 47 C82.01 47.33 81.02 47.66 80 48 C79.67 48.66 79.34 49.32 79 50 C77.35 49.67 75.7 49.34 74 49 C73.505 49.99 73.505 49.99 73 51 C72.28457031 50.85377197 71.56914062 50.70754395 70.83203125 50.55688477 C67.55531202 49.88898299 64.27767234 49.22570795 61 48.5625 C59.87464844 48.33240234 58.74929688 48.10230469 57.58984375 47.86523438 C56.48769531 47.64287109 55.38554687 47.42050781 54.25 47.19140625 C53.24453125 46.98717041 52.2390625 46.78293457 51.203125 46.57250977 C44.3472836 45.34713263 37.71150237 44.82618567 30.76171875 44.76171875 C29.8904837 44.75219681 29.01924866 44.74267487 28.12161255 44.73286438 C25.31020821 44.70844493 22.49899608 44.69587636 19.6875 44.6875 C18.73289886 44.68355225 17.77829773 44.67960449 16.79476929 44.67553711 C0.85446623 44.64474979 -14.34810742 45.80026554 -30 49 C-30 49.66 -30 50.32 -30 51 C-31.98 51 -33.96 51 -36 51 C-34.515 50.505 -34.515 50.505 -33 50 C-33 49.34 -33 48.68 -33 48 C-35.97 48.66 -38.94 49.32 -42 50 C-45.57142857 41.57142857 -45.57142857 41.57142857 -44 37 C-44.99 36.67 -45.98 36.34 -47 36 C-47.94921875 33.71484375 -47.94921875 33.71484375 -48.6875 30.9375 C-49.06455078 29.55884766 -49.06455078 29.55884766 -49.44921875 28.15234375 C-49.63097656 27.44207031 -49.81273437 26.73179688 -50 26 C-49.34 26 -48.68 26 -48 26 C-48.33 25.34 -48.66 24.68 -49 24 C-49.66 24 -50.32 24 -51 24 C-51.50559908 22.56445975 -52.0042749 21.1264798 -52.5 19.6875 C-52.91765625 18.48673828 -52.91765625 18.48673828 -53.34375 17.26171875 C-54 15 -54 15 -54 12 C-52.0636296 11.49564306 -50.12585854 10.99666126 -48.1875 10.5 C-47.10855469 10.2215625 -46.02960938 9.943125 -44.91796875 9.65625 C-42 9 -42 9 -39 9 C-38.67 8.01 -38.34 7.02 -38 6 C-36.02 5.67 -34.04 5.34 -32 5 C-30.41744803 9.32564205 -29.54855348 13.428721 -29 18 C-27.02 17.34 -25.04 16.68 -23 16 C-23.66 11.71 -24.32 7.42 -25 3 C-16.71570616 1.38617652 -8.46323055 0 0 0 Z " fill="#0B0C01" transform="translate(239,37)"/>
<path d="M0 0 C0.33 0 0.66 0 1 0 C1 2.31 1 4.62 1 7 C0.67 6.34 0.34 5.68 0 5 C-1.65 5.33 -3.3 5.66 -5 6 C-5.33 6.99 -5.66 7.98 -6 9 C-5.34 9 -4.68 9 -4 9 C-3.67 10.32 -3.34 11.64 -3 13 C-2.01 12.67 -1.02 12.34 0 12 C0.10957031 13.04800781 0.21914063 14.09601563 0.33203125 15.17578125 C0.49150574 16.55476651 0.65169966 17.93366871 0.8125 19.3125 C0.88275391 20.00279297 0.95300781 20.69308594 1.02539062 21.40429688 C1.39054018 24.4277352 1.65111464 26.56107971 3.57421875 28.98046875 C4.27998047 29.48513672 4.27998047 29.48513672 5 30 C6.51515517 26.96968967 6.64824641 23.7013029 7.0625 20.375 C7.15337891 19.66859375 7.24425781 18.9621875 7.33789062 18.234375 C7.56183119 16.4899959 7.78133818 14.74504866 8 13 C11 13 11 13 13 14 C13.33 11.36 13.66 8.72 14 6 C14.33 6 14.66 6 15 6 C14.67 9.3 14.34 12.6 14 16 C11 16 11 16 9 15 C9.02320313 15.556875 9.04640625 16.11375 9.0703125 16.6875 C9.08835937 17.450625 9.10640625 18.21375 9.125 19 C9.14820313 19.7425 9.17140625 20.485 9.1953125 21.25 C9 24 9 24 8.03125 27.5625 C6.59706303 32.97856011 6.54245008 38.42530778 6.375 44 C6.33632813 45.06089844 6.29765625 46.12179688 6.2578125 47.21484375 C6.16430306 49.80973067 6.07855098 52.40462449 6 55 C7.093125 54.34 8.18625 53.68 9.3125 53 C11.93707538 51.41535071 12.8256378 51 16 51 C15.54786421 55.86045979 14.46858739 58.53141261 11 62 C9.35 62.66 7.7 63.32 6 64 C6.33 78.19 6.66 92.38 7 107 C14.47206507 101.37468918 14.47206507 101.37468918 17.24050903 93.54486084 C17.23606781 92.62996887 17.23162659 91.7150769 17.22705078 90.77246094 C17.22682419 89.21129547 17.22682419 89.21129547 17.22659302 87.61859131 C17.21627045 86.50179993 17.20594788 85.38500854 17.1953125 84.234375 C17.1924826 83.08584045 17.18965271 81.93730591 17.18673706 80.75396729 C17.17554263 77.08587219 17.15043904 73.4180213 17.125 69.75 C17.11496926 67.26302436 17.10584358 64.77604489 17.09765625 62.2890625 C17.07560568 56.19262502 17.04213525 50.09632996 17 44 C17.66 44.99 18.32 45.98 19 47 C19.66 47.66 20.32 48.32 21 49 C21.66 48.67 22.32 48.34 23 48 C23 51.63 23 55.26 23 59 C23.71027344 58.566875 24.42054688 58.13375 25.15234375 57.6875 C26.07144531 57.130625 26.99054688 56.57375 27.9375 56 C28.85402344 55.443125 29.77054687 54.88625 30.71484375 54.3125 C33 53 33 53 34 53 C34.30678849 56.91155321 34.43485181 59.28082201 32.375 62.6875 C30 65 30 65 26.8125 66.625 C23.41761071 69.4917954 23.50316135 70.46417137 23.125 74.75 C23.05631618 76.49914798 23.00603616 78.24951445 23 80 C23.62648438 79.566875 24.25296875 79.13375 24.8984375 78.6875 C25.71570313 78.130625 26.53296875 77.57375 27.375 77 C28.18710937 76.443125 28.99921875 75.88625 29.8359375 75.3125 C32 74 32 74 34 74 C34.31167613 77.97387068 34.42805011 80.30243685 32.3125 83.75 C26.91666667 89 26.91666667 89 23 89 C22.97421875 89.56847656 22.9484375 90.13695312 22.921875 90.72265625 C22.49565767 96.52502403 21.20178217 100.1456851 18 105 C18.73605469 104.51789063 19.47210938 104.03578125 20.23046875 103.5390625 C21.20628906 102.90742188 22.18210937 102.27578125 23.1875 101.625 C24.15042969 100.99851562 25.11335938 100.37203125 26.10546875 99.7265625 C28.69803936 98.18011688 31.16853116 97.02491925 34 96 C33.88161811 101.68233076 32.31789286 104.78465178 28.453125 108.93359375 C23.50061731 113.10537173 17.72002166 116.0170206 12 119 C12.99 120.32 13.98 121.64 15 123 C16.051875 122.319375 17.10375 121.63875 18.1875 120.9375 C20.76674618 119.46290067 21.70953179 118.9867969 24.75 119.125 C27 120 27 120 30 122 C29.19643921 134.32126538 20.99920211 144.41417549 12.375 152.6875 C1.15092922 161.94243556 -12.5897531 166.13244712 -27 166 C-27.14852367 161.37367797 -27.25729019 156.74874758 -27.32958984 152.12060547 C-27.35973081 150.54711737 -27.40065294 148.97379688 -27.45263672 147.40087891 C-27.52558491 145.13662413 -27.55947806 142.87459186 -27.5859375 140.609375 C-27.61690521 139.90818542 -27.64787292 139.20699585 -27.67977905 138.48455811 C-27.68115234 136.48339844 -27.68115234 136.48339844 -27 133 C-23.50646976 129.90342039 -22.01457042 128.94841167 -17.3125 129.1875 C-14 130 -14 130 -11 131 C-10.608125 130.13375 -10.21625 129.2675 -9.8125 128.375 C-7.8603093 124.73988628 -5.67347179 122.12415525 -3 119 C-3.92941406 118.5153125 -4.85882813 118.030625 -5.81640625 117.53125 C-22.23891462 108.72896293 -22.23891462 108.72896293 -24.6328125 100.94140625 C-24.9375 99 -24.9375 99 -25 96 C-19.89084889 98.50975844 -14.91665794 101.13194953 -10 104 C-10.66 103.01 -11.32 102.02 -12 101 C-12.84489581 97.72676159 -13.12302315 94.67321741 -13.11352539 91.30151367 C-13.11344986 90.40095749 -13.11337433 89.50040131 -13.11329651 88.57255554 C-13.10813522 87.6140419 -13.10297394 86.65552826 -13.09765625 85.66796875 C-13.0962413 84.67622147 -13.09482635 83.68447418 -13.09336853 82.66267395 C-13.08778418 79.50425157 -13.07523452 76.34590085 -13.0625 73.1875 C-13.05748298 71.04231873 -13.05292042 68.89713635 -13.04882812 66.75195312 C-13.03781988 61.50127776 -13.0210973 56.250644 -13 51 C-12.34 51.33 -11.68 51.66 -11 52 C-10.97494385 53.31718018 -10.9498877 54.63436035 -10.92407227 55.99145508 C-10.82999118 60.87241562 -10.72977208 65.75323408 -10.62768555 70.6340332 C-10.58433936 72.7476062 -10.54266406 74.86121414 -10.50268555 76.97485352 C-10.44497551 80.01068664 -10.38128299 83.04634389 -10.31640625 86.08203125 C-10.29969376 87.02899368 -10.28298126 87.97595612 -10.26576233 88.95161438 C-10.24581711 89.83230087 -10.22587189 90.71298737 -10.20532227 91.62036133 C-10.18200584 92.78285149 -10.18200584 92.78285149 -10.15821838 93.96882629 C-10.06644623 96.20332493 -10.06644623 96.20332493 -9 99 C-4.05 102.96 -4.05 102.96 1 107 C1.33 92.81 1.66 78.62 2 64 C0.35 63.34 -1.3 62.68 -3 62 C-7.87804878 57.12195122 -7.87804878 57.12195122 -8.3125 53.125 C-8.209375 52.42375 -8.10625 51.7225 -8 51 C-3.75354935 51 -1.61475228 52.81750806 2 55 C1.88884865 51.18696663 1.758531 47.37481006 1.625 43.5625 C1.5940625 42.49322266 1.563125 41.42394531 1.53125 40.32226562 C1.32391232 34.67231383 0.87612809 29.39844264 -0.57226562 23.92382812 C-1.24208384 20.91117542 -1.13078847 18.07352913 -1 15 C-1.66 15 -2.32 15 -3 15 C-3 15.66 -3 16.32 -3 17 C-3.66 17 -4.32 17 -5 17 C-7.47120419 9.12303665 -7.47120419 9.12303665 -7 5 C-6.34 4.34 -5.68 3.68 -5 3 C-3.68 3 -2.36 3 -1 3 C-0.67 2.01 -0.34 1.02 0 0 Z " fill="#030502" transform="translate(286,98)"/>
<path d="M0 0 C7.26 0 14.52 0 22 0 C22 30.36 22 60.72 22 92 C10 92 10 92 0 89 C0 59.63 0 30.26 0 0 Z " fill="#FEFEFE" transform="translate(233,171)"/>
<path d="M0 0 C2.5 0.75 2.5 0.75 5.5 2.75 C4.69643921 15.07126538 -3.50079789 25.16417549 -12.125 33.4375 C-23.34907078 42.69243556 -37.0897531 46.88244712 -51.5 46.75 C-51.64852367 42.12367797 -51.75729019 37.49874758 -51.82958984 32.87060547 C-51.85973081 31.29711737 -51.90065294 29.72379688 -51.95263672 28.15087891 C-52.02558491 25.88662413 -52.05947806 23.62459186 -52.0859375 21.359375 C-52.11690521 20.65818542 -52.14787292 19.95699585 -52.17977905 19.23455811 C-52.18115234 17.23339844 -52.18115234 17.23339844 -51.5 13.75 C-48.00646976 10.65342039 -46.51457042 9.69841167 -41.8125 9.9375 C-38.5 10.75 -38.5 10.75 -35.5 11.75 C-35.17 10.863125 -34.84 9.97625 -34.5 9.0625 C-31.90228594 4.76003609 -29.14500716 2.63050463 -24.5 0.75 C-21.39181554 0.20988926 -18.60114504 0.14580077 -15.5 0.75 C-14.16209359 1.74387334 -12.82781878 2.7426892 -11.5 3.75 C-7.40977622 2.8317865 -3.98870471 -0.39887047 0 0 Z " fill="#06872F" transform="translate(310.5,217.25)"/>
<path d="M0 0 C8.58 0 17.16 0 26 0 C26 27.06 26 54.12 26 82 C10.48474481 71.65649654 4.02500307 55.07182551 0.45849609 37.30200195 C-0.06809409 33.50959926 -0.12530991 29.79535702 -0.09765625 25.9765625 C-0.0962413 25.23038666 -0.09482635 24.48421082 -0.09336853 23.71542358 C-0.08780874 21.35190682 -0.07526389 18.98848773 -0.0625 16.625 C-0.0574798 15.01432429 -0.0529178 13.40364709 -0.04882812 11.79296875 C-0.03870697 7.86191202 -0.0191241 3.93106428 0 0 Z " fill="#F7F7F7" transform="translate(193,170)"/>
<path d="M0 0 C8.25 0 16.5 0 25 0 C25 21.78 25 43.56 25 66 C16.75 66 8.5 66 0 66 C0 44.22 0 22.44 0 0 Z " fill="#FFFFFF" transform="translate(193,91)"/>
<path d="M0 0 C7.26 0 14.52 0 22 0 C22 21.78 22 43.56 22 66 C14.74 66 7.48 66 0 66 C0 44.22 0 22.44 0 0 Z " fill="#FFFFFF" transform="translate(233,91)"/>
<path d="M0 0 C6.06324531 1.03281734 12.10561127 2.17376093 18.125 3.4375 C19.22070312 3.66308594 20.31640625 3.88867188 21.4453125 4.12109375 C22.70988281 4.55615234 22.70988281 4.55615234 24 5 C25.34580566 9.03741698 24.06523794 11.80435115 22.796875 15.6953125 C22.55841858 16.44336151 22.31996216 17.19141052 22.07427979 17.96212769 C21.56753821 19.54212308 21.05616566 21.12063958 20.54052734 22.69775391 C19.75227629 25.11801084 18.98672126 27.54467116 18.22265625 29.97265625 C17.72792315 31.50564812 17.23187368 33.03821591 16.734375 34.5703125 C16.39197784 35.66401657 16.39197784 35.66401657 16.04266357 36.77981567 C15.45277905 38.55279575 14.73621067 40.28261363 14 42 C13.01 42.33 12.02 42.66 11 43 C10.67 43.66 10.34 44.32 10 45 C7.415141 44.3808361 4.83223828 43.75492318 2.25 43.125 C1.52039063 42.95097656 0.79078125 42.77695313 0.0390625 42.59765625 C-0.66992188 42.42363281 -1.37890625 42.24960938 -2.109375 42.0703125 C-2.75874023 41.91320801 -3.40810547 41.75610352 -4.07714844 41.59423828 C-6 41 -6 41 -10 39 C-9.34 36.03 -8.68 33.06 -8 30 C-6.35 29.67 -4.7 29.34 -3 29 C-3 28.34 -3 27.68 -3 27 C-3.556875 26.95101562 -4.11375 26.90203125 -4.6875 26.8515625 C-9.96567265 26.33444423 -14.88362365 25.39537537 -20 24 C-20.125 16.375 -20.125 16.375 -19 13 C-17.94039063 13.0721875 -16.88078125 13.144375 -15.7890625 13.21875 C-14.40104403 13.31253503 -13.01302307 13.40628311 -11.625 13.5 C-10.57699219 13.57154297 -10.57699219 13.57154297 -9.5078125 13.64453125 C-5.7572219 13.90655786 -5.7572219 13.90655786 -2 14 C-1.90912109 12.98679687 -1.90912109 12.98679687 -1.81640625 11.953125 C-1.73261719 11.06109375 -1.64882813 10.1690625 -1.5625 9.25 C-1.48128906 8.36828125 -1.40007812 7.4865625 -1.31640625 6.578125 C-1.03761535 4.30649548 -0.61209423 2.20148177 0 0 Z " fill="#080900" transform="translate(308,42)"/>
<path d="M0 0 C4.03685532 4.03685532 4.52112644 4.7323908 5 10 C5.7425 9.896875 6.485 9.79375 7.25 9.6875 C10 10 10 10 12.25 12.3125 C14.79148575 16.21549597 15.12177092 18.98529602 15.09765625 23.54296875 C15.09443359 24.61611328 15.09121094 25.68925781 15.08789062 26.79492188 C15.07951172 27.91447266 15.07113281 29.03402344 15.0625 30.1875 C15.05798828 31.31865234 15.05347656 32.44980469 15.04882812 33.61523438 C15.03703498 36.41020927 15.0205765 39.2050782 15 42 C11.52846619 41.23596585 9.00229182 39.91813089 6 38 C6 40.74501739 6.00914041 42.48616296 7 45 C8.83605386 46.39292055 8.83605386 46.39292055 11.01367188 47.60400391 C13.47864962 49.36854442 14.78143064 50.31489797 15.71118164 53.22918701 C15.92416874 55.92207505 15.90087707 58.51223823 15.78125 61.2109375 C15.76993042 62.17907379 15.75861084 63.14721008 15.74694824 64.14468384 C15.70231996 67.22350713 15.60198682 70.29759575 15.5 73.375 C15.4598553 75.46738044 15.42335626 77.55983421 15.390625 79.65234375 C15.30262891 84.7700411 15.16467785 89.88421922 15 95 C9.55712831 91.43027973 5.13491171 88.40473512 3 82 C2.91312201 80.45029552 2.8823134 78.89710293 2.88647461 77.3449707 C2.88655014 76.40422195 2.88662567 75.46347321 2.88670349 74.49421692 C2.89186478 73.48163315 2.89702606 72.46904938 2.90234375 71.42578125 C2.9037587 70.38681198 2.90517365 69.34784271 2.90663147 68.27738953 C2.91223344 64.95573052 2.92478628 61.63413867 2.9375 58.3125 C2.94251475 56.06184993 2.9470777 53.81119881 2.95117188 51.56054688 C2.96220351 46.04034163 2.97894357 40.52017561 3 35 C2.67 35.66 2.34 36.32 2 37 C1.01 36.67 0.02 36.34 -1 36 C-2.22899346 29.93184478 -3.27560214 24.20104812 -3 18 C-4.32 18.33 -5.64 18.66 -7 19 C-9 16 -9 16 -8.625 13.3125 C-8.41875 12.549375 -8.2125 11.78625 -8 11 C-6.35 11.33 -4.7 11.66 -3 12 C-2.01 8.04 -1.02 4.08 0 0 Z " fill="#D41119" transform="translate(273,111)"/>
<path d="M0 0 C10.56 0 21.12 0 32 0 C31.01 0.495 31.01 0.495 30 1 C29.34227572 4.02934491 29.34227572 4.02934491 29 7 C28.34 7 27.68 7 27 7 C26.67 8.32 26.34 9.64 26 11 C24.35 11.33 22.7 11.66 21 12 C21.33 15.96 21.66 19.92 22 24 C22.66 24 23.32 24 24 24 C24 23.34 24 22.68 24 22 C24.66 22 25.32 22 26 22 C26.33 25.63 26.66 29.26 27 33 C26.01 32.34 25.02 31.68 24 31 C23.175 30.938125 22.35 30.87625 21.5 30.8125 C20.675 30.544375 19.85 30.27625 19 30 C17.25 26.5625 17.25 26.5625 16 23 C15.67 22.34 15.34 21.68 15 21 C14.01 23.475 14.01 23.475 13 26 C12.34 26 11.68 26 11 26 C10.34 27.32 9.68 28.64 9 30 C7.35 30 5.7 30 4 30 C4.30893932 31.6256807 4.6222695 33.25052748 4.9375 34.875 C5.11152344 35.77992187 5.28554688 36.68484375 5.46484375 37.6171875 C5.89963701 39.99956317 5.89963701 39.99956317 7 42 C7.99 41.34 8.98 40.68 10 40 C10.50579714 43.04080421 11.00480759 46.08246646 11.5 49.125 C11.71462891 50.40890625 11.71462891 50.40890625 11.93359375 51.71875 C12.65695734 56.19671505 13.17918816 60.44563435 13 65 C9 65 9 65 0 60 C0 40.2 0 20.4 0 0 Z " fill="#D61119" transform="translate(259,91)"/>
<path d="M0 0 C1.32 0.33 2.64 0.66 4 1 C5.06795656 6.57710648 4.82622671 11.39436958 4 17 C4.33 17 4.66 17 5 17 C5.37952295 23.19887485 4.8352113 27.4477112 2 33 C1.01 32.01 0.02 31.02 -1 30 C-0.99111755 30.60055206 -0.98223511 31.20110413 -0.9730835 31.81985474 C-0.88445289 38.08162906 -0.82420051 44.34322461 -0.78027344 50.60546875 C-0.76018291 52.94115438 -0.73290539 55.27678987 -0.69824219 57.61230469 C-0.64961309 60.97343331 -0.62700508 64.33389575 -0.609375 67.6953125 C-0.58872986 68.73615997 -0.56808472 69.77700745 -0.54681396 70.84939575 C-0.54455139 78.19274492 -1.66548322 81.64477193 -6.88671875 86.8984375 C-7.48097656 87.38570313 -8.07523437 87.87296875 -8.6875 88.375 C-9.28949219 88.87773437 -9.89148438 89.38046875 -10.51171875 89.8984375 C-12 91 -12 91 -13 91 C-13.17321862 84.82542231 -13.30015058 78.65226205 -13.38452148 72.47583008 C-13.41969477 70.37564457 -13.46744308 68.27563011 -13.52807617 66.17602539 C-13.61313411 63.15468169 -13.65271864 60.13560487 -13.68359375 57.11328125 C-13.71972275 56.17664139 -13.75585175 55.24000153 -13.79307556 54.27497864 C-13.79693438 47.84843712 -13.79693438 47.84843712 -11.44215393 45.34147644 C-9.54101562 44.0078125 -9.54101562 44.0078125 -7.63806152 42.95678711 C-5.35905984 41.62562866 -4.7798927 40.17727466 -4.0625 37.6875 C-3.711875 36.470625 -3.36125 35.25375 -3 34 C-3.9075 34.474375 -4.815 34.94875 -5.75 35.4375 C-8.29534425 36.6612232 -10.29664942 37.39468454 -13 38 C-13.05837668 34.29173349 -13.09372277 30.5835863 -13.125 26.875 C-13.15013672 25.30492187 -13.15013672 25.30492187 -13.17578125 23.703125 C-13.23890182 13.73007428 -13.23890182 13.73007428 -11 9 C-8.08460108 6.86204079 -6.76232429 7 -3 7 C-2.01 4.69 -1.02 2.38 0 0 Z " fill="#D41119" transform="translate(305,115)"/>
<path d="M0 0 C0.99 0.99 1.98 1.98 3 3 C3 3.66 3 4.32 3 5 C3.53625 5.2475 4.0725 5.495 4.625 5.75 C5.40875 6.1625 6.1925 6.575 7 7 C8.03125 7.515625 9.0625 8.03125 10.125 8.5625 C13.65096792 11.55190759 13.86080818 13.33738607 14.56640625 17.73828125 C15.15370884 20.80177856 16.47668537 23.29957862 18 26 C14.30123909 24.62712658 11.0485524 22.93644547 7.6875 20.875 C6.80449219 20.33617187 5.92148437 19.79734375 5.01171875 19.2421875 C4.34785156 18.83226562 3.68398438 18.42234375 3 18 C3.1304751 23.21900381 5.07259158 26.18205776 8.48046875 29.8984375 C13.69103821 34.24461792 19.92177803 37.05867251 26 40 C25.23300781 40.75667969 24.46601563 41.51335937 23.67578125 42.29296875 C21.73634404 44.25505632 19.92398903 46.17909919 18.1875 48.3125 C17.465625 49.199375 16.74375 50.08625 16 51 C15.484375 50.835 14.96875 50.67 14.4375 50.5 C8.91046891 49.36625003 5.25598013 49.89760795 0 52 C0 34.84 0 17.68 0 0 Z " fill="#D61119" transform="translate(259,177)"/>
<path d="M0 0 C1.42116119 -0.00117828 1.42116119 -0.00117828 2.87103271 -0.00238037 C17.6607325 0.01229908 31.68099891 0.98326641 46.125 4.375 C47.8303782 4.75418608 49.53609594 5.13184907 51.2421875 5.5078125 C52.52351563 5.79398437 53.80484375 6.08015625 55.125 6.375 C55.125 6.705 55.125 7.035 55.125 7.375 C21.465 7.375 -12.195 7.375 -46.875 7.375 C-47.205 6.715 -47.535 6.055 -47.875 5.375 C-46.00205987 4.90832056 -44.12645952 4.45232079 -42.25 4 C-41.20585937 3.74476562 -40.16171875 3.48953125 -39.0859375 3.2265625 C-26.02743504 0.45798715 -13.29813113 -0.02340457 0 0 Z " fill="#06872F" transform="translate(256.875,80.625)"/>
<path d="M0 0 C0.33 0 0.66 0 1 0 C1.165 1.19625 1.33 2.3925 1.5 3.625 C2.15716422 6.42227437 2.52878706 7.65188379 4.86901855 9.38076782 C5.58706665 9.79474823 6.30511475 10.20872864 7.04492188 10.63525391 C9.50291594 12.39040192 10.7845727 13.3234804 11.70922852 16.22723389 C11.92423951 18.92113699 11.90092843 21.51107963 11.78125 24.2109375 C11.76993042 25.17907379 11.75861084 26.14721008 11.74694824 27.14468384 C11.70231996 30.22350713 11.60198682 33.29759575 11.5 36.375 C11.4598553 38.46738044 11.42335626 40.55983421 11.390625 42.65234375 C11.30262891 47.7700411 11.16467785 52.88421922 11 58 C5.55712831 54.43027973 1.13491171 51.40473512 -1 45 C-1.09110047 43.54762517 -1.12789479 42.09145887 -1.12939453 40.63623047 C-1.13254669 39.75877167 -1.13569885 38.88131287 -1.13894653 37.9772644 C-1.1369223 37.03343903 -1.13489807 36.08961365 -1.1328125 35.1171875 C-1.13376923 34.14717804 -1.13472595 33.17716858 -1.13571167 32.17776489 C-1.13639208 30.12843765 -1.13454749 28.07910825 -1.13037109 26.02978516 C-1.12500934 22.8804851 -1.13032674 19.73132692 -1.13671875 16.58203125 C-1.13605817 14.59374968 -1.13477743 12.60546821 -1.1328125 10.6171875 C-1.13483673 9.66931366 -1.13686096 8.72143982 -1.13894653 7.74484253 C-1.13579437 6.87368805 -1.13264221 6.00253357 -1.12939453 5.10498047 C-1.12820114 3.9494014 -1.12820114 3.9494014 -1.12698364 2.77047729 C-1 1 -1 1 0 0 Z " fill="#D91119" transform="translate(277,148)"/>
<path d="M0 0 C0.33 0 0.66 0 1 0 C1 2.64 1 5.28 1 8 C0.34 7.34 -0.32 6.68 -1 6 C-2.32 6 -3.64 6 -5 6 C-4.67 8.31 -4.34 10.62 -4 13 C-2.68 12.67 -1.36 12.34 0 12 C0.13277344 13.04800781 0.26554687 14.09601563 0.40234375 15.17578125 C0.58057235 16.55470778 0.75896641 17.93361293 0.9375 19.3125 C1.02451172 20.00279297 1.11152344 20.69308594 1.20117188 21.40429688 C1.59210135 24.40142288 2.0415004 27.12450119 3 30 C3.66 30.33 4.32 30.66 5 31 C5.33 29.35 5.66 27.7 6 26 C6.84878497 28.94329194 7.1178509 31.53852427 7.09765625 34.59741211 C7.09435303 35.50192612 7.0910498 36.40644012 7.08764648 37.33836365 C7.07934814 38.30822708 7.0710498 39.27809052 7.0625 40.27734375 C7.05871338 41.28084366 7.05492676 42.28434357 7.05102539 43.31825256 C7.03468359 47.60862197 7.00655025 51.89889595 6.97949219 56.18920898 C6.96140812 59.32274943 6.94931299 62.4562744 6.9375 65.58984375 C6.92920166 66.55768295 6.92090332 67.52552216 6.91235352 68.52268982 C6.90905029 69.43035599 6.90574707 70.33802216 6.90234375 71.27319336 C6.89710693 72.06721054 6.89187012 72.86122772 6.88647461 73.67930603 C7.00975734 76.19946027 7.4490549 78.54078111 8 81 C6 80 6 80 5 77 C4.88650152 75.54293083 4.82398525 74.08155041 4.79467773 72.62036133 C4.77473251 71.73967484 4.75478729 70.85898834 4.73423767 69.95161438 C4.71752518 69.00465195 4.70081268 68.05768951 4.68359375 67.08203125 C4.66281265 66.10965012 4.64203156 65.13726898 4.62062073 64.13542175 C4.55521252 61.02785335 4.49628071 57.92020015 4.4375 54.8125 C4.39430649 52.70637142 4.35069193 50.60025144 4.30664062 48.49414062 C4.19874733 43.32951276 4.09960877 38.16482093 4 33 C3.67 42.24 3.34 51.48 3 61 C-1.92095045 60.01580991 -3.99547489 58.7857566 -8 56 C-8.99 55.67 -9.98 55.34 -11 55 C-11 49.72 -11 44.44 -11 39 C-9.68 40.65 -8.36 42.3 -7 44 C-4.91525764 45.600402 -4.91525764 45.600402 -2.75 46.8125 C-1.5125 47.534375 -0.275 48.25625 1 49 C-3.455 45.535 -3.455 45.535 -8 42 C-7.67 41.34 -7.34 40.68 -7 40 C-7.66 39.34 -8.32 38.68 -9 38 C-8.67 37.34 -8.34 36.68 -8 36 C-6.63875 36.9590625 -6.63875 36.9590625 -5.25 37.9375 C-2.04217023 40.21261509 -2.04217023 40.21261509 2 41 C0.68 32.42 -0.64 23.84 -2 15 C-2.99 15.66 -3.98 16.32 -5 17 C-6.75747614 12.49646738 -7.19294408 8.82360189 -7 4 C-5.5459375 3.566875 -5.5459375 3.566875 -4.0625 3.125 C-0.89335797 2.35785318 -0.89335797 2.35785318 0 0 Z " fill="#020101" transform="translate(270,117)"/>
<path d="M0 0 C0.33 0 0.66 0 1 0 C1.07558065 3.87360504 1.1292563 7.74691006 1.16479492 11.62109375 C1.18685261 13.56786238 1.22501918 15.51442765 1.26367188 17.4609375 C1.33238265 26.43914496 0.23695491 34.3161427 -2 43 C-2.76570313 42.67902344 -3.53140625 42.35804688 -4.3203125 42.02734375 C-7.58128595 40.77714547 -9.52668519 40.51373593 -13 41 C-15.51571522 42.45566587 -17.76403569 44.14772187 -20 46 C-21.32 44.35 -22.64 42.7 -24 41 C-22.7315625 40.36384766 -22.7315625 40.36384766 -21.4375 39.71484375 C-9.04024673 33.65852961 -9.04024673 33.65852961 -1 23 C-1 21.68 -1 20.36 -1 19 C-1.98742187 19.66128906 -2.97484375 20.32257813 -3.9921875 21.00390625 C-5.28618088 21.85719174 -6.58046693 22.71003351 -7.875 23.5625 C-8.85146484 24.21895508 -8.85146484 24.21895508 -9.84765625 24.88867188 C-11.52625497 25.98754836 -13.26023387 27.0007818 -15 28 C-15.66 27.67 -16.32 27.34 -17 27 C-16.65066406 26.34773438 -16.30132812 25.69546875 -15.94140625 25.0234375 C-13.01431328 19.64720044 -13.01431328 19.64720044 -11.75 13.75 C-10.78955435 10.22836596 -9.59780859 9.84361589 -6.5625 7.9375 C-5.75941406 7.49277344 -4.95632813 7.04804688 -4.12890625 6.58984375 C-1.55216078 4.6655586 -0.93489835 3.02947937 0 0 Z " fill="#D61119" transform="translate(320,176)"/>
<path d="M0 0 C0.66 0 1.32 0 2 0 C2.67154933 1.28913487 3.33708859 2.58140204 4 3.875 C4.37125 4.59429687 4.7425 5.31359375 5.125 6.0546875 C6 8 6 8 6 10 C7.65 10 9.3 10 11 10 C12.27351308 12.54702616 11.80191925 13.4282945 11.0625 16.125 C10.86785156 16.84945312 10.67320312 17.57390625 10.47265625 18.3203125 C10.31667969 18.87460938 10.16070312 19.42890625 10 20 C8.68 19.67 7.36 19.34 6 19 C5.89042969 20.04800781 5.78085937 21.09601563 5.66796875 22.17578125 C5.50849426 23.55476651 5.34830034 24.93366871 5.1875 26.3125 C5.11724609 27.00279297 5.04699219 27.69308594 4.97460938 28.40429688 C4.60945982 31.4277352 4.34888536 33.56107971 2.42578125 35.98046875 C1.95527344 36.31691406 1.48476563 36.65335938 1 37 C-2.40295412 33.46019786 -2.5325645 29.93347893 -2.6875 25.25 C-2.72166016 24.55261719 -2.75582031 23.85523437 -2.79101562 23.13671875 C-2.87308295 21.42502892 -2.93822919 19.7125424 -3 18 C-4.98 18.99 -4.98 18.99 -7 20 C-7 18.35 -7 16.7 -7 15 C-7.66 15 -8.32 15 -9 15 C-8.67 13.68 -8.34 12.36 -8 11 C-6.35 11 -4.7 11 -3 11 C-2.01 7.37 -1.02 3.74 0 0 Z " fill="#7F7F7F" transform="translate(289,92)"/>
<path d="M0 0 C0.33 0 0.66 0 1 0 C0.67 3.3 0.34 6.6 0 10 C-3 10 -3 10 -5 9 C-4.97679687 9.556875 -4.95359375 10.11375 -4.9296875 10.6875 C-4.91164063 11.450625 -4.89359375 12.21375 -4.875 13 C-4.85179687 13.7425 -4.82859375 14.485 -4.8046875 15.25 C-5 18 -5 18 -5.96875 21.5625 C-7.40293697 26.97856011 -7.45754992 32.42530778 -7.625 38 C-7.66367187 39.06089844 -7.70234375 40.12179688 -7.7421875 41.21484375 C-7.83569694 43.80973067 -7.92144902 46.40462449 -8 49 C-6.906875 48.34 -5.81375 47.68 -4.6875 47 C-2.06292462 45.41535071 -1.1743622 45 2 45 C1.54617044 49.87866775 0.3639156 52.43820701 -3 56 C-6 58 -6 58 -9 58 C-9 73.18 -9 88.36 -9 104 C-9.66 103.67 -10.32 103.34 -11 103 C-11.06949441 93.02957465 -11.12280843 83.05920688 -11.15543652 73.08858871 C-11.17109597 68.4588745 -11.19233932 63.82932592 -11.22631836 59.19970703 C-11.25890188 54.73229595 -11.27685091 50.26504424 -11.28463173 45.7975235 C-11.29017705 44.0926589 -11.30100568 42.38780308 -11.31719017 40.68300629 C-11.33895135 38.29596572 -11.34196752 35.90958466 -11.34057617 33.52246094 C-11.351362 32.81683517 -11.36214783 32.11120941 -11.3732605 31.38420105 C-11.3468211 27.19525078 -10.72337922 25.14316798 -8 22 C-7.47730899 19.37256926 -7.08547616 16.89962186 -6.8125 14.25 C-6.73064453 13.55261719 -6.64878906 12.85523437 -6.56445312 12.13671875 C-6.36522867 10.42573224 -6.18110071 8.71299963 -6 7 C-3 7 -3 7 -1 8 C-0.67 5.36 -0.34 2.72 0 0 Z " fill="#06541E" transform="translate(300,104)"/>
<path d="M0 0 C0 3.63 0 7.26 0 11 C-4.14536815 11.36059637 -8.29113087 11.71378203 -12.4375 12.0625 C-13.62150391 12.16626953 -14.80550781 12.27003906 -16.02539062 12.37695312 C-17.15009766 12.47041016 -18.27480469 12.56386719 -19.43359375 12.66015625 C-20.47572021 12.74918213 -21.51784668 12.83820801 -22.59155273 12.92993164 C-23.78373413 12.96461548 -23.78373413 12.96461548 -25 13 C-26.66342837 11.33657163 -26.36048097 9.2174291 -26.5625 6.9375 C-26.64628906 6.01839844 -26.73007813 5.09929688 -26.81640625 4.15234375 C-26.90728516 3.08693359 -26.90728516 3.08693359 -27 2 C-18.59756781 -0.80081073 -8.76929747 -0.11692397 0 0 Z " fill="#F7D908" transform="translate(256,53)"/>
<path d="M0 0 C1.28317892 3.84953676 1.06643637 6.94738135 1 11 C-6.96600635 12.89968355 -14.92614962 14.62469483 -23 16 C-24.19287411 12.12315913 -25 9.08378077 -25 5 C-22.45906145 4.35118552 -19.91731727 3.70587101 -17.375 3.0625 C-16.66214844 2.88009766 -15.94929687 2.69769531 -15.21484375 2.50976562 C-10.17093606 1.23722011 -5.23082196 0 0 0 Z " fill="#F7D908" transform="translate(226,55)"/>
<path d="M0 0 C3.04274908 0.45189343 6.08405053 0.9112775 9.125 1.375 C10.40890625 1.56449219 10.40890625 1.56449219 11.71875 1.7578125 C16.33169948 2.46749703 20.60995565 3.34473737 25 5 C24.125 12.625 24.125 12.625 23 16 C19.37409764 15.35916562 15.74945113 14.71148784 12.125 14.0625 C11.09246094 13.88009766 10.05992187 13.69769531 8.99609375 13.50976562 C7.51689453 13.24389648 7.51689453 13.24389648 6.0078125 12.97265625 C5.09660645 12.81031494 4.18540039 12.64797363 3.24658203 12.48071289 C1 12 1 12 -1 11 C-1.125 3.375 -1.125 3.375 0 0 Z " fill="#F8DA08" transform="translate(289,55)"/>
<path d="M0 0 C0.66 0.33 1.32 0.66 2 1 C2.01401855 2.94434937 2.01401855 2.94434937 2.02832031 4.92797852 C2.06832288 9.75709856 2.1341106 14.58558842 2.20751953 19.41430664 C2.23566962 21.50048704 2.2569137 23.58677292 2.27099609 25.6730957 C2.29250802 28.67974615 2.33920124 31.68513641 2.390625 34.69140625 C2.39185364 35.61772354 2.39308228 36.54404083 2.39434814 37.49842834 C2.56939909 45.3139881 4.99481799 50.08513822 10.25 55.9375 C11.03117187 56.81728516 11.03117187 56.81728516 11.828125 57.71484375 C12.21484375 58.13894531 12.6015625 58.56304687 13 59 C12.67 59.33 12.34 59.66 12 60 C13.32 61.32 14.64 62.64 16 64 C14.68 64 13.36 64 12 64 C13.485 64.495 13.485 64.495 15 65 C15 65.66 15 66.32 15 67 C6.87373623 65.76563082 -1.29160742 60.86267346 -7 55 C-7 53.68 -7 52.36 -7 51 C-3.38970831 51 -0.44193324 51.96092582 3 53 C2.34 52.01 1.68 51.02 1 50 C0.15510419 46.72676159 -0.12302315 43.67321741 -0.11352539 40.30151367 C-0.11344986 39.40095749 -0.11337433 38.50040131 -0.11329651 37.57255554 C-0.10813522 36.6140419 -0.10297394 35.65552826 -0.09765625 34.66796875 C-0.0962413 33.67622147 -0.09482635 32.68447418 -0.09336853 31.66267395 C-0.08778418 28.50425157 -0.07523452 25.34590085 -0.0625 22.1875 C-0.05748298 20.04231873 -0.05292042 17.89713635 -0.04882812 15.75195312 C-0.03781988 10.50127776 -0.0210973 5.250644 0 0 Z " fill="#056A25" transform="translate(273,149)"/>
<path d="M0 0 C5.85392559 -0.08869584 11.65436463 0.03149359 17.5 0.375 C18.6859375 0.44460937 19.871875 0.51421875 21.09375 0.5859375 C24 1 24 1 26 3 C26.046875 5.12890625 26.046875 5.12890625 25.75 7.5625 C25.66234375 8.36816406 25.5746875 9.17382812 25.484375 10.00390625 C25.24460937 10.99197266 25.24460937 10.99197266 25 12 C22.35887779 13.3205611 20.70816734 12.93427937 17.7734375 12.66015625 C16.7421875 12.56669922 15.7109375 12.47324219 14.6484375 12.37695312 C13.02808594 12.22129883 13.02808594 12.22129883 11.375 12.0625 C10.28703125 11.96259766 9.1990625 11.86269531 8.078125 11.75976562 C5.38493284 11.51170845 2.69239928 11.25651993 0 11 C0 7.37 0 3.74 0 0 Z " fill="#F7D908" transform="translate(260,53)"/>
<path d="M0 0 C0 3.96 0 7.92 0 12 C-2.70784994 12.33772739 -5.41616996 12.67030687 -8.125 13 C-8.88554687 13.09539062 -9.64609375 13.19078125 -10.4296875 13.2890625 C-14.64909952 13.79830188 -18.74004344 14.10888068 -23 14 C-24.19287411 10.12315913 -25 7.08378077 -25 3 C-21.39628337 2.49672003 -17.79195803 1.99794006 -14.1875 1.5 C-13.16333984 1.35691406 -12.13917969 1.21382813 -11.08398438 1.06640625 C-9.60961914 0.86337891 -9.60961914 0.86337891 -8.10546875 0.65625 C-6.74651489 0.46772461 -6.74651489 0.46772461 -5.36010742 0.27539062 C-3 0 -3 0 0 0 Z " fill="#F8DA08" transform="translate(242,67)"/>
<path d="M0 0 C8.25 0 16.5 0 25 0 C25 3.63 25 7.26 25 11 C17.08 11 9.16 11 1 11 C0 8 0 8 0 0 Z " fill="#FBDC08" transform="translate(245,67)"/>
<path d="M0 0 C0.99 1.485 0.99 1.485 2 3 C2.66 3.66 3.32 4.32 4 5 C4.66 4.67 5.32 4.34 6 4 C6 7.63 6 11.26 6 15 C6.71027344 14.566875 7.42054688 14.13375 8.15234375 13.6875 C9.07144531 13.130625 9.99054688 12.57375 10.9375 12 C12.31228516 11.1646875 12.31228516 11.1646875 13.71484375 10.3125 C16 9 16 9 17 9 C17.30678849 12.91155321 17.43485181 15.28082201 15.375 18.6875 C13 21 13 21 9.8125 22.625 C6.41761071 25.4917954 6.50316135 26.46417137 6.125 30.75 C6.05631618 32.49914798 6.00603616 34.24951445 6 36 C6.66 36.33 7.32 36.66 8 37 C7.67 37.66 7.34 38.32 7 39 C7.66 39.33 8.32 39.66 9 40 C7.68 40.66 6.36 41.32 5 42 C4.67 37.71 4.34 33.42 4 29 C3.95101563 30.32515625 3.90203125 31.6503125 3.8515625 33.015625 C3.77651682 34.76043717 3.70096976 36.50522782 3.625 38.25 C3.5940625 39.12269531 3.563125 39.99539062 3.53125 40.89453125 C3.49257813 41.73886719 3.45390625 42.58320313 3.4140625 43.453125 C3.3826416 44.22817383 3.3512207 45.00322266 3.31884766 45.80175781 C3 48 3 48 1 52 C0.67 34.84 0.34 17.68 0 0 Z " fill="#050301" transform="translate(303,142)"/>
<path d="M0 0 C11.88 1.485 11.88 1.485 24 3 C23.34 6.63 22.68 10.26 22 14 C14.32153678 13.43434519 6.65656792 12.8123221 -1 12 C-1.02698189 10.37509046 -1.04638757 8.75005367 -1.0625 7.125 C-1.07410156 6.22007813 -1.08570313 5.31515625 -1.09765625 4.3828125 C-1 2 -1 2 0 0 Z " fill="#F6D708" transform="translate(274,67)"/>
<path d="M0 0 C0.66 3.63 1.32 7.26 2 11 C-0.95748214 11.8364596 -3.91590104 12.66929695 -6.875 13.5 C-7.71675781 13.73847656 -8.55851563 13.97695313 -9.42578125 14.22265625 C-10.63427734 14.56103516 -10.63427734 14.56103516 -11.8671875 14.90625 C-12.61081543 15.11572266 -13.35444336 15.32519531 -14.12060547 15.54101562 C-16 16 -16 16 -18 16 C-18.50559908 14.56445975 -19.0042749 13.1264798 -19.5 11.6875 C-19.7784375 10.88699219 -20.056875 10.08648437 -20.34375 9.26171875 C-21 7 -21 7 -21 4 C-18.43923903 3.32595716 -15.87673417 2.660586 -13.3125 2 C-12.59126953 1.80921875 -11.87003906 1.6184375 -11.12695312 1.421875 C-10.06831055 1.15117188 -10.06831055 1.15117188 -8.98828125 0.875 C-8.02208862 0.62363281 -8.02208862 0.62363281 -7.03637695 0.3671875 C-5 0 -5 0 0 0 Z " fill="#F7D808" transform="translate(206,45)"/>
<path d="M0 0 C2.44519112 0.37274255 4.83133008 0.8091798 7.25 1.3125 C7.91902344 1.44333984 8.58804687 1.57417969 9.27734375 1.70898438 C13.03442526 2.47294889 16.49472772 3.44436559 20 5 C19.69078116 6.45903258 19.37751201 7.91720722 19.0625 9.375 C18.80146484 10.59316406 18.80146484 10.59316406 18.53515625 11.8359375 C18 14 18 14 17 16 C14.415141 15.3808361 11.83223828 14.75492318 9.25 14.125 C8.52039063 13.95097656 7.79078125 13.77695313 7.0390625 13.59765625 C3.46714972 12.72091402 0.20626159 11.87313177 -3 10 C-2.69201674 8.51988629 -2.378482 7.04092675 -2.0625 5.5625 C-1.88847656 4.73878906 -1.71445312 3.91507812 -1.53515625 3.06640625 C-1 1 -1 1 0 0 Z " fill="#F8D908" transform="translate(301,71)"/>
<path d="M0 0 C0.66 3.63 1.32 7.26 2 11 C-0.60258324 11.83857688 -3.20685647 12.67103344 -5.8125 13.5 C-6.55048828 13.73847656 -7.28847656 13.97695312 -8.04882812 14.22265625 C-11.13255196 15.19940136 -13.74495809 16 -17 16 C-17.50615298 14.73160474 -18.00469099 13.46016898 -18.5 12.1875 C-18.7784375 11.47980469 -19.056875 10.77210937 -19.34375 10.04296875 C-20 8 -20 8 -20 5 C-17.9170757 4.35284867 -15.83364461 3.70732834 -13.75 3.0625 C-12.58984375 2.70285156 -11.4296875 2.34320313 -10.234375 1.97265625 C-3.6746988 0 -3.6746988 0 0 0 Z " fill="#F6D808" transform="translate(214,71)"/>
<path d="M0 0 C6.70885365 1.18891077 13.35951974 2.47595535 20 4 C19.25732712 8.08470085 18.15487282 12.0142804 17 16 C14.39546825 15.35561067 11.7913709 14.7095496 9.1875 14.0625 C8.44951172 13.88009766 7.71152344 13.69769531 6.95117188 13.50976562 C3.92939016 12.7577385 0.95543282 11.98514427 -2 11 C-1.34 7.37 -0.68 3.74 0 0 Z " fill="#F7D908" transform="translate(310,45)"/>
<path d="M0 0 C1.32 0.33 2.64 0.66 4 1 C6.09556638 5.19113276 5.18492612 10.70782668 5.1875 15.3125 C5.19974609 16.45396484 5.21199219 17.59542969 5.22460938 18.77148438 C5.22750977 20.42567383 5.22750977 20.42567383 5.23046875 22.11328125 C5.23457764 23.12173096 5.23868652 24.13018066 5.24291992 25.16918945 C4.988546 28.13347647 4.24250622 30.3121608 3 33 C2.01 32.67 1.02 32.34 0 32 C-1.22899346 25.93184478 -2.27560214 20.20104812 -2 14 C-3.32 14.33 -4.64 14.66 -6 15 C-8 12 -8 12 -7.625 9.3125 C-7.41875 8.549375 -7.2125 7.78625 -7 7 C-5.35 7.33 -3.7 7.66 -2 8 C-1.34 5.36 -0.68 2.72 0 0 Z " fill="#848484" transform="translate(272,115)"/>
<path d="M0 0 C0.33 3.63 0.66 7.26 1 11 C-1.04071515 11.33910994 -3.08262621 11.67102704 -5.125 12 C-6.83042969 12.2784375 -6.83042969 12.2784375 -8.5703125 12.5625 C-11.76137602 12.96956049 -14.78817791 13.07809902 -18 13 C-18.66 9.37 -19.32 5.74 -20 2 C-17.79248152 1.66131223 -15.58394089 1.32928311 -13.375 1 C-12.14523438 0.814375 -10.91546875 0.62875 -9.6484375 0.4375 C-6.3833973 0.04597484 -3.28287549 -0.08080924 0 0 Z " fill="#F8DA08" transform="translate(237,40)"/>
<path d="M0 0 C6.27 0 12.54 0 19 0 C19 3.63 19 7.26 19 11 C12.73 11 6.46 11 0 11 C0 7.37 0 3.74 0 0 Z " fill="#FCDD09" transform="translate(249,39)"/>
<path d="M0 0 C2.79310605 0.28110489 5.58398875 0.57436052 8.375 0.875 C9.1690625 0.95363281 9.963125 1.03226563 10.78125 1.11328125 C16.7734375 1.7734375 16.7734375 1.7734375 19 4 C18.65282566 7.41574758 17.77372194 10.64720494 17 14 C11.06 13.34 5.12 12.68 -1 12 C-0.67 8.04 -0.34 4.08 0 0 Z " fill="#F4D608" transform="translate(280,40)"/>
<path d="M0 0 C0.33 0 0.66 0 1 0 C1.66 11.22 2.32 22.44 3 34 C3 33.67 3 33.34 3 33 C4.16873574 28.32505704 6.54918443 26.53075224 10.34375 23.91796875 C12 23 12 23 14 23 C14.31658501 27.03645882 14.4210379 29.32333195 12.25 32.8125 C8.69235962 36.27131704 7.01559155 37 2 37 C1.95875 38.299375 1.9175 39.59875 1.875 40.9375 C1.02641348 48.43334761 -3.3012435 53.73644254 -8.875 58.5625 C-9.90625 59.366875 -10.9375 60.17125 -12 61 C-12 58 -12 58 -10.5390625 56.38671875 C-9.90742188 55.82597656 -9.27578125 55.26523438 -8.625 54.6875 C-5.46908204 51.69097183 -3.95296074 49.3412656 -3 45 C-2.34 45 -1.68 45 -1 45 C-0.67 30.15 -0.34 15.3 0 0 Z " fill="#0A0703" transform="translate(306,149)"/>
<path d="M0 0 C1.32 0.33 2.64 0.66 4 1 C5.06795656 6.57710648 4.82622671 11.39436958 4 17 C4.33 17 4.66 17 5 17 C5.37952295 23.19887485 4.8352113 27.4477112 2 33 C-0.87354273 31.00820189 -1.05248778 29.72745653 -1.73046875 26.20703125 C-1.89601295 24.74362053 -2.04793087 23.27861606 -2.1875 21.8125 C-2.26935547 21.06291016 -2.35121094 20.31332031 -2.43554688 19.54101562 C-2.63540784 17.69524082 -2.81926538 15.84774567 -3 14 C-4.98 14.99 -4.98 14.99 -7 16 C-7.66 13.69 -8.32 11.38 -9 9 C-8.34 8.34 -7.68 7.68 -7 7 C-5.68 7 -4.36 7 -3 7 C-2.01 4.69 -1.02 2.38 0 0 Z " fill="#B5B5B5" transform="translate(305,115)"/>
<path d="M0 0 C0.33 0 0.66 0 1 0 C1.33 7.92 1.66 15.84 2 24 C2.66 24 3.32 24 4 24 C4.36923077 30.52307692 4.36923077 30.52307692 2.5 32.9375 C2.005 33.288125 1.51 33.63875 1 34 C-2.40295412 30.46019786 -2.5325645 26.93347893 -2.6875 22.25 C-2.72166016 21.55261719 -2.75582031 20.85523437 -2.79101562 20.13671875 C-2.87308295 18.42502892 -2.93822919 16.7125424 -3 15 C-4.98 15.99 -4.98 15.99 -7 17 C-7 15.35 -7 13.7 -7 12 C-7.66 12 -8.32 12 -9 12 C-8.67 10.68 -8.34 9.36 -8 8 C-6.35 8 -4.7 8 -3 8 C-2.690625 6.865625 -2.38125 5.73125 -2.0625 4.5625 C-1 1 -1 1 0 0 Z " fill="#505050" transform="translate(289,95)"/>
<path d="M0 0 C-0.24790742 4.0005453 -0.44011956 6.34347978 -3.08203125 9.44140625 C-19.24861878 22 -19.24861878 22 -27 22 C-27 21.34 -27 20.68 -27 20 C-26.34 19.67 -25.68 19.34 -25 19 C-25.99 18.67 -26.98 18.34 -28 18 C-27.51120361 17.72325439 -27.02240723 17.44650879 -26.51879883 17.16137695 C-24.27852693 15.88671662 -22.04555969 14.59975027 -19.8125 13.3125 C-19.04357422 12.87744141 -18.27464844 12.44238281 -17.48242188 11.99414062 C-13.02863857 9.4136224 -9.53557174 6.8025302 -6 3 C-1.44827586 0 -1.44827586 0 0 0 Z " fill="#031206" transform="translate(320,194)"/>
<path d="M0 0 C1.32 1.65 2.64 3.3 4 5 C5.55167883 5.9299797 7.13620043 6.80755251 8.75 7.625 C11.13671875 9.109375 11.13671875 9.109375 13 11 C13.77720308 14.7764767 13.54754725 18.20096844 13 22 C9.00335201 21.17132137 6.36741566 19.29270853 3 17 C2.01 16.67 1.02 16.34 0 16 C0 10.72 0 5.44 0 0 Z " fill="#D31119" transform="translate(259,156)"/>
<path d="M0 0 C0.33 0 0.66 0 1 0 C1 5.94 1 11.88 1 18 C0.67 17.34 0.34 16.68 0 16 C-0.62648438 16.433125 -1.25296875 16.86625 -1.8984375 17.3125 C-2.71570313 17.869375 -3.53296875 18.42625 -4.375 19 C-5.18710937 19.556875 -5.99921875 20.11375 -6.8359375 20.6875 C-9 22 -9 22 -11 22 C-11.55715953 18.19618248 -11.76988586 14.78314772 -11 11 C-8.90709901 8.67455445 -6.81612258 7.18111735 -4.1640625 5.53515625 C-1.82270373 3.87422846 -1.03670113 2.63732209 0 0 Z " fill="#D61119" transform="translate(320,156)"/>
<path d="M0 0 C3.67230705 3.07999946 4.56802365 5.2482602 5 10 C5.78375 9.95875 6.5675 9.9175 7.375 9.875 C10 10 10 10 12 12 C12.046875 14.09375 12.046875 14.09375 11.75 16.5 C11.61851562 17.69109375 11.61851562 17.69109375 11.484375 18.90625 C11 21 11 21 9 23 C8.34 22.34 7.68 21.68 7 21 C6.34 24.63 5.68 28.26 5 32 C4.67 32 4.34 32 4 32 C3.83135856 28.95843125 3.66502247 25.91676547 3.5 22.875 C3.45230469 22.0190625 3.40460938 21.163125 3.35546875 20.28125 C3.16150529 16.67907142 2.99895647 13.11661472 3.03125 9.5078125 C3.18229222 7.00122257 3.18229222 7.00122257 2 5 C1.01 4.67 0.02 4.34 -1 4 C-0.67 2.68 -0.34 1.36 0 0 Z " fill="#0F0506" transform="translate(273,111)"/>
<path d="M0 0 C2 2 2 2 2 5 C2.804375 4.979375 3.60875 4.95875 4.4375 4.9375 C7 5 7 5 8 6 C8.26865672 14.19402985 8.26865672 14.19402985 7 18 C6.01 17.67 5.02 17.34 4 17 C2.515 22.94 2.515 22.94 1 29 C0.67 27.68 0.34 26.36 0 25 C-0.33 24.01 -0.66 23.02 -1 22 C-1.35195207 16.26525164 -0.96193405 10.59757864 -0.21875 4.91015625 C0.05688789 2.82368694 0.05688789 2.82368694 0 0 Z " fill="#170707" transform="translate(309,116)"/>
<path d="M0 0 C0.99 0.495 0.99 0.495 2 1 C2.0093457 2.29623291 2.01869141 3.59246582 2.02832031 4.92797852 C2.06832288 9.75709856 2.1341106 14.58558842 2.20751953 19.41430664 C2.23566962 21.50048704 2.2569137 23.58677292 2.27099609 25.6730957 C2.29250802 28.67974615 2.33920124 31.68513641 2.390625 34.69140625 C2.39246796 36.08088219 2.39246796 36.08088219 2.39434814 37.49842834 C2.56939909 45.3139881 4.99481799 50.08513822 10.25 55.9375 C10.77078125 56.52402344 11.2915625 57.11054688 11.828125 57.71484375 C12.21484375 58.13894531 12.6015625 58.56304687 13 59 C9.89367428 57.58295703 7.4174186 55.89166189 4.8125 53.6875 C3.77029297 52.82705078 3.77029297 52.82705078 2.70703125 51.94921875 C-0.21837215 48.60876956 -0.1256238 44.59644867 -0.11352539 40.30151367 C-0.11344986 39.40095749 -0.11337433 38.50040131 -0.11329651 37.57255554 C-0.10813522 36.6140419 -0.10297394 35.65552826 -0.09765625 34.66796875 C-0.0962413 33.67622147 -0.09482635 32.68447418 -0.09336853 31.66267395 C-0.08778418 28.50425157 -0.07523452 25.34590085 -0.0625 22.1875 C-0.05748298 20.04231873 -0.05292042 17.89713635 -0.04882812 15.75195312 C-0.03781988 10.50127776 -0.0210973 5.250644 0 0 Z " fill="#06842E" transform="translate(273,149)"/>
<path d="M0 0 C0.33 0 0.66 0 1 0 C1.15294625 6.38599733 1.25754588 12.77151734 1.32958984 19.15893555 C1.35964259 21.32871145 1.40049737 23.49836708 1.45263672 25.66772461 C1.52595944 28.79831712 1.55957216 31.92729507 1.5859375 35.05859375 C1.61690521 36.01833603 1.64787292 36.97807831 1.67977905 37.96690369 C1.68330636 45.12972397 -0.32326907 49.59060999 -5 55 C-7.24666655 57.17588136 -9.52770257 59.071608 -12 61 C-12 58 -12 58 -10.5390625 56.38671875 C-9.90742188 55.82597656 -9.27578125 55.26523438 -8.625 54.6875 C-5.46908204 51.69097183 -3.95296074 49.3412656 -3 45 C-2.34 45 -1.68 45 -1 45 C-0.67 30.15 -0.34 15.3 0 0 Z " fill="#06872F" transform="translate(306,149)"/>
<path d="M0 0 C4.455 0.99 4.455 0.99 9 2 C8.57781184 3.6498275 8.13675575 5.29483665 7.6875 6.9375 C7.44386719 7.85402344 7.20023437 8.77054688 6.94921875 9.71484375 C6.63597656 10.46894531 6.32273437 11.22304687 6 12 C2.37673261 13.2077558 1.35853631 12.54311128 -2 11 C-1.49547781 7.25212088 -0.91840767 3.67363066 0 0 Z " fill="#F4D608" transform="translate(317,61)"/>
<path d="M0 0 C1.19287411 3.87684087 2 6.91621923 2 11 C-0.31 11.66 -2.62 12.32 -5 13 C-6.32 9.7 -7.64 6.4 -9 3 C-5.73209435 0.82139623 -3.91954654 0 0 0 Z " fill="#F3D508" transform="translate(198,61)"/>
<path d="M0 0 C0.66 0.33 1.32 0.66 2 1 C3.26396272 6.51547368 2.81982605 11.43779559 2 17 C2.33 17 2.66 17 3 17 C3.37952295 23.19887485 2.8352113 27.4477112 0 33 C-1.51953125 31.94921875 -1.51953125 31.94921875 -3 30 C-3.07421875 26.64453125 -3.07421875 26.64453125 -2.6875 22.8125 C-2.56761719 21.54019531 -2.44773437 20.26789063 -2.32421875 18.95703125 C-2.21722656 17.98121094 -2.11023438 17.00539062 -2 16 C-1.67 16 -1.34 16 -1 16 C-0.67 10.72 -0.34 5.44 0 0 Z " fill="#E0E0E0" transform="translate(307,115)"/>
<path d="M0 0 C0.33 0 0.66 0 1 0 C1 2.31 1 4.62 1 7 C0.67 6.34 0.34 5.68 0 5 C-1.65 5.33 -3.3 5.66 -5 6 C-5.33 6.99 -5.66 7.98 -6 9 C-5.34 9 -4.68 9 -4 9 C-3.67 10.32 -3.34 11.64 -3 13 C-2.01 12.67 -1.02 12.34 0 12 C0.12117188 13.03640625 0.24234375 14.0728125 0.3671875 15.140625 C0.53607181 16.51046438 0.70536411 17.88025349 0.875 19.25 C0.95363281 19.93191406 1.03226562 20.61382812 1.11328125 21.31640625 C1.56645833 24.90696311 2.09385738 27.892507 4 31 C3.01 31 2.02 31 1 31 C-0.38529821 25.54538831 -1.2396943 20.63281599 -1 15 C-1.66 15 -2.32 15 -3 15 C-3 15.66 -3 16.32 -3 17 C-3.66 17 -4.32 17 -5 17 C-7.47120419 9.12303665 -7.47120419 9.12303665 -7 5 C-6.34 4.34 -5.68 3.68 -5 3 C-3.68 3 -2.36 3 -1 3 C-0.67 2.01 -0.34 1.02 0 0 Z " fill="#0F0606" transform="translate(286,98)"/>
<path d="M0 0 C-0.45382956 4.87866775 -1.6360844 7.43820701 -5 11 C-8 13 -8 13 -11 13 C-10.4740625 12.1028125 -10.4740625 12.1028125 -9.9375 11.1875 C-8.66695302 8.89186786 -8.66695302 8.89186786 -10 6 C-8.90398831 4.99106869 -7.79786082 3.99311775 -6.6875 3 C-6.07261719 2.443125 -5.45773437 1.88625 -4.82421875 1.3125 C-3 0 -3 0 0 0 Z " fill="#0B0201" transform="translate(302,149)"/>
<path d="M0 0 C0.33 0 0.66 0 1 0 C1 2.64 1 5.28 1 8 C0.34 7.34 -0.32 6.68 -1 6 C-2.32 6 -3.64 6 -5 6 C-4.67 8.31 -4.34 10.62 -4 13 C-2.68 12.67 -1.36 12.34 0 12 C0.66 17.28 1.32 22.56 2 28 C1.34 28 0.68 28 0 28 C-0.66 23.71 -1.32 19.42 -2 15 C-2.99 15.66 -3.98 16.32 -5 17 C-6.75747614 12.49646738 -7.19294408 8.82360189 -7 4 C-6.030625 3.71125 -5.06125 3.4225 -4.0625 3.125 C-0.89335797 2.35785318 -0.89335797 2.35785318 0 0 Z " fill="#181010" transform="translate(270,117)"/>
<path d="M0 0 C0.33 0 0.66 0 1 0 C1 6.27 1 12.54 1 19 C0.67 19 0.34 19 0 19 C-0.33 16.36 -0.66 13.72 -1 11 C-1.45375 11.495 -1.9075 11.99 -2.375 12.5 C-4 14 -4 14 -6 14 C-8 11 -8 11 -7.625 8.3125 C-7.41875 7.549375 -7.2125 6.78625 -7 6 C-5.35 6.33 -3.7 6.66 -2 7 C-1.34 4.69 -0.68 2.38 0 0 Z " fill="#EAEAEA" transform="translate(272,116)"/>
<path d="M0 0 C0 0.99 0 1.98 0 3 C-1.71484375 4.21875 -1.71484375 4.21875 -3.9375 5.5 C-6.80783861 7.49455628 -7.84392783 8.41290988 -8.75390625 11.8359375 C-8.97596454 14.57818117 -9.0782707 17.25074152 -9 20 C-8.34 20.33 -7.68 20.66 -7 21 C-7.33 21.66 -7.66 22.32 -8 23 C-7.34 23.33 -6.68 23.66 -6 24 C-7.98 24.99 -7.98 24.99 -10 26 C-10.71413279 17.97875848 -11.14525497 10.05358138 -11 2 C-9.02 2 -7.04 2 -5 2 C-5.99 3.32 -6.98 4.64 -8 6 C-5.36 4.02 -2.72 2.04 0 0 Z " fill="#010301" transform="translate(318,158)"/>
<path d="M0 0 C2.98931167 0.4598941 4.48615679 1.32741172 7.0625 3.0625 C9.83089933 5.27529737 9.83089933 5.27529737 13 5 C13 5.66 13 6.32 13 7 C9.04179141 6.43454163 6.3340947 5.19097652 3 3 C4.32 4.65 5.64 6.3 7 8 C6.01 8 5.02 8 4 8 C6.97 9.98 9.94 11.96 13 14 C12.34 14.66 11.68 15.32 11 16 C9.5344405 14.92646259 8.07779848 13.8407446 6.625 12.75 C5.81289063 12.14671875 5.00078125 11.5434375 4.1640625 10.921875 C1.99988505 8.99989791 0.99726245 7.68827269 0 5 C-0.125 2.25 -0.125 2.25 0 0 Z " fill="#090803" transform="translate(259,151)"/>
<path d="M0 0 C0 3 0 3 -1.328125 4.61328125 C-7.10198935 9.71822229 -15.0033868 16 -23 16 C-23 15.34 -23 14.68 -23 14 C-22.09378906 13.57589844 -21.18757813 13.15179688 -20.25390625 12.71484375 C-12.83063231 9.16640049 -6.25312643 5.44253597 0 0 Z " fill="#06832E" transform="translate(316,200)"/>
<path d="M0 0 C7 2.6 7 2.6 10 5 C10.3125 8.1875 10.3125 8.1875 10 11 C5.57165324 9.60823388 2.96898547 7.56278256 0 4 C0 2.68 0 1.36 0 0 Z " fill="#045F21" transform="translate(262,175)"/>
<path d="M0 0 C1.65454759 0.90084261 3.2984402 1.82127608 4.9375 2.75 C6.31228516 3.51570312 6.31228516 3.51570312 7.71484375 4.296875 C10 6 10 6 10.81640625 8.078125 C11 10 11 10 11 12 C7.00499382 10.6302836 4.19990508 8.74277578 1 6 C1.33 5.34 1.66 4.68 2 4 C1.34 3.34 0.68 2.68 0 2 C0 1.34 0 0.68 0 0 Z " fill="#056624" transform="translate(261,153)"/>
<path d="M0 0 C0.66 1.32 1.32 2.64 2 4 C0.90081184 4.98475214 -0.2045602 5.96260473 -1.3125 6.9375 C-2.23482422 7.75541016 -2.23482422 7.75541016 -3.17578125 8.58984375 C-5 10 -5 10 -8 11 C-7 8 -7 8 -6 7 C-6.66 7 -7.32 7 -8 7 C-8 6.34 -8 5.68 -8 5 C-6.25 3.7109375 -6.25 3.7109375 -4 2.375 C-3.2575 1.92898437 -2.515 1.48296875 -1.75 1.0234375 C-1.1725 0.68570313 -0.595 0.34796875 0 0 Z " fill="#056A25" transform="translate(317,154)"/>
<path d="M0 0 C1.32 0.33 2.64 0.66 4 1 C0.30620592 7.08867157 -3.3750207 11.61251614 -9 16 C-9 13 -9 13 -7.5390625 11.38671875 C-6.90742188 10.82597656 -6.27578125 10.26523438 -5.625 9.6875 C-2.46908204 6.69097183 -0.95296074 4.3412656 0 0 Z " fill="#077228" transform="translate(303,194)"/>
<path d="M0 0 C0.99 0.33 1.98 0.66 3 1 C3.3690205 11.55808656 3.3690205 11.55808656 1 16 C0.01 15.67 -0.98 15.34 -2 15 C-2.33 12.36 -2.66 9.72 -3 7 C-2.34 8.32 -1.68 9.64 -1 11 C-0.67 7.37 -0.34 3.74 0 0 Z " fill="#E7E7E7" transform="translate(274,132)"/>
<path d="M0 0 C0.33 0 0.66 0 1 0 C1.33 3.96 1.66 7.92 2 12 C4.97 10.35 7.94 8.7 11 7 C9.89904638 10.30286086 9.3103981 10.78510901 6.5625 12.6875 C5.63630859 13.34298828 5.63630859 13.34298828 4.69140625 14.01171875 C3 15 3 15 1 15 C1 16.98 1 18.96 1 21 C0.67 21 0.34 21 0 21 C0 14.07 0 7.14 0 0 Z " fill="#023A14" transform="translate(307,171)"/>
<path d="M0 0 C1.65 0.33 3.3 0.66 5 1 C4.67 3.64 4.34 6.28 4 9 C2.68 8.67 1.36 8.34 0 8 C-0.66 8.99 -1.32 9.98 -2 11 C-1.67 8.69 -1.34 6.38 -1 4 C0.32 4 1.64 4 3 4 C3 3.34 3 2.68 3 2 C1.68 2.33 0.36 2.66 -1 3 C-0.67 2.01 -0.34 1.02 0 0 Z " fill="#EAEAEA" transform="translate(295,103)"/>
<path d="M0 0 C0.33 0 0.66 0 1 0 C1 4.95 1 9.9 1 15 C0.01 13.68 -0.98 12.36 -2 11 C-3.32 11 -4.64 11 -6 11 C-6.66 11 -7.32 11 -8 11 C-7.67 9.68 -7.34 8.36 -7 7 C-5.35 7 -3.7 7 -2 7 C-1.34 4.69 -0.68 2.38 0 0 Z " fill="#F9F9F9" transform="translate(288,96)"/>
<path d="M0 0 C0.99 0.99 1.98 1.98 3 3 C2.67 3.66 2.34 4.32 2 5 C1.84558791 7.10374996 1.75007361 9.21195119 1.68359375 11.3203125 C1.64169922 12.57714844 1.59980469 13.83398438 1.55664062 15.12890625 C1.51732422 16.44761719 1.47800781 17.76632813 1.4375 19.125 C1.39430488 20.46485751 1.35069027 21.80470156 1.30664062 23.14453125 C1.20029019 26.42957815 1.09826192 29.71470281 1 33 C0.67 33 0.34 33 0 33 C-0.1431032 29.06732611 -0.28550028 25.13462735 -0.42724609 21.2019043 C-0.49930096 19.20685496 -0.57191337 17.21182579 -0.64453125 15.21679688 C-0.68964844 13.96318359 -0.73476563 12.70957031 -0.78125 11.41796875 C-0.82314453 10.26063232 -0.86503906 9.1032959 -0.90820312 7.91088867 C-1.08899408 2.17798817 -1.08899408 2.17798817 0 0 Z " fill="#060505" transform="translate(306,111)"/>
<path d="M0 0 C3.96 1.98 3.96 1.98 8 4 C8 5.66666667 8 7.33333333 8 9 C6.35 9 4.7 9 3 9 C0 3.375 0 3.375 0 0 Z " fill="#056322" transform="translate(280,151)"/>
<path d="M0 0 C0.33 0 0.66 0 1 0 C1.12375 0.928125 1.2475 1.85625 1.375 2.8125 C1.81533082 6.13925235 1.81533082 6.13925235 4 9 C4.66 7.68 5.32 6.36 6 5 C6.36923077 11.52307692 6.36923077 11.52307692 4.5 13.9375 C4.005 14.288125 3.51 14.63875 3 15 C0.03090402 11.72698081 -0.34354794 9.61934238 -0.1875 5.25 C-0.16042969 4.26515625 -0.13335937 3.2803125 -0.10546875 2.265625 C-0.07066406 1.51796875 -0.03585937 0.7703125 0 0 Z " fill="#EEEEEE" transform="translate(287,114)"/>
<path d="M0 0 C0.66 0.33 1.32 0.66 2 1 C-9.34430048 9.18314165 -9.34430048 9.18314165 -14 11 C-14.99 10.67 -15.98 10.34 -17 10 C-14.21605957 8.29949343 -11.42172475 6.61688375 -8.625 4.9375 C-7.8309375 4.45216797 -7.036875 3.96683594 -6.21875 3.46679688 C-5.45820313 3.01240234 -4.69765625 2.55800781 -3.9140625 2.08984375 C-2.8614624 1.45357056 -2.8614624 1.45357056 -1.78759766 0.80444336 C-0.90273682 0.4062439 -0.90273682 0.4062439 0 0 Z " fill="#06822D" transform="translate(309,202)"/>
<path d="M0 0 C0.99 0.495 0.99 0.495 2 1 C3.11860824 6.06889334 2.88740896 10.34247407 2.0625 15.4375 C1.86785156 16.67371094 1.67320312 17.90992188 1.47265625 19.18359375 C1.31667969 20.11300781 1.16070312 21.04242188 1 22 C0.67 22 0.34 22 0 22 C0 14.74 0 7.48 0 0 Z " fill="#F2F2F2" transform="translate(307,115)"/>
<path d="M0 0 C0.99 0.495 0.99 0.495 2 1 C2.33 1.99 2.66 2.98 3 4 C3.99 3.67 4.98 3.34 6 3 C7.26237731 5.52475462 7.09856404 7.31200466 7.0625 10.125 C7.05347656 11.03507813 7.04445313 11.94515625 7.03515625 12.8828125 C7.02355469 13.58148438 7.01195312 14.28015625 7 15 C6.67 15 6.34 15 6 15 C5.34 12.36 4.68 9.72 4 7 C3.01 7.33 2.02 7.66 1 8 C0.67 5.36 0.34 2.72 0 0 Z " fill="#150607" transform="translate(296,126)"/>
<path d="M0 0 C0.99 0.33 1.98 0.66 3 1 C3.33848652 2.89492006 3.67056911 4.79098466 4 6.6875 C4.185625 7.74324219 4.37125 8.79898438 4.5625 9.88671875 C4.95068074 12.64904062 5.08259976 15.21742043 5 18 C3 17 3 17 1.9375 14.0625 C0.71692488 9.44930271 0.36280279 4.74507865 0 0 Z " fill="#7A7A7A" transform="translate(269,126)"/>
<path d="M0 0 C0.33 0.99 0.66 1.98 1 3 C-0.81725675 5.82684384 -2.03937946 7.65310925 -5.25 8.8125 C-5.8275 8.874375 -6.405 8.93625 -7 9 C-7 7.33333333 -7 5.66666667 -7 4 C-4.69 2.68 -2.38 1.36 0 0 Z " fill="#056623" transform="translate(299,151)"/>
<path d="M0 0 C3.09490097 4.64235145 4.32464122 7.02425955 3.75 12.6875 C3.66234375 13.66074219 3.5746875 14.63398438 3.484375 15.63671875 C3.24460937 16.80654297 3.24460937 16.80654297 3 18 C2.34 18.33 1.68 18.66 1 19 C0.67 12.73 0.34 6.46 0 0 Z " fill="#140506" transform="translate(303,142)"/>
<path d="M0 0 C1.32 0 2.64 0 4 0 C5.0326802 2.78823655 5.04509293 3.8677274 4.0625 6.75 C3.711875 7.4925 3.36125 8.235 3 9 C1.68 8.34 0.36 7.68 -1 7 C-1.33 7.66 -1.66 8.32 -2 9 C-1.6875 7.125 -1.6875 7.125 -1 5 C-0.01 4.34 0.98 3.68 2 3 C1.01 3 0.02 3 -1 3 C-0.67 2.01 -0.34 1.02 0 0 Z " fill="#EFEFEF" transform="translate(279,122)"/>
<path d="M0 0 C1.65 0.33 3.3 0.66 5 1 C4.67 3.64 4.34 6.28 4 9 C2.35 8.67 0.7 8.34 -1 8 C-0.67 6.68 -0.34 5.36 0 4 C0.99 4 1.98 4 3 4 C3 3.34 3 2.68 3 2 C1.68 2.33 0.36 2.66 -1 3 C-0.67 2.01 -0.34 1.02 0 0 Z " fill="#EBEBEB" transform="translate(311,122)"/>
<path d="M0 0 C1.12894876 0.93274109 2.25300876 1.87140122 3.375 2.8125 C4.00148438 3.33457031 4.62796875 3.85664063 5.2734375 4.39453125 C7 6 7 6 9 9 C4.94718288 7.77472971 1.55639236 6.30119506 -2 4 C-1.01 3.67 -0.02 3.34 1 3 C0.67 2.01 0.34 1.02 0 0 Z " fill="#060903" transform="translate(275,199)"/>
<path d="M0 0 C1.65 0.33 3.3 0.66 5 1 C5 1.66 5 2.32 5 3 C4.01 3 3.02 3 2 3 C2.061875 4.0209375 2.061875 4.0209375 2.125 5.0625 C1.97450035 8.59924168 1.05624147 11.63323033 0 15 C-0.33 15 -0.66 15 -1 15 C-1.18451025 4.44191344 -1.18451025 4.44191344 0 0 Z " fill="#272727" transform="translate(309,123)"/>
<path d="M0 0 C2.98931167 0.4598941 4.48615679 1.32741172 7.0625 3.0625 C9.83089933 5.27529737 9.83089933 5.27529737 13 5 C13 5.66 13 6.32 13 7 C9.04179141 6.43454163 6.3340947 5.19097652 3 3 C2.01 3.66 1.02 4.32 0 5 C0 3.35 0 1.7 0 0 Z " fill="#160303" transform="translate(259,151)"/>
<path d="M0 0 C2.475 0.495 2.475 0.495 5 1 C4.34 1.66 3.68 2.32 3 3 C3.66 5.31 4.32 7.62 5 10 C4.34 10 3.68 10 3 10 C0.4606772 6.58168085 -0.3636198 4.24223102 0 0 Z " fill="#150202" transform="translate(259,172)"/>
<path d="M0 0 C3.67230705 3.07999946 4.56802365 5.2482602 5 10 C6.65 10 8.3 10 10 10 C8 11 6 12 4 13 C3.89042969 12.43410156 3.78085937 11.86820313 3.66796875 11.28515625 C3.50941406 10.55167969 3.35085938 9.81820312 3.1875 9.0625 C3.03667969 8.33160156 2.88585937 7.60070312 2.73046875 6.84765625 C2.48941406 6.23792969 2.24835938 5.62820312 2 5 C1.01 4.67 0.02 4.34 -1 4 C-0.67 2.68 -0.34 1.36 0 0 Z " fill="#090505" transform="translate(273,111)"/>
<path d="M0 0 C0.66 0 1.32 0 2 0 C4.5393228 3.41831915 5.3636198 5.75776898 5 10 C4.34 8.68 3.68 7.36 3 6 C2.67 7.98 2.34 9.96 2 12 C1.67 12 1.34 12 1 12 C0.77213542 9.98177083 0.54427083 7.96354167 0.31640625 5.9453125 C0.08707039 3.92595684 0.08707039 3.92595684 -1 2 C-0.67 1.34 -0.34 0.68 0 0 Z " fill="#0D0202" transform="translate(289,92)"/>
<path d="M0 0 C1.65 0 3.3 0 5 0 C5 0.99 5 1.98 5 3 C4.01 3.33 3.02 3.66 2 4 C2 6.97 2 9.94 2 13 C1.67 13 1.34 13 1 13 C-0.10228696 8.59085217 -0.07654536 4.51617599 0 0 Z " fill="#232323" transform="translate(276,124)"/>
<path d="M0 0 C0.66 0.33 1.32 0.66 2 1 C0.90081184 1.98475214 -0.2045602 2.96260473 -1.3125 3.9375 C-1.92738281 4.48277344 -2.54226563 5.02804688 -3.17578125 5.58984375 C-5 7 -5 7 -8 8 C-7.00310315 4.31148165 -6.31080309 3.19425193 -3 1.125 C-2.01 0.75375 -1.02 0.3825 0 0 Z " fill="#067027" transform="translate(317,174)"/>
<path d="M0 0 C0.33 0.66 0.66 1.32 1 2 C2.65 2 4.3 2 6 2 C6.33 2.66 6.66 3.32 7 4 C5.02 4 3.04 4 1 4 C1.99 4.33 2.98 4.66 4 5 C4 5.66 4 6.32 4 7 C2.68 7 1.36 7 0 7 C-0.33 7.66 -0.66 8.32 -1 9 C-1.125 2.25 -1.125 2.25 0 0 Z " fill="#221819" transform="translate(294,100)"/>
<path d="M0 0 C1.67427615 0.92384166 3.33928003 1.86450569 5 2.8125 C6.3921875 3.59560547 6.3921875 3.59560547 7.8125 4.39453125 C8.534375 4.92433594 9.25625 5.45414063 10 6 C10 6.99 10 7.98 10 9 C8.3278148 7.88321917 6.66237197 6.75633648 5 5.625 C3.6078125 4.68527344 3.6078125 4.68527344 2.1875 3.7265625 C1.465625 3.15679687 0.74375 2.58703125 0 2 C0 1.34 0 0.68 0 0 Z " fill="#06782A" transform="translate(261,153)"/>
<path d="M0 0 C1.65 0 3.3 0 5 0 C5 0.66 5 1.32 5 2 C5.66 2.33 6.32 2.66 7 3 C6.01 3 5.02 3 4 3 C2.32900023 3.31088368 0.66128463 3.64080332 -1 4 C-0.67 2.68 -0.34 1.36 0 0 Z " fill="#EBEBEB" transform="translate(281,103)"/>
<path d="M0 0 C0 0.99 0 1.98 0 3 C-5.25714286 7 -5.25714286 7 -8 7 C-8 6.34 -8 5.68 -8 5 C-6.25 3.7109375 -6.25 3.7109375 -4 2.375 C-3.2575 1.92898437 -2.515 1.48296875 -1.75 1.0234375 C-1.1725 0.68570313 -0.595 0.34796875 0 0 Z " fill="#067A2A" transform="translate(317,178)"/>
<path d="M0 0 C1.32 0 2.64 0 4 0 C4.33 0.99 4.66 1.98 5 3 C3.35 3 1.7 3 0 3 C-0.33 3.66 -0.66 4.32 -1 5 C-1.33 4.01 -1.66 3.02 -2 2 C-1.34 1.34 -0.68 0.68 0 0 Z " fill="#F2F2F2" transform="translate(298,122)"/>
<path d="M0 0 C1.32 0.33 2.64 0.66 4 1 C4.33 2.65 4.66 4.3 5 6 C4.67 5.01 4.34 4.02 4 3 C2.02 3.99 2.02 3.99 0 5 C0 3.35 0 1.7 0 0 Z " fill="#EBEBEB" transform="translate(282,107)"/>
<path d="M0 0 C1.65 0.33 3.3 0.66 5 1 C4.01 1.495 4.01 1.495 3 2 C3 2.66 3 3.32 3 4 C1.02 4 -0.96 4 -3 4 C-2.01 3.67 -1.02 3.34 0 3 C0 2.01 0 1.02 0 0 Z " fill="#053511" transform="translate(206,84)"/>
</svg>
