<svg xmlns="http://www.w3.org/2000/svg" height="300" width="500"><path transform="scale(1 -1)" fill="#da121a" d="m 0 -300 h 500 v 150 h -500 z"/><g stroke="#000"><path d="m 0.2 149.8 l 0.715 -149.6 l 498.89 0.255 l -0.031 149.18" fill="#fff" color="#000" stroke-width="0.4"/><path d="m 145.37 46.5 h 209.25 l -15.75 130.5 c -5.41 44.826 -49.5 76.5 -88.87 76.5 c -39.37 0 -83.49 -31.898 -88.87 -76.5 z" fill="#da121a" stroke-width="1.8"/><g stroke-linejoin="round" stroke-linecap="round" stroke-width="0.9"><g fill="#fff"><path d="m 192.99 107.87 l -7.773 -11.04 l 4.415 -3.109 l 7.773 11.04 l 16.557 -11.659 l -12.954 -18.396 l -5.519 3.887 l 6.477 9.198 l -5.519 3.887 l -6.477 -9.198 l -17.292 12.177 l 12.954 18.396 z"/><path d="m 234.54 163.41 l 6.871 4.898 l -4.44 6.229 l -20.15 -14.366 l 4.44 -6.229 l 5.955 4.245 l 17.5 -24.551 l -46.643 -66.22 l 7.358 -5.183 l 44.57 63.28 l 44.57 -63.28 l 7.358 5.183 l -46.643 66.22 l 17.5 24.551 l 5.955 -4.245 l 4.44 6.229 l -20.15 14.366 l -4.44 -6.229 l 6.871 -4.898 l -15.457 -21.619 z"/><path d="m 200.02 161.46 l -6.229 -4.44 l -14.366 20.15 l 6.229 4.44 z"/><path d="m 217.59 162.38 l 16.856 12.02 l 3.157 18.829 l -9.142 12.825 l -22.23 4.049 l -12.825 -9.142 l -4.049 -22.23 l 9.142 -12.825 z"/></g><path transform="matrix(0.98637 -0.16456 0.16462 0.98636 0 0)" fill="#da121a" d="m 167.37 205.97 h 25.328 v 25.326 h -25.328 z"/><g fill="#fff"><path d="m 247.29 195.15 l -6.229 -4.44 l -14.366 20.15 l 6.229 4.44 z"/><path d="m 204.58 219.98 l 4.44 -6.229 l -20.15 -14.366 l -4.44 6.229 z"/><path d="m 194.81 110.45 l 7.775 11.04 l 4.415 -3.11 l -7.775 -11.04 l 16.555 -11.662 l 12.958 18.394 l -5.518 3.887 l -6.479 -9.197 l -5.518 3.887 l 6.479 9.197 l -17.29 12.18 l -12.958 -18.394 z"/><path d="m 307.01 107.87 l 7.773 -11.04 l -4.415 -3.109 l -7.773 11.04 l -16.557 -11.659 l 12.954 -18.396 l 5.519 3.887 l -6.477 9.198 l 5.519 3.887 l 6.477 -9.198 l 17.292 12.177 l -12.954 18.396 z"/><path d="m 299.98 161.46 l 6.229 -4.44 l 14.366 20.15 l -6.229 4.44 z"/><path d="m 282.41 162.38 l -16.856 12.02 l -3.157 18.829 l 9.142 12.825 l 22.23 4.049 l 12.825 -9.142 l 4.05 -22.23 l -9.142 -12.825 z"/></g><path transform="matrix(-0.98637 -0.16456 -0.16462 0.98636 0 0)" fill="#da121a" d="m -325.81 123.68 h 25.328 v 25.326 h -25.328 z"/><g fill="#fff"><path d="m 252.71 195.15 l 6.229 -4.44 l 14.366 20.15 l -6.229 4.44 z"/><path d="m 295.42 219.98 l -4.44 -6.229 l 20.15 -14.366 l 4.44 6.229 z"/><path d="m 305.19 110.45 l -7.775 11.04 l -4.415 -3.11 l 7.775 -11.04 l -16.555 -11.662 l -12.958 18.394 l 5.518 3.887 l 6.479 -9.197 l 5.518 3.887 l -6.479 9.197 l 17.29 12.18 l 12.958 -18.394 z"/></g></g></g></svg>