<?xml version="1.0" encoding="UTF-8" standalone="no"?>
<!-- Created with Inkscape (http://www.inkscape.org/) -->

<svg
   xmlns:dc="http://purl.org/dc/elements/1.1/"
   xmlns:cc="http://creativecommons.org/ns#"
   xmlns:rdf="http://www.w3.org/1999/02/22-rdf-syntax-ns#"
   xmlns:svg="http://www.w3.org/2000/svg"
   xmlns="http://www.w3.org/2000/svg"
   xmlns:sodipodi="http://sodipodi.sourceforge.net/DTD/sodipodi-0.dtd"
   xmlns:inkscape="http://www.inkscape.org/namespaces/inkscape"
   version="1.1"
   id="svg2"
   width="360"
   height="216"
   viewBox="0 0 360 216"
   sodipodi:docname="Flagge Stadt Ludwigshafen am Rhein.svg"
   inkscape:version="0.92.3 (2405546, 2018-03-11)">
  <metadata
     id="metadata8">
    <rdf:RDF>
      <cc:Work
         rdf:about="">
        <dc:format>image/svg+xml</dc:format>
        <dc:type
           rdf:resource="http://purl.org/dc/dcmitype/StillImage" />
        <dc:title></dc:title>
      </cc:Work>
    </rdf:RDF>
  </metadata>
  <defs
     id="defs6" />
  <sodipodi:namedview
     pagecolor="#ffffff"
     bordercolor="#666666"
     borderopacity="1"
     objecttolerance="10"
     gridtolerance="10"
     guidetolerance="10"
     inkscape:pageopacity="0"
     inkscape:pageshadow="2"
     inkscape:window-width="1920"
     inkscape:window-height="1017"
     id="namedview4"
     showgrid="false"
     inkscape:zoom="2.2313147"
     inkscape:cx="271.54099"
     inkscape:cy="184.05634"
     inkscape:window-x="-8"
     inkscape:window-y="-8"
     inkscape:window-maximized="1"
     inkscape:current-layer="svg2" />
  <rect
     style="opacity:1;fill:#fcdd09;fill-opacity:1;fill-rule:evenodd;stroke:none;stroke-opacity:1"
     id="rect877"
     width="360"
     height="128.44632"
     x="0"
     y="43.776844" />
  <g
     id="g841"
     stroke-miterlimit="4"
     transform="matrix(0.24100915,0,0,0.25261391,123.4592,52.344637)"
     style="stroke:#000000;stroke-miterlimit:4;stroke-dasharray:none">
    <path
       id="path821"
       d="m 231,-24 c 50,30 105,50 160,50 20,20 40,50 65,55 -30,35 -40,70 -40,130 0,105 0.41895,180.92 -65,210 -45,20 -105,25 -120,45 C 216,446 151,441 111,421 46.969,388.98 46,316 46,221 46,146 36,116 6,81 31,76 51,46 71,26 126,26 181,6 231,-24 Z"
       inkscape:connector-curvature="0"
       style="fill:#da121a;stroke-width:6;stroke-linecap:round;stroke-linejoin:round" />
    <path
       id="path823"
       d="M 10.124,82.319 21.073,95.457 C 45.766,79.87 64.34,60.328 76.911,39.254 L 69.977,26.846 C 55.586,47.667 33.471,71.307 10.124,82.319 Z"
       inkscape:connector-curvature="0"
       style="fill:#fcdd09;stroke-width:3;stroke-linecap:round;stroke-linejoin:round" />
    <path
       id="path825"
       d="m 69.977,27.211 c 61.303,-1.979 116.43,-22.88 160.94,-49.635 v 17.883 c -50.63,26.528 -102.16,41.473 -154.74,42.7 z"
       inkscape:connector-curvature="0"
       style="fill:#fcdd09;stroke-width:3;stroke-linecap:round;stroke-linejoin:round" />
    <path
       id="path827"
       d="m 228.68,22.911 c -19.034,0 -34.493,15.621 -34.493,34.506 0,18.884 15.459,34.506 34.493,34.506 19.034,0 34.518,-15.621 34.518,-34.506 0,-18.884 -15.485,-34.506 -34.518,-34.506 z m 0,16.341 c 9.9344,0 17.965,7.9628 17.965,18.165 0,10.2022 -8.0305,18.165 -17.965,18.165 -9.9344,0 -17.939,-7.9628 -17.939,-18.165 0,-10.2022 8.0048,-18.165 17.939,-18.165 z"
       style="color:#000000;text-indent:0;text-align:start;text-transform:none;direction:ltr;baseline-shift:baseline;fill:#fcdd09;stroke-width:3;enable-background:accumulate"
       inkscape:connector-curvature="0" />
    <path
       id="path829"
       d="m 215.06,68.949 c 21.631,-9.7808 41.875,18.449 13.053,30.763 l -4.3017,-1.0323 c 13.48,-18.602 -1.3902,-20.326 -8.7514,-29.731 z"
       inkscape:connector-curvature="0"
       style="fill:#fcdd09;stroke-width:3;stroke-linecap:round;stroke-linejoin:round" />
    <path
       id="path831"
       d="m 215.6,144.55 v 216.23 c 0,23.045 -11.898,20.96 -29.927,14.598 -20.194,-7.1253 -31.79,-19.164 -45.62,-29.927 12.218,-5.4536 19.043,-18.014 7.6641,-34.306 0,0 -21.411,-30.656 -32.116,-45.985 -13.944,-19.966 -25.424,-11.337 -28.467,12.409 -6.245,48.732 3.5599,83.684 28.102,79.196 28.223,37.292 79.901,42.238 116.42,72.627 34.897,-32.703 84.2,-37.112 112.41,-72.992 16.412,1.7533 36.58,-2.1073 29.927,-72.627 -2.0254,-21.467 -9.1201,-40.594 -25.547,-21.533 -29.931,34.731 -58.167,69.279 -27.007,83.21 -16.092,15.578 -32.056,25.972 -50.364,32.116 -15.862,5.3232 -25.085,3.5201 -25.182,-15.693 l -1.0949,-215.69 z"
       inkscape:connector-curvature="0"
       style="fill:#fcdd09;stroke-width:3;stroke-linecap:round;stroke-linejoin:round" />
    <path
       id="path833"
       d="m 215.6,147.65 c -41.468,-6.3202 -70.496,1.2236 -102.92,4.7445 -14.805,1.6078 -25.624,-27.566 -13.503,-33.211 62.357,-29.042 180.18,-31.608 259.85,0.72992 14.56,5.9098 -6.1859,34.371 -22.627,31.751 -29.88,-4.7616 -57.566,-11.063 -91.24,-3.6496 -9.0876,2.0007 -18.946,1.2529 -29.562,-0.36496 z"
       inkscape:connector-curvature="0"
       style="fill:#fcdd09;stroke-width:3;stroke-linecap:butt;stroke-linejoin:miter" />
    <path
       id="path835"
       d="m 101.17,147.07 c 79.199,-23.938 166.11,-25.427 250.17,-0.72991 m 6.5876,172.84 c -3.3498,13.267 -5.7877,25.164 -14.598,37.591 m -228.46,-54.38 c 5.5396,17.281 14.912,31.369 26.277,43.795"
       inkscape:connector-curvature="0"
       style="fill:none;stroke-width:3;stroke-linecap:round;stroke-linejoin:round" />
    <path
       id="path837"
       d="M 452.27,82.502 441.321,95.64 c -24.69,-15.587 -43.27,-35.129 -55.84,-56.203 l 6.9342,-12.409 c 14.391,20.821 36.506,44.461 59.853,55.474 z"
       inkscape:connector-curvature="0"
       style="fill:#fcdd09;stroke-width:3;stroke-linecap:round;stroke-linejoin:round" />
    <path
       id="path839"
       d="M 392.42,27.393 C 331.12,25.414 275.99,4.513 231.47,-22.241 v 17.883 c 50.64,26.527 102.16,41.472 154.74,42.7 z"
       inkscape:connector-curvature="0"
       style="fill:#fcdd09;stroke-width:3;stroke-linecap:round;stroke-linejoin:round" />
  </g>
  <rect
     style="opacity:1;fill:#da121a;fill-opacity:1;fill-rule:evenodd;stroke:none;stroke-width:1.01110494;stroke-opacity:1"
     id="rect860"
     width="360"
     height="43.776844"
     x="0"
     y="0" />
  <rect
     style="opacity:1;fill:#da121a;fill-opacity:1;fill-rule:evenodd;stroke:none;stroke-width:1.01110494;stroke-opacity:1"
     id="rect860-1"
     width="360"
     height="43.776844"
     x="0"
     y="172.22316" />
</svg>
