<?xml version="1.0" encoding="UTF-8"?>
<svg width="488" height="289" version="1.1" xmlns="http://www.w3.org/2000/svg">
<path d="M.636.636h486.73v143.23H.636z" fill="#ed1c24" stroke="#ed1c24" stroke-width="1.271"/>
<path d="M.636 145.14h486.73v143.23H.636z" fill="#fff" stroke="#fff" stroke-width="1.271"/>
<g clip-rule="evenodd" fill-rule="evenodd">
<path d="M243.91 224.3c-.187 0-.458-.007-.761-.059l-3.083-.172-.036-.002-.036-.003-4.192-.4-.036-.005-.037-.005-3.62-.495-.04-.006-.04-.007-4.158-.76c-18.743-3.73-33.816-13.916-41.382-27.95-3.488-6.358-5.664-13.653-6.462-21.67l-9.85-105.65a2.042 2.042 0 0 1-.062-.449l-.33-1.976h148.43l-.185 1.988-9.979 107.02c-1.71 16-9.65 29.59-22.358 38.29-10.97 7.441-24.394 11.462-41.045 12.298l-.073.004-.073-.003h-.08l-.21.003c-.101.002-.203.005-.304.005z"/>
<path d="m234.586 220.597 3.821.435 3.882.293.794.032-.022-153.765h-69.93l8.75 93.92 1.185 12.395.466 3.185.677 3.279.751 2.837.889 2.733 1.048 2.7 1.258 2.742 1.282 2.372 1.417 2.33 1.577 2.28 1.915 2.438 2 2.212 2.465 2.394 2.328 1.973 2.71 2.027 2.254 1.497 2.611 1.548 2.531 1.31 2.698 1.254 2.994 1.225 2.953 1.044 3.524 1.063 3.332.833 4.02.824z" fill="#fd0"/>
<path d="m308.81 128.35-62.024-60.794h41.437l24.05 23.647-3.463 37.147zm-63.215 93.017 3.784-.307c4.388-.416 8.547-1.097 12.39-2.03l-16.192-16.513.018 18.85zm46.047-18.633c7.383-7.889 11.627-17.527 12.962-29.416l-59.03-58.186v40.526l46.068 47.076z" fill="#f6f6f6"/>
<path d="m264.78 218.25-19.21-19.52v-39.252l44.177 45.159c-6.65 6.299-14.62 10.643-24.967 13.612zm40.142-48.384 3.55-38.075-62.903-62.077v41.648l59.353 58.504zm7.66-82.117 1.878-20.196h-22.403l20.525 20.196z" fill="#ed1c24"/>
<path d="M234.04 159.58c.552-.597.44 5.934.44 5.934-.704 8.263-6.5 8.155-6.5 8.155l-2.44-.378c-1.62.405-1.301 1.56-1.301 1.56 2.9 8.529 12.095.169 12.095.169.14 2.593-2.676 3.916-2.676 3.916-4.247 1.7-4.153 1.728-4.153 1.728-3.543 1.62-2.678 5.975-2.678 5.975 3.164-1.615 5.506-1.711 5.506-1.711-2.804 4.263-6.77 5.674-6.77 5.674-6.617-.163-2.701-4.724-2.701-4.724-7.3.488-4.68 6.4-4.68 6.4-2.266 1.973-3.437 4.211-3.437 4.211-2.604 3.429-.473 6.942-.473 6.942 3.164 3.89 6.883 2.09 6.883 2.09-3.821-.93-3.468-3.928-3.468-3.928.946-4.482 4.46-4.183 4.46-4.183 1.136 6.999 6.442 4.5 6.442 4.5-5.327-5.191 2.313-9.379 2.313-9.379 5.245-3.606 7.874-7.603 7.874-7.603.894 12.203-7.985 12.673-7.985 12.673 2.625 3.622 9.967.38 9.967.38.506 2.491-2.666 4.638-2.666 4.638-1.853 1.108-2.932 2.89-2.932 2.89-1.361 2.511 1.137 4.638 1.137 4.638.904-1.735 4.612-4.044 4.612-4.044-1.972 6.455 2.437 11.396 2.437 11.396v-116.28c-2.491-3.4-3.91-7.288-3.91-7.288-1.637-3.288.33-3.928.33-3.928-3.3-3.14-3.69-6.78-3.69-6.78 2.303-1.414 2.589-2.535 2.589-2.535-.062-.195-.9-.373-.9-.373-4.905.487-6.589-3.176-6.589-3.176.03-.449 1.45-1.144 1.45-1.144 1.384-1.107 1.634-1.771 1.634-1.771-.361.093-.276-.19-.276-.19-.65.75-14.812-.063-14.812-.063-1.133.082-2.973 1.71-2.973 1.71-.189.12-1.817.127-1.817.127-.856.38-1.467 1.726-1.467 1.726-2.417.513-3.434 2.203-3.434 2.203-.688 2.554.66 3.422.66 3.422 3.032-2.088 4.736-1.711 4.736-1.711.907-.623 2.698.19 2.698.19-1.557.404-2.924 1.378-2.924 1.378-2.721 1.998-4.81 2.025-4.81 2.025-2.651.378-4.214-2.516-4.214-2.516s-1.8 1.986-.032 4.106c0 0 1.843 1.611 5.38.593 0 0 6.339-3.138 8.255-3.223 0 0 .564.812-3.464 1.442 0 0-.986.089-2.046.758 0 0 1.763 2.208 4.776 1.204 0 0 1.506-.182 3.488-1.186 0 0 2.062-1.369 3.647 3.376 1.586 4.744.094.344.094.344s.546 2.16-2.588 4.056c0 0 1.775 1.48 3.8 1.14 0 0 .017 3.232-3.855 6.464 0 0 1.35 2.734 5.12.063 0 0 .423.857-1.431 2.788 0 0 .287.564 1.477.746 0 0 1.03 0-1.348 2.464 0 0-.6.735-1.45 2.557 0 0-.85 2.004-6.003-1.28 0 0-2.846-3.65-3.523-4.106 0 0-.044 0-.044-3.284 0 0 .158-2.372-2.537-4.744 0 0-.949-.294-.117-3.568 0 0-.2-.811-1.944 1.014 0 0-.793 1.55-1.427-1.278 0 0 .108-2.22 1.719-2.524 0 0 2.324-.304 3.116 1.247 0 0 .634.785.793.21 0 0-.317-1.761-2.299-2.582 0 0-3.567-.821-4.835 1.095 0 0-3.029 2.932.032 7.76 0 0-1.856 2.914.047 4.556 0 0 2.597 2.365 4.192-1.007 0 0 .485-.27-1.1-.088 0 0-1.745 0-.952-2.189 0 0 1.348-1.824 2.617.274 0 0 1.218 2.234.371 4.538 0 0-10.476 4.888-10.69.565 0 0 .338-7.799-3.075-10.83 0 0-1.986-1.572-.083-4.49 0 0 2.298-1.552 1.823-5.84 0 0-.158-.091.396-1.186 0 0 2.616-3.558-.554-4.835 0 0-2.457-1.186-4.123-.73h-4.439s-1.655.192-2.21.648c0 0-3.906 2.276-7.825-1.056 0 0-2.838-.723-2.863.253 0 0-.262 2.619 3.622 5.264 0 0 1.426.874 3.647.756 0 0 2.43.67-.079 2.711 0 0 .08.912-6.025.821 0 0-4.518.457-1.269 3.376 0 0 3.25 1.824 5.629 1.46 0 0 1.663.41 1.744 2.531 0 0-2.22 3.216-6.738 6.136 0 0-2.775 1.642 1.11 4.014 0 0 4.28.456 5.945-.182 0 0 5.312.547-2.774 6.842 0 0-1.903 1.825-3.568 2.372 0 0-2.774 1.278 1.982 3.376 0 0 5.241 1.145 7.62-1.044 0 0 2.691-1.573 1.103 2.883 0 0-2.934 7.002-9.911 8.238 0 0-3.825 1.378 1.011 4.845 0 0 8.605 3.493 14.736-7.95 0 0 2.072.32-3.468 8.809 0 0-4.738 7.622-11.84 10.518 0 0-3.532 1.71 1.224 4.995 0 0 3.088 1.49 6.92.44 0 0 7.838-2.833 14.598-20.136 0 0 1.585-4.316 1.513 1.144 0 0-1.006 10.258-6.757 18.282 0 0-4.25 11.382-15.46 17.77 0 0-1.217 3.326 3.743 4.319 0 0 9.216 1.069 18.338-16.548 0 0 7.584-20.256 7.598-21.42 0 0 1.38 14.804-5.953 28.537 0 0-2.452 5.896-7.372 10.435 0 0-2.62 3.048 2.7 3.628 0 0 7.404.165 13.73-13.981 0 0 6.412-17.496 6.477-30.604 0 0 1.686 10 4.074 16.496 0 0 1.523 3.911-.165 5.576 0 0-4.491 4.147-5.713 7.87 0 0-3.666 5.46-3.881 5.625l.215-.166s-2.372 1.903.432 1.241c0 0 3.736-2.734 2.065 2.095 0 0-.765.964 3.083.507 0 0 1.178-.183 3.314.295 0 0 .529.935 1.421-1.752 0 0 1.527-4.261 4.68-6.717 0-.001.575-.616.826-.888z"/>
</g>
<path d="M222.25 75.939c.035 1.05-1.102 1.014-1.102 1.014-.52-.011-.77-.889-.77-.889-2.295.575-1.784 2.52-1.784 2.52 1.38-.771 2.761-.784 2.761-.784 2.322 0 3.914.971 3.914.971.345.027.395-.234.395-.234-.29-1.964-3.414-2.598-3.414-2.598z" fill="#fff"/>
<path d="M198.69 193.87c-1.975-1.64-1.503-3.248-1.503-3.248.43-1.38 1.062-2.075 1.062-2.075l-.416-.438c-.862-.779-.476-1.214-.476-1.214.677-1.027 3.095-1.263 3.095-1.263.156-.176 1.927-2.281 1.927-2.281l-.33-.093c-1.386-.249-3.97.636-3.97.636-2.277.885-2.123-.034-2.123-.034.091-1.134-.431-.957-.431-.957-.524.072-2.232.954-2.232.954-.693-.887-.415-2.334-.415-2.334.585-1.63 2.838-1.785 2.838-1.785.13-.473.386-.696.386-.696.822-.57 1.85.337 1.85.337 1.57 1.24 2.311.904 2.311.904 1.97-1.168 3.161-.862 3.161-.862 2.455 1.194 5.287-1.267 5.287-1.267 3.586-2.8 10.242-12.103 10.242-12.103s.676-1.212 1.978-1.396c0 0 4.6-.77 4.353 3.994 0 0-5.334 2.945-11.764 9.745 0 0-1.238 1.237-1.01 1.851 0 0 .63.108 2.213-.607 0 0 2.822-2 4.395-.47 0 0 2.64-.863 3.469 1.395 0 0 .408 1.911-.052 2.233 0 0-1.165-1.426-2.536-1.474 0 0 .004 1.217-.382 1.856 0 0-.047.403-3.012.242 0 0-4.633-.15-5.25.12 0 0-.902 1.05-.716 3.296 0 0-1.089 2.815-.606 3.992 0 0 1.16 1.3-1.377 2.281 0 0-.217 1.31.843 2.988 0 0-3.191.153-3.87-3.431 0 0-1.851-.992-.658-2.314 0 0 2.143-.94 2.42-6.242 0 0-3.697 3.625-4.406 3.93 0 0-.48 1.135-.66 1.774 0 0-1.73.931-2.038.887 0 0-1.473 1.68-1.267 2.661l-.33.508z" clip-rule="evenodd" fill-rule="evenodd"/>
<g fill="#fd0">
<path d="m211.38 175.93.641.758c-.412.43-.796.832-1.14 1.195l-.6-.71c.352-.396.721-.812 1.099-1.243zm-2.667 2.979s-.017.24.606.634c0 0 .42-.452 1.083-1.155l-.587-.695c-.396.442-.766.852-1.102 1.216zm3.128-3.503.662.782c.334-.345.68-.702 1.03-1.06l-.714-.844c-.328.378-.655.753-.978 1.122zm9.096-9.995s-.602.023-1.652 1.33l-.2.237 1.504 1.356c.33-.727.525-1.687.348-2.923zm-3.352 3.332 1.254 1.508c.02-.008.043-.019.06-.023 0 0 .806-.405 1.42-1.39l-1.595-1.434-1.14 1.34zm-1.337 1.565.999 1.183c.442-.401.825-.726 1.125-.949l-1.146-1.378c-.305.356-.631.74-.978 1.144zm-2.97 3.448.74.876c.35-.353.699-.704 1.042-1.045l-.808-.956-.975 1.125zm1.43-1.656.846 1a73.81 73.81 0 0 1 1.185-1.14l-.947-1.12c-.349.406-.712.83-1.084 1.26zm9.092-3.458-1.762.192s-2.177 1.182-3.925 2.866c0 0-6.18 5.662-8.457 8.329 0 0-.244.889-1.382-.468 0 0-.163-.468-.772 0 0 0-1.074 1.07-4.46.488 0 0-.502 2.56-.826-.063 0 0-.935.37-1.138.698 0 0-.476 1.988-.624.194l-1.157-.068s-.756 3.428-.605-.127c0 0-1.17-1.427-2.258-1.204l.11 4.12s2.014-.248 3.599-.903c0 0 3.13-.072 3.394.268 0 0 .387.246-.345.621l-.528.795s.132 2.134-.503.295l-1.326 1.436s-.058 1.607-.436.148c0 0-1.732.078-2.478.761v.443s2.634 1.764 2.753 2.218h.936s.688-.95.77-1.838c0 0 1.662-1.51 1.929-1.457 0 0 2.567-3.048 3.083-3.04 0 0 .805-.03.661.316 0 0-.226 1.186-.145 1.514 0 0 2.072 1.06-.02.577l-.264 1.248s1.134 2.054-.287.652c0 0-.494 1.584-.55 1.332 0 0 1.538 2.474-.275.76 0 0-.91.498-1.322 1.52 0 0 1.217 2.398 4.57.634 0 0-.672-2.466-.184-3.588 0 0 .488-.843.529-2.527 0 0-.034-1.99 1.142-2.82l7.929-.19s.903-2.125-1.157-3.675c0 0-.838-.137-1.266.444 0 0 1.273 2.167-.716.063l-.771.38s.901 2.523-.606.253l-.825.38s.16 2.395-.606.317c0 0-1.66-.02-1.254-1.422-.001 0 4.055-5.179 11.826-10.872zM210.28 82.402s-1.134-2.092.451-3.179c0 0 1.12-.92 2.443-1.205 0 0 .436-.217.493-.619 0 0 .006-1.547 2.257-.89 0 0 .479 1.094.166 2.28 0 0 .123.434 1.155.434 0 0 3.252.338 4.846 3.432 0 0 1.013 1.803.22 2.725 0 0-5.818 3.019-7.158.824 0 0 4.067-.247 6.002-2.535 0 0-1.526-3.275-5.292-3.057 0 0-2.326-.351-5.583 1.79z"/>
<path d="M193.45 183.23s-.843-1.765.71-2.582c0 0 1.038-.594 1.606-.41l.165 2.028s-1.993.454-2.481.964zm5.013 9.808c.49-2.242 1.928-2.788 1.928-2.788l-1.597-1.394c-2.331 2.204-.33 4.182-.33 4.182zm20.9-13.534.52 1.305s1.421.143 2.203.824c0 0 .464-.685-.22-1.458 0 0-1.305-1.03-2.503-.67zm-10.933 15.942c-.682-1.725-.275-2.154-.275-2.154-.026-.203-1.872-.38-1.872-.38.232 1.918 2.147 2.534 2.147 2.534z" clip-rule="evenodd" fill-rule="evenodd"/>
</g>
<path d="M205.63 83.416s-1.421 2.675 1.767 3.264c0 0 1.81 1.041 5.865-1.177 0 0 3.976-1.948 4.762-1.948l1.757-.202s.526-1.882-3.37-.568c0 0-2.44 1.54-4.37 2.31 0 0-3.463 1.54-4.684 0 0 0-1.094-.912-1.727-1.679z" clip-rule="evenodd" fill="#ed1c24" fill-rule="evenodd"/>
<path d="M220.43 74.619c-2.149.063-2.475 1.256-2.475 1.256 1.564-1.005 4.526-.318 4.526-.318 2.16.312 3.734-.315 3.734-.315-2.167-.046-3.168-.491-5.785-.623zm-27.418 3.184c-.495-.023-.896.021-.516.29 0 0 1.238-.045 1.424.225 0 0 .139-.37.178-.404 0 0-.59-.089-1.086-.111zm-9.777.48c2.195 2.193 7.086 2.037 7.086 2.037.192.554 1.25 1.041 1.25 1.041.327.289.212.465.212.465-1.655.776-1.8 1.717-1.8 1.717.126.12.799.455.799.455 1.713.288.923.621.923.621-5.582 3.345-7.775 2.746-7.775 2.746-.713.044-.674.486-.674.486.039-.176.42-.218.42-.218 5.428.132 9.775-3.52 9.775-3.52-.91-.062-1.36-.535-1.36-.535.596-.2 1.306-.48 1.306-.48-.541-.368-1.541-.19-1.541-.19-.313-.314.408-.594.408-.594 1.829-.664.943-.843.943-.843-2.156-.731-2.011-1.288-2.011-1.288-.069-.447 2.752 0 2.752 0v-.253c-1.203-.147-.99-.739-.99-.739.769-.022.769-.275.769-.275-.23-.474-2.367-.014-2.367-.014-2.156.82-3.643.621-3.643.621-2.536 0-4.482-1.24-4.482-1.24zm1.517 2.66-1.174.012c2.113 1.592 3.211.559 3.211.559-.18-.416-1.128-.25-1.128-.25-.566.085-.909-.32-.909-.32zm40.428.323c-.379.183-1.635.16-1.635.16-.757.39 1.016.459 1.016.459 1.115-.344.62-.62.62-.62zm.348 1.357c-.35.045-.703.166-.703.166-.273.16-.283.45-.283.45 1.573-.093 1.673-.33 1.673-.33.01-.303-.337-.332-.687-.286zm.123 1.41c-.522-.02-.93.172-.93.172.877.665 2.54.922 2.54.922-.454-.843-1.088-1.074-1.61-1.094zm-32.254 1.22s-3.191.894-3.191 2.386c0 0 1.11 1.42 4.103.638 0 0-2.344-.33-2.344-.68 0 0 1.857-.886 2.424-.886 0 0-1.453-.367-1.623-.172 0 0-1.019.234-.305-.588 0 0 .766-.207.936-.697zm31.619.056a.762.762 0 0 0-.295.107s.159.298 1.135.871c0 0-.213-1.053-.84-.978zm6.426 2.34s.069 4.723-1.213 1.156c0 0 .4 4.386 1.525 3.847 0 0 .935-.439 1.057-3.629 0 0-.954 3.07-1.145.598l-.224-1.973zm-41.734 1.597s-1.908.807-1.754 3.008c0 0 .184.675 2.498.355 0 0-2.406 4.012-6.201 6.356 0 0 3.887-1.598 6.91-6.781 0 0 .244-.351-.572-.145 0 0-1.828.327-.815-.84 0 0 .547-.454 1.477-1.066 0 0-1.354.205-1.694.596 0 0-.896.543-.51-.723l.66-.76zm38.438.178s-.369 2.55-2.125 3.543c0 0 2.216.001 2.125-3.543zm-43.28.363c-.637.07-1.16.6-1.16.6.932.462 1.823-.479 1.823-.479a1.145 1.145 0 0 0-.662-.121zm48.552 3.043s-.244 5.882 1.246 4.307c0 0 1.265-1.157 1.508-3.828 0 0-1.438 3.888-1.49 1.794 0 0-.174-1.435.12-2.232 0 0-.397.558-.484.777 0 0-.294 2.333-.676 0 0 0 .07-.739-.224-.818zm-24.492.527c-.431 2.907 2.219 3.688 2.219 3.688-1.971-1.312-2.22-3.688-2.22-3.688zm-17.068 1.211s-2.148.539-2.246 3.248c0 0 .233.806 2.203.422 0 0 .98-.436-1.28 2.223 0 0-2.125 3.657.846 3.004 0 0 1.56-.457 1.336.326-4.37 7.208-7.879 8.24-7.879 8.24 2.87-.375 7.04-5.817 7.39-6.28-.096 1.914.159 4.984 3.26 2.632 0 0 .848-.465 1.71-1.711l-.674.521c-.702.73-2.17 1.114-2.17 1.114-1.035.307.234-1.575.234-1.575 1.502-2.42.463-1.328.463-1.328-2.241 3.4-2.166 1.75-2.166 1.75-.3-2.305 1.268-4.88 1.268-4.88 1.001-.615.017-.23.017-.23-.517.425-1.92.73-1.92.73-2.604.192.334-1.307.334-1.307 3.039-2.306-1.134-.115-1.134-.115-1.804.96 1.017-2.856 1.017-2.856 1.339-1.202.684-1.18.684-1.18-.267.154-1.293.356-1.293.356-2.13-.067.125-1.277.125-1.277.835-.423 1.031-.813 1.031-.813-.038-.275-1.064.39-1.064.39-2.271 1.076-.092-1.404-.092-1.404zm38.84.297s-1.178.975-.658 3.069c0 0 .381 1.057.935 1.097 0 0 .244 1.693-.83 3.647 0 0 1.541-1.575 1.16-3.787 0 0 1.249-1.754.867-3.03 0 0-.78 2.412-.92.817 0 0-.016-.857.053-1.196 0 0-.778 2.413-.935.977 0 0-.088-.896.328-1.594zm-1.842 1.576s-1.14 2.979-2.65 4.22c0 0 2.31-.568 2.65-4.22zm7.213 1.633s-.573 4.306.726 4.805c0 0 2.062-.54 1.473-4.069 0 0-.26.08-.103 1.018 0 0-.382 2.472-1.022.26 0 0 .035-2.394-.225-.7 0 0-.33 2.453-.728-.038 0 0 .052-1.236-.121-1.276zm-3.777 2.951s-1.265 3.688.103 4.166c0 0 .522 0 .781-.32 0 0 .831 4.526 2.235 3.31l.57-.58s1.56 3.43 2.703 1.776c0 0 1.005-1.035.936-3.607 0 0-.78 3.208-1.455 2.63 0 0-.52-2.151-.121-2.47 0 0-.47.436-.59 1.652 0 0 .034 1.755-.936-.338 0 0-.501-1.256-.172-2.492 0 0-1.075 3.408-1.3 1.734 0 0-.114-1.07-.067-1.808-.248 1.033-.806 2.792-1.387.713 0 0-.243-.598.346-1.536 0 0 .485-1.316.174-1.396 0 0-1.595 2.632-.885 0 0 0 .243-1.635-.242-.777 0 0-.676 2.313-.693.14 0 0 .225-.737 0-.797zm2.687 3.653c.085-.354.137-.623.137-.623-.081.104-.12.342-.137.623zm-4.955 1.27s-1.818 3.787-.121 4.444c0 0 1.455.2 2.182-2.65 0 0-.087-.419-.313.2 0 0-1.818 2.252-.9 0 0 0 .38-1.535-.157-.4 0 0-1.124 1.636-.812-.198 0 0 .242-1.118.121-1.397zm-32.904 1.1s-1.14 2.902.19 5.262c0 0 .356.304 1.101-.062 0 0 1.443-1.155 1.32.635 0 0 .2 1.677 1.17 1.119 0 0 1.532-.992 1.364.21l.517 3.028.186 1.082c-.66 1.507-3.27 7.444-4.307 9.047 0 0-7.127 13.314-14.686 15.799 0 0 5.092 1.386 15.025-15.443 0 0 3.913-7.778 4.135-8.422l.447 2.621s.175 3.125 2.592 1.098c0 0 .385 3.893 2.787 2.51-.053.156-.144.404-.144.404-1.375 10.143-8.17 26.666-12.936 32.387-4.59 5.51-8.399 6.584-8.399 6.584 7.361-1.803 12.677-11.08 16.201-20.158 2.596-6.688 3.729-10.617 4.393-13.568.288-1.282.602-2.379.795-3.438.125-.69.133-1.363.275-2.06.037-.181.024-.172.045-.291.145-.099.293-.205.451-.342 0 0 .595-.56.854 1.56 0 0 .891 2.03 2.449.848 0 0 .586 3.503 2.719 1.197 0 0 1.65-1.712 1.748-3.125 0 0 .087-.46.369-.054-.005-.001-.022-.01-.022-.01-1.333 20.226-6.552 33.625-6.552 33.625-3.326 7.988-7.608 11.621-7.608 11.621 11.412-6.471 14.523-43.318 14.523-43.318.039-.474.034-.83.008-1.1.101.267.192.469.322.91 0 0 2.068 3.421 3.082-4.5 0 0 1.112-.818 1.531-4.76 0 0-2.132 6.806-1.615.26 0 0-.08-.504-.246.13 0 0-.142 7.049-1.758.28 0 0 .414 2.696-.939 3.393 0 0-.86.768-.88-3.357 0 0-.417-.535-.333.57 0 0-.238 5.978-1.24-.902 0 0-.213 2.57-1.512 2.549 0 0-.492.053.445-3.963 0 0-.128-.037-.355.41 0 0-1.648 6.483-1.357.322 0 0-.014-.742-.33.063 0 0 .04 2.887-1.123 2.59 0 0-1.19.386-.143-2.336 0 0 .272-1.348.434-1.496 0 0-.274-.557-.791 1.117 0 0-1.395 3.859-.965-.953 0 0-.055-.98-.54.693.084-.12-.635 1.405-1.165 1.117-.14-.075-.168-.45.048-1.379 0 0 .156-.816.557-1.951 0 0-.284-.469-1.267 2.47 0 0-1.217.24-.551-2.724 0 0 .05-.708-.385.506 0 0-.02.324-.225.824-.157.385-.471.875-.685 1.405-.71 1.752-1.576 3.936-1.576 4.156 0 0-1.55.398.283-6.067 0 0-1.35 2.813-1.406 1.791l-.018-.015c-.01-.042-.002-.084-.016-.125l-.035.08c-.133-.13-.382-.554.264-1.73l.496-1.585s-1.872 2.833-1.488-1.146c0 0-2.427.877-1.264-1.131 0 0 .549-1.032.549-1.334l-.22.062s-1.97 4.605-1.868 0c0 0-.62 1.081-1.234.858 0 0-1.201.489-.135-1.631l.373-.81s-.244-.345-.535.548c0 0-1.293 2.716-1.131-.556 0 0-.13-1.265-.065-1.897zm5.662 10.192c-.004.006-1.635 2.31-2.629 2.806 0 0-.938.304.244-1.814 0 0 1.202-3.286.114-1.168 0 0-1.934 4.71-1.409.152 0 0-.093-.8 1.034-2.42 0 0 .411-1.209-.508.346 0 0-.906 1.502-1.463 1.441 0 0-.996.525-.395-.857l.641-1.895s-.135-.397-.81 1.008c0 0-.808 2.053-.713-.713 0 0 .36-1.11.043-1.021-.041-.003-.085.03-.147.088-.09.075-.2.187-.348.37 0 0-3.904 1.427-1.97-1.015 0 0 1.689-3.175.375-1.533l-1.088 1.469s-.433 1.037-.414-1.361c0 0 .747-1.94.336-1.727 0 0-1.67 2.505-.356 4.947 0 0 .842.68 2.45.059l.357-.106c-4.685 10.835-12.797 13-12.797 13 6.685-.707 11.398-9.163 12.875-12.14.066 1.202.425 3.121 2.152 2.224l.447-.164s-.864 2.31.375 3.865c0 0 1.84.712 3.604-3.842zm31.352-7.44s-1.439 6.543-1.703 2.953c0 0-.12-1.904.072-2.318 0 0-.777 4.936-1.385 1.115 0 0-.313-.344-.22.444 0 0 .55 6.31 2.685 1.838 0 0 .623-1.85.551-4.032zm-6.765.139s-1.705 4.169-.194 6.35c0 0 1.538 1.876 2.473-3.563 0 0-1.92 5.246-1.367-1.215l-.577 2.155c-.936 2.954-.335-3.727-.335-3.727zm8.705 2.752-.094 1.113c-.336 5.385-1.174-.912-1.174-.912s-.646 5.428 1.488 5.186c0 0 1.99-1.017 1.655-5.02l-.672 2.375c-1.248 3.038-1.203-2.742-1.203-2.742zm-50.057 1.87c-.903.865-2.182 1.06-2.182 1.06 1.504.454 2.182-1.06 2.182-1.06zm45.297 1.915s-1.619 7.34-1.373.338c0 0-.47.1-.53 1.01 0 0-.474 5.243-1.322.254 0 0-1.513 6.316-1.156.127 0 0-.28-.77-.328.642 0 0-.974 6.699-1.229-1.355 0 0-1.274 6.211.934 5.76 0 0 1.52-1.75 1.765-2.936 0 0 1.374 3.725 2.944-.904 0 0 .443-1.41.295-2.936zm-24.436.186s.032 3.366 1.841 2.697c0 0 1.054-1.248 1.432.834 0 0 .164 1.184 2.08.8 0 0 .626-.348.815.376 0 0 .472 1.14 1.95.144 0 0 .615-.216.583-.45 0 0 .268-.49.472.233 0 0 .43 2.596 2.788 1.407 0 0 .3.03.824-1.077 0 0 .321-.22.59.666 0 0 .177.333.898.792 0 0-.137 2.782-1.266 3.105 0 0-.61-1.072-.5-3.625 0 0-.267-.725-.314.814 0 0 .332 5.45-.943 1.286 0 0-.28-.82-.28-.948 0 0-.193-.646-.76 1.6 0 0-2.312 4.419-2.25 1.992 0 0 .473-3.296.52-3.35 0 0-.133-.392-.428.837 0 0-1.019 5.428-1.539 1.662 0 0-.103-2.62.051-3.184 0 0-.287-.617-.586 1.791 0 0-.096 1.238-.271 1.424-.108.113-.72.766-.407-1.371l.174-2.336s.22-2.408-.33-.2c0 0-.534 5.941-1.289 2.428 0 0-.732-2.057-.209-3.256 0 0-.381-.322-.441.698 0 0-.077 1.791-.764 2.105-.28.128-2.206 1.05-1.184-.58 0 0 1.258-3.26.614-2.734 0 0-1.588 4.364-1.856 2.263 0 0-.567-1.647.645-3.476 0 0 .393-1.195-1.086 1.377 0 0-2.566 3.223-.9-1.065 0 0 .712-3.244 1.326-3.68zm24.957 1.416s-.088 6.628 1.705 5.83c0 0 1.146-.927 1.158-4.563-.135.426-.276-.406-.42 1.229-.116 1.321-1.06 2.58-.791-.006 0 0-.384-3.755-.48-1.049 0 0-.265 4.004-.745-.027 0 0-.112-1.31-.427-1.414zm5.267.713s-.442 4.686 1.668 4.968c0 0 1.523-.904 1.719-4.8 0 0-.657 2.256-1.262 2.834-.438.418-.39-.046-.502-2.893 0 0-.41-.238-.347.736 0 0 .098 5.817-1.276-.845zm-.748 4.193s-1.139 8.247-1.18.703c0 0-.53 6.279-1.587.984 0 0 .161 5.48 1.912 4.028 0 0 1.425-1.499.855-5.715zm-10.928 1.396s-.834 1.582.49 4.913c0 0-.49-2.316-.49-4.913zm4.317.145c-.025.01-.052.204-.08.664 0 0-.932 7.618-1.21-.465 0 0-.127-.42-.29.465 0 0-.026 4.804-.708 1.379 0 0 .001-2.38-.289-1.654 0 0-.58 5.354 1.336 4.976 0 0 .833-.433 1.274-1.101 0 0 .782 2.945 1.955 2.437 0 0 1.438-.77.693-4.89 0 0-.227 2.898-.558 3.043-.11.048-.425-.025-.362-.983 0 0-.188-2.99-.39-1.379 0 0 .047 3.148-.57 2.367-.162-.202-.592-.727-.63-1.525 0 0-.065-3.381-.172-3.334zm-6.995.555s-.002 1.428.584 2.619c0 0 .106-1.271-.584-2.62zm-29.484.174c.149.547-.134 2.105-.134 2.105.981-1.438.134-2.105.134-2.105zm-1.406.87c-.439.564-.35 2.348-.35 2.348.55-1.37.35-2.347.35-2.347zm45.67 1.35c-.065.001-.12.175-.078.87 0 0-.356 3.234-.824.044-.025-.171-.217-.085-.272-.297 0 0 .04 3.935 1.506 4.17 0 0 1.506-1.12 1.243-4.425 0 0-.127-.36-.44 1.468-.22 1.28-1.01 2.167-.992-1.658 0 0-.077-.173-.143-.172zm-47.598.805c.148.202-.619 1.916-.619 1.916 1.011-.941.95-1.916.95-1.916h-.33zm-1.734.148s-.301 1.06-1.186 1.97c0 0 1.224-.607 1.186-1.97zm24.227.508s-.825 1.294-.225 3.408c0 0 .375-1.596.225-3.408zm-26.971.162s-1.974 1.342-2.313 1.06c0 0 .997.606 2.313-1.06zm49.002 1.043s.138 4.806-1.133.737c0 0 .164 5.07 1.65 4.437 0 0 1.13-1.736.772-4.5 0 0-.847 4.803-1.29-.674zm-12.258.653s-.38.474-.242 2.379c0 0 .38-1.507.242-2.38zm4.615.316c-.073-.111-.153.081-.223.977 0 0-.06 3.713-.712-.13 0 0-.35-1.655-.35.163 0 0-.003 4.443 1.65 4.133-.08.015 1.41-.048 1.078-4.487 0 0-.235-1.06-.341.637-.106 1.697-.877 3.959-.877-.082 0 0-.103-1.025-.225-1.21zm-6.1 1.416s.141 2.392.416 2.709c0 0 .167-1.571-.416-2.709zm8.452.256s-.317 5.199 1.586 5.107c0 0 1.38-1.076.808-3.525 0 0-.321-.604-.185.766 0 0-.14 1.124-.354 1.209-.129.05-.475-.012-.451-1.438 0 0-.15-2.94-.385-.871 0 0-.246 2.07-.642.3 0 .001-.17-1.543-.377-1.548zm8.453 1.265s-.736 4.688-.992 1.774l-.061-1.615s-.329-.495-.434 1.361c0 0 .286 2.422-.941.559 0 0 .345 4.234 2.16 1.806 0 0 .682-2.688.268-3.885zm-38.264.463s.013 2.73-.283 3.21c0 0 1.113-1.571.283-3.21zm-1.766 1.588s0 3.464-.267 3.96c0 0 1.082-2.594.267-3.96zm42.713.676c-.024-.005-.05.052-.066.297l-.002.043c-.02.411-.262 3.094-.57 3.322-.103.076-.41.008-.327-.765 0 0-.13-3.75-.373-1.998 0 0-.047 3.6-.728 1.591 0 0-.084-1.312-.336-.625 0 0-.018 3.492 1.084 3.621 0 0 1.942-.225 1.363-5.414 0 0-.021-.067-.045-.072zm-13.043 1.285c-.011.014-.02.061-.023.15 0 0-.297 4.808 1.103 5.165 0 0 1.623.264 1.735-3.37 0 0-.273-.268-.334.403 0 0-1.129 3.906-1.141.455 0 0-.086-3.193-.322-1.738 0 0-.184 2.801-.68.373 0 0-.257-1.534-.338-1.438zm5.361.133c-.04-.002-.074.13-.097.46 0 0 .168 3.103-.719 1.384 0 0-.446-1.237-.574-.666 0 0 .845 5.05 2.572 3.01 0 0 .71-2.214.531-3.3 0 0-.168-.998-.279.28 0 0-.72 3.62-.953 1.365 0 0-.302-2.525-.48-2.533zm-36.439.074s-.15 3.293-.638 4.078c0 0 1.128-.698.638-4.078zm40.832 2.408c-.062.057-.112.277-.056.932 0 0-.746 5.33-1.026.451 0 0-.15-2.009-.337-.086 0 0 .206 3.342-.7 1.989 0 0-.775-1.022-.775-.797 0 0 .13 2.418 2.11 2.224 0 0 1.437-1.02.923-4.662 0 0-.076-.107-.139-.05zm-28.717.35c.022 1.67.786 2.367.786 2.367.032-1.124-.786-2.367-.786-2.367zm-1.187 1.83s-.138.722 1.008 3.127c0 0-.33-2.273-1.008-3.127zm23.604.438c-.035.018-.08.213.133 1.464 0 0 .167 3.09-.84.643 0 0-.553-1.138-.48-.518 0 0 .78 3.571 1.763 3.07 0 0 1.212-.235.8-3.421 0 0-.365-.58-.228.342 0 0-.388 2.185-.709-.553 0 0-.283-1.093-.416-1.02 0 0-.011-.014-.023-.007zm-39.352 1.459s-.535 1.793-1.01 2.048c0 0 .862-.153 1.01-2.048zm-1.736.068s-.786 2.406-1.78 3.022c0 0 1.735-.394 1.78-3.022zm16.475.063s.16 2.088.785 3.382c0 0-.255-2.198-.785-3.382zm32.387.18c-.06-.004-.13.189-.207.708 0 0 .009 4.183-1.067-.03 0 0-.32 4.212 1.922 3.554 0 0 1.21-.94 1.018-3.524 0 0-.084-1.234-.276 0 0 0-1.015 4.578-1.107 1.076 0 0-.102-1.774-.283-1.785zm-4.971 1.206c-.091.12-.33 1.205-.33 1.205-.198 2.05-.611.93-.611.93-.018-.91-.27-.02-.27-.02.324 5.796 2.049 2.194 2.049 2.194-.468 2.753.918 4.078.918 4.078 2.95.517 2.127-4.195 2.127-4.195-1.057 5.533-.992.57-.992.57.092-1.783-.164-1.457-.164-1.457l-.36 2.557c-.198 2.918-.908-.008-.908-.008-.353-1.034-.152-2.992-.152-2.992.27-.933.043-.698.043-.698-1.774 4.19-1.428-.898-1.428-.898.135-1.063.133-1.338.078-1.266zm-28.328.287c.287.818.478 2.979.478 2.979.286-2.406-.478-2.979-.478-2.979zm24.115 4.791s-2.174 2.356-.635 4.29c0 0 1.46 1.081 2.881-2.81 0 0-1.12 1.612-1.74 1.727 0 0 .346-1.694.652-2.003 0 0-.389.077-.761.921 0 0-1.375 2.263-.872-.668 0 0 .49-1.12.475-1.457zm12.355.43c-.157.158-.447 1.824-.447 1.824-1.034 3.646-1.034-.103-1.034-.103-.292-3.361-.449-.026-.449-.026-.27 3.36-.898-.646-.898-.646-.112-1.008-.27-.13-.27-.13-.292 3.413 1.348 3.776 1.348 3.776 1.079.259 1.797-2.664 1.797-2.664.093-1.677.047-2.126-.047-2.031zm-10.041 2.803s-3.19 3.133-1.617 4.969c0 0 1.193 1.06 3.709-3.323 0 0 .062-.546-.442.444 0 0-3.154 3.059-1.177-.147 0 0 1.1-2.198-.225-.336 0 0-2.56 3.438-1.123.258 0 0 1.21-1.895.875-1.865zm-14.047.523a.142.142 0 0 0-.049.047c-.191.02.026 1.793.026 1.793.246-1.744.107-1.88.023-1.84zm-16.377 1.352s.497 1.76.2 2.97c0 0 .832-2.353-.2-2.97zm24.039.07c-.036.01-.091.055-.168.145 0 0-1.458 2.305-.877 4.17 0 0 1.398 1.46 3.41-2.965 0 0-2.87 3.4-1.59.685l.655-1.89s-2.695 4.698-1.815 1.43c0 0 .639-1.644.385-1.575zm-8.783.012s.24 1.307-.201 2.367c0 0 .907-1.046.2-2.367zm20.469.308c-.026.057-.016.395-.016.395-.029 4.077-.576 2.892-.765 2.396-.214-.553-.336-2.015-.336-2.015s-.937 1.915.414 3.431c0 0 1.087 1.555 2.043-1.138 0 0 .691 4.173 2.57 3.566 0 0 1.45-.733 1.195-3.959-.055-.698-.496 1.268-.496 1.268-.98 3.833-.935-.19-.935-.19-.139-2.425-.221-1.775-.221-1.775l-.498 3.215c-1.055-.456-1.373-3.723-1.373-3.723-.318-1.861-.442-.443-.442-.443-.429 4.332-.904.257-.904.257-.148-1.118-.21-1.342-.236-1.285zm-37.193.866s.497 1.44.219 3.017c0 0 .893-1.76-.22-3.017zm-.953 2.24s-.223 2.282-.526 3.049c-.023.058-.15.173-.15.173s.072-.05.172-.17c.277-.332.766-1.204.504-3.052zm27.527 1.72c-.271.076-.886.641-1.471 3.956 0 0-.02 1.956 2.24.047 0 0 .961-1.037 1.041-2.303 0 0-2.68 3.614-1.5 1.082 0 0 1.08-2.601.44-1.451 0 0-2.28 3.316-1.141.047 0 0 .366-1.134.533-1.373 0 0-.052-.03-.142-.004zm-29.672.381s-.417 2.606-.735 3.04c0 0 .953-1.212.735-3.04zm25.44.145c-1.211 2.186-2.583 2.58-2.583 2.58 2.677-.211 2.584-2.58 2.584-2.58zm8.053.553c-2.63 1.053-2.402 4.79-2.402 4.79.434-2.659 2.402-4.79 2.402-4.79zm-36.75 1.588s-.02 1.257-1.548 3.222c0 0 2.084-1.349 1.548-3.222zm19.027.837c-.104.06-.218.747-.218.747.089.65-.12 2.062-.147 2.24.02-.04.014-.058.1-.15.276-.3.308-2.82.308-2.82-.014-.022-.028-.025-.043-.017zm-.365 2.987c-.042.087-.014.11-.014.11l.014-.11zm11.39-2.528c-1.022.867-.202 1.006-.202 1.006.022.09-.275.416-.275.416.176-.08.423-.282.37-.547-.565.02.258-1.003.106-.875zm13.583.034c-2.074 8.351-7.543 8.964-9.068 8.97 8.534.423 9.068-8.97 9.068-8.97zm-9.068 8.97c-.146-.007-.276.006-.426-.008 0 0 .172.01.426.008zm-17.15-8.867s.033 2.78-.114 3.397c0 0 .665-2.408.114-3.397zm30.55.324c-.048.003-.17.17-.36 1.475 0 0-1.151 4.72-1.217.896 0 0-.1-3.058-.3-1.146 0 0-.432 4.244-.831.842 0 0 0-1.798-.366-1.608 0 0-.663 4.63 1.264 4.63 0 0 2.043-.087 1.836-5.073 0 0-.009-.017-.025-.016zm-50.647.483s-1.568 2.01-2.223 1.873c0 0 1.23.549 2.223-1.873zm17.193 2.758c.162.447-.746 2.687-.746 2.687 1.346-1.792.746-2.687.746-2.687zm-2.19 1.269c-.097.933-1.345 2.725-1.345 2.725 1.67-1.326 1.345-2.725 1.345-2.725zm-2.158 1.455c-.08.747-1.297 1.252-1.297 1.252 1.558-.056 1.297-1.252 1.297-1.252zm34.93 2.53c-.106.9-.516 3.054-.516 3.054-2.222 3.26-8.232 4.803-8.232 4.803s2.766.504 7.518-2.838c0 0-1.189 5.17-6.344 9.22 0 0-3.557 2.744-7.361 3.848 0 0-5.369 2.25-6.791 5.319 0 0-1.459 2.74-.641 4.256l-.008-1.287c.346-4.399 5.662-6.815 5.662-6.815 6.188-2.456 7.787-3.765 7.787-3.765 9.388-6.261 8.926-15.795 8.926-15.795zm1.043 1.53c-.076.039-.108.192-.135.417-.321 2.64.52 3.67.52 3.67 1.628 1.032 2.24-1.803 2.24-1.803.513-2.796-.478.234-.478.234-1.43 2.6-.733-1.605-.733-1.605 0-.84-.264-.575-.264-.575-.531 5.125-1.058-.335-1.058-.335-.037-.015-.066-.015-.092-.002zm2.398 7.49c0 9.185-5.515 13.155-5.515 13.155 7.22-4.83 5.515-13.154 5.515-13.154zm-.08 17.157c-.12 1.089-1.638 2.207-1.638 2.207-1.559 1.058-2.545 2.101-2.545 2.101-1.346 1.441-1.346 2.561-1.346 2.561.147-.981 1.303-2.031 1.303-2.031l2.38-1.787c2.16-1.625 1.846-3.051 1.846-3.051z" fill="#d7dae2"/>
</svg>
