<svg xmlns="http://www.w3.org/2000/svg" width="500" height="300"><path d="M500 150v150H0V150" color="#000" fill="#da121a"/><path d="M499.8 150V.2H.2V150" color="#000" fill="#fff" stroke="#000" stroke-width=".4"/><path d="M68.486 19.852c2.045 1.76 4.36 1.773 6.409 1.651 1.59-.094 2.978-.759 4.543-.775 1.837-.02 3.31.28 4.798.533l.057 1.011c-1.2-.363-2.932-.784-4.892-.19-2.965.9-3.914 1.093-5.73 1.098-2.938.007-4.83-1.427-5.185-3.328zM75.86 24.786c2.234.438 5.314-.285 8.79-1.859l1.249 3.313c-4.102.162-9.725.93-10.039-1.454zM73.865 19.27c-.165-2.34 1.217-3.654 4.254-4.133 1.853-.185 3.244.068 4.258.122.472 2.12.671 3.407 1.143 4.442-1.755-1.577-2.821-.188-4.652-.798-1.45-.483-3.664-.383-5.003.366zM65.168 109.114c.433-2.454 1.375-4.335 4.096-4.415 2.238-.066 5.2.32 6.92 1.365l6.963-9.74 4.097 1.411-6.828 8.147c-.635.758-.865 1.73.091 1.82 3.953.373 7.494.994 5.371 6.555-.888-5.264-6.716-3.358-8.33-2.822-.714.237-1.101 4.056.035 6.423.695 1.447 2.358 1.981 3.698 1.906-4.631 1.88-8.216 1.505-8.148-6.736-4.243.813-4.096 2.891-3.231 6.144-1.697-1.313-4.577-2.625-3.323-5.37.838-1.835 2.597-2.738 5.37-4.415 1.303-.787.313-1.36-1.046-1.639-2.4-.49-4.186.186-5.735 1.366zM141.143 19.852c-2.045 1.76-4.36 1.773-6.409 1.651-1.591-.094-2.978-.759-4.543-.775-1.837-.02-3.31.28-4.798.533l-.057 1.011c1.2-.363 2.931-.784 4.892-.19 2.965.9 3.913 1.093 5.73 1.098 2.938.007 4.829-1.427 5.185-3.328zM133.769 24.786c-2.234.438-5.314-.285-8.79-1.859l-1.25 3.313c4.103.162 9.725.93 10.04-1.454zM135.764 19.27c.165-2.34-1.218-3.654-4.254-4.133-1.853-.185-3.244.068-4.258.122-.473 2.12-.671 3.407-1.144 4.442 1.756-1.577 2.822-.188 4.653-.798 1.449-.483 3.663-.383 5.003.366zM144.86 109.114c-.432-2.454-1.375-4.335-4.096-4.415-2.238-.066-5.199.32-6.919 1.365l-6.964-9.74-4.096 1.411 6.827 8.147c.635.758.866 1.73-.09 1.82-3.953.373-7.494.994-5.372 6.555.889-5.264 6.717-3.358 8.33-2.822.714.237 1.102 4.056-.034 6.423-.695 1.447-2.358 1.981-3.699 1.906 4.632 1.88 8.216 1.505 8.148-6.736 4.244.813 4.096 2.891 3.232 6.144 1.697-1.313 4.577-2.625 3.323-5.37-.838-1.835-2.598-2.738-5.371-4.415-1.302-.787-.312-1.36 1.046-1.639 2.4-.49 4.186.186 5.736 1.366z" fill="#da121a" fill-rule="evenodd" stroke="#000" stroke-width=".48" stroke-linecap="round" stroke-linejoin="round"/><path d="M97.063 130.871c3.617-2.526 3.94-9.383 3.689-16.997-5.792 16.552-12.857 21.076-20.496 20.182 7.755-9.423 13.645-22.078 16.259-40.41-2.216 2.862-3.215 4.973-4.613 8.674-.75.184-1.5.195-2.25.064l.387 2.933c-3.565-1.2-3.08-5.246-6.068-7.302-1.72 1.605-8.375 2.297-9.69.513 3.84-2.633 8.152-5.056 9.396-8.47 1.594-4.374 1.076-9.043-.98-13.564-4.977 15.525-9.776 19.694-14.345 19.852 4.879-5.193 8.599-13.266 10.238-25.103.287-2.072.192-3.176-.3-3.08-5 8.486-10.217 17.193-14.999 24.314-5.827 8.68-13.069 11.378-21.97 9.179 9.138-5.306 17.474-19.302 25.59-35.677-9.893 12.616-16.858 18.798-23.726 18.888 7.68-5.98 14.675-13.483 21.12-22.209.816-.561.099-1.656-1.144-.717-10.53 10.53-28.392 16.114-34.835 8.81 10.255-1.307 19.476-7.138 28.085-15.643-10.642 5.652-19.868 8.606-26.195 6.042 8.461-1.81 17.079-4.508 25.384-9.91.497-.323 1.265-1.818-.758-1.077-12.529 4.582-25.124 6.533-30.036-1.883 8.181-.194 17.099-2.072 26.928-6.04-14.305-.34-23.967-2.099-25.929-6.21 8.9 2.262 17.19 2.77 26.004 2.736 1.318-.005.971-1.46.258-1.456-14.724.071-24.316-3.957-27.97-12.833 6.423 2.823 14.182 3.38 22.293 2.971 6.131-.31 11.589-1.302 17.696-.696 7.185.713 6.1 8.963 1.31 10.011 2.175 8.177 7.382 11.417 13.33 11.468 6.866.059 8.92-5.123 8.523-13.197-.299-6.051-3.013-11.101-5.573-16.2-1.555-3.1.31-5.255 4.37-5.734 4.464-.526 8.997 3.178 14.314 1.73-3.058 5.027-1.165 9.321 2.84 13.287-1.129.37-2.258-.35-3.387-.91.58 2.575 2.008 4.584 4.043 6.189l-2.185.91c1.85 2.512 2.714 6.257 3.414 10.207.7-3.95 1.563-7.695 3.414-10.207l-2.185-.91c2.035-1.605 3.464-3.614 4.043-6.189-1.13.56-2.258 1.28-3.387.91 4.005-3.966 5.898-8.26 2.84-13.288 5.318 1.45 9.85-2.255 14.313-1.729 4.062.479 5.927 2.634 4.37 5.734-2.559 5.099-5.273 10.149-5.572 16.2-.398 8.074 1.657 13.256 8.523 13.197 5.949-.05 11.155-3.291 13.33-11.468-4.789-1.048-5.875-9.298 1.31-10.011 6.107-.606 11.565.386 17.696.696 8.11.41 15.87-.148 22.293-2.971-3.654 8.876-13.246 12.904-27.97 12.833-.713-.004-1.06 1.45.258 1.456 8.814.034 17.104-.474 26.004-2.735-1.962 4.11-11.624 5.869-25.929 6.209 9.83 3.968 18.747 5.846 26.929 6.04-4.913 8.416-17.508 6.465-30.037 1.883-2.023-.74-1.255.754-.758 1.077 8.305 5.402 16.923 8.1 25.385 9.91-6.328 2.564-15.554-.39-26.196-6.042 8.61 8.505 17.83 14.336 28.085 15.644-6.443 7.303-24.305 1.719-34.835-8.811-1.242-.939-1.96.156-1.143.717 6.444 8.726 13.439 16.229 21.119 22.21-6.868-.09-13.833-6.273-23.726-18.89 8.116 16.376 16.452 30.372 25.59 35.678-8.901 2.2-16.142-.5-21.97-9.179-4.782-7.121-9.999-15.828-14.998-24.314-.493-.096-.587 1.008-.3 3.08 1.638 11.837 5.358 19.91 10.237 25.103-4.57-.158-9.368-4.327-14.345-19.852-2.056 4.521-2.574 9.19-.98 13.564 1.244 3.414 5.556 5.837 9.396 8.47-1.315 1.784-7.97 1.092-9.69-.513-2.988 2.056-2.503 6.102-6.068 7.301l.387-2.932c-.75.131-1.5.12-2.25-.065-1.398-3.7-2.396-5.811-4.613-8.672 2.614 18.33 8.504 30.986 16.259 40.41-7.639.893-14.704-3.631-20.495-20.183-.252 7.614.071 14.47 3.688 16.997-2.674 2.46-5.348 4.36-8.022 5.964-2.674-1.604-5.348-3.504-8.022-5.964z" fill-rule="evenodd" stroke="#000" stroke-width=".263" stroke-linecap="round" stroke-linejoin="round"/><path d="M87.438 17.126c.214 1.84 2.492 1.997 2.835.049.625.297 1.524.41 2.51.466-.722 2.053-3.634 2.326-6.286 2.575-.252-.595-.45-1.534-.665-2.51-.335-1.524 1.206-.66 1.606-.58zM122.12 17.126c-.214 1.84-2.492 1.997-2.835.049-.625.297-1.524.41-2.51.466.722 2.053 3.635 2.326 6.286 2.575.252-.595.451-1.534.666-2.51.335-1.524-1.207-.66-1.606-.58z" fill="#fff" fill-rule="evenodd" stroke="#000" stroke-width=".24"/><path d="M120.176 71.668V51.761H89.954v19.907c0 8.395 7.668 13.673 15.11 16.07 7.443-2.397 15.112-7.675 15.112-16.07z" fill="#da121a" fill-rule="evenodd"/><path d="M120.176 51.761H89.954v16.79h30.222z" fill="#fff" fill-rule="evenodd"/><path d="M120.176 68.55H89.954" fill="none" stroke="#000" stroke-width=".24"/><path d="M120.175 71.668V51.761H89.954v19.907c0 8.395 7.668 13.673 15.11 16.07 7.443-2.397 15.111-7.675 15.111-16.07z" fill="none" stroke="#000" stroke-width=".24" stroke-linecap="round" stroke-linejoin="round"/></svg>