<?xml version="1.0" encoding="UTF-8"?>
<svg id="Ebene_1" data-name="Ebene 1" xmlns="http://www.w3.org/2000/svg" viewBox="0 0 2560 1533">
  <defs>
    <style>
      .cls-1 {
        fill: #00973f;
      }

      .cls-2 {
        fill: #fcdb00;
      }

      .cls-3 {
        fill: #131516;
      }

      .cls-4 {
        fill: #f2b398;
      }

      .cls-5 {
        fill: #da251d;
      }

      .cls-6 {
        fill: #090;
      }

      .cls-7 {
        fill: #193;
      }

      .cls-8 {
        fill: #d22;
      }

      .cls-9 {
        fill: #d1d2d4;
      }
    </style>
  </defs>
  <g>
    <path class="cls-7" d="m0,766.98V0h2560v766.98H0Z"/>
    <path class="cls-8" d="m0,766.98h2560v766.02H0c0-255.34,0-510.68,0-766.02Z"/>
  </g>
  <path class="cls-3" d="m1264.08,1229.86l-3.97-.34-3.97-.34-3.91-.4-3.91-.34-3.97-.34-3.91-.34-3.91-.34-6.21-1.04-6.15-1.04-6.04-1.15-6.04-1.21-5.92-1.26-5.92-1.38-5.87-1.38-5.81-1.5-5.75-1.55-5.75-1.61-5.75-1.72-5.69-1.72-5.75-1.9-5.69-1.9-5.69-2.01-5.69-2.07-3.51-1.55-3.51-1.55-3.51-1.55-3.51-1.55-3.51-1.55-3.51-1.5-3.51-1.55-3.45-1.5-4.77-2.42-4.66-2.42-4.66-2.47-4.6-2.53-4.54-2.53-4.49-2.59-4.49-2.64-4.43-2.64-4.43-2.7-4.31-2.76-4.31-2.76-4.31-2.82-4.26-2.88-4.2-2.88-4.2-2.88-4.14-2.93-3.34-2.7-3.34-2.76-3.34-2.7-3.34-2.7-3.34-2.7-3.34-2.7-3.28-2.76-3.34-2.7-3.16-2.88-3.05-2.88-3.05-2.82-2.93-2.88-2.88-2.82-2.88-2.88-2.82-2.82-2.76-2.82-2.76-2.88-2.7-2.82-2.7-2.88-2.7-2.88-2.7-2.88-2.7-2.88-2.76-2.88-2.7-2.93-.29-.46-.35-.58-.52-.58-.58-.58-.58-.58-.52-.58-.4-.52-.23-.46-2.82-3.62-2.82-3.62-2.7-3.62-2.65-3.62-2.65-3.62-2.59-3.62-2.53-3.57-2.47-3.62-2.42-3.62-2.47-3.62-2.36-3.62-2.36-3.62-2.36-3.62-2.3-3.62-2.3-3.68-2.3-3.62-2.3-4.31-2.24-4.31-2.19-4.31-2.13-4.31-2.13-4.31-2.07-4.37-2.01-4.31-1.96-4.31-1.96-4.31-1.9-4.37-1.84-4.31-1.84-4.37-1.78-4.31-1.78-4.37-1.67-4.31-1.67-4.37-2.07-6.67-1.55-5.12-1.15-4.03-.98-3.22-.81-2.82-.75-2.76-.86-3.16-1.04-3.8-1.15-5-1.04-5-.98-4.95-.92-4.89-.86-4.89-.75-4.83-.75-4.83-.69-4.83-.63-4.77-.58-4.83-.52-4.77-.52-4.83-.46-4.77-.4-4.83-.4-4.89-.4-4.89v-330.74l-.06-33.06v-99.19l-.06-33.06v-33.06h813.07v33.06l-.06,33.06v66.13l-.06,33.06v66.13l-.06,33.06v99.25l-.06,33.06v132.31l-.23,2.76-.17,2.76-.23,2.76-.17,2.82-.17,2.76-.17,2.76-.17,2.76-.17,2.82-.98,7.19-1.04,7.13-1.15,7.02-1.27,7.02-1.32,6.96-1.44,6.9-1.5,6.9-1.67,6.84-1.73,6.84-1.9,6.79-.98,3.39-.98,3.39-1.04,3.45-1.09,3.39-1.09,3.39-1.09,3.39-1.15,3.39-1.21,3.45-1.21,3.39-1.27,3.39-1.27,3.45-1.32,3.45-1.55,3.28-1.55,3.33-1.55,3.33-1.61,3.28-1.61,3.33-1.61,3.28-1.61,3.33-1.67,3.28-1.67,3.28-1.67,3.28-1.67,3.28-1.73,3.28-1.73,3.22-1.73,3.22-1.73,3.28-1.78,3.16-2.07,3.28-2.07,3.28-2.13,3.22-2.13,3.22-2.13,3.16-2.19,3.16-2.19,3.16-2.19,3.16-2.24,3.16-2.24,3.11-2.24,3.11-2.3,3.11-2.3,3.05-2.36,3.05-2.36,3.05-2.36,3.05-6.44,7.59-3.05,3.16-2.93,3.05-2.88,2.99-2.76,2.93-2.76,2.88-2.76,2.88-2.65,2.76-2.7,2.82-2.7,2.76-2.76,2.76-2.76,2.82-2.82,2.76-2.88,2.88-2.99,2.88-3.11,2.88-3.22,2.99-2.47,1.96-2.42,1.96-2.47,1.96-2.47,1.96-2.42,2.01-2.47,1.96-2.47,1.96-2.42,2.01-4.26,3.05-4.26,2.99-4.2,2.93-4.2,2.88-4.2,2.82-4.26,2.76-4.2,2.7-4.26,2.7-4.26,2.64-4.26,2.64-4.31,2.53-4.37,2.59-4.37,2.53-4.37,2.47-4.49,2.47-4.49,2.47-3.34,1.5-3.28,1.55-3.34,1.5-3.28,1.55-3.34,1.55-3.28,1.55-3.28,1.55-3.28,1.55-6.38,2.42-6.38,2.3-6.33,2.18-6.27,2.13-6.27,2.01-6.21,1.96-6.27,1.84-6.27,1.72-6.27,1.67-6.27,1.55-6.33,1.5-6.38,1.44-6.44,1.32-6.44,1.26-6.56,1.15-6.61,1.09-3.91.4-3.91.34-3.91.29-3.91.29-3.91.29-3.85.17-3.91.23-3.85.17-3.91.11-3.85.11-3.85.11-3.85.11-3.85.06-3.85.06-3.85.06-3.85.06-3.91-.4Z"/>
  <path class="cls-2" d="m1209.57,1208.7l-3.62-.92-3.68-.92-3.68-.98-3.62-.98-3.68-.98-3.62-1.04-3.62-.98-3.62-1.04-3.57-1.09-3.62-1.09-3.51-1.04-3.57-1.15-3.51-1.09-3.45-1.09-3.39-1.15v-248.92l2.93.98,2.24.75,1.67.52,1.32.46,1.04.4.92.34.98.4,1.21.52,2.07,1.27,2.07,1.32,2.01,1.38,2.01,1.38,1.96,1.5,1.9,1.49,1.9,1.55,1.84,1.61,1.78,1.67,1.78,1.67,1.73,1.72,1.67,1.78,1.61,1.84,1.61,1.9,1.55,1.9,1.5,1.96,1.44,1.95,1.38,2.07,1.32,2.07,1.32,2.13,1.21,2.13,1.21,2.18,1.09,2.24,1.09,2.24,1.04,2.3.92,2.36.92,2.36.81,2.36.81,2.47.69,2.41.63,2.53.63,2.53h-17.25v-9.55h-16.79v9.55h-8.51v16.04h8.51v9.66h16.79v-9.66h18.06v105.69h-18.06v-9.54h-16.79v9.54h-8.51v16.56h8.51v9.2h16.79v-9.2h18.06v60.38h-1.15l-3.68-.86Z"/>
  <path class="cls-2" d="m1353.66,1205.48v-56.29h18.06v9.2h16.1v-9.2h7.25v-16.56h-7.25v-9.54h-16.1v9.54h-18.06v-105.69h18.06v9.66h16.1v-9.66h8.05v-16.04h-8.05v-9.55h-16.1v9.55h-17.6l.35-1.72.35-1.67.4-1.67.46-1.61.52-1.67.52-1.61.58-1.61.58-1.61.69-1.55.63-1.61.75-1.55.75-1.55.75-1.55.81-1.49.86-1.5.86-1.49,1.78-2.93,1.9-2.93,1.96-2.82,2.01-2.76,2.07-2.7,2.13-2.64,2.13-2.59,2.19-2.47,1.96-1.78,1.9-1.73,1.84-1.55,1.84-1.49,1.78-1.38,1.84-1.32,1.84-1.21,1.84-1.15,1.9-1.15,1.9-1.04,2.01-.98,2.13-.98,2.19-.92,2.24-.86,2.42-.92,2.53-.86v15.53l-.06,15.53v31.05l-.06,15.53v15.58l-.06,15.53v31.05l-.06,15.53v31.11l-.06,15.53v31.05l-.06,15.58-3.68,1.21-3.68,1.21-3.62,1.15-3.68,1.15-3.62,1.09-3.62,1.09-3.68,1.09-3.62,1.04-3.62,1.04-3.62.98-3.62.98-3.62.92-3.62.92-3.62.86-3.62.86-3.68.8v-3.74Z"/>
  <g>
    <path class="cls-1" d="m1307.61,622.88l-.81-3.57-.81-3.8-.81-3.91-.35-1.96-.35-1.84-.29-1.84-.23-1.78-.17-1.67-.06-1.55v-1.38l.11-1.27,1.73-1.04,1.78-1.04,1.78-1.04,1.78-1.04,1.78-1.04,1.78-.98,1.78-1.04,1.78-.98.46,2.13.46,2.19.4,2.19.35,2.24.35,2.3.29,2.42.29,2.41.29,2.53.29.86.46,1.21.17.69.11.75.06.75-.06.75-3.39.86-2.65.81-1.09.35-.98.46-.81.46-.75.58-.29.29-.35.35-.29.35-.29.35-.52.92-.46.98-.46,1.15-.46,1.38-.52,1.55-.52,1.73-.57-3.22Z"/>
    <path class="cls-1" d="m1269.83,869.85v-12.08h-13.28v-8.74l.06-8.8v-8.74l.06-8.74.06-8.74.06-8.74.11-8.74.11-8.74.11-8.68.11-8.68.17-8.68.17-8.63.23-8.63.23-8.57.29-8.57.29-8.57.17-2.88.17-2.87.17-2.88.17-2.87.17-2.88.17-2.87.17-2.88.23-2.87.17-2.88.17-2.87.23-2.88.17-2.88.17-2.82.23-2.88.17-2.88.17-2.88.69-4.49.63-4.49.69-4.43.69-4.43.69-4.43.69-4.43.69-4.37.75-4.43.69-4.37.75-4.31.81-4.37.75-4.31.81-4.31.81-4.31.81-4.31.81-4.26,2.76-.29,2.82-.23,2.88-.29,2.93-.17,2.99-.17,3.05-.11,3.16-.06,3.22.06.06.17.11.23.11.35.17.52.17.81.29,1.15.29,1.55.4,2.07.52,2.59.63,3.22.75,3.91.92,4.66,1.04,5.58,1.27,6.44,1.38,7.42,1.61,8.51.81,6.38.75,6.44.69,6.44.69,6.44.58,6.44.58,6.44.46,6.44.46,6.44.46,6.44.35,6.44.35,6.44.35,6.44.52,12.88.4,12.94.35,12.94.23,12.94.17,13,.11,13,.11,13,.06,13.05.11,13.05.06,13.05h-14.89v13.8h-30.71v-1.72Z"/>
    <path class="cls-1" d="m1230.09,849.03v-8.8l.06-8.74v-8.68l.06-8.68.06-8.68.06-8.68.11-8.63.11-8.68.17-8.63.17-8.63.17-8.63.23-8.63.23-8.57.29-8.63.35-8.63.4-5.29.4-5.29.46-5.29.46-5.23.52-5.23.52-5.18.52-5.18.58-5.18.63-5.18.58-5.12.69-5.12.63-5.18.69-5.12.69-5.18.69-5.12.75-5.18.63-2.93.63-2.93.63-2.93.58-2.93.63-2.93.63-2.93.63-2.88.63-2.93.63-2.93.63-2.93.63-2.93.63-2.88.63-2.93.63-2.93.63-2.88.69-2.93.52.11.52.17.46.23.52.23,1.04.69,1.04.81,2.07,1.84,2.13,2.01,1.61.92,2.24,1.32.52.4.58.4.52.4.46.46.4.46.35.46.23.52.17.52h.69l-.06,1.38-.06,1.38-.17,1.44-.17,1.44-.4,2.88-.46,2.93-.58,2.93-.58,2.99-.63,2.93-.58,2.99-1.04,7.3-.98,6.38-.81,5.64-.75,5-.63,4.37-.52,3.91-.52,3.51-.46,3.22-.4,2.99-.4,2.93-.4,2.93-.4,3.05-.4,3.22-.4,3.51-.52,3.91-.52,4.43-.4,10.35-.4,10.35-.29,10.35-.35,10.35-.29,10.41-.23,10.41-.23,10.41-.23,10.41-.17,10.47-.17,10.41-.17,10.47-.17,10.47-.11,10.52-.11,10.47-.11,10.52-.11,10.52h-21.05v-8.74Z"/>
    <path class="cls-1" d="m1321.46,845.35v-12.13l-.06-12.08-.11-12.08-.11-12.08-.17-12.08-.23-12.08-.23-12.02-.35-12.02-.46-12.02-.52-12.02-.63-11.96-.35-5.98-.4-5.98-.4-5.92-.46-5.98-.46-5.98-.52-5.92-.58-5.92-.58-5.98-1.04-6.33-.75-4.89-.63-3.8-.46-3.16-.4-2.82-.4-2.82-.4-3.22-.52-3.97,1.32,1.96,1.15,1.61.58.69.52.69.58.58.58.52.63.57.63.46.75.52.81.58,1.9,1.09,2.3,1.32,1.5.23,1.44.23,1.5.23,1.44.23,1.5.23,1.5.29,1.5.23,1.5.29.17,1.73.17,1.5.11,1.55.11,1.9.11,2.41.17,3.28.17,4.31.23,5.69.52,5.58.52,5.58.52,5.52.52,5.58.52,5.58.52,5.58.58,5.58.52,5.52.52,5.58.58,5.58.52,5.58.52,5.58.58,5.58.52,5.58.52,5.58.58,5.58.23,6.15.29,6.15.29,6.21.23,6.15.23,6.15.23,6.15.23,6.15.23,6.21.17,6.21.17,6.15.17,6.27.17,6.21.17,6.21.11,6.27.17,6.33.11,6.27h-25.3l-.06-12.08Z"/>
    <path class="cls-1" d="m1271.38,596.09l-1.78-.98-1.67-.98-1.61-1.04-1.44-.98-1.38-1.04-1.32-1.04-1.27-1.04-1.21-1.09-1.15-1.15-1.15-1.15-1.09-1.21-1.15-1.32-1.09-1.32-1.09-1.38-1.15-1.5-.06-2.7-.06-3.05v-1.55l.06-1.61.06-1.55.11-1.61.17-1.55.23-1.55.29-1.5.4-1.38.23-.63.23-.69.29-.58.29-.63.35-.52.35-.58.4-.46.46-.46.92-.23.98-.23.98-.17,1.04-.17-.06-.81-.06-.63-.06-.58-.06-.52-.29-.86-.29-.75-2.47-1.15-2.53-1.15-2.59-1.21-2.65-1.21-2.65-1.15-2.7-1.15-2.76-1.09-2.7-1.04-1.38-.46-1.38-.4-1.38-.4-1.38-.35-1.38-.35-1.38-.23-1.38-.29-1.32-.17-1.38-.11-1.32-.06-1.38-.06-1.32.06-1.32.11-1.32.17-1.27.23-1.32.29-2.47,1.32-2.53,1.32-2.59,1.32-2.59,1.27-2.59,1.21-2.59,1.09-2.53.98-2.53.92.69-5.29.63-5.12.58-5.06.46-4.95.17-2.47.17-2.42.06-2.41.06-2.47v-2.42l-.06-2.41-.17-2.42-.17-2.42-1.04-2.7-.75-2.01-.58-1.5-.4-1.15-.29-.86-.23-.69-.11-.69-.17-.75,3.57-.06,3.51-.06,3.62-.11,3.57-.11,3.62-.06,3.57-.11,3.62-.06,3.62-.11h10.93l3.62.06,3.62.11,3.68.17,3.62.29,3.62.29,1.09,2.07,1.15,2.07,1.21,2.07,1.27,2.07,1.38,2.01,1.5,1.96.75.98.81.92.86.92.81.92.92.86.92.81.92.81.98.75.98.75,1.04.69,1.09.63,1.09.63,1.15.52,1.15.52,1.21.46,1.27.4,1.32.35,1.32.29,1.32.23,1.44.11,3.74-.35,3.57-.4,1.73-.23,1.73-.29,1.73-.35,1.67-.35,1.67-.46,1.67-.52,1.67-.63,1.67-.69,1.67-.81,1.61-.92,1.67-1.09,1.67-1.15,1.73-1.78,1.61-1.67.81-.92.81-.86.81-.98.81-1.04.52-1.15.58-1.15.52-1.15.52-1.15.58-1.15.58-1.09.52-1.15.58-1.09,1.61-.06,1.61-.06h1.55l1.61-.06,1.61-.06,1.55-.06h1.61l1.61-.06,1.38.4,1.38.35,1.44.4,1.38.4,1.44.4,1.38.35,1.44.4,1.44.4,1.78.92,1.78.92,1.73,1.04,1.73.98,1.67,1.09,1.67,1.09,1.67,1.09,1.67,1.15,3.34,2.42,3.34,2.59,3.34,2.7,3.39,2.82,1.44,1.5,1.78,1.73,2.01,1.9,2.19,2.01,2.13,2.13,2.01,2.13.92,1.04.86,1.09.75,1.04.63.98-.11.29-.23.29-.23.35-.29.35-.75.81-.92.81-1.09.86-1.15.92-1.27.98-1.32.92-2.65,1.84-2.47,1.67-2.07,1.38-1.44.98-1.5,1.38-2.36,2.24-2.99,2.82-3.28,2.99-1.67,1.44-1.61,1.44-1.55,1.27-1.38,1.21-1.27.92-1.09.75-.46.29-.35.23-.35.11h-.23l-.98-1.21-.92-1.21-.98-1.15-.92-1.21-1.61-3.34-1.5-2.88-.81-1.38-.75-1.27-.81-1.15-.81-1.15-.81-1.09-.92-1.04-.92-.98-1.04-.98-1.09-.92-1.09-.92-1.27-.92-1.32-.86-3.22,1.84-1.9,1.09-1.32.92-1.5,1.09-1.96.75-1.96.69-.92.4-.92.35-.86.4-.86.4-.81.46-.75.46-.69.58-.69.63-.58.69-.52.75-.4.86-.4.98.81.69.98.69.58.4.63.35.75.4.86.46.58,1.15.58,1.27.52,1.27.46,1.27.4,1.27.35,1.32.35,1.38.23,1.32.23,1.38.17,1.38.06,1.44.06,1.38-.06,1.44-.06,1.44-.17,1.44-.23,1.44-1.15.98-1.15.92-1.15.98-1.15.98-1.15.98-1.15,1.04-1.15.98-1.15.98-2.42,1.27-2.3,1.15-2.24,1.04-2.19.81-2.13.75-2.07.63-2.07.52-2.07.46-2.13.35-2.13.35-2.19.23-2.24.23-4.77.4-5.23.35-1.9-.98Z"/>
  </g>
  <path class="cls-4" d="m1325.2,639.79l-1.61-.92-1.5-.92-1.44-1.04-.63-.46-.63-.52-.58-.58-.52-.52-.52-.58-.46-.58-.46-.58-.35-.58-.4-.63-.29-.63-.23-.63-.23-.69-.17-.69-.11-.69-.06-.75-.06-.75.06-.75.11-.81.11-.81.17-.81.29-.86.29-.86.4-.92.4-.92,1.67-.4,1.61-.46,1.67-.4,1.61-.4,1.67-.46,1.61-.4,1.61-.4,1.67-.4.17-.4.11-.35.11-.4.11-.4.06-.75-.06-.75-.11-.69-.17-.75-.29-.69-.35-.69-.69-1.32-.75-1.32-.35-.69-.35-.63-.23-.63-.23-.63,1.73-.23,1.78-.29,1.78-.29,1.9-.35,1.9-.46,1.9-.46,1.96-.63,2.01-.63,2.19-2.76,2.24-2.7,2.3-2.65,2.3-2.7,2.36-2.59,2.36-2.59,2.42-2.59,2.42-2.47,1.73-1.27,2.01-1.38,1.04-.75,1.09-.81,1.09-.86,1.04-.86.98-.86.86-.98.4-.46.4-.46.35-.52.35-.46.29-.52.23-.52.23-.52.11-.52.11-.52.06-.57v-.52l-.06-.58-1.61-.23-1.44-.23-1.38-.35-1.27-.35-1.15-.35-1.15-.46-1.09-.46-1.15-.58-.06-.46-.11-.46v-.46l-.06-.4,2.19-2.36,2.42-2.53,1.32-1.32,1.32-1.32,1.44-1.27,1.44-1.27,1.44-1.21,1.55-1.15,1.5-1.04,1.55-.98.81-.4.81-.4.81-.4.75-.35.81-.29.81-.23.81-.23.81-.17,2.82,2.59,2.88,2.47,2.82,2.42,2.76,2.53,1.32,1.27,1.32,1.38,1.27,1.38,1.21,1.5,1.21,1.55,1.15,1.67,1.09,1.78,1.04,1.84-.06.63-.11.58-.11.58-.17.58-.4,1.09-.52,1.09-.58,1.04-.69.98-.75.98-.81.92-.81.92-.92.81-.86.86-.98.81-1.84,1.5-1.84,1.38-1.09,1.38-.98,1.15-1.38,1.44-2.42,2.36-2.88,2.42-2.93,2.36-2.99,2.3-2.99,2.3-2.99,2.24-3.05,2.24-2.99,2.24-3.05,2.3-2.99,2.24-2.93,2.36-2.93,2.36-2.88,2.42-2.82,2.47-2.7,2.53-1.32,1.32-1.32,1.32-1.27,1.32-1.27,1.38-.81,1.73-.69,1.55-.69,1.38-.63,1.21-.63,1.04-.63.92-.63.86-.75.69-.75.63-.86.52-.98.52-1.09.46-1.27.46-1.38.4-1.61.4-1.78.46-1.73-.92Z"/>
  <path class="cls-4" d="m1158.85,531.92l-1.5-.52-.46-.17-.4-.23-.4-.23-.4-.35-.23-.46-.23-.52-.23-.58-.17-.63-.29-1.32-.17-1.44-.17-1.55-.06-1.67v-3.39l.11-3.51.23-3.28.17-2.99.11-2.42.46-4.95.46-4.95.52-4.95.46-4.95.52-4.89.46-4.95.52-4.89.52-4.89-.35-4.31-.4-4.2-.35-4.03-.29-3.97-.06-1.96-.06-1.9v-1.96l.11-1.9.17-1.9.23-1.9.29-1.9.46-1.96h6.73l2.19-.12,1.09-.12,1.15-.12,1.09-.12,1.15-.23,1.15-.17,1.15-.29,1.15-.29,1.15-.4.69-.92.58-.75.52-.75.52-.86.58-.98.75-1.32.92-1.78,1.21-2.24h.81l.46,2.42.29,1.9.29,1.5.29,1.32.23,1.21.35,1.32.4,1.5.46,1.9-.11.86-.23.86-.35.81-.4.86-.92,1.67-1.09,1.84-.4.17-.4.23-.4.35-.35.46-.35.52-.35.58-.29.63-.29.69-.29.81-.23.81-.23.86-.23.86-.4,1.9-.35,2.01-.23,2.01-.23,2.01-.23,2.01-.11,1.9-.17,3.28-.11,2.42.86,4.66.92,4.6.4,2.3.4,2.24.4,2.3.29,2.3.23,2.3.17,2.36.06,2.36v2.42l-.06,1.21-.11,1.21-.11,1.27-.17,1.21-.17,1.27-.23,1.32-.23,1.27-.35,1.32.06,1.38.06,1.44.06,1.44.06,1.5.63-.11.69-.06.63-.11.69-.06.86-2.19.86-2.13.86-2.13.86-2.07,1.04-.06,1.04-.06h2.19l1.21,2.99,1.27,3.34.58,1.78.58,1.9.52,1.9.46,1.9.4,1.96.23,1.96.11.98.06.98v1.95l-.06.98-.06.92-.11.92-.23.92-.17.92-.29.92-.35.86-.35.86-4.03.11-4.08.06-4.03.11-3.97.06-4.03.11-4.03.06-4.03.11-3.97.06-2.7-.8Z"/>
  <path class="cls-4" d="m1282.82,519.5l-2.3-.69-2.3-.69-2.19-.81-1.09-.4-1.04-.4-.98-.46-1.04-.52-.98-.46-.92-.57-.92-.52-.86-.58-.86-.63-.86-.63-.75-.69-.75-.69-.75-.75-.69-.81-.63-.81-.58-.86-.58-.92-.52-.92-.46-.98-.4-1.04-.4-1.09-.35-1.09-.23-1.21-.23-1.21,1.67-.35,1.32-.17h1.09l.46.06.52.06.46.17.52.17.58.23.58.23,1.38.75,1.73.92h.92l.46.06.46.06.23-1.04.11-.98.11-1.03.11-1.27.11-1.73.11-2.42.17-3.22.17-4.2.81.52.81.4.81.4.81.34.81.35.81.29.81.23.86.23.81.17.81.11.86.11.81.11,1.67.06h1.73l1.73-.11,1.73-.17,1.78-.23,1.78-.29,3.68-.69,3.85-.81.11,2.99.11,2.36.11,1.84.11,1.5.11,1.38.17,1.32.17,1.61.23,1.96h.75l.86.06.86.06.86.11.17-.98.17-.92.17-.92.29-.86,1.9.17,1.9.17,1.9.17,1.96.17-.52,1.96-.63,1.84-.29.86-.35.81-.35.75-.4.75-.35.69-.4.69-.46.69-.46.58-.46.63-.46.58-.52.52-.52.58-1.15.98-1.21.98-1.32.86-1.38.86-1.55.86-1.61.81-1.78.86-1.84.81-1.27.35-1.27.29-1.21.29-1.27.35-1.21.29-1.27.35-1.21.35-1.21.29-2.41-.57Z"/>
  <path class="cls-4" d="m1279.49,483.9l-1.44-.98-1.27-1.09-1.21-1.15-1.09-1.21-1.04-1.27-.92-1.32-.81-1.38-.75-1.38-.69-1.44-.58-1.5-.52-1.55-.46-1.55-.35-1.61-.29-1.61-.23-1.67-.23-1.61-.11-1.67-.06-1.67v-1.73l.06-1.67.06-1.67.11-1.67.17-1.67.23-1.67.23-1.61.29-1.61.29-1.55.63-3.11.75-2.93.52-.86.52-.86.58-.81.63-.75.58-.69.63-.69.69-.63.69-.58.69-.52.75-.52.75-.46.75-.4.75-.35.81-.35.86-.29.81-.23.86-.17.86-.12.86-.12.86-.06h.92l.92.06.92.12.92.12.92.17.98.23.92.29.98.35.92.4.98.4.98.46.98.52.98,1.21.98,1.21.92,1.27.81,1.32.81,1.32.69,1.38.63,1.38.58,1.44.58,1.5.46,1.5.4,1.5.35,1.55.29,1.55.23,1.55.17,1.61.11,1.61.06,1.61.06,1.61-.06,1.61-.11,1.61-.11,1.67-.23,1.61-.23,1.61-.35,1.61-.35,1.61-.4,1.55-.46,1.61-.52,1.55-.52,1.5-.63,1.55-.63,1.5-.69,1.44-1.09,1.09-1.04.98-1.04.75-1.04.69-1.09.52-1.09.4-1.09.34-1.09.23-1.15.23-1.21.11-1.21.06-1.21.06-2.65.06-2.88.11-1.5-.92Z"/>
  <path class="cls-2" d="m1309.62,461.02c-.35-9.37-1.88-18.82-5.73-27.42-.76-1.55-1.43-3.26-2.35-4.67-2.25-.95-4.44-2.15-6.72-2.97-6.01-.9-12.28-1.74-18.22.02-4.83,1.36-8.42,5.42-10.23,9.97-1.3,3.01-2.11,6.23-2.59,9.47-.41,5.75-.82,11.51-1.2,17.27-2.48-.27-5.31-1.22-6.22-3.8-.75-2.36-.65-4.93-.41-7.36,1.68-7.68,2.7-15.5,4.57-23.14,1.41-3.35,3.57-6.29,5.51-9.34,8.69-2.67,17.65-5.04,26.81-4.83,4.45.15,8.9.89,13.09,2.42,3.56,6.22,6.85,12.63,9.13,19.45,2.06,6.34,3.47,13.19,2.09,19.82-.35,1.49-.77,3.05-1.51,4.35-1.84,1.34-3.8,2.53-5.97,3.24-.02-.82-.04-1.65-.06-2.47h0Z"/>
  <path class="cls-3" d="m1284.32,478.9c-.04-.43-.08-.86-.11-1.29v-.61c.11-.08.22-.18.35-.23.08-.05.17-.07.26-.09.11-.04.23-.01.35-.02.24.04.48.08.72.12.28.08.56.15.85.23,0,.25,0,.51,0,.76.04.24.07.49.11.73-.27.21-.54.42-.82.62-.06.04-.11.09-.19.1-.18.05-.36.12-.55.16-.29.05-.58.11-.87.16-.04-.21-.08-.42-.11-.63h0Z"/>
  <path class="cls-3" d="m1286.56,474.7c-.65-.22-1.29-.46-1.98-.54-.52-.11-1.05-.13-1.57-.15-1.06.03-2.12.07-3.18.11.09-.38.14-.76.18-1.14.09-.34.13-.69.16-1.04.43-.18.84-.4,1.25-.59.44-.11.87-.26,1.32-.34.61-.05,1.21-.13,1.83-.11.42,0,.84,0,1.25.07,1.22.14,2.43.34,3.64.58.62.11,1.25.18,1.87.27-.09.44-.15.88-.17,1.32-.09.44-.15.88-.17,1.32-1.3.14-2.61.3-3.91.46-.17-.08-.35-.15-.52-.23h0Z"/>
  <path class="cls-3" d="m1283.4,466.37c-.52-.32-1.06-.62-1.56-.98-.22-.19-.44-.36-.59-.61-.2-.22-.26-.51-.38-.77-.05-.52-.08-1.03-.11-1.55.15-.12.29-.26.49-.3.23-.09.49-.03.74-.05h.96c.26.37.48.75.69,1.15.4.05.81.07,1.22.06.5.03.99-.11,1.47-.25.39-.14.76-.32,1.13-.51.47-.17.94-.36,1.44-.4.32-.05.64-.06.96-.05.11.47.23.94.28,1.42-.03.32-.04.65-.15.96-.06.21-.18.41-.29.6-.13.18-.24.38-.44.49-.32.22-.62.47-.97.62-.56.25-1.18.34-1.77.46-.68.12-1.35.21-2.04.27-.18-.06-.35-.19-.53-.27-.18-.1-.36-.2-.54-.3h0Z"/>
  <path class="cls-3" d="m1274.14,453.31c-.6-.5-1.22-1-1.89-1.4-.47-.29-.91-.64-1.42-.86-.14-.07-.29-.14-.43-.22-.03-.38-.07-.77-.11-1.15.65-.29,1.29-.61,1.98-.83.85-.3,1.69-.62,2.57-.81.91-.22,1.85-.34,2.78-.37.43.07.87.1,1.29.19.25.13.52.19.76.31.32.22.66.4.91.7.19.17.36.37.47.6.21.33.38.69.49,1.07.12.31.18.64.25.97-.67.11-1.34.24-2,.44-.87.32-1.74.66-2.57,1.07-.7.31-1.41.61-2.17.76-.17.1-.29-.06-.42-.14-.16-.11-.33-.23-.49-.34h0Z"/>
  <path class="cls-3" d="m1293.92,453.37c-.6-.33-1.22-.63-1.81-.98-.37-.27-.74-.54-1.14-.76-.51-.38-.91-.88-1.22-1.44-.12-.23-.16-.48-.14-.73.39-.25.8-.46,1.23-.64.43-.21.88-.41,1.34-.54.7-.24,1.43-.38,2.16-.51.45-.09.9-.18,1.36-.18.47-.04.95.02,1.42.06.4.05.8.1,1.19.23.53.11.96.45,1.37.77.17.1.34.22.42.4.18.29.4.57.56.87.12.46.23.92.33,1.39-1.49.7-2.97,1.4-4.51,1.99-.56.21-1.14.36-1.7.54-.29-.15-.57-.31-.86-.46h0Z"/>
  <path class="cls-3" d="m1270.92,446.41c-.17-.17-.35-.35-.52-.52.09-.34.14-.68.19-1.03.09-.26.13-.54.16-.81,1.35-.31,2.7-.61,4.07-.81.77-.05,1.54-.14,2.31-.16.68-.02,1.36.07,2.04.12.71.18,1.43.28,2.12.52.32.1.64.22.96.33,0,.48.04.98-.09,1.45-.05.22-.23.35-.37.51-.89,0-1.78,0-2.66.05-.75.03-1.51-.03-2.26.07-1.03.09-2.07.18-3.09.34-.61.09-1.22.16-1.81.33-.17.04-.35.09-.52.13-.17-.17-.34-.35-.52-.52h0Z"/>
  <path class="cls-3" d="m1298.29,446.7c-.79-.2-1.59-.33-2.4-.42-1.25-.12-2.51-.17-3.77-.15-.89,0-1.79.02-2.68-.01-.33-.03-.66-.07-.98-.1.02-.4.13-.78.19-1.17.02-.27.09-.53.16-.79.82-.22,1.63-.43,2.47-.58.63-.12,1.26-.22,1.89-.29.74-.05,1.48-.13,2.22-.15.8.06,1.61.1,2.41.18.98.22,1.97.37,2.91.71.12.08.39.04.41.21.03.51.2,1.01.21,1.53.02.23.09.46.13.69-.79.13-1.57.3-2.33.55-.18.05-.37-.09-.55-.12-.09-.03-.19-.06-.28-.09h0Z"/>
  <g>
    <path class="cls-9" d="m1292.14,1007.56v-49.85c4.66.56,9.24,1.65,13.72,3.04,1.54.51,3.09,1.03,4.62,1.56.1,5.44.1,10.87.14,16.31.06,4.27.03,8.54.09,12.81.07,4.98.05,9.97.11,14.95v4.52h-18.69c0-1.11,0-2.22,0-3.33h0Z"/>
    <path class="cls-9" d="m1327.62,599.65l-.63-.92-.63-.92-.46-.98-.4-1.04-.35-1.04-.29-1.04-.23-1.04-.17-1.04-.11-1.04-.06-1.09-.06-.98-.11-2.01-.06-1.9.98-4.2.92-4.14.98-4.2.92-4.2.98-4.14.98-4.2.98-4.2.98-4.14.4-.11.46-.06.46-.11.52-.06.46.4.46.46.46.58.46.63.86,1.44.92,1.61,1.84,3.62,1.9,3.8,1.04,1.84,1.09,1.78.58.86.58.81.58.75.63.69.63.63.63.58.69.46.69.46.69.29.75.29.75.11.81.06.75-.92.69-.81.69-.69.69-.63.69-.46.63-.35.35-.11.29-.06.35-.11h.98l.29.11.35.06.69.29.69.46.75.52.75.69.81.86.81.92-1.73,1.78-1.78,1.78-1.78,1.78-1.78,1.73-1.73,1.78-1.78,1.78-1.78,1.84-1.73,1.78-2.7,3.22-2.19,2.59-.98,1.09-.92.98-.92.86-.92.81-.98.63-1.04.63-1.15.52-1.27.46-1.38.46-1.55.4-1.78.4-2.01.4-.81-.86Z"/>
    <path class="cls-9" d="m1267.53,1215.83c-13.9-1.43-27.79-2.88-41.69-4.31v-184.58h14.95v9.66h16.1v-9.66h19.15v9.66h16.1v-9.66h18.69v9.2h16.45v-9.2h14.95c-.14,61.41-.26,122.82-.34,184.23-23.95,2.32-48,3.8-72.03,4.9-.77-.08-1.55-.16-2.32-.24Z"/>
    <path class="cls-9" d="m955.47,1035.1l-2.42-3.8-2.36-3.8-2.36-3.8-2.24-3.85-2.24-3.8-2.19-3.85-2.13-3.8-2.13-3.85-2.07-3.85-2.07-3.8-2.01-3.85-1.96-3.8-1.96-3.85-1.9-3.8-1.9-3.85-1.61-3.85-1.55-3.85-1.5-3.85-1.5-3.85-1.44-3.85-1.44-3.85-1.44-3.8-1.38-3.85-1.32-3.85-1.27-3.85-1.27-3.85-1.27-3.8-1.15-3.85-1.15-3.8-1.15-3.85-1.09-3.8-1.15-5.06-1.09-5.06-1.04-5.06-.92-5-.92-5-.86-5-.81-4.95-.75-5-.69-4.95-.63-5-.58-4.95-.52-5-.46-5-.4-5-.35-5-.29-5-.06-32.03v-96.08l-.06-32.03v-352.13h785.59v64l-.06,32.03v31.97l-.06,32.03v96.03l-.06,32.03v96.08l-.06,32.03v96.08l-.23,3.97-.23,3.97-.29,3.97-.34,3.97-.4,3.97-.34,3.91-.46,3.97-.46,3.97-.52,3.91-.52,3.97-.58,3.97-.58,3.97-.63,4.03-.69,3.97-.69,4.08-.75,4.03-.63,2.76-.63,2.7-.69,2.76-.69,2.76-.69,2.76-.69,2.82-.75,2.76-.75,2.82-.81,2.82-.8,2.82-.8,2.82-.81,2.87-.8,2.82-.86,2.82-.86,2.88-.86,2.82-1.61,4.43-1.67,4.37-1.73,4.31-1.78,4.37-1.84,4.26-1.84,4.31-1.9,4.26-1.96,4.26-1.96,4.26-2.01,4.26-2.07,4.2-2.13,4.2-2.13,4.26-2.19,4.2-2.24,4.2-2.24,4.26-1.9,2.93-1.84,2.99-1.9,2.99-1.9,2.93-1.9,2.99-1.84,2.99-1.9,2.99-1.84,2.93-.06-7.94-.06-7.99v-7.94l-.06-7.99-.06-7.99-.06-7.94v-7.99l-.06-7.94-.06-7.99v-7.94l-.06-7.94v-7.99l-.06-7.94v-7.99l-.06-7.94v-7.94l1.55-.06h1.55l1.55-.06h7.88v-51.46l-.81-.11-.75-.06-.81-.11h-1.04l-1.5-.06-2.07-.06h-2.76l-3.62-.06v-62.5h1.61l1.55-.06h6.44l1.61-.06h1.67v-51.41l-.98-.11-.98-.11-1.44-.06-2.19-.06-3.34-.11-4.72-.06-6.5-.06-8.63-.11-5.12-5.64-5.06-5.58-5.12-5.58-5.12-5.64-5.12-5.58-5.06-5.58-5.12-5.58-5.12-5.58-5.12-5.58-5.06-5.58-5.12-5.58-5.12-5.58-5.12-5.58-5.12-5.58-5.06-5.58-5.12-5.58-.46-.17-.35-.06-5.12,5.52-5.12,5.58-5.06,5.52-5.12,5.58-5.12,5.58-5.12,5.52-5.06,5.58-5.12,5.58-5.12,5.52-5.12,5.58-5.06,5.52-5.12,5.58-5.12,5.58-5.12,5.52-5.06,5.58-5.12,5.58-9.14.34-6.84.23-4.95.23-3.39.11-2.13.11-1.27.11-.75.11-.52.11v51.41h1.55l1.55.06h6.27l1.61.06h1.55v62.5l-6.04.06h-4.66l-3.39.06-2.47.06h-1.78l-1.32.11-1.21.06-1.27.11v13.34h-20.7l-.06-1.67v-3.39l-.06-1.67v-6.61l-.92-.11-.86-.06-.98-.11h-1.27l-1.73-.06-2.36-.06h-3.28l-4.26-.06-.11-5.46-.11-5.46-.11-5.52-.11-5.46-.17-5.46-.11-5.46-.17-5.46-.17-5.46-.11-5.46-.23-5.41-.17-5.41-.23-5.35-.23-5.35-.23-5.35-.23-5.29-.29-5.23-.63-7.3-.58-7.3-.63-7.3-.58-7.3-.63-7.3-.58-7.3-.63-7.3-.58-7.25-.63-7.3-.58-7.3-.63-7.3-.58-7.3-.63-7.25-.58-7.3-.63-7.3-.58-7.25v-1.61l.06-1.61.06-1.55.06-1.61v-1.61l.06-1.55.06-1.55.06-1.55,1.61-3.05,1.55-2.76.81-1.32.75-1.27.81-1.21.81-1.21.86-1.21.92-1.15.92-1.15.98-1.15,1.04-1.15,1.15-1.15,1.21-1.15,1.27-1.21,2.65-1.96,2.65-2.01,2.65-2.01,2.65-2.07,2.65-2.07,2.65-2.13,2.65-2.13,2.65-2.13,2.65-2.13,2.65-2.13,2.65-2.13,2.65-2.13,2.7-2.07,2.65-2.07,2.65-2.01,2.65-2.01,2.07-1.9,2.07-1.96,2.01-2.07,1.96-2.07.92-1.09.92-1.04.86-1.09.86-1.09.81-1.15.75-1.09.69-1.09.69-1.15-.17-1.38-.23-1.38-.29-1.27-.35-1.21-.4-1.21-.46-1.09-.58-1.09-.58-.98-.58-.98-.69-.92-.69-.92-.75-.86-.75-.81-.81-.81-.81-.81-.81-.81-3.39-2.93-3.39-2.99-.86-.75-.81-.81-.75-.81-.75-.81-.69-.86-.69-.92-.63-.92-.58-.98.63-.58.52-.63.4-.63.29-.63.17-.69.06-.63-.06-.69-.11-.69-.17-.69-.29-.69-.35-.63-.4-.69-.46-.69-.52-.69-.52-.63-.63-.69-1.27-1.27-1.38-1.21-1.38-1.15-1.32-1.09-2.47-1.78-1.67-1.32-4.37-4.37-4.2-4.2-2.13-1.96-2.07-1.9-2.07-1.84-2.13-1.73-2.19-1.67-2.19-1.61-1.15-.75-1.15-.75-1.15-.69-1.21-.75-1.21-.63-1.21-.63-1.27-.63-1.27-.63-1.32-.58-1.38-.52-1.38-.52-1.38-.52-2.47-.52-2.42-.46-2.47-.46-2.42-.34-4.89-.69-4.89-.58-4.83-.58-4.77-.63-2.3-.34-2.36-.35-2.3-.46-2.24-.46.11-2.93.29-2.82.35-2.76.4-2.76.52-2.65.58-2.65.69-2.65.69-2.59,1.78-.52,1.55-.58,1.44-.58,1.21-.69.58-.34.58-.35.46-.34.46-.4.46-.4.4-.46.4-.4.35-.46.69-.98.58-1.09.52-1.09.46-1.27.46-1.32.4-1.44.4-1.55.4-1.61v-1.38l-.06-1.44-.11-1.5-.11-1.55-.17-1.55-.23-1.61-.23-1.61-.29-1.67-.35-1.67-.4-1.67-.4-1.67-.4-1.73-.52-1.67-.52-1.67-.58-1.61-.63-1.61-.63-1.61-.69-1.5-.69-1.55-.81-1.44-.81-1.38-.86-1.38-.86-1.27-.92-1.21-.98-1.15-1.04-1.04-1.04-.98-1.09-.86-1.15-.81-1.15-.69-1.27-.52-1.21-.46-2.42-.35-2.3-.23-2.36-.12-2.24-.06h-2.3l-2.24.12-2.24.17-2.24.17-2.19.29-2.19.29-2.24.35-2.19.4-4.49.81-4.49.92-1.67,1.38-1.44,1.32-1.32,1.27-1.09,1.21-1.04,1.15-.86,1.15-.75,1.21-.69,1.21-.58,1.27-.58,1.38-.52,1.44-.46,1.55-.98,3.51-1.09,4.14-.75,3.74-.81,3.97-.46,2.01-.35,2.01-.29,2.07-.17,2.01-.06,1.04v.98l.06.98.06.98.11.98.17.92.23.98.29.92.35.86.4.86.46.86.52.81.63.81.69.81.81.69.86.75,1.44.52,1.55.57,1.55.58,1.5.63.75,1.38.63,1.38.58,1.44.46,1.44.4,1.5.35,1.5.29,1.5.23,1.5.17,1.55.17,1.61.11,1.55.11,1.67.11,3.28.11,3.39-4.95.17-5,.11-5,.11-4.95.06-4.95.06h-4.95l-4.95.06-4.95.06-4.89.06-4.89.06-4.89.11-4.83.17-4.83.17-4.77.29-4.77.29-4.77.4-.52.35-.52.34-.52-2.82-.52-2.88-.58-2.88-.52-2.93-.52-2.88-.52-2.93-.46-2.93-.35-2.93-.29-2.88-.23-2.93-.06-1.44v-4.26l.06-1.44.11-1.38.17-1.38.17-1.38.23-1.38.23-1.38.35-1.38.35-1.32.58-1.21.63-1.09.63-1.09.69-.92.69-.92.75-.86.81-.81.81-.75.86-.75.86-.69.92-.63.98-.69,2.07-1.27,2.19-1.32,2.01-2.01,2.01-1.9,2.01-1.73,2.01-1.61,2.07-1.55,2.19-1.5,2.24-1.5,2.47-1.5.35-1.04.35-1.04.29-.98.17-.98.35-1.84.17-1.61.86-2.36.81-2.3.86-2.36.86-2.24.52-1.09.52-1.09.52-1.04.58-1.04.58-1.04.69-.98.69-.92.69-.92.52-.17.46-.23.4-.23.35-.29.29-.35.29-.29.17-.35.17-.4.17-.75.11-.86.06-.86v-.86l-.63-.35-.58-.4-.52-.4-.46-.4-.46-.46-.4-.4-.4-.46-.29-.52-.35-.46-.23-.52-.23-.52-.23-.52-.35-1.09-.29-1.09-.23-1.15-.11-1.15-.17-1.21-.06-1.21-.11-1.21-.11-1.21-.11-1.21-.23-1.15v-1.9l-.06-1.84-.06-1.84v-1.84l-.06-1.84v-1.9l-.06-1.84v-1.84l-1.61-.4-1.67-.4-1.61-.35-1.61-.35-2.7-3.11-2.13-2.42-1.55-1.9-1.27-1.44-1.04-1.32-.98-1.21-1.04-1.38-1.27-1.73-.52-1.61-.4-1.21-.29-1.04-.35-.86-.29-.81-.35-.92-.46-1.04-.58-1.38-1.32.4-1.32.46-1.32.52-1.27.46-1.21.46-1.21.35-.58.17-.52.11-.52.06h-.52l-1.32-.86-1.38-.81-1.38-.75-1.44-.69-1.44-.69-1.44-.58-1.5-.58-1.44-.58-2.93-1.04-2.88-1.04-1.38-.58-1.38-.58-1.32-.58-1.27-.63h-1.15l-.86.06-.69.11-.46.17-.4.17-.23.23-.11.29-.11.35-.06.75-.17.98-.17.52-.29.52-.4.63-.52.58-2.19.69-2.13.63-2.19.69-2.13.69-2.19.69-2.13.63-2.13.69-2.19.69-1.9-.06-1.96-.11-1.96-.11h-1.84l-.86.06-.86.11-.81.23-.75.23-.35.17-.35.17-.35.23-.29.23-.29.29-.29.29-.29.35-.23.35v.81l-.11.81-.11.81-.17.86-.23.81-.29.81-.35.86-.35.81-.4.86-.4.81-.46.86-.52.81-1.09,1.67-1.15,1.67-1.21,1.61-1.32,1.55-1.27,1.55-1.38,1.5-2.59,2.82-2.42,2.59-1.15.69-.92.58-.75.46-.58.52-.23.23-.23.35-.17.35-.11.4-.11.46-.06.52-.06.58v.75l.69.46.86.58.46.29.63.23.63.23.75.17-.4,3.22-.46,3.16-.46,3.16-.63,3.16-.35,1.55-.4,1.55-.4,1.61-.52,1.55-.52,1.61-.58,1.61-.69,1.61-.69,1.67-.11.69-.06.69-.06.69v.69l.75.4.75.29.75.17.86.17,1.84.12,2.19.12.23,1.09.23,1.09.35,1.04.35,1.04.35,1.04.46,1.04.46,1.04.46.98.52,1.04.58.98.58,1.04.63,1.04,1.38,2.01,1.5,2.13.17,1.67.17,1.78.11.86.11.92.11.86.17.92.23.86.35.86.35.81.46.86.58.81.63.75.81.75.86.69,1.04-.58,1.04-.63,1.04-.58,1.04-.63.86.52.98.58,1.04.75,1.09.86,1.15.92,1.21.92,1.27.92,1.27.86,1.09.29,1.09.23,1.04.29,1.09.23,1.09.29,1.04.23,1.09.29,1.09.23.35,2.53.35,2.59.35,2.53.35,2.59.35,2.59.4,2.59.35,2.59.4,2.59-.17,4.26-.29,4.31-.29,4.37-.4,4.31-.4,4.37-.4,4.31-.4,4.37-.4,4.37-.35,4.43-.29,4.37-.17,4.43-.11,4.37v4.43l.06,2.19.11,2.24.11,2.19.17,2.19.17,2.24.29,2.19.52.81.46.75.52.69.52.58.52.52.58.46.58.4.63.35.63.29.69.23.75.23.81.23,1.78.29,2.07.29,3.8.11,3.85.06,3.85.11,3.8.06,3.85.11,3.85.06,3.8.11,3.85.06-.58,2.76-.69,2.99-.75,3.05-.75,2.93-.69,2.7-.58,2.3-.4,1.73-.17.98,1.09-.06,1.15-.06,1.09-.17,1.09-.17,1.04-.23,1.09-.23,1.04-.29,1.09-.35,2.07-.81,2.07-.86,2.07-.98,2.07-1.04,4.08-2.13,4.2-2.13,2.13-.98,2.13-.86,1.09-.4,1.09-.4,1.09-.35,1.09-.29h2.42l2.53.11,1.27.06,1.32.11,1.27.17,1.32.17,1.32.29,1.32.29,1.27.4,1.32.4,1.27.52,1.21.63,1.21.63,1.21.81.58,4.03.52,4.08.52,4.2.4,4.2.46,4.37.52,4.37.58,4.37.69,4.49-.23,2.65-.29,2.59-.29,2.59-.35,2.59-.4,2.59-.4,2.59-.46,2.59-.52,2.59-.46,2.59-.58,2.59-.52,2.65-.58,2.59-.58,2.7-.58,2.65-.58,2.7-.58,2.7-.52,3.22-.58,3.28-.52,3.22-.52,3.22-.52,3.22-.52,3.22-.58,3.22-.52,3.28-.52,3.22-.52,3.22-.52,3.22-.52,3.22-.52,3.28-.52,3.22-.52,3.22-.52,3.22-.75,11.21-.69,11.21-.63,11.21-.52,11.21-.46,11.21-.4,11.21-.35,11.27-.35,11.21-.23,11.27-.23,11.27-.17,11.33-.17,11.27-.17,11.33-.11,11.39-.11,11.33-.17,11.39-6.33.06h-4.83l-3.51.06-2.59.06h-1.78l-1.38.11-1.15.06-1.27.11-.11,1.67-.06,1.61-.06,1.67-.06,1.67-.06,1.67-.06,1.67v1.73l-.06,1.67h-20.36v-1.67l-.06-1.73v-3.34l-.06-1.67v-4.95l-1.44-.11-1.32-.06-1.55-.11h-2.01l-2.82-.06-3.85-.06h-5.23l-6.9-.06v-62.85h1.5l1.5-.06h6.1l1.55-.06h1.55v-51.87l-8.17-.11-6.15-.06-4.54-.06-3.22-.06-2.36-.06-1.73-.11-1.5-.11-1.55-.11-5.12-5.64-5.06-5.58-5.12-5.64-5.12-5.58-5.12-5.58-5.06-5.64-5.12-5.58-5.12-5.58-5.12-5.64-5.06-5.58-5.12-5.64-5.12-5.58-5.12-5.58-5.06-5.64-5.12-5.58-5.12-5.58-5.18,5.52-5.18,5.58-5.23,5.58-5.18,5.58-5.23,5.64-5.18,5.58-5.23,5.64-5.23,5.64-5.18,5.64-5.18,5.64-5.18,5.64-5.18,5.64-5.12,5.64-5.12,5.69-5.06,5.64-5.06,5.69h-3.57l-3.57.06-3.57.06-3.57.06h-3.51l-3.57.06-3.51.06-3.57.06v51.87h1.55l1.55.06h6.27l1.61.06h1.55v62.85l-3.39.06h-2.59l-1.96.06-1.38.06h-.98l-.81.11-.69.06-.75.11v51.46h7.82l1.55.06h1.61l1.55.06-.06,8.05v8.11l-.06,8.11-.06,8.05-.06,8.11v8.05l-.06,8.11-.06,8.11-.06,8.11v8.05l-.06,8.11-.06,8.11-.06,8.11v8.11l-.06,8.05-.06,8.11-2.42-3.8Z"/>
    <path class="cls-9" d="m1226.76,1008.31c.8-3.65,1.78-7.26,2.89-10.82,1.27-3.8,2.75-7.53,4.53-11.11,1.59-3.39,3.5-6.62,5.46-9.81.25,2.91.52,5.82.51,8.74.19,5.28.17,10.56.29,15.84.04,3.13.08,6.27.12,9.4-2.46.08-4.93.06-7.39.18-2.33.07-4.66.06-6.98.17.19-.86.38-1.72.58-2.59h0Z"/>
    <path class="cls-9" d="m1256.89,962.31c4.16-1.31,8.33-2.66,12.61-3.53,2.17-.42,4.34-.82,6.53-1.07v53.19h-19.15v-48.59h0Z"/>
    <path class="cls-9" d="m1327.27,1006.52v-30.42c.67.01,1.01.77,1.39,1.23,1.54,2.26,2.75,4.73,3.88,7.21,1.94,4.17,3.72,8.41,5.35,12.71.4,1.04.77,2.08.91,3.18.42,2.09.9,4.16,1.29,6.26.32,1.4.65,2.8.97,4.19h-13.8v-4.37h0Z"/>
    <path class="cls-9" d="m1149.07,418.53c-3.11-1.97-6.22-3.92-9.37-5.81-1.78-5.31-3.45-10.73-6.41-15.53-1.41-2.43-2.35-5.44-1.11-8.15.83-2.43,2.26-4.73,2.04-7.38.24-2.93.37-5.86.64-8.79,4.62-2.23,8.58-5.76,11.18-10.19.85-1.27,1.54-2.63,2.27-3.96,6.96-.45,14.1-1.32,20.36-4.6,1.54.19,3.36-.52,4.59.68,4.64,3.11,10.44,3.57,15.3,6.21,3.43,1.88,5.84,5.21,7.08,8.87,2.53,1.4,4.08,4.1,4.21,6.96.34,2.56-.04,5.19.28,7.73,1.05,2.84,2.28,5.66,2.52,8.72-3.05,4.63-5.32,9.77-6.47,15.21-.43,1.24-.45,2.78-1.07,3.85-2.61,1.09-5.13,2.52-7.8,3.4-2.13.24-4.51.21-6.29,1.58-10.24-1.05-20.64-.28-30.65,2.07-.44-.29-.88-.58-1.32-.86h0Z"/>
  </g>
  <g>
    <path class="cls-5" d="m1142.35,1187.94c-.08-.06-.16-.12-.24-.18-.03-.03-.07-.07-.1-.1v-.23h1.96v.8h-1.15c-.15-.1-.31-.19-.46-.29h0Z"/>
    <path class="cls-5" d="m1423.76,1187.13v-.52h2.76v.46l-.69.17-.69.17-.69.17-.69.17v-.63Z"/>
    <path class="cls-5" d="m1114.69,1175.23c-1.21-.67-2.45-1.31-3.68-1.96-.13-5.3-.09-10.59-.21-15.89-.1-3.65-.04-7.31-.13-10.96h33.29v29.5h-28c-.42-.23-.84-.46-1.27-.69h0Z"/>
    <path class="cls-5" d="m1423.76,1172.18v-26.11h33.29c-.11,8.8-.21,17.6-.34,26.39-3.39,1.76-6.58,4.02-10.59,3.24-7.45.04-14.9.11-22.36.21,0-1.25,0-2.49,0-3.74h0Z"/>
    <path class="cls-5" d="m1094.39,1164.36c-6.09-3.69-12.17-7.38-18.14-11.26-3.06-1.96-6.12-3.93-9.11-5.99,4.21-.14,8.42-.16,12.62-.3,4.01-.04,8.01-.2,12.02-.24,2.46-.08,4.92-.13,7.39-.15v20.3c-.48.03-.95.03-1.33-.31-1.15-.68-2.3-1.37-3.45-2.05h0Z"/>
    <path class="cls-5" d="m1468.21,1163.85v-17.77c4.66.09,9.32.04,13.98.14,4,.08,8,.08,12,.11,2.09.03,4.19.06,6.28.09-4.31,2.83-8.65,5.61-13.04,8.31-3.92,2.48-7.87,4.92-11.88,7.26-2.44,1.47-4.89,2.93-7.34,4.38v-2.53h0Z"/>
    <path class="cls-5" d="m1045.97,1131.88c-6.93-5.52-13.73-11.2-20.37-17.07-3.06-2.69-6.02-5.47-9.02-8.23,5.23-.14,10.45-.18,15.68-.31,4.75-.06,9.49-.19,14.24-.25,2.62-.08,5.24-.1,7.86-.13v29.5h-3.91c-1.5-1.17-2.99-2.34-4.49-3.51h0Z"/>
    <path class="cls-5" d="m1065.87,1105.89h78.09v29.5h-78.09v-29.5h0Z"/>
    <path class="cls-5" d="m1423.76,1131.7v-26.16h84.3v29.84h-84.3v-3.68Z"/>
    <path class="cls-5" d="m1519.56,1129.23v-23.69h30.99c-2.16,2.22-4.23,4.54-6.57,6.57-2.94,2.76-5.95,5.44-9.07,7.99-5.02,4.3-10.23,8.35-15.36,12.52v-3.39h0Z"/>
    <path class="cls-5" d="m1014.52,1065.35h84.64v29.38h-84.64c0-9.79,0-19.59,0-29.38Z"/>
    <path class="cls-5" d="m1110.66,1065.35h33.29v29.38h-33.29v-29.38Z"/>
    <path class="cls-5" d="m1423.76,1090.99v-26.11h33.29v29.84h-33.29v-3.74Z"/>
    <path class="cls-5" d="m1468.21,1090.99v-26.11h84.64v29.84h-84.64v-3.74h0Z"/>
    <path class="cls-5" d="m1564.35,1088.98v-24.09c5.22-.03,10.43.21,15.65.18,2.85.05,5.7.11,8.56.16-2.9,3.54-5.95,6.96-8.9,10.46-4.64,5.22-9.45,10.28-14.14,15.46-.39.43-.78.86-1.17,1.28v-3.45h0Z"/>
    <path class="cls-5" d="m970.07,1024.64h84.3v29.21h-84.3c0-9.74,0-19.47,0-29.21Z"/>
    <path class="cls-5" d="m1065.87,1024.64h78.09v29.21h-78.09v-29.21h0Z"/>
    <path class="cls-5" d="m1423.76,1050.17v-25.88h84.3v29.56h-84.3v-3.68Z"/>
    <path class="cls-5" d="m1519.56,1050.17v-25.88h78.09v29.56h-78.09v-3.68Z"/>
    <path class="cls-5" d="m970.07,983.75h33.29v29.44h-33.29c0-9.81,0-19.63,0-29.44Z"/>
    <path class="cls-5" d="m1014.52,983.75h84.64v29.44h-84.64c0-9.81,0-19.63,0-29.44Z"/>
    <path class="cls-5" d="m1110.66,983.75h33.29v29.44h-33.29v-29.44Z"/>
    <path class="cls-5" d="m1423.76,1009.51v-25.76h33.29v29.44h-33.29v-3.68Z"/>
    <path class="cls-5" d="m1468.21,1009.51v-25.76h84.64v29.44h-84.64v-3.68h0Z"/>
    <path class="cls-5" d="m1564.35,1009.51v-25.76h33.29v29.44h-33.29v-3.68Z"/>
    <path class="cls-5" d="m1346.71,987.89c-2.33-5.42-5.11-10.66-8.35-15.6-.88-1.37-1.85-2.69-2.81-4.01.54-2.66,2.44-4.77,3.85-7.02,4.22-6.06,8.96-11.74,13.46-17.59,11.01-.03,22.01.04,33.02.11,1.25-.14,1.58.06.4.81-7.45,6.17-14.49,12.81-21.31,19.66-3.52,5.05-6.9,10.19-10.15,15.41-2.34,3.74-4.64,7.5-6.85,11.32-.42-1.03-.84-2.07-1.26-3.1h0Z"/>
    <path class="cls-5" d="m1218.19,988.35c-3.13-6.25-6.68-12.3-10.75-17.99-2.79-3.87-5.8-7.58-9.01-11.1-5.02-4.44-10.06-8.85-15.1-13.26-.83-.74-1.68-1.47-2.52-2.2,9.09-.04,18.19-.16,27.28-.11.89-.08,1.75-.1,2.09.88,3.49,4.97,7.03,9.9,10.56,14.85,2.76,3.89,5.61,7.71,8.31,11.65-3.32,6.14-6.16,12.53-9.33,18.75-.39,1.41-.74.31-1.08-.48-.15-.32-.3-.64-.46-.96h0Z"/>
    <path class="cls-5" d="m970.07,943.1h84.3v29.9h-84.3c0-9.97,0-19.93,0-29.9Z"/>
    <path class="cls-5" d="m1065.87,943.1h78.09v29.9h-78.09v-29.9h0Z"/>
    <path class="cls-5" d="m1423.76,969.26v-26.16h84.3v29.9h-84.3v-3.74Z"/>
    <path class="cls-5" d="m1519.56,969.26v-26.16h78.09v29.9h-78.09v-3.74Z"/>
    <path class="cls-5" d="m1233.83,958.8c-5.01-6.99-9.88-14.06-14.87-21.06-1.29-1.85-2.58-3.71-3.87-5.56-5.98-.08-11.96-.04-17.94-.11v-22.6c11.71.02,23.43.07,35.14.14,4.41.05,8.82.12,13.22.43,4.86,12.73,9.73,25.45,14.72,38.12-1.79,1.64-4.15,2.53-6.21,3.8-3.83,1.95-7.72,3.83-11.2,6.39-2.12,1.39-4.21,2.83-6.28,4.3-.9-1.28-1.8-2.57-2.7-3.85h0Z"/>
    <path class="cls-5" d="m1324.8,958.68c-5.74-4.22-12.24-7.27-18.86-9.83,2.32-10.83,6.89-20.98,11.1-31.17,1.08-2.44,2.02-4.93,2.99-7.41,13.9-.25,27.81-.47,41.71-.66,3.98-.11,7.96-.06,11.94-.15v22.6h-25.93c-7.08,9.21-13.97,18.58-21.49,27.44-.26.38-1.11-.73-1.45-.82h0Z"/>
    <path class="cls-5" d="m1266.95,934.53c-2.87-7.47-5.79-14.92-8.72-22.37-.32-.68-.6-1.37-.99-2.01,6.44-.13,12.87-.34,19.31-.4,4.83-.08,9.67-.15,14.51-.11,5.75-.04,11.5.06,17.24.06-3.06,8.11-6.06,16.23-9.18,24.31-1.4,3.76-2.83,7.51-4.21,11.28-7.11.56-14.24.88-21.37.89-.68-.14-1.76.32-2.18-.21-1.47-3.81-2.93-7.63-4.4-11.44h0Z"/>
    <path class="cls-5" d="m970.07,909.46h33.29v22.6h-33.29c0-7.53,0-15.07,0-22.6Z"/>
    <path class="cls-5" d="m1014.52,909.46h84.64v22.6h-84.64c0-7.53,0-15.07,0-22.6Z"/>
    <path class="cls-5" d="m1110.66,909.46h74.98v22.6h-74.98v-22.6Z"/>
    <path class="cls-5" d="m1385.18,909.46h71.88v22.6h-71.88v-22.6Z"/>
    <path class="cls-5" d="m1468.21,909.46h84.64v22.6h-84.64v-22.6h0Z"/>
    <path class="cls-5" d="m1564.35,909.46h33.29v22.6h-33.29v-22.6Z"/>
    <path class="cls-5" d="m957.08,894.34v-25.42h33.64v13.34h43.36v-13.34h45.94v13.34h43.64v-13.34h45.94v13.34h43.3v-13.34h46.29v13.34h52.44v-13.34h45.94v13.34h43.18v-13.34h46.4v13.34h43.18v-13.34h45.94v13.34h43.64v-13.34h30.36v29.04h-653.22v-3.62Z"/>
    <path class="cls-5" d="m1001.87,869.5v-12.08h-31.8v-22.25h84.3v22.25h-31.8v13.8h-20.7v-1.73h0Z"/>
    <path class="cls-5" d="m1091.46,869.5v-12.08h-25.59v-22.25h78.09v22.25h-32.14v13.8h-20.36v-1.73h0Z"/>
    <path class="cls-5" d="m1458.2,857.43h-34.79v-21.79h84.18v21.79h-28.69v13.8h-20.7v-13.8h0Z"/>
    <path class="cls-5" d="m1547.79,857.43h-28.69v-21.79h78.09v21.79h-28.69v13.8h-20.7v-13.8Z"/>
    <path class="cls-5" d="m1423.41,794.92h33.29v29.21h-33.29v-29.21Z"/>
    <path class="cls-5" d="m1467.86,794.92h84.53v29.21h-84.53v-29.21Z"/>
    <path class="cls-5" d="m1563.89,794.92h33.29v29.21h-33.29v-29.21Z"/>
    <path class="cls-5" d="m970.07,820.05v-25.47h33.29v29.1h-33.29c0-1.21,0-2.42,0-3.62Z"/>
    <path class="cls-5" d="m1014.52,820.05v-25.47h84.64v29.1h-84.64c0-1.21,0-2.42,0-3.62Z"/>
    <path class="cls-5" d="m1110.66,820.05v-25.47h33.29v29.1h-33.29v-3.62Z"/>
    <path class="cls-5" d="m1410.42,779.8v-25.42h33.64v13.46h43.3v-13.46h45.94v13.46h43.24v-13.46h33.29v29.1h-199.42v-3.68h0Z"/>
    <path class="cls-5" d="m957.08,779.46v-25.42h33.64v13.34h43.36v-13.34h45.94v13.34h43.64v-13.34h33.29v29.1h-199.88v-3.68h0Z"/>
    <path class="cls-5" d="m1455.21,754.67v-11.73c-4.07-.15-8.14-.29-12.19-.8,22.38-24.24,44.8-48.45,66.87-72.97,22.42,24.3,44.82,48.61,67.16,72.97-3.6,2.05-7.77.28-11.56,1.26-.28,4.31-.35,8.62-.46,12.94h-20.24c-.2-4.31-.46-8.62-.57-12.94h-68.31c-.25,4.31-.4,8.62-.46,12.94h-20.24c0-.56,0-1.11,0-1.67h0Z"/>
    <path class="cls-5" d="m1001.87,754.21v-11.62c-4.04-.15-8.09-.27-12.13-.34,22.14-24.56,44.47-48.95,66.7-73.43,1.75.17,2.54,2.52,3.92,3.54,21.17,23.04,42.2,46.2,63.41,69.19-.13,1.53-3.1.31-4.37.8-2.38.07-4.75.11-7.13.23-.28,4.42-.35,8.85-.46,13.28h-20.36c-.03-4.43-.14-8.85-.11-13.28h-68.66c-.15,4.43-.11,8.85-.12,13.28h-20.7c0-.56,0-1.11,0-1.67Z"/>
    <path class="cls-5" d="m999.68,1090.02c-6.79-7.23-13.44-14.58-19.76-22.22-.6-.74-1.2-1.48-1.8-2.22,4.53-.08,9.05-.18,13.58-.19,3.89-.08,7.78-.02,11.67-.04-.09,4.16-.04,8.32-.15,12.47-.11,4.59-.06,9.18-.17,13.77-.01.66-.02,1.33-.03,1.99l-3.34-3.57h0Z"/>
  </g>
  <g>
    <path class="cls-1" d="m1149.76,434.97l-1.09-.46-1.09-.35-1.09-.29-2.07-.63-2.01-.63-.92-.35-.86-.46-.4-.29-.4-.23-.4-.35-.35-.29-.35-.4-.35-.4-.29-.4-.29-.46-.29-.52-.23-.52-.23-.63-.23-.63.06-2.19.11-1.84.11-.86.11-.86.17-.86.23-.81.58-.23.58-.12.58-.06h.58l.52.06.58.12.58.17.52.17.58.29.52.29.52.35.58.35,1.04.86.98.98.98,1.04.98,1.15.92,1.15.86,1.21,1.61,2.42,1.38,2.19.06.86-.06.69-.06.29-.06.23-.11.23-.11.23-.29.35-.4.29-.52.35-.63.29-1.09-.46Z"/>
    <path class="cls-1" d="m1189.73,431.92l-.75-2.01-.29-.98-.29-.98-.17-.92-.11-.98-.06-.92.06-.86.06-.46.11-.46.11-.4.17-.4.17-.4.23-.4.23-.4.29-.4.35-.4.35-.35.4-.35.46-.35,1.32-.29,2.01-.4,1.15-.23,1.27-.17,1.32-.12,1.32-.06h1.27l1.21.06.58.12.58.12.52.12.46.17.46.23.4.29.35.29.29.35.23.35.17.46.11.46.06.58-1.73,1.67-1.78,1.78-1.9,1.78-1.9,1.78-.98.86-.98.81-1.04.75-1.04.69-1.04.63-1.04.58-1.04.46-1.09.35-.86-2.01Z"/>
    <path class="cls-1" d="m1166.04,430.89l-.92-.4-.98-.29-1.04-.29-2.01-.46-1.9-.52-.86-.35-.75-.35-.35-.23-.35-.23-.29-.23-.23-.29-.23-.29-.17-.35-.11-.4-.11-.4v-.92l.06-.52.11-.52,1.27-.35,1.27-.29,1.21-.23,1.21-.23,2.36-.29,2.36-.23,2.42-.12,2.53-.06h2.7l2.88.06-.17,1.09-.23,1.04-.29.92-.29.81-.35.75-.35.69-.46.58-.46.58-.58.46-.58.46-.69.35-.81.35-.81.35-.98.29-1.04.23-1.09.23-.92-.4Z"/>
    <path class="cls-1" d="m1128.43,420.71l-1.84-3.11-.92-1.55-.86-1.61-.81-1.61-.75-1.61-.29-.81-.29-.81-.23-.86-.23-.81-.17-.81-.11-.81-.06-.81-.06-.81.06-.81.06-.81.17-.81.23-.75.23-.81.35-.75.46-.81.52-.75.81-.12.75-.06h1.09l.46.12.4.12.35.17.29.23.35.35.29.4.29.46.35.58.81,1.44,1.09,1.84.29.8.29,1.04.23,1.15.29,1.27.17,1.38.23,1.44.11,1.44.11,1.55v1.5l-.06,1.44-.17,1.38-.29,1.32-.17.63-.17.58-.23.58-.23.52-.35.46-.29.46-.4.4-.4.35-1.73-2.93Z"/>
    <path class="cls-1" d="m1207.73,415.08l-1.38-.58-1.67-.58-2.7-.86-.23-1.21-.11-1.15-.11-1.15-.06-1.09v-1.09l.06-1.04.11-.98.11-.98.23-.92.23-.86.29-.86.35-.81.4-.75.4-.75.46-.63.52-.63.58-.58.63-.52.63-.46.69-.4.75-.35.75-.29.86-.23.86-.17.86-.12.98-.06h.92l1.04.06,1.04.17,1.09.17,1.15.29,1.15.35-.69,2.01-.92,2.59-1.09,2.93-1.15,3.11-.69,1.5-.63,1.5-.63,1.38-.69,1.32-.69,1.15-.63.98-.35.46-.35.35-.35.35-.29.29-1.73-.86Z"/>
    <path class="cls-1" d="m1117.45,393.92l.4-2.82.4-2.7.46-2.59.29-1.27.35-1.32.29-1.27.4-1.27.4-1.27.52-1.27.52-1.27.58-1.27,1.73-.12,1.73-.06,1.73-.06h1.78l-.06,2.13-.06,1.73-.06,1.32-.11,1.09-.06,1.04-.17,1.09-.17,1.27-.23,1.55-1.21,2.01-.75,1.32-.58,1.21-.75,1.78-2.01.98-1.9.92-1.9.98-1.9,1.04.34-2.93Z"/>
    <path class="cls-1" d="m1210.89,389.32l-1.15-.17-1.15-.17-1.09-.17-.75-1.78-.63-1.78-.29-.86-.23-.86-.17-.81-.17-.81-.11-.81-.11-.81-.06-.81v-1.5l.11-.75.06-.69.17-.69.17-.69.23-.63.23-.69.35-.58.35-.63.4-.58.46-.58.52-.52.52-.52.63-.52.63-.46.69-.46.75-.4.81-.4.86-.4.92-.35.4,2.76.46,2.76.46,2.76.46,2.76.46,2.7.46,2.76.46,2.76.46,2.76h-5.35l-1.21-.17Z"/>
    <path class="cls-1" d="m1122.28,369.31l.11-.58.17-.58.23-.58.23-.46.29-.52.29-.46.29-.4.69-.86.81-.75.86-.69.92-.69.98-1.32.98-1.38.98-1.32.98-1.32.98-1.32.98-1.32.98-1.27.98-1.32.4.06.4.06.4.11.4.11.86.46.86.52,1.9,1.27,1.9,1.32v.98l-.11.98-.17.92-.17.81-.29.81-.29.81-.4.69-.4.69-.46.63-.52.63-.52.58-.58.52-.63.46-.63.46-.69.46-.69.4-.75.35-.81.35-.75.29-.81.29-1.67.52-1.73.4-1.73.29-1.73.29-1.78.17-1.67.17.11-.69Z"/>
    <path class="cls-1" d="m1200.54,368.04l-.92-1.27-.92-1.38-.86-1.44-.86-1.5-.81-1.55-.75-1.55-.63-1.55-.29-.81-.29-.75-.23-.81-.17-.81-.17-.75-.11-.81-.06-.75-.06-.75v-.75l.06-.75.11-.75.17-.69.23-.69.23-.69.35-.69.4-.63.4.23.35.23.35.35.4.4.86,1.15,1.09,1.55,1.38,1.21,1.55,1.27.81.69.81.75.75.75.75.75.75.86.63.86.58.86.52.98.23.52.17.52.17.52.17.52.11.58.06.52.06.63.06.58-1.67,1.5-1.61,1.5-1.67,1.55-1.61,1.55-.86-1.27Z"/>
    <path class="cls-1" d="m1185.7,355.28l-.23-.17-.35-.17-.4-.17-1.38-.52-2.65-.81-3.05-1.9-2.42-1.61-1.04-.75-.86-.69-.81-.75-.69-.69-.63-.75-.52-.81-.52-.86-.4-.92-.46-1.04-.35-1.15-.4-1.27-.35-1.44h.98l1.21.06,1.27.11,1.38.11,1.44.23,1.55.29,1.5.4,1.55.4,1.55.52,1.5.58,1.44.69,1.32.69.63.4.58.46.58.46.58.46.46.46.46.52.46.52.35.58-.35,2.01-.35,1.96-.29,2.01-.29,2.07-.4.17-.46.17-.4.17-.46.17-.29-.23Z"/>
  </g>
  <path class="cls-6" d="m1149.19,352.98l-1.84-.69-1.9-.75-1.78-.81-.86-.4-.81-.46-.75-.46-.63-.52-.58-.52-.52-.58-.17-.29-.17-.29-.17-.29-.11-.29,1.32-.11,1.38-.29,1.5-.35,1.61-.4,3.28-1.09,3.34-1.09,1.67-.58,1.61-.52,1.55-.4,1.55-.4,1.38-.23,1.32-.17h1.21l.58.06.52.06.46,1.21.52,1.09.4,1.09.35,1.15.17.63.06.58.11.63.06.69v1.44l-.11.81-.06.81-1.96.4-1.5.35-1.32.29-1.27.23-1.38.17-1.67.23-2.07.29-2.65.35-1.67-.58Z"/>
</svg>