<?xml version="1.0" encoding="UTF-8" standalone="no"?>
<!-- Created with Inkscape (http://www.inkscape.org/) -->
<svg
   xmlns:svg="http://www.w3.org/2000/svg"
   xmlns="http://www.w3.org/2000/svg"
   version="1.0"
   width="900"
   height="600"
   id="svg2408">
  <g
     transform="matrix(0,1.0014147,-1,0,670,50)"
     id="g2448">
    <g
       id="g2476">
      <rect
         width="900"
         height="599.1524"
         x="-670"
         y="-49.929363"
         transform="matrix(0,-1,1,0,0,0)"
         id="rect2462"
         style="fill:#da251d;fill-opacity:1;stroke:none;stroke-width:12;stroke-linecap:square;stroke-miterlimit:4;stroke-dasharray:none;stroke-opacity:1" />
      <g
         transform="matrix(1.0298404,0,0,1,-11.673731,0)"
         id="g2470">
        <path
           d="M 251.88317,569.83506 L 248.78201,569.64362 L 245.68085,569.45218 L 242.57969,569.26074 L 239.47853,568.99273 L 236.37737,568.72472 L 233.31449,568.38013 L 230.25162,567.95896 L 228.75846,567.72924 L 227.26531,567.46122 L 225.77216,567.15492 L 224.27901,566.84862 L 222.82414,566.50403 L 221.36928,566.12116 L 219.9527,565.69999 L 218.53612,565.27883 L 217.11954,564.78109 L 215.74125,564.28335 L 214.40124,563.70903 L 213.06123,563.13472 L 211.72122,562.48383 L 210.45779,561.79465 L 209.15606,561.06719 L 207.93092,560.26315 L 207.05034,559.49739 L 206.24633,558.69335 L 205.48062,557.9276 L 204.82975,557.12356 L 204.21718,556.35781 L 203.68118,555.59205 L 203.22174,554.78801 L 202.8006,554.02226 L 202.49431,553.25651 L 202.18802,552.49075 L 201.9966,551.725 L 201.84345,550.99754 L 201.76688,550.23178 L 201.72859,549.50432 L 201.76688,548.77685 L 201.84345,548.04939 L 201.9966,547.32192 L 202.22631,546.63274 L 202.49431,545.90528 L 202.8006,545.2161 L 203.18346,544.56521 L 203.6046,543.87603 L 204.10232,543.22514 L 204.63832,542.57425 L 205.21261,541.92336 L 205.86347,541.31076 L 206.55262,540.69816 L 207.28005,540.08556 L 208.08406,539.51124 L 208.92635,538.93693 L 209.80693,538.4009 L 210.72579,537.82658 L 211.33836,536.18022 L 211.91265,534.45727 L 212.44866,532.77261 L 212.90809,531.04967 L 213.36752,529.28844 L 213.78866,527.56549 L 214.17152,525.80426 L 214.55438,524.08132 L 214.93724,522.32009 L 215.28181,520.59714 L 215.62639,518.83591 L 215.93268,517.11297 L 216.27725,515.42831 L 216.62182,513.70537 L 216.9664,512.02071 L 217.31097,510.37434 L 218.72755,502.06592 L 220.14413,493.7575 L 221.52242,485.44908 L 222.86243,477.10238 L 224.16415,468.75567 L 225.46587,460.40896 L 226.7676,452.06225 L 227.99275,443.71555 L 229.17961,435.33055 L 230.36647,426.98384 L 231.51505,418.59885 L 232.62534,410.21386 L 233.69735,401.82886 L 234.73107,393.44387 L 235.7265,385.02058 L 236.64537,376.63559 L 237.56423,368.25059 L 238.44481,359.82731 L 239.24881,351.44232 L 240.05281,343.05732 L 240.78025,334.63404 L 241.46939,326.24904 L 242.08197,317.86405 L 242.65626,309.47905 L 243.19226,301.05577 L 243.68998,292.67078 L 244.11112,284.28578 L 244.4557,275.93908 L 244.76198,267.55408 L 245.02999,259.16909 L 245.22142,250.82238 L 245.37456,242.47567 L 242.04368,249.17601 L 238.67452,255.83806 L 235.22879,262.46182 L 231.74477,269.08559 L 228.22246,275.67106 L 224.62358,282.21825 L 220.94813,288.76544 L 217.2344,295.23605 L 215.35839,298.45221 L 213.44409,301.70666 L 211.52979,304.88454 L 209.57721,308.1007 L 207.62463,311.31686 L 205.67204,314.49474 L 203.68118,317.67261 L 201.69031,320.8122 L 199.66115,323.99007 L 197.59371,327.12966 L 195.52627,330.26925 L 193.45883,333.37055 L 191.35311,336.47185 L 189.20909,339.57315 L 187.06508,342.67445 L 184.92107,345.77574 L 182.62391,348.72389 L 180.36504,351.71033 L 178.0296,354.73505 L 175.69416,357.75978 L 173.35872,360.82279 L 170.98499,363.84751 L 168.57297,366.91053 L 166.12267,369.93525 L 163.63409,372.92169 L 161.10722,375.86984 L 158.54206,378.74141 L 155.93861,381.5747 L 154.63689,382.95305 L 153.29689,384.33141 L 151.95688,385.67147 L 150.61687,386.97325 L 149.23858,388.27503 L 147.86028,389.53853 L 146.48199,390.76373 L 145.06541,391.98894 L 144.64426,391.87407 L 144.18483,391.7975 L 142.53854,388.65791 L 140.89224,385.51832 L 139.24595,382.37874 L 137.59965,379.23915 L 135.95336,376.09956 L 134.34535,372.95997 L 132.69905,369.82039 L 131.05276,366.71909 L 129.40646,363.5795 L 127.79845,360.43991 L 126.15216,357.30033 L 124.50586,354.16074 L 122.89785,351.02115 L 121.25156,347.88157 L 119.60526,344.74198 L 117.99725,341.60239 L 122.70642,337.62048 L 127.37731,333.60027 L 132.04819,329.58007 L 136.68079,325.52158 L 141.2751,321.46309 L 145.86941,317.36631 L 150.38715,313.23124 L 154.90489,309.09618 L 159.42263,304.92282 L 163.8638,300.74947 L 168.30497,296.49954 L 172.70785,292.24961 L 177.07245,287.9614 L 181.43705,283.63489 L 185.72507,279.2701 L 190.05138,274.86702 L 194.26284,270.11935 L 198.51257,265.37168 L 202.83889,260.54744 L 207.12691,255.68491 L 211.45322,250.78409 L 215.77953,245.84498 L 220.02927,240.86759 L 224.24072,235.81362 L 226.34645,233.28664 L 228.41389,230.75965 L 230.44305,228.23267 L 232.4722,225.66739 L 234.46307,223.10212 L 236.45394,220.49856 L 238.40652,217.895 L 240.32082,215.32973 L 242.19683,212.68788 L 244.03455,210.08432 L 245.83399,207.44247 L 247.59514,204.80063 L 249.31801,202.15878 L 251.00259,199.47864 L 252.64889,196.79851 L 254.2569,194.11837 L 254.56318,194.11837 L 254.94604,194.11837 L 256.51577,196.72193 L 258.12378,199.28721 L 259.80836,201.89077 L 261.49294,204.45604 L 263.25409,207.0596 L 265.01524,209.62487 L 266.81468,212.15185 L 268.65241,214.71713 L 270.52842,217.2824 L 272.44272,219.80938 L 274.35701,222.33637 L 276.3096,224.86335 L 278.26218,227.39034 L 280.25305,229.91732 L 282.2822,232.40602 L 284.31136,234.89472 L 288.44624,239.87211 L 292.6194,244.84951 L 296.79257,249.75032 L 301.04231,254.65114 L 305.29205,259.51367 L 309.54179,264.33792 L 313.79153,269.12387 L 318.00298,273.90983 L 322.32929,278.3512 L 326.6556,282.75428 L 331.05848,287.11907 L 335.46137,291.44557 L 339.90253,295.77208 L 344.3437,300.02201 L 348.86144,304.27193 L 353.37918,308.52186 L 357.9735,312.7335 L 362.56781,316.90686 L 367.23869,321.04192 L 371.94786,325.17699 L 376.69532,329.31206 L 381.48106,333.40883 L 386.30509,337.50561 L 391.20569,341.60239 L 389.52111,344.74198 L 387.87481,347.91985 L 386.19023,351.05944 L 384.50565,354.23731 L 382.85935,357.3769 L 381.17477,360.55478 L 379.52848,363.69436 L 377.8439,366.87224 L 376.1976,370.01183 L 374.55131,373.1897 L 372.86672,376.32929 L 371.22043,379.50716 L 369.57413,382.68504 L 367.88955,385.82462 L 366.24326,389.0025 L 364.59696,392.18037 L 364.40553,392.18037 L 364.2141,392.14209 L 363.9461,392.02722 L 363.60153,391.75921 L 362.41466,390.80202 L 360.15579,388.88764 L 356.55692,385.09716 L 353.03461,381.26839 L 349.58888,377.36305 L 346.18143,373.45771 L 342.81227,369.4758 L 339.48139,365.49388 L 336.22708,361.47368 L 333.04935,357.41519 L 329.87162,353.3567 L 326.77046,349.25992 L 323.74587,345.12485 L 320.72128,341.02808 L 317.77326,336.89301 L 314.86353,332.75794 L 311.99209,328.62288 L 309.19721,324.48781 L 306.09605,319.43384 L 303.03318,314.34159 L 299.9703,309.24933 L 296.984,304.15707 L 294.03598,299.06481 L 291.08797,293.97256 L 288.21652,288.84201 L 285.34508,283.71147 L 282.51192,278.58092 L 279.67876,273.45038 L 276.92217,268.31983 L 274.16558,263.18929 L 271.44728,258.05874 L 268.76727,252.9282 L 266.08725,247.79765 L 263.44552,242.66711 L 263.44552,247.14676 L 263.48381,251.62642 L 263.52209,256.10607 L 263.56038,260.54744 L 263.63695,265.0271 L 263.67524,269.50675 L 263.75181,273.98641 L 263.86667,278.50435 L 263.94324,282.984 L 264.0581,287.50195 L 264.17295,292.01989 L 264.3261,296.57612 L 264.44096,301.13235 L 264.63239,305.68858 L 264.78553,310.2831 L 264.97696,314.9159 L 265.89582,327.35939 L 266.81468,339.84116 L 267.8484,352.32293 L 268.92041,364.80471 L 269.4947,371.04559 L 270.10727,377.28648 L 270.71985,383.56565 L 271.33242,389.80654 L 272.02157,396.04743 L 272.71072,402.3266 L 273.39986,408.56749 L 274.16558,414.80837 L 274.9313,421.08755 L 275.73531,427.32843 L 276.5776,433.56932 L 277.45817,439.81021 L 278.33875,446.05109 L 279.2959,452.29198 L 280.25305,458.53287 L 281.24848,464.77375 L 282.32049,470.97635 L 283.39249,477.21724 L 284.54107,483.41984 L 285.68965,489.66072 L 286.9148,495.86332 L 288.17824,502.06592 L 289.47996,508.23023 L 290.81997,514.43283 L 291.70054,517.80214 L 292.50455,520.75029 L 293.19369,523.31557 L 293.80627,525.57454 L 294.34227,527.52721 L 294.83999,529.25015 L 295.22285,530.78166 L 295.60571,532.12172 L 295.98857,533.34693 L 296.29485,534.45727 L 296.63943,535.52933 L 296.94571,536.60138 L 297.29029,537.71172 L 297.67315,538.89864 L 298.09429,540.16213 L 298.55372,541.61706 L 299.24287,542.30624 L 299.89373,542.99542 L 300.50631,543.72288 L 301.04231,544.45035 L 301.50174,545.17781 L 301.92289,545.94357 L 302.30575,546.67103 L 302.61203,547.43678 L 302.88003,548.20254 L 303.07146,548.96829 L 303.22461,549.73404 L 303.33947,550.46151 L 303.37775,551.22726 L 303.37775,551.99301 L 303.33947,552.75877 L 303.22461,553.52452 L 303.07146,554.29027 L 302.88003,555.01774 L 302.65032,555.7452 L 302.34403,556.51096 L 301.99946,557.23842 L 301.6166,557.9276 L 301.19545,558.65506 L 300.69774,559.34424 L 300.20002,560.03342 L 299.62573,560.68431 L 299.01316,561.3352 L 298.36229,561.98609 L 297.67315,562.59869 L 296.94571,563.21129 L 296.18,563.78561 L 295.33771,564.32164 L 294.15084,564.81938 L 292.92569,565.27883 L 291.73883,565.73828 L 290.47539,566.12116 L 289.25024,566.50403 L 288.02509,566.81033 L 286.76166,567.15492 L 285.49822,567.42294 L 284.23478,567.69095 L 282.97135,567.95896 L 281.70791,568.18869 L 280.40619,568.38013 L 277.84103,568.72472 L 275.27588,568.99273 L 272.71072,569.22246 L 270.14556,569.41389 L 267.5804,569.56704 L 265.01524,569.68191 L 262.45009,569.75848 L 259.92322,569.87335 L 257.39634,569.94992 L 254.94604,570.06478 L 251.88317,569.83506 z"
           id="path2414"
           style="fill:#131516;fill-opacity:1;fill-rule:evenodd;stroke:none" />
        <path
           d="M 253.10832,565.08739 L 250.31345,564.93424 L 247.21228,564.7428 L 243.84312,564.51307 L 242.12026,564.39821 L 240.32082,564.24506 L 238.52138,564.05362 L 236.68365,563.8239 L 234.84593,563.59417 L 233.0082,563.32616 L 231.17048,563.01986 L 229.33275,562.71356 L 227.5716,562.33068 L 225.77216,561.90951 L 224.04929,561.45006 L 222.403,560.91404 L 220.79499,560.33972 L 219.22527,559.72712 L 217.7704,559.07623 L 216.35382,558.34876 L 215.09038,557.54472 L 213.86524,556.66411 L 212.79323,555.7452 L 211.79779,554.74972 L 210.9555,553.67767 L 210.26636,552.56733 L 209.69207,551.34212 L 209.27092,550.04034 L 209.34749,549.12144 L 209.46235,548.27911 L 209.6155,547.51336 L 209.76864,546.78589 L 209.92178,546.135 L 210.11321,545.5224 L 210.34293,544.98637 L 210.57264,544.48864 L 210.84065,544.02918 L 211.10865,543.60802 L 211.41494,543.18686 L 211.72122,542.84227 L 212.0658,542.53597 L 212.41037,542.22966 L 212.79323,541.96165 L 213.17609,541.69364 L 214.01838,541.23419 L 214.89896,540.81302 L 215.8561,540.39186 L 216.85154,539.97069 L 217.92354,539.47295 L 219.03384,538.89864 L 219.60813,538.59234 L 220.18241,538.24775 L 220.7567,537.86487 L 221.36928,537.44371 L 221.36928,537.09912 L 221.36928,536.75453 L 221.36928,536.40994 L 221.36928,536.10364 L 220.79499,535.83563 L 220.25899,535.68248 L 219.79956,535.56761 L 219.4167,535.52933 L 218.72755,535.49104 L 218.19155,535.52933 L 219.03384,531.20282 L 219.79956,527.41234 L 220.4887,524.04303 L 221.10128,521.01831 L 221.67557,518.29988 L 222.17328,515.81119 L 222.671,513.47564 L 223.13043,511.25496 L 223.62815,509.03427 L 224.08758,506.73701 L 224.62358,504.36318 L 225.19787,501.75962 L 225.81045,498.92633 L 226.53788,495.74846 L 227.34188,492.18771 L 228.22246,488.12922 L 228.79675,484.83648 L 229.37104,481.54374 L 229.90704,478.251 L 230.40476,474.95827 L 230.90248,471.70382 L 231.40019,468.44937 L 231.89791,465.15663 L 232.35734,461.90218 L 232.81677,458.64773 L 233.2762,455.39328 L 233.73564,452.13883 L 234.19507,448.88438 L 234.61621,445.62993 L 235.07564,442.37548 L 235.53507,439.15932 L 235.95622,435.90487 L 237.44937,423.00193 L 238.90424,410.09899 L 240.28253,397.23434 L 241.62254,384.33141 L 242.88597,371.42847 L 244.11112,358.56382 L 245.2597,345.66088 L 246.33171,332.79623 L 246.82943,326.36391 L 247.32714,319.89329 L 247.78657,313.46097 L 248.24601,307.02865 L 248.66715,300.59632 L 249.0883,294.164 L 249.47115,287.73167 L 249.81573,281.29935 L 250.1603,274.86702 L 250.46659,268.4347 L 250.77288,262.00237 L 251.04088,255.57005 L 251.27059,249.17601 L 251.50031,242.74369 L 251.69174,236.31136 L 251.84488,229.87904 L 251.73003,228.69212 L 251.61517,227.5052 L 251.5386,226.35657 L 251.46202,225.16965 L 251.38545,223.98274 L 251.30888,222.83411 L 251.23231,221.68548 L 251.15574,220.49856 L 250.08373,222.94897 L 249.01172,225.36109 L 247.90143,227.8115 L 246.79114,230.22362 L 244.4557,235.08616 L 242.08197,239.94869 L 239.63167,244.81122 L 237.1048,249.63546 L 234.57793,254.49799 L 231.97448,259.32224 L 229.33275,264.10819 L 226.69102,268.93244 L 224.01101,273.71839 L 221.29271,278.46606 L 218.61269,283.21373 L 215.89439,287.92311 L 213.21437,292.63249 L 210.53436,297.30358 L 207.08862,302.93187 L 203.56632,308.56015 L 200.00573,314.22672 L 196.36856,319.93158 L 192.69311,325.59815 L 188.90281,331.26473 L 186.98851,334.05972 L 185.07421,336.89301 L 183.12163,339.68801 L 181.13076,342.44472 L 179.13989,345.20143 L 177.11074,347.95814 L 175.08158,350.67656 L 173.01414,353.39499 L 170.9467,356.03683 L 168.80269,358.71697 L 166.69696,361.32053 L 164.51466,363.92409 L 162.33237,366.48936 L 160.11178,369.01635 L 157.85291,371.50504 L 155.59404,373.95545 L 153.29689,376.36757 L 150.96144,378.7797 L 148.626,381.07696 L 146.21399,383.37421 L 145.60141,382.1873 L 144.64426,380.38778 L 143.41911,378.12881 L 142.00253,375.44867 L 140.39453,372.46223 L 138.67166,369.24607 L 136.9105,365.87676 L 135.11107,362.46916 L 133.31163,359.09985 L 131.66533,355.8454 L 130.09561,352.82067 L 128.7556,350.06396 L 127.64531,347.72841 L 126.80302,345.81403 L 126.49673,345.08657 L 126.3053,344.51225 L 126.19044,344.09109 L 126.19044,343.82307 L 129.94246,340.76006 L 133.6562,337.65876 L 137.33165,334.51918 L 141.0071,331.3413 L 144.64426,328.12514 L 148.28143,324.87069 L 151.88031,321.61624 L 155.4409,318.28521 L 159.00149,314.95419 L 162.5238,311.62316 L 166.0461,308.21556 L 169.53012,304.80796 L 173.01414,301.40036 L 176.45988,297.91619 L 179.86732,294.43201 L 183.27477,290.94783 L 186.64393,287.42537 L 190.0131,283.86462 L 193.34397,280.30387 L 196.67485,276.70483 L 199.96744,273.10579 L 203.22174,269.50675 L 206.47605,265.86942 L 209.69207,262.19381 L 212.90809,258.55648 L 216.12411,254.88087 L 219.26355,251.16697 L 222.44128,247.49135 L 225.54245,243.77745 L 228.64361,240.06355 L 231.74477,236.34965 L 234.80764,232.59746 L 236.10936,230.95109 L 237.3728,229.30472 L 238.63624,227.62006 L 239.89967,225.93541 L 241.12482,224.25075 L 242.38826,222.56609 L 243.61341,220.88144 L 244.83856,219.19678 L 246.02542,217.51213 L 247.25057,215.82747 L 248.43743,214.10452 L 249.6243,212.41987 L 250.77288,210.73521 L 251.95974,209.05056 L 253.10832,207.40419 L 254.2569,205.71953 L 254.56318,205.71953 L 254.94604,205.71953 L 256.74548,208.66768 L 258.65978,211.57754 L 260.57408,214.4874 L 262.56494,217.39726 L 264.5941,220.26884 L 266.66154,223.14041 L 268.76727,226.01198 L 270.91128,228.88356 L 273.09358,231.71684 L 275.31416,234.55013 L 277.57303,237.38341 L 279.87019,240.17841 L 282.16734,242.97341 L 284.54107,245.76841 L 286.87651,248.52512 L 289.28853,251.28183 L 291.66226,254.03854 L 294.11256,256.79525 L 296.52457,259.51367 L 298.97487,262.2321 L 303.91376,267.63066 L 308.89093,272.95264 L 313.82981,278.23633 L 318.80698,283.48174 L 323.74587,288.68886 L 328.60818,293.81941 L 331.8242,296.99728 L 335.00193,300.17516 L 338.25624,303.35303 L 341.51054,306.49262 L 344.80313,309.67049 L 348.13401,312.84837 L 351.46489,315.98795 L 354.83405,319.12754 L 358.2415,322.26713 L 361.68723,325.40672 L 365.13297,328.50802 L 368.61699,331.60932 L 372.13929,334.71061 L 375.69988,337.81191 L 379.26048,340.87493 L 382.85935,343.93794 L 382.89764,344.28253 L 382.97421,344.70369 L 381.71078,347.11581 L 380.44734,349.52793 L 379.1839,351.94006 L 377.92047,354.35218 L 376.65703,356.7643 L 375.3936,359.17642 L 374.13016,361.58854 L 372.86672,364.00066 L 371.64157,366.41279 L 370.37814,368.82491 L 369.1147,371.27532 L 367.85127,373.68744 L 366.62612,376.09956 L 365.36268,378.51168 L 364.09925,380.96209 L 362.8741,383.37421 L 361.4958,382.1873 L 360.19408,380.96209 L 358.89236,379.73689 L 357.62892,378.51168 L 356.40377,377.24819 L 355.21691,375.94641 L 354.03004,374.68292 L 352.88147,373.38114 L 350.6226,370.81587 L 348.40201,368.21231 L 346.21971,365.68532 L 343.99913,363.15834 L 340.97454,359.29128 L 337.94995,355.38594 L 335.00193,351.4806 L 332.0922,347.57526 L 329.22076,343.66992 L 326.3876,339.7263 L 323.59273,335.82096 L 320.83614,331.87733 L 318.11784,327.9337 L 315.43782,323.99007 L 312.79609,320.04645 L 310.19265,316.10282 L 307.62749,312.15919 L 305.1389,308.21556 L 302.65032,304.27193 L 300.20002,300.29002 L 297.36686,295.42749 L 294.5337,290.52667 L 291.70054,285.58756 L 288.86738,280.64846 L 285.99594,275.70935 L 283.16278,270.73196 L 280.3679,265.71627 L 277.61132,260.73888 L 274.89302,255.7232 L 272.213,250.70752 L 269.60956,245.69183 L 267.08269,240.67615 L 265.85754,238.18746 L 264.63239,235.66047 L 263.44552,233.17177 L 262.29694,230.68308 L 261.14837,228.19438 L 260.03807,225.66739 L 258.96607,223.1787 L 257.93235,220.69 L 257.89406,221.14945 L 257.81749,221.57062 L 257.7792,222.06836 L 257.74092,222.68096 L 257.70263,223.44671 L 257.70263,224.44219 L 257.66435,225.74397 L 257.62606,227.35205 L 257.58777,229.3813 L 257.54949,231.86999 L 257.5112,234.85643 L 257.47292,238.41718 L 257.43463,242.62882 L 257.39634,247.49135 L 257.31977,253.08135 L 257.2432,259.47539 L 257.35806,266.40545 L 257.47292,273.33552 L 257.62606,280.30387 L 257.81749,287.23393 L 258.0472,294.24057 L 258.27692,301.20892 L 258.50664,308.21556 L 258.81292,315.2222 L 259.08092,322.22884 L 259.4255,329.27377 L 259.77007,336.3187 L 260.11464,343.36362 L 260.53579,350.44684 L 260.91865,357.53005 L 261.33979,364.61327 L 261.79923,371.69648 L 262.4118,378.05223 L 263.06266,384.44627 L 263.75181,390.84031 L 264.44096,397.23434 L 265.16839,403.62838 L 265.93411,410.0607 L 266.73811,416.49303 L 267.54212,422.92535 L 268.38441,429.39597 L 269.2267,435.86658 L 270.10727,442.33719 L 270.98785,448.8078 L 271.86843,455.27842 L 272.78729,461.78732 L 273.70615,468.25793 L 274.6633,474.76683 L 275.12273,477.17895 L 275.54388,479.36135 L 275.92674,481.3523 L 276.34788,483.34326 L 276.73074,485.37251 L 277.19017,487.51662 L 277.68789,489.85216 L 278.26218,492.5323 L 278.91304,495.59531 L 279.71704,499.11777 L 280.59762,503.25284 L 281.66963,508.03879 L 282.89478,513.55222 L 284.31136,519.90797 L 285.95765,527.22091 L 287.79538,535.52933 L 286.3788,535.49104 L 285.42165,535.45275 L 285.03879,535.52933 L 284.65593,535.6059 L 284.27307,535.75905 L 283.85192,535.98878 L 283.77535,536.29508 L 283.77535,536.60138 L 283.73707,536.86939 L 283.73707,537.17569 L 284.08164,537.482 L 284.4645,537.7883 L 284.88565,538.05631 L 285.34508,538.36261 L 286.3788,538.97521 L 287.52737,539.58782 L 288.71424,540.20042 L 289.9011,540.85131 L 291.04968,541.54049 L 292.15997,542.30624 L 292.96398,543.18686 L 293.7297,544.06747 L 294.41884,544.98637 L 295.10799,545.90528 L 295.72056,546.86247 L 296.21828,547.81966 L 296.448,548.3174 L 296.67771,548.77685 L 296.83086,549.27459 L 296.984,549.77233 L 297.13714,550.27007 L 297.21372,550.8061 L 297.252,551.30384 L 297.29029,551.80158 L 297.29029,552.3376 L 297.21372,552.83534 L 297.13714,553.37137 L 297.02229,553.86911 L 296.83086,554.40514 L 296.60114,554.94116 L 296.33314,555.47719 L 296.02685,556.01322 L 295.68228,556.54924 L 295.26113,557.08527 L 294.8017,557.6213 L 294.30399,558.15733 L 293.19369,558.73164 L 292.0834,559.26767 L 290.93482,559.76541 L 289.78624,560.26315 L 288.63767,560.68431 L 287.4508,561.10547 L 286.26394,561.48835 L 285.07707,561.83294 L 283.85192,562.17753 L 282.66506,562.44554 L 281.40163,562.75184 L 280.17648,562.98157 L 278.95133,563.21129 L 277.68789,563.44102 L 276.46274,563.63246 L 275.1993,563.78561 L 272.67243,564.09191 L 270.14556,564.32164 L 267.65697,564.51307 L 265.16839,564.66623 L 262.6798,564.81938 L 260.26779,564.93424 L 257.85577,565.08739 L 255.52033,565.20225 L 253.10832,565.08739 z"
           id="path2416"
           style="fill:#ffffff;fill-opacity:1;fill-rule:evenodd;stroke:none" />
        <path
           d="M 218.68926,551.83986 L 218.07669,551.4187 L 217.57897,550.99754 L 217.2344,550.61466 L 216.9664,550.19349 L 216.85154,549.77233 L 216.81325,549.35117 L 216.88982,548.96829 L 217.04297,548.54713 L 217.31097,548.12596 L 217.61726,547.74309 L 218.00012,547.36021 L 218.45955,546.97733 L 218.95726,546.59446 L 219.49327,546.21158 L 220.10584,545.86699 L 220.71842,545.5224 L 221.36928,545.17781 L 222.02014,544.87151 L 222.70929,544.52692 L 224.08758,543.95261 L 225.42759,543.45487 L 226.65274,542.99542 L 227.76303,542.61254 L 228.68189,542.30624 L 229.29447,542.1148 L 232.24248,541.61706 L 235.30536,541.1959 L 238.44481,540.85131 L 241.62254,540.54501 L 244.87684,540.31528 L 248.16943,540.16213 L 249.85401,540.08556 L 251.50031,540.04727 L 253.18489,540.04727 L 254.86947,540.04727 L 256.51577,540.08556 L 258.20035,540.12384 L 259.88493,540.20042 L 261.56951,540.31528 L 263.21581,540.46843 L 264.90039,540.62158 L 266.54668,540.77473 L 268.19298,541.00446 L 269.83927,541.23419 L 271.44728,541.5022 L 273.05529,541.8085 L 274.6633,542.1148 L 276.23302,542.45939 L 277.80275,542.88055 L 279.33418,543.30172 L 280.86562,543.72288 L 281.36334,544.02918 L 281.93763,544.33548 L 282.51192,544.64179 L 283.08621,544.98637 L 283.08621,545.29268 L 283.08621,545.59898 L 283.08621,545.90528 L 283.08621,546.24987 L 281.09534,546.21158 L 279.10447,546.09672 L 277.19017,545.94357 L 275.27588,545.75213 L 273.39986,545.48411 L 271.56214,545.25439 L 269.7627,544.98637 L 268.00155,544.71836 L 265.97239,544.71836 L 263.98152,544.71836 L 261.99066,544.71836 L 259.99979,544.71836 L 258.00892,544.71836 L 256.01805,544.71836 L 254.02718,544.71836 L 252.03631,544.71836 L 250.00716,544.9098 L 248.05458,545.13953 L 246.06371,545.36925 L 244.14941,545.59898 L 242.19683,545.86699 L 240.32082,546.17329 L 238.40652,546.51788 L 236.53051,546.90076 L 234.69278,547.32192 L 232.85506,547.78137 L 231.01733,548.27911 L 229.2179,548.85343 L 227.41846,549.46603 L 225.6573,550.19349 L 223.89615,550.92096 L 222.135,551.76329 L 221.44585,551.83986 L 220.7567,551.95473 L 220.10584,552.10788 L 219.45498,552.26103 L 218.68926,551.83986 z"
           id="path2418"
           style="fill:#131516;fill-opacity:1;fill-rule:evenodd;stroke:none" />
        <path
           d="M 249.66258,510.14462 L 248.47572,509.18742 L 247.51857,508.23023 L 246.75285,507.27304 L 246.17856,506.31585 L 245.79571,505.35866 L 245.60428,504.43976 L 245.5277,503.52085 L 245.60428,502.64024 L 245.83399,501.79791 L 246.17856,500.99387 L 246.59971,500.22811 L 247.13571,499.53894 L 247.78657,498.88805 L 248.47572,498.31373 L 249.24144,497.81599 L 250.00716,497.39483 L 250.84945,497.08853 L 251.73003,496.8588 L 252.6106,496.74394 L 253.45289,496.70565 L 254.33347,496.82051 L 255.17576,497.05024 L 255.94148,497.39483 L 256.7072,497.89257 L 257.39634,498.54346 L 258.00892,499.3475 L 258.54492,500.30469 L 258.96607,501.41503 L 259.31064,502.71681 L 259.50207,504.17174 L 259.57864,505.81811 L 259.19578,506.54558 L 258.77464,507.19647 L 258.39178,507.80907 L 257.97063,508.30681 L 257.5112,508.76626 L 257.05177,509.18742 L 256.59234,509.53201 L 256.09462,509.83831 L 255.55862,510.10633 L 254.98433,510.33605 L 254.41004,510.52749 L 253.83575,510.68064 L 253.18489,510.79551 L 252.49574,510.91037 L 251.8066,510.98694 L 251.07916,511.06352 L 249.66258,510.14462 z"
           id="path2420"
           style="fill:#131516;fill-opacity:1;fill-rule:evenodd;stroke:none" />
      </g>
      <g
         transform="matrix(1.0512092,0,0,1,-17.831592,-58.47441)"
         id="g2464">
        <path
           d="M 234.46307,180.60283 L 235.26707,177.73126 L 236.07108,174.85969 L 236.91337,172.0264 L 237.71737,169.15483 L 238.55966,166.28325 L 239.40195,163.41168 L 240.24424,160.54011 L 240.20596,157.7834 L 240.20596,155.02668 L 240.16767,152.30826 L 240.16767,149.55155 L 240.16767,146.79484 L 240.16767,144.03813 L 240.16767,141.31971 L 240.12939,138.563 L 240.12939,135.80629 L 240.12939,133.08786 L 240.12939,130.33115 L 240.12939,127.61273 L 240.12939,124.85602 L 240.12939,122.09931 L 240.12939,119.38088 L 240.12939,116.62417 L 237.44937,116.62417 L 234.73107,116.62417 L 232.01277,116.58589 L 229.33275,116.58589 L 226.61445,116.58589 L 223.93444,116.58589 L 221.21613,116.5476 L 218.53612,116.5476 L 215.81782,116.5476 L 213.09952,116.5476 L 210.4195,116.5476 L 207.7012,116.5476 L 205.02118,116.5476 L 202.30288,116.5476 L 199.62287,116.5476 L 196.90457,116.5476 L 193.99483,117.38993 L 191.0851,118.19397 L 188.21366,119.0363 L 185.30393,119.87862 L 182.3942,120.72095 L 179.48447,121.56328 L 176.61302,122.36732 L 173.70329,123.20965 L 173.70329,120.5678 L 173.70329,117.92595 L 173.70329,115.28411 L 173.70329,112.64226 L 173.70329,110.00041 L 173.70329,107.32028 L 173.70329,104.67843 L 173.70329,102.03658 L 173.70329,99.394733 L 173.70329,96.752885 L 173.70329,94.111038 L 173.70329,91.46919 L 173.70329,88.86563 L 173.70329,86.223782 L 173.70329,83.581934 L 173.70329,80.940087 L 176.53645,81.782415 L 179.36961,82.624743 L 182.20277,83.505359 L 185.07421,84.347687 L 187.90737,85.228303 L 190.77882,86.070632 L 193.65026,86.951247 L 196.52171,87.831863 L 199.24001,87.831863 L 201.9966,87.831863 L 204.7149,87.831863 L 207.47148,87.831863 L 210.22807,87.831863 L 212.94637,87.870151 L 215.70296,87.870151 L 218.42126,87.870151 L 221.17785,87.908439 L 223.93444,87.908439 L 226.65274,87.908439 L 229.40932,87.946726 L 232.16591,87.946726 L 234.9225,87.985014 L 237.67909,87.985014 L 240.43567,88.023302 L 240.39739,85.304879 L 240.39739,82.586456 L 240.3591,79.868033 L 240.3591,77.14961 L 240.32082,74.392899 L 240.32082,71.674476 L 240.32082,68.956053 L 240.28253,66.23763 L 240.28253,63.519207 L 240.28253,60.800784 L 240.24424,58.082361 L 240.24424,55.363938 L 240.24424,52.645515 L 240.24424,49.927092 L 240.24424,47.208669 L 240.24424,44.490246 L 238.52138,38.632236 L 237.18137,34.152582 L 236.22422,30.821556 L 235.49679,28.332859 L 234.96079,26.380189 L 234.50135,24.73382 L 234.11849,23.125739 L 233.65906,21.287932 L 236.30079,21.287932 L 238.90424,21.287932 L 241.54597,21.287932 L 244.1877,21.287932 L 246.79114,21.287932 L 249.43287,21.287932 L 252.0746,21.287932 L 254.71633,21.287932 L 257.31977,21.287932 L 259.9615,21.287932 L 262.60323,21.287932 L 265.24496,21.287932 L 267.88669,21.287932 L 270.52842,21.287932 L 273.17015,21.287932 L 275.81188,21.287932 L 274.9313,24.197793 L 274.08901,27.069367 L 273.20843,29.979228 L 272.32786,32.889089 L 271.48557,35.79895 L 270.60499,38.670524 L 269.72441,41.580385 L 268.84384,44.490246 L 268.84384,47.208669 L 268.80555,49.927092 L 268.80555,52.645515 L 268.80555,55.363938 L 268.80555,58.082361 L 268.76727,60.800784 L 268.76727,63.519207 L 268.76727,66.23763 L 268.76727,68.956053 L 268.76727,71.674476 L 268.76727,74.392899 L 268.76727,77.14961 L 268.76727,79.868033 L 268.76727,82.586456 L 268.76727,85.304879 L 268.76727,88.023302 L 271.52385,87.985014 L 274.28044,87.985014 L 277.03703,87.946726 L 279.79362,87.946726 L 282.5502,87.908439 L 285.30679,87.908439 L 288.06338,87.908439 L 290.81997,87.870151 L 293.57655,87.870151 L 296.33314,87.870151 L 299.12801,87.831863 L 301.8846,87.831863 L 304.64119,87.831863 L 307.39778,87.831863 L 310.19265,87.831863 L 312.94924,87.831863 L 315.70582,86.951247 L 318.5007,86.070632 L 321.25728,85.228303 L 324.05216,84.347687 L 326.80874,83.505359 L 329.60362,82.624743 L 332.39849,81.782415 L 335.19336,80.940087 L 335.19336,83.581934 L 335.19336,86.26207 L 335.19336,88.903918 L 335.19336,91.545765 L 335.19336,94.187613 L 335.19336,96.829461 L 335.19336,99.509596 L 335.19336,102.15144 L 335.19336,104.79329 L 335.19336,107.43514 L 335.19336,110.11527 L 335.19336,112.75712 L 335.19336,115.43726 L 335.19336,118.0791 L 335.19336,120.75924 L 335.19336,123.40109 L 332.39849,122.55876 L 329.60362,121.75472 L 326.80874,120.91239 L 324.05216,120.07006 L 321.25728,119.26602 L 318.5007,118.46198 L 315.70582,117.61965 L 312.94924,116.81561 L 310.19265,116.81561 L 307.39778,116.81561 L 304.64119,116.77732 L 301.8846,116.77732 L 299.12801,116.77732 L 296.33314,116.77732 L 293.57655,116.73904 L 290.81997,116.73904 L 288.06338,116.73904 L 285.30679,116.73904 L 282.5502,116.73904 L 279.79362,116.73904 L 277.03703,116.73904 L 274.28044,116.73904 L 271.52385,116.73904 L 268.76727,116.73904 L 268.76727,119.45746 L 268.76727,122.17588 L 268.76727,124.89431 L 268.76727,127.61273 L 268.76727,130.33115 L 268.76727,133.04958 L 268.76727,135.768 L 268.76727,138.48642 L 268.76727,141.20484 L 268.76727,143.92327 L 268.80555,146.64169 L 268.80555,149.3984 L 268.80555,152.11682 L 268.80555,154.83525 L 268.84384,157.55367 L 268.84384,160.27209 L 270.56671,165.78551 L 271.90671,170.03544 L 272.90215,173.2516 L 273.62958,175.70201 L 274.24216,177.69297 L 274.73987,179.4542 L 275.23759,181.29201 L 275.81188,183.47441 L 273.17015,183.47441 L 270.52842,183.47441 L 267.88669,183.47441 L 265.24496,183.47441 L 262.60323,183.47441 L 259.9615,183.47441 L 257.31977,183.47441 L 254.71633,183.47441 L 252.0746,183.47441 L 249.43287,183.47441 L 246.79114,183.47441 L 244.1877,183.47441 L 241.54597,183.47441 L 238.90424,183.47441 L 236.30079,183.47441 L 233.65906,183.47441 L 234.46307,180.60283 z"
           id="path2422"
           style="fill:#131516;fill-opacity:1;fill-rule:evenodd;stroke:none" />
        <path
           d="M 242.2734,175.31914 L 242.84769,173.2516 L 243.42198,171.18407 L 243.99627,169.11654 L 244.57056,167.04901 L 245.14484,165.01976 L 245.75742,162.99052 L 246.33171,160.92298 L 246.33171,157.7834 L 246.33171,154.64381 L 246.33171,151.46593 L 246.33171,148.32635 L 246.33171,145.18676 L 246.36999,142.04717 L 246.36999,138.90759 L 246.36999,135.768 L 246.40828,132.62841 L 246.40828,129.48882 L 246.44657,126.34924 L 246.44657,123.20965 L 246.44657,120.07006 L 246.48485,116.93048 L 246.48485,113.79089 L 246.52314,110.6513 L 243.30712,110.6513 L 240.0911,110.6513 L 236.87508,110.6513 L 233.69735,110.6513 L 230.48133,110.6513 L 227.26531,110.6513 L 224.04929,110.6513 L 220.83328,110.6513 L 217.65554,110.6513 L 214.43952,110.6513 L 211.22351,110.68959 L 208.04577,110.68959 L 204.82975,110.68959 L 201.65202,110.68959 L 198.436,110.72788 L 195.25827,110.72788 L 193.30569,111.30219 L 191.35311,111.83822 L 189.40052,112.37425 L 187.48623,112.91027 L 185.57193,113.4463 L 183.61935,114.02061 L 181.70505,114.55664 L 179.79075,115.09267 L 179.79075,111.83822 L 179.79075,108.58377 L 179.82904,105.29103 L 179.82904,102.03658 L 179.86732,98.782131 L 179.90561,95.565968 L 179.9439,92.311518 L 179.98218,89.057068 L 181.97305,89.707958 L 183.96392,90.32056 L 185.95479,90.933163 L 187.94566,91.545765 L 189.93653,92.158368 L 191.92739,92.77097 L 193.95655,93.383572 L 195.94742,93.996175 L 199.08686,93.996175 L 202.2646,93.996175 L 205.40404,94.034462 L 208.54349,94.034462 L 211.72122,94.034462 L 214.86067,94.034462 L 218.0384,94.07275 L 221.17785,94.07275 L 224.35558,94.07275 L 227.49503,94.111038 L 230.67276,94.111038 L 233.85049,94.149325 L 236.98994,94.149325 L 240.16767,94.149325 L 243.34541,94.187613 L 246.52314,94.187613 L 246.48485,91.048026 L 246.48485,87.908439 L 246.44657,84.730564 L 246.44657,81.590977 L 246.44657,78.45139 L 246.40828,75.311803 L 246.40828,72.172216 L 246.36999,69.032628 L 246.36999,65.893041 L 246.36999,62.753454 L 246.33171,59.613867 L 246.33171,56.47428 L 246.33171,53.334693 L 246.33171,50.195106 L 246.33171,47.055519 L 246.33171,43.915932 L 244.83856,38.90025 L 243.68998,35.109773 L 242.88597,32.353062 L 242.34997,30.476967 L 242.0054,29.213475 L 241.81397,28.447722 L 241.7374,27.911695 L 241.69911,27.452243 L 244.95341,27.452243 L 248.20772,27.452243 L 251.46202,27.452243 L 254.75461,27.452243 L 258.00892,27.452243 L 261.26322,27.452243 L 264.51753,27.452243 L 267.81012,27.452243 L 267.15926,29.519776 L 266.5084,31.549022 L 265.85754,33.578267 L 265.24496,35.6458 L 264.63239,37.713333 L 263.98152,39.780866 L 263.36895,41.848399 L 262.75637,43.915932 L 262.75637,47.055519 L 262.71809,50.195106 L 262.71809,53.334693 L 262.71809,56.47428 L 262.6798,59.613867 L 262.6798,62.753454 L 262.6798,65.893041 L 262.6798,69.032628 L 262.6798,72.172216 L 262.6798,75.311803 L 262.6798,78.45139 L 262.6798,81.590977 L 262.6798,84.730564 L 262.6798,87.908439 L 262.6798,91.048026 L 262.6798,94.187613 L 265.85754,94.187613 L 268.99698,94.149325 L 272.17471,94.149325 L 275.35245,94.149325 L 278.53018,94.111038 L 281.70791,94.111038 L 284.88565,94.07275 L 288.06338,94.07275 L 291.24111,94.07275 L 294.41884,94.034462 L 297.59658,94.034462 L 300.77431,94.034462 L 303.95204,94.034462 L 307.16806,93.996175 L 310.34579,93.996175 L 313.52352,93.996175 L 318.30927,92.502956 L 321.94643,91.392615 L 324.58816,90.550286 L 326.3876,90.014259 L 327.61275,89.66967 L 328.37847,89.478232 L 328.91447,89.401657 L 329.41219,89.363369 L 329.3739,92.617819 L 329.33562,95.833982 L 329.29733,99.088432 L 329.25904,102.34288 L 329.22076,105.59733 L 329.18247,108.85178 L 329.14419,112.10623 L 329.1059,115.39897 L 327.15332,114.78637 L 325.20074,114.21205 L 323.24815,113.63774 L 321.29557,113.06342 L 319.34299,112.48911 L 317.3904,111.91479 L 315.47611,111.30219 L 313.52352,110.72788 L 310.34579,110.72788 L 307.16806,110.68959 L 303.95204,110.68959 L 300.77431,110.68959 L 297.59658,110.68959 L 294.41884,110.6513 L 291.24111,110.6513 L 288.06338,110.6513 L 284.88565,110.6513 L 281.70791,110.6513 L 278.53018,110.6513 L 275.35245,110.6513 L 272.17471,110.6513 L 268.99698,110.6513 L 265.85754,110.6513 L 262.6798,110.6513 L 262.6798,113.79089 L 262.6798,116.93048 L 262.6798,120.07006 L 262.6798,123.20965 L 262.6798,126.34924 L 262.6798,129.48882 L 262.6798,132.62841 L 262.6798,135.768 L 262.6798,138.90759 L 262.6798,142.04717 L 262.6798,145.18676 L 262.71809,148.32635 L 262.71809,151.46593 L 262.71809,154.64381 L 262.75637,157.7834 L 262.75637,160.92298 L 263.36895,162.99052 L 263.98152,165.01976 L 264.63239,167.04901 L 265.24496,169.11654 L 265.85754,171.18407 L 266.5084,173.2516 L 267.15926,175.31914 L 267.81012,177.38667 L 264.51753,177.38667 L 261.26322,177.38667 L 258.00892,177.38667 L 254.75461,177.38667 L 251.46202,177.38667 L 248.20772,177.38667 L 244.95341,177.38667 L 241.69911,177.38667 L 242.2734,175.31914 z"
           id="path2424"
           style="fill:#ffffff;fill-opacity:1;fill-rule:evenodd;stroke:none" />
      </g>
    </g>
  </g>
  <defs
     id="defs2427" />
</svg>
