<?xml version="1.0" encoding="UTF-8" standalone="no"?>
<!-- Created with Inkscape (http://www.inkscape.org/) -->

<svg
   xmlns:dc="http://purl.org/dc/elements/1.1/"
   xmlns:cc="http://creativecommons.org/ns#"
   xmlns:rdf="http://www.w3.org/1999/02/22-rdf-syntax-ns#"
   xmlns:svg="http://www.w3.org/2000/svg"
   xmlns="http://www.w3.org/2000/svg"
   xmlns:sodipodi="http://sodipodi.sourceforge.net/DTD/sodipodi-0.dtd"
   xmlns:inkscape="http://www.inkscape.org/namespaces/inkscape"
   version="1.1"
   id="svg2"
   width="1280"
   height="720"
   viewBox="0 0 1280 720"
   sodipodi:docname="Flagge Hanover.svg"
   inkscape:version="0.92.3 (2405546, 2018-03-11)">
  <metadata
     id="metadata8">
    <rdf:RDF>
      <cc:Work
         rdf:about="">
        <dc:format>image/svg+xml</dc:format>
        <dc:type
           rdf:resource="http://purl.org/dc/dcmitype/StillImage" />
        <dc:title></dc:title>
      </cc:Work>
    </rdf:RDF>
  </metadata>
  <defs
     id="defs6">
    <clipPath
       id="clipPath17">
      <path
         d="m0 0.89h595v841h-595v-841z"
         id="path19" />
    </clipPath>
    <clipPath
       id="clipPath53">
      <path
         d="m124.72 716.19h51.72v54.83h-51.72v-54.83z"
         id="path55" />
    </clipPath>
  </defs>
  <sodipodi:namedview
     pagecolor="#ffffff"
     bordercolor="#666666"
     borderopacity="1"
     objecttolerance="10"
     gridtolerance="10"
     guidetolerance="10"
     inkscape:pageopacity="0"
     inkscape:pageshadow="2"
     inkscape:window-width="1920"
     inkscape:window-height="1017"
     id="namedview4"
     showgrid="false"
     inkscape:zoom="0.44375"
     inkscape:cx="640"
     inkscape:cy="360"
     inkscape:window-x="-8"
     inkscape:window-y="-8"
     inkscape:window-maximized="1"
     inkscape:current-layer="svg2" />
  <rect
     style="opacity:1;fill:#da121a;fill-opacity:1;fill-rule:evenodd;stroke:#da121a;stroke-width:1.00079346;stroke-opacity:1"
     id="rect1215"
     width="1280"
     height="374.21481"
     x="0"
     y="0" />
  <rect
     style="opacity:1;fill:#ffffff;fill-opacity:1;fill-rule:evenodd;stroke:#ffffff;stroke-width:0.96202677;stroke-opacity:1"
     id="rect1215-4"
     width="1280"
     height="345.78519"
     x="0"
     y="374.21481" />
  <g
     transform="matrix(1.25,0,0,-1.25,-1727.2465,1215.8232)"
     id="g11">
    <g
       transform="matrix(7.1180289,0,0,7.0446729,838.14034,-4577.4612)"
       id="g49">
      <g
         clip-path="url(#clipPath53)"
         id="g51">
        <g
           transform="translate(173.33,770.71)"
           id="g57">
          <path
             stroke-miterlimit="3.864"
             d="m 0,0 h -47.738 v -30.569 c 0.393,-12.29 10.888,-22.05 23.822,-22.05 12.956,0 23.557,9.881 23.916,22.2 z"
             id="path59"
             inkscape:connector-curvature="0"
             style="fill:#da121a;stroke:#000000;stroke-width:0.53100002;stroke-miterlimit:3.86400008" />
        </g>
        <g
           transform="translate(164.89,753.46)"
           id="g101">
          <path
             stroke-miterlimit="3.864"
             transform="matrix(0.078162,0,0,-0.078162,-39.56,17.511)"
             d="m 80.625,224 v 52.91 H 66.312 v 16.65 h 16.782 v 240.28 h 121.57 c 0.65,-129.89 103.15,-183.59 103.15,-183.59 0,0 102.55,53.7 103.19,183.59 h 121.59 V 293.56 h 16.75 v -16.65 h -14.28 L 534.784,224 h -28.66 -0.18 -12.69 v 24 h -27.47 v -24 h -38.69 v 24 h -16.31 -17.87 l 0.03,-24 h -37.19 v 24 h -31.47 v -24 h -36.56 v 24 h -32.06 v -24 h -36.6 l -0.15,24 h -17.53 -16.35 v -24 h -38.65 v 24 h -27.47 v -24 h -12.44 -0.28 -25.565 z"
             id="path103"
             inkscape:connector-curvature="0"
             style="fill:#ffffff;stroke:#000000;stroke-width:3.87660003;stroke-miterlimit:3.86400008" />
        </g>
        <g
           transform="translate(154.45,735.87)"
           id="g69">
          <path
             stroke-miterlimit="3.864"
             d="m 0,0 h -9.92 v -6.38 c 0.081,-2.565 2.262,-4.602 4.95,-4.602 2.692,0 4.896,2.062 4.97,4.633 z"
             id="path71"
             inkscape:connector-curvature="0"
             style="fill:#fcdd09;stroke:#000000;stroke-width:0.303;stroke-miterlimit:3.86400008" />
        </g>
        <g
           transform="translate(149.06,732.42)"
           id="g61">
          <path
             stroke-miterlimit="3.864"
             d="m 0,0 h 0.895 c 0,1.071 0.877,1.954 1.958,1.954 1.081,0 1.958,-0.868 1.958,-1.94 0,-1.071 -0.877,-1.94 -1.958,-1.94 -0.484,0 -0.884,0.089 -1.225,0.377 L 1.283,-2.113 c 0.677,-0.305 1.119,-0.951 1.119,-1.737 0,-1.071 -0.876,-1.939 -1.957,-1.939 -1.081,0 -1.958,0.868 -1.958,1.939 0,0.785 0.471,1.461 1.147,1.767 l -0.346,0.592 c -0.339,-0.277 -0.774,-0.443 -1.247,-0.443 -1.081,0 -1.958,0.868 -1.958,1.94 0,1.071 0.877,1.94 1.958,1.94 C -0.878,1.946 0,1.071 0,0 Z"
             id="path63"
             inkscape:connector-curvature="0"
             style="fill:#078930;stroke:#000000;stroke-width:0.20200001;stroke-miterlimit:3.86400008" />
        </g>
        <g
           transform="translate(146.7,732.59)"
           id="g65">
          <path
             stroke-miterlimit="3.864"
             d="M 0,0 2.814,-0.897 5.781,0.007 3.189,-1.486 2.814,-4.166 2.491,-1.486 Z"
             id="path67"
             inkscape:connector-curvature="0"
             style="fill:#fcdd09;stroke:#000000;stroke-width:0.20200001;stroke-miterlimit:3.86400008" />
        </g>
        <g
           transform="translate(132.72,765.87)"
           id="g73">
          <path
             stroke-miterlimit="3.864"
             d="m 0,0 v -3.157 h 0.911 v -9.248 h 0.993 v -1.876 H 4.05 v 1.876 h 3.023 v -1.876 H 8.349 V -3.147 H 8.882 V 0 H 7.025 V -1.287 H 5.338 V 0 H 3.23 V -1.287 H 1.84 V 0 Z"
             id="path75"
             inkscape:connector-curvature="0"
             style="fill:#ffffff;stroke:#000000;stroke-width:0.303;stroke-miterlimit:3.86400008" />
        </g>
        <g
           transform="translate(133.62,762.71)"
           id="g77">
          <path
             stroke-miterlimit="3.864"
             d="M 0,0 7.491,0.004"
             id="path79"
             inkscape:connector-curvature="0"
             style="fill:none;stroke:#000000;stroke-width:0.303;stroke-miterlimit:3.86400008" />
        </g>
        <g
           transform="translate(137.29,760.71)"
           id="g81">
          <path
             stroke-miterlimit="3.864"
             d="M 0,0 V -5.205"
             id="path83"
             inkscape:connector-curvature="0"
             style="fill:none;stroke:#000000;stroke-width:0.303;stroke-miterlimit:3.86400008" />
        </g>
        <g
           transform="translate(165.79,765.91)"
           id="g85">
          <path
             stroke-miterlimit="3.864"
             d="m 0,0 v -3.157 h -0.911 v -9.286 h -0.993 v -1.876 H -4.05 v 1.876 h -3.024 v -1.876 H -8.349 V -3.147 H -8.883 V 0 h 1.858 v -1.288 h 1.687 V 0 h 2.108 v -1.288 h 1.39 V 0 Z"
             id="path87"
             inkscape:connector-curvature="0"
             style="fill:#ffffff;stroke:#000000;stroke-width:0.303;stroke-miterlimit:3.86400008" />
        </g>
        <g
           transform="translate(164.88,762.75)"
           id="g89">
          <path
             stroke-miterlimit="3.864"
             d="M 0,0 -7.491,0.004"
             id="path91"
             inkscape:connector-curvature="0"
             style="fill:none;stroke:#000000;stroke-width:0.303;stroke-miterlimit:3.86400008" />
        </g>
        <g
           transform="translate(161.22,760.75)"
           id="g93">
          <path
             stroke-miterlimit="3.864"
             d="M 0,0 V -5.205"
             id="path95"
             inkscape:connector-curvature="0"
             style="fill:none;stroke:#000000;stroke-width:0.303;stroke-miterlimit:3.86400008" />
        </g>
        <g
           transform="translate(131.62,749.33)"
           id="g105">
          <path
             stroke-miterlimit="3.864"
             d="M 0,0 H 11.618 35.492"
             id="path107"
             inkscape:connector-curvature="0"
             style="fill:none;stroke:#000000;stroke-width:0.303;stroke-miterlimit:3.86400008" />
        </g>
        <g
           transform="translate(131.64,748.03)"
           id="g109">
          <path
             stroke-miterlimit="3.864"
             d="M 0,0 11.621,-0.045 35.501,0"
             id="path111"
             inkscape:connector-curvature="0"
             style="fill:none;stroke:#000000;stroke-width:0.303;stroke-miterlimit:3.86400008" />
        </g>
        <g
           transform="translate(159.79,729.24)"
           id="g113">
          <path
             stroke-miterlimit="3.864"
             d="m 0,0 c -0.286,12.875 -10.393,16.881 -10.393,16.881 0,0 -10.593,-5.723 -9.922,-16.881"
             id="path115"
             inkscape:connector-curvature="0"
             style="fill:none;stroke:#000000;stroke-width:0.20200001;stroke-miterlimit:3.86400008" />
        </g>
        <g
           transform="translate(139.47,745.41)"
           id="g117">
          <path
             d="M 0,0 C 0,0.474 0.385,0.858 0.858,0.858 1.332,0.858 1.717,0.474 1.717,0 1.717,-0.474 1.332,-0.859 0.858,-0.859 0.385,-0.859 0,-0.474 0,0"
             id="path119"
             inkscape:connector-curvature="0" />
        </g>
        <g
           transform="translate(139.47,745.41)"
           id="g121">
          <path
             stroke-miterlimit="3.864"
             d="M 0,0 C 0,0.474 0.385,0.858 0.858,0.858 1.332,0.858 1.717,0.474 1.717,0 1.717,-0.474 1.332,-0.859 0.858,-0.859 0.385,-0.859 0,-0.474 0,0 Z"
             id="path123"
             inkscape:connector-curvature="0"
             style="stroke:#000000;stroke-width:0.303;stroke-miterlimit:3.86400008" />
        </g>
        <g
           transform="translate(157.26,745.55)"
           id="g125">
          <path
             d="M 0,0 C 0,0.474 0.384,0.858 0.858,0.858 1.332,0.858 1.717,0.474 1.717,0 1.717,-0.474 1.332,-0.858 0.858,-0.858 0.384,-0.858 0,-0.474 0,0"
             id="path127"
             inkscape:connector-curvature="0" />
        </g>
        <g
           transform="translate(157.26,745.55)"
           id="g129">
          <path
             stroke-miterlimit="3.864"
             d="M 0,0 C 0,0.474 0.384,0.858 0.858,0.858 1.332,0.858 1.717,0.474 1.717,0 1.717,-0.474 1.332,-0.858 0.858,-0.858 0.384,-0.858 0,-0.474 0,0 Z"
             id="path131"
             inkscape:connector-curvature="0"
             style="stroke:#000000;stroke-width:0.303;stroke-miterlimit:3.86400008" />
        </g>
        <g
           transform="translate(146.36,741.06)"
           id="g133">
          <path
             d="m 0,0 -0.012,-2.649 c 0,-0.403 -0.604,-0.403 -0.604,0 l -0.01,2.101 C -0.626,-0.145 0,0.402 0,0"
             id="path135"
             inkscape:connector-curvature="0" />
        </g>
        <g
           transform="translate(146.36,741.06)"
           id="g137">
          <path
             stroke-miterlimit="3.864"
             d="m 0,0 -0.012,-2.649 c 0,-0.403 -0.604,-0.403 -0.604,0 l -0.01,2.101 C -0.626,-0.145 0,0.402 0,0 Z"
             id="path139"
             inkscape:connector-curvature="0"
             style="fill:none;stroke:#000000;stroke-width:0.027;stroke-miterlimit:3.86400008" />
        </g>
        <g
           transform="translate(147.98,742.48)"
           id="g141">
          <path
             d="m 0,0 0.01,-4.048 c 0,-0.403 -0.603,-0.403 -0.603,0 v 3.59 C -0.593,-0.056 0,0.403 0,0"
             id="path143"
             inkscape:connector-curvature="0" />
        </g>
        <g
           transform="translate(147.98,742.48)"
           id="g145">
          <path
             stroke-miterlimit="3.864"
             d="m 0,0 0.01,-4.048 c 0,-0.403 -0.603,-0.403 -0.603,0 v 3.59 C -0.593,-0.056 0,0.403 0,0 Z"
             id="path147"
             inkscape:connector-curvature="0"
             style="fill:none;stroke:#000000;stroke-width:0.027;stroke-miterlimit:3.86400008" />
        </g>
        <g
           transform="translate(149.67,743.34)"
           id="g149">
          <path
             d="m 0,0 -0.001,-4.932 c 0,-0.403 -0.603,-0.403 -0.603,0 V 0 C -0.604,0.403 0,0.402 0,0"
             id="path151"
             inkscape:connector-curvature="0" />
        </g>
        <g
           transform="translate(149.67,743.34)"
           id="g153">
          <path
             stroke-miterlimit="3.864"
             d="m 0,0 -0.001,-4.932 c 0,-0.403 -0.603,-0.403 -0.603,0 V 0 C -0.604,0.403 0,0.402 0,0 Z"
             id="path155"
             inkscape:connector-curvature="0"
             style="fill:none;stroke:#000000;stroke-width:0.027;stroke-miterlimit:3.86400008" />
        </g>
        <g
           transform="translate(151.29,742.03)"
           id="g157">
          <path
             d="m 0,0 -0.021,-3.618 c 0,-0.403 -0.604,-0.403 -0.604,0 L -0.626,0.616 C -0.626,1.019 0,0.402 0,0"
             id="path159"
             inkscape:connector-curvature="0" />
        </g>
        <g
           transform="translate(151.29,742.03)"
           id="g161">
          <path
             stroke-miterlimit="3.864"
             d="m 0,0 -0.021,-3.618 c 0,-0.403 -0.604,-0.403 -0.604,0 L -0.626,0.616 C -0.626,1.019 0,0.402 0,0 Z"
             id="path163"
             inkscape:connector-curvature="0"
             style="fill:none;stroke:#000000;stroke-width:0.027;stroke-miterlimit:3.86400008" />
        </g>
        <g
           transform="translate(152.69,740.85)"
           id="g165">
          <path
             d="m 0,0 -0.001,-2.434 c 0,-0.402 -0.603,-0.402 -0.603,0 L -0.612,0.582 C -0.612,0.985 0,0.403 0,0"
             id="path167"
             inkscape:connector-curvature="0" />
        </g>
        <g
           transform="translate(152.69,740.85)"
           id="g169">
          <path
             stroke-miterlimit="3.864"
             d="m 0,0 -0.001,-2.434 c 0,-0.402 -0.603,-0.402 -0.603,0 L -0.612,0.582 C -0.612,0.985 0,0.403 0,0 Z"
             id="path171"
             inkscape:connector-curvature="0"
             style="fill:none;stroke:#000000;stroke-width:0.027;stroke-miterlimit:3.86400008" />
        </g>
        <g
           transform="translate(144.41,739)"
           id="g173">
          <path
             stroke-miterlimit="3.864"
             d="M 0,0 H 9.963"
             id="path175"
             inkscape:connector-curvature="0"
             style="fill:none;stroke:#000000;stroke-width:0.53100002;stroke-miterlimit:3.86400008" />
        </g>
        <g
           transform="translate(155.77,753.53)"
           id="g177">
          <path
             stroke-miterlimit="3.864"
             transform="matrix(0.078162,0,0,-0.078162,-30.438,17.444)"
             d="m 349.56,77.219 c 0,0 0.45,6.408 -5,8.75 -6.84,2.942 -20.62,1.528 -24.12,9.281 -3.51,7.75 -0.24,15.88 8.72,19.37 10.56,4.12 41.08,-2.79 47.46,-2.56 7.58,0 9.81,5 9.19,9.16 -0.97,4.39 -4.03,5.86 -12.09,6.34 -4.94,0.23 -30.95,-2.44 -34.1,-2.34 -3.13,0.09 -20.94,-3.75 -38.42,-0.22 0,0 -23.38,38.4 -48.9,46 0,3.53 1.76,37 1.76,37 0,0 -12.26,-0.09 -14,14 h 29.28 c 0,0 7.1,-43.99 15.6,-48.38 -2.48,1.88 -5.96,8.92 -6.94,12.38 23.42,-4.62 47.99,-14.95 54,-22.53 2.24,11.78 4.17,27.95 39.09,29.72 1.76,8.29 4.49,15.24 5.22,17.09 -5.24,-1.76 -17.96,-3.62 -15.19,11.72 H 389 l 0.41,-40.44 c -6.98,-3.18 -16.16,-7.05 -19.19,-15.31 -2.18,-5.9 0,-15.08 2.9,-23.16 13.41,-5.43 26.11,-11.4 23.97,-25.37 -0.71,-4.68 -2.87,-7.54 -6.12,-10.38 -3.12,-2.73 -5.41,-3.59 -11.41,-4.09 -14.86,-1.27 -36.59,6.05 -40.84,2.66 -2.59,-2.08 -1.62,-6.344 0.94,-7.316 3.9,-1.868 14.66,-0.334 19.4,-5.656 7.28,-8.163 -1.37,-14.427 -9.5,-15.719 z"
             id="path179"
             inkscape:connector-curvature="0"
             style="fill:#fcdd09;stroke:#000000;stroke-width:3.71029997;stroke-linecap:round;stroke-miterlimit:3.86400008" />
        </g>
        <g
           transform="translate(148.87,761.18)"
           id="g185">
          <path
             stroke-miterlimit="3.864"
             transform="matrix(0.078162,0,0,-0.078162,-23.543,9.7858)"
             d="m 266.78,70.219 c -1.73,0.062 -3.99,0.939 -6.84,3.031 -7.64,-2.648 -18.1,-4.424 -21.6,2.625 -3.49,1.766 -19.24,-1.755 -15.75,8.813 0,5.283 -0.26,5.368 3.5,10.562 l 2.16,5.59 c -1.06,0.49 -2.88,1.7 -3.63,4.6 -1.07,4.18 -0.19,6.48 1.47,7.44 1.52,0 2.65,-0.87 6.66,-0.35 l 1.78,4.63 c -0.4,3.08 -1.1,5.33 -1.44,6.28 -1.74,7.03 -6.98,31.71 19.22,47.56 25.53,-7.6 48.88,-46 48.88,-46 0,0 -17.97,-32.24 -31.44,-43.844 2.62,-3.963 2.22,-11.125 -2.97,-10.937 z m -35.69,24.843 c 1.79,0.001 3.22,1.447 3.22,3.25 0,1.808 -1.43,3.248 -3.22,3.248 -1.79,0 -3.25,-1.44 -3.25,-3.248 0,-1.803 1.46,-3.25 3.25,-3.25 z"
             id="path187"
             inkscape:connector-curvature="0"
             style="fill:#fcdd09;stroke:#000000;stroke-width:3.71029997;stroke-linecap:round;stroke-miterlimit:3.86400008" />
        </g>
        <g
           transform="translate(143.14,763.29)"
           id="g189">
          <path
             stroke-miterlimit="3.864"
             d="M 0,0 C 0,0.141 0.113,0.255 0.253,0.255 0.393,0.255 0.506,0.141 0.506,0 0.506,-0.141 0.393,-0.255 0.253,-0.255 0.113,-0.255 0,-0.141 0,0 Z"
             id="path191"
             inkscape:connector-curvature="0"
             style="fill:#da121a;stroke:#000000;stroke-width:0.28999999;stroke-linecap:round;stroke-miterlimit:3.86400008" />
        </g>
        <g
           transform="translate(144.6,764.56)"
           id="g197">
          <path
             d="M 0,0 C 0,0.114 0.091,0.206 0.205,0.206 0.318,0.206 0.41,0.114 0.41,0 0.41,-0.114 0.318,-0.207 0.205,-0.207 0.091,-0.207 0,-0.114 0,0"
             id="path199"
             inkscape:connector-curvature="0" />
        </g>
        <g
           transform="translate(144.6,764.56)"
           id="g201">
          <path
             stroke-miterlimit="3.864"
             d="M 0,0 C 0,0.114 0.091,0.206 0.205,0.206 0.318,0.206 0.41,0.114 0.41,0 0.41,-0.114 0.318,-0.207 0.205,-0.207 0.091,-0.207 0,-0.114 0,0 Z"
             id="path203"
             inkscape:connector-curvature="0"
             style="fill:none;stroke:#000000;stroke-width:0.28999999;stroke-linecap:round;stroke-miterlimit:3.86400008" />
        </g>
        <g
           transform="translate(148.05,762.52)"
           id="g205">
          <path
             stroke-miterlimit="3.864"
             d="M 0,0 C 0,0 -0.036,-2.749 -4.366,-3.34"
             id="path207"
             inkscape:connector-curvature="0"
             style="fill:none;stroke:#000000;stroke-width:0.15099999;stroke-linecap:round;stroke-miterlimit:3.86400008" />
        </g>
        <g
           transform="translate(143.45,760.85)"
           id="g209">
          <path
             stroke-miterlimit="3.864"
             d="M 0,0 C 0,0 3.373,0 4.034,2.49"
             id="path211"
             inkscape:connector-curvature="0"
             style="fill:none;stroke:#000000;stroke-width:0.15099999;stroke-linecap:round;stroke-miterlimit:3.86400008" />
        </g>
        <g
           transform="translate(143.68,762.15)"
           id="g213">
          <path
             stroke-miterlimit="3.864"
             d="M 0,0 C 0,0 1.775,0 2.789,1.316"
             id="path215"
             inkscape:connector-curvature="0"
             style="fill:none;stroke:#000000;stroke-width:0.15099999;stroke-linecap:round;stroke-miterlimit:3.86400008" />
        </g>
        <g
           transform="translate(144.93,762.38)"
           id="g217">
          <path
             stroke-miterlimit="3.864"
             d="M 0,0 C 0,0 -1.421,-1.611 1.022,-4.401"
             id="path219"
             inkscape:connector-curvature="0"
             style="fill:none;stroke:#000000;stroke-width:0.15099999;stroke-linecap:round;stroke-miterlimit:3.86400008" />
        </g>
        <g
           transform="translate(145.68,762.74)"
           id="g221">
          <path
             stroke-miterlimit="3.864"
             d="M 0,0 C 0,0 -0.763,-1.968 1.508,-3.683"
             id="path223"
             inkscape:connector-curvature="0"
             style="fill:none;stroke:#000000;stroke-width:0.15099999;stroke-linecap:round;stroke-miterlimit:3.86400008" />
        </g>
        <g
           transform="translate(146.28,763.25)"
           id="g225">
          <path
             stroke-miterlimit="3.864"
             d="M 0,0 C 0,0 0.085,-2.12 1.918,-3.012"
             id="path227"
             inkscape:connector-curvature="0"
             style="fill:none;stroke:#000000;stroke-width:0.15099999;stroke-linecap:round;stroke-miterlimit:3.86400008" />
        </g>
        <g
           transform="translate(144.54,763.61)"
           id="g229">
          <path
             d="m 0,0 c 0.14,-0.421 0.282,-1.309 -0.315,-1.479 -0.097,-0.027 -0.138,0.119 -0.041,0.146 0.473,0.135 0.328,0.937 0.213,1.285 C -0.175,0.048 -0.032,0.096 0,0"
             id="path231"
             inkscape:connector-curvature="0" />
        </g>
      </g>
    </g>
    <path
       stroke-miterlimit="3.864"
       d="m 1857.0326,799.72003 c 0,0.99115 0.8068,1.79645 1.8014,1.79645 0.9946,0 1.8014,-0.8053 1.8014,-1.79645 0,-0.99114 -0.8068,-1.79644 -1.8014,-1.79644 -0.9946,0 -1.8014,0.8053 -1.8014,1.79644 z"
       id="path4606"
       inkscape:connector-curvature="0"
       style="fill:#da121a;stroke:#000000;stroke-width:2.05362988;stroke-linecap:round;stroke-miterlimit:3.86400008" />
  </g>
</svg>
