<?xml version="1.0" encoding="UTF-8" standalone="no"?>
<!-- Created with Inkscape (http://www.inkscape.org/) -->
<svg
   xmlns:dc="http://purl.org/dc/elements/1.1/"
   xmlns:cc="http://creativecommons.org/ns#"
   xmlns:rdf="http://www.w3.org/1999/02/22-rdf-syntax-ns#"
   xmlns:svg="http://www.w3.org/2000/svg"
   xmlns="http://www.w3.org/2000/svg"
   xmlns:sodipodi="http://sodipodi.sourceforge.net/DTD/sodipodi-0.dtd"
   xmlns:inkscape="http://www.inkscape.org/namespaces/inkscape"
   version="1.0"
   width="371"
   height="231"
   id="svg2"
   sodipodi:version="0.32"
   inkscape:version="0.46"
   sodipodi:docname="Flag_of_Dortmund.svg"
   sodipodi:docbase="C:\Dokumente und Einstellungen\Dateien von spekking - WICHTIG -\Eigene Bilder\Wikipedia\fremde"
   inkscape:output_extension="org.inkscape.output.svg.inkscape">
  <metadata
     id="metadata1936">
    <rdf:RDF>
      <cc:Work
         rdf:about="">
        <dc:format>image/svg+xml</dc:format>
        <dc:type
           rdf:resource="http://purl.org/dc/dcmitype/StillImage" />
      </cc:Work>
    </rdf:RDF>
  </metadata>
  <sodipodi:namedview
     inkscape:window-height="746"
     inkscape:window-width="1024"
     inkscape:pageshadow="2"
     inkscape:pageopacity="0.0"
     guidetolerance="10.0"
     gridtolerance="10.0"
     objecttolerance="10.0"
     borderopacity="1.0"
     bordercolor="#666666"
     pagecolor="#ffffff"
     id="base"
     inkscape:zoom="1.6320346"
     inkscape:cx="268.37289"
     inkscape:cy="114.15107"
     inkscape:window-x="0"
     inkscape:window-y="0"
     inkscape:current-layer="svg2"
     showgrid="false" />
  <defs
     id="defs5">
    <inkscape:perspective
       sodipodi:type="inkscape:persp3d"
       inkscape:vp_x="0 : 115.5 : 1"
       inkscape:vp_y="0 : 1000 : 0"
       inkscape:vp_z="371 : 115.5 : 1"
       inkscape:persp3d-origin="185.5 : 77 : 1"
       id="perspective16" />
  </defs>
  <rect
     width="371"
     height="115.5"
     x="0"
     y="0"
     style="opacity:1;fill:#d40000;fill-opacity:1"
     id="rect1873" />
  <rect
     width="371"
     height="115.5"
     x="0"
     y="115.5"
     style="opacity:1;fill:#ffffff;fill-opacity:1"
     id="rect2783" />
  <g
     transform="matrix(0.221101, 0, 0, 0.221101, 124.058, 55.0714)"
     style="opacity: 1;"
     id="g2772">
    <path
       d="M 2,2 L 547,2 L 547,278.96094 C 547,429.45898 424.99805,551.46094 274.5,551.46094 C 124.00195,551.46094 2,429.45898 2,278.96094 L 2,2 z "
       style="fill: rgb(227, 162, 34); stroke: black; stroke-width: 18.0913;"
       id="Shield" />
    <path
       d="M 272.3335,495.66699 C 257.3335,455.33301 215.66748,464.33398 215.66748,464.33398 C 215.66748,464.33398 215.33447,460.66699 215.00049,459.33398 C 245.6665,442.33398 251.00049,425.66699 253.00049,423.00098 C 253.00049,423.00098 247.33447,419.33398 242.00049,415.66699 C 218.3335,452 206.66748,451.66699 198.00049,455.33398 C 199.6665,460.66699 200.33447,473.66699 200.33447,473.66699 L 164.3335,441.33398 C 164.3335,441.33398 175.66748,426.33398 186.66748,413.66699 C 208.33447,409.66699 210.33447,403.66699 217.00049,396 C 217.00049,396 215.33447,391.66699 214.66748,387 C 242.00049,355.33301 235.66748,341 235.66748,341 L 219.66748,350.33301 L 215.00049,344.33301 L 177.00049,366.66699 L 203.00049,380 L 189.66748,405.66699 L 187.66748,405 L 186.66748,392.33398 L 161.3335,379 L 161.3335,415.33398 L 171.66748,421.33398 L 172.00049,423.66699 L 143.3335,426.66699 L 146.00049,387.66699 L 143.66748,385.66699 L 124.66748,398.33398 L 122.3335,411.33398 L 119.66748,412 L 106.00049,388 L 106.3335,385 L 135.66748,368.66699 L 112.3335,363 L 104.00049,370.33301 L 99.66748,370.33301 L 107.3335,343.33301 L 156.66748,356 L 181.66748,339 L 173.66748,333.66699 L 234.3335,276.66699 L 229.00049,234.33398 L 227.00049,234.33398 L 222.3335,275.33398 L 178.00049,312.33398 L 198.3335,231.66699 L 190.3335,229.66699 L 164.66748,325.33398 L 119.3335,334 L 170.66748,217.3335 L 167.3335,214.66699 L 104.66748,329.66699 L 67.667481,306.66699 L 151.66748,193.66699 L 148.33447,189.66699 L 66.16748,284 L 66.16748,227.33398 L 141.00049,161.66699 L 141.00049,158.66699 L 66.16748,214.66699 L 66.16748,172 L 141.00049,129.3335 L 141.00049,127 L 66.16748,161 L 66.16748,119.5 L 143.66748,101 L 143.66748,98 L 66.167481,111 L 66.167481,69.5 L 149.66748,74 C 149.66748,74 149.66748,71 151.16748,65 C 183.66748,64 193.16748,95 193.16748,95 C 193.16748,95 192.66748,137 193.16748,152.5 C 193.66748,168 216.3335,173 216.3335,173 L 218.3335,168 L 226.3335,166.3335 C 226.3335,166.3335 232.00049,145.3335 242.66699,131 C 239.3335,131 221.66699,132.00049 225.3335,112.3335 C 230,113 234.66699,114 234.66699,114 C 234.66699,114 234.3335,109.66699 208.3335,107.3335 C 208.3335,105.3335 208.3335,102.3335 208.3335,102.3335 L 218.66699,103 C 218.66699,103 215.33301,83.666504 215,76.666504 C 214.66699,69.666504 221.33398,64.333496 226.66699,64.333496 C 232,64.333496 237.33301,68 240,68 C 242.66699,67 250.3335,58.666504 250.3335,58.666504 L 300.66699,58.666504 L 300.66699,60.666504 L 318,60.666504 L 297.33398,86.666504 L 315.66699,113 L 304.66699,119.6665 L 305,123.6665 L 315,140.6665 L 302,140.6665 L 305,162.6665 L 313.33398,160.6665 L 320.5,175.5 C 320.5,175.5 351,168 351.5,152.5 C 352,137 351.5,95 351.5,95 C 351.5,95 361,64 393.5,65 C 395,71 395,74 395,74 L 478.5,69.5 L 478.5,111 L 401,98 L 401,101 L 478.5,119.5 L 478.5,161 L 403.66699,127 L 403.66699,129.3335 L 478.5,172 L 478.5,214.66699 L 403.66699,158.66699 L 403.66699,161.66699 L 478.5,227.3335 L 478.5,284 L 396.33301,189.66699 L 393,193.66699 L 477,306.66699 L 440,329.66699 L 377.33398,214.66699 L 374,217.3335 L 425.33398,334 L 380,325.33398 L 354.33398,229.66699 L 346.33398,231.66699 L 366.66699,312.33398 L 322.33398,275.33398 L 317.66699,234.3335 L 315.66699,234.3335 L 310.33398,276.66699 L 371,333.66699 L 363,339 L 388,356 L 437.33398,343.33301 L 445,370.33301 L 440.66699,370.33301 L 432.33398,363 L 409,368.66699 L 438.33398,385 L 438.66699,388 L 425,412 L 422.33398,411.33398 L 420,398.33398 L 401,385.66699 L 398.66699,387.66699 L 401.33398,426.66699 L 372.66699,423.66699 L 373,421.33398 L 383.33398,415.33398 L 383.33398,379 L 358,392.33398 L 357,405 L 355,405.66699 L 341.66699,380 L 367.66699,366.66699 L 329.66699,344.33301 L 325,350.33301 L 309,341 C 309,341 302.66699,355.33301 330,387 C 329.33301,391.66699 327.66699,396 327.66699,396 C 334.33301,403.66699 336.33301,409.66699 358,413.66699 C 369,426.33398 380.33398,441.33398 380.33398,441.33398 L 344.33301,473.66699 C 344.33301,473.66699 345.00098,460.66699 346.66699,455.33398 C 338,451.66699 326.33398,452 302.66699,415.66699 C 297.33301,419.33398 291.66699,423.00098 291.66699,423.00098 C 293.66699,425.66699 299.00098,442.33398 329.66699,459.33398 C 329.33301,460.66699 329,464.33398 329,464.33398 C 329,464.33398 287.33398,455.33301 272.3335,495.66699 z "
       id="path1416" />
    <path
       d="M 227,105 C 227,105 240.67236,109.05811 243.33936,110.72461 C 240.03271,103.70459 236.66699,93.666504 234.3335,93 C 232,92.333496 227,105 227,105 z "
       style="fill: rgb(227, 162, 34);"
       id="Mouth_gap" />
    <path
       d="M 223,99.166992 C 223,99.166992 228.3335,89 232.3335,88.666992 C 236.3335,88.333984 245.6665,99.666504 250,115 C 250,119.25 246.6665,120.5 243,120.5 C 239.3335,120.5 236.33301,118 233,118 C 229.66699,118 228.66699,117.66699 228.66699,120.3335 C 228.66699,123 236,126.3335 241,126.3335 C 246,126.3335 252.00049,125.6665 257.66699,125.6665 C 263.3335,125.6665 266.84814,123.33252 267,112.3335 C 267.25,94.25 245.25,69.5 229,70 C 225,71 213.6665,70.166992 223,99.166992 z "
       style="fill: rgb(210, 0, 0);"
       id="Red_beak" />
    <path
       d="M 260.6665,81.833496 L 277.33301,81.666992 L 265.6665,89.333496 C 265.6665,89.333496 260.99951,83.833496 260.6665,81.833496 z "
       style="fill: white;"
       id="Eye" />
    <polygon
       points="386.667,360.334 433,347.667 438,359.667 436,360.667 434.667,358 398,366.667 432.334,387 425.334,400.334 424,399 423.667,396 395.334,380 396.667,422 388.334,421.667 386.334,371.667 354,388.334 352.667,391.334 351,391.334 347,381.667 374,366.334 334,341.667 339.667,340 354,340 386.667,360.334"
       style="fill: rgb(210, 0, 0);"
       id="Left_claw" />
    <polygon
       points="158,360.334 111.667,347.667 106.667,359.667 108.667,360.667 110,358 146.667,366.667 112.334,387 119.334,400.334 120.667,399 121,396 149.333,380 148,422 156.333,421.667 158.333,371.667 190.667,388.334 192,391.334 193.667,391.334 197.667,381.667 170.667,366.334 210.667,341.667 205,340 190.667,340 158,360.334"
       style="fill: rgb(210, 0, 0);"
       id="Right_claw" />
  </g>
</svg>
