<?xml version="1.0" encoding="UTF-8" standalone="no"?>
<!-- Created with Inkscape (http://www.inkscape.org/) -->

<svg
   xmlns:ns="http://ns.adobe.com/SaveForWeb/1.0/"
   xmlns:dc="http://purl.org/dc/elements/1.1/"
   xmlns:cc="http://creativecommons.org/ns#"
   xmlns:rdf="http://www.w3.org/1999/02/22-rdf-syntax-ns#"
   xmlns:svg="http://www.w3.org/2000/svg"
   xmlns="http://www.w3.org/2000/svg"
   version="1.1"
   width="1020.473"
   height="612.28497"
   viewBox="0 0 1020.473 612.285"
   id="svg2"
   xml:space="preserve"><defs
   id="defs3118" />
<metadata
   id="metadata3051">
	<ns:sfw>
		<ns:slices />
		<ns:sliceSourceBounds
   bottomLeftOrigin="true"
   height="612.284"
   width="1020.473"
   x="-208.261"
   y="121.053">
			</ns:sliceSourceBounds>
	</ns:sfw>
	<rdf:RDF>
		<cc:Work
   rdf:about="">
			<dc:format>image/svg+xml</dc:format>
			<dc:type
   rdf:resource="http://purl.org/dc/dcmitype/StillImage" />
			<dc:title></dc:title>
		</cc:Work>
	</rdf:RDF>
	<ns:sfw>
		<ns:slices />
		<ns:sliceSourceBounds
   bottomLeftOrigin="true"
   height="612.285"
   width="1020.473"
   x="-212.736"
   y="114.357" />
	</ns:sfw>
</metadata>
<rect
   width="1020.473"
   height="612.28497"
   x="0"
   y="0"
   id="rect3053"
   style="fill:#d93a2f" />
<g
   id="_x23_ffffffff">
	<path
   d="m 280.41,145.454 c 8.002,-56.138 60.372,-101.54 117.144,-101.107 53.936,-1.867 105.372,37.335 118.375,89.573 11.303,40.569 -1.303,85.971 -30.67,115.874 9.665,12.368 19.503,24.569 29.436,36.702 20.701,-16.5 41.172,-33.335 61.739,-50.036 5.268,6.4 10.466,12.867 15.601,19.368 -20.536,16.833 -41.237,33.402 -61.704,50.27 9.864,12.368 19.734,24.768 29.735,37.036 33.801,-21.169 77.938,-24.668 114.272,-7.934 49.307,21.199 79.54,78.006 69.272,130.777 -8.634,56.602 -62.505,101.371 -119.706,99.671 -55.375,0.668 -106.908,-41.868 -117.276,-96.106 -8.8,-39.668 5.068,-82.538 33.801,-110.874 -9.734,-12.399 -19.602,-24.702 -29.566,-36.903 -20.503,16.502 -40.804,33.235 -61.373,49.704 -5.17,-6.437 -10.369,-12.869 -15.6,-19.269 20.431,-16.668 41,-33.168 61.369,-49.903 -9.633,-12.268 -19.504,-24.334 -29.169,-36.57 -33.17,21.502 -76.672,26.302 -113.143,10.569 -50.469,-20.169 -82.369,-77.272 -72.537,-130.842 m 69.572,-62.038 c 14.633,19.269 29.869,38.103 45.67,56.403 8.536,-22.501 17.469,-44.835 25.702,-67.438 -24.237,-5.366 -49.87,-1.167 -71.372,11.035 m 94.743,-1.935 c -8.601,22.536 -17.57,44.938 -25.738,67.606 23.768,-3.633 47.536,-7.367 71.307,-11.267 -7.103,-23.836 -23.869,-44.271 -45.569,-56.339 m -140.381,85.674 c 23.869,-3.467 47.672,-7.233 71.44,-11.334 -14.868,-18.935 -30.136,-37.569 -45.404,-56.203 -17.032,18.1 -26.303,42.736 -26.036,67.537 m 118.745,6.6 c 14.265,19.267 30.2,37.27 44.834,56.27 17.735,-17.568 26.538,-42.768 26.401,-67.505 -23.764,3.601 -47.502,7.402 -71.235,11.235 m -114.708,18.236 c 7.233,23.701 23.7,44.501 45.667,56.137 8.601,-22.402 17.404,-44.771 25.705,-67.305 -23.869,3.299 -47.604,7.267 -71.372,11.168 m 69.07,65.403 c 24.201,5.2 50.169,1.466 71.373,-11.5 -15.001,-18.836 -30.201,-37.502 -45.404,-56.171 -9.07,22.402 -17.736,44.969 -25.969,67.671 m 199.678,106.975 c 14.338,17.967 28.869,35.836 43.405,53.67 8.435,-21.301 16.234,-42.836 24.836,-64.07 -23.036,-5.603 -47.77,-1.235 -68.241,10.4 m 67.275,64.904 c 23.833,-3.435 47.535,-7.4 71.304,-11.134 -6.902,-23.901 -23.801,-44.238 -45.368,-56.403 -8.901,22.4 -17.535,44.934 -25.936,67.537 m -88.806,-49.336 c -16.635,18.302 -26.271,42.668 -25.672,67.504 23.836,-3.601 47.672,-7.233 71.44,-11.367 -15.167,-18.801 -30.035,-37.835 -45.768,-56.137 m 92.839,74.305 c 14.936,18.901 30.136,37.604 45.436,56.169 16.867,-18.233 26.269,-42.733 25.937,-67.569 -23.837,3.6 -47.674,7.132 -71.373,11.4 m -114.676,17.999 c 7.334,23.739 23.836,44.307 45.67,56.241 8.702,-22.437 17.502,-44.84 25.767,-67.439 -23.866,3.398 -47.633,7.298 -71.437,11.198 m 94.909,-2.132 c -8.868,22.202 -16.902,44.703 -26.005,66.837 24.002,6.735 50.473,1.934 71.639,-10.866 -15.202,-18.667 -29.969,-37.705 -45.634,-55.971 z"
   id="path3114"
   style="fill:#ffffff" />
</g>
</svg>