<?xml version="1.0" encoding="UTF-8" standalone="no"?>
<svg
   viewBox="0 0 1000 600"
   version="1.1"
   id="svg875"
   width="1000"
   height="600"
   xmlns:xlink="http://www.w3.org/1999/xlink"
   xmlns="http://www.w3.org/2000/svg"
   xmlns:svg="http://www.w3.org/2000/svg">
  <defs
     id="defs851">
    <clipPath
       id="c">
      <use
         xlink:href="#a"
         id="use848" />
    </clipPath>
  </defs>
  <g
     id="g1997"
     transform="translate(1336.9161,377.44167)">
    <path
       id="rect1062"
       style="fill:#ffffff;fill-opacity:1;stroke:none;stroke-width:25.6797;stroke-linecap:square;stroke-miterlimit:10;stop-color:#000000"
       d="m -1336.9161,-377.44167 h 1000 v 600 h -1000 z" />
    <path
       id="rect1062-9"
       style="fill:#005198;fill-opacity:1;stroke:none;stroke-width:18.1583;stroke-linecap:square;stroke-miterlimit:10;stop-color:#000000"
       d="m -1336.9161,-77.44167 h 1000.00002 v 300 H -1336.9161 Z" />
  </g>
  <g
     id="g1008"
     transform="matrix(0.56666667,0,0,0.56666667,329.96601,119.8)">
    <path
       d="m 14.53,355.9 c 6.113,152.4 131.6,274.1 285.5,274.1 153.9,0 279.4,-121.7 285.5,-274.1 L 600.06,0 h -600 z"
       id="path853" />
    <path
       id="a"
       d="m 17,19 12.41,336 c 4.9,145.2 124.7,261.4 271.1,261.4 146.4,0 266.2,-116.2 271.1,-261.4 l 12.4,-336 z"
       fill="#fcdb00" />
    <g
       clip-path="url(#c)"
       id="g873">
      <use
         xlink:href="#b"
         stroke="#000000"
         stroke-width="142"
         id="use856" />
      <g
         stroke="#da251d"
         stroke-width="126"
         id="g859">
        <path
           id="b"
           d="M 11,1 380,638" />
      </g>
      <g
         stroke="#000000"
         stroke-width="8"
         id="g871">
        <path
           d="M 600,168.5 V 19 H 303 v 149.5 z"
           fill="#da251d"
           id="path861" />
        <path
           d="M 600,318 V 168.5 H 303 V 318 Z"
           fill="#ffffff"
           id="path863" />
        <path
           d="M 600,467.5 V 318 H 303 v 149.5 z"
           fill="#005198"
           id="path865" />
        <path
           d="M 600,628 V 467.5 H 303 V 628 Z"
           fill="#fcdb00"
           id="path867" />
        <path
           stroke-width="12"
           d="M 300.5,14 V 617"
           id="path869" />
      </g>
    </g>
  </g>
</svg>
