<?xml version="1.0" encoding="UTF-8" standalone="no"?>
<svg
   inkscape:version="1.1.1 (3bf5ae0d25, 2021-09-20)"
   sodipodi:docname="Flag Koblenz.svg"
   id="svg2130"
   version="1.1"
   viewBox="0 0 600.00065 400.00064"
   height="400.00064"
   width="600.00067"
   xmlns:inkscape="http://www.inkscape.org/namespaces/inkscape"
   xmlns:sodipodi="http://sodipodi.sourceforge.net/DTD/sodipodi-0.dtd"
   xmlns="http://www.w3.org/2000/svg"
   xmlns:svg="http://www.w3.org/2000/svg">
  <defs
     id="defs2124" />
  <sodipodi:namedview
     inkscape:pagecheckerboard="false"
     fit-margin-bottom="0"
     fit-margin-right="0"
     fit-margin-left="0"
     fit-margin-top="0"
     lock-margins="true"
     units="px"
     inkscape:snap-smooth-nodes="true"
     inkscape:snap-object-midpoints="true"
     inkscape:window-maximized="1"
     inkscape:window-y="-11"
     inkscape:window-x="-11"
     inkscape:window-height="1506"
     inkscape:window-width="2560"
     showgrid="false"
     inkscape:document-rotation="0"
     inkscape:current-layer="layer1"
     inkscape:document-units="px"
     inkscape:cy="200"
     inkscape:cx="300"
     inkscape:zoom="1.5"
     inkscape:pageshadow="2"
     inkscape:pageopacity="0"
     borderopacity="1.0"
     bordercolor="#666666"
     pagecolor="#333333"
     id="base"
     showguides="true"
     inkscape:guide-bbox="true"
     inkscape:snap-intersection-paths="true"
     inkscape:object-paths="true"
     inkscape:snap-grids="false"
     inkscape:snap-global="true"
     inkscape:lockguides="false"
     guidecolor="#00ffff"
     guideopacity="0.49803922"
     inkscape:snap-midpoints="true" />
  <g
     id="layer1"
     inkscape:groupmode="layer"
     inkscape:label="koblenz"
     transform="translate(-3.33333,-93.33333)">
    <g
       id="g834"
       transform="matrix(0.5,0,0,0.5,3.33333,93.33333)"
       inkscape:label="flag">
      <path
         fill="#ffffff"
         d="M 0,0 H 1200 V 800 H 0 Z"
         id="path2"
         inkscape:label="flag-w" />
      <path
         id="rect4"
         style="fill:#ed1c24;stroke-width:1"
         d="M 533.0013,0.001308 V 333.0013 H 0.0013088 v 134 H 533.0013 v 333 h 134 v -333 h 533 v -134 h -533 V 0.001308 Z"
         inkscape:label="cross" />
      <g
         id="g915"
         inkscape:label="crown">
        <path
           d="m 513.39,351.82 8.088,17.374 c 3.96,8.508 9.443,14.653 17.689,14.653 8.246,0 16.06,-12.805 17.794,-20.62 2.595,7.385 11.282,19.958 19.527,19.958 8.246,0 15.945,-9.107 15.945,-27.11 v -19.286 c -3.03,-3.288 -4.99,-8.361 -4.99,-14.09 0,-5.725 1.838,-10.851 4.99,-14.15 v -31.32 l -3.803,-3.887 c 0,0 -4.99,1.639 -6.303,3.256 -4.716,5.798 -8.393,11.07 -8.393,11.07 0,0 -6.208,-7.857 -12.195,-11.607 -6.03,-3.781 -16.639,-7.531 -16.639,-7.531 0,0 8.393,-7.416 12.542,-13.183 4.107,-5.725 8.466,-15.945 8.466,-15.945 0,0 8.992,7.647 15.557,11.261 1.765,0.977 3.782,1.933 6.01,2.815 l 7.09,-7.111 c -1.786,-2.637 -3.55,-5.389 -5.326,-7.521 -4.8,-5.725 -14.03,-13.05 -14.03,-13.05 0,0 9.223,-6.292 14.05,-11.45 4.853,-5.2 10.536,-14.905 10.536,-14.905 0,0 5.693,9.706 10.546,14.905 4.832,5.158 14.05,11.45 14.05,11.45 0,0 -9.233,7.321 -14.04,13.05 -1.765,2.132 -3.54,4.885 -5.315,7.521 l 7.09,7.111 c 2.216,-0.882 4.244,-1.838 5.998,-2.815 6.565,-3.613 15.567,-11.261 15.567,-11.261 0,0 4.359,10.221 8.466,15.945 4.149,5.767 12.542,13.183 12.542,13.183 0,0 -10.609,3.75 -16.639,7.531 -5.987,3.75 -12.195,11.607 -12.195,11.607 0,0 -3.697,-5.273 -8.393,-11.07 -1.313,-1.618 -6.303,-3.256 -6.303,-3.256 l -3.813,3.887 v 31.32 c 3.151,3.298 4.979,8.424 4.979,14.15 0,5.725 -1.954,10.798 -4.979,14.09 v 19.286 c 0,18 7.71,27.11 15.956,27.11 8.246,0 16.912,-12.574 19.527,-19.958 1.733,7.815 9.548,20.62 17.773,20.62 8.246,0 13.761,-6.176 17.7,-14.653 l 8.12,-17.374 c -1.355,-4.275 -0.977,-9.706 1.429,-14.884 2.427,-5.2 6.25,-9.07 10.504,-10.704 l 13.235,-28.403 -1.796,-5.137 c 0,0 -5.231,-0.609 -7.09,0.294 -6.723,3.267 -12.29,6.471 -12.29,6.471 0,0 -2.3,-9.727 -6.145,-15.662 -3.876,-5.977 -11.901,-13.845 -11.901,-13.845 0,0 10.746,-3.183 16.933,-6.649 6.145,-3.456 14.412,-10.893 14.412,-10.893 0,0 4.927,10.746 9.349,16.796 1.187,1.618 2.615,3.34 4.254,5.084 l 9.433,-3.445 c -0.504,-3.151 -0.935,-6.387 -1.66,-9.05 -1.912,-7.237 -7.206,-17.763 -7.206,-17.763 0,0 11.03,-1.817 17.584,-4.454 6.597,-2.658 15.861,-9.03 15.861,-9.03 0,0 1.05,11.187 3.256,17.952 2.185,6.723 7.889,16.313 7.889,16.313 0,0 -11.46,2.731 -18.235,5.914 -2.51,1.166 -5.273,2.91 -8,4.559 l 3.414,9.422 c 2.395,0.147 4.622,0.137 6.649,0 7.468,-0.494 18.855,-3.635 18.855,-3.635 0,0 -0.368,11.124 0.935,18.04 1.323,6.975 5.788,17.258 5.788,17.258 0,0 -11.187,-1.103 -18.256,-0.221 -7.02,0.861 -15.945,5.357 -15.945,5.357 0,0 -1.124,-6.324 -2.941,-13.582 -0.504,-2.01 -4.338,-5.609 -4.338,-5.609 l -5.095,1.922 -13.246,28.382 c 1.471,4.328 0.966,9.737 -1.45,14.937 -2.416,5.168 -6.313,8.95 -10.452,10.662 l -22.91,49.08 c -7.374,16.712 1.155,26.03 1.155,26.03 -7.269,7.941 -8.729,18.624 -8.708,28.445 v 8.803 c 0,9.821 -33.782,17.847 -69.906,17.847 -36.11,0 -69.906,-8.03 -69.906,-17.847 v -8.803 c 0.032,-9.821 -1.429,-20.504 -8.697,-28.445 0,0 8.529,-9.328 1.166,-26.03 l -22.9,-49.08 c -4.139,-1.712 -8.07,-5.494 -10.483,-10.662 -2.416,-5.2 -2.92,-10.609 -1.439,-14.937 l -13.246,-28.382 -5.094,-1.922 c 0,0 -3.834,3.603 -4.338,5.609 -1.828,7.258 -2.941,13.582 -2.941,13.582 0,0 -8.939,-4.496 -15.956,-5.357 -7.06,-0.882 -18.246,0.221 -18.246,0.221 0,0 4.464,-10.284 5.788,-17.258 1.303,-6.912 0.935,-18.04 0.935,-18.04 0,0 11.387,3.141 18.855,3.635 2.01,0.137 4.244,0.147 6.639,0 l 3.414,-9.422 c -2.731,-1.649 -5.483,-3.393 -7.994,-4.559 -6.775,-3.183 -18.235,-5.914 -18.235,-5.914 0,0 5.693,-9.59 7.889,-16.313 2.206,-6.765 3.256,-17.952 3.256,-17.952 0,0 9.254,6.376 15.861,9.03 6.555,2.637 17.574,4.454 17.574,4.454 0,0 -5.284,10.525 -7.195,17.763 -0.725,2.668 -1.156,5.903 -1.66,9.05 l 9.433,3.445 c 1.639,-1.744 3.057,-3.466 4.254,-5.084 4.422,-6.05 9.349,-16.796 9.349,-16.796 0,0 8.267,7.437 14.401,10.893 6.197,3.466 16.933,6.649 16.933,6.649 0,0 -8.04,7.868 -11.891,13.845 -3.844,5.935 -6.145,15.662 -6.145,15.662 0,0 -5.567,-3.204 -12.29,-6.471 -1.87,-0.903 -7.09,-0.294 -7.09,-0.294 l -1.817,5.137 13.256,28.403 c 4.254,1.639 8.07,5.504 10.504,10.704 2.395,5.179 2.805,10.609 1.45,14.884"
           fill="#fcdd09"
           id="path10"
           style="fill:#ffdd00;stroke:none"
           inkscape:label="crown-0" />
        <path
           stroke="#231f20"
           stroke-width="4.8"
           d="m 513.39,351.82 8.088,17.374 c 3.96,8.508 9.443,14.653 17.689,14.653 8.246,0 16.06,-12.805 17.794,-20.62 2.595,7.385 11.282,19.958 19.527,19.958 8.246,0 15.945,-9.107 15.945,-27.11 v -19.286 c -3.03,-3.288 -4.99,-8.361 -4.99,-14.09 0,-5.725 1.838,-10.851 4.99,-14.15 v -31.32 l -3.803,-3.887 c 0,0 -4.99,1.639 -6.303,3.256 -4.716,5.798 -8.393,11.07 -8.393,11.07 0,0 -6.208,-7.857 -12.195,-11.607 -6.03,-3.781 -16.639,-7.531 -16.639,-7.531 0,0 8.393,-7.416 12.542,-13.183 4.107,-5.725 8.466,-15.945 8.466,-15.945 0,0 8.992,7.647 15.557,11.261 1.765,0.977 3.782,1.933 6.01,2.815 l 7.09,-7.111 c -1.786,-2.637 -3.55,-5.389 -5.326,-7.521 -4.8,-5.725 -14.03,-13.05 -14.03,-13.05 0,0 9.223,-6.292 14.05,-11.45 4.853,-5.2 10.536,-14.905 10.536,-14.905 0,0 5.693,9.706 10.546,14.905 4.832,5.158 14.05,11.45 14.05,11.45 0,0 -9.233,7.321 -14.04,13.05 -1.765,2.132 -3.54,4.885 -5.315,7.521 l 7.09,7.111 c 2.216,-0.882 4.244,-1.838 5.998,-2.815 6.565,-3.613 15.567,-11.261 15.567,-11.261 0,0 4.359,10.221 8.466,15.945 4.149,5.767 12.542,13.183 12.542,13.183 0,0 -10.609,3.75 -16.639,7.531 -5.987,3.75 -12.195,11.607 -12.195,11.607 0,0 -3.697,-5.273 -8.393,-11.07 -1.313,-1.618 -6.303,-3.256 -6.303,-3.256 l -3.813,3.887 v 31.32 c 3.151,3.298 4.979,8.424 4.979,14.15 0,5.725 -1.954,10.798 -4.979,14.09 v 19.286 c 0,18 7.71,27.11 15.956,27.11 8.246,0 16.912,-12.574 19.527,-19.958 1.733,7.815 9.548,20.62 17.773,20.62 8.246,0 13.761,-6.176 17.7,-14.653 l 8.12,-17.374 c -1.355,-4.275 -0.977,-9.706 1.429,-14.884 2.427,-5.2 6.25,-9.07 10.504,-10.704 l 13.235,-28.403 -1.796,-5.137 c 0,0 -5.231,-0.609 -7.09,0.294 -6.723,3.267 -12.29,6.471 -12.29,6.471 0,0 -2.3,-9.727 -6.145,-15.662 -3.876,-5.977 -11.901,-13.845 -11.901,-13.845 0,0 10.746,-3.183 16.933,-6.649 6.145,-3.456 14.412,-10.893 14.412,-10.893 0,0 4.927,10.746 9.349,16.796 1.187,1.618 2.616,3.34 4.254,5.084 l 9.433,-3.445 c -0.504,-3.151 -0.935,-6.387 -1.66,-9.05 -1.912,-7.237 -7.206,-17.763 -7.206,-17.763 0,0 11.03,-1.817 17.584,-4.454 6.597,-2.658 15.861,-9.03 15.861,-9.03 0,0 1.05,11.187 3.256,17.952 2.185,6.723 7.889,16.313 7.889,16.313 0,0 -11.46,2.731 -18.235,5.914 -2.51,1.166 -5.273,2.91 -8,4.559 l 3.414,9.422 c 2.395,0.147 4.622,0.137 6.649,0 7.468,-0.494 18.855,-3.635 18.855,-3.635 0,0 -0.368,11.124 0.935,18.04 1.323,6.975 5.788,17.258 5.788,17.258 0,0 -11.187,-1.103 -18.256,-0.221 -7.02,0.861 -15.945,5.357 -15.945,5.357 0,0 -1.124,-6.324 -2.941,-13.582 -0.504,-2.01 -4.338,-5.609 -4.338,-5.609 l -5.095,1.922 -13.246,28.382 c 1.471,4.328 0.966,9.737 -1.45,14.937 -2.416,5.168 -6.313,8.95 -10.452,10.662 l -22.91,49.08 c -7.374,16.712 1.155,26.03 1.155,26.03 -7.269,7.941 -8.729,18.624 -8.708,28.445 v 8.803 c 0,9.821 -33.782,17.847 -69.906,17.847 -36.11,0 -69.906,-8.03 -69.906,-17.847 v -8.803 c 0.032,-9.821 -1.429,-20.504 -8.697,-28.445 0,0 8.529,-9.328 1.166,-26.03 l -22.899,-49.08 c -4.139,-1.712 -8.07,-5.494 -10.483,-10.662 -2.416,-5.2 -2.92,-10.609 -1.439,-14.937 l -13.246,-28.382 -5.094,-1.922 c 0,0 -3.834,3.603 -4.338,5.609 -1.828,7.258 -2.941,13.582 -2.941,13.582 0,0 -8.939,-4.496 -15.956,-5.357 -7.06,-0.882 -18.246,0.221 -18.246,0.221 0,0 4.464,-10.284 5.788,-17.258 1.303,-6.912 0.935,-18.04 0.935,-18.04 0,0 11.387,3.141 18.855,3.635 2.01,0.137 4.244,0.147 6.639,0 l 3.414,-9.422 c -2.731,-1.649 -5.483,-3.393 -7.994,-4.559 -6.775,-3.183 -18.235,-5.914 -18.235,-5.914 0,0 5.693,-9.59 7.889,-16.313 2.206,-6.765 3.256,-17.952 3.256,-17.952 0,0 9.254,6.376 15.861,9.03 6.555,2.637 17.574,4.454 17.574,4.454 0,0 -5.284,10.525 -7.195,17.763 -0.725,2.668 -1.156,5.903 -1.66,9.05 l 9.433,3.445 c 1.639,-1.744 3.057,-3.466 4.254,-5.084 4.422,-6.05 9.349,-16.796 9.349,-16.796 0,0 8.267,7.437 14.401,10.893 6.197,3.466 16.933,6.649 16.933,6.649 0,0 -8.04,7.868 -11.891,13.845 -3.844,5.935 -6.145,15.662 -6.145,15.662 0,0 -5.567,-3.204 -12.29,-6.471 -1.87,-0.903 -7.09,-0.294 -7.09,-0.294 l -1.817,5.137 13.256,28.403 c 4.254,1.639 8.07,5.504 10.504,10.704 2.395,5.179 2.805,10.609 1.45,14.884 z"
           fill="none"
           id="path12"
           style="stroke:#000000;stroke-opacity:1"
           inkscape:label="crown-f" />
        <path
           d="m 603.61,256.48 c 0.567,1.092 0.662,2.3 0.662,3.613 0,4.338 -3.54,7.878 -7.878,7.878 -1.313,0 -2.521,-0.42 -3.614,-0.987 1.313,2.521 4.191,4.265 7.216,4.265 4.349,0 7.878,-3.529 7.878,-7.878 0,-3.046 -1.744,-5.578 -4.265,-6.891 m -124.41,24.286 c 0.567,1.092 0.987,2.3 0.987,3.613 0,4.349 -3.529,7.878 -7.878,7.878 -1.313,0 -2.847,-0.095 -3.939,-0.651 1.313,2.521 4.191,3.939 7.227,3.939 4.338,0 7.878,-3.519 7.878,-7.878 0,-3.036 -1.754,-5.588 -4.275,-6.901 m 248.16,0.987 c 0.567,1.092 0.987,2.3 0.987,3.613 0,4.349 -3.529,7.878 -7.878,7.878 -1.313,0 -2.847,-0.42 -3.939,-0.987 1.313,2.521 4.191,4.265 7.227,4.265 4.338,0 7.878,-3.529 7.878,-7.878 0,-3.03 -1.765,-5.578 -4.275,-6.891 m -127.69,80.75 c 0,17.994 -10.557,27.24 -18.708,27.24 0,0 16.292,1.523 18.708,-6.229 2.416,7.752 18.708,6.229 18.708,6.229 -8.151,0 -18.708,-9.244 -18.708,-27.24 m -85.35,9.842 c 6.177,15.851 10.326,26.838 24.622,19.04 -12.826,0 -20.368,-9.863 -24.622,-19.04 m 170.37,0 c -4.265,9.181 -11.46,19.04 -24.296,19.04 14.317,7.794 18.12,-3.193 24.296,-19.04 m -80.42,42.02 c 0.714,1.376 0.977,2.931 0.977,4.601 0,5.515 -4.328,10.168 -9.842,10.168 -1.67,0 -3.214,-0.599 -4.601,-1.313 1.67,3.193 5.01,5.588 8.866,5.588 5.515,0 9.853,-4.664 9.853,-10.179 0,-3.866 -2.069,-7.195 -5.252,-8.866 m -41.691,3.614 c 0.725,1.376 0.987,2.931 0.987,4.59 0,5.515 -4.338,9.853 -9.853,9.853 -1.649,0 -3.214,-0.263 -4.59,-0.987 1.66,3.193 5.01,5.252 8.855,5.252 5.515,0 9.853,-4.328 9.853,-9.842 0,-3.866 -2.048,-7.195 -5.252,-8.866 m 83.37,0 c 0.714,1.376 1.313,2.931 1.313,4.59 0,5.515 -4.643,9.853 -10.168,9.853 -1.66,0 -3.225,-0.263 -4.601,-0.987 1.67,3.193 5.02,5.252 8.866,5.252 5.515,0 10.179,-4.328 10.179,-9.842 0,-3.866 -2.395,-7.195 -5.588,-8.866 m -46.28,32.16 c -18.235,0 -36.01,2.279 -49.23,5.588 -6.618,1.649 -12.04,3.592 -16.09,5.903 -4.044,2.321 -6.891,5.04 -6.891,8.866 h 4.601 c 0,-1.082 1.177,-2.973 4.59,-4.926 3.414,-1.954 8.75,-3.666 15.11,-5.252 12.689,-3.172 30.04,-5.252 47.92,-5.252 17.889,0 35.23,2.08 47.931,5.252 6.345,1.586 11.681,3.298 15.1,5.252 3.414,1.954 4.601,3.844 4.601,4.926 h 4.59 c 0,-3.824 -2.847,-6.544 -6.891,-8.866 -4.044,-2.311 -9.475,-4.254 -16.08,-5.903 -13.225,-3.309 -31.01,-5.588 -49.24,-5.588 m -10e-5,9.853 c -31.586,0 -62.42,6.586 -67.29,15.1 8.403,7.637 36.985,13.466 67.29,13.466 2.71,0 5.546,-0.252 8.204,-0.336 -20.588,-1.796 -37.416,-4.37 -37.416,-10.83 0,-9.05 43.508,-12.05 77.14,-12.469 -12.92,-3.172 -30.1,-4.926 -47.931,-4.926"
           fill="#231f20"
           id="path14"
           style="fill:#000000;stroke:none"
           inkscape:label="crown-c" />
      </g>
    </g>
  </g>
</svg>
