<!-- Created with Inkscape (http://www.inkscape.org/) -->
<svg xmlns:rdf="http://www.w3.org/1999/02/22-rdf-syntax-ns#" xmlns="http://www.w3.org/2000/svg" height="300" width="500" version="1.1" xmlns:cc="http://creativecommons.org/ns#" xmlns:dc="http://purl.org/dc/elements/1.1/">
 <metadata>
  <rdf:RDF>
   <cc:Work rdf:about="">
    <dc:format>image/svg+xml</dc:format>
    <dc:type rdf:resource="http://purl.org/dc/dcmitype/StillImage"/>
    <dc:title/>
   </cc:Work>
  </rdf:RDF>
 </metadata>
 <g transform="translate(0,-300)">
  <rect height="150" width="500" y="300" x="-3.5119E-7" fill="#0039a6"/>
  <path stroke-linejoin="miter" style="enable-background:accumulate;color:#000000;" d="M0.25103,450.15,0.96569,599.75,499.75,599.49,499.71,450.31" stroke-dashoffset="0" stroke="#000" stroke-linecap="butt" stroke-miterlimit="4" stroke-dasharray="none" stroke-width="0.5020625" fill="#f4f0e8"/>
  <g transform="matrix(0.4,0,0,0.4,170.54635,330.25851)">
   <g transform="translate(-125.60276,-201.48483)">
    <g transform="translate(20.534199,427.58389)">
     <g transform="translate(113.29161,-224.39159)">
      <rect transform="matrix(0.91649538,-0.40004527,0.27851748,0.96043116,0,0)" height="34.919" width="37.485" y="101.6" x="46.852" fill="#f4f0e8"/>
      <rect transform="matrix(0.99990116,0.01405918,-0.13058468,0.99143716,0,0)" height="40.391" width="39.939" y="54.297" x="148.41" fill="#f4f0e8"/>
      <rect transform="matrix(0.97105213,0.23886768,-0.32039235,0.94728493,0,0)" height="41.454" width="38.146" y="1.3416" x="222.21" fill="#f4f0e8"/>
      <rect transform="matrix(0.99982254,-0.01883834,-0.16280395,0.98665844,0,0)" height="40.437" width="41.292" y="78.404" x="291.07" fill="#f4f0e8"/>
      <path stroke-linejoin="round" d="m51.977,143.13c-5.0496-13.026-8.3045-25.846,43.33-40.251,56.109-11.305,121.34-9.1885,179.57,2.188,32.224,7.684,51.491,25.221,54.047,40.164-50.871,2.5364-91.859-4.1512-128.49-14.901-60.209,19.684-102.74,13.959-148.45,12.799z" stroke="#000" stroke-linecap="butt" stroke-miterlimit="4" stroke-dasharray="none" stroke-width="2" fill="#f4f0e8"/>
      <path stroke-linejoin="round" d="m76.174,144.17c-4.0397-10.421-6.7524-19.931,33.949-26.404,53.658-11.168,102.94-7.4202,151.52,0.25253,25.779,6.1472,42.907,15.32,44.952,27.274-37.287,0.0277-73.613-2.6354-106.18-15.83-40.293,14.239-81.933,17.259-124.24,14.707z" stroke="#000" stroke-linecap="butt" stroke-miterlimit="4" stroke-dasharray="none" stroke-width="2" fill="none"/>
      <path stroke-linejoin="miter" d="m166.42,4,21,0,0,10,14,0,0-10,21,0,0,23-6,3-44,0-6-3z" stroke="#000" stroke-linecap="butt" stroke-miterlimit="4" stroke-dasharray="none" stroke-width="2" fill="#f4f0e8"/>
      <rect height="1.6071" width="1.7857" y="24.714" x="180.06" fill="#000"/>
      <rect height="1.6071" width="2.0536" y="25.518" x="191.49" fill="#000"/>
      <rect height="2.3214" width="1.9643" y="12.125" x="213.46" fill="#000"/>
      <rect height="1.875" width="2.1429" y="16.232" x="212.74" fill="#000"/>
      <path stroke-linejoin="miter" d="m172.42,29.737,2.5051,65.525,37.673,1.2092,1.82-66.48z" stroke="#000" stroke-linecap="butt" stroke-miterlimit="4" stroke-dasharray="none" stroke-width="2" fill="#f4f0e8"/>
      <g transform="matrix(0.97224553,-0.23396287,0.23396287,0.97224553,-88.452663,47.608196)">
       <g transform="matrix(0.99985355,-0.01711376,0.01711376,0.99985355,-5.1714754,-0.62813677)">
        <path stroke-linejoin="miter" d="m176,15,21,0,0,10,14,0,0-10,21,0,0,23-6,3-44,0-6-3z" stroke="#000" stroke-linecap="butt" stroke-miterlimit="4" stroke-dasharray="none" stroke-width="2" fill="#f4f0e8"/>
        <rect height="1.4286" width="1.4286" y="19.643" x="180.89" fill="#000"/>
        <rect height="1.5179" width="1.9643" y="22.589" x="180.8" fill="#000"/>
        <rect height="1.7857" width="1.9643" y="25.625" x="180.8" fill="#000"/>
        <rect height="1.7857" width="2.1429" y="28.839" x="180.98" fill="#000"/>
        <rect height="1.6071" width="2.1429" y="32.589" x="181.25" fill="#000"/>
        <rect height="1.7857" width="2.2321" y="35.268" x="182.14" fill="#000"/>
        <rect height="1.6071" width="1.875" y="32.232" x="185.18" fill="#000"/>
        <rect height="1.6964" width="1.6071" y="35.357" x="186.07" fill="#000"/>
        <rect height="1.6071" width="1.7857" y="35.714" x="189.64" fill="#000"/>
        <rect height="1.4286" width="1.7857" y="36.25" x="193.39" fill="#000"/>
        <rect height="1.7857" width="1.875" y="36.071" x="197.23" fill="#000"/>
        <rect height="1.6071" width="2.0536" y="36.518" x="201.07" fill="#000"/>
        <rect height="1.4286" width="1.6071" y="36.696" x="204.64" fill="#000"/>
        <rect height="1.7857" width="2.0536" y="36.696" x="208.3" fill="#000"/>
        <rect height="2.3214" width="1.9643" y="23.125" x="223.04" fill="#000"/>
        <rect height="2.3214" width="2.1429" y="26.696" x="225.54" fill="#000"/>
        <rect height="2.1429" width="1.9643" y="33.125" x="226.07" fill="#000"/>
        <rect height="1.6964" width="2.2321" y="35.982" x="224.46" fill="#000"/>
        <rect height="1.6964" width="2.2321" y="36.339" x="221.7" fill="#000"/>
        <rect height="1.875" width="2.5" y="36.518" x="218.12" fill="#000"/>
        <rect height="1.25" width="2.4107" y="36.875" x="214.91" fill="#000"/>
        <rect height="1.875" width="1.875" y="31.964" x="214.02" fill="#000"/>
        <rect height="1.6071" width="1.7857" y="32.321" x="217.32" fill="#000"/>
        <rect height="1.6964" width="2.0536" y="33.393" x="221.61" fill="#000"/>
        <rect height="1.9643" width="2.0536" y="30.536" x="222.32" fill="#000"/>
        <rect height="1.875" width="2.1429" y="27.232" x="222.32" fill="#000"/>
        <rect height="1.7857" width="1.875" y="29.286" x="219.2" fill="#000"/>
        <rect height="1.875" width="2.2321" y="35.268" x="211.16" fill="#000"/>
       </g>
      </g>
      <g transform="matrix(0.89693821,-0.44215591,0.44215591,0.89693821,-162.49346,112.37812)">
       <path stroke-linejoin="miter" d="m176,15,21,0,0,10,14,0,0-10,21,0,0,23-6,3-44,0-6-3z" stroke="#000" stroke-linecap="butt" stroke-miterlimit="4" stroke-dasharray="none" stroke-width="2" fill="#f4f0e8"/>
       <rect height="1.4286" width="1.4286" y="19.643" x="180.89" fill="#000"/>
       <rect height="1.5179" width="1.9643" y="22.589" x="180.8" fill="#000"/>
       <rect height="1.7857" width="1.9643" y="25.625" x="180.8" fill="#000"/>
       <rect height="1.7857" width="2.1429" y="28.839" x="180.98" fill="#000"/>
       <rect height="1.6071" width="2.1429" y="32.589" x="181.25" fill="#000"/>
       <rect height="1.7857" width="2.2321" y="35.268" x="182.14" fill="#000"/>
       <rect height="1.6071" width="1.875" y="32.232" x="185.18" fill="#000"/>
       <rect height="1.6964" width="1.6071" y="35.357" x="186.07" fill="#000"/>
       <rect height="1.6071" width="1.7857" y="35.714" x="189.64" fill="#000"/>
       <rect height="1.4286" width="1.7857" y="36.25" x="193.39" fill="#000"/>
       <rect height="1.7857" width="1.875" y="36.071" x="197.23" fill="#000"/>
       <rect height="1.6071" width="2.0536" y="36.518" x="201.07" fill="#000"/>
       <rect height="1.4286" width="1.6071" y="36.696" x="204.64" fill="#000"/>
       <rect height="1.7857" width="2.0536" y="36.696" x="208.3" fill="#000"/>
       <rect height="2.3214" width="1.9643" y="23.125" x="223.04" fill="#000"/>
       <rect height="2.3214" width="2.1429" y="26.696" x="225.54" fill="#000"/>
       <rect height="2.1429" width="1.9643" y="33.125" x="226.07" fill="#000"/>
       <rect height="1.6964" width="2.2321" y="35.982" x="224.46" fill="#000"/>
       <rect height="1.6964" width="2.2321" y="36.339" x="221.7" fill="#000"/>
       <rect height="1.875" width="2.5" y="36.518" x="218.12" fill="#000"/>
       <rect height="1.25" width="2.4107" y="36.875" x="214.91" fill="#000"/>
       <rect height="1.875" width="1.875" y="31.964" x="214.02" fill="#000"/>
       <rect height="1.6071" width="1.7857" y="32.321" x="217.32" fill="#000"/>
       <rect height="1.6964" width="2.0536" y="33.393" x="221.61" fill="#000"/>
       <rect height="1.9643" width="2.0536" y="30.536" x="222.32" fill="#000"/>
       <rect height="1.875" width="2.1429" y="27.232" x="222.32" fill="#000"/>
       <rect height="1.7857" width="1.875" y="29.286" x="219.2" fill="#000"/>
       <rect height="1.875" width="2.2321" y="35.268" x="211.16" fill="#000"/>
      </g>
      <g transform="matrix(-0.86297933,-0.50523922,-0.50523922,0.86297933,541.2399,139.86102)">
       <path stroke-linejoin="miter" d="m176,15,21,0,0,10,14,0,0-10,21,0-1.2216,23.319-6.6428,3.0375-42.14-0.356-6-3z" stroke="#000" stroke-linecap="butt" stroke-miterlimit="4" stroke-dasharray="none" stroke-width="2" fill="#f4f0e8"/>
       <rect height="1.4286" width="1.4286" y="19.643" x="180.89" fill="#000"/>
       <rect height="1.5179" width="1.9643" y="22.589" x="180.8" fill="#000"/>
       <rect height="1.7857" width="1.9643" y="25.625" x="180.8" fill="#000"/>
       <rect height="1.7857" width="2.1429" y="28.839" x="180.98" fill="#000"/>
       <rect height="1.6071" width="2.1429" y="32.589" x="181.25" fill="#000"/>
       <rect height="1.7857" width="2.2321" y="35.268" x="182.14" fill="#000"/>
       <rect height="1.6071" width="1.875" y="32.232" x="185.18" fill="#000"/>
       <rect height="1.6964" width="1.6071" y="35.357" x="186.07" fill="#000"/>
       <rect height="1.6071" width="1.7857" y="35.714" x="189.64" fill="#000"/>
       <rect height="1.4286" width="1.7857" y="36.25" x="193.39" fill="#000"/>
       <rect height="1.7857" width="1.875" y="36.071" x="197.23" fill="#000"/>
       <rect height="1.6071" width="2.0536" y="36.518" x="201.07" fill="#000"/>
       <rect height="1.4286" width="1.6071" y="36.696" x="204.64" fill="#000"/>
       <rect height="1.7857" width="2.0536" y="36.696" x="208.3" fill="#000"/>
       <rect height="2.3214" width="1.9643" y="23.125" x="223.04" fill="#000"/>
       <rect height="2.3214" width="2.1429" y="26.696" x="225.54" fill="#000"/>
       <rect height="2.1429" width="1.9643" y="33.125" x="226.07" fill="#000"/>
       <rect height="1.6964" width="2.2321" y="35.982" x="224.46" fill="#000"/>
       <rect height="1.6964" width="2.2321" y="36.339" x="221.7" fill="#000"/>
       <rect height="1.875" width="2.5" y="36.518" x="218.12" fill="#000"/>
       <rect height="1.25" width="2.4107" y="36.875" x="214.91" fill="#000"/>
       <rect height="1.875" width="1.875" y="31.964" x="214.02" fill="#000"/>
       <rect height="1.6071" width="1.7857" y="32.321" x="217.32" fill="#000"/>
       <rect height="1.6964" width="2.0536" y="33.393" x="221.61" fill="#000"/>
       <rect height="1.9643" width="2.0536" y="30.536" x="222.32" fill="#000"/>
       <rect height="1.875" width="2.1429" y="27.232" x="222.32" fill="#000"/>
       <rect height="1.7857" width="1.875" y="29.286" x="219.2" fill="#000"/>
       <rect height="1.875" width="2.2321" y="35.268" x="211.16" fill="#000"/>
      </g>
      <g transform="matrix(-0.94284185,-0.33324052,-0.33324052,0.94284185,483.01725,70.58467)">
       <path stroke-linejoin="miter" d="m176,15,21,0,0,10,14,0,0-10,21,0,0,23-6,3-43.643-1.0102-5.6038-3.0494z" stroke="#000" stroke-linecap="butt" stroke-miterlimit="4" stroke-dasharray="none" stroke-width="2" fill="#f4f0e8"/>
       <rect height="1.4286" width="1.4286" y="19.643" x="180.89" fill="#000"/>
       <rect height="1.5179" width="1.9643" y="22.589" x="180.8" fill="#000"/>
       <rect height="1.7857" width="1.9643" y="25.625" x="180.8" fill="#000"/>
       <rect height="1.7857" width="2.1429" y="28.839" x="180.98" fill="#000"/>
       <rect height="1.6071" width="2.1429" y="32.589" x="181.25" fill="#000"/>
       <rect height="1.7857" width="2.2321" y="35.268" x="182.14" fill="#000"/>
       <rect height="1.6071" width="1.875" y="32.232" x="185.18" fill="#000"/>
       <rect height="1.6964" width="1.6071" y="35.357" x="186.07" fill="#000"/>
       <rect height="1.6071" width="1.7857" y="35.714" x="189.64" fill="#000"/>
       <rect height="1.4286" width="1.7857" y="36.25" x="193.39" fill="#000"/>
       <rect height="1.7857" width="1.875" y="36.071" x="197.23" fill="#000"/>
       <rect height="1.6071" width="2.0536" y="36.518" x="201.07" fill="#000"/>
       <rect height="1.4286" width="1.6071" y="36.696" x="204.64" fill="#000"/>
       <rect height="1.7857" width="2.0536" y="36.696" x="208.3" fill="#000"/>
       <rect height="2.3214" width="1.9643" y="23.125" x="223.04" fill="#000"/>
       <rect height="2.3214" width="2.1429" y="26.696" x="225.54" fill="#000"/>
       <rect height="2.1429" width="1.9643" y="33.125" x="226.07" fill="#000"/>
       <rect height="1.6964" width="2.2321" y="35.982" x="224.46" fill="#000"/>
       <rect height="1.6964" width="2.2321" y="36.339" x="221.7" fill="#000"/>
       <rect height="1.875" width="2.5" y="36.518" x="218.12" fill="#000"/>
       <rect height="1.25" width="2.4107" y="36.875" x="214.91" fill="#000"/>
       <rect height="1.875" width="1.875" y="31.964" x="214.02" fill="#000"/>
       <rect height="1.6071" width="1.7857" y="32.321" x="217.32" fill="#000"/>
       <rect height="1.6964" width="2.0536" y="33.393" x="221.61" fill="#000"/>
       <rect height="1.9643" width="2.0536" y="30.536" x="222.32" fill="#000"/>
       <rect height="1.875" width="2.1429" y="27.232" x="222.32" fill="#000"/>
       <rect height="1.7857" width="1.875" y="29.286" x="219.2" fill="#000"/>
       <rect height="1.875" width="2.2321" y="35.268" x="211.16" fill="#000"/>
      </g>
      <g transform="matrix(0.94827288,0.31745636,-0.31745636,0.94827288,97.534856,-63.68126)">
       <path stroke-linejoin="miter" d="m182,42,4.8008,67.389,35.675-5.9448,1.52-61.45z" stroke="#000" stroke-linecap="butt" stroke-miterlimit="4" stroke-dasharray="none" stroke-width="2" fill="#f4f0e8"/>
       <path fill="#000" d="m193.71,48.929c0.0714-2.5714,4.0714-2.5714,4.2857,0v11.071h-4.29z"/>
       <path fill="#000" d="m208.71,48.929c0.0714-2.5714,4.0714-2.5714,4.2857,0v11.071h-4.29z"/>
       <g fill="#000" transform="translate(5.5357159,25.3125)">
        <rect y="19.643" width="1.4286" x="180.89" height="1.4286"/>
        <rect y="22.589" width="1.9643" x="180.8" height="1.5179"/>
        <rect y="25.625" width="1.9643" x="180.8" height="1.7857"/>
        <rect y="28.839" width="2.1429" x="180.98" height="1.7857"/>
        <rect y="32.589" width="2.1429" x="181.25" height="1.6071"/>
        <rect y="35.804" width="2.2321" x="181.34" height="1.7857"/>
       </g>
       <g fill="#000" transform="translate(6.3839312,44.776786)">
        <rect y="19.643" width="1.4286" x="180.89" height="1.4286"/>
        <rect y="22.589" width="1.9643" x="180.8" height="1.5179"/>
        <rect y="25.625" width="1.9643" x="180.8" height="1.7857"/>
        <rect y="28.839" width="2.1429" x="180.98" height="1.7857"/>
        <rect y="32.589" width="2.1429" x="181.25" height="1.6071"/>
        <rect y="35.804" width="2.2321" x="181.34" height="1.7857"/>
       </g>
       <g fill="#000" transform="translate(7.4553598,63.526787)">
        <rect y="19.643" width="1.4286" x="180.89" height="1.4286"/>
        <rect y="22.589" width="1.9643" x="180.8" height="1.5179"/>
        <rect y="25.625" width="1.9643" x="180.8" height="1.7857"/>
        <rect y="28.839" width="2.1429" x="180.98" height="1.7857"/>
        <rect y="32.589" width="2.1429" x="181.25" height="1.6071"/>
        <rect y="35.804" width="2.2321" x="181.34" height="1.7857"/>
       </g>
       <g fill="#000" transform="matrix(1,0,0,-1,37.544646,82.187497)">
        <rect y="19.643" width="1.4286" x="180.89" height="1.4286"/>
        <rect y="22.589" width="1.9643" x="180.8" height="1.5179"/>
        <rect y="25.625" width="1.9643" x="180.8" height="1.7857"/>
        <rect y="28.839" width="2.1429" x="180.98" height="1.7857"/>
        <rect y="32.589" width="2.1429" x="181.25" height="1.6071"/>
        <rect y="35.804" width="2.2321" x="181.34" height="1.7857"/>
       </g>
       <g fill="#000" transform="matrix(1,0,0,-1,35.758932,111.29464)">
        <rect y="19.643" width="1.4286" x="180.89" height="1.4286"/>
        <rect y="22.589" width="1.9643" x="180.8" height="1.5179"/>
        <rect y="25.625" width="1.9643" x="180.8" height="1.7857"/>
        <rect y="28.839" width="2.1429" x="180.98" height="1.7857"/>
        <rect y="32.589" width="2.1429" x="181.25" height="1.6071"/>
        <rect y="35.804" width="2.2321" x="181.34" height="1.7857"/>
       </g>
       <g fill="#000" transform="matrix(1,0,0,-1,31.741074,121.74107)">
        <rect y="19.643" width="1.4286" x="180.89" height="1.4286"/>
        <rect y="22.589" width="1.9643" x="180.8" height="1.5179"/>
        <rect y="25.625" width="1.9643" x="180.8" height="1.7857"/>
        <rect y="28.839" width="2.1429" x="180.98" height="1.7857"/>
        <rect y="32.589" width="2.1429" x="181.25" height="1.6071"/>
        <rect y="35.804" width="2.2321" x="181.34" height="1.7857"/>
       </g>
       <g fill="#000" transform="matrix(1,0,0,-1,21.235998,121.95681)">
        <rect y="19.643" width="1.4286" x="180.89" height="1.4286"/>
        <rect y="22.589" width="1.9643" x="180.8" height="1.5179"/>
        <rect y="25.625" width="1.9643" x="180.8" height="1.7857"/>
        <rect y="28.839" width="2.1429" x="180.98" height="1.7857"/>
       </g>
       <g fill="#000" transform="matrix(1,0,0,-1,35.624998,123.25892)">
        <rect y="41.48" width="1.4286" x="177.71" height="1.4286"/>
        <rect y="22.589" width="1.9643" x="180.8" height="1.5179"/>
        <rect y="25.625" width="1.9643" x="180.8" height="1.7857"/>
        <rect y="28.839" width="2.1429" x="180.98" height="1.7857"/>
       </g>
       <g fill="#000" transform="matrix(1,0,0,-1,25.39885,120.76188)">
        <rect y="19.643" width="1.4286" x="180.89" height="1.4286"/>
        <rect y="22.589" width="1.9643" x="180.8" height="1.5179"/>
        <rect y="25.625" width="1.9643" x="180.8" height="1.7857"/>
        <rect y="28.839" width="2.1429" x="180.98" height="1.7857"/>
        <rect y="32.589" width="2.1429" x="181.25" height="1.6071"/>
        <rect y="35.804" width="2.2321" x="181.34" height="1.7857"/>
       </g>
      </g>
      <g transform="matrix(0.86298732,0.50522558,-0.50522558,0.86298732,189.45157,-65.911902)">
       <path stroke-linejoin="miter" d="m183.77,41.102,0.80846,58.88c12.258-0.56244,24.315,1.3653,36.427,6.3105l3.9131-65.256z" stroke="#000" stroke-linecap="butt" stroke-miterlimit="4" stroke-dasharray="none" stroke-width="2" fill="#f4f0e8"/>
       <path fill="#000" d="m193.71,48.929c0.0714-2.5714,4.0714-2.5714,4.2857,0v11.071h-4.29z"/>
       <path fill="#000" d="m208.71,48.929c0.0714-2.5714,4.0714-2.5714,4.2857,0v11.071h-4.29z"/>
       <g fill="#000" transform="translate(5.5357159,25.3125)">
        <rect y="19.643" width="1.4286" x="180.89" height="1.4286"/>
        <rect y="22.589" width="1.9643" x="180.8" height="1.5179"/>
        <rect y="25.625" width="1.9643" x="180.8" height="1.7857"/>
        <rect y="28.839" width="2.1429" x="180.98" height="1.7857"/>
        <rect y="32.589" width="2.1429" x="181.25" height="1.6071"/>
        <rect y="35.804" width="2.2321" x="181.34" height="1.7857"/>
       </g>
       <g fill="#000" transform="translate(6.3839312,44.776786)">
        <rect y="19.643" width="1.4286" x="180.89" height="1.4286"/>
        <rect y="22.589" width="1.9643" x="180.8" height="1.5179"/>
        <rect y="25.625" width="1.9643" x="180.8" height="1.7857"/>
        <rect y="28.839" width="2.1429" x="180.98" height="1.7857"/>
        <rect y="32.589" width="2.1429" x="181.25" height="1.6071"/>
        <rect y="35.804" width="2.2321" x="181.34" height="1.7857"/>
       </g>
       <g fill="#000" transform="translate(7.4553598,63.526787)">
        <rect y="19.643" width="1.4286" x="180.89" height="1.4286"/>
        <rect y="22.589" width="1.9643" x="180.8" height="1.5179"/>
        <rect y="25.625" width="1.9643" x="180.8" height="1.7857"/>
        <rect y="28.839" width="2.1429" x="180.98" height="1.7857"/>
        <rect y="32.589" width="2.1429" x="181.25" height="1.6071"/>
       </g>
       <g fill="#000" transform="matrix(1,0,0,-1,37.544646,82.187497)">
        <rect y="19.643" width="1.4286" x="180.89" height="1.4286"/>
        <rect y="22.589" width="1.9643" x="180.8" height="1.5179"/>
        <rect y="25.625" width="1.9643" x="180.8" height="1.7857"/>
        <rect y="28.839" width="2.1429" x="180.98" height="1.7857"/>
        <rect y="32.589" width="2.1429" x="181.25" height="1.6071"/>
        <rect y="35.804" width="2.2321" x="181.34" height="1.7857"/>
       </g>
       <g fill="#000" transform="matrix(1,0,0,-1,35.758932,111.29464)">
        <rect y="19.643" width="1.4286" x="180.89" height="1.4286"/>
        <rect y="22.589" width="1.9643" x="180.8" height="1.5179"/>
        <rect y="25.625" width="1.9643" x="180.8" height="1.7857"/>
        <rect y="28.839" width="2.1429" x="180.98" height="1.7857"/>
        <rect y="32.589" width="2.1429" x="181.25" height="1.6071"/>
        <rect y="35.804" width="2.2321" x="181.34" height="1.7857"/>
       </g>
       <g fill="#000" transform="matrix(1,0,0,-1,31.741074,121.74107)">
        <rect y="19.643" width="1.4286" x="180.89" height="1.4286"/>
        <rect y="22.589" width="1.9643" x="180.8" height="1.5179"/>
        <rect y="25.625" width="1.9643" x="180.8" height="1.7857"/>
        <rect y="28.839" width="2.1429" x="180.98" height="1.7857"/>
        <rect y="32.589" width="2.1429" x="181.25" height="1.6071"/>
        <rect y="35.804" width="2.2321" x="181.34" height="1.7857"/>
       </g>
       <g fill="#000" transform="matrix(1,0,0,-1,21.235998,121.95681)">
        <rect y="22.589" width="1.9643" x="180.8" height="1.5179"/>
        <rect y="25.625" width="1.9643" x="180.8" height="1.7857"/>
        <rect y="28.839" width="2.1429" x="180.98" height="1.7857"/>
       </g>
       <g fill="#000" transform="matrix(1,0,0,-1,35.624998,123.25892)">
        <rect y="19.643" width="1.4286" x="180.89" height="1.4286"/>
        <rect y="22.589" width="1.9643" x="180.8" height="1.5179"/>
        <rect y="25.625" width="1.9643" x="180.8" height="1.7857"/>
        <rect y="28.839" width="2.1429" x="180.98" height="1.7857"/>
       </g>
       <g fill="#000" transform="matrix(1,0,0,-1,25.39885,120.76188)">
        <rect y="19.643" width="1.4286" x="180.89" height="1.4286"/>
        <rect y="22.589" width="1.9643" x="180.8" height="1.5179"/>
        <rect y="25.625" width="1.9643" x="180.8" height="1.7857"/>
        <rect y="28.839" width="2.1429" x="180.98" height="1.7857"/>
        <rect y="32.589" width="2.1429" x="181.25" height="1.6071"/>
        <rect y="35.804" width="2.2321" x="181.34" height="1.7857"/>
       </g>
      </g>
      <g transform="matrix(0.96966129,-0.24445243,0.24445243,0.96966129,-93.796579,46.868907)">
       <path stroke-linejoin="miter" d="m182.25,41.02,2.2147,60.58c12.999,0.915,25.259,2.8487,37.197,5.2263l2.53-65.565z" stroke="#000" stroke-linecap="butt" stroke-miterlimit="4" stroke-dasharray="none" stroke-width="2" fill="#f4f0e8"/>
       <path fill="#000" d="m193.71,48.929c0.0714-2.5714,4.0714-2.5714,4.2857,0v11.071h-4.29z"/>
       <path fill="#000" d="m208.71,48.929c0.0714-2.5714,4.0714-2.5714,4.2857,0v11.071h-4.29z"/>
       <g fill="#000" transform="translate(5.5357159,25.3125)">
        <rect y="19.643" width="1.4286" x="180.89" height="1.4286"/>
        <rect y="22.589" width="1.9643" x="180.8" height="1.5179"/>
        <rect y="25.625" width="1.9643" x="180.8" height="1.7857"/>
        <rect y="28.839" width="2.1429" x="180.98" height="1.7857"/>
        <rect y="32.589" width="2.1429" x="181.25" height="1.6071"/>
        <rect y="35.804" width="2.2321" x="181.34" height="1.7857"/>
       </g>
       <g fill="#000" transform="translate(6.3839312,44.776786)">
        <rect y="19.643" width="1.4286" x="180.89" height="1.4286"/>
        <rect y="22.589" width="1.9643" x="180.8" height="1.5179"/>
        <rect y="25.625" width="1.9643" x="180.8" height="1.7857"/>
        <rect y="28.839" width="2.1429" x="180.98" height="1.7857"/>
        <rect y="32.589" width="2.1429" x="181.25" height="1.6071"/>
        <rect y="35.804" width="2.2321" x="181.34" height="1.7857"/>
       </g>
       <g fill="#000" transform="translate(7.4553598,63.526787)">
        <rect y="19.643" width="1.4286" x="180.89" height="1.4286"/>
        <rect y="22.589" width="1.9643" x="180.8" height="1.5179"/>
        <rect y="25.625" width="1.9643" x="180.8" height="1.7857"/>
        <rect y="28.839" width="2.1429" x="180.98" height="1.7857"/>
        <rect y="32.589" width="2.1429" x="181.25" height="1.6071"/>
        <rect y="24.928" width="2.2321" x="194.5" height="1.7857"/>
       </g>
       <g fill="#000" transform="matrix(1,0,0,-1,37.544646,82.187497)">
        <rect y="19.643" width="1.4286" x="180.89" height="1.4286"/>
        <rect y="22.589" width="1.9643" x="180.8" height="1.5179"/>
        <rect y="25.625" width="1.9643" x="180.8" height="1.7857"/>
        <rect y="28.839" width="2.1429" x="180.98" height="1.7857"/>
        <rect y="32.589" width="2.1429" x="181.25" height="1.6071"/>
        <rect y="35.804" width="2.2321" x="181.34" height="1.7857"/>
       </g>
       <g fill="#000" transform="matrix(1,0,0,-1,35.758932,111.29464)">
        <rect y="19.643" width="1.4286" x="180.89" height="1.4286"/>
        <rect y="22.589" width="1.9643" x="180.8" height="1.5179"/>
        <rect y="25.625" width="1.9643" x="180.8" height="1.7857"/>
        <rect y="28.839" width="2.1429" x="180.98" height="1.7857"/>
        <rect y="32.589" width="2.1429" x="181.25" height="1.6071"/>
        <rect y="35.804" width="2.2321" x="181.34" height="1.7857"/>
       </g>
       <g fill="#000" transform="matrix(1,0,0,-1,31.741074,121.74107)">
        <rect y="19.643" width="1.4286" x="180.89" height="1.4286"/>
        <rect y="22.589" width="1.9643" x="180.8" height="1.5179"/>
        <rect y="25.625" width="1.9643" x="180.8" height="1.7857"/>
        <rect y="28.839" width="2.1429" x="180.98" height="1.7857"/>
        <rect y="32.589" width="2.1429" x="181.25" height="1.6071"/>
        <rect y="35.804" width="2.2321" x="181.34" height="1.7857"/>
       </g>
       <g fill="#000" transform="matrix(1,0,0,-1,21.235998,121.95681)">
        <rect y="19.643" width="1.4286" x="180.89" height="1.4286"/>
        <rect y="22.589" width="1.9643" x="180.8" height="1.5179"/>
        <rect y="25.625" width="1.9643" x="180.8" height="1.7857"/>
        <rect y="28.839" width="2.1429" x="180.98" height="1.7857"/>
       </g>
       <g fill="#000" transform="matrix(1,0,0,-1,35.624998,123.25892)">
        <rect y="19.643" width="1.4286" x="180.89" height="1.4286"/>
        <rect y="22.589" width="1.9643" x="180.8" height="1.5179"/>
        <rect y="25.625" width="1.9643" x="180.8" height="1.7857"/>
        <rect y="28.839" width="2.1429" x="180.98" height="1.7857"/>
       </g>
       <g fill="#000" transform="matrix(1,0,0,-1,25.39885,120.76188)">
        <rect y="19.643" width="1.4286" x="180.89" height="1.4286"/>
        <rect y="22.589" width="1.9643" x="180.8" height="1.5179"/>
        <rect y="25.625" width="1.9643" x="180.8" height="1.7857"/>
        <rect y="28.839" width="2.1429" x="180.98" height="1.7857"/>
        <rect y="32.589" width="2.1429" x="181.25" height="1.6071"/>
        <rect y="35.804" width="2.2321" x="181.34" height="1.7857"/>
       </g>
      </g>
      <g transform="matrix(0.88078663,-0.47351338,0.47351338,0.88078663,-160.56268,118.87358)">
       <path stroke-linejoin="miter" d="M182.49,40.643,184,105c12.769-3.1313,25.442-2.9868,38.033-0.12889l2.2918-62.41z" stroke="#000" stroke-linecap="butt" stroke-miterlimit="4" stroke-dasharray="none" stroke-width="2" fill="#f4f0e8"/>
       <path fill="#000" d="m193.71,48.929c0.0714-2.5714,4.0714-2.5714,4.2857,0v11.071h-4.29z"/>
       <path fill="#000" d="m208.71,48.929c0.0714-2.5714,4.0714-2.5714,4.2857,0v11.071h-4.29z"/>
       <g fill="#000" transform="translate(5.5357159,25.3125)">
        <rect y="19.643" width="1.4286" x="180.89" height="1.4286"/>
        <rect y="22.589" width="1.9643" x="180.8" height="1.5179"/>
        <rect y="25.625" width="1.9643" x="180.8" height="1.7857"/>
        <rect y="28.839" width="2.1429" x="180.98" height="1.7857"/>
        <rect y="32.589" width="2.1429" x="181.25" height="1.6071"/>
        <rect y="35.804" width="2.2321" x="181.34" height="1.7857"/>
       </g>
       <g fill="#000" transform="translate(6.3839312,44.776786)">
        <rect y="19.643" width="1.4286" x="180.89" height="1.4286"/>
        <rect y="22.589" width="1.9643" x="180.8" height="1.5179"/>
        <rect y="25.625" width="1.9643" x="180.8" height="1.7857"/>
        <rect y="28.839" width="2.1429" x="180.98" height="1.7857"/>
        <rect y="32.589" width="2.1429" x="181.25" height="1.6071"/>
        <rect y="35.804" width="2.2321" x="181.34" height="1.7857"/>
       </g>
       <g fill="#000" transform="translate(7.4553598,63.526787)">
        <rect y="19.643" width="1.4286" x="180.89" height="1.4286"/>
        <rect y="22.589" width="1.9643" x="180.8" height="1.5179"/>
        <rect y="25.625" width="1.9643" x="180.8" height="1.7857"/>
        <rect y="28.839" width="2.1429" x="180.98" height="1.7857"/>
        <rect y="32.589" width="2.1429" x="181.25" height="1.6071"/>
        <rect y="35.804" width="2.2321" x="181.34" height="1.7857"/>
       </g>
       <g fill="#000" transform="matrix(1,0,0,-1,37.544646,82.187497)">
        <rect y="19.643" width="1.4286" x="180.89" height="1.4286"/>
        <rect y="22.589" width="1.9643" x="180.8" height="1.5179"/>
        <rect y="25.625" width="1.9643" x="180.8" height="1.7857"/>
        <rect y="28.839" width="2.1429" x="180.98" height="1.7857"/>
        <rect y="32.589" width="2.1429" x="181.25" height="1.6071"/>
        <rect y="35.804" width="2.2321" x="181.34" height="1.7857"/>
       </g>
       <g fill="#000" transform="matrix(1,0,0,-1,35.758932,111.29464)">
        <rect y="19.643" width="1.4286" x="180.89" height="1.4286"/>
        <rect y="22.589" width="1.9643" x="180.8" height="1.5179"/>
        <rect y="25.625" width="1.9643" x="180.8" height="1.7857"/>
        <rect y="28.839" width="2.1429" x="180.98" height="1.7857"/>
        <rect y="32.589" width="2.1429" x="181.25" height="1.6071"/>
        <rect y="35.804" width="2.2321" x="181.34" height="1.7857"/>
       </g>
       <g fill="#000" transform="matrix(1,0,0,-1,31.741074,121.74107)">
        <rect y="19.643" width="1.4286" x="180.89" height="1.4286"/>
        <rect y="22.589" width="1.9643" x="180.8" height="1.5179"/>
        <rect y="25.625" width="1.9643" x="180.8" height="1.7857"/>
        <rect y="28.839" width="2.1429" x="180.98" height="1.7857"/>
        <rect y="32.589" width="2.1429" x="181.25" height="1.6071"/>
        <rect y="35.804" width="2.2321" x="181.34" height="1.7857"/>
       </g>
       <g fill="#000" transform="matrix(1,0,0,-1,21.235998,121.95681)">
        <rect y="32.394" width="1.4286" x="181.44" height="1.4286"/>
        <rect y="22.589" width="1.9643" x="180.8" height="1.5179"/>
        <rect y="25.625" width="1.9643" x="180.8" height="1.7857"/>
        <rect y="28.839" width="2.1429" x="180.98" height="1.7857"/>
       </g>
       <g fill="#000" transform="matrix(1,0,0,-1,35.624998,123.25892)">
        <rect y="40.576" width="1.4286" x="177.95" height="1.4286"/>
        <rect y="22.589" width="1.9643" x="180.8" height="1.5179"/>
        <rect y="25.625" width="1.9643" x="180.8" height="1.7857"/>
        <rect y="28.839" width="2.1429" x="180.98" height="1.7857"/>
       </g>
       <g fill="#000" transform="matrix(1,0,0,-1,25.39885,120.76188)">
        <rect y="19.643" width="1.4286" x="180.89" height="1.4286"/>
        <rect y="22.589" width="1.9643" x="180.8" height="1.5179"/>
        <rect y="25.625" width="1.9643" x="180.8" height="1.7857"/>
        <rect y="28.839" width="2.1429" x="180.98" height="1.7857"/>
        <rect y="32.589" width="2.1429" x="181.25" height="1.6071"/>
        <rect y="35.804" width="2.2321" x="181.34" height="1.7857"/>
       </g>
      </g>
      <path stroke-linejoin="miter" d="m62.581,61.186,10.043-4.8954,4.3903,8.3189,10.523-3.7806-3.0664-8.5714,10.13-3.2576,5.6097,18.066-29.564,10.653z" stroke="#000" stroke-linecap="butt" stroke-miterlimit="4" stroke-dasharray="none" stroke-width="2" fill="#f4f0e8"/>
      <path stroke-linejoin="miter" d="m135.59,40.652,12.784-0.83375,1.5566,9.0737,11.521-0.48915,0.72657-8.4945,10.013-0.74357,0.45128,18.31-32.743,2.0291z" stroke="#000" stroke-linecap="butt" stroke-miterlimit="4" stroke-dasharray="none" stroke-width="2" fill="#f4f0e8"/>
      <path stroke-linejoin="miter" d="m214.68,38.728,13.573,0.93552-0.82671,8.7797,12.694,1.2291,2.0304-8.907,12.309,1.2963-4.8914,19.234-36.034-3.5403z" stroke="#000" stroke-linecap="butt" stroke-miterlimit="4" stroke-dasharray="none" stroke-width="2" fill="#f4f0e8"/>
      <path stroke-linejoin="miter" d="m293.97,54.48,9.1283,3.7036-3.0779,9.2494,8.6619,4.4044,4.8208-8.7203,9.9755,5.5376-9.3798,17.115-26.617-12.946z" stroke="#000" stroke-linecap="butt" stroke-miterlimit="4" stroke-dasharray="none" stroke-width="2" fill="#f4f0e8"/>
      <g fill="#000" transform="matrix(0.86298732,0.50522558,0.50522558,-0.86298732,-91.903238,50.593797)">
       <rect y="0.39654" width="1.4286" x="166.26" height="1.4286"/>
       <rect y="10.828" width="1.9643" x="180.96" height="1.5179"/>
       <rect y="12.487" width="1.9643" x="172.11" height="1.7857"/>
       <rect y="14.019" width="2.1429" x="177.66" height="1.7857"/>
       <rect y="17.763" width="2.1429" x="174.42" height="1.6071"/>
       <rect y="16.278" width="2.2321" x="168.48" height="1.7857"/>
      </g>
      <g fill="#000" transform="matrix(0.86298732,0.50522558,0.50522558,-0.86298732,-74.730645,45.543035)">
       <rect y="4.4553" width="1.4286" x="169.45" height="1.4286"/>
       <rect y="6.551" width="1.9643" x="165.9" height="1.5179"/>
       <rect y="7.9125" width="1.9643" x="170.54" height="1.7857"/>
       <rect y="8.915" width="2.1429" x="162.94" height="1.7857"/>
       <rect y="8.0294" width="2.1429" x="157.29" height="1.6071"/>
       <rect y="11.775" width="2.2321" x="160.29" height="1.7857"/>
       <g transform="translate(-5.7460297,-4.6807896)">
        <rect y="16.158" width="1.4286" x="178.69" height="1.4286"/>
        <rect y="15.224" width="1.9643" x="172.97" height="1.5179"/>
        <rect y="19.573" width="1.9643" x="175.71" height="1.7857"/>
        <rect y="17.415" width="2.1429" x="169.97" height="1.7857"/>
        <rect y="21.335" width="2.1429" x="168.52" height="1.6071"/>
        <rect y="23.247" width="2.2321" x="172.89" height="1.7857"/>
        <g transform="translate(12.424851,11.517151)">
         <rect y="19.643" width="1.4286" x="180.89" height="1.4286"/>
         <rect y="22.589" width="1.9643" x="180.8" height="1.5179"/>
         <rect y="33.118" width="1.9643" x="194.85" height="1.7857"/>
         <rect y="24.847" width="2.1429" x="185.66" height="1.7857"/>
         <rect y="28.045" width="2.1429" x="186.98" height="1.6071"/>
         <rect y="30.01" width="2.2321" x="190.44" height="1.7857"/>
        </g>
        <g transform="translate(40.969121,31.739642)">
         <rect y="18.933" width="1.4286" x="174.43" height="1.4286"/>
         <rect y="22.039" width="1.9643" x="177.61" height="1.5179"/>
         <rect y="25.181" width="1.9643" x="181.79" height="1.7857"/>
         <rect y="27.883" width="2.1429" x="185.35" height="1.7857"/>
         <rect y="16.357" width="2.1429" x="170.27" height="1.6071"/>
         <rect y="-3.7159" width="2.2321" x="134.83" height="1.7857"/>
        </g>
        <g transform="translate(2.6176762,5.7756585)">
         <rect y="14.904" width="1.4286" x="178.55" height="1.4286"/>
         <rect y="19.219" width="1.9643" x="176.05" height="1.5179"/>
         <rect y="19.919" width="1.9643" x="181.8" height="1.7857"/>
         <rect y="23.946" width="2.1429" x="178.87" height="1.7857"/>
         <rect y="22.888" width="2.1429" x="185.17" height="1.6071"/>
         <rect y="26.884" width="2.2321" x="185.1" height="1.7857"/>
        </g>
        <g transform="matrix(0.67168116,-0.74084035,0.74084035,0.67168116,95.198364,151.69646)">
         <rect y="21.329" width="1.4286" x="183.31" height="1.4286"/>
         <rect y="1.5673" width="1.9643" x="175.23" height="1.5179"/>
         <rect y="25.653" width="1.9643" x="183.13" height="1.7857"/>
         <rect y="28.99" width="2.1429" x="183.34" height="1.7857"/>
         <rect y="33.338" width="2.1429" x="183.21" height="1.6071"/>
         <rect y="37.866" width="2.2321" x="183.19" height="1.7857"/>
        </g>
       </g>
      </g>
      <g fill="#000" transform="matrix(0.99497047,-0.10016866,-0.10016866,-0.99497047,-11.684984,131.1549)">
       <rect y="19.643" width="1.4286" x="180.89" height="1.4286"/>
       <rect y="22.589" width="1.9643" x="180.8" height="1.5179"/>
       <rect y="25.625" width="1.9643" x="180.8" height="1.7857"/>
       <rect y="28.839" width="2.1429" x="180.98" height="1.7857"/>
       <rect y="32.589" width="2.1429" x="181.25" height="1.6071"/>
       <rect y="35.804" width="2.2321" x="181.34" height="1.7857"/>
      </g>
      <g fill="#000" transform="matrix(0.99497047,-0.10016866,-0.10016866,-0.99497047,-15.978133,130.90236)">
       <rect y="19.643" width="1.4286" x="180.89" height="1.4286"/>
       <rect y="22.589" width="1.9643" x="180.8" height="1.5179"/>
       <rect y="25.625" width="1.9643" x="180.8" height="1.7857"/>
       <rect y="28.839" width="2.1429" x="180.98" height="1.7857"/>
      </g>
      <g fill="#000" transform="matrix(1,0,0,-1,-82.163356,156.72282)">
       <rect y="17.679" width="1.4286" x="172.77" height="1.4286"/>
       <rect y="22.589" width="1.9643" x="180.8" height="1.5179"/>
       <rect y="25.536" width="1.9643" x="182.77" height="1.7857"/>
       <rect y="29.085" width="2.1429" x="180.24" height="1.7857"/>
       <rect y="32.463" width="2.1429" x="179.61" height="1.6071"/>
      </g>
      <g fill="#000" transform="matrix(0.17954913,0.98374901,0.98374901,-0.17954913,61.359572,-34.821781)">
       <rect y="19.643" width="1.4286" x="180.89" height="1.4286"/>
       <rect y="22.828" width="1.9643" x="181.48" height="1.5179"/>
       <rect y="25.625" width="1.9643" x="180.8" height="1.7857"/>
       <rect y="29.366" width="2.1429" x="182.08" height="1.7857"/>
       <rect y="32.589" width="2.1429" x="181.25" height="1.6071"/>
       <rect y="36.665" width="2.2321" x="182.59" height="1.7857"/>
      </g>
     </g>
     <rect height="1.7857" width="1.875" y="-206.65" x="322.47" fill="#000"/>
     <path fill="#000" d="m296.98-187.01c0.0714-2.5714,4.0714-2.5714,4.2857,0v11.071h-4.2857z"/>
     <path fill="#000" d="m311.98-187.01c0.0714-2.5714,4.0714-2.5714,4.2857,0v11.071h-4.2857z"/>
     <g fill="#000" transform="matrix(1,0,0,-1,135.01326,-114.19939)">
      <rect y="19.643" width="1.4286" x="180.89" height="1.4286"/>
      <rect y="22.589" width="1.9643" x="180.8" height="1.5179"/>
      <rect y="25.625" width="1.9643" x="180.8" height="1.7857"/>
      <rect y="28.839" width="2.1429" x="180.98" height="1.7857"/>
      <rect y="32.589" width="2.1429" x="181.25" height="1.6071"/>
      <rect y="35.804" width="2.2321" x="181.34" height="1.7857"/>
     </g>
     <path stroke-linejoin="round" d="m300.69-145.28c3.7857-8.2857,7.7857-8.2857,11.786,0l0.37881,16.724-12.165-0.50507z" stroke="#000" stroke-linecap="round" stroke-miterlimit="4" stroke-dasharray="none" stroke-width="2" fill="#f4f0e8"/>
     <g fill="#000" transform="matrix(0.86298732,0.50522558,0.50522558,-0.86298732,-0.39037376,-159.69945)">
      <rect y="19.643" width="1.4286" x="180.89" height="1.4286"/>
      <rect y="21.874" width="1.9643" x="182.83" height="1.5179"/>
      <rect y="25.625" width="1.9643" x="180.8" height="1.7857"/>
      <rect y="28.696" width="2.1429" x="176.24" height="1.7857"/>
      <rect y="32.589" width="2.1429" x="181.25" height="1.6071"/>
      <rect y="35.378" width="2.2321" x="176.61" height="1.7857"/>
     </g>
     <g fill="#000" transform="matrix(0.99816785,-0.06050576,-0.06050576,-0.99816785,44.146396,-54.803581)">
      <rect y="19.627" width="1.4286" x="175.26" height="1.4286"/>
      <rect y="17.485" width="1.9643" x="179.42" height="1.5179"/>
      <rect y="22.795" width="1.9643" x="180.27" height="1.7857"/>
      <rect y="30.236" width="2.1429" x="180.08" height="1.7857"/>
      <rect y="33.531" width="2.1429" x="173.89" height="1.6071"/>
      <rect y="29.917" width="2.2321" x="175.09" height="1.7857"/>
     </g>
     <g fill="#000" transform="matrix(0.86298732,0.50522558,0.50522558,-0.86298732,6.6806862,-159.44691)">
      <rect y="19.643" width="1.4286" x="180.89" height="1.4286"/>
      <rect y="21.476" width="1.9643" x="183.65" height="1.5179"/>
      <rect y="23.796" width="1.9643" x="179.68" height="1.7857"/>
      <rect y="25.709" width="2.1429" x="184.13" height="1.7857"/>
      <rect y="29.442" width="2.1429" x="179.87" height="1.6071"/>
      <rect y="23.79" width="2.2321" x="188.81" height="1.7857"/>
     </g>
     <g fill="#000" transform="matrix(0.86298732,0.50522558,0.50522558,-0.86298732,241.41489,-190.76164)">
      <rect y="19.643" width="1.4286" x="180.89" height="1.4286"/>
      <rect y="22.589" width="1.9643" x="180.8" height="1.5179"/>
      <rect y="25.625" width="1.9643" x="180.8" height="1.7857"/>
      <rect y="28.839" width="2.1429" x="180.98" height="1.7857"/>
      <rect y="32.589" width="2.1429" x="181.25" height="1.6071"/>
      <rect y="35.804" width="2.2321" x="181.34" height="1.7857"/>
     </g>
     <g fill="#000" transform="matrix(0.98452486,0.17524493,0.17524493,-0.98452486,161.79788,-141.89192)">
      <rect y="19.643" width="1.4286" x="180.89" height="1.4286"/>
      <rect y="22.589" width="1.9643" x="180.8" height="1.5179"/>
      <rect y="25.625" width="1.9643" x="180.8" height="1.7857"/>
      <rect y="28.839" width="2.1429" x="180.98" height="1.7857"/>
      <rect y="32.589" width="2.1429" x="181.25" height="1.6071"/>
      <rect y="35.804" width="2.2321" x="181.34" height="1.7857"/>
     </g>
     <g fill="#000" transform="matrix(0.98306992,0.18323082,0.18323082,-0.98306992,170.92498,-159.5512)">
      <rect y="19.643" width="1.4286" x="180.89" height="1.4286"/>
      <rect y="22.589" width="1.9643" x="180.8" height="1.5179"/>
      <rect y="25.625" width="1.9643" x="180.8" height="1.7857"/>
      <rect y="28.839" width="2.1429" x="180.98" height="1.7857"/>
      <rect y="32.589" width="2.1429" x="181.25" height="1.6071"/>
     </g>
     <g fill="#000" transform="matrix(0.99497047,-0.10016866,-0.10016866,-0.99497047,104.85701,-109.73815)">
      <rect y="19.643" width="1.4286" x="180.89" height="1.4286"/>
      <rect y="22.589" width="1.9643" x="180.8" height="1.5179"/>
      <rect y="25.625" width="1.9643" x="180.8" height="1.7857"/>
      <rect y="28.839" width="2.1429" x="180.98" height="1.7857"/>
      <rect y="32.589" width="2.1429" x="181.25" height="1.6071"/>
      <rect y="35.804" width="2.2321" x="181.34" height="1.7857"/>
     </g>
     <g fill="#000" transform="matrix(0.95792145,-0.28703048,-0.28703048,-0.95792145,49.775476,-54.973491)">
      <rect y="19.643" width="1.4286" x="180.89" height="1.4286"/>
      <rect y="22.589" width="1.9643" x="180.8" height="1.5179"/>
      <rect y="25.625" width="1.9643" x="180.8" height="1.7857"/>
      <rect y="28.839" width="2.1429" x="180.98" height="1.7857"/>
      <rect y="32.589" width="2.1429" x="181.25" height="1.6071"/>
      <rect y="35.034" width="2.2321" x="181.11" height="1.7857"/>
     </g>
     <rect transform="scale(1,-1)" height="1.4286" width="1.4286" y="90.85" x="198.72" fill="#000"/>
     <rect height="1.6071" width="1.875" y="-200.9" x="289.23" fill="#000"/>
     <rect height="1.6964" width="2.2321" y="-199.16" x="329.13" fill="#000"/>
     <g fill="#000" transform="translate(109.58666,-207.82365)">
      <rect y="19.643" width="1.4286" x="180.89" height="1.4286"/>
      <rect y="22.589" width="1.9643" x="180.8" height="1.5179"/>
      <rect y="25.625" width="1.9643" x="180.8" height="1.7857"/>
      <rect y="28.839" width="2.1429" x="180.98" height="1.7857"/>
      <rect y="32.589" width="2.1429" x="181.25" height="1.6071"/>
      <rect y="35.804" width="2.2321" x="181.34" height="1.7857"/>
     </g>
     <g fill="#000" transform="translate(110.43487,-188.35936)">
      <rect y="19.643" width="1.4286" x="180.89" height="1.4286"/>
      <rect y="22.589" width="1.9643" x="180.8" height="1.5179"/>
      <rect y="25.625" width="1.9643" x="180.8" height="1.7857"/>
      <rect y="28.839" width="2.1429" x="180.98" height="1.7857"/>
      <rect y="32.589" width="2.1429" x="181.25" height="1.6071"/>
      <rect y="35.804" width="2.2321" x="181.34" height="1.7857"/>
     </g>
     <g fill="#000" transform="translate(111.5063,-169.60936)">
      <rect y="19.643" width="1.4286" x="180.89" height="1.4286"/>
      <rect y="22.589" width="1.9643" x="180.8" height="1.5179"/>
      <rect y="25.625" width="1.9643" x="180.8" height="1.7857"/>
      <rect y="28.839" width="2.1429" x="180.98" height="1.7857"/>
      <rect y="32.589" width="2.1429" x="181.25" height="1.6071"/>
      <rect y="35.804" width="2.2321" x="181.34" height="1.7857"/>
     </g>
     <g fill="#000" transform="matrix(1,0,0,-1,141.59559,-150.94865)">
      <rect y="19.643" width="1.4286" x="180.89" height="1.4286"/>
      <rect y="22.589" width="1.9643" x="180.8" height="1.5179"/>
      <rect y="25.625" width="1.9643" x="180.8" height="1.7857"/>
      <rect y="28.839" width="2.1429" x="180.98" height="1.7857"/>
      <rect y="32.589" width="2.1429" x="181.25" height="1.6071"/>
      <rect y="35.804" width="2.2321" x="181.34" height="1.7857"/>
     </g>
     <g fill="#000" transform="matrix(1,0,0,-1,139.80987,-121.84151)">
      <rect y="19.643" width="1.4286" x="180.89" height="1.4286"/>
      <rect y="22.589" width="1.9643" x="180.8" height="1.5179"/>
      <rect y="25.625" width="1.9643" x="180.8" height="1.7857"/>
      <rect y="28.839" width="2.1429" x="180.98" height="1.7857"/>
      <rect y="32.589" width="2.1429" x="181.25" height="1.6071"/>
      <rect y="35.804" width="2.2321" x="181.34" height="1.7857"/>
     </g>
     <g fill="#000" transform="matrix(0.99497047,-0.10016866,-0.10016866,-0.99497047,106.53868,-90.817234)">
      <rect y="19.643" width="1.4286" x="180.89" height="1.4286"/>
      <rect y="22.589" width="1.9643" x="180.8" height="1.5179"/>
      <rect y="25.625" width="1.9643" x="180.8" height="1.7857"/>
      <rect y="28.839" width="2.1429" x="180.98" height="1.7857"/>
      <rect y="32.589" width="2.1429" x="181.25" height="1.6071"/>
      <rect y="35.804" width="2.2321" x="181.34" height="1.7857"/>
     </g>
     <g fill="#000" transform="matrix(0.98314037,0.1828524,0.1828524,-0.98314037,167.71212,-140.67898)">
      <rect y="19.643" width="1.4286" x="180.89" height="1.4286"/>
      <rect y="22.589" width="1.9643" x="180.8" height="1.5179"/>
      <rect y="25.625" width="1.9643" x="180.8" height="1.7857"/>
      <rect y="28.839" width="2.1429" x="180.98" height="1.7857"/>
      <rect y="32.589" width="2.1429" x="181.25" height="1.6071"/>
      <rect y="35.804" width="2.2321" x="181.34" height="1.7857"/>
     </g>
     <g fill="#000" transform="matrix(0.92451779,-0.38113889,-0.38113889,-0.92451779,55.116465,-35.050654)">
      <rect y="39.319" width="1.4286" x="182.86" height="1.4286"/>
      <rect y="22.589" width="1.9643" x="180.8" height="1.5179"/>
      <rect y="25.625" width="1.9643" x="180.8" height="1.7857"/>
      <rect y="28.839" width="2.1429" x="180.98" height="1.7857"/>
      <rect y="32.589" width="2.1429" x="181.25" height="1.6071"/>
      <rect y="35.804" width="2.2321" x="181.34" height="1.7857"/>
     </g>
     <g fill="#000" transform="matrix(0.92451779,-0.38113889,-0.38113889,-0.92451779,55.959385,-47.760054)">
      <rect y="25.625" width="1.9643" x="180.8" height="1.7857"/>
      <rect y="28.839" width="2.1429" x="180.98" height="1.7857"/>
      <rect y="32.589" width="2.1429" x="181.25" height="1.6071"/>
      <rect y="35.804" width="2.2321" x="181.34" height="1.7857"/>
     </g>
     <g fill="#000" transform="matrix(1,0,0,-1,139.86482,-110.19348)">
      <rect y="19.643" width="1.4286" x="180.89" height="1.4286"/>
      <rect y="22.589" width="1.9643" x="180.8" height="1.5179"/>
      <rect y="25.625" width="1.9643" x="180.8" height="1.7857"/>
      <rect y="28.839" width="2.1429" x="180.98" height="1.7857"/>
     </g>
     <g fill="#000" transform="matrix(0.53223413,0.84659721,0.84659721,-0.53223413,77.229431,-233.92319)">
      <rect y="19.643" width="1.4286" x="180.89" height="1.4286"/>
      <rect y="22.589" width="1.9643" x="180.8" height="1.5179"/>
      <rect y="25.58" width="1.9643" x="180.04" height="1.7857"/>
      <rect y="28.839" width="2.1429" x="180.98" height="1.7857"/>
      <rect y="32.589" width="2.1429" x="181.25" height="1.6071"/>
      <rect y="37.158" width="2.2321" x="181.03" height="1.7857"/>
     </g>
     <g fill="#000" transform="matrix(0.58370235,0.81196771,0.81196771,-0.58370235,85.880501,-220.13792)">
      <rect y="19.643" width="1.4286" x="180.89" height="1.4286"/>
      <rect y="22.589" width="1.9643" x="180.8" height="1.5179"/>
      <rect y="26.037" width="1.9643" x="181.76" height="1.7857"/>
      <rect y="30.441" width="2.1429" x="180.27" height="1.7857"/>
      <rect y="32.023" width="2.1429" x="183.26" height="1.6071"/>
      <rect y="35.804" width="2.2321" x="181.34" height="1.7857"/>
      <rect transform="matrix(0.58370235,0.81196771,-0.81196771,0.58370235,0,0)" height="1.4286" width="1.4286" y="-131.2" x="109.59"/>
     </g>
     <rect transform="scale(1,-1)" height="1.4286" width="1.4286" y="93.645" x="203.72" fill="#000"/>
     <g fill="#000" transform="matrix(0.56860265,0.82261232,0.82261232,-0.56860265,73.56963,-221.17237)">
      <rect y="19.643" width="1.4286" x="180.89" height="1.4286"/>
      <rect y="22.589" width="1.9643" x="180.8" height="1.5179"/>
      <rect y="25.421" width="1.9643" x="179.69" height="1.7857"/>
      <rect y="28.839" width="2.1429" x="180.98" height="1.7857"/>
      <rect y="32.256" width="2.1429" x="180.48" height="1.6071"/>
      <rect y="35.804" width="2.2321" x="181.34" height="1.7857"/>
     </g>
     <rect transform="scale(1,-1)" height="1.4286" width="1.4286" y="82.504" x="212.78" fill="#000"/>
     <rect transform="scale(1,-1)" height="1.4286" width="1.4286" y="89.024" x="209.03" fill="#000"/>
     <rect transform="scale(1,-1)" height="1.4286" width="1.4286" y="97.774" x="198.94" fill="#000"/>
     <rect transform="scale(1,-1)" height="1.4286" width="1.4286" y="85.364" x="190.54" fill="#000"/>
     <rect transform="scale(1,-1)" height="1.4286" width="1.4286" y="83.034" x="199.2" fill="#000"/>
     <rect transform="scale(1,-1)" height="1.4286" width="1.4286" y="82.944" x="203.04" fill="#000"/>
     <rect transform="scale(1,-1)" height="1.4286" width="1.4286" y="94.374" x="209.21" fill="#000"/>
     <rect height="1.25" width="1.5179" y="-207.08" x="287.8" fill="#000"/>
     <rect height="1.9643" width="2.3214" y="-206.19" x="329.58" fill="#000"/>
     <rect height="1.4286" width="1.4286" y="-216.73" x="284.4" fill="#000"/>
     <rect height="1.5179" width="1.9643" y="-213.78" x="284.31" fill="#000"/>
     <rect height="1.7857" width="1.9643" y="-210.74" x="284.31" fill="#000"/>
     <rect height="1.7857" width="2.1429" y="-207.53" x="284.49" fill="#000"/>
     <rect height="1.6071" width="2.1429" y="-203.78" x="284.76" fill="#000"/>
     <rect height="1.7857" width="2.2321" y="-201.1" x="285.65" fill="#000"/>
     <rect height="1.6964" width="1.6071" y="-201.01" x="289.58" fill="#000"/>
     <rect height="1.4286" width="1.7857" y="-200.12" x="296.9" fill="#000"/>
     <rect height="1.7857" width="1.875" y="-200.3" x="300.74" fill="#000"/>
     <rect height="1.4286" width="1.6071" y="-199.67" x="308.15" fill="#000"/>
     <rect height="1.7857" width="2.0536" y="-199.67" x="311.81" fill="#000"/>
     <rect height="2.3214" width="2.1429" y="-209.67" x="329.05" fill="#000"/>
     <rect height="2.1429" width="1.9643" y="-203.24" x="329.58" fill="#000"/>
     <rect height="1.6964" width="2.2321" y="-200.03" x="325.21" fill="#000"/>
     <rect height="1.875" width="2.5" y="-199.85" x="321.63" fill="#000"/>
     <rect height="1.25" width="2.4107" y="-199.49" x="318.42" fill="#000"/>
     <rect height="1.875" width="1.875" y="-204.41" x="317.53" fill="#000"/>
     <rect height="1.6071" width="1.7857" y="-204.05" x="320.83" fill="#000"/>
     <rect height="1.6964" width="2.0536" y="-202.98" x="325.12" fill="#000"/>
     <rect height="1.9643" width="2.0536" y="-205.83" x="325.83" fill="#000"/>
     <rect height="1.875" width="2.2321" y="-201.1" x="314.67" fill="#000"/>
    </g>
    <g fill="#000" transform="matrix(0.8704852,0.49219458,0.49219458,-0.8704852,255.93144,237.45248)">
     <rect y="19.643" x="180.89" height="1.4286" width="1.4286"/>
     <rect y="22.589" x="180.8" height="1.5179" width="1.9643"/>
     <rect y="25.625" x="180.8" height="1.7857" width="1.9643"/>
     <rect y="28.839" x="180.98" height="1.7857" width="2.1429"/>
    </g>
   </g>
   <path stroke-linejoin="round" d="m390.42,139c-60,10-150,10-190-10v150c20,130,100,210,160,220,20-40,30-80,30-130z" stroke="#000" stroke-linecap="butt" stroke-miterlimit="4" stroke-dasharray="none" stroke-width="4" fill="#dc281e"/>
   <path stroke-linejoin="round" d="m10.42,139c60,10,150,10,190-10v150c-20,130-100,210-160,220-20-40-30-80-30-130z" stroke="#000" stroke-linecap="butt" stroke-miterlimit="4" stroke-dasharray="none" stroke-width="4" fill="#0039a6"/>
   <path stroke-linejoin="round" d="m233.87,358.18c-0.62061,5.1278,2.4803,10.132,12.122,9.5964l82.83-143.45c10.438,3.8326,19.361,14.359,29.8,12.122,1.668-11.038-4.932-18.769-9.5964-27.274l-45.45-26.77c-4.7458,2.7034-9.2169,6.7802-12.627,16.162l22.728,16.162z" stroke="#000" stroke-linecap="butt" stroke-miterlimit="4" stroke-dasharray="none" stroke-width="2" fill="#f4f0e8"/>
   <path stroke-linejoin="round" d="m240.12,183.5,18.279,33.672-23.014,35.077,74.443,180.06c6.4315,7.9751,9.7988,8.0657,14.705,6.512l-72.3-186.85,22.112-30.548c-5.87-13.86-10.21-25.2-22.69-39.06z" stroke="#000" stroke-linecap="butt" stroke-miterlimit="4" stroke-dasharray="none" stroke-width="2" fill="#f4f0e8"/>
   <path stroke-linejoin="round" d="m200.42,279c41.429,140,74.286,189.29,160,220-25.42,43-65.42,68-140.42,73-11.195,1.0694-15,15-20,20l-20-20c-75-5-115-30-139.58-73,80.71-28.57,123.57-78.57,160-220z" stroke="#000" stroke-linecap="butt" stroke-miterlimit="4" stroke-dasharray="none" stroke-width="4" fill="#f4f0e8"/>
   <path stroke-linejoin="round" d="m228.31,189.48,14.647,32.325,38.891,11.112,68.185,178.8c0.69734,10.222-0.39512,15.486-5.0508,17.678l-78.29-182.83-32.33-7.58-14.14-44.95z" stroke="#000" stroke-linecap="butt" stroke-miterlimit="4" stroke-dasharray="none" stroke-width="2" fill="#f4f0e8"/>
   <g transform="translate(-4.2768427,-11)" stroke="#000" stroke-dasharray="none" stroke-miterlimit="4" stroke-width="2">
    <g stroke-linejoin="round" transform="matrix(-1,0,0,1,216.39003,-0.69705276)">
     <path d="m112.86,233.93c7.7966,0.27315,15.746,1.7407,20.536-6.0714,3.6046-7.741-1.7533-15.664-4.4643-23.214-2.3014-5.9428-3.0937-11.782,8.2143-16.786,13.64-5.606,26.159-7.4741,41.071-17.321,6.4694,13.392-21.421,26.129-20.357,28.393,10.469,1.7979,25.301-3.3716,37.143-10.714,2.1976,4.5814-7.038,20.441-27.143,23.75,10.39,4.5912,26.509,1.0418,26.964,3.5714-0.22521,6.5812-11.216,13.843-15.893,13.75-20.08-1.993-24.443,1.6876-26.964,4.6428,6.2054,1.1738,25.203,6.2823,25.893,16.964-0.9744,1.8815-31.399-7.903-38.929-3.75,5.3578,6.506,10.394,14.975,4.6429,22.5-3.4308,1.2926-13.957-16.976-24.643-14.643-11.396-5.0942-10.772-12.663-6.0714-21.071z" stroke-linecap="butt" fill="#f4f0e8"/>
     <path d="m140,259.46c-1.2935-5.4712-6.0079-6.5443-10.536-7.8571" stroke-linecap="round" fill="none"/>
     <path d="m166.96,243.93c-11.425,0.40089-12.092-1.8878-16.607-3.2143" stroke-linecap="round" fill="none"/>
     <path d="m183.04,220.71c-7.3098,3.1919-13.61,1.841-20,0.89286" stroke-linecap="round" fill="none"/>
     <path d="m185.18,198.21c-6.5467,3.99-13.257,7.6519-22.143,6.9643" stroke-linecap="round" fill="none"/>
     <path d="m172.14,180c-4.4919,5.6771-10.147,7.2822-15.536,9.8214" stroke-linecap="round" fill="none"/>
     <path d="m140.54,196.07c0.48451,2.1567-0.7554,4.529,3.2143,6.25" stroke-linecap="round" fill="none"/>
     <path d="m146.43,205.89c0.008,2.2926-0.83626,4.9502,2.3214,5.8928" stroke-linecap="round" fill="none"/>
     <path d="m151.61,220c-2.7395,2.4749-0.61443,3.5599-0.35714,5.1786" stroke-linecap="round" fill="none"/>
     <path d="m139.29,203.75c-0.42013,1.6436-0.83307,3.2857,1.0714,4.4643" stroke-linecap="round" fill="none"/>
     <path d="m143.93,215.18c-0.44088,2.0789-0.14628,3.5694,1.7857,3.75" stroke-linecap="round" fill="none"/>
     <path d="m143.93,227.68c-1.6691,0.93174-3.2691,1.8865-2.1429,3.75" stroke-linecap="round" fill="none"/>
     <path d="m133.93,241.43c-0.88622,0.86511-3.3703-0.18718-2.1429,3.2143" stroke-linecap="round" fill="none"/>
     <path d="m117.14,241.07c0.71012,2.4655,1.8581,2.3038,3.0357,1.9643" stroke-linecap="round" fill="none"/>
     <path d="m116.25,247.32c1.6071,1.1586,3.2143,2.2437,4.8214,1.0714" stroke-linecap="round" fill="none"/>
    </g>
    <g stroke-linejoin="round" stroke-linecap="butt" fill="#f4f0e8">
     <path d="m99.778,206.86c-4.1571-10.182-7.0179-20.363,6.0318-30.545,5.9663,5.5288,11.769,11.294,8.1889,30.649"/>
     <path d="m98.694,216.16c-3.9173-0.16441-4.8475-8.5842-0.33177-8.9973l17.478,0.065c3.6704-0.0862,4.2497,9.0545,0,8.7881z"/>
     <path d="m100.65,216.22-1.4243,24.851,2.326,21.796,2.45,177.13c-2.2332,1.7668-5,4-4,8,2,5,12,5,14,0,2-4-0.51074-6.2269-3-8l2.0461-176.78,2.7773-9.6462-1.599-37.397s-13.425,0.20659-13.575,0.0396z"/>
    </g>
    <path stroke-linejoin="round" d="m120.61,234.35c-0.76412-5.6361-2.7772-10.024-5.613-11.927-3.688-2.7582-9.818-5.961-16.144,1.9257-3.4738,5.3729-6.5292,12.977-4.5637,24.22,0.37391,7.7183,5.1889,15.388,14.286,15.714,5.9396-0.38032,11.063-5.7026,9.8214-10-2.8681,1.3032-7.2211,3.1614-10.536,2.8571-5.5646-2.2155-6.9734-10.064-7.5-14.107-1.4921-13.698,3.5716-16.25,7.6786-16.786,4.7925-0.25943,5.558,5.8886,6.4286,8.125z" stroke-linecap="butt" fill="#f4f0e8"/>
    <path stroke-linejoin="round" d="m113.75,234.11c7.7966,0.27315,14.853,1.5622,19.643-6.25,3.6046-7.741-1.7533-15.664-4.4643-23.214-2.3014-5.9428-3.0937-11.782,8.2143-16.786,13.64-5.606,26.159-7.4741,41.071-17.321,6.4694,13.392-21.421,26.129-20.357,28.393,10.469,1.7979,25.301-3.3716,37.143-10.714,2.1976,4.5814-7.038,20.441-27.143,23.75,10.39,4.5912,26.509,1.0418,26.964,3.5714-0.22521,6.5812-11.216,13.843-15.893,13.75-20.08-1.993-24.443,1.6876-26.964,4.6428,6.2054,1.1738,25.203,6.2823,25.893,16.964-0.9744,1.8815-31.399-7.903-38.929-3.75,5.3578,6.506,10.394,14.975,4.6429,22.5-3.42,1.3-13.95-16.97-24.63-14.64-11.4-5.09-9.88-12.48-5.18-20.89z" stroke-linecap="butt" fill="#f4f0e8"/>
    <path stroke-linejoin="round" d="m140,259.46c-1.2935-5.4712-6.0079-6.5443-10.536-7.8571" stroke-linecap="round" fill="none"/>
    <path stroke-linejoin="round" d="m166.96,243.93c-11.425,0.40089-12.092-1.8878-16.607-3.2143" stroke-linecap="round" fill="none"/>
    <path stroke-linejoin="round" d="m183.04,220.71c-7.3098,3.1919-13.61,1.841-20,0.89286" stroke-linecap="round" fill="none"/>
    <path stroke-linejoin="round" d="m185.18,198.21c-6.5467,3.99-13.257,7.6519-22.143,6.9643" stroke-linecap="round" fill="none"/>
    <path stroke-linejoin="round" d="m172.14,180c-4.4919,5.6771-10.147,7.2822-15.536,9.8214" stroke-linecap="round" fill="none"/>
    <path stroke-linejoin="round" d="m140.54,196.07c0.48451,2.1567-0.7554,4.529,3.2143,6.25" stroke-linecap="round" fill="none"/>
    <path stroke-linejoin="round" d="m146.43,205.89c0.008,2.2926-0.83626,4.9502,2.3214,5.8928" stroke-linecap="round" fill="none"/>
    <path stroke-linejoin="round" d="m151.61,220c-2.7395,2.4749-0.61443,3.5599-0.35714,5.1786" stroke-linecap="round" fill="none"/>
    <path stroke-linejoin="round" d="m139.29,203.75c-0.42013,1.6436-0.83307,3.2857,1.0714,4.4643" stroke-linecap="round" fill="none"/>
    <path stroke-linejoin="round" d="m143.93,215.18c-0.44088,2.0789-0.14628,3.5694,1.7857,3.75" stroke-linecap="round" fill="none"/>
    <path stroke-linejoin="round" d="m143.93,227.68c-1.6691,0.93174-3.2691,1.8865-2.1429,3.75" stroke-linecap="round" fill="none"/>
    <path stroke-linejoin="round" d="m133.93,241.43c-0.88622,0.86511-3.3703-0.18718-2.1429,3.2143" stroke-linecap="round" fill="none"/>
    <path stroke-linejoin="round" d="m117.14,241.07c0.71012,2.4655,1.8581,2.3038,3.0357,1.9643" stroke-linecap="round" fill="none"/>
    <path stroke-linejoin="round" d="m116.25,247.32c1.6071,1.1586,3.2143,2.2437,4.8214,1.0714" stroke-linecap="round" fill="none"/>
    <path stroke-linejoin="miter" d="m110.89,249.64-4.64,6.25" stroke-linecap="round" fill="none"/>
    <path stroke-linejoin="miter" d="m109.46,241.25-9.2857-0.00001" stroke-linecap="round" fill="none"/>
    <path stroke-linejoin="miter" d="m111.07,239.11-8.75-10" stroke-linecap="round" fill="none"/>
    <path stroke-linejoin="miter" d="m109.82,245-7.8572,4.6428" stroke-linecap="round" fill="none"/>
   </g>
   <path stroke-linejoin="round" d="m257.61,232.92c0,2.2316-1.809,4.0406-4.0406,4.0406s-4.0406-1.809-4.0406-4.0406,1.809-4.0406,4.0406-4.0406,4.0406,1.809,4.0406,4.0406z" stroke="#000" stroke-linecap="round" stroke-miterlimit="4" stroke-dasharray="none" stroke-width="2" fill="#f4f0e8"/>
   <path stroke-linejoin="round" d="m324.48,194.84,4.5457-5.5558,14.142,9.0914-3.5355,5.5558z" stroke="#000" stroke-linecap="butt" stroke-miterlimit="4" stroke-dasharray="none" stroke-width="2" fill="#f4f0e8"/>
   <path stroke-linejoin="miter" d="m284.1,361.49c-2.7236-5.4498-3.6673-5.6657-8.083-1.8495l-2.198,1.8996c-3.3596-1.4765-6.7192-2.9529-10.079-4.4294l-0.20646-3.2069c-0.23838-3.7024-0.47915-4.5118-1.5522-5.2178-0.7301-0.48039-0.89737-0.47452-2.7054,0.095-1.7393,0.54312-3.4163,1.2127-5.1008,1.8979-2.4773-2.7309-4.9447-5.471-7.4404-8.1852l1.2827-3.6365c1.9247-5.4568,1.3787-6.1754-3.9982-5.2623-1.5787,0.26809-2.9152,0.44078-2.97,0.38376-1.8428-3.5911-3.1824-6.3578-5.0941-10.236l2.1011-2.193c4.0115-4.1868,3.7493-5.3195-1.9558-8.451l-2.1238-1.1658c-0.59497-3.7272-0.40123-7.021-0.31474-10.739,2.1045-0.73289,5.2783-1.1134,6.5276-2.9025,0.68328-1.0471,0.18431-2.5071-1.9145-5.6019-0.92984-1.3711-1.6906-2.5934-1.6906-2.7161,1.254-3.5666,2.3311-6.2381,3.7897-10.002l2.4887-0.001c5.7453-0.003,6.4718-1.0385,5.0047-7.127l-0.71288-2.9585c2.5008-2.3968,5.0016-4.7937,7.5024-7.1905,2.1283,0.80755,6.577,3.5127,8.174,1.8936,0.96028-2.5725,1.1189-4.9027,1.1326-7.5152,3.0803-1.4537,6.1452-3.0083,9.2914-4.2843,0.18111,0,1.2411,0.78164,2.3556,1.737,4.3791,3.7539,5.5017,3.4579,7.8778-2.0773l0.87541-2.0393c3.9554-0.18006,7.9105-0.39798,11.87-0.40045l1.2588,2.6975c2.5042,5.3662,3.0356,5.4013,9.1184,0.60343,4.1489,0.32127,5.575,1.9318,10.464,4.4365,0.20042,2.1418,0.46786,4.3446,1.1684,6.3385,2.804,1.3432,5.2865-0.46255,7.8104-1.6661,1.4732,2.0669,8.5743,6.543,7.7587,8.7186-0.19058,0.49234-0.63116,1.9979-0.97909,3.3457-1.0406,4.0315-0.30207,4.8336,4.7479,5.1567l2.7899,0.17848c1.3658,3.6097,2.9986,7.1483,4.1885,10.814-1.126,2.2336-4.782,4.0324-4.9219,6.6715,2.0057,2.9318,4.2501,2.4164,7.4551,3.8084,0.33286,3.6349,0.23184,6.427,0.23572,10.3l-2.4252,1.267c-5.3,2.7689-5.5048,3.8936-1.6092,8.8387l1.349,1.7124c-1.3078,3.5925-2.6156,7.185-3.9234,10.778-2.3288,0.0299-5.2949-0.40804-7.1997,0.45714-1.1669,3.0206-0.0361,4.6373,0.58075,7.7146,0,0.33647-2.6754,3.8759-6.6631,8.8148-0.0568,0.0705-1.2458-0.4367-2.6419-1.127-5.3768-2.6587-6.093-2.2248-6.7292,4.0763l-0.36424,3.6077c-3.0139,1.5157-6.0277,3.0315-9.0416,4.5472-1.9956-1.6309-4.2257-5.3949-6.7931-5.5176-1.0583,0-2.5039,1.6315-3.9476,4.4555l-1.1952,2.3378c-3.921-0.0556-7.6202,0.16454-11.483,0.40185l-1.1419-2.2849c-0.00015,0.00015-0.00087-0.00032-0.001-0.00042zm-2.069-15.49c0.24149-0.30935,1.9628-17.576,1.9347-19.406-0.003-0.26734-0.98152-1.1544-2.172-1.9712-2.5815-1.7712-7.6116-6.6634-9.6221-9.3583-1.2636-1.6937-1.5631-1.9281-2.4405-1.9098-0.55005,0.0111-4.9438,0.39374-9.7638,0.84948-7.6912,0.7272-8.7762,0.89433-8.866,1.3656-0.0563,0.29533,0.40421,2.1024,1.0232,4.0158,4.5995,14.216,13.267,22.758,26.45,26.066,3.3648,0.84419,3.0913,0.81655,3.4561,0.34923zm20.397-0.51772c14.08-3.8649,22.035-11.296,26.441-24.701,1.6871-5.1332,1.7483-5.5362,0.86999-5.7283-1.5136-0.33114-19.101-2.0136-19.361-1.8522-0.15105,0.0936-0.82879,0.98989-1.5061,1.9914-1.6956,2.5074-6.0167,7.003-8.3232,8.6596-1.0522,0.75568-2.2358,1.652-2.6302,1.9918l-0.71708,0.61782,0.76975,9.576c0.42336,5.2668,0.83454,9.7594,0.91376,9.9835,0.0791,0.22409,0.38698,0.33776,0.68388,0.2526,0.29692-0.0851,1.5838-0.44137,2.8597-0.79161zm-4.3186-33.219-0.5315-12.437-13.261,0.32479,0.42613,12.363zm-24.918-14.596c1.6367-2.5653,6.7071-8.0764,9.9047-10.766l1.4452-1.2154-1.0233-9.5127c-0.56276-5.232-1.1141-9.604-1.2251-9.7154-0.33453-0.33593-6.2576,1.7385-9.9097,3.4706-10.723,5.0856-17.374,12.15-21.223,22.542-1.1679,3.1531-1.8547,5.9378-1.5418,6.2519,0.22669,0.22768,16.939,1.5423,20.035,1.5761l1.8457,0.0203,1.6919-2.6518zm45.989,1.7569c10.945-0.43687,11.228-0.47189,11.228-1.3863,0-1.1424-1.9459-6.8144-3.3653-9.8091-1.8424-3.8873-4.6408-7.9314-7.5184-10.865-2.7981-2.8528-4.7369-4.3519-8.3426-6.4506-3.8239-2.2256-11.528-4.9794-12.151-4.3433-0.20776,0.21217-2.2393,15.533-2.5519,19.246-0.0472,0.56142,0.28077,1.006,1.3214,1.791,5.8276,4.396,8.1482,6.731,10.448,10.513,0.85468,1.4053,1.1162,1.6219,1.9597,1.6228,0.53537,0.00061,4.5726-0.14263,8.9715-0.31824z" stroke="#000" stroke-linecap="round" stroke-miterlimit="4" stroke-dasharray="none" stroke-width="2" fill="#f4f0e8"/>
   <path stroke-linejoin="miter" d="m329.55,224.84-15.536-9.8214" stroke="#000" stroke-linecap="round" stroke-miterlimit="4" stroke-dasharray="none" stroke-width="2" fill="none"/>
   <path d="m145.24,533.64,75.54-77.14-12.86-12.5c2.7666-5.2924,5.2924-10.729,10.357-14.643h9.2857l10.357,10c1.2804-2.5989,2.76-3.1441,4.2857-3.2143,3.3865,2.4724,6.8861,4.3788,9.8214,9.1071,0.35487,4.0894-2.4145,4.2736-3.75,6.25l11.25,11.429c2.5038,8.3245,5.3589,18.073,2.8571,21.25-3.4066,2.0181-18.64-8.3471-27.679-14.464l-76.429,78.571c-6.0757-3.4389-9.7862-8.8488-13.036-14.643z" fill="#000"/>
   <path d="m157.21,467.04,81.429,75.536c4.4753-1.688,7.9386-5.1818,10.357-10.357l-0.37-7.15-78.21-71.78,13.93-15.54c-4.8018-6.5341-9.72-12.913-17.321-15.714-12.557,11.311-24.939,25.298-34.643,38.036l0.35714,13.393c2.3682,3.7364,6.3287,6.1989,11.071,8.0357z" fill="#000"/>
   <path stroke-linejoin="miter" d="m189.35,493.29,43.571,38.75" stroke="#f4f0e8" stroke-linecap="round" stroke-width="1px" fill="none"/>
   <path stroke-linejoin="miter" d="m238.1,532.93,3.3929-4.1071" stroke="#f4f0e8" stroke-linecap="round" stroke-width="1px" fill="none"/>
   <path stroke-linejoin="miter" d="m219.38,445.62,24.434,22.666" stroke="#f4f0e8" stroke-linecap="round" stroke-width="1px" fill="none"/>
   <path stroke-linejoin="miter" d="m217.92,463.46-14.107,14.643" stroke="#f4f0e8" stroke-linecap="round" stroke-width="1px" fill="none"/>
   <path stroke-linejoin="miter" d="m192.74,502.21-6.43-5.71-33.39,34.11" stroke="#f4f0e8" stroke-linecap="round" stroke-width="1px" fill="none"/>
   <path stroke-linejoin="miter" d="m152.03,535.43,4.64-4.64" stroke="#f4f0e8" stroke-linecap="round" stroke-width="1px" fill="none"/>
   <path stroke-linejoin="miter" d="m167.74,519.18,8.75-8.5714" stroke="#f4f0e8" stroke-linecap="round" stroke-width="1px" fill="none"/>
   <path stroke-linejoin="miter" d="m162.56,468.11,20.36,18.39" stroke="#f4f0e8" stroke-linecap="round" stroke-width="1px" fill="none"/>
   <path stroke-linejoin="miter" d="m170.69,458.86,19.908,18.528" stroke="#f4f0e8" stroke-linecap="round" stroke-width="1px" fill="none"/>
   <path stroke-linejoin="miter" d="m165.42,465.43,10.37,9.7168" stroke="#f4f0e8" stroke-linecap="round" stroke-width="1px" fill="none"/>
   <path stroke-linejoin="miter" d="m160.14,462.79,5.99-6.29" stroke="#f4f0e8" stroke-linecap="round" stroke-width="1px" fill="none"/>
   <path stroke-linejoin="miter" d="m252.21,478.82,2.5,0.71428" stroke="#f4f0e8" stroke-linecap="round" stroke-width="1px" fill="none"/>
   <path stroke-linejoin="miter" d="m243.63,439.36,1.4286,1.6072" stroke="#f4f0e8" stroke-linecap="round" stroke-width="1px" fill="none"/>
   <path stroke-linejoin="miter" d="m215.78,434.54-3.57,5.71" stroke="#f4f0e8" stroke-linecap="round" stroke-width="1px" fill="none"/>
   <path stroke-linejoin="miter" d="m164.35,428.46-6.25,6.0714" stroke="#f4f0e8" stroke-linecap="round" stroke-width="1px" fill="none"/>
   <path stroke-linejoin="miter" d="m146.85,447.57-9.6429,10.357" stroke="#f4f0e8" stroke-linecap="round" stroke-width="1px" fill="none"/>
   <path stroke-linejoin="miter" d="m134.35,465.43c-0.89263,2.6347,0.26905,4.7234,1.3673,6.829,2.1629,1.9207,3.6418,4.8673,7.0256,4.9567" stroke="#f4f0e8" stroke-linecap="round" stroke-width="1px" fill="none"/>
   <path stroke-linejoin="miter" d="m146.49,466.5,6.25-5.8929" stroke="#f4f0e8" stroke-linecap="round" stroke-width="1px" fill="none"/>
   <path stroke-linejoin="miter" d="m148.99,468.82s5.7143-5.3571,5-5" stroke="#f4f0e8" stroke-linecap="round" stroke-width="1px" fill="none"/>
   <path stroke-linejoin="miter" d="m142.56,464.89,4.1505-4.2678" stroke="#f4f0e8" stroke-linecap="round" stroke-width="1px" fill="none"/>
   <path stroke-linejoin="miter" d="m139.35,466.14,2.5,2.6786" stroke="#f4f0e8" stroke-linecap="round" stroke-width="1px" fill="none"/>
   <path stroke-linejoin="miter" d="m143.46,471.86,1.6072,1.0714" stroke="#f4f0e8" stroke-linecap="round" stroke-width="1px" fill="none"/>
   <path stroke-linejoin="miter" d="m172.74,444.36,5.18-5.72" stroke="#f4f0e8" stroke-linecap="round" stroke-width="1px" fill="none"/>
   <path stroke-linejoin="miter" d="m175.24,431.86-3.3929-3.75" stroke="#f4f0e8" stroke-linecap="round" stroke-width="1px" fill="none"/>
   <path stroke-linejoin="miter" d="m96.04,390.16,12.321-7.1429" stroke="#000" stroke-linecap="round" stroke-miterlimit="4" stroke-dasharray="none" stroke-width="2" fill="none"/>
   <g transform="translate(-4.2768427,-11.252538)">
    <g transform="matrix(-1,0,0,1,210.65106,0.79787807)" stroke="#000" stroke-dasharray="none" stroke-miterlimit="4" stroke-width="2">
     <path stroke-linejoin="round" d="m119.29,291.07c5.294-3.0105,23.088-11.348,31.25,0.89286,2.4209,4.2861,2.2992,21.591-1.0714,28.75-5.8774,12.132-12.781,19.862-23.929,23.929-14.55,6.1338-25.865,11.784-31.607,23.036-5.0976,18.287,29.364,23.286,32.143,36.964,0.12549,14.004-5.1216,18.863-8.9286,18.75-1.9505-1.4057,5.8263-15.086-1.4286-18.75-26.431-8.64-34.846-20.28-36.613-33.03,0.094-12.92,11.17-24.05,30.893-33.04,10.382-3.5507,20.534-7.7431,28.571-17.857,5.9196-9.2059,2.9382-15.113-1.4286-19.643-5.2187-4.9265-11.384-7.1477-17.857-10z" stroke-linecap="butt" fill="#f4f0e8"/>
     <path stroke-linejoin="round" d="m143.57,291.61c0,0.78898-1.7189,1.4286-3.8393,1.4286s-3.8393-0.63959-3.8393-1.4286c0-0.78898,1.7189-1.4286,3.8393-1.4286s3.8393,0.63959,3.8393,1.4286z" transform="matrix(0.8520055,0.52353284,-0.52353284,0.8520055,171.91694,-29.105256)" stroke-linecap="round" fill="#f4f0e8"/>
     <path stroke-linejoin="miter" d="m112.59,291.34,15.381-0.32177" stroke-linecap="round" fill="none"/>
    </g>
    <g transform="translate(0.737266,0.61840455)" stroke="#000" stroke-dasharray="none" stroke-miterlimit="4" stroke-width="2">
     <path stroke-linejoin="round" d="m119.29,291.07c0.65111-2.6534,23.088-11.348,31.25,0.89286,2.4209,4.2861,2.2992,21.591-1.0714,28.75-5.8774,12.132-12.781,19.862-23.929,23.929-14.55,6.1338-25.865,11.784-31.607,23.036-5.0976,18.287,29.364,23.286,32.143,36.964,0.12549,14.004-5.1216,18.863-8.9286,18.75-1.9505-1.4057,5.8263-15.086-1.4286-18.75-26.431-8.64-34.846-20.28-36.613-33.03,0.094-12.92,11.17-24.05,30.893-33.04,10.382-3.5507,20.534-7.7431,28.571-17.857,5.9196-9.2059,2.2239-14.041-2.1429-18.571-5.6347-3.8151-11.385-7.4469-17.143-11.071z" stroke-linecap="butt" fill="#f4f0e8"/>
     <path stroke-linejoin="round" d="m143.57,291.61c0,0.78898-1.7189,1.4286-3.8393,1.4286s-3.8393-0.63959-3.8393-1.4286c0-0.78898,1.7189-1.4286,3.8393-1.4286s3.8393,0.63959,3.8393,1.4286z" transform="matrix(0.8520055,0.52353284,-0.52353284,0.8520055,171.91694,-29.105256)" stroke-linecap="round" fill="#f4f0e8"/>
     <path stroke-linejoin="miter" d="m115,291.96,14.085,0.083" stroke-linecap="round" fill="none"/>
    </g>
    <path d="m109.88,385.82-16.375,10.339,9.4643,5.3348,15.393-8.7009z" style="direction:ltr;enable-background:accumulate;baseline-shift:baseline;block-progression:tb;text-indent:0;color:#000000;text-transform:none;text-align:start;" fill="#f4f0e8"/>
   </g>
   <path stroke-linejoin="miter" d="m90.46,382.89,11.037-6.7947" stroke="#000" stroke-linecap="round" stroke-miterlimit="4" stroke-dasharray="none" stroke-width="2" fill="none"/>
   <path stroke-linejoin="miter" d="m99.17,391c5.2332-2.8542,10.543-5.7083,15.456-8.5624" stroke="#000" stroke-linecap="round" stroke-miterlimit="4" stroke-dasharray="none" stroke-width="2" fill="none"/>
   <path stroke-linejoin="round" d="m102.37,175.11c4.3443,5.773,6.4878,18.778-1.7857,16.786" stroke="#000" stroke-linecap="round" stroke-miterlimit="4" stroke-dasharray="none" stroke-width="2" fill="none"/>
  </g>
 </g>
</svg>
