<?xml version="1.0" encoding="UTF-8" standalone="no"?>
<!-- Generator: Adobe Illustrator 12.0.1, SVG Export Plug-In . SVG Version: 6.00 Build 51448)  -->
<svg
   xmlns:dc="http://purl.org/dc/elements/1.1/"
   xmlns:cc="http://web.resource.org/cc/"
   xmlns:rdf="http://www.w3.org/1999/02/22-rdf-syntax-ns#"
   xmlns:svg="http://www.w3.org/2000/svg"
   xmlns="http://www.w3.org/2000/svg"
   xmlns:sodipodi="http://sodipodi.sourceforge.net/DTD/sodipodi-0.dtd"
   xmlns:inkscape="http://www.inkscape.org/namespaces/inkscape"
   version="1.0"
   id="Layer_1"
   width="500"
   height="300"
   viewBox="0 0 355.553 374.859"
   overflow="visible"
   enable-background="new 0 0 355.553 374.859"
   xml:space="preserve"
   sodipodi:version="0.32"
   inkscape:version="0.44.1"
   sodipodi:docname="Flagge_der_kreisfreien_Stadt_Kiel.svg"
   sodipodi:docbase="/"><metadata
   id="metadata1930"><rdf:RDF><cc:Work
       rdf:about=""><dc:format>image/svg+xml</dc:format><dc:type
         rdf:resource="http://purl.org/dc/dcmitype/StillImage" /></cc:Work></rdf:RDF></metadata><defs
   id="defs1928" /><sodipodi:namedview
   inkscape:window-height="941"
   inkscape:window-width="1051"
   inkscape:pageshadow="2"
   inkscape:pageopacity="0.0"
   guidetolerance="10.0"
   gridtolerance="10.0"
   objecttolerance="10.0"
   borderopacity="1.0"
   bordercolor="#666666"
   pagecolor="#ffffff"
   id="base"
   width="500px"
   height="300px"
   inkscape:zoom="1"
   inkscape:cx="250.53927"
   inkscape:cy="187.4295"
   inkscape:window-x="0"
   inkscape:window-y="0"
   inkscape:current-layer="Layer_1" />
<rect
   style="opacity:1;color:black;fill:#df002a;fill-opacity:1;fill-rule:nonzero;stroke:none;stroke-width:2;stroke-linecap:butt;stroke-linejoin:miter;marker:none;marker-start:none;marker-mid:none;marker-end:none;stroke-miterlimit:4;stroke-dasharray:none;stroke-dashoffset:0;stroke-opacity:1;visibility:visible;display:inline;overflow:visible"
   id="rect1965"
   width="624.76501"
   height="374.85901"
   x="-134.60602"
   y="8.7890621e-06"
   rx="2.8429658"
   ry="2.8429685" />
<polygon
   points="177.957,10.294 151.33,84.175 125.078,12.366 97.32,85.675 70.316,15.925 16.306,15.925 16.306,68.804 84.956,97.685 15.553,134.437 88.697,147.186 31.686,189.948 107.439,192.2 56.444,243.948 128.457,234.569 86.826,289.709 165.202,269.083 134.457,324.221 177.957,356.661 221.471,324.221 190.712,269.083 269.102,289.709 227.458,234.569 299.47,243.948 248.461,192.2 324.213,189.948 267.217,147.186 340.345,134.437 270.972,97.685 339.591,68.804 339.591,15.925 285.584,15.925 258.594,85.675 230.848,12.366 204.584,84.175 177.957,10.294 "
   id="polygon1923"
   style="fill:white"
   transform="matrix(0.585728,0,0,0.585728,73.64813,77.64718)" />
<path
   d="M 162.13439,181.57485 C 156.29821,179.99339 149.87338,178.37853 145.1331,175.32047 C 149.58755,180.39344 155.99657,185.64211 162.12736,188.24862 L 162.13439,181.57485 z M 189.16742,182.48622 C 185.63608,183.10768 181.44286,183.43453 177.69011,183.43453 C 177.69011,183.43453 169.92455,183.1071 166.39321,182.48622 L 166.40141,189.82655 C 169.89937,190.78363 174.09317,191.29321 177.87051,191.29321 C 181.15585,191.29321 185.65248,190.78363 189.15863,189.82655 L 189.16742,182.48622 z M 175.6963,179.69936 C 167.92254,179.4176 159.43771,177.63465 152.88167,175.232 L 152.89807,167.38855 C 159.40374,169.76716 167.83175,171.47927 175.68751,171.75749 L 175.6963,179.69936 z M 148.54905,165.88907 C 143.83279,163.60475 138.6907,160.27313 135.41356,157.07626 C 136.48426,160.37449 138.37265,165.61496 140.04782,168.54125 C 142.48386,170.27382 145.68837,172.35845 148.54964,173.73198 L 148.54964,165.88907 L 148.54905,165.88907 z M 189.09362,167.32295 C 185.61148,167.80499 181.58929,168.06741 177.85411,168.06741 C 174.11015,168.06741 169.94974,167.80499 166.45881,167.32295 L 166.45881,160.50509 C 169.93334,160.96721 174.10195,161.20854 177.85411,161.20854 C 181.60628,161.20854 185.61968,160.96721 189.09362,160.50509 L 189.09362,167.32295 L 189.09362,167.32295 z M 193.43327,181.56665 C 199.25421,179.9928 205.68725,178.37853 210.41992,175.32047 C 205.98128,180.39344 199.55586,185.64211 193.43327,188.23689 L 193.43327,181.56665 z M 179.86491,179.69936 C 187.63809,179.4176 196.11472,177.63465 202.67134,175.232 L 202.65494,167.38855 C 196.15689,169.76716 187.72946,171.47927 179.8819,171.75749 L 179.86491,179.69936 z M 207.01216,165.88907 C 211.72784,163.60475 216.86993,160.27313 220.13887,157.07626 C 219.06875,160.37449 217.18798,165.61496 215.50519,168.54125 C 213.06915,170.27382 209.88046,172.35845 207.01216,173.73198 L 207.01216,165.88907 z M 193.48305,166.60778 L 193.48305,159.8479 C 196.35194,159.25044 199.58925,158.24947 202.12369,157.36676 L 202.12369,147.04686 L 207.47723,147.04686 L 207.47723,155.18318 C 216.30588,150.97416 221.85564,144.91365 221.89722,138.18189 L 228.68227,138.18189 C 228.77951,139.60405 228.75549,140.69582 228.75549,142.15075 C 228.75549,173.15561 206.4481,198.6921 177.78852,198.73781 C 149.42355,198.52401 126.80513,173.15561 126.80513,142.15075 C 126.80513,140.69582 126.78112,139.60405 126.87894,138.18189 L 133.66341,138.18189 C 133.70382,144.91423 139.25416,150.97416 148.0834,155.18318 L 148.0834,147.04686 L 153.42874,147.04686 L 153.42874,157.36676 C 155.97138,158.25005 159.2081,159.25106 162.08578,159.8479 L 162.08578,166.60778 C 157.99038,165.71279 153.64956,164.24027 150.1762,162.74138 C 150.1762,162.74138 148.67089,162.09886 147.93638,161.71932 C 146.68527,161.11013 145.46755,160.45705 144.32304,159.77 C 135.17575,154.58692 131.05575,149.21697 130.6557,148.78821 C 133.58199,174.57718 153.59275,194.75132 177.78031,194.80111 C 202.38433,194.75132 221.97044,174.57776 224.91313,148.78821 C 224.50488,149.21697 220.39249,154.58692 211.237,159.77 C 210.08429,160.45705 208.88297,161.11013 207.62366,161.71932 C 206.88798,162.09886 206.1283,162.47488 205.34342,162.85971 C 205.34401,162.86029 197.56205,165.71279 193.48305,166.60778"
   id="path1925"
   style="fill:#3c474c" />
</svg>