<?xml version="1.0" encoding="UTF-8"?>
<svg version="1.1" viewBox="0 0 500 300" xmlns="http://www.w3.org/2000/svg" xmlns:cc="http://creativecommons.org/ns#" xmlns:dc="http://purl.org/dc/elements/1.1/" xmlns:rdf="http://www.w3.org/1999/02/22-rdf-syntax-ns#">
<metadata>
<rdf:RDF>
<cc:Work rdf:about="">
<dc:format>image/svg+xml</dc:format>
<dc:type rdf:resource="http://purl.org/dc/dcmitype/StillImage"/>
<dc:title/>
</cc:Work>
</rdf:RDF>
</metadata>
<path d="m0 300h500v-150h-500z" fill="#fcdd09" stroke-width="1.7678"/>
<path d="m0 150h500v-150h-500z" fill="#0f47af" stroke-width="1.7678"/>
<path d="m165.48 43.098v185.27c0 10.639 8.5615 19.208 19.19 19.208h53.63c9.9944 0 11.73 9.3253 11.73 9.3253s1.6178-9.3253 11.746-9.3253h53.529c10.628 0 19.19-8.5698 19.19-19.208l0.10077-185.27h-169.22z" fill="#0f47af" stroke="#000" stroke-linecap="round" stroke-linejoin="round" stroke-width="2.1507"/>
<path d="m252.09 52.601c-0.96305-1.2521-2.1077 0.39224-2.7654 1.9724-0.65776 1.5802-1.7018 1.0534-3.2804 2.6336-1.5786 1.5802 1.5702 2.3674 1.7018 3.5526 0.13155 1.1851-2.6255 1.0506-4.9934 0.39224-2.368-0.6584-3.0313 0.53513-2.8998 1.9836 0.13155 1.4485 0.52622 2.8942 3.6835 4.0793 3.1573 1.1851 3.2944 2.3703 3.426 4.2138 0.13155 1.8435-1.713 1.709-2.7654 0.39224-1.0524-1.3168-2.2308-1.5746-2.8886-1.3112-0.65777 0.26336 0.91247 7.8924 1.1756 9.0775 0.26311 1.1851 4.7359 0.53232 5.2621 1.8491 0.52621 1.3168-4.0754 2.8942-4.0754 4.0793 0 1.1851 2.6283 3.1659 3.0229 3.956 0.3804 0.76152-0.98185 17.564-1.5338 18.671-0.72182 1.4467-0.16399 3.2932-0.59337 4.8525-0.16664 0.50041-3.497 0.24289-3.997 0.4931-0.49994 0.2502-1.916 0.75192-2.8326 0.1681-0.91655-0.58382-2.008-0.91035-2.5079-1.244-0.49994-0.33361-0.911-0.58405-2.1608-0.75085-1.2498-0.16681-2.1699-1.5043-3.3364-1.8379s-2.9151 0.24502-4.1649-0.67241-2.5768-1.3239-4.2433-2.2414c-1.6664-0.91743-2.1697-1.5892-2.5863-2.7569-0.026-0.073-0.10646-0.10379-0.13435-0.17931-0.3342-0.90472-0.57851-1.857-0.60459-2.1181-0.0562-0.56212 1.0185-1.858 1.1308-2.5888 0.11232-0.73076-0.22641-1.4081 0.5598-2.6448 0.78621-1.2367 1.7164-2.475 2.2952-3.1491 1.3262-1.5446 0.81833-3.3853 1.9817-4.3482 0.37983-0.3144 2.9485-1.2709 3.2021-2.2862 0.25358-1.0153 0.0924-2.7883 0.51502-3.1267 0.42263-0.33844 2.1933-1.7758 2.3624-3.5526 0.16905-1.7768-2.2829-4.9915-2.4519-6.0069-0.16905-1.0153-1.0132-4.9159-0.16794-6.3543 0.84527-1.4383 0.33864-2.5294-0.92927-3.037s-1.4331-1.0205-1.4331-3.4741c0-2.4537-0.93208-2.6258-1.3547-3.8103-0.42263-1.1845-0.67627-2.6997-1.6906-2.8689-1.0143-0.16922-1.6945 1.9433-1.9481 2.9586-0.25358 1.0153-1.0071 1.6042-1.9369 0.50431s-1.9537-1.4316-2.799 0.68362c-0.84528 2.1152-0.67007 3.3817-0.0784 6.3431 0.5917 2.9613 0.33902 4.3509-0.33588 4.3931-1.3524 0.0846-1.1073-0.42309-1.2763-1.6922-0.19025-1.4282-1.6005-3.3832-2.5303-0.1681-0.92981 3.2151 0.67181 4.1533 2.3624 4.8301 1.6905 0.67687 3.2144 1.0922 3.0453 2.8689-0.16906 1.7768-2.4519 1.0243-2.4519 2.0396 0 1.0153-0.59276 2.7003 1.8585 3.631 2.4513 0.9307 2.874 2.623 3.3812 3.3845 0.50717 0.76148 1.2696 0.51498 0.59339 1.4457s-2.1121 1.6037-1.8585 3.1267c0.25359 1.523-0.17543 3.0199-0.92927 3.8888-0.87819 1.0122-1.1846 1.2663-1.5786 2.3198-0.56157 1.5739-0.62555 2.3648-1.0748 2.3086-0.44927-0.05621-0.44376 0.4963-1.7354-0.51551-1.2916-1.0118-0.95876-1.1742-2.2504-1.9612-1.2916-0.78697-1.3442-1.8591-1.1196-2.2526s2.5858-4.4923 2.7542-4.9982c0.16847-0.50591 0.32036-1.8281-0.79492-1.9724-1.9077-0.24686-4.3772 0.7098-5.486-0.79568-0.98806-1.3415-0.9864-2.5996-2.8662-1.9724-1.8798 0.6272-1.7033 0.62698-4.2097-0.35862-2.5064-0.98559-3.3025-2.2425-2.7654-4.0345 0.53708-1.792 1.5106-2.9593 0.0784-4.1241-1.4322-1.1648-1.6902-1.7046-1.0636-3.5862 0.62659-1.8816-1e-3 -3.2168-1.7914-4.0232-1.7903-0.80639-3.5826-1.6149-3.4036-3.4069 0.17903-1.792-2.6879-3.6743-4.0306-1.2552-1.3427 2.4192-0.35767 3.4976 0.62697 5.2 0.98465 1.7024 1.9702 2.8585 1.4331 4.1129-0.53707 1.2544-0.89634 0.71773-1.9705 1.5241-1.0742 0.80639-1.5226 0.98791-1.4331 3.7655 0.0895 2.7776-0.17847 3.4971 0.89569 4.4827 1.0742 0.98559 0.62692 1.9731 0.53741 3.0483-0.0895 1.0752 0.17897 1.9727-0.0896 2.5103-0.26854 0.5376-2.5073 2.4102-1.5227 3.575 0.98464 1.1648 2.5084 1.3441 3.314 0.17931 0.80561-1.1648 1.3439-2.9479 1.9705-3.7543 0.62659-0.8064 1.4338-1.1652 2.5079-0.71724 1.0742 0.448 2.1502 0.17964 3.0453 0.71724s1.1532 1.6033 1.2428 2.7681c0.0895 1.1648 0.0108 2.331-0.70534 2.331-0.71611-3e-6 -1.971-0.71729-2.8662-0.80689-0.89513-0.0896-2.6847-0.11826-2.7766 0.9862-0.0895 1.0752-0.44712 3.2279 0.71655 3.8551s2.5086-0.44833 3.5827-0.53793c1.0742-0.0896 4.5573-0.62747 5.4525-0.44827 0.89513 0.1792 1.7914 0.89699 1.7914 1.6138s-0.18024 1.8828-1.9705 1.9724c-1.7903 0.0896-3.9395 1.7039-1.5227 2.4207 2.4169 0.7168 3.3147-0.35768 4.3888 1.1655s2.2397 1.3446 3.0453 1.0759c0.80562-0.2688 0.98536-0.98675 1.1644-1.8828 0.17903-0.89599 0.82088-2.1636 1.4331-1.4345 0.94127 1.1211 1.1722 2.2012 2.1832 3.037 0.92664 0.76606 1.696 0.98663 2.2504 1.9724 0.59867 1.0644 1.0659 2.3631 1.825 3.2051 0.90872 1.008 2.3329 1.6651 3.5827 2.4991s1.4921 1.8442 3.3252 1.9276c1.8331 0.0834 2.4173 1.0758 3.0005 1.0758 0.7682 0 2.0007 1.1767 3.0005 1.1767 0.99986 0 2.0056 2.1593 2.9222 2.4095 0.91654 0.25021 3.0742-0.15925 3.9074 0.25776 0.83322 0.41701 2.7495 2.4108 3.5827 2.5776 0.83322 0.1668 2.171 0.91683 2.7542 2.0845 0.58326 1.1676 0.16062 3.0858 0.66056 3.5862 0.49994 0.50042 1.086 1.5084 1.086 3.0931 0 0.82955 0.0327 1.7011-0.0224 2.4655-0.10029 1.3911-0.72216 1.7668-2.3959 1.8715-1.9835 0.12409-4.0872-0.50512-5.6988-0.38103s-3.1052-0.86537-4.2209-0.4931c-1.1157 0.37227-3.3403 1.116-4.456 0.12328-1.1157-0.99272-2.8572-0.74372-4.2209-0.12328-1.3637 0.62045-0.98587-1.244-2.5975-1.244-1.6116 0-3.4818 1.2432-5.2174 1.3672-1.7356 0.12408-5.2052 0.50042-7.0647-0.61638-1.8595-1.1168-3.0948-4.4732-4.0866-4.225-0.99175 0.24818-1.3602 1.1166-2.228 1.7371-0.86779 0.62044-1.4899 0.61982-1.3659-1.6138 0.0306-0.55147-3e-3 -1.1662 0.14555-1.7483 0.51856-2.0306 2.0773-2.66 3.6051-2.4991 2.3428 0.3198 3.4566 1.8037 3.6163 0.0448 0.15974-1.7588 0.21741-3.6158 0.96286-4.6284s0.74623-2.5582-0.63817-2.3983c-1.3844 0.15989-1.8657 3.6e-4 -2.8774 1.9724-1.0117 1.972-2.1319 1.969-2.8774 0.15689-0.74545-1.8121-1.9171-4.0536 0.21273-4.4267 2.1298-0.37308 2.5013-0.95948 1.0636-2.1853-1.4376-1.2258-1.333-3.7319-3.0901-3.7319s-3.9893-0.26337-3.4036 2.0284c0.5857 2.2918 1.2269 2.4005 0.48142 2.8802-0.74544 0.47968-1.7649 0.52634-2.7766-1.4457s-1.1682-1.5368-0.36947-2.656c0.7987-1.1193 0.31219-1.8829-0.36947-2.8802-0.61484-0.89952-1.7859-1.2698-2.6646-1.1767-1.3333 0.14116-1.3293 1e-3 -1.4891 1.3336-0.15974 1.3324-1.5497 0.58927-2.2952-0.1569-0.74545-0.74616-2.0694-2.4526-3.5603-1.5465-1.4909 0.90607-1.1698 1.2728-1.2764 2.925-0.10649 1.6522 1.5341 1.3375 1.3211 2.7233-0.21298 1.3857-1.2709 2.134-1.1644 2.8802s0.48233 1.4394 2.0265 1.9724c1.5441 0.53297 2.0178 1.3818 2.284 3.1939 0.26623 1.8121 0.48364 3.9487 0.96285 5.3344 0.47922 1.3857 0.61141 2.6118 0.8509 3.8327 0.31419 1.6018 0.6681 3.3408 0.73894 5.0094 0.0611 1.4387 0.63908 2.5656 2.1832 3.2052 1.5442 0.63957 2.3414-0.21671 3.4596 0.58275 1.1182 0.79947 4.3711 0.69235 5.1166 0.42586 0.74544-0.26649 0.85206-0.68987 2.1832-0.15689s3.9894-6e-3 5.5868 0.10086c1.5974 0.10659 2.406 1.3331 1.0748 1.7595-1.3312 0.42638-4.5831-0.26441-5.9675 2.8802-1.3844 3.1446-2.1811 5.4375-3.885 5.9172-1.7039 0.47968-4.4806 0.32173-4.9598 0.69482-0.0225 0.0175-0.035 0.0614-0.0672 0.0672-1.6735 0.30263-3.2988 0.86902-4.2993 2.3086-1.402 2.0173-0.97117 2.4587 0.16794 3.1603 1.1391 0.70165 3.6008 0.43653 2.8998 1.9276-0.70099 1.491-1.8439 1.7463-4.2097 1.6586-2.3658-0.0877-3.5939 1.851-3.5939 3.956 0 2.105 4e-3 3.7723 2.1944 5.0879 2.1906 1.3156 1.6565 2.7169 1.1308 3.9448s-0.95355 2.6317-3.0565 0.52672c-2.103-2.105-3.4192-3.0682-4.1201-2.4543-0.70099 0.61396-1.0544 2.1049 0.87329 4.0344 1.9277 1.9296 2.8944 2.5366 3.1573 4.7293 0.26287 2.1927 1.3946 3.5058 2.1832 3.4181s1.3177-0.43459 1.6682-1.8379c0.35049-1.4033 0.17325-3.0692 1.9257-3.5077 1.7525-0.43854 1.7573 0.61342 1.2316 1.4905-0.52574 0.87709 0.3446 1.5743 1.7466 1.3112 1.402-0.26312 1.4983-0.95595 1.4107-2.6224-0.0876-1.6664 0.78078-2.6331 1.657-2.1069 0.87623 0.52624 0.96674 0.87749 1.142 2.5439s2.2825 2.8091 2.7206 0.61638c0.43812-2.1927-0.52626-3.25 1.4891-3.25 2.0153 0 2.7138-0.0925 3.4148-1.2328 0.70099-1.1402 1.66-1.394 0.78372-2.0957-0.87623-0.70166 0.35539-2.1098-0.78372-3.25-1.1391-1.1402-2.1871-1.2244-2.3624-2.3646-0.17524-1.1402-2.0231-0.61537-2.3736-1.5802-0.35049-0.96478 0.26576-2.102 1.142-2.8914 0.87623-0.78936 0.17767-2.9824 0.61578-4.5612 0.43812-1.5787 0.25504-2.3763 1.657-2.9026 1.402-0.52625 1.0578-0.87655 0.79492-1.4905s0.48179-2.0289 0.95944-3.5077c0.29426-0.91102 1.5228-4.0018 2.4889-4.4043 2.5558-0.95936 6.4479-2.6645 7.2998-2.6112 0.85195 0.0533 2.2922 0.20694 2.4519 0.52672 0.15974 0.31979 0.10298 1.8147 0.58219 2.4543 0.47922 0.63958 0.37871 2.5623-0.31349 3.575-0.42827 0.62655-0.87914 0.88417-0.87328 1.5578 0.0204 2.339-1.6318 7.3067-3.7955 10.097-0.76319 0.9337-1.4397 1.6985-0.76133 2.2078 0.6784 0.50928 1.9413-0.33268 3.2133-1.2664 1.272-0.9337 2.2042-0.17703 1.7802 2.4543s-0.92554 2.6369-2.4519 2.2974c-1.5264-0.33953-2.0344 0.50721-2.3736 1.356-0.33919 0.84881 1.1036 1.4419 1.0188 2.9698-0.0848 1.5279 0.42152 1.9514 2.5415 2.3758 2.12 0.42441 2.284 0.17807 2.284-0.84051 0-1.0186 0.17686-1.7914 2.1272-1.9612 1.9504-0.16977 1.8585 0.67822 1.8585 2.3758s0.26145 1.2772 2.7206 2.4655 2.1115 1.9541 1.4331 3.8215c-0.6784 1.8674 1.3603 2.8046 3.6499 3.6534 2.2896 0.84881 3.4755-0.1708 3.5603-1.6138 0.0848-1.443 0.51626-1.1032 1.5339-0.59396 1.0176 0.50929 2.3657-1.1894 2.0265-1.6138-0.3392-0.4244 3e-3 -1.0261 0.25751-1.5353 0.25435-0.50931 0-2.5438 0-3.1379 0-0.59417-0.42401-1.3575 0-1.7819 0.42399-0.42441 0.34562-1.1058-0.0784-2.6336-0.42399-1.5279-2.1202-1.9514-3.9858-2.3758s-1.6987-1.1827-1.4443-2.2862c0.2544-1.1034 3.4735-0.25443 4.9151-0.59396 1.4416-0.33953 0.93114-1.7879 0.16794-2.8914-0.7632-1.1034-3.2164-2.1193-3.4708-3.1379-0.2544-1.0186-0.59422-1.1014-2.799-1.356-2.2048-0.25465-0.0914-1.0244 0.67176-1.7034 0.76319-0.67904 1.1038-1.4422 0.42545-2.3758-0.6784-0.93369-1.2652-2.1146-1.2652-3.0482s0.3394-1.1057-0.59339-2.6336c-0.9328-1.5279-1.7908-1.2776-3.5715-1.2776-0.67356 0-1.3901 0.045-2.0265-0.11207-0.49633-0.12249-0.83972-0.58289-0.83972-1.1767 0-1.0554-0.29631-1.0068-0.2911-2.1181 8e-3 -1.8002-0.19005-3.3783 1.086-3.1379 1.7476 0.32928 2.2758 1.5719 3.6051 1.3672 1.3293-0.2047 2.9023-2.3196 4.2657-1.569s1.6289 2.0406 4.3217 1.9724c2.6927-0.0682 6.1432 0.37876 6.4489 4.3707 0.14541 1.8989 0.2545 3.9838 0.69413 5.7491 0.19607 0.78728-0.0463 2.3944-0.15674 3.2948-0.20565 1.6773-0.12002 3.7104-0.22392 5.2448-0.0934 1.3788 0.74347 6.4409 0.5598 8.831-0.18367 2.39-1.3794 3.772-1.2875 4.4155 0.0918 0.64347-0.45904 2.1961-0.45904 3.575s0.36296 8.0976-0.2799 9.6603c-0.64286 1.5627-2.2996 6.3402-2.5751 8.2706-0.27199 1.9057-0.97817 4.8438-0.99645 4.9198-2.6e-4 1e-3 -6e-3 0.0255-0.0112 0.0448-6e-3 0.0202-0.0169 0.035-0.0224 0.056-0.21394 0.82087 0.21601 2.7114-0.0336 3.4965-0.24958 0.78518-0.96578 2.5993-1.1084 3.3845-0.14262 0.78517-0.17395 1.3938-1.4219 1.3224-1.248-0.0714-1.6776-0.68103-3.6387-0.14568-1.961 0.53534-2.6715 1.2534-4.0977 0.89654-1.4262-0.35689-2.3903-0.49587-3.0677 0.325-0.67746 0.82087-1.3862 1.741-1.4219 3.0258-0.0297 1.0707-0.0328 1.8263-0.0336 2.0957-1.5e-4 0.0539 0.0121-0.86914 0 0.22414-0.021 1.8864-0.27999 2.8233-0.22392 3.2724 0.0584 0.46731 0.57611 1.4643-0.64937 2.1069s-1.281 0.99777-3.0901-0.11207c-1.809-1.1098-2.3956-1.7564-3.5044-2.1069s-0.28365-1.5716 0.35827-2.331c0.64192-0.75936 0.52114-2.2223-0.17914-2.6896-0.70027-0.4673-2.2195 1.5744-2.9781 1.1655-0.75863-0.40889-0.87293-1.6984-1.9817-0.99741-1.1088 0.70095-2.0974 1.6352-1.4555 3.037 0.64192 1.4019-0.17539 2.5127-0.81731 2.4543-0.64192-0.0584-1.8148-0.0587-2.34-0.8181-0.52521-0.75936 0.23547-2.5039-0.87329-2.387-1.1088 0.11682-1.4619 1.1084-1.5786 2.5103-0.11672 1.4019-2.8041 4.3211-3.5044 4.4379s-3.259-0.41194-3.7842 0.34742c-0.52521 0.75935-1.2896 2.511-2.34 2.2189-1.0504-0.29206-0.81119-1.2769-1.5115-1.569-0.70027-0.29206-1.4633-1.1699-0.99644-2.1629 0.46684-0.99301 1.9315-3.6799 0.41425-3.8552s-2.4003 0.4024-3.3924 1.8043c-0.99206 1.4019-1.3974 1.6393-2.2728 1.2888-0.87534-0.35047-2.0994-1.0535-2.5079 0.87413-0.4085 1.9276-0.93539 2.1673-0.23512 3.1603 0.70028 0.99302 0.99 1.8063 0.87329 2.8577s-0.40241 3.8582 1.2316 3.5077 3.1505-1.9914 4.1425-1.5241c0.99206 0.4673 1.5155 0.70599 1.6906 2.6336 0.0721 0.79387 1.0698 1.152 1.9033 1.5578 1.1904 0.57943 2.346 1.0011 2.5863 0.8293 0.4085-0.29206 2.3919-0.10763 2.2168-1.0422-0.17506-0.9346-0.69241-1.9941-2.3848-2.2862-1.6923-0.29206-2.8628-2.8034-0.47023-3.037 2.3926-0.23365 2.741-0.11069 3.6163-0.69482 0.87534-0.58412 1.5159-0.99978 2.5079-0.94137 0.99206 0.0584 0.99202-0.1698 1.9257-0.40345 0.93371-0.23365 2.2738-0.3508 2.799-0.8181 0.5252-0.4673 0.69854-0.75492 1.6906-0.93016 0.99206-0.17524 1.5271-1.6956 2.5191-2.1629 0.99206-0.4673 1.2814-0.81709 1.9817-0.29137 0.70027 0.52571 1.0497 1.5754 2.2168 1.6922 1.1671 0.11682 2.154 0.11071 3.1461 0.69483 0.99205 0.58411 1.6415 0.47777 3.1013 0.70603 1.1764 0.18394 2.881 1.621 2.911 2.656 0.0286 0.98466-0.31548 1.7823-2.0601 2.1405-1.7446 0.35822-2.1063 0.94127-3.4036 0.85172-1.2972-0.0896-1.6138 0.71734-2.9557 0.80689-1.342 0.0896-1.9154 0.71673-2.6311 0.26896-0.71572-0.44776-0.53623-1.1214 0.49263-1.7483 1.0288-0.62686 1.3436-0.88657 1.3883-1.9612 0.0447-1.0746 0.0428-1.3-1.657-1.3-1.6998 0-2.0614-0.0432-3.2692 1.3448-1.2078 1.388-2.418 2.591-2.1048 4.5612s0.9418 2.8242 2.1048 2.9138c1.1631 0.0896 8.2257-0.10181 8.4978-0.17931 0.9434-0.26866 2.8219 0.40304 3.2245 0.0448 0.40259-0.3582 2.4192-1.4349 3.1349-1.8379 0.71573-0.40299 2.4075-0.58352 2.7206-1.2552 0.31312-0.67164 1.8819-2.1968 2.7318-2.4207 0.84993-0.22388 1.0769-0.67216 2.8662-0.44828 1.7893 0.22389 1.6912-0.22475 2.228-0.76206 0.5368-0.53731 1.5229-1.0655 1.7466-1.8267 0.22367-0.76118 1.0483-2.5532 1.657-2.9138 1.8006-1.0664 1.9479 1.2173 1.9145 1.8491-0.11651 2.2065-0.79589 3.3694 0 3.6758 0.7959 0.30641 2.5093 0.13038 2.7542 1.356 0.24489 1.2256-0.73823 3.2438-0.61579 4.1017 0.12245 0.85794 0.18455 1.7725 2.0825 3.0595 1.8979 1.2869 1.2897 3.8639 1.657 4.4155 0.36733 0.55153 0.4864-0.12141 1.3435 1.1655 0.85712 1.2869 1.4102 2.0845 3.2468 2.0845 1.8367 0 2.5058 0.11687 2.1384-0.9862-0.36733-1.1031-1.2175-2.2607-0.72774-2.6896 0.48979-0.42898 2.4429-1.9609 2.8102-2.8802 0.36734-0.91923 1.9033-2.8851 1.9033-3.7431-1e-5 -0.85795-0.12556-2.6932 0.42545-3.306s1.5293-1.2248 1.713-2.7569c0.18366-1.532-0.55412-3.0017 0.42545-3.6758 0.97957-0.6741 1.0441-1.2838 1.5338-0.42585 0.48979 0.85795 0.31251 1.1564 1.1084 1.5241 0.7959 0.3677 2.5108 1.4734 3.0005 1.4121 0.48979-0.0613 2.3264 0.49523 2.8774 0.86293 0.551 0.36769 0.48806 1.026 1.713 0.97499 0.50157-0.0209 0.96013 0.0216 1.4555 0.11207 1.4245 0.26008 3.6315 1.4554 4.6352 1.7146 1.0037 0.25927 3.8569 0.93714 4.6016 1.4233 0.74468 0.48613 1.424 1.4941 2.9781 1.5914 1.5541 0.0972 3.1016 0.32289 4.0082-0.0336 0.90657-0.35649 1.6213-0.8387 1.2652-1.3896-0.35615-0.55094-0.48052-1.462-0.15675-2.4991 0.32378-1.0371-0.088-2.4092-1.3659-2.6224-1.9426-0.32408-2.6874 2.1977-3.5939 2.2302-0.90657 0.0324-2.3566-1.7728-4.2993-2.1293-1.9426-0.35649-2.6961-1.3957-4.7359-1.5578-2.0398-0.16203-2.8617-0.72855-4.1761-1.5914-0.56322-0.36971-1.2974-0.82678-1.5115-1.4345-0.50419-1.4314 0.36471-2.6914 3.0565-2.2078 1.3395 0.24066 1.4773 0.9374 3.0229 1.625 0.83749 0.37258 2.2259 1.3403 3.8402 1.5465 1.6143 0.20627 2.0297 0.13864 3.4036-1.0646 1.2849-1.1254 1.8352-0.71462 3.3924-0.32499 2.9723 0.74372 7.4396-0.22136 8.5985 1.3 0.92687 1.2988 0.70157 2.3418 4.0754 1.1543 3.3738-1.1875 2.6722-1.1161 4.3776 0.14569s2.1846 1.557 4.0754 1.4457 2.4136-0.80704 2.8214 0.86292c0.40782 1.67 0.11746 3.0372-0.17914 3.631s-2.4903 1.0748-2.0825 2.0396c0.40783 0.96487 4.0363 1.1899 4.3329 0.93016 0.2966-0.25976 1.4891-0.44591 1.4891-1.7819 0-1.336-0.44818-3.0056 0.62698-3.3396s2.3422 1e-3 2.6758-0.36982c0.33364-0.37115 0.62369-0.48338 1.254-0.70603 0.63026-0.22266-0.51575-0.70422-0.62698-1.5578-0.0863-0.6622-0.3665-1.3928 0.0448-2.3198 0.64876-1.4623 2.4462-3.6206 2.3288-5.8836-0.14829-2.8575-3.7408-2.7499-5.6316-2.8241-1.8908-0.0742-2.9741 0.56477-3.4932 1.2328-0.51904 0.66799 0.62811 1.7024 1.9257 2.6672 1.2976 0.96486 1.3042 1.7058 1.0076 2.6336-0.29659 0.92775-0.85403 0.70382-1.8921 0.36982-1.0381-0.33399-2.4426-0.18703-3.8514-0.22413-1.4088-0.0371-4.7886-1.5522-5.4189-1.8491-0.63026-0.29688-1.8839-1.8205-2.3288-2.006s-1.595 0.59543-2.3736 0.8181c-0.77856 0.22266-0.52346-2.9274-0.67176-3.8552-0.1483-0.92775-1.8507-1.5594-3.482-2.3758s-2.2633-0.70677-3.0789-0.8181c-0.81564-0.11132-1.8966-1.7139-2.5639-1.6026s-0.81254 2.5693-1.2204 3.0146c-0.40782 0.44533-2.182-1.228-2.5527-1.6362-0.37075-0.40821-1.6671 1.2554-2.6311 1.8491-0.96394 0.59376-0.48197 0.82601 0 1.4569 0.44492 0.58237 1.3548 1.272 0.87329 2.4991-0.043 0.10966-0.14445 0.18576-0.21272 0.29137-1.2146 1.8789-4.1364 1.0032-5.2957 0.61638-1.1594-0.38683-1.7219-3.0429-1.5562-4.2586 0.16563-1.2157 1.5443-4.317 0.61578-4.9758-0.69977-0.49651-1.5547 0.0622-3.0453-1.0983-1.4906-1.1605-2.806-1.1694-3.3028-1.4457-0.49687-0.27631-2.7685-0.6558-4.5904-1.8715-1.76-1.1744-3.2804-4.9831-3.2804-6.4663v-0.0112c0-0.0337 1e-3 -2.6594 0.54861-4.3034 0.55104-1.6546-2.573-3.962-2.2056-6.4439s1.1087-4.0407 0.19034-5.6034-0.73455-1.2815-0.45904-2.9362 0.55329-2.4001-0.0896-3.687c-0.64285-1.2869 1e-3 -1.4612-0.45904-3.1155-1.1797-4.2401 0.72478-10.207 0.44786-13.605-0.0675-0.82821-0.0331-1.6513-0.0336-2.3422-1e-3 -1.4267-0.6431-3.736-0.8397-4.5724-0.1966-0.83635 1.4287-2.5088 1.4779-3.7879 0.0491-1.2791-0.74104-2.1213 0.29109-4.4827 0.62609-1.4324 1.1923-1.9416 1.5786-2.006 0.28411-0.0474 0.56708 0.0448 0.80611 0.0448 1.5453 0 1.2152 0.32829 3.2021-0.22414 1.9868-0.55243 1.5512-0.77327 2.7654-0.77327 1.2142 0 2.7492-1.2119 3.9634-1.3224 1.2142-0.11049 1.5545 0.99266 2.2168 0.6612s2.9747-1.4378 4.2993-0.88534 0.99012 1.098 0.5486 2.6448-0.98524 1.8777-0.98524 3.0931c-1e-5 1.2154 0.33141 1.878-1.5451 1.5465-1.8765-0.33146-2.0967-0.21176-3.0901 2.219-0.99342 2.4307-3.5591 3.1366-0.99644 5.1888 1.6557 1.3258 1.9014 2.69-0.11196 3.0931-2.2076 0.44195-4.4931 0.33912-3.7507 2.0957 1.2142 2.8726-0.99036 1.5516-2.4295 2.9922-1.2142 1.2154-0.33024 3.3078 3.9746 1.8715 1.4393-0.48021 1.8261 1.0151 1.6122 1.8715-0.23845 0.95488-1.2193 1.6698-3.6051 1.6698-1.2126 0-2.4661 0.78294-2.7094 2.0396-0.41448 2.1409-0.72697 5.7663-0.92927 7.3517-0.40248 3.1543 1.0107 1.7254 3.6387 0.88534 1.4302-0.45715 1.9822 0.71776 1.4443 2.3198-0.52407 1.5607 1.273 1.461 3.8626 1.9836 2.1641 0.43676 2.6456 3.6e-4 2.0937-2.3198-0.55191-2.3202-0.33629-4.7534 1.9817-4.0905 2.318 0.66292 1.9929 0.78014 1.9929-1.8715 0-2.6517 2.0983-3.6474 3.2021-1.6586 1.6082 2.8975 3.3122 0.65528 4.7471-2.1069 1.435-2.7622-1.8842-6.4005-1.3323-7.2844 0.55191-0.88389 0.5515-0.66292 2.3176 0s2.7654 0.32685 2.7654-1.1095c-1e-5 -1.4363-2.0967-0.77312-3.0901-1.5465-0.99342-0.77341-0.66689-1.9833-1.1084-3.5301-0.44152-1.5468-1.4282-0.89113-1.8697-4.4267-0.22076-1.7678 0.65741-3.7493 0.43665-4.9646-0.22076-1.2154-0.44139-1.1108-0.77253-2.7681-0.33114-1.6573 0.94466-2.4353 2.5415-1.9836 1.6557 0.46836 2.7636 2.62 4.1985 2.4319 0.95367-0.12505 2.3886 0.76513 2.8886 1.6922 1.0227 1.8965 1.5342 4.4112 1.9705 6.5448 0.33176 1.6225 1.9637 1.0241 2.0489 4.1801 0.0852 3.156 7.2e-4 4.6079 1.1084 6.3991 1.1078 1.7913-0.68606 2.4773-1.6234 3.5862-0.93737 1.1089-0.60022 2.9791-2.0489 4.2586-1.4486 1.2794-1.3616 3.0763-1.2763 3.8439 0.0852 0.76768 2.7262 1.023 3.4932 0.42586 0.76693-0.59708 0.85586-0.43459 2.0489 0.93017s2.1297 2.4829 3.4932 2.8241 1.2832-1.7943 1.198-4.012c-0.0852-2.2177 3.408-1.7894 3.4932 0.25775 0.0852 2.0471 0.68171 3.0707 1.5339 4.606 0.85214 1.5354 2.7262-0.60204 3.4932-1.1991 0.76694-0.59708 1.4499 0.77202 2.2168 1.625 0.76693 0.85298 1.0132 0.68052 1.7802-1.7931s2.1378-2.8129 4.0978-4.3482c1.9599-1.5354 0.50879-2.4786 0.16794-2.7345-0.34086-0.25589-1.025-1.1051-2.8998 0.51551-1.8747 1.6206-2.8917 0.84799-3.829 0.3362-0.93736-0.51178-4e-3 -2.3808-0.0896-3.575-0.0852-1.1942 2.4681-1.5422 3.6611-2.9922 1.193-1.45-1.4499-4.0033-3.7507-5.3681-2.3008-1.3648-5.1968 0.0847-5.4525-2.6448s3.7556-1.366 4.9486-2.219 0.50694-1.798-0.0896-2.9922c-0.5965-1.1942-5.7914-2.9791-6.7288-4.2586-0.93736-1.2795-3.1554-2.9897-4.4336-3.1603-0.77079-0.10287-1.8522-0.52619-2.5975-0.91896-1.0877-0.57328-1.9351-1.5932-2.0936-2.8353-0.0871-0.68214-0.33338-0.67241-2.0377-0.67241s-2.1378 0.0841-2.5639-0.68362c-0.42607-0.76767 0.0933-1.1948 2.1384-1.1095 2.0452 0.0853 2.47-1.7109 5.4525-1.1991s2.3816-0.33434 6.0458-0.0784c3.6642 0.25589 4.5182-0.34118 6.3929-1.5353 1.8747-1.1942 1.3628-4.1901 1.9593-6.5784 0.5965-2.3883 0.68047-9.2942 0.8509-11.341 0.17042-2.0471 3.1504-3.324 3.2356-4.7741 0.0463-0.7881-0.18747-1.5905-0.24632-2.2077-0.0249-0.2617 0.76481-2.8628-0.15674-3.6534-0.96776-0.83031-1.5183-2.2048-2.0713-1.5129-0.553 0.69191-1.1147 3.1793-2.0825 2.9026-0.96776-0.27677-1.2345-1.3789-1.9257-0.96378-0.69126 0.41515-1.3834 0.41365-2.3512 1.244-0.96777 0.83031-0.14405 4.011-1.3883 4.8414-1.2443 0.8303-1.932 0.96138-2.8998-0.14569-0.96776-1.1071 0.829-1.6571 0.41425-2.9026s-0.5505-1.3872-2.0713-0.28017-2.6272 0.0107-2.7654 0.42586c-0.13826 0.41515 1.1026 2.7613-0.2799 2.2077-1.3825-0.55353-2.3468-0.55404-2.8998 0.41466-0.553 0.96868 0.68485 2.6326 2.2056 3.4629 1.5208 0.83031 2.7669 2.214 1.5227 3.1827-1.2443 0.96869-2.2148 1.1003-3.8738-0.56034-1.659-1.6606-2.7615-2.2098-2.8998-0.54914-0.13825 1.6606 0.82461 3.6022 0.96286 5.8163s0.41615 2.0738 1.9369 1.6586c1.5208-0.41516 3.8796-0.9687 5.2621 0 1.3825 0.96868 2.4885 4.0076 0 4.5612-2.4885 0.55354-1.8-2.2156-3.8738-1.9388-2.0738 0.27676-2.4894 0.97739-2.3512 2.0845 0.13826 1.1071 0.82901 2.2111 0.41426 2.4879-0.41476 0.27677-2.7678-4e-3 -3.8738 0.13448-1.106 0.13839-2.6291-1.2445-4.2881-0.8293-1.659 0.41515-3.3159 1.1115-4.8367-0.54914-1.5208-1.6606-3.8694-1.5295-4.4224-0.14568-0.55301 1.3838-0.2793 1.663-3.8738 1.1095-3.5945-0.55354-5.2455-1.3799-6.628-0.13448s-1.6666 1.5168-6.0906 1.3784c-4.424-0.13839-4.6984-0.27577-4.8367-0.82931-0.13825-0.55353-0.41085-3.593-0.13435-4.1465 0.27651-0.55354 1.105-2.6326 0.82851-3.4629-0.0992-0.29773 0.0227-1.1232 0.60458-1.7931 1.467-1.6889 4.461-2.9482 5.2621-5.0431 0.44617-1.1667 0.92928-1.5802 1.9817-2.1069 1.0524-0.52672 2.7626-0.40065 4.2097-0.26897 1.4471 0.13169 1.0496-0.79008 1.4443-1.5802 0.39466-0.79007 4.0782-0.39223 5.7883-0.39223 1.7102 0 2.1049-0.65841 3.6835-1.0534 1.5786-0.39505 3.6835-3.956 5.7884-6.0629 1.9369-1.9387 4.463-5.8108 5.654-6.231 0.84759-0.29906 3.8061 2.1115 5.3965 2.2862 2.6311 0.26336 5.125-1.3168 4.9934-3.1603-0.13155-1.8435-1.3071-1.0506-2.7542-0.91896s-3.1573 0.52111-3.1573-1.3224c0-1.8435 5.2566-1.1851 8.1507-1.0534s2.7626 1.8435 6.3146-0.52672c3.5519-2.3702 3.5491-5.2644 2.4967-6.1862-1.0524-0.92176-1.4443 1.1851-3.5491 1.0534-2.1048-0.13168-2.6311 1.1823-3.6835 1.4457-1.0524 0.26336-2.5023-1.3168-1.713-1.5802 0.78931-0.26336 3.5519-2.8998 4.2097-3.8215 0.65776-0.92176 4.4728-1.045 5.2621-1.1767 0.78931-0.13168-0.2631-2.6336 0-3.1603 0.2631-0.52672 3.2972 0.91336 3.5603 0.12328 0.26311-0.79008-0.66336-3.1575-0.79491-4.606-0.13156-1.4485-0.66057-2.4963-1.1868-3.4181-0.52621-0.92176 0.13995-1.3252-0.64937-0.40345-0.78932 0.92176-2.5023 0.92176-2.7654 0.52672-0.26311-0.39504 0.13156-1.8407 0-3.0258-0.13155-1.1851 0.26592-2.6364 1.1868-4.875 0.92087-2.2386 0.91526-4.8694-0.79492-5.1327-1.7102-0.26336-2.1076 3.4209-2.7654 5.6594-0.65777 2.2386-3.1489 1.5886-4.3329 3.037-1.184 1.4485 0.91247 3.5526 0.64937 5.1327-0.26311 1.5802-2.8858 1.5746-3.8066 2.3646-0.92087 0.79008 1.4387 2.7681 1.7018 3.8215 0.17162 0.68711-0.46519 1.1603-0.97405 1.2888-0.61978 0.15644-1.3739 0.12361-2.1832 0.0336-2.368-0.26337-2.0965 1.4429-3.8066 1.3112-1.7102-0.13168-2.5079-0.6528-4.0866 0.26896-1.5786 0.92176-1.7018 1.1823-3.2804 0.39224-1.5786-0.79008-2.1445 0.95861-2.7654 1.5802 0 4e-6 -0.52901 0.92177-0.13435 2.6336 0.39466 1.7118 1.7158 2.4963 1.3211 4.4715-0.39466 1.9752-0.40306 2.7653-1.4555 2.6336-0.9644-0.12067-0.80893-0.0331-1.3099-0.84051-0.81077-1.3066-1.5808-1.0536-2.4967-1.3896-0.66516-0.24405-1.3155-1.5802-1.5786-2.1069-0.26311-0.52672-0.40026-3.6954-0.79492-4.6172-0.39465-0.92176-1.0524-1.4457-0.52621-2.4991 0.52621-1.0534 1.7102-2.3674 3.1573-2.4991 1.4471-0.13168 2.2364-0.79569 2.6311-1.8491 0.39466-1.0534-1.5786-1.045-2.1048-1.7034-0.52621-0.6584 0.52621-1.4541 0-2.9026-0.52621-1.4485 1.4527-1.4485 3.426-2.1069s2.2336-1.8407 1.9705-2.4991c-0.26311-0.6584 0.39465-2.5047-1.5786-2.7681-1.9733-0.26336-1.184 1.8463-2.1048 2.7681-0.92087 0.92176-1.5814-0.39785-1.713-2.2414-0.13155-1.8435 1.8473-3.023 2.8998-4.4715 1.0524-1.4485-3e-3 -2.9026-0.66057-4.4827-0.65773-1.5802-1.3211-1.8463-3.426-1.1879-2.1048 0.6584-1.1811-1.1801-3.0229-1.3112-1.3285-0.09453-1.5306 1.2202-0.91807 1.9724 0.64913 0.7972-6e-3 2.1041-1.3211 2.4991-1.3155 0.39504-1.1784 3.1631-1.8362 3.8215-0.65776 0.6584-0.39466 2.2358 0 4.0793 0.39466 1.8435-0.78931 2.8998-1.5786 3.8215-0.78931 0.92176-1.3155 3.9532-1.5786 4.875-0.2631 0.92176 0.25751 5.9256 0.25751 7.3741 0 1.4485 0.26312 2.6308 1.0524 3.0258 0.78932 0.39504 1.3239 0.12889 2.5079 1.9724 1.184 1.8435 0.64937 4.3482 2.228 5.4017 1.5786 1.0534 3.6835 3.687 3.6835 3.687 0.58912 0.77876 1.1641 1.5153 1.1868 2.2414 0 1.1851-3.1573 2.1013-3.6835 3.4181-0.52621 1.3168-5.654 2.6364-7.2326 2.7681-1.5786 0.13168-2.6367 2.6364-3.9522 2.7681-1.3155 0.13169-2.4911 1.3196-3.8066 1.1879-1.3155-0.13167-1.8446 1.3084-3.8178 1.1767-1.9733-0.13168-5.0018 0.52952-5.9227 0.13448-0.93543-0.87394-0.50783-2.424-0.52623-3.6422-0.0129-0.85634-0.75481-14.647-0.7837-17.953 0-2.2386 0.12595-2.4963 0.25751-3.4181 0.13155-0.92176 3.6807-2.247 3.5491-3.5638-0.13156-1.3168-1.4387-1.0534-2.228-1.5802-0.78932-0.52672 0.26311-1.8351 1.5786-2.7569 1.3155-0.92176 4.2013-3.4265 4.8591-4.875 0.65777-1.4485 1.4499-4.0877 0.13435-5.0094-0.24098-0.16885-3.0229 0.53232-4.0754 0.26896-1.0524-0.26336-0.26031-2.2442 0.13435-3.4293 0.39466-1.1851 1.4443-1.4485 1.4443-2.6336s1.7046-2.4991 1.3099-4.0793c-0.39465-1.5802-1.7018-1.3168-3.8066 0-2.1048 1.3168-3.4204 0.26336-3.1573-1.5802 0.26311-1.8435-0.79492-1.978-2.3736-1.1879-1.5786 0.79008-0.78469-0.8636-0.25751-2.3646 0.53727-1.5297-1.1659-1.6132-1.8474-2.4992z" fill="#fcdd09" stroke="#000" stroke-width="1.4338"/>
<path d="m336.69 150 0.0582-109.05h-173.78l0.05038 109.05" fill="none" stroke="#fff" stroke-width="2.151"/>
</svg>
