<?xml version="1.0" encoding="UTF-8" standalone="no"?>
<!-- Created with Inkscape (http://www.inkscape.org/) -->

<svg
   xmlns:dc="http://purl.org/dc/elements/1.1/"
   xmlns:cc="http://creativecommons.org/ns#"
   xmlns:rdf="http://www.w3.org/1999/02/22-rdf-syntax-ns#"
   xmlns:svg="http://www.w3.org/2000/svg"
   xmlns="http://www.w3.org/2000/svg"
   xmlns:sodipodi="http://sodipodi.sourceforge.net/DTD/sodipodi-0.dtd"
   xmlns:inkscape="http://www.inkscape.org/namespaces/inkscape"
   version="1.1"
   id="svg2"
   width="802"
   height="481"
   viewBox="0 0 802 481"
   sodipodi:docname="Flagge Ingolstadt.svg"
   inkscape:version="0.92.3 (2405546, 2018-03-11)">
  <metadata
     id="metadata8">
    <rdf:RDF>
      <cc:Work
         rdf:about="">
        <dc:format>image/svg+xml</dc:format>
        <dc:type
           rdf:resource="http://purl.org/dc/dcmitype/StillImage" />
        <dc:title></dc:title>
      </cc:Work>
    </rdf:RDF>
  </metadata>
  <defs
     id="defs6">
    <inkscape:perspective
       id="perspective3675"
       inkscape:persp3d-origin="372.04724 : 350.78739 : 1"
       inkscape:vp_z="744.09448 : 526.18109 : 1"
       inkscape:vp_y="0 : 1000 : 0"
       inkscape:vp_x="0 : 526.18109 : 1"
       sodipodi:type="inkscape:persp3d" />
    <inkscape:perspective
       sodipodi:type="inkscape:persp3d"
       inkscape:vp_x="0 : 526.18109 : 1"
       inkscape:vp_y="0 : 1000 : 0"
       inkscape:vp_z="744.09448 : 526.18109 : 1"
       inkscape:persp3d-origin="372.04724 : 350.78739 : 1"
       id="perspective3809" />
    <clipPath
       id="clipPath373">
      <path
         id="path375"
         d="M 404.162,541.974 L 404.162,375.563 L 559.343,375.563 L 559.343,541.974" />
    </clipPath>
  </defs>
  <sodipodi:namedview
     pagecolor="#ffffff"
     bordercolor="#666666"
     borderopacity="1"
     objecttolerance="10"
     gridtolerance="10"
     guidetolerance="10"
     inkscape:pageopacity="0"
     inkscape:pageshadow="2"
     inkscape:window-width="1920"
     inkscape:window-height="1017"
     id="namedview4"
     showgrid="false"
     inkscape:zoom="1.0015877"
     inkscape:cx="698.67553"
     inkscape:cy="250.19024"
     inkscape:window-x="-8"
     inkscape:window-y="-8"
     inkscape:window-maximized="1"
     inkscape:current-layer="svg2" />
  <rect
     style="opacity:1;fill:#ffffff;fill-opacity:1;fill-rule:evenodd;stroke:none;stroke-opacity:1"
     id="rect817"
     width="802"
     height="481"
     x="0"
     y="0" />
  <rect
     style="opacity:1;fill:#003b80;fill-opacity:1;fill-rule:evenodd;stroke:none;stroke-width:0.50273818;stroke-opacity:1"
     id="rect849"
     width="802"
     height="121.57066"
     x="0.2496037"
     y="119.80978" />
  <rect
     style="opacity:1;fill:#003b80;fill-opacity:1;fill-rule:evenodd;stroke:none;stroke-width:0.50273818;stroke-opacity:1"
     id="rect849-4"
     width="802"
     height="121.57066"
     x="0"
     y="359.42932" />
  <style
     id="style881"
     type="text/css">
	.st0{fill:#FFFFFF;stroke:#1B1A1C;stroke-width:10;}
	.st1{fill:#C71712;}
	.st2{fill:#003B80;}
	.st3{fill:#FFFFFF;}
	.st4{fill:#E5E5E5;}
	.st5{fill:#231F20;}
</style>
  <g
     transform="matrix(0.48693897,0,0,0.50391156,230.52699,39.201471)"
     id="layer1">
	<path
   d="m 56.3,490 v -3.6 c 0,1.1 -0.1,2.3 0,3.6 z m 586.5,-2.5 v 3.6 c 0,-1.2 0,-2.4 0,-3.6 z m 0,0 c 0,1.2 0,2.4 0,3.6 C 640.5,651.4 509.7,780.5 349,780.2 188.2,779.9 57.9,650.2 56.3,490 c 0,-1.2 0,-2.5 0,-3.6 l 0.8,-421.8 586.5,1.2 -0.8,421.7"
   class="st0"
   id="path111"
   inkscape:connector-curvature="0"
   style="fill:#ffffff;stroke:#1b1a1c;stroke-width:10" />

	<path
   d="m 100.5,136.4 c 0,0 11.2,-8.7 25.2,3.5 0,0 19.4,18.4 32,25.3 0,0 22.8,14 49.8,4.2 0,0 -19.6,0.5 -36.4,-15.6 0,0 -21.7,-21 -39.1,-25.7 0,0 -25,-4.6 -30.9,6.4 l -0.6,1.9"
   class="st1"
   id="path117"
   inkscape:connector-curvature="0"
   style="fill:#c71712" />

	<path
   d="m 126.7,116 c 0,0 10.2,-2.6 19.5,6.8 0,0 14.4,16.8 28.5,28.7 0,0 30.1,24.4 55.1,13.3 0,0 -17.6,0.6 -43.1,-27.6 0,0 -16.7,-20.9 -26.2,-24.9 0,0 -9.8,-6.1 -26.4,-2.5 0,0 -4,0.7 -6.9,5 l -0.5,1.2"
   class="st1"
   id="path119"
   inkscape:connector-curvature="0"
   style="fill:#c71712" />

	<path
   d="m 151.6,101 c 0,0 12.4,-2 24.3,13.3 0,0 25.7,40.8 57.8,49.3 0,0 18.4,5.2 58.7,-0.4 0,0 13.1,-2.4 16.7,2.3 l 4.8,-2.4 c 0,0 -5.2,-7.4 -20.1,-6.5 0,0 -38.3,3.9 -56.1,-3.4 0,0 -15,-4 -35.2,-32.3 0,0 -12.7,-16.4 -31.2,-21.6 0,0 -9.7,-3.2 -18.4,0.8 l -1.3,0.9"
   class="st1"
   id="path121"
   inkscape:connector-curvature="0"
   style="fill:#c71712" />

	<path
   d="m 238.8,163.6 c 0,0 -5.2,14.7 -12.7,27.5 0,0 5.5,2.2 15.9,-4.1 l 78.2,0.1 c 0,0 40.6,0.2 54.8,-4 0,0 12.8,-4.2 19.5,-12.9 0,0 14.4,2.7 15.7,14 0,0 1.9,12.4 -10.3,21.5 0,0 1.9,0.2 -32.1,18.4 l -92.9,50.8 -3.3,1.2 -92.8,-51.1 c 0,0 -1.5,-5.5 -3.6,-24.1 0,0 -1.4,-16.9 -8.4,-27 0,0 -6.4,-9.4 -21,-1.3 0,0 -3.6,1.7 -8.2,5.6 0,0 0.2,1.9 11.4,7.8 l 3.4,22.8 -27,-24.8 c 0,0 -0.7,-0.7 -2.1,-1.2 -2.1,-0.9 -5.7,-1.4 -10.1,1.6 0,0 -7,3.9 -13.8,15.8 0,0 -3.3,1.9 9.4,2.8 l 0.7,0.7 17.8,18 -27.7,4.3 c 0,0 -1,-0.1 -2.4,0.5 -3.1,1.2 -7.8,5.3 -6.5,19.3 0,0 1.1,9.5 3.9,10.6 0,0 1.2,1 2.6,-1.5 0,0 1.6,-4.6 5.7,-7.6 0.6,-0.4 1.3,-0.8 1.9,-1.2 1.2,-0.6 2.6,-1 4.1,-1.2 l 17.9,-0.6 c 0,0 6.6,5.2 12.5,14.4 0,0 1.9,3.8 -6,10.1 0,0 -0.6,0.5 -1.6,1.3 -2.3,1.7 -7,4.7 -12.6,6 0,0 -2.1,0.7 9.7,10.1 0,0 4.2,4.2 11.7,0.5 0.9,-0.5 1.9,-1 3,-1.8 l 9.2,-8.3 c 0,0 5,-2.1 6.5,-5.5 0,0 10.4,-0.3 20.1,10 0,0 1.9,1.9 5.7,7.6 0,0 2.8,5 6.6,7.7 l 23.7,16.7 30,20.2 3.5,2.8 c 0,0 -9.5,13.5 -67.4,65.4 0,0 -12.2,-5.6 -28.4,-19.9 0,0 -2.1,-2.3 -5.3,-4 -3.3,-1.6 -7.8,-2.5 -12.5,0.8 0,0 -8.1,3.5 -10.1,20.2 0,0 7.3,-1.8 13.4,-0.9 1,0.1 2,0.4 3,0.7 1.5,0.5 2.9,1.3 3.8,2.5 0,0 7,12.1 8.9,14.6 l -25.3,3.4 c 0,0 -2.9,0.4 -5.8,2.1 -3,1.8 -6.1,5 -6.2,10.8 0,0 -0.3,11.8 4.1,18.2 0,0 1.5,1.1 2.2,-2.6 0,0 0.9,-2.8 4.4,-5.2 0.6,-0.5 1.3,-0.9 2.1,-1.3 2.2,-1.1 5.2,-2.1 9.1,-2.5 l 20,-3.3 -15.6,24.1 c 0,0 -1,1.5 -1.6,3.9 -0.8,2.9 -1,7 1.5,11.3 0,0 4,9.4 17,10.7 0,0 -2.6,-5.3 1.6,-12.5 0.5,-0.8 1.1,-1.7 1.7,-2.6 0.2,-0.2 0.3,-0.4 0.5,-0.6 L 174,458.3 h 13.1 c 0,0 4.3,0.7 9,-3 0,0 5.5,-6.6 12.2,-0.3 0,0 1.7,1.1 3.9,3.6 0.6,0.7 1.2,1.5 1.8,2.5 1.8,2.8 3.6,6.4 4.8,11.4 l 10.8,-7.9 c 0,0 6.1,-3.3 2,-12 0,0 0,-0.1 -0.1,-0.3 -0.7,-1.5 -4.5,-8.5 -14.6,-17.2 l 25.5,-27.5 c 0,0 15.3,0.5 26,-7.1 L 299.2,376 c 0,0 4.6,-4.1 10.1,0 0,0 37.7,30.5 62.6,43.4 0,0 7.7,4.1 19.8,8.3 0,0 9.1,3.5 13.1,5.6 0,0 -18.6,15.6 -70.2,18.3 0,0 -25,0.3 -48,22.5 0,0 -4.3,4.7 -8.6,10.2 0,0 -19.4,24.4 -48.1,11.8 l -10.7,17 c 0,0 21.4,19.4 59.5,-0.6 l 2.5,0.9 c 0,0 -4.6,14.4 14.7,37.7 0,0 17.3,17.2 11.1,27.3 0,0 -8.5,14.6 -24.9,25 0,0 -9.6,6.8 -20.2,-1.5 0,0 -10.1,-7 -24.3,-25.6 0,0 -3.6,-5.4 -10.1,-6.4 -3.3,-0.5 -7.3,0 -12,2.9 0,0 -9.4,6.3 -11.2,17.6 0,0 -0.2,2.1 3.2,-1 0,0 8.9,0 13.7,-0.8 l 0.9,1.3 11.1,16.1 -27,0.5 c 0,0 -4.9,0.4 -9.4,2.9 -3.4,1.8 -6.6,5 -7.1,10 0,0 -0.6,7.6 1.9,20.7 0,0 0.3,1.2 2.6,-1.5 0,0 5.3,-5.8 8.3,-10.2 l 1.6,0.1 27.9,0.6 -22.8,26.3 -0.2,0.3 c 0,0 -5.1,4.7 0,13.2 0,0 5.3,8.5 13.6,14.2 0,0 1.2,0.3 0.3,-2.7 0,0 -2.5,-4.1 0.9,-11.2 l 4.3,-3.8 12.7,-11.1 c 0,0 13.9,7.6 32.8,0.7 0,0 4.1,-2.2 6.1,1.9 l 6.3,11.1 1.6,2.8 c 0,0 2.6,5.7 0,9 0,0 0.4,1.7 4.9,0.3 0,0 13.5,-1.8 16.7,-10.5 0,0 0,-1.4 -0.9,-4.2 -0.4,-1.2 -0.9,-2.5 -1.7,-4.2 0,0 -6.3,-13 -10.6,-18.7 0,0 49.2,-20.9 69.9,-69.1 0,0 -26.1,-16.4 -20.5,-49.4 0,0 63.4,-15.9 96.2,-57.6 h 3 c 0,0 0,22.2 -7.6,50.7 0,0 -6.6,20.3 -5.8,37.9 0,0 2.4,26.8 -29.3,27.7 l 4.1,14.4 c 0,0 17.6,3.9 32.4,-10.4 l 0.6,-0.9 c 0,0 18.8,21.3 55.1,0.7 0,0 4.5,24.9 -17.1,51.4 0,0 -12.4,18.7 -34.2,8.2 0,0 -15.5,-9.4 -25.2,-18 0,0 -6.8,-5.6 -14.6,-3.2 -1.9,0.6 -3.8,1.7 -5.8,3.4 0,0 -5.8,5.3 -7.8,18.5 0,0 0.6,1.6 3.1,0.1 0,0 3.3,-2.9 7.6,-2.5 0.9,0.1 1.8,0.3 2.8,0.8 0.6,0.3 1.3,0.6 2,1.1 l 8.5,7.7 6.9,7.3 c 0,0 -3.5,2.2 -19.7,2.6 0,0 -11.1,-0.5 -15.7,7.1 -0.7,1 -1.1,2.2 -1.5,3.6 0,0 -3.8,11.3 3.1,23.2 0,0 1.4,0.2 1.6,-1.8 0,0 2.1,-4.5 5.3,-7.6 0.5,-0.5 1.2,-1 1.7,-1.4 0.9,-0.7 2,-1.1 3.1,-1.3 l 25.8,-1.2 2.1,0.1 -9.5,27.9 c 0,0 -0.5,1.3 -0.4,3.1 0,2.7 1,6.6 5.5,9.7 0,0 7.5,5 11.5,6.9 0,0 2,0.2 1.7,-2.1 0,0 -2,-4.4 -0.4,-9.9 0.2,-0.8 0.6,-1.7 1,-2.6 0.2,-0.4 0.4,-0.8 0.6,-1.2 l 11.6,-18.8 c 0,0 11.1,1.3 26.9,-6.6 0,0 7,4 12.2,10.6 0.4,0.4 0.7,1 1.1,1.5 2.3,3.5 4.2,7.6 4.2,12.1 0,0 0.2,1.6 2.9,0.3 0,0 14.3,-5.8 16.4,-13.7 0,0 1,-2.5 -1.2,-6.5 -0.4,-0.6 -0.9,-1.3 -1.3,-2 l -11.7,-11.9 c 0,0 73.8,-68.8 47.8,-144 0,0 -1,-2.5 -2.4,-0.6 0,0 -10.8,17.7 -23.6,13.7 0,0 -11.7,-2 -12.6,-19.2 0,0 -1.1,-10.4 2.7,-38.1 0,0 3,-15.7 1.4,-26.3 0,0 20.2,5.3 37.5,1.7 5.4,-0.7 51.1,-10.6 61.8,-57.5 0,0 6.2,-25.9 -7.8,-55.3 0,0 -9.3,-17.2 -26.8,-30.7 0,0 -25.5,-19.6 -32.2,-31.7 0,0 -13.4,-18.2 2.1,-37.3 0,0 21.7,-29 65.5,-7.8 l 7.6,-17.5 c 0,0 -47.9,-27.3 -80.2,9.4 0,0 9.5,-47.2 71.9,-40.1 l 3.3,-18.4 c 0,0 -42.8,-10.9 -75.5,21.1 0,0 -23.8,22.4 -25,56.9 0,0 -1.6,19.2 12.8,44.5 0,0 -56.3,-7.2 -73.2,52.2 l 15.9,12.1 c 0,0 13.4,-54.3 75.1,-42.7 l 9.2,7.8 c 0,0 -52.6,-7.9 -66.4,50.4 l 17.1,12.9 c 0,0 8.5,-53 62.3,-41.3 0,0 8.2,1.9 13.7,9.4 0,0 18.2,19.4 5.2,51.5 0,0 -16.3,43.2 -77.8,28.6 0,0 -11.3,-24.7 -27.4,-39.2 0,0 -27.7,-25.1 -53.8,-47.6 0,0 -33.6,-26.8 -56.6,-53.8 L 393.7,286 c 0,0 8,7.6 15.7,22.7 0,0 6.1,13.7 18.8,19 0,0 9.5,-8.4 16.1,-10 0,0 -13.7,-5.9 -20.2,-19.2 0,0 -4.7,-13.9 -15.7,-22.9 l 21.3,-17.3 c 0,0 4.9,-2.7 12.2,5.3 0,0 6.3,9.4 11.1,14.1 0,0 10.2,10 23.3,14.3 l 10.8,-15.7 c 0,0 -10.6,0.4 -21.9,-17.1 0,0 -6.9,-12.3 -20.2,-18.5 0,0 8,-7.8 12.3,-13.9 l 28,10.8 c 0,0 13.3,5.1 21.2,-0.6 0,0 -0.9,-4.4 1.1,-14.7 0,0 -11.6,2.5 -25.5,-5.8 0,0 -10.1,-4.8 -20.5,-6.5 0,0 1.9,-10.4 1.1,-17 0,0 14.4,-1.5 25.7,3 0,0 10.7,4.7 26.4,2.2 l 0.4,-18.8 c 0,0 -8.7,4.3 -27.3,-2.8 0,0 -12,-4.5 -23,-2.6 h -1.3 c 0,0 -1.2,-10.8 -3.5,-18 0,0 7.6,-2.3 20.6,0.5 0,0 22.2,3.4 28.7,-3.1 0,0 -3,-7.7 -2.9,-15.6 0,0 -14,4.1 -30.5,-1.6 0,0 -11.7,-3.5 -28.1,1.6 L 427,122.7 c 0,0 11.1,-5.6 19.7,-10.6 0,0 9.1,-5.9 25.5,-10.8 0,0 -17.4,-10.6 -61,1.6 0,0 -14.9,-4.3 -28.6,-4.9 0,0 -34.4,-2.3 -64.8,1.2 0,0 -13.3,1.1 -20.8,14.5 l -42.6,-0.1 c 0,0 -18,1.6 -31.2,-8.4 l -0.9,-0.5 -0.2,0.7 c 0,0 -7.8,22.9 9.4,33.3 0,0 2,9.5 4.4,11.8 0,0 1.6,-0.5 2.5,-7.6 0,0 16.4,5.5 54.5,0.6 0,0 26.3,-5 41.7,-1.6 0,0 15.5,2.7 16,17.5 0,0 0.8,12 -12.5,13.1 0,0 -8.5,1 -15.1,-5.8 l -47,1.7 -32.2,1.4 c 0,0 -1.7,-2.3 -2.3,-5.6 l -2.7,-0.6"
   class="st2"
   id="path123"
   inkscape:connector-curvature="0"
   style="fill:#003b80" />

	<path
   d="m 439.9,117.8 c 0,0 12.1,5.9 18.9,15 0,0 -6.2,1.1 -9.8,2.3 l -16.3,-12.4 -0.5,-0.3 7.7,-4.6"
   class="st2"
   id="path125"
   inkscape:connector-curvature="0"
   style="fill:#003b80" />

	<path
   d="m 464.7,158.4 c 0,0 3.1,-1.4 11.2,0.2 0,0 -1.2,5.2 2.2,13.3 0,0 -5.7,-0.6 -9.8,-0.3 l -3.6,-13.2"
   class="st2"
   id="path127"
   inkscape:connector-curvature="0"
   style="fill:#003b80" />

	<path
   d="m 466.2,195.6 c 0,0 6.5,-1 12.7,0.8 0,0 0,7.3 -2.8,15 0,0 -7.1,-2.3 -10.9,-2.7 0,0 1.2,-8.7 1,-12.5 v -0.6"
   class="st2"
   id="path129"
   inkscape:connector-curvature="0"
   style="fill:#003b80" />

	<path
   d="m 450.6,240.1 c 0,0 4.7,1.4 10.1,6.7 0,0 5.6,-6 8.1,-12.2 0,0 -7.1,-1.3 -10.7,-3.3 0,0 -3.6,3 -6.9,7.5 l -0.6,1.3"
   class="st2"
   id="path131"
   inkscape:connector-curvature="0"
   style="fill:#003b80" />

	<path
   d="m 413.5,275.4 c 0,0 3.8,3.1 7.1,10 0,0 15.3,-11.5 21.8,-17.7 0,0 -5.4,-5 -9.4,-7.9 l -19.5,15.6"
   class="st2"
   id="path133"
   inkscape:connector-curvature="0"
   style="fill:#003b80" />

	<path
   d="m 372.3,305.9 c 0,0 6.3,5 10.6,10.6 0,0 13.3,-8.6 20,-14.5 0,0 -5.2,-8.1 -8.8,-12.3 l -21.8,16.2"
   class="st2"
   id="path135"
   inkscape:connector-curvature="0"
   style="fill:#003b80" />

	<path
   d="m 166.7,173.7 c 0,0 -6.3,-9.3 -21,-1.3 0,0 -3.6,1.7 -8.2,5.6 0,0 0.1,1.9 11.3,7.8 0.3,0.7 19,-0.8 17.9,-12.1"
   class="st1"
   id="path137"
   inkscape:connector-curvature="0"
   style="fill:#c71712" />

	<path
   d="m 122.3,192.9 c 0,0 2.4,-9.5 1,-10.1 -2.1,-0.9 -5.7,-1.4 -10.1,1.6 0,0 -6.9,3.9 -13.8,15.8 0,0 -3.4,1.9 9.4,2.8 l 5.3,-0.2 8.2,-9.9"
   class="st1"
   id="path139"
   inkscape:connector-curvature="0"
   style="fill:#c71712" />

	<path
   d="m 101.3,231.3 c -0.5,-1.1 -2.8,-5.3 -4.1,-4.8 -3.1,1.2 -7.8,5.3 -6.5,19.4 0,0 1.1,9.5 3.9,10.6 0,0 1.2,1 2.6,-1.5 0,0 1.6,-4.6 5.7,-7.6 0.6,-0.4 1.2,-0.8 1.9,-1.1 1.2,-0.8 -2.3,-14.4 -3.5,-15"
   class="st1"
   id="path141"
   inkscape:connector-curvature="0"
   style="fill:#c71712" />

	<path
   d="m 133.3,268.8 c 0,0 -0.6,0.5 -1.6,1.3 -2.3,1.7 -7,4.7 -12.6,5.9 0,0 -2.1,0.7 9.7,10.2 0,0 4.2,4.2 11.7,0.5 0.9,-0.5 0.7,-4.3 -0.9,-6.3 -0.1,-1.7 -6.3,-11.6 -6.3,-11.6"
   class="st1"
   id="path143"
   inkscape:connector-curvature="0"
   style="fill:#c71712" />

	<path
   d="m 147.7,377.6 c -3.3,-1.6 -7.8,-2.5 -12.5,0.8 0,0 -8.1,3.5 -10.1,20.2 0,0 7.3,-1.8 13.4,-0.9 1,0.1 2,0.3 3,0.7 1.5,0.5 6.7,-15.2 6.2,-20.8"
   class="st1"
   id="path145"
   inkscape:connector-curvature="0"
   style="fill:#c71712" />

	<path
   d="m 123,421.1 c -3,1.7 -6.1,5 -6.2,10.8 0,0 -0.3,11.8 4.1,18.2 0,0 1.5,1.1 2.2,-2.6 0,0 0.9,-2.8 4.4,-5.2 0.6,-0.5 1.3,-0.9 2.1,-1.3 2.3,-1.2 0.9,-15.2 -6.6,-19.9"
   class="st1"
   id="path147"
   inkscape:connector-curvature="0"
   style="fill:#c71712" />

	<path
   d="m 141.6,463.2 c -0.8,2.9 -1,7 1.5,11.3 0,0 4,9.4 17,10.7 0,0 -2.6,-5.3 1.6,-12.5 0.5,-0.9 1.1,-1.7 1.7,-2.6 0.2,-0.2 0.3,-0.4 0.5,-0.6 -0.5,0.6 -13.6,-9.9 -22.3,-6.3"
   class="st1"
   id="path149"
   inkscape:connector-curvature="0"
   style="fill:#c71712" />

	<path
   d="m 212.2,458.9 c 0.6,0.7 1.2,1.5 1.8,2.5 1.8,2.7 3.6,6.4 4.8,11.4 l 10.8,-7.9 c 0,0 6.1,-3.3 2,-12.1 0,0 0,-0.1 -0.1,-0.3 -9.4,-2.3 -16.4,3.3 -19.3,6.4"
   class="st1"
   id="path151"
   inkscape:connector-curvature="0"
   style="fill:#c71712" />

	<path
   d="m 227.4,570.1 c -3.3,-0.5 -7.3,0 -12,2.9 0,0 -9.4,6.3 -11.2,17.6 0,0 -0.2,2.1 3.2,-1 0,0 8.9,0 13.7,-0.8 l 0.9,1.3 c -0.1,-0.1 11.9,-4.4 5.4,-20"
   class="st1"
   id="path153"
   inkscape:connector-curvature="0"
   style="fill:#c71712" />

	<path
   d="m 196.7,609.6 c -3.4,1.8 -6.6,5 -7.1,10 0,0 -0.6,7.6 1.9,20.7 0,0 0.3,1.2 2.6,-1.5 0,0 5.3,-5.8 8.3,-10.2 l 1.6,0.1 c 0,-0.1 2.2,-13.5 -7.3,-19.1"
   class="st1"
   id="path155"
   inkscape:connector-curvature="0"
   style="fill:#c71712" />

	<path
   d="m 208.9,655.9 c -0.5,0.5 -5.1,4.7 0,13.2 0,0 5.3,8.5 13.6,14.2 0,0 1.2,0.3 0.3,-2.7 0,0 -2.5,-4.1 0.9,-11.2 l 4.3,-3.8 c 0,-0.1 -7.7,-10.8 -19.1,-9.7"
   class="st1"
   id="path157"
   inkscape:connector-curvature="0"
   style="fill:#c71712" />

	<path
   d="m 286,668 1.6,2.8 c 0,0 2.6,5.7 0,9 0,0 0.4,1.7 4.9,0.3 0,0 13.5,-1.8 16.7,-10.5 0,0 0,-1.4 -0.9,-4.2 C 300.4,662 286,668 286,668"
   class="st1"
   id="path159"
   inkscape:connector-curvature="0"
   style="fill:#c71712" />

	<path
   d="m 416.4,715.7 c 0,2.7 1,6.6 5.5,9.7 0,0 7.5,5 11.5,6.9 0,0 2,0.2 1.7,-2.1 0,0 -2,-4.4 -0.5,-9.9 0.3,-0.8 0.6,-1.7 1,-2.6 0.3,-0.4 -9.8,-6.8 -19.2,-2"
   class="st1"
   id="path161"
   inkscape:connector-curvature="0"
   style="fill:#c71712" />

	<path
   d="m 403.1,624.9 c -1.9,0.6 -3.8,1.7 -5.8,3.4 0,0 -5.8,5.3 -7.8,18.5 0,0 0.6,1.6 3.1,0.1 0,0 3.3,-3 7.6,-2.5 0.9,0.1 1.8,0.3 2.8,0.8 0.7,0.4 6.8,-16.6 0.1,-20.3"
   class="st1"
   id="path163"
   inkscape:connector-curvature="0"
   style="fill:#c71712" />

	<path
   d="m 487,701.6 c 0.4,0.4 0.7,1 1.1,1.5 2.3,3.5 4.2,7.6 4.2,12.1 0,0 0.2,1.6 2.9,0.3 0,0 14.3,-5.8 16.4,-13.7 0,0 1,-2.5 -1.2,-6.5 -4.7,-2.7 -17.2,-0.1 -23.4,6.3"
   class="st1"
   id="path165"
   inkscape:connector-curvature="0"
   style="fill:#c71712" />

	<path
   d="m 385,671.1 c -0.7,1 -1.1,2.2 -1.5,3.6 0,0 -3.8,11.3 3.1,23.2 0,0 1.4,0.2 1.6,-1.8 0,0 2.1,-4.5 5.3,-7.6 0.5,-0.5 1.2,-1 1.7,-1.4 1.1,-0.7 -0.4,-15.2 -10.2,-16"
   class="st1"
   id="path167"
   inkscape:connector-curvature="0"
   style="fill:#c71712" />

	<g
   id="g4736">
		<path
   d="m 231.2,121.6 c 0,0 9.2,-2.1 11,3.8 0,0 1.7,3.4 -1.6,10 0,0 6.4,-2.7 4.2,-11.5 0,0 -3.3,-7.7 -13.4,-2.9 l -0.2,0.6"
   class="st3"
   id="path169"
   inkscape:connector-curvature="0"
   style="fill:#ffffff" />

		<path
   d="m 249,114.6 c 0,0 6.9,7.3 8.7,15.7 0,0 2.6,-5.2 -6.4,-15.6 l -2.3,-0.1"
   class="st3"
   id="path171"
   inkscape:connector-curvature="0"
   style="fill:#ffffff" />

		<path
   d="m 263.1,115.2 c 0,0 9.4,5.4 11.9,16.3 0,0 1.6,-2.1 -1.7,-9 0,0 -2.4,-5 -6.4,-7.3 h -3.8"
   class="st3"
   id="path173"
   inkscape:connector-curvature="0"
   style="fill:#ffffff" />

		<path
   d="m 280.8,116 c 0,0 9.9,3.7 9.8,14.1 0,0 1.8,0 1.1,-4.4 0,0 -1.1,-7.1 -8.1,-9.7 h -2.8"
   class="st3"
   id="path175"
   inkscape:connector-curvature="0"
   style="fill:#ffffff" />

		<path
   d="m 305.5,115.3 c 0,0 8.8,19.1 38.2,8.5 0,0 11,-5.2 18.8,-6.9 0,0 -3.9,-1.1 -11.8,0.1 0,0 -4.5,1.3 -20.9,-0.4 0,0 -4.3,-0.7 -15.2,0.4 0,0 -4.6,0.4 -8.8,-1.7 h -0.3"
   class="st3"
   id="path177"
   inkscape:connector-curvature="0"
   style="fill:#ffffff" />

		<path
   d="m 241.4,186.7 c 0,0 3.8,-4.6 4.4,-12.9 l 14,-0.9 c 0,0 8.2,10.5 13.5,-0.4 l 16.9,-0.5 c 0,0 6.8,10.7 10.8,-0.5 l 21.2,-1 c 0,0 4.3,9.1 19.3,6.9 0,0 17.4,-2.1 16.9,-20.9 0,0 -1,-12.3 -15.5,-17 0,0 -7.9,-3 -18.3,-5.1 0,0 -11.4,-2.9 -18,-11.3 0,0 9.7,9 23,10.4 0,0 15.2,-0.2 26.2,10 0,0 11.7,12 2.8,27.2 0,0 -5.1,9 -20,9.8 0,0 -9,0.9 -18.5,-6.8 l -16.2,0.5 c 0,0 -1.5,6 -7.8,5.7 0,0 -3.9,1.1 -7.5,-5 l -12.7,0.3 c 0,0 -6.4,12.8 -18.9,0.2 l -7.1,0.5 c 0,0 -0.6,8.2 -7.9,10.7 h -0.6"
   class="st3"
   id="path179"
   inkscape:connector-curvature="0"
   style="fill:#ffffff" />

	</g>

	<g
   id="g4744">
		<path
   d="m 383.4,116.6 c 0,0 10.3,-9.3 28.8,-15.1 l 1.7,0.7 c 0,0 -16.7,7.6 -29.8,14.8 l -1.2,0.5 0.5,-0.9"
   class="st3"
   id="path181"
   inkscape:connector-curvature="0"
   style="fill:#ffffff" />

		<path
   d="m 394.8,170.2 c 0,0 6.6,-10.4 7,-19.4 0,0 0.7,-10.5 -5.9,-18.1 0,0 -0.7,-1.7 1.3,-2.1 0,0 2,-0.6 4.4,-0.6 0,0 14.6,0.8 25.7,-7.4 l 1.9,1.4 c 0,0 -11.8,9.5 -27.7,8.3 0,0 -3.2,-0.4 -2.1,0.9 0,0 12.6,17.7 -2.6,37.6 l -0.3,0.5 -1.8,-0.6 0.1,-0.5"
   class="st3"
   id="path183"
   inkscape:connector-curvature="0"
   style="fill:#ffffff" />

	</g>

	<g
   id="g4730">
		<path
   d="m 148.4,185.8 c 0,0 7.2,0.8 16,-5.4 0,0 -4.3,7.5 -15.5,8.3 l -0.5,-2.9"
   class="st3"
   id="path187"
   inkscape:connector-curvature="0"
   style="fill:#ffffff" />

		<path
   d="m 108.6,203.3 c 0,0 10.4,-2.7 14.8,-15.3 0,0 4.2,12.6 -11,19.3 l -3.8,-4"
   class="st3"
   id="path189"
   inkscape:connector-curvature="0"
   style="fill:#ffffff" />

		<path
   d="m 103.1,247.3 c 0,0 0.7,-9 -3.2,-13.7 0,0 1.3,-0.3 1.1,-3.2 0,0 5.8,4.7 6.3,15.1 l -4.2,1.8"
   class="st3"
   id="path191"
   inkscape:connector-curvature="0"
   style="fill:#ffffff" />

		<path
   d="m 129.3,271.1 c 0,0 7.4,5.6 11.4,11.5 0,0 -0.9,-6.3 -7.8,-14.2 l -3.6,2.7"
   class="st3"
   id="path193"
   inkscape:connector-curvature="0"
   style="fill:#ffffff" />

	</g>

	<g
   id="g4768">
		<path
   d="m 138.3,398.3 c 0,0 4.2,-5.4 7.5,-11.8 0,0 3.6,-4.1 -3.2,13 l -4.3,-1.2"
   class="st3"
   id="path195"
   inkscape:connector-curvature="0"
   style="fill:#ffffff" />

		<path
   d="m 127.3,442.9 c 0,0 0.4,-8.1 -1.4,-15.6 0,0 4.1,-3.5 5.3,13.4 l -3.9,2.2"
   class="st3"
   id="path197"
   inkscape:connector-curvature="0"
   style="fill:#ffffff" />

		<path
   d="m 146.5,462.8 c 0,0 10.1,4.9 15.6,10.7 l 2.3,-3.7 c 0,0 -10.9,-7.5 -17.6,-7.5 l -0.3,0.5"
   class="st3"
   id="path199"
   inkscape:connector-curvature="0"
   style="fill:#ffffff" />

		<path
   d="m 211.8,459.1 c 0,0 8,-9.3 15.2,-7.2 0,0 -6.9,1 -13.7,10.3 l -1.5,-3.1"
   class="st3"
   id="path201"
   inkscape:connector-curvature="0"
   style="fill:#ffffff" />

	</g>

	<g
   id="g4748">
		<path
   d="m 248.4,336.3 0.5,-0.9 c 0,0 -14.1,-29.4 21.1,-57.1 0,0 -35.2,15.3 -24.2,55.7 l 1.5,2 1.1,0.3"
   class="st3"
   id="path185"
   inkscape:connector-curvature="0"
   style="fill:#ffffff" />

		<path
   d="m 296.2,378.6 c 0,0 12.8,-12.3 17.9,-19.3 0,0 -3.8,7.8 -11.6,16.5 l -6.3,2.8"
   class="st3"
   id="path203"
   inkscape:connector-curvature="0"
   style="fill:#ffffff" />

		<path
   d="m 441.7,467.2 c 0,0 2.6,-43.3 -51.8,-75.2 0,0 52.9,20.1 54.6,74.9 l -2.8,0.3"
   class="st3"
   id="path205"
   inkscape:connector-curvature="0"
   style="fill:#ffffff" />

	</g>

	<path
   d="m 401.2,432 c 0,0 19.8,-0.1 38.5,16 l 0.8,3.7 c 0,0 -19.2,-15.8 -37.1,-18.4 l -2.2,-1.3"
   class="st4"
   id="path207"
   inkscape:connector-curvature="0"
   style="fill:#e5e5e5" />

	<g
   id="g4753">
		<path
   d="m 506.8,445.2 c 0,0 2.9,7.7 3.7,15.4 0,0 2,-2.7 -1.2,-15.2 l -2.5,-0.2"
   class="st3"
   id="path209"
   inkscape:connector-curvature="0"
   style="fill:#ffffff" />

		<path
   d="m 345.7,524.1 c 0,0 -8,3 -19.3,-0.2 0,0 6.9,4.6 19.4,2.8 l -0.1,-2.6"
   class="st3"
   id="path211"
   inkscape:connector-curvature="0"
   style="fill:#ffffff" />

		<path
   d="m 278.5,512.9 c 0,0 7.9,-3.7 13,-13.5 0,0 -3,10.7 -11.1,14.6 l -1.9,-1.1"
   class="st3"
   id="path213"
   inkscape:connector-curvature="0"
   style="fill:#ffffff" />

		<path
   d="m 220.9,588.8 c 0,0 7.3,-4.7 8.4,-12.1 0,0 4,6.6 -6.7,14.6 l -1.7,-2.5"
   class="st3"
   id="path215"
   inkscape:connector-curvature="0"
   style="fill:#ffffff" />

		<path
   d="m 202.3,628.7 c 0,0 1.6,-7.5 -0.2,-13.4 0,0 4.3,5.4 2.1,13.9 l -1.9,-0.5"
   class="st3"
   id="path217"
   inkscape:connector-curvature="0"
   style="fill:#ffffff" />

		<path
   d="m 225.8,668.1 c 0,0 -6.2,-8.1 -11.8,-12 0,0 3.5,-2 14.8,9.5 l -3,2.5"
   class="st3"
   id="path219"
   inkscape:connector-curvature="0"
   style="fill:#ffffff" />

		<path
   d="m 285.1,668.2 c 0,0 10,-6.6 19.2,-3.8 0,0 -7.4,1.6 -16.8,7.2 l -2.4,-3.4"
   class="st3"
   id="path221"
   inkscape:connector-curvature="0"
   style="fill:#ffffff" />

		<path
   d="m 438.9,586 c 0,0 5.4,-5 8.1,-13.5 0,0 2.5,5.1 -5.9,15.8 l -2.2,-2.3"
   class="st3"
   id="path223"
   inkscape:connector-curvature="0"
   style="fill:#ffffff" />

		<path
   d="m 494,586.6 c 0,0 12.6,-8.4 15.1,-15.2 0,0 0.4,6.5 -15,16.1 l -0.1,-0.9"
   class="st3"
   id="path225"
   inkscape:connector-curvature="0"
   style="fill:#ffffff" />

		<path
   d="m 399.7,644.6 c 0,0 6,-5.2 6.3,-15 0,0 3.6,4.8 -2.2,16.4 l -4.1,-1.4"
   class="st3"
   id="path227"
   inkscape:connector-curvature="0"
   style="fill:#ffffff" />

		<path
   d="m 392.9,689.8 c 0,0 2,-4.3 -1.9,-15.8 0,0 3,-0.8 5,13.4 l -3.1,2.4"
   class="st3"
   id="path229"
   inkscape:connector-curvature="0"
   style="fill:#ffffff" />

		<path
   d="m 435.5,720.8 c 0,0 -2.8,-3.8 -12.4,-6.8 0,0 6.4,-1.8 14,4 l -1.6,2.8"
   class="st3"
   id="path231"
   inkscape:connector-curvature="0"
   style="fill:#ffffff" />

		<path
   d="m 486.3,701.8 c 0,0 11.1,-10.5 18.5,-7.6 0,0 -9.2,1.5 -17,9.6 l -1.5,-2"
   class="st3"
   id="path233"
   inkscape:connector-curvature="0"
   style="fill:#ffffff" />

	</g>

	<path
   d="m 328.9,117.4 c 0,0 2.8,4.5 -1.5,9.3 0,0 -2.2,1.8 -3.6,-1.2 0,0 -0.5,-1.3 -0.4,-2.6 0,-1 -0.5,-2.5 1.6,-6.4 0,0 2,-2.3 3.7,0.4 l 0.2,0.5"
   class="st5"
   id="path235"
   inkscape:connector-curvature="0"
   style="fill:#231f20" />

</g>
</svg>
