<?xml version="1.0" encoding="UTF-8" standalone="no"?>
<svg
   version="1.1"
   width="1000"
   height="600"
   viewBox="0,0 1185,711"
   id="svg33"
   sodipodi:docname="Flag_of_Potsdam.svg"
   inkscape:version="1.1.1 (3bf5ae0d25, 2021-09-20)"
   xmlns:inkscape="http://www.inkscape.org/namespaces/inkscape"
   xmlns:sodipodi="http://sodipodi.sourceforge.net/DTD/sodipodi-0.dtd"
   xmlns:xlink="http://www.w3.org/1999/xlink"
   xmlns="http://www.w3.org/2000/svg"
   xmlns:svg="http://www.w3.org/2000/svg">
  <defs
     id="defs37" />
  <sodipodi:namedview
     id="namedview35"
     pagecolor="#ffffff"
     bordercolor="#666666"
     borderopacity="1.0"
     inkscape:pageshadow="2"
     inkscape:pageopacity="0.0"
     inkscape:pagecheckerboard="0"
     showgrid="false"
     inkscape:zoom="0.79832356"
     inkscape:cx="522.97091"
     inkscape:cy="188.52005"
     inkscape:window-width="1920"
     inkscape:window-height="1017"
     inkscape:window-x="-8"
     inkscape:window-y="-8"
     inkscape:window-maximized="1"
     inkscape:current-layer="g16" />
  <title
     id="title2">Flagge von Potsdam</title>
  <desc
     id="desc4">Flagge der Stadt Potsdam</desc>
  <rect
     width="1185"
     height="711"
     fill="#ecb237"
     id="rect6"
     x="0"
     y="0"
     style="fill:#f5d306;fill-opacity:1" />
  <rect
     width="1185"
     height="355.5"
     fill="#c53b21"
     id="rect8"
     style="fill:#e64625;fill-opacity:1" />
  <svg
     x="430.5"
     y="118.5"
     width="324"
     height="474"
     viewBox="0,0 3240,4740"
     version="1.1"
     id="svg31">
    <g
       stroke="black"
       stroke-width="40"
       id="g16">
      <path
         d="M 20,740 V 3500 c 0,860 650,1220 1600,1220 950,0 1600,-360 1600,-1220 V 740 z"
         fill="#ecb237"
         id="path10"
         style="fill:#f5d306;fill-opacity:1" />
      <path
         d="M 446,696 a 4500,4500 0 0,1 2348,0 L 2930,192 A 5020,5020 0 0,0 2588.34,113.42 L 2547.79,319.53 A 4810,4810 0 0,0 2336.05,283.01 L 2367.3,75.33 A 5020,5020 0 0,0 2019.14,35.66 L 2002.44,245 A 4810,4810 0 0,0 1787.88,232.89 L 1795.2,23.01 A 5020,5020 0 0,0 1444.8,23.01 L 1452.12,232.89 A 4810,4810 0 0,0 1237.56,245 L 1220.86,35.66 A 5020,5020 0 0,0 872.7,75.33 L 903.95,283.01 A 4810,4810 0 0,0 692.21,319.53 L 651.66,113.42 A 5020,5020 0 0,0 310,192 z"
         fill="#c53b21"
         id="path12"
         style="fill:#e64625;fill-opacity:1" />
      <path
         d="M 425.9,544.9 a 4650,4650 0 0,1 2388.2,0"
         stroke="#ecb237"
         fill="none"
         id="path14"
         style="stroke:#f5d306;stroke-opacity:1" />
    </g>
    <g
       id="links">
      <path
         d="M 1950,2052 H 1290 C 816,2052 674,1700 812,1357 l 98,-40 c 44,-247 -89,-289 -230,-289 -156,0 -430,61 -428,566 l 1,322 c 183,62 217,53 216,-160 13,71 22,124 48,205 l -1,1286 -59,104 176,42 c 37,9 95,-26 95,-64 l -2,-794 47,23 5,908 -59,100 132,30 c 79,18 135,-25 135,-86 l -1,-877 177,35 -174,1032 140,37 c 55,15 74,-36 101,-98 l -5,151 51,15 145,-483 -63,916 -60,143 171,16 c 83,8 104,-42 116,-117 L 1620,4054 M 589,2468 l -14,810 -12,-824 m 287,130 l -16,817 -10,-827 M 469,1920 c -18,43 -47,61 -146,36 l -17,900 -11,-908 c -13,-4 -27,-8 -42,-13 l 4,980 -40,83 148,39 c 52,14 105,-29 105,-71"
         fill="#c53b21"
         id="path18"
         style="fill:#e64625;fill-opacity:1" />
      <path
         d="M 988,3700 l -35,190 -240,-49 c -58,-11 -74,5 -69,38 l 21,143 c 13,-42 19,-99 35,-99 15,0 9,38 59,38 L 882,3959 L 694,4090 c -21,18 -37,50 -6,79 L 806,4250 c -29,-54 -52,-91 -46,-101 12,-18 41,18 75,-22 l 92,-108 -32,189 c -7,40 -14,83 33,90 l 122,18 c -37,-32 -75,-52 -75,-71 1,-32 53,-15 51,-71 l -7,-200 151,71 c 44,2 65,-18 80,-9 15,8 2,38 -7,91 l 75,-83 c 26,-27 21,-79 -14,-86 l -238,-49 62,-172"
         id="path20" />
    </g>
    <use
       xlink:href="#links"
       transform="matrix(-1,0,0,1,3240,0)"
       id="use23" />
    <path
       d="M 1289,2058 L 1450,1100 l -55,-40 0,-82 c 125,-38 265,-50 430,-51 l -34,244 c 94,-9 91,29 155,19 -12,50 -120,20 -214,38 l 1,82 91,0 127,748 M 1724,1034 a 35,35 0 0,1 -70,0 35,35 0 0,1 70,0 m 12,-32 a 65,65 0 1,0 9,25 c 30,-11 24,-36 -9,-25"
       fill="#c53b21"
       id="path25"
       style="fill:#e64625;fill-opacity:1" />
    <path
       d="M 507,1963 l 241,608 239,-363 633,1192 633,-1192 239,363 241,-608 M 507,2431 l 255,-330 232,540 626,-1067 626,1067 232,-540 255,330 M 1226,2247 l 505,942 m 283,-942 l -505,942 M 1881,1556 l -755,1343 142,274 680,-1257 m -589,-360 l 755,1343 -142,274 -680,-1257"
       stroke-width="20"
       stroke="#ecb237"
       fill="none"
       id="path27"
       style="stroke:#f5d306;stroke-opacity:1" />
    <path
       d="M 1895,1110 c -51,33 -114,57 -150,150 69,14 205,-68 187,59 -75,3 -162,21 -266,46 -9,-207 127,-235 135,-438 167,0 191,-37 153,238"
       id="path29" />
  </svg>
</svg>
