<?xml version="1.0" encoding="UTF-8" standalone="no"?>
<!-- Created with Inkscape (http://www.inkscape.org/) -->

<svg
   xmlns:dc="http://purl.org/dc/elements/1.1/"
   xmlns:cc="http://creativecommons.org/ns#"
   xmlns:rdf="http://www.w3.org/1999/02/22-rdf-syntax-ns#"
   xmlns:svg="http://www.w3.org/2000/svg"
   xmlns="http://www.w3.org/2000/svg"
   xmlns:xlink="http://www.w3.org/1999/xlink"
   xmlns:sodipodi="http://sodipodi.sourceforge.net/DTD/sodipodi-0.dtd"
   xmlns:inkscape="http://www.inkscape.org/namespaces/inkscape"
   version="1.1"
   id="svg2"
   width="2000"
   height="1200"
   viewBox="0 0 2000 1200"
   sodipodi:docname="Flagge Salzgitter.svg"
   inkscape:version="0.92.3 (2405546, 2018-03-11)">
  <metadata
     id="metadata8">
    <rdf:RDF>
      <cc:Work
         rdf:about="">
        <dc:format>image/svg+xml</dc:format>
        <dc:type
           rdf:resource="http://purl.org/dc/dcmitype/StillImage" />
        <dc:title></dc:title>
      </cc:Work>
    </rdf:RDF>
  </metadata>
  <defs
     id="defs6">
    <path
       d="M1.75,1.75h220.5V153c0,60.8896484-49.3603516,110.25-110.25,110.25S1.75,213.8896484,1.75,153      V1.75z"
       id="overall_shield_2_" />
    <path
       d="M69.6289063,158.25h84.7421875v58.1289063        C154.3710938,239.7792969,135.4013672,258.75,112,258.75s-42.3710938-18.9707031-42.3710938-42.3710938V158.25z"
       id="small_shield_1_" />
  </defs>
  <sodipodi:namedview
     pagecolor="#ffffff"
     bordercolor="#666666"
     borderopacity="1"
     objecttolerance="10"
     gridtolerance="10"
     guidetolerance="10"
     inkscape:pageopacity="0"
     inkscape:pageshadow="2"
     inkscape:window-width="1920"
     inkscape:window-height="1017"
     id="namedview4"
     showgrid="false"
     inkscape:zoom="0.568"
     inkscape:cx="1000"
     inkscape:cy="600"
     inkscape:window-x="-8"
     inkscape:window-y="-8"
     inkscape:window-maximized="1"
     inkscape:current-layer="svg2" />
  <rect
     style="opacity:1;fill:#ffffff;fill-opacity:1;fill-rule:evenodd;stroke:#ffffff;stroke-opacity:1"
     id="rect1400"
     width="2000"
     height="641.54932"
     x="0"
     y="279.22534" />
  <g
     id="g1381"
     transform="matrix(2.2531153,0,0,2.2511904,740.60883,302.24544)">
    <path
       d="m 1.75,1.75 h 220.5 V 153 C 222.25,213.88965 172.88965,263.25 112,263.25 51.110352,263.25 1.75,213.88965 1.75,153 Z"
       id="overall_shield"
       inkscape:connector-curvature="0"
       style="fill:#de1c00" />
    <g
       id="g1179">
      <defs
         id="defs819">
        <path
           d="m 1.75,1.75 h 220.5 V 153 C 222.25,213.88965 172.88965,263.25 112,263.25 51.110352,263.25 1.75,213.88965 1.75,153 Z"
           id="path1193"
           inkscape:connector-curvature="0" />
      </defs>
      <clipPath
         id="overall_shield_3_">
        <use
           id="use821"
           xlink:href="#overall_shield_2_"
           x="0"
           y="0"
           width="100%"
           height="100%" />
      </clipPath>
      <g
         id="g836"
         clip-path="url(#overall_shield_3_)">
        <polyline
           id="polyline824"
           points="28.1875,175.5830078 28.1875,158.75 44.8125,158.75 44.8125,175.5830078 "
           style="fill:#ffffff;stroke:#000000" />
        <polyline
           id="polyline826"
           points="1.8969727,158.75 15.4790039,158.75 15.4790039,175.5830078       1.75,175.5830078 "
           style="fill:#ffffff;stroke:#000000" />
        <polyline
           id="polyline828"
           points="58.1875,175.5830078 58.1875,158.75 74.8125,158.75 74.8125,175.5830078 "
           style="fill:#ffffff;stroke:#000000" />
        <polyline
           id="polyline830"
           points="149.4375,175.5830078 149.4375,158.75 166.0625,158.75 166.0625,175.5830078       "
           style="fill:#ffffff;stroke:#000000" />
        <polyline
           id="polyline832"
           points="180.1875,175.5830078 180.1875,158.75 196.8125,158.75 196.8125,175.5830078       "
           style="fill:#ffffff;stroke:#000000" />
        <polyline
           id="polyline834"
           points="222.1025391,158.75 210.9375,158.75 210.9375,175.5830078       222.25,175.5830078 "
           style="fill:#ffffff;stroke:#000000" />
      </g>
      <g
         id="g880"
         clip-path="url(#overall_shield_3_)">
        <rect
           id="rect838"
           height="88"
           width="220.5"
           y="175.25"
           x="1.75"
           style="fill:#ffffff" />
        <line
           id="line840"
           y2="175.25"
           x2="222.25"
           y1="175.25"
           x1="2.5"
           style="fill:none;stroke:#000000" />
        <line
           id="line842"
           y2="190.5498"
           x2="222.25"
           y1="190.5498"
           x1="1.75"
           style="fill:none;stroke:#000000" />
        <line
           id="line844"
           y2="236.4502"
           x2="222.25"
           y1="236.4502"
           x1="1.5"
           style="fill:none;stroke:#000000" />
        <line
           id="line846"
           y2="205.84961"
           x2="222.25"
           y1="205.84961"
           x1="1.75"
           style="fill:none;stroke:#000000" />
        <line
           id="line848"
           y2="221.15039"
           x2="222.25"
           y1="221.15039"
           x1="1.75"
           style="fill:none;stroke:#000000" />
        <line
           id="line850"
           y2="251.75"
           x2="222.25"
           y1="251.75"
           x1="1.5"
           style="fill:none;stroke:#000000" />
        <line
           id="line852"
           y2="190.5498"
           x2="36"
           y1="175.25"
           x1="36"
           style="fill:none;stroke:#000000;stroke-width:1.5" />
        <line
           id="line854"
           y2="205.84961"
           x2="52.25"
           y1="190.5498"
           x1="52.25"
           style="fill:none;stroke:#000000;stroke-width:1.5" />
        <line
           id="line856"
           y2="205.84961"
           x2="19.75"
           y1="190.5498"
           x1="19.75"
           style="fill:none;stroke:#000000;stroke-width:1.5" />
        <line
           id="line858"
           y2="221.14941"
           x2="36"
           y1="205.84961"
           x1="36"
           style="fill:none;stroke:#000000;stroke-width:1.5" />
        <line
           id="line860"
           y2="236.4502"
           x2="52.25"
           y1="221.15039"
           x1="52.25"
           style="fill:none;stroke:#000000;stroke-width:1.5" />
        <line
           id="line862"
           y2="251.75"
           x2="68.5"
           y1="236.4502"
           x1="68.5"
           style="fill:none;stroke:#000000;stroke-width:1.5" />
        <line
           id="line864"
           y2="251.75"
           x2="155"
           y1="236.4502"
           x1="155"
           style="fill:none;stroke:#000000;stroke-width:1.5" />
        <line
           id="line866"
           y2="236.4502"
           x2="171.25"
           y1="221.15039"
           x1="171.25"
           style="fill:none;stroke:#000000;stroke-width:1.5" />
        <line
           id="line868"
           y2="205.84961"
           x2="171.25"
           y1="190.5498"
           x1="171.25"
           style="fill:none;stroke:#000000;stroke-width:1.5" />
        <line
           id="line870"
           y2="205.84961"
           x2="203.75"
           y1="190.5498"
           x1="203.75"
           style="fill:none;stroke:#000000;stroke-width:1.5" />
        <line
           id="line872"
           y2="221.14941"
           x2="187.5"
           y1="205.84961"
           x1="187.5"
           style="fill:none;stroke:#000000;stroke-width:1.5" />
        <line
           id="line874"
           y2="190.5498"
           x2="187.5"
           y1="175.25"
           x1="187.5"
           style="fill:none;stroke:#000000;stroke-width:1.5" />
        <line
           id="line876"
           y2="263.23535"
           x2="95.75"
           y1="251.75"
           x1="95.75"
           style="fill:none;stroke:#000000;stroke-width:1.5" />
        <line
           id="line878"
           y2="263.23535"
           x2="128.25"
           y1="251.75"
           x1="128.25"
           style="fill:none;stroke:#000000;stroke-width:1.5" />
      </g>
      <g
         id="g956"
         clip-path="url(#overall_shield_3_)">
        <polyline
           id="polyline882"
           points="91.8334961,70.8334961 80,136.75 146.8330078,136.75 133,70.8334961 "
           style="fill:#ffffff;stroke:#000000" />
        <polygon
           id="polygon884"
           points="84.5,37.375 84.5,30.375 104.5,20.125 107,20.125 107,37.375 "
           style="fill:#ffffff;stroke:#000000" />
        <polygon
           id="polygon886"
           points="129.5,51.083496 131,51.083496 144,39.25 141.6875,36.9375 129.5,36.9375 "
           style="fill:#ffffff;stroke:#000000;stroke-linejoin:bevel" />
        <polygon
           id="polygon888"
           points="95.375,50.083496 93,50.083496 81,39.25 84.125,37.25 95.375,37.25 "
           style="fill:#ffffff;stroke:#000000;stroke-linejoin:bevel" />
        <polygon
           id="polygon890"
           points="87.5,143.25 58.304688,158.75 165.47363,158.75 165.47363,155.75 139.25,143.25 "
           style="fill:#ffffff;stroke:#000000" />
        <line
           id="line892"
           y2="158.5"
           x2="113.25"
           y1="144.82031"
           x1="113.25"
           style="fill:none;stroke:#000000" />
        <line
           id="line894"
           y2="158.5"
           x2="139.25"
           y1="144.5"
           x1="139.25"
           style="fill:none;stroke:#000000" />
        <line
           id="line896"
           y2="158.5"
           x2="85"
           y1="144.75"
           x1="85"
           style="fill:none;stroke:#000000" />
        <rect
           id="rect898"
           height="7.7373047"
           width="68.262207"
           y="137.08301"
           x="79.833496"
           style="fill:#ffffff;stroke:#000000" />
        <polyline
           id="polyline900"
           points="117.875,133.25 157.9169922,133.25       157.9169922,139.75 130.625,139.75 "
           style="fill:#ffffff;stroke:#000000;stroke-width:1.03479993" />
        <polyline
           id="polyline902"
           points="94.5,139.75 66.0830078,139.75 66.0830078,133.25       106.7504883,133.25 "
           style="fill:#ffffff;stroke:#000000;stroke-width:1.03479993" />
        <polygon
           id="polygon904"
           points="112,128.91699 169.5,154.25 167.16699,159.08398 112,133.75 55.833496,160.25 53.833496,156.25 "
           style="fill:#ffffff;stroke:#000000" />
        <polyline
           id="polyline906"
           points="93,62.25 86,70.8334961 137.8330078,70.8334961 131,62.25 "
           style="fill:#ffffff;stroke:#000000" />
        <rect
           id="rect908"
           height="23"
           width="38"
           y="39.25"
           x="93"
           style="fill:#ffffff;stroke:#000000;stroke-linecap:round" />
        <rect
           id="rect910"
           height="19.25"
           width="4.25"
           y="37.75"
           x="99.875"
           style="fill:none;stroke:#000000;stroke-linecap:round" />
        <rect
           id="rect912"
           height="19.25"
           width="4.25"
           y="37.75"
           x="109.875"
           style="fill:none;stroke:#000000;stroke-linecap:round" />
        <rect
           id="rect914"
           height="19.25"
           width="4.25"
           y="37.75"
           x="119.875"
           style="fill:none;stroke:#000000;stroke-linecap:round" />
        <rect
           id="rect916"
           height="13.75"
           width="14"
           y="17.25"
           x="104.5"
           style="fill:#ffffff;stroke:#000000;stroke-linecap:round" />
        <rect
           id="rect918"
           height="3"
           width="6"
           y="8.5"
           x="109"
           style="fill:#ffffff;stroke:#000000;stroke-linecap:round" />
        <rect
           id="rect920"
           height="3.875"
           width="14.375"
           y="11.5"
           x="104.8125"
           style="fill:#ffffff;stroke:#000000;stroke-linecap:round" />
        <rect
           id="rect922"
           height="2.5"
           width="20.25"
           y="15.375"
           x="101.875"
           style="fill:#ffffff;stroke:#000000;stroke-linecap:round" />
        <rect
           id="rect924"
           height="3.6503906"
           width="27.917969"
           y="29.75"
           x="98.041016"
           style="fill:#ffffff;stroke:#000000;stroke-linecap:round" />
        <rect
           id="rect926"
           height="2.7285156"
           width="32.085938"
           y="32.5"
           x="95.957031"
           style="fill:#ffffff;stroke:#000000;stroke-linecap:round" />
        <rect
           id="rect928"
           height="4"
           width="63"
           y="35.25"
           x="81"
           style="fill:#ffffff;stroke:#000000;stroke-linecap:round" />
        <line
           id="line930"
           y2="29.75"
           x2="115.08301"
           y1="17.875"
           x1="115.08301"
           style="fill:none;stroke:#000000;stroke-linecap:round" />
        <rect
           id="rect932"
           height="2.875"
           width="52.75"
           y="78.0625"
           x="85.625"
           style="fill:#ffffff;stroke:#000000" />
        <rect
           id="rect934"
           height="2.875"
           width="57.5"
           y="87.8125"
           x="83.25"
           style="fill:#ffffff;stroke:#000000" />
        <rect
           id="rect936"
           height="2.875"
           width="62.25"
           y="97.5625"
           x="80.875"
           style="fill:#ffffff;stroke:#000000" />
        <rect
           id="rect938"
           height="2.875"
           width="67"
           y="107.3125"
           x="78.5"
           style="fill:#ffffff;stroke:#000000" />
        <rect
           id="rect940"
           height="2.875"
           width="71.75"
           y="117.0625"
           x="76.125"
           style="fill:#ffffff;stroke:#000000;stroke-width:1.03479993" />
        <line
           id="line942"
           y2="74.423828"
           x2="126.0625"
           y1="74.423828"
           x1="133.75391"
           style="fill:none;stroke:#000000" />
        <line
           id="line944"
           y2="84.214844"
           x2="126.8125"
           y1="84.214844"
           x1="135.80859"
           style="fill:none;stroke:#000000" />
        <line
           id="line946"
           y2="93.977539"
           x2="127.75"
           y1="93.977539"
           x1="137.85742"
           style="fill:none;stroke:#000000" />
        <line
           id="line948"
           y2="104.06787"
           x2="128.5625"
           y1="104.06787"
           x1="139.97461"
           style="fill:none;stroke:#000000" />
        <line
           id="line950"
           y2="114.62451"
           x2="129.375"
           y1="114.62451"
           x1="142.18945"
           style="fill:none;stroke:#000000" />
        <line
           id="line952"
           y2="124.75"
           x2="130.25"
           y1="124.75"
           x1="144.31445"
           style="fill:none;stroke:#000000" />
        <line
           id="line954"
           y2="129.34277"
           x2="130.6875"
           y1="129.34277"
           x1="145.27832"
           style="fill:none;stroke:#000000" />
      </g>
      <g
         clip-path="url(#overall_shield_3_)"
         id="small_coat">
        <g
           id="g967">
          <defs
             id="defs959">
            <path
               d="m 69.628906,158.25 h 84.742184 v 58.12891 c 0,23.40039 -18.96972,42.37109 -42.37109,42.37109 -23.401367,0 -42.371094,-18.9707 -42.371094,-42.37109 z"
               id="path1265"
               inkscape:connector-curvature="0" />
          </defs>
          <use
             id="use961"
             xlink:href="#small_shield_1_"
             style="fill:#007f41"
             x="0"
             y="0"
             width="100%"
             height="100%" />
          <clipPath
             id="small_shield_2_">
            <use
               id="use963"
               xlink:href="#small_shield_1_"
               x="0"
               y="0"
               width="100%"
               height="100%" />
          </clipPath>
          <polyline
             points="       181.1523438,263.2353516 112.8334961,194.9169922 44.515625,263.2353516 "
             clip-path="url(#small_shield_2_)"
             id="yellow_triangle"
             style="fill:#ffd200;stroke:#000000;stroke-width:0.75;stroke-linecap:round;stroke-linejoin:round" />
        </g>
        <polygon
           id="polygon969"
           points="106.5,223 129.1875,245.6875 125.0625,249.8125 102.375,227.125 96.625,232.875 90,226.25 104.8125,211.4375 111.4375,218.0625 " />
        <polygon
           id="polygon971"
           points="126.3125,216.375 129.83398,215.91602 130.95898,217.04102 130.4375,220.5 134.92676,224.98926 134.92676,231.33301 128.02051,231.33301 123.8125,227.125 101.125,249.8125 97,245.6875 119.6875,223 114.75,218.0625 121.375,211.4375 " />
        <g
           id="g983">
          <path
             id="path973"
             d="m 131.79199,199.29102 c -2.85742,-2.48047 -3.29199,-7.20801 -3.29199,-7.20801 0,0 1.87598,2.54199 7.20898,6.20801 5.33301,3.66601 11.375,5.41699 11.375,12.125 0,3.333 -3.58398,5.91796 -5.91699,5.91796 -2.33301,0 -3.83398,-1.25097 -3.83398,-1.25097 L 103.91602,181.66602 95.332031,190.25 78.75,173.66797 90.833984,161.58398 c 0,0 45.749996,47.41602 47.312496,48.97852 1.42383,1.42383 3.1045,1.85449 3.88575,1.07324 3.90625,-3.90625 -7.16797,-9.67676 -10.24024,-12.34472 z"
             inkscape:connector-curvature="0"
             style="fill:#ffffff;stroke:#000000;stroke-width:0.75;stroke-linecap:round" />
          <line
             id="line975"
             y2="168.9502"
             x2="91.200195"
             y1="167.10645"
             x1="89.356445"
             style="fill:none;stroke:#000000;stroke-width:0.75;stroke-linecap:round;stroke-linejoin:round" />
          <line
             id="line977"
             y2="171.79395"
             x2="94.042969"
             y1="170.0127"
             x1="92.262695"
             style="fill:none;stroke:#000000;stroke-width:0.75;stroke-linecap:round;stroke-linejoin:round" />
          <line
             id="line979"
             y2="175.60645"
             x2="97.855469"
             y1="173.23145"
             x1="95.480469"
             style="fill:none;stroke:#000000;stroke-width:0.75;stroke-linecap:round;stroke-linejoin:round" />
          <line
             id="line981"
             y2="179.60645"
             x2="101.85547"
             y1="176.85645"
             x1="99.105469"
             style="fill:none;stroke:#000000;stroke-width:0.75;stroke-linecap:round;stroke-linejoin:round" />
        </g>
        <g
           id="g995">
          <path
             id="path985"
             d="m 91.041992,199.29102 c 2.856934,-2.48047 3.291504,-7.20801 3.291504,-7.20801 0,0 -1.875488,2.54199 -7.208496,6.20801 -5.333008,3.66601 -11.375,5.41699 -11.375,12.125 0,3.333 3.583496,5.91796 5.916504,5.91796 2.333008,0 3.834473,-1.25097 3.834473,-1.25097 L 118.91797,181.66602 127.50195,190.25 144.08398,173.66797 132,161.58398 c 0,0 -45.75,47.41602 -47.3125,48.97852 -1.424316,1.42383 -3.104492,1.85449 -3.885742,1.07324 -3.90625,-3.90625 7.16748,-9.67676 10.240234,-12.34472 z"
             inkscape:connector-curvature="0"
             style="fill:#ffffff;stroke:#000000;stroke-width:0.75;stroke-linecap:round" />
          <line
             id="line987"
             y2="168.9502"
             x2="131.63379"
             y1="167.10645"
             x1="133.47754"
             style="fill:none;stroke:#000000;stroke-width:0.75;stroke-linecap:round;stroke-linejoin:round" />
          <line
             id="line989"
             y2="171.79395"
             x2="128.79102"
             y1="170.0127"
             x1="130.57129"
             style="fill:none;stroke:#000000;stroke-width:0.75;stroke-linecap:round;stroke-linejoin:round" />
          <line
             id="line991"
             y2="175.60645"
             x2="124.97852"
             y1="173.23145"
             x1="127.35352"
             style="fill:none;stroke:#000000;stroke-width:0.75;stroke-linecap:round;stroke-linejoin:round" />
          <line
             id="line993"
             y2="179.60645"
             x2="120.97852"
             y1="176.85645"
             x1="123.72852"
             style="fill:none;stroke:#000000;stroke-width:0.75;stroke-linecap:round;stroke-linejoin:round" />
        </g>
        <path
           d="m 69.628906,158.25 h 84.742184 v 58.12891 c 0,23.40039 -18.96972,42.37109 -42.37109,42.37109 -23.401367,0 -42.371094,-18.9707 -42.371094,-42.37109 z"
           id="small_shield_5_"
           inkscape:connector-curvature="0"
           style="fill:none;stroke:#000000;stroke-width:1.34509993" />
      </g>
      <g
         id="g1087"
         clip-path="url(#overall_shield_3_)">
        <path
           id="path999"
           d="m 24.5,12 h 35 v 84 c 0,0 0.625,3.625 -0.625,6.125 -1.25,2.5 -1.25,4.625 -1.25,6.375 0,1.75 0,4.625 -1.875,6.5 -1.875,1.875 -9.5,7.625 -9.5,7.625 l -1.125,10.625 c 0,0 3.125,-6.375 7.5,-6.375 5.625,0 4.5,10.25 4.5,10.25 0,0 -2.044922,-4.75586 -4.875,-4.25 -3.5,0.625 -6.875,4.625 -6.875,4.625 0,0 1.75,0.5 1.75,2 0,1.9375 -2.125,2 -2.125,2 v 14 h -4.125 v -14 c 0,0 -2.3125,0 -2.3125,-1.75 0,-1.9375 2.0625,-2.25 2.0625,-2.25 0,0 -1.875,-4.8125 -4.8125,-4.8125 -2.9375,0 -5.4375,4.4375 -5.4375,4.4375 0,0 -1.875,-10 4.5,-10 6.375,0 6.375,6.125 6.375,6.125 0,0 0.625,-5.5 0.0625,-7.125 C 40.75,124.5 40.75,122 40.75,122 c 0,0 -11,-6.625 -12.5,-9.875 L 24.5,100.5 Z"
           inkscape:connector-curvature="0"
           style="fill:#ffd200;stroke:#000000;stroke-width:0.75;stroke-linecap:round;stroke-linejoin:round" />
        <g
           id="g1015">
          <line
             id="line1001"
             y2="37.125"
             x2="42.375"
             y1="11.75"
             x1="42.375"
             style="fill:none;stroke:#000000;stroke-width:0.75" />
          <line
             id="line1003"
             y2="46.75"
             x2="47"
             y1="11.75"
             x1="47"
             style="fill:none;stroke:#000000;stroke-width:0.75" />
          <line
             id="line1005"
             y2="54.375"
             x2="51.5"
             y1="11.75"
             x1="51.5"
             style="fill:none;stroke:#000000;stroke-width:0.75" />
          <line
             id="line1007"
             y2="54"
             x2="56"
             y1="11.75"
             x1="56"
             style="fill:none;stroke:#000000;stroke-width:0.75" />
          <line
             id="line1009"
             y2="46.75"
             x2="38"
             y1="11.75"
             x1="38"
             style="fill:none;stroke:#000000;stroke-width:0.75" />
          <line
             id="line1011"
             y2="54.375"
             x2="33.5"
             y1="11.75"
             x1="33.5"
             style="fill:none;stroke:#000000;stroke-width:0.75" />
          <line
             id="line1013"
             y2="54"
             x2="29"
             y1="11.75"
             x1="29"
             style="fill:none;stroke:#000000;stroke-width:0.75" />
        </g>
        <g
           id="g1047">
          <g
             id="g1021">
            <path
               id="path1017"
               d="m 59,96.003906 c 0,0 -1.173828,6.079594 -1.173828,10.079594 0,4 -0.167969,6.33349 -1.833985,8 -1.666015,1.6665 -3.825195,4.12451 -5.492187,5.7915 -1.666992,1.66699 -3.882813,3.5 -4.757813,2.625 -0.875,-0.875 -0.75,-9.875 1.75,-13.75 C 49.992187,104.875 56.75,101.25391 59,96.003906 Z"
               inkscape:connector-curvature="0"
               style="fill:#ffd200;stroke:#000000;stroke-width:0.75;stroke-linecap:round;stroke-linejoin:round" />
            <path
               id="path1019"
               d="m 54.076172,109.5 c 0,0 -0.333008,2.3335 -1.083008,3.0835 -0.75,0.75 -1.166992,1.4165 -1.166992,2"
               inkscape:connector-curvature="0"
               style="fill:#ffd200;stroke:#000000;stroke-width:0.75;stroke-linecap:round;stroke-linejoin:round" />
          </g>
          <g
             id="g1027">
            <path
               id="path1023"
               d="m 56.742187,81.25 c 0,0 0.333985,6.833496 0.333985,10.833496 0,4 -0.167969,6.333496 -1.833985,8.000004 -1.666015,1.6665 -4.333007,5.74951 -6,7.4165 -1.666992,1.66699 -3.375,3.79199 -4.25,2.91699 -0.875,-0.875 -0.75,-11.79199 1.75,-15.66699 2.5,-3.875 7.75,-8.25 10,-13.5 z"
               inkscape:connector-curvature="0"
               style="fill:#ffd200;stroke:#000000;stroke-width:0.75;stroke-linecap:round;stroke-linejoin:round" />
            <path
               id="path1025"
               d="m 53.326172,95.5 c 0,0 -0.333008,2.333496 -1.083008,3.083496 -0.75,0.75 -1.166992,1.416504 -1.166992,2.000004"
               inkscape:connector-curvature="0"
               style="fill:#ffd200;stroke:#000000;stroke-width:0.75;stroke-linecap:round;stroke-linejoin:round" />
          </g>
          <g
             id="g1033">
            <path
               id="path1029"
               d="m 56.5,68.25 c 0,0 0.333984,6.833496 0.333984,10.833496 0,4 -0.167968,6.333496 -1.833984,8 C 53.333984,88.75 50.666992,92.833008 49,94.5 47.333008,96.166992 45.625,98.291992 44.75,97.416992 43.875,96.541992 44,85.625 46.5,81.75 49,77.875 54.25,73.5 56.5,68.25 Z"
               inkscape:connector-curvature="0"
               style="fill:#ffd200;stroke:#000000;stroke-width:0.75;stroke-linecap:round;stroke-linejoin:round" />
            <path
               id="path1031"
               d="m 53.083984,82.5 c 0,0 -0.333007,2.333496 -1.083007,3.083496 -0.75,0.75 -1.166993,1.416504 -1.166993,2"
               inkscape:connector-curvature="0"
               style="fill:#ffd200;stroke:#000000;stroke-width:0.75;stroke-linecap:round;stroke-linejoin:round" />
          </g>
          <g
             id="g1039">
            <path
               id="path1035"
               d="m 56.5,55.25 c 0,0 0.333984,6.833496 0.333984,10.833496 0,4 -0.167968,6.333496 -1.833984,8 C 53.333984,75.75 50.666992,79.833008 49,81.5 47.333008,83.166992 45.625,85.291992 44.75,84.416992 43.875,83.541992 44,72.625 46.5,68.75 49,64.875 54.25,60.5 56.5,55.25 Z"
               inkscape:connector-curvature="0"
               style="fill:#ffd200;stroke:#000000;stroke-width:0.75;stroke-linecap:round;stroke-linejoin:round" />
            <path
               id="path1037"
               d="m 53.083984,69.5 c 0,0 -0.333007,2.333496 -1.083007,3.083496 -0.75,0.75 -1.166993,1.416504 -1.166993,2"
               inkscape:connector-curvature="0"
               style="fill:#ffd200;stroke:#000000;stroke-width:0.75;stroke-linecap:round;stroke-linejoin:round" />
          </g>
          <g
             id="g1045">
            <path
               id="path1041"
               d="m 56.5,42.25 c 0,0 0.333984,6.833496 0.333984,10.833496 0,4 -0.167968,6.333496 -1.833984,8 C 53.333984,62.75 50.666992,66.833008 49,68.5 47.333008,70.166992 45.625,72.291992 44.75,71.416992 43.875,70.541992 44,59.625 46.5,55.75 49,51.875 54.25,47.5 56.5,42.25 Z"
               inkscape:connector-curvature="0"
               style="fill:#ffd200;stroke:#000000;stroke-width:0.75;stroke-linecap:round;stroke-linejoin:round" />
            <path
               id="path1043"
               d="m 53.083984,56.5 c 0,0 -0.333007,2.333496 -1.083007,3.083496 -0.75,0.75 -1.166993,1.416504 -1.166993,2"
               inkscape:connector-curvature="0"
               style="fill:#ffd200;stroke:#000000;stroke-width:0.75;stroke-linecap:round;stroke-linejoin:round" />
          </g>
        </g>
        <g
           id="g1079">
          <g
             id="g1053">
            <path
               id="path1049"
               d="m 26.5,96.003906 c 0,0 1.173828,6.079594 1.173828,10.079594 0,4 0.167969,6.33349 1.833984,8 1.666016,1.6665 3.825196,4.12451 5.492188,5.7915 1.666992,1.66699 3.882812,3.5 4.757812,2.625 0.875,-0.875 0.75,-9.875 -1.75,-13.75 C 35.507812,104.875 28.75,101.25391 26.5,96.003906 Z"
               inkscape:connector-curvature="0"
               style="fill:#ffd200;stroke:#000000;stroke-width:0.75;stroke-linejoin:round" />
            <path
               id="path1051"
               d="m 30.423828,109.5 c 0,0 0.333008,2.3335 1.083008,3.0835 0.75,0.75 1.166992,1.4165 1.166992,2"
               inkscape:connector-curvature="0"
               style="fill:#ffd200;stroke:#000000;stroke-width:0.75;stroke-linecap:round;stroke-linejoin:round" />
          </g>
          <g
             id="g1059">
            <path
               id="path1055"
               d="m 27.757812,81.25 c 0,0 -0.333984,6.833496 -0.333984,10.833496 0,4 0.167969,6.333496 1.833984,8.000004 1.666016,1.6665 4.333008,5.74951 6,7.4165 1.666993,1.66699 3.375,3.79199 4.25,2.91699 0.875,-0.875 0.75,-11.79199 -1.75,-15.66699 -2.5,-3.875 -7.75,-8.25 -10,-13.5 z"
               inkscape:connector-curvature="0"
               style="fill:#ffd200;stroke:#000000;stroke-width:0.75;stroke-linejoin:round" />
            <path
               id="path1057"
               d="m 31.173828,95.5 c 0,0 0.333008,2.333496 1.083008,3.083496 0.75,0.75 1.166992,1.416504 1.166992,2.000004"
               inkscape:connector-curvature="0"
               style="fill:#ffd200;stroke:#000000;stroke-width:0.75;stroke-linecap:round;stroke-linejoin:round" />
          </g>
          <g
             id="g1065">
            <path
               id="path1061"
               d="m 28,68.25 c 0,0 -0.333984,6.833496 -0.333984,10.833496 0,4 0.167968,6.333496 1.833984,8 1.666016,1.666504 4.333008,5.749512 6,7.416504 1.666992,1.666992 3.375,3.791992 4.25,2.916992 C 40.625,96.541992 40.5,85.625 38,81.75 35.5,77.875 30.25,73.5 28,68.25 Z"
               inkscape:connector-curvature="0"
               style="fill:#ffd200;stroke:#000000;stroke-width:0.75;stroke-linejoin:round" />
            <path
               id="path1063"
               d="m 31.416016,82.5 c 0,0 0.333007,2.333496 1.083007,3.083496 0.75,0.75 1.166993,1.416504 1.166993,2"
               inkscape:connector-curvature="0"
               style="fill:#ffd200;stroke:#000000;stroke-width:0.75;stroke-linecap:round;stroke-linejoin:round" />
          </g>
          <g
             id="g1071">
            <path
               id="path1067"
               d="m 28,55.25 c 0,0 -0.333984,6.833496 -0.333984,10.833496 0,4 0.167968,6.333496 1.833984,8 1.666016,1.666504 4.333008,5.749512 6,7.416504 1.666992,1.666992 3.375,3.791992 4.25,2.916992 C 40.625,83.541992 40.5,72.625 38,68.75 35.5,64.875 30.25,60.5 28,55.25 Z"
               inkscape:connector-curvature="0"
               style="fill:#ffd200;stroke:#000000;stroke-width:0.75;stroke-linejoin:round" />
            <path
               id="path1069"
               d="m 31.416016,69.5 c 0,0 0.333007,2.333496 1.083007,3.083496 0.75,0.75 1.166993,1.416504 1.166993,2"
               inkscape:connector-curvature="0"
               style="fill:#ffd200;stroke:#000000;stroke-width:0.75;stroke-linecap:round;stroke-linejoin:round" />
          </g>
          <g
             id="g1077">
            <path
               id="path1073"
               d="m 28,42.25 c 0,0 -0.333984,6.833496 -0.333984,10.833496 0,4 0.167968,6.333496 1.833984,8 1.666016,1.666504 4.333008,5.749512 6,7.416504 1.666992,1.666992 3.375,3.791992 4.25,2.916992 C 40.625,70.541992 40.5,59.625 38,55.75 35.5,51.875 30.25,47.5 28,42.25 Z"
               inkscape:connector-curvature="0"
               style="fill:#ffd200;stroke:#000000;stroke-width:0.75;stroke-linejoin:round" />
            <path
               id="path1075"
               d="m 31.416016,56.5 c 0,0 0.333007,2.333496 1.083007,3.083496 0.75,0.75 1.166993,1.416504 1.166993,2"
               inkscape:connector-curvature="0"
               style="fill:#ffd200;stroke:#000000;stroke-width:0.75;stroke-linecap:round;stroke-linejoin:round" />
          </g>
        </g>
        <g
           id="g1085">
          <path
             id="path1081"
             d="m 39.493164,59.709473 c 0,0 0.422852,-0.695801 0.422852,-1.459473 0,-1.94043 -1.166016,-3.5 -2.082032,-4.416504 -0.916015,-0.916504 -0.750976,-2.75 -0.750976,-6.25 0,-3.5 4.25,-8.833008 6.5,-14.416504 0,0 -0.08398,4.416016 0.833008,5.333008 0.916992,0.916992 4.25,5.083984 4.25,8.916992 0,3.833008 -1.549805,6.262695 -2.791016,7.504395 -1.241211,1.241699 -1.564453,3.313476 -0.836426,4.836914"
             inkscape:connector-curvature="0"
             style="fill:#ffd200;stroke:#000000;stroke-width:0.75;stroke-linecap:round;stroke-linejoin:round" />
          <path
             id="path1083"
             d="m 43.916992,40.583496 c 0,0 0,2.541992 0.416992,3.375 0.416993,0.833008 0.875,1.625 0.875,2.875 0,1.25 -0.4375,2.812988 -1,3.375"
             inkscape:connector-curvature="0"
             style="fill:none;stroke:#000000;stroke-width:0.75;stroke-linecap:round" />
        </g>
      </g>
      <g
         id="g1177"
         clip-path="url(#overall_shield_3_)">
        <path
           id="path1089"
           d="m 162,12 h 35 v 84 c 0,0 0.625,3.625 -0.625,6.125 -1.25,2.5 -1.25,4.625 -1.25,6.375 0,1.75 0,4.625 -1.875,6.5 -1.875,1.875 -9.5,7.625 -9.5,7.625 l -1.125,10.625 c 0,0 3.125,-6.375 7.5,-6.375 5.625,0 4.5,10.25 4.5,10.25 0,0 -2.04492,-4.75586 -4.875,-4.25 -3.5,0.625 -6.875,4.625 -6.875,4.625 0,0 1.75,0.5 1.75,2 0,1.9375 -2.125,2 -2.125,2 v 14 h -4.125 v -14 c 0,0 -2.3125,0 -2.3125,-1.75 0,-1.9375 2.0625,-2.25 2.0625,-2.25 0,0 -1.875,-4.8125 -4.8125,-4.8125 -2.9375,0 -5.4375,4.4375 -5.4375,4.4375 0,0 -1.875,-10 4.5,-10 6.375,0 6.375,6.125 6.375,6.125 0,0 0.625,-5.5 0.0625,-7.125 C 178.25,124.5 178.25,122 178.25,122 c 0,0 -11,-6.625 -12.5,-9.875 L 162,100.5 Z"
           inkscape:connector-curvature="0"
           style="fill:#ffd200;stroke:#000000;stroke-width:0.75;stroke-linecap:round;stroke-linejoin:round" />
        <g
           id="g1105">
          <line
             id="line1091"
             y2="37.125"
             x2="179.875"
             y1="11.75"
             x1="179.875"
             style="fill:none;stroke:#000000;stroke-width:0.75" />
          <line
             id="line1093"
             y2="46.75"
             x2="184.5"
             y1="11.75"
             x1="184.5"
             style="fill:none;stroke:#000000;stroke-width:0.75" />
          <line
             id="line1095"
             y2="54.375"
             x2="189"
             y1="11.75"
             x1="189"
             style="fill:none;stroke:#000000;stroke-width:0.75" />
          <line
             id="line1097"
             y2="54"
             x2="193.5"
             y1="11.75"
             x1="193.5"
             style="fill:none;stroke:#000000;stroke-width:0.75" />
          <line
             id="line1099"
             y2="46.75"
             x2="175.5"
             y1="11.75"
             x1="175.5"
             style="fill:none;stroke:#000000;stroke-width:0.75" />
          <line
             id="line1101"
             y2="54.375"
             x2="171"
             y1="11.75"
             x1="171"
             style="fill:none;stroke:#000000;stroke-width:0.75" />
          <line
             id="line1103"
             y2="54"
             x2="166.5"
             y1="11.75"
             x1="166.5"
             style="fill:none;stroke:#000000;stroke-width:0.75" />
        </g>
        <g
           id="g1137">
          <g
             id="g1111">
            <path
               id="path1107"
               d="m 196.5,96.003906 c 0,0 -1.17383,6.080074 -1.17383,10.080074 0,4 -0.16797,6.33301 -1.83398,8 -1.66602,1.66602 -3.8252,4.12403 -5.49219,5.79102 -1.66699,1.66699 -3.88281,3.5 -4.75781,2.625 -0.875,-0.875 -0.75,-9.875 1.75,-13.75 2.5,-3.875 9.25781,-7.49609 11.50781,-12.746094 z"
               inkscape:connector-curvature="0"
               style="fill:#ffd200;stroke:#000000;stroke-width:0.75;stroke-linecap:round;stroke-linejoin:round" />
            <path
               id="path1109"
               d="m 191.57617,109.5 c 0,0 -0.33301,2.33398 -1.08301,3.08398 -0.75,0.75 -1.16699,1.41602 -1.16699,2"
               inkscape:connector-curvature="0"
               style="fill:#ffd200;stroke:#000000;stroke-width:0.75;stroke-linecap:round;stroke-linejoin:round" />
          </g>
          <g
             id="g1117">
            <path
               id="path1113"
               d="m 194.24219,81.25 c 0,0 0.33398,6.833984 0.33398,10.833984 0,4 -0.16797,6.333008 -1.83398,7.999996 -1.66602,1.66602 -4.33301,5.74903 -6,7.41602 -1.66699,1.66699 -3.375,3.79199 -4.25,2.91699 -0.875,-0.875 -0.75,-11.79199 1.75,-15.66699 2.5,-3.875 7.75,-8.25 10,-13.5 z"
               inkscape:connector-curvature="0"
               style="fill:#ffd200;stroke:#000000;stroke-width:0.75;stroke-linecap:round;stroke-linejoin:round" />
            <path
               id="path1115"
               d="m 190.82617,95.5 c 0,0 -0.33301,2.333984 -1.08301,3.083984 -0.75,0.75 -1.16699,1.416016 -1.16699,1.999996"
               inkscape:connector-curvature="0"
               style="fill:#ffd200;stroke:#000000;stroke-width:0.75;stroke-linecap:round;stroke-linejoin:round" />
          </g>
          <g
             id="g1123">
            <path
               id="path1119"
               d="m 194,68.25 c 0,0 0.33398,6.833496 0.33398,10.833496 0,4 -0.16796,6.333496 -1.83398,8.000488 -1.66602,1.666016 -4.33301,5.749024 -6,7.416016 -1.66699,1.666992 -3.375,3.791992 -4.25,2.916992 C 181.375,96.541992 181.5,85.625 184,81.75 c 2.5,-3.875 7.75,-8.25 10,-13.5 z"
               inkscape:connector-curvature="0"
               style="fill:#ffd200;stroke:#000000;stroke-width:0.75;stroke-linecap:round;stroke-linejoin:round" />
            <path
               id="path1121"
               d="m 190.58398,82.5 c 0,0 -0.333,2.333984 -1.083,3.083984 -0.75,0.75 -1.167,1.416016 -1.167,2"
               inkscape:connector-curvature="0"
               style="fill:#ffd200;stroke:#000000;stroke-width:0.75;stroke-linecap:round;stroke-linejoin:round" />
          </g>
          <g
             id="g1129">
            <path
               id="path1125"
               d="m 194,55.25 c 0,0 0.33398,6.833496 0.33398,10.833496 0,4 -0.16796,6.333496 -1.83398,8 -1.66602,1.666504 -4.33301,5.749512 -6,7.416504 -1.66699,1.666992 -3.375,3.791992 -4.25,2.916992 C 181.375,83.541992 181.5,72.625 184,68.75 c 2.5,-3.875 7.75,-8.25 10,-13.5 z"
               inkscape:connector-curvature="0"
               style="fill:#ffd200;stroke:#000000;stroke-width:0.75;stroke-linecap:round;stroke-linejoin:round" />
            <path
               id="path1127"
               d="m 190.58398,69.5 c 0,0 -0.333,2.333496 -1.083,3.083496 -0.75,0.75 -1.167,1.416504 -1.167,2"
               inkscape:connector-curvature="0"
               style="fill:#ffd200;stroke:#000000;stroke-width:0.75;stroke-linecap:round;stroke-linejoin:round" />
          </g>
          <g
             id="g1135">
            <path
               id="path1131"
               d="m 194,42.25 c 0,0 0.33398,6.833496 0.33398,10.833496 0,4 -0.16796,6.333496 -1.83398,8 -1.66602,1.666504 -4.33301,5.749512 -6,7.416504 -1.66699,1.666992 -3.375,3.791992 -4.25,2.916992 C 181.375,70.541992 181.5,59.625 184,55.75 c 2.5,-3.875 7.75,-8.25 10,-13.5 z"
               inkscape:connector-curvature="0"
               style="fill:#ffd200;stroke:#000000;stroke-width:0.75;stroke-linecap:round;stroke-linejoin:round" />
            <path
               id="path1133"
               d="m 190.58398,56.5 c 0,0 -0.333,2.333496 -1.083,3.083496 -0.75,0.75 -1.167,1.416504 -1.167,2"
               inkscape:connector-curvature="0"
               style="fill:#ffd200;stroke:#000000;stroke-width:0.75;stroke-linecap:round;stroke-linejoin:round" />
          </g>
        </g>
        <g
           id="g1169">
          <g
             id="g1143">
            <path
               id="path1139"
               d="m 164,96.003906 c 0,0 1.17383,6.080074 1.17383,10.080074 0,4 0.16797,6.33301 1.83398,8 1.66602,1.66602 3.8252,4.12403 5.49219,5.79102 1.66699,1.66699 3.88281,3.5 4.75781,2.625 0.875,-0.875 0.75,-9.875 -1.75,-13.75 -2.5,-3.875 -9.25781,-7.49609 -11.50781,-12.746094 z"
               inkscape:connector-curvature="0"
               style="fill:#ffd200;stroke:#000000;stroke-width:0.75;stroke-linejoin:round" />
            <path
               id="path1141"
               d="m 167.92383,109.5 c 0,0 0.33301,2.33398 1.08301,3.08398 0.75,0.75 1.16699,1.41602 1.16699,2"
               inkscape:connector-curvature="0"
               style="fill:#ffd200;stroke:#000000;stroke-width:0.75;stroke-linecap:round;stroke-linejoin:round" />
          </g>
          <g
             id="g1149">
            <path
               id="path1145"
               d="m 165.25781,81.25 c 0,0 -0.33398,6.833984 -0.33398,10.833984 0,4 0.16797,6.333008 1.83398,7.999996 1.66602,1.66602 4.33301,5.74903 6,7.41602 1.66699,1.66699 3.375,3.79199 4.25,2.91699 0.875,-0.875 0.75,-11.79199 -1.75,-15.66699 -2.5,-3.875 -7.75,-8.25 -10,-13.5 z"
               inkscape:connector-curvature="0"
               style="fill:#ffd200;stroke:#000000;stroke-width:0.75;stroke-linejoin:round" />
            <path
               id="path1147"
               d="m 168.67383,95.5 c 0,0 0.33301,2.333984 1.08301,3.083984 0.75,0.75 1.16699,1.416016 1.16699,1.999996"
               inkscape:connector-curvature="0"
               style="fill:#ffd200;stroke:#000000;stroke-width:0.75;stroke-linecap:round;stroke-linejoin:round" />
          </g>
          <g
             id="g1155">
            <path
               id="path1151"
               d="m 165.5,68.25 c 0,0 -0.33398,6.833496 -0.33398,10.833496 0,4 0.16796,6.333496 1.83398,8.000488 1.66602,1.666016 4.33301,5.749024 6,7.416016 1.66699,1.666992 3.375,3.791992 4.25,2.916992 C 178.125,96.541992 178,85.625 175.5,81.75 173,77.875 167.75,73.5 165.5,68.25 Z"
               inkscape:connector-curvature="0"
               style="fill:#ffd200;stroke:#000000;stroke-width:0.75;stroke-linejoin:round" />
            <path
               id="path1153"
               d="m 168.91602,82.5 c 0,0 0.333,2.333984 1.083,3.083984 0.75,0.75 1.167,1.416016 1.167,2"
               inkscape:connector-curvature="0"
               style="fill:#ffd200;stroke:#000000;stroke-width:0.75;stroke-linecap:round;stroke-linejoin:round" />
          </g>
          <g
             id="g1161">
            <path
               id="path1157"
               d="m 165.5,55.25 c 0,0 -0.33398,6.833496 -0.33398,10.833496 0,4 0.16796,6.333496 1.83398,8 1.66602,1.666504 4.33301,5.749512 6,7.416504 1.66699,1.666992 3.375,3.791992 4.25,2.916992 C 178.125,83.541992 178,72.625 175.5,68.75 173,64.875 167.75,60.5 165.5,55.25 Z"
               inkscape:connector-curvature="0"
               style="fill:#ffd200;stroke:#000000;stroke-width:0.75;stroke-linejoin:round" />
            <path
               id="path1159"
               d="m 168.91602,69.5 c 0,0 0.333,2.333496 1.083,3.083496 0.75,0.75 1.167,1.416504 1.167,2"
               inkscape:connector-curvature="0"
               style="fill:#ffd200;stroke:#000000;stroke-width:0.75;stroke-linecap:round;stroke-linejoin:round" />
          </g>
          <g
             id="g1167">
            <path
               id="path1163"
               d="m 165.5,42.25 c 0,0 -0.33398,6.833496 -0.33398,10.833496 0,4 0.16796,6.333496 1.83398,8 1.66602,1.666504 4.33301,5.749512 6,7.416504 1.66699,1.666992 3.375,3.791992 4.25,2.916992 C 178.125,70.541992 178,59.625 175.5,55.75 173,51.875 167.75,47.5 165.5,42.25 Z"
               inkscape:connector-curvature="0"
               style="fill:#ffd200;stroke:#000000;stroke-width:0.75;stroke-linejoin:round" />
            <path
               id="path1165"
               d="m 168.91602,56.5 c 0,0 0.333,2.333496 1.083,3.083496 0.75,0.75 1.167,1.416504 1.167,2"
               inkscape:connector-curvature="0"
               style="fill:#ffd200;stroke:#000000;stroke-width:0.75;stroke-linecap:round;stroke-linejoin:round" />
          </g>
        </g>
        <g
           id="g1175">
          <path
             id="path1171"
             d="m 176.99316,59.709473 c 0,0 0.42286,-0.695801 0.42286,-1.459473 0,-1.94043 -1.16602,-3.5 -2.08204,-4.416504 -0.91601,-0.916504 -0.75097,-2.75 -0.75097,-6.25 0,-3.5 4.25,-8.833008 6.5,-14.416504 0,0 -0.084,4.416016 0.83301,5.333008 0.91699,0.916992 4.25,5.083984 4.25,8.916992 0,3.833008 -1.54981,6.262695 -2.79102,7.504395 -1.24121,1.241699 -1.56445,3.313476 -0.83594,4.836914"
             inkscape:connector-curvature="0"
             style="fill:#ffd200;stroke:#000000;stroke-width:0.75;stroke-linecap:round;stroke-linejoin:round" />
          <path
             id="path1173"
             d="m 181.41699,40.583496 c 0,0 0,2.541992 0.41699,3.375 0.417,0.833008 0.875,1.625 0.875,2.875 0,1.25 -0.4375,2.812988 -1,3.375"
             inkscape:connector-curvature="0"
             style="fill:none;stroke:#000000;stroke-width:0.75;stroke-linecap:round" />
        </g>
      </g>
    </g>
    <path
       d="m 1.75,1.75 h 220.5 V 153 C 222.25,213.88965 172.88965,263.25 112,263.25 51.110352,263.25 1.75,213.88965 1.75,153 Z"
       id="overall_shield_1_"
       inkscape:connector-curvature="0"
       style="fill:none;stroke:#000000;stroke-width:3.5" />
  </g>
  <rect
     style="opacity:1;fill:#de1c00;fill-opacity:1;fill-rule:evenodd;stroke:#de1c00;stroke-width:0.99956012;stroke-opacity:1"
     id="rect1383"
     width="2000"
     height="279.22534"
     x="0"
     y="0" />
  <rect
     style="opacity:1;fill:#de1c00;fill-opacity:1;fill-rule:evenodd;stroke:#de1c00;stroke-width:0.99956012;stroke-opacity:1"
     id="rect1383-1"
     width="2000"
     height="279.22534"
     x="0"
     y="920.77466" />
</svg>
