<?xml version="1.0" encoding="UTF-8" standalone="no"?>
<!-- Created with Inkscape (http://www.inkscape.org/) -->
<svg
   xmlns:dc="http://purl.org/dc/elements/1.1/"
   xmlns:cc="http://creativecommons.org/ns#"
   xmlns:rdf="http://www.w3.org/1999/02/22-rdf-syntax-ns#"
   xmlns:svg="http://www.w3.org/2000/svg"
   xmlns="http://www.w3.org/2000/svg"
   xmlns:sodipodi="http://sodipodi.sourceforge.net/DTD/sodipodi-0.dtd"
   xmlns:inkscape="http://www.inkscape.org/namespaces/inkscape"
   id="svg2"
   sodipodi:version="0.32"
   inkscape:version="0.46"
   width="500"
   height="300"
   version="1.0"
   sodipodi:docname="Flagge_der_kreisfreien_Stadt_Mönchengladbach.svg"
   inkscape:output_extension="org.inkscape.output.svg.inkscape">
  <metadata
     id="metadata7">
    <rdf:RDF>
      <cc:Work
         rdf:about="">
        <dc:format>image/svg+xml</dc:format>
        <dc:type
           rdf:resource="http://purl.org/dc/dcmitype/StillImage" />
      </cc:Work>
    </rdf:RDF>
  </metadata>
  <defs
     id="defs5">
    <inkscape:perspective
       sodipodi:type="inkscape:persp3d"
       inkscape:vp_x="0 : 526.18109 : 1"
       inkscape:vp_y="0 : 1000 : 0"
       inkscape:vp_z="744.09448 : 526.18109 : 1"
       inkscape:persp3d-origin="372.04724 : 350.78739 : 1"
       id="perspective9" />
    <inkscape:perspective
       id="perspective2465"
       inkscape:persp3d-origin="372.04724 : 350.78739 : 1"
       inkscape:vp_z="744.09448 : 526.18109 : 1"
       inkscape:vp_y="0 : 1000 : 0"
       inkscape:vp_x="0 : 526.18109 : 1"
       sodipodi:type="inkscape:persp3d" />
    <inkscape:perspective
       id="perspective3524"
       inkscape:persp3d-origin="372.04724 : 350.78739 : 1"
       inkscape:vp_z="744.09448 : 526.18109 : 1"
       inkscape:vp_y="0 : 1000 : 0"
       inkscape:vp_x="0 : 526.18109 : 1"
       sodipodi:type="inkscape:persp3d" />
    <inkscape:perspective
       id="perspective3628"
       inkscape:persp3d-origin="372.04724 : 350.78739 : 1"
       inkscape:vp_z="744.09448 : 526.18109 : 1"
       inkscape:vp_y="0 : 1000 : 0"
       inkscape:vp_x="0 : 526.18109 : 1"
       sodipodi:type="inkscape:persp3d" />
    <inkscape:perspective
       id="perspective3695"
       inkscape:persp3d-origin="372.04724 : 350.78739 : 1"
       inkscape:vp_z="744.09448 : 526.18109 : 1"
       inkscape:vp_y="0 : 1000 : 0"
       inkscape:vp_x="0 : 526.18109 : 1"
       sodipodi:type="inkscape:persp3d" />
  </defs>
  <sodipodi:namedview
     inkscape:window-height="667"
     inkscape:window-width="903"
     inkscape:pageshadow="2"
     inkscape:pageopacity="0.0"
     guidetolerance="10.0"
     gridtolerance="10.0"
     objecttolerance="10.0"
     borderopacity="1.0"
     bordercolor="#666666"
     pagecolor="#ffffff"
     id="base"
     showgrid="false"
     showguides="true"
     inkscape:guide-bbox="true"
     inkscape:zoom="1"
     inkscape:cx="235.45217"
     inkscape:cy="153.7091"
     inkscape:window-x="0"
     inkscape:window-y="4"
     inkscape:current-layer="svg2" />
  <g
     id="flaggentuch">
    <rect
       y="0"
       x="0"
       height="50"
       width="500"
       id="da121a-oben"
       style="opacity:1;fill:#da121a;fill-opacity:1;fill-rule:nonzero;stroke:none;stroke-width:9.83899975;stroke-linecap:butt;stroke-linejoin:miter;marker:none;marker-start:none;marker-mid:none;marker-end:none;stroke-miterlimit:10;stroke-dasharray:none;stroke-dashoffset:0;stroke-opacity:1;visibility:visible;display:inline;overflow:visible;enable-background:accumulate" />
    <rect
       y="50"
       x="0"
       height="200"
       width="500"
       id="fce607-mitte"
       style="opacity:1;fill:#fce607;fill-opacity:0.98039216;fill-rule:nonzero;stroke:none;stroke-width:9.83899975;stroke-linecap:butt;stroke-linejoin:miter;marker:none;marker-start:none;marker-mid:none;marker-end:none;stroke-miterlimit:10;stroke-dasharray:none;stroke-dashoffset:0;stroke-opacity:1;visibility:visible;display:inline;overflow:visible;enable-background:accumulate" />
    <rect
       y="250"
       x="0"
       height="50"
       width="500"
       id="da121a-unten"
       style="opacity:1;fill:#da121a;fill-opacity:1;fill-rule:nonzero;stroke:none;stroke-width:9.83899975;stroke-linecap:butt;stroke-linejoin:miter;marker:none;marker-start:none;marker-mid:none;marker-end:none;stroke-miterlimit:10;stroke-dasharray:none;stroke-dashoffset:0;stroke-opacity:1;visibility:visible;display:inline;overflow:visible;enable-background:accumulate" />
  </g>
  <g
     id="wappen"
     transform="matrix(0.7554663,0,0,0.7554663,98.528916,-137.26567)">
    <path
       style="fill:#da121a;fill-opacity:1;fill-rule:nonzero;stroke:#000000;stroke-width:1.50000179;stroke-linecap:butt;stroke-linejoin:miter;marker:none;marker-start:none;marker-mid:none;marker-end:none;stroke-miterlimit:10;stroke-dashoffset:0;stroke-opacity:1;visibility:visible;display:inline;overflow:visible;enable-background:accumulate"
       d="M 1.4998806,254.49934 L 200.50012,254.49934 L 200.50012,309.99941 L 1.4998806,309.99941 L 1.4998806,254.49934 z"
       id="schildhaupt"
       sodipodi:nodetypes="ccccc" />
    <path
       sodipodi:nodetypes="ccccc"
       id="vorne"
       d="M 101,309.99941 L 101,504.49964 C 45.599934,504.49964 1.4998806,460.39959 1.4998806,404.99952 L 1.4998806,309.99941 L 101,309.99941 z"
       style="fill:#0f47af;fill-opacity:1;fill-rule:nonzero;stroke:#000000;stroke-width:1.50000179;stroke-linecap:butt;stroke-linejoin:miter;marker:none;marker-start:none;marker-mid:none;marker-end:none;stroke-miterlimit:10;stroke-dasharray:none;stroke-dashoffset:0;stroke-opacity:1;visibility:visible;display:inline;overflow:visible;enable-background:accumulate" />
    <path
       sodipodi:nodetypes="ccccc"
       id="hinten"
       d="M 101,309.99941 L 101,504.49964 C 156.40007,504.49964 200.50012,460.39959 200.50012,404.99952 L 200.50012,309.99941 L 101,309.99941 z"
       style="opacity:0.97000002;fill:#fcdd09;fill-opacity:1;fill-rule:nonzero;stroke:#000000;stroke-width:1.50000179;stroke-linecap:butt;stroke-linejoin:miter;marker:none;marker-start:none;marker-mid:none;marker-end:none;stroke-miterlimit:10;stroke-dasharray:none;stroke-dashoffset:0;stroke-opacity:1;visibility:visible;display:inline;overflow:visible;enable-background:accumulate" />
    <path
       sodipodi:nodetypes="ccccccccccccccccccccccccccccccc"
       id="wechselzinnenbalken"
       d="M 115.50002,289.99938 L 115.50002,299.9994 L 87.999985,299.9994 L 87.999985,289.99938 L 60.499952,289.99938 L 60.499952,299.9994 L 32.99992,299.9994 L 32.99992,289.99938 L 1.4998827,289.99938 L 1.4998827,268.49936 L 32.99992,268.49936 L 32.99992,280.99937 L 60.499952,280.99937 L 60.499952,268.49936 L 87.999985,268.49936 L 87.999985,280.99937 L 115.50002,280.99937 L 115.50002,268.49936 L 143.00005,268.49936 L 143.00005,280.99937 L 170.50008,280.99937 L 170.50008,268.49936 L 200.50012,268.49936 L 200.50012,289.99938 L 170.50008,289.99938 L 170.50008,299.9994 L 143.00005,299.9994 L 143.00005,289.99938 L 115.50002,289.99938 z M 115.50002,299.9994 L 115.50002,289.99938"
       style="opacity:1;fill:#ffffff;fill-opacity:1;fill-rule:nonzero;stroke:#000000;stroke-width:1.50000179;stroke-linecap:butt;stroke-linejoin:miter;marker:none;marker-start:none;marker-mid:none;marker-end:none;stroke-miterlimit:4;stroke-dashoffset:0;stroke-opacity:1;visibility:visible;display:inline;overflow:visible;enable-background:accumulate" />
    <path
       sodipodi:nodetypes="cccccccccssccccccccccccc"
       id="abtskruemme"
       d="M 48.999939,404.20041 C 42.018329,404.1513 42.077749,394.98327 48.999939,394.99951 L 48.999939,378.57894 C 46.662899,378.54873 43.784024,377.69936 43.784024,373.64597 C 43.784024,368.08736 48.775963,369.0669 52.389757,369.07845 C 67.557365,368.97323 75.226969,359.39345 75.249969,347.75997 C 75.226969,333.23867 64.265506,327.00403 54.743615,326.97137 C 43.903951,327.00403 36.210799,335.76488 36.249924,341.58228 C 36.210799,359.29543 60.039856,355.87268 59.999951,348.2744 C 59.999951,340.6542 54.96833,340.6542 52.509707,340.6574 C 49.3948,340.6613 48.499939,339.50395 48.499939,337.21372 C 48.499939,334.50013 49.883853,333.49847 53.624944,333.50432 C 60.642082,333.61037 67.33161,338.53547 67.29996,345.55197 C 67.268005,355.54482 58.211604,362.23344 48.345979,362.24947 C 36.1363,362.23344 29.022541,354.69103 29.115176,341.19519 C 29.115176,330.4585 41.45858,320.34871 54.296275,320.31262 C 70.773319,320.34871 82.385968,331.84369 82.549978,347.49945 C 82.385968,359.14797 77.816907,366.83403 69.310962,371.99948 C 64.133746,374.89378 59.999951,377.28919 59.999951,383.57417 L 59.999951,394.98327 C 66.338099,394.98327 66.285499,404.1513 59.999951,404.1513 L 59.999951,466.49959 L 48.999939,466.49959 L 48.999939,404.20041 z"
       style="fill:#ffffff;stroke:#000000;stroke-width:1.50000179;stroke-miterlimit:4;stroke-dasharray:none;stroke-opacity:1" />
    <path
       id="kreuz"
       d="M 141.00005,309.99941 L 141.00005,390.9995 L 101,390.9995 L 101,404.99952 L 141.00005,404.99952 L 141.00005,496.734 C 146.25626,494.45003 151.26418,491.72272 156.00007,488.60899 L 156.00007,404.99952 L 201.00012,404.99952 L 201.00012,390.9995 L 156.00007,390.9995 L 156.00007,309.99941 L 141.00005,309.99941 z"
       style="opacity:1;fill:#000000;fill-opacity:1;fill-rule:nonzero;stroke:none;stroke-width:0.537;stroke-linecap:butt;stroke-linejoin:miter;marker:none;marker-start:none;marker-mid:none;marker-end:none;stroke-miterlimit:10;stroke-dasharray:none;stroke-dashoffset:0;stroke-opacity:1;visibility:visible;display:inline;overflow:visible;enable-background:accumulate" />
  </g>
</svg>
