<svg xmlns="http://www.w3.org/2000/svg" height="600" width="1000" xmlns:xlink="http://www.w3.org/1999/xlink">
<path d="m0 0h1e3v600h-1e3z" fill="#0f47af"/>
<path fill="#fff" d="m0 300h1e3v300h-1e3z"/>
<g transform="matrix(.636 0 0 .636 341.1 113.4)">
<use xlink:href="#b" stroke="#0f47af" stroke-width="14"/>
<path id="b" fill="#fff" d="m500 336.9c0 138.1-111.9 250-250 250s-250-111.9-250-250v-336.9h500v336.9"/>
<path fill="#0f47af" d="m493.1 335.7c0 134.2-108.9 243.1-243.1 243.1s-243.1-108.9-243.1-243.1v-327.5h486.1v327.5z"/>
<path fill="#fff" d="m426.2 508.7l-421.9-421.8v-83.4h84.2l399.8 399.8-25.6 60.3z"/>
<path id="a" d="m107.2 244c.43 10.42-14 17.65-27 17.65 9.98 5.64 23.79-.72 23.2 18.38-.37 10.94-11.33 15.89-17.36 14.61-6.64-1.4-14.76-2.68-14.32-32.2-5.21 5.21-13 16.71-15.19 23.2h-6.51s3.12-9.12 17.88-24.31c-3.47-2.6-6.59-1.73-12.24-1.73-5.64 0-18.23-.43-17.8-14.32.43-13.89 13-15.63 14.76-15.63 5.21 0 18.81 3.04 20.1 25.61 0 0 1.14-26.2 21.1-26 7.23.07 13 4.34 13.45 14.76" fill="#fff"/>
<g fill="#fff">
<use xlink:href="#a" x="77.5" y="75.8"/>
<use xlink:href="#a" x="232.6" y="227.4"/>
<use xlink:href="#a" x="155.1" y="151.6"/>
<use xlink:href="#a" x="135.4" y="255.2"/>
<use xlink:href="#a" x="1.74" y="119.8"/>
<use xlink:href="#a" x="68.6" y="187.5"/>
<use xlink:href="#a" x="357.6" y="4.34"/>
<use xlink:href="#a" x="157.1" y="-196.2"/>
<use xlink:href="#a" x="287.3" y="-191.8"/>
<use xlink:href="#a" x="351.6" y="-126.7"/>
<use xlink:href="#a" x="224" y="-129.3"/>
<use xlink:href="#a" x="290.8" y="-62.5"/>
</g>
</g>
</svg>