<!-- Created with Inkscape (http://www.inkscape.org/) -->
<svg xmlns:rdf="http://www.w3.org/1999/02/22-rdf-syntax-ns#" xmlns="http://www.w3.org/2000/svg" height="300" width="500" version="1.1" xmlns:cc="http://creativecommons.org/ns#" xmlns:dc="http://purl.org/dc/elements/1.1/">
 <metadata>
  <rdf:RDF>
   <cc:Work rdf:about="">
    <dc:format>image/svg+xml</dc:format>
    <dc:type rdf:resource="http://purl.org/dc/dcmitype/StillImage"/>
    <dc:title/>
   </cc:Work>
  </rdf:RDF>
 </metadata>
 <style type="text/css">.st1{fill:#2b5df2;stroke:#806600;}
	.st2{fill:#E94545;}
	.st3{fill:#800000;}
	.st5{fill:#ffffff;stroke:#554400;stroke-width:1.7313;stroke-miterlimit:282;}
	.st6{fill:#EE6C6C;}
	.st7{fill:#002dc2;}
	.st8{fill:#5858f6;}
	.st9{fill:#FFFFFF;}
	.st10{fill:#00002b;}
	.st11{fill:#2b5df2;}
	.st12{fill:#FFFFFF;stroke:#000000;}
	.st13{fill:none;}
	.st14{fill:#CD0707;}
	.st15{fill:none;stroke:#806600;}
	.st16{fill:#CD0707;stroke:#800000;stroke-width:2.5953;stroke-miterlimit:282;}
	.st17{fill:none;stroke:#800000;stroke-width:2.5953;stroke-miterlimit:282;}</style>
 <rect height="150" width="500" y="0" x="-3.5119E-7" fill="#e8382b"/>
 <path stroke-linejoin="miter" style="enable-background:accumulate;color:#000000;" d="m0.25103,149.65,0.71466,149.6,498.78-0.26-0.04-149.18" stroke-dashoffset="0" stroke="#000" stroke-linecap="butt" stroke-miterlimit="4" stroke-dasharray="none" stroke-width="0.5020625" fill="#f4f0e8"/>
 <g transform="matrix(0.4125,0,0,0.4125,154.63395,47.568798)">
  <path d="m271.52,478.83c32.1-4.14,58.7-13.32,80.6-27.84,9.5-6.27,25-19.81,31.2-27.2,14.3-17,29.5-44.09,38-67.5,8.2-22.77,15-55.18,18.2-86.5,4.6-46.15-1.2-126.94-14-191.81-4.7-24.244-6.3-30.544-11.2-44.444l-2.5-7.06-6.1-2.1c-25.6-8.4-68.6-14.9-114.7-17.1-26.8-1.3-96.4-0.7-125.04,1.1-47.45,3.002-83.242,7.602-117.13,15.102l-9.63,2.1-2.87,6.06c-3.81,8-9.17,16.2-13.73,21.1l-3.7,3.9,8.84,9.06c21.07,21.654,34.52,42.792,40.61,63.792,4.97,17.18,4.42,29.72-1.78,40.04-4.02,6.69-8.1,9.01-17.04,9.71l-7.07,0.55-2.81,8.41c-4.75,14.18-10.55,38.96-12.13,51.78-3.44,27.94-3.99,45.25-2.21,69,2.71,36.18,6.99,55.6,17.15,77.88,19.72,43.26,57.35,71.04,115.64,85.33,18.88,4.63,31.96,6.4,62.86,8.5,10.45,0.71,38.54-0.32,50.54-1.86z" stroke="#000" stroke-width="8" fill="#f4f0e8"/>
  <g stroke-linejoin="round" stroke-dashoffset="0" transform="matrix(1.0304,0,0,1.0304,9.5928,-97.737)" stroke="#000" stroke-linecap="round" stroke-miterlimit="4" stroke-dasharray="none">
   <g stroke-width="20.16637039" transform="matrix(0.19835,0,0,0.19835,-108.9,253.78)">
    <path opacity="0.98999999" style="color:#000000;enable-background:accumulate;" d="m1075.4,1120.8c69.9-39.2,211-48.5,220.3,59,48.5-117.8,216.9-146.1,338.6-33.1,28.9-18.8,45.8-8.8,62.8,2.3,53.6-56.1,127.6-40.7,205.2-12.6,22.2-36.6,51.3-33.3,85.6,0,28-51.2,215.8-129.6,234.9,26.3,89.9,117.9-12.5,254.1-183.6,229.2-46,22.9-76.1,17.7-94.7-8-52.4,58.5-104.9,79.2-157.3,19.4-41.3,42.1-78.5,45-110.7-1.1-67.3,61.8-134.5,64.8-201.8,17.1-43.4,22.2-79.7,4-114.1-25.1-119.3,102.8-189.8,56.7-252-14.8-158.07-10.5-146.01-199.3-33.2-258.6z" fill="#FC0"/>
    <path opacity="0.98999999" style="color:#000000;enable-background:accumulate;" d="m1697.1,1147.8c26.1,17.1,27.3,49,39.9,74.2" fill="none"/>
    <path opacity="0.98999999" style="color:#000000;enable-background:accumulate;" d="m1632,1146.7,29.7,71.9" fill="none"/>
    <g fill="none">
     <path opacity="0.98999999" style="color:#000000;enable-background:accumulate;" d="m1108.6,1377.1c-15.4-32.1-8.3-71.7,3.4-112.9,67.7-116.2,157-109.9,188.3-76.6,5.6,11.4,19.6-21.1,70.6,9.3,67.6-10.5,138.7-42.3,217.8,12.5,40.3-4.5,77.6,7.6,111.8,36.6,53.6-24,35.7-62,302.2-51.4,28.6-28.3,59.8-13.4,68.2-15.2,26.7-39,115.1-43.5,146.3-13.3"/>
     <path opacity="0.98999999" style="color:#000000;enable-background:accumulate;" d="m1297.3,1188.5c10.7,16.3,29.6,100.9,31.5,119.6,7,71.9,30.7,85.6,30.7,85.6"/>
     <path opacity="0.98999999" style="color:#000000;enable-background:accumulate;" d="m1367.5,1198.1c59.9,37.3,43.3,154.3,107.2,222.3"/>
     <path opacity="0.98999999" style="color:#000000;enable-background:accumulate;" d="m1591,1210.6c64.2,61.2,49.7,138.1,87.8,193.9"/>
     <path opacity="0.98999999" style="color:#000000;enable-background:accumulate;" d="m1699.3,1247.1,85.6,157.4"/>
     <path opacity="0.98999999" style="color:#000000;enable-background:accumulate;" d="m1945.7,1383.9c61.2-107.3,44.1-170.7,60.4-189.3"/>
     <path opacity="0.98999999" style="color:#000000;enable-background:accumulate;" d="m2028.9,1393c55.6-95.3,97.6-200.4,41.1-212"/>
    </g>
    <path opacity="0.98999999" style="color:#000000;enable-background:accumulate;" d="m1902.3,1138.7,22.9,51.3" fill="none"/>
    <path opacity="0.98999999" style="color:#000000;enable-background:accumulate;" d="m1987.9,1134.2,15.9,57" fill="none"/>
   </g>
   <path opacity="0.98999999" style="color:#000000;enable-background:accumulate;" d="m108.83,519.23c-8.986-3.37-17.496-7.3-12.894-26.91,8.074-21.31,29.154-16.05,46.954-9.96" stroke-width="2" fill="none"/>
   <path opacity="0.98999999" style="color:#000000;enable-background:accumulate;" d="m109.28,512.57c-10.984-1.01-11.321-8.83-9.16-18.21,1.85-5.54,15.33-18.8,32.57-10.2" stroke-width="2" fill="none"/>
   <path opacity="0.98999999" style="color:#000000;enable-background:accumulate;" d="m110.08,507.47c-6.88-1.96-5.4-7-3.39-12.22,1.03-1.96,4.74-12.65,15.94-5.53" stroke-width="2" fill="none"/>
   <path opacity="0.98999999" style="color:#000000;enable-background:accumulate;" d="m148.44,532.94c-18.43,0.51-33.09-6.11-31.46-25.47-0.12-6.92,12.85-16.42,31.78-11.88" stroke-width="2" fill="none"/>
   <path opacity="0.98999999" style="color:#000000;enable-background:accumulate;" d="m148.54,528.49c-11.01-1.54-27.1-7.91-25.91-19.22-0.31-3.27,8.71-11.14,24.9-8.03" stroke-width="2" fill="none"/>
   <path opacity="0.98999999" style="color:#000000;enable-background:accumulate;" d="m152.15,514.93c-3.12,1.25-17.79,0.51-17.97-5.2-0.32-4.14,4.14-4.6,10.29-4.74" stroke-width="2" fill="none"/>
   <path opacity="0.98999999" style="color:#000000;enable-background:accumulate;" d="m158.04,505.33c1.41,7.46,3.45,12.65,5.43,18.09" stroke-width="2" fill="none"/>
   <path opacity="0.98999999" style="color:#000000;enable-background:accumulate;" d="m161.77,503.17c2.22,8.17,3.89,16.6,10.17,22.75" stroke-width="2" fill="none"/>
   <path opacity="0.98999999" style="color:#000000;enable-background:accumulate;" d="m161.55,481.11c10.71-9.32,32.87-9.58,38.44-2.82" stroke-width="2" fill="none"/>
   <path opacity="0.98999999" style="color:#000000;enable-background:accumulate;" d="m162.8,486.09c5.95-8.19,30.45-8.53,40.82-1.93" stroke-width="2" fill="none"/>
   <path opacity="0.98999999" style="color:#000000;enable-background:accumulate;" d="m172.52,497.06c5.39-1.71,11.05-0.54,16.74,1.03,5.67,1.23,12.32,4.28,16.05,1.92" stroke-width="2" fill="none"/>
   <path opacity="0.98999999" style="color:#000000;enable-background:accumulate;" d="m174.9,505.21c4.94,0.53,7.97,1.76,17.97,1.8,4.72-0.12,10.61,1.79,16.52,3.73" stroke-width="2" fill="none"/>
   <path opacity="0.98999999" style="color:#000000;enable-background:accumulate;" d="m176.03,513.58c4.13,0.65,9.6-0.68,16.38,1.01,5.72,1.59,11.23,4.6,17.2,4.3" stroke-width="2" fill="none"/>
   <path opacity="0.98999999" style="color:#000000;enable-background:accumulate;" d="m185.53,522.29c3.47,0.14,6.31-0.1,12.66,1.8,4.99,0.74,10.17,1.69,13.13-0.22" stroke-width="2" fill="none"/>
   <path opacity="0.98999999" style="color:#000000;enable-background:accumulate;" d="m190.27,531.67c9.34,2.16,15.61,2.52,19.22,1.37" stroke-width="2" fill="none"/>
   <path opacity="0.98999999" style="color:#000000;enable-background:accumulate;" d="m225.1,507.59c3.49,2.72,5.16,11.94,8.49,18.76" stroke-width="2" fill="none"/>
   <path opacity="0.98999999" style="color:#000000;enable-background:accumulate;" d="m219.45,484.62c4.1,1.82,5.99,8.27,6.23,10.99" stroke-width="2" fill="none"/>
   <path opacity="0.98999999" style="color:#000000;enable-background:accumulate;" d="m235.63,484.96c5.52-12,19.28-3.38,31.78-2.36" stroke-width="2" fill="none"/>
   <path opacity="0.98999999" style="color:#000000;enable-background:accumulate;" d="m239.7,490.51c0.89-11.27,15.09-5.57,29.18-3.05" stroke-width="2" fill="none"/>
   <path opacity="0.98999999" style="color:#000000;enable-background:accumulate;" d="m236.98,502.73c0.86-2.34,38.62-7.32,38.13-1.59" stroke-width="2" fill="none"/>
   <path opacity="0.98999999" style="color:#000000;enable-background:accumulate;" d="m237.1,508.38c-1.23-2.89,35.51-3.11,36.2-2.26" stroke-width="2" fill="none"/>
   <path opacity="0.98999999" style="color:#000000;enable-background:accumulate;" d="m242.42,516.18c10.69-2.54,21.52-4.11,32.8-3.06" stroke-width="2" fill="none"/>
   <path opacity="0.98999999" style="color:#000000;enable-background:accumulate;" d="m245.02,522.29c3.23,0.23,6.32,0.67,11.3-1.13,3.1-3.12,10.44-1.08,15.95-1.25" stroke-width="2" fill="none"/>
   <path opacity="0.98999999" style="color:#000000;enable-background:accumulate;" d="m253.05,528.51c4.07-2.06,8.94-2.18,13.9-2.16" stroke-width="2" fill="none"/>
   <path opacity="0.98999999" style="color:#000000;enable-background:accumulate;" d="m287.42,525.56c2.46-1.61,13.65-19.04,13.93-29.75" stroke-width="2" fill="none"/>
   <path opacity="0.98999999" style="color:#000000;enable-background:accumulate;" d="m306.54,491.98c6.09-3.87,11.73-3,17.2-0.58,10.34,9.33,8.19,16.07,5.53,22.73-4.46,5.24-9.48,9.19-16.04,9.62-4.35,0.76-8.67,0.58-13.01,0.46" stroke-width="2" fill="none"/>
   <path opacity="0.98999999" style="color:#000000;enable-background:accumulate;" d="m303.95,517.31c5.53,0.93,10.75,0.69,15.39-1.69,3.73-2.52,5.85-5.55,5.65-9.28,0.97-4.92-2.16-7.78-4.64-10.97-3.53-1.57-6.7-0.67-9.96-0.24" stroke-width="2" fill="none"/>
   <path opacity="0.98999999" style="color:#000000;enable-background:accumulate;" d="m305.29,511.65c2.46,0.5,4.9,0.44,7.36,0.34,5.14,0.1,8.57-1.19,7.24-6.33-0.87-3.72-4.88-4.78-9.62-5.21" stroke-width="2" fill="none"/>
   <path opacity="0.98999999" style="color:#000000;enable-background:accumulate;" d="m308.47,505.33c1.45-0.14,3.05-0.48,3.05,1.13" stroke-width="2" fill="none"/>
   <path opacity="0.98999999" style="color:#000000;enable-background:accumulate;" d="m290.95,480.43c12-10.25,27.38-11,32.55-6.44" stroke-width="2" fill="none"/>
   <path opacity="0.98999999" style="color:#000000;enable-background:accumulate;" d="m291.97,483.61c9.81-6.75,23.18-10,31.53-5.1" stroke-width="2" fill="none"/>
   <path opacity="0.98999999" style="color:#000000;enable-background:accumulate;" d="m221.83,509.18c3.71,7.83,6.64,13.52,5.43,18.08" stroke-width="2" fill="none"/>
   <path opacity="0.98999999" style="color:#000000;enable-background:accumulate;" d="m296.03,495.71c-3.09,14.52-5.95,20.05-12.67,28.96" stroke-width="2" fill="none"/>
   <path opacity="0.98999999" style="color:#000000;enable-background:accumulate;" d="m272.39,479.18c4.1,1.83,5.77,6.23,6.01,8.95" stroke-width="2" fill="none"/>
   <path opacity="0.98999999" style="color:#000000;enable-background:accumulate;" d="m223.08,483.47c4.1,1.82,7.34,10.31,7.58,13.03" stroke-width="2" fill="none"/>
   <path opacity="0.98999999" style="color:#000000;enable-background:accumulate;" d="m278.5,478.95c4.1,1.82,2.83,7.14,3.07,9.85" stroke-width="2" fill="none"/>
  </g>
  <g stroke-linejoin="round" stroke-dashoffset="0" transform="translate(9.7826,18.249)" stroke="#000" stroke-linecap="round" stroke-miterlimit="4" stroke-dasharray="none" stroke-width="8" fill="none">
   <path opacity="0.98999999" style="color:#000000;enable-background:accumulate;" d="m104.4,67.17c-9.6,0-17.6,7.34-17.6,16.38,0,9.03,8,16.37,17.6,16.37s17.6-7.34,17.6-16.37v-0.22c-0.1-8.95-8-16.16-17.6-16.16zm0,35.35,0,264.72,0-264.72z"/>
   <path opacity="0.98999999" style="color:#000000;enable-background:accumulate;" d="M58.5,204.49,157,231.74"/>
   <path opacity="0.98999999" style="color:#000000;enable-background:accumulate;" d="m171.7,219.3-20.3,12.42-2.2,148.18"/>
   <path opacity="0.98999999" style="color:#000000;enable-background:accumulate;" d="M83.4,193.81,63.2,206.88,62.5,355.25"/>
   <path opacity="0.98999999" style="color:#000000;enable-background:accumulate;" d="m58.5,245.9,94.9,24.56"/>
   <path opacity="0.98999999" style="color:#000000;enable-background:accumulate;" d="m58.5,283.99,94.9,24.14"/>
   <path opacity="0.98999999" style="color:#000000;enable-background:accumulate;" d="m58.5,320.16,94.9,26.79"/>
   <path opacity="0.98999999" style="color:#000000;enable-background:accumulate;" d="m58.6,353.94,94.8,27.23"/>
  </g>
  <path opacity="0.98999999" style="color:#000000;enable-background:accumulate;" d="m278.39,412.82,6.13,6.78-7.58,7.09c-12.09,4.83-3.52-11.08,1.45-13.87z" fill-rule="nonzero" fill="#0039a6"/>
  <path opacity="0.98999999" style="color:#000000;enable-background:accumulate;" d="m268.39,391.21,6.45,3.55c-2.62,9.17-5.93,13.14-9.84,12.42-0.13-5.3-1.77-10.58,3.39-15.97z" fill-rule="nonzero" fill="#0039a6"/>
  <path opacity="0.98999999" style="color:#000000;enable-background:accumulate;" d="m134.19,91.371c3.48-6.774,1.06-13.549-2.25-20.323-15-6.26-24.82-5.116-29.46,3.931-1.64,3.206-5.91,0.793-8.609,3.166-8.019,8.219,3.637,37.605,11.609,13.871" fill-rule="nonzero" fill="#dc281e"/>
  <path opacity="0.98999999" style="color:#000000;enable-background:accumulate;" d="m93.226,89.435,7.254-0.887,0.1,16.532c-3.591-4.46-8.068-8.32-7.354-15.645z" fill-rule="nonzero" fill="#0039a6"/>
  <path opacity="0.98999999" style="color:#000000;enable-background:accumulate;" d="m104.84,77.5c3.1-1.91,5.98-0.02,8.87,1.613l-5.89,12.822c-3.45-4.444-3.82-9.349-2.98-14.435z" fill-rule="nonzero" fill="#0039a6"/>
  <path opacity="0.98999999" style="color:#000000;enable-background:accumulate;" d="m118.95,78.226c3.4,0.754,6.78,1.517,6.61,5l-7.41,6.371c-2.06-3.092,0.19-8.858,0.8-11.371z" fill-rule="nonzero" fill="#0039a6"/>
  <path opacity="0.98999999" style="color:#000000;enable-background:accumulate;" d="m300.97,421.53c7.9-4.19,14.19,3.39,14.19,3.39-4.09,3.71-9.16,17.84-12.26,11.13" fill-rule="nonzero" fill="#0039a6"/>
  <g transform="translate(982.61,530.43)">
   <path opacity="0.98999999" style="color:#000000;enable-background:accumulate;" d="m-639.09-361.03c-14.47-18.45-29.09-36.67-39.58-61.1-0.83-9.54,11.2-35.67,29.98-26.52l11.14,20.75c19.57,15.01,2.79,9.95-0.38,11.92l9.6,6.15c14.52,5.13,8.44,7.41-1.53,8.45-9.12,2.75-15-4.21-21.14-10.38-1.33-2.24-6.3-3.2-5.6-5.79,4.44-16.37-13.97-23.93-8.13,1.84,0.41,1.78,2.44,2.96,2.97,5.11l31.9,44.19-7.69,8.46" fill-rule="nonzero" fill="#e83629"/>
   <path opacity="0.98999999" style="color:#000000;enable-background:accumulate;" d="m-773.21-447.88c26.46-24.23,39.48-11.11,57.65-12.3,13.57,4.92,2.77,14.5,16.69,19.63,0.14,0.1-3.42,4.42-0.1,8.41,5.27,6.32,9.37,22.19,6.65,36.09-2.63,13.43,5.66,27.91,1.34,37.33-3.66,2.94-5.07,3.43-7.93-3-0.46-1.03-1.62-1.71-2.65-2.5l-9.4,18.56,56.11,102.23c28.37,31.07,30.95,4.5,28.44-12.3-23.91-7.09-35.28-18.92-39.73-39.35-0.99-4.55-6.39-9.87-11-12.15,4.5-3.92,11.48-7.64,4.27-12.53-9.37-0.26-11.11-2.51,3.03-8.9,1.99-5.54,3.06-11.09-1.03-16.63,8.38-4.78,17.54-3.99,5.2-12.9-1.71-1.24-8.16,2.66-10.69,0.74,5.21-3.27,10.76-24.82,21.1-2.06,2.04,35.51,15.61-3.86,23.47-6.13,15.25-13.39,34.5-30.16,40.62-54.5l-13.82-11.95c-2.16-3.12-4.48-5.74-10.66,4.19-6.47-2.35-9.5-7.71-7.77-17.23l-12.59-8.89c-14.68-15.07,13.74-22.04,12.76-20.86l-6.91,10.01c1.23,13.55,9.73,10.32,20.31,2.28,7.9-15.72,14.93-7.64,14.18-4.5-15.29,8.16,14.87,19.64,20.2,28.61,4.26,7.16-6.81,32.11-6.81,32.11-7.97,19.15-53.26,58-62.85,79.55-3.53,7.94-7.39,22.8-8.19,32.66,5.08,21.44,32.64,33.35,46.12,9.22,13.04-14.62-10.64-44.07-20.75-66.1l9.99-6.91,12.01,16.85c1.87-9.21,11.76-13.61,18.17-20.1,1.56-5.39,11.01,4.18,16.32,10.16-1.69,6.1-17.83-11.46-11.91,11.35,1.07,4.1-0.74,9.94,0.38,18.16,16.65,11.2,14.37,14.82-4.84,11.68,9.22,7.67,7.25,12.86-1.95,16.44,0.1,12.3-8.85,20.1-16.65,28.46-9.24,6.52-5.73,22.6-7.69,34.58-21.76,27.25-31.66,8.85-48.42,3.08-2.12,29.03,29.87,33.15,28.44,44.58,9.83-10.33,17.28,1.24,14.31,0.93-17.21-1.82,0.1,15.92-4.52,14.31-13.69-4.8,5.48,20.53-1.8,12.17-6.2-7.12-12.68-9.17-11.72,6.76,0.21,3.49-7.48,3.88-9.79,8.23-7.25,13.64-11.77,25.63-18.76,34.46-6.94-4.84-10.94-2.04-18.2-3.37-4.91-0.9-13.07-4.58-17.93-10.47l-5.38-23.83c4.84-1.8,10-1.34,15.86,4.01,16.71,6.5,17.69-25.88,17.96-40.9l-18.74-8.57c-4.1,13.58-5.21,15.39-7.4,15.5-5.6,0.26-15.67,1.53-0.96-11.15,1.86-1.61,0.1-5.2,0.2-8.08l-15.37-49.19c-14.42-2.75-19.77,6.79-16.77,27.61,5.19,22.49-10.43,32.1-26.27,41.57-0.56-9.69-8.03-7.47-16.45-3.59l-5.26-3.08c2.76-6.4,2.77-10.33-8.83-3.81-2.89-4.1-4.1-14.24-10.29-6.43-3-3.08-4.97-14.82-9.95-1.4,0.98-12.24-7.18-12.92-19.93-7.82-5.81-1.69-12.05-21.24-9.88-17.84,0,0,6.37,2.42,9.88-1.38-8.19-4.01-13.12-2.41-15.84-5.34-6.82-7.35-2.27-22.12,6.89-15.09,1.83,1.4,0.54-1.21,5.11,9.67l9.63,2.47c-6.47-8.16-6.2-14.31,10.47-15.61,4.25,19.82,29.4,18.39,46.38,20.06-2.92-5.97-3.55-19.35-6.37-25.41-2.22-4.79-5.81,3.12-12.98-3.27-7.94-0.69-14.04-3.74-14.85-13.6,3.62-2.63,16.32,4.33,12.8,2.35-1.54-0.87,0.8-0.94,14.8-20.94,4.2-6,12.61-4.12,20.43-6.77,11.59,8.83,22.95,18.94,36.51,16.91-5.76-26.04-29.27-32.85-46.11-46.88-11.48,5-26.93,9.41-36.49,7.99-0.76-0.11-14.56-3.39-14.56-3.39-12.09,5.16-18.05-6.68-18.05-6.35-0.43,0.71-11.94,1.1-12.97-9.95-0.87-9.33-18.69-0.67-19.39,0.17-13.04,5.51-9.05-3.98-13.45-8.46-4.59-6.01,4.4-7.18,9.61-5.38-2.89-1.66-5.2-6.86-9.34-6.26-5.98,0.86-12.4,1.21-10.65-5.27-2.51-14.16,9.26-10.46,18.45-9.99,2.82-14.01,6.7-23.07,13.84-16.91-5.38,21.94,11.31,28.77,40.73,32.29l-51.49-54.58,20.99-25.39,29.73,37.69c1.16-14.31,11.39-13.48,20.17-8.69,3.67,2,10.2-0.44,15.21,3.05,8.56,0.85,15.23,0.43,17.66-2.81-0.76-2.42-4.89-2.14-8.46-2.31,1.32-3.84,3.55-7.69,6.92-11.53l0.77-13.83z" fill-rule="nonzero" fill="#e83629"/>
   <path fill="#000" d="m-637.97-155.69c-2.42,0-4.41,1.42-4.41,3.16,0,1.75-2.68,5.52-5.96,8.37-3.31,2.87-6.07,6.54-6.07,8.19-0.1,1.66-2.19,7.36-4.71,12.63-2.55,5.27-4.72,10.78-4.72,12.22,0,1.9-2.37,1.9-8.44,0-6.37-1.99-8.06-3.64-7.03-6.85,1.44-4.56,0.86-4.93-4.53-2.87-2.06,0.82-3.02,3.25-2.28,6,1.62,6.3-3.02,5.85-7.6-0.69-4.98-7.09-4.74-8.79,1.63-11.5,4.99-2.11,4.87-2.22-1.53-1.69-4,0.31-8.09,2.56-9.6,5.25-1.43,2.56-3.96,6.14-5.62,7.94-3.76,4.22-6.01,12.07-2.04,15.35,2.34,1.936,6.46-1.84,9.57-5.48,3.33-3.91,4.89-4.34,7.62-2.06,1.89,1.68,5.09,2.21,7.1,1.44,2.85-1.1,3.33-0.14,2.21,4.25-1.04,4.217,0,6.694,4.19,9.624h-0.1c5.39,3.79,5.6,3.715,6.34-2.125,0.5-4.05,2.64-6.509,6.47-7.469,3.91-0.98,6.61-4.23,8.53-10.22,1.56-4.82,3.65-9.81,4.69-11.12,1.03-1.32,2.87-6.16,4.06-10.78,1.61-6.2,3.48-8.41,7.19-8.41,6.18,0,8.61-2.26,9.06-8.41,0.24-3.14-1.13-4.75-4.03-4.75zm-66.06,40.69c0.95,0,2,0.66,2.91,2.12,0.72,1.15-0.28,3.47-2.26,5.1-3.81,8.811-10.08,3.49-4.69-3.42,1.97-2.52,2.45-3.8,4.04-3.8zm29.59,7.09c0.95-0.11,1.86,0.14,2.56,0.85,0.74,0.74-1.22,4.07-4,7.04l-1.65,6.566-3.71-5.96c-2-3.216,3.95-8.156,6.8-8.496z"/>
   <path fill="#000" d="m-870.28-466.19c-5.89,0.18-8.01,1.43-8.56,5.03-0.62,4.17-0.32,4.33,2.37,1.19,3.69-4.32,13.88-3.43,13.88,1.22,0,4.57-4.45,6.84-7.91,4.06-4.94-3.97-18.4-0.39-22.59,6-3.13,4.73-3.25,6.27-0.75,7.81,1.76,1.07,2.44,3.03,1.62,4.35-0.81,1.32,0,3.6,1.78,5.09,1.81,1.5,3.87,5.66,4.6,9.25,0.76,3.81,4.25,8.27,8.34,10.69,8.99,5.28,9.23,15.83,0.5,23.09-4.28,3.56-4.92,5.03-2.25,5.03,2.04,0.13,4.9-1.1,6.37-2.56,1.5-1.47,3.86-1.95,5.32-1.06,3.73,2.31,0.75,6.19-3.5,4.56-2.2-0.84-3.53,0.1-3.53,2.5,0,4.78,2.51,4.87,8.53,0.32,6.55-4.96,8.7-4.51,7.97,1.71-0.38,2.97,0.67,9.31,2.28,14.03,2.36,6.96,4.71,9.16,12.12,11.38,5.06,1.52,13.04,2.75,17.75,2.75,8.64,0,13.38,3.19,8.88,5.97-3.68,2.27-2.91,6.33,1.03,5.53,1.91-0.39,4.98,1.37,6.84,3.87,2.42,3.28,6.04,4.5,12.63,4.26,5.06-0.19,10.07,0.97,11.12,2.59,2.49,3.85,7.2-2.78,5.41-7.59-0.93-2.57-0.48-2.69,1.97-0.66,2.4,1.99,4.5,1.77,8.28-0.88,4.64-3.26,5.4-3.1,8.87,1.85,3.55,5.06,3.49,5.57-1.03,7.59-2.66,1.19-4.84,3.07-4.84,4.19,0,1.11-1.22,2.03-2.72,2.03s-4.18,1.88-5.94,4.19c-2.76,3.6-3.56,3.69-5.53,0.69-1.98-3.02-2.89-2.92-6.81,0.62-5.56,5.04-12.06,5.75-8.06,0.88,3.76-4.57,0.47-6.87-3.75-2.66-1.92,1.92-5.14,3.47-7.19,3.47-3.05,0-3.18-0.63-0.69-3.63,1.67-2.01,2.26-4.42,1.38-5.34-0.93-0.92-2.44-0.5-3.35,0.9-0.92,1.44-4.4,3.98-7.65,5.69-5.91,3.06-5.93,3.03-1.63-1.81,2.43-2.75,3.34-5.52,2.06-6.31-1.25-0.77-3.63,0.19-5.25,2.15-3.83,4.61-7.15,4.55-7.15-0.12,0-2.83-1.03-3.13-4.44-1.31-4.81,2.58-9.94-0.66-9.94-6.29,0-1.68-1.04-3.09-2.4-3.09-1.31,0-2.41,1.16-2.41,2.56,0,1.47-2.03,1.93-4.78,1.03-2.63-0.81-4.78-0.5-4.78,0.76,0,1.24,3.19,2.89,7.19,3.68,4.37,0.88,7.18,2.93,7.18,5.25,0,2.73,1.35,3.36,4.78,2.28,3.4-1.08,4.82-0.41,4.82,2.25,0,2.07,1.06,3.75,2.37,3.75,1.32,0,2.41-1.08,2.41-2.4,0-4.59,4.23-2.35,5.62,2.97,1.36,5.19,1.5,5.19,4.72,0.78,3.27-4.51,3.39-4.51,6.03,0,2.34,3.97,3.04,4.11,5.19,1,2.18-3.15,2.75-3.13,4.88,0.44,2.11,3.56,3.1,3.65,8.84,0.68,3.55-1.85,8.7-2.78,11.44-2.09,3.23,0.8,6.61-0.55,9.46-3.69,2.5-2.71,5.75-4.9,7.32-4.9,5.59,0,39.32,26.82,44.28,35.15,2.75,4.67,4.6,8.94,4.09,9.44-1.72,1.7-21.86-6.41-26.75-10.85-7.63-6.81-10.3-7.79-14.94-5.28-2.36,1.28-7.26,2.94-10.87,3.69-4.3,0.91-7.03,3.4-7.97,7.16-0.86,3.4-3.82,6.31-7.25,7.19-3.27,0.81-5.84,3.24-5.84,5.59-0.1,3.95-0.25,3.95-3.25,0-3.96-5.22-9.49-5.37-13.63-0.38-2.71,3.26-2.51,3.7,1.35,3,3.16-0.57,4.96,0.96,5.96,5.13,1.66,6.78,10.15,12,19.79,12,7.37,0,10.68,7.45,8.03,18-1.71,6.85-4.65,7.19-21.78,2.78-10.56-2.73-12.09-3.91-12.78-10.06-0.5-3.84-2.17-5.28-4.69-7.03-3.64-2.57-24.18,2.67-24.72,2.81-4.2-0.79-8.35-1.35-11.85,1.72-3.27,14.35,0.58,10.43,2.44,15.47l14.38,5.81c0.98,0.56-9.44-1.21-9.82,0.25l6.6,16.56c3.06,7.11,7.87-0.43,20.22-0.78,1.21,0,2.18,2.17,2.18,4.81,0,2.63,1.09,4.78,2.41,4.78,1.31,0,2.38-1.08,2.38-2.4,0-1.31,1.08-2.38,2.4-2.38s2.41,2.15,2.41,4.78c0,5.37,3.53,6.37,6.34,1.82,1.26-2.04,2.24-1.25,3.13,2.53,1.5,6.33,5.17,8,6.81,3.09,0.61-1.82,0-2.65-1.34-1.81s-2.29-0.36-2.1-2.66c0.23-2.95-1.22-4-4.97-3.62-3.44,0.36-4.88-0.51-4.12-2.5,2.42-6.3-23.89-11.69-29.53-6.07-2.12,2.13-3.4,1.2-5.35-3.9-1.4-3.71-3.24-7.82-4.06-9.16-0.92-1.49,0.49-1.93,3.66-1.09,6.34,1.65,9.58-2.46,3.53-4.47-15.33-5.17-17.71-6.97-17.03-12.88,1-8.68,7.83-8.86,11.37-0.31,3.01,7.26,8.32,10.98,12.32,8.53,3.37-2.08,2.62-7.31-1.76-10.9-3.5-2.93-3.75-2.66-2.06,2.68,1.69,5.35,1.47,5.59-2.06,2.66-5.93-4.91-4.74-8.88,2.66-9.12,3.62-0.1,8.34-0.88,10.46-1.78,3.05-1.32,4.26,0.18,5.47,6.65,1.78,9.49,3.9,10.65,22.6,12.5,7.47,0.74,16.15,1.91,19.28,2.53,4.33,0.89,5.34,0.31,4.31-2.37-0.76-1.96-0.1-4.11,1.5-4.75,1.57-0.63,0.96-1.35-1.34-1.35-3.24-0.14-4.19-2.28-4.19-9.47,0-10.53-4.61-15.83-11.84-13.53-3.61,1.15-4.54,0.69-3.6-1.78,0.98-2.54-0.47-3.09-6-2.28-6.33,0.94-7.31,0.32-7.31-4.47,0-5.23,0.17-5.26,3.22-1.09,3.56,4.87,9.32,3.1,7.28-2.22-0.72-1.87,0.94-4.5,3.81-6.03,2.8-1.51,6.12-5.44,7.38-8.72,1.25-3.31,3.16-5.45,4.25-4.78,1.08,0.67,4.97-0.33,8.65-2.25,8.56-4.44,12-4.36,15.88,0.31,4.58,5.53,20.29,13,27.31,13,5.32,0,6.1,0.98,5.84,7.78-0.37,14.09-3.15,19.81-9.12,19.16-11.83-1.34-13.41,2.03-13.41,28.53,0,23.07-0.34,24.74-5.37,27.28-2.97,1.51-7.37,5.06-9.84,7.91-5.79,6.63-8.32,6.53-6.16-0.25,1.39-4.39,1.1-4.88-1.63-2.72-4.28,3.42-16.82,5.76-15,2.81,0.76-1.22,3.67-3.16,6.5-4.31,3.68-1.49,4.05-2.01,1.25-2.25-2.16-0.1-6.74,1.32-10.18,3.09l-6.25,3.25,5.12,4.56c3.69,3.29,5.44,3.7,6.19,1.54,1.46-4.17,9.42-3.77,11.09,0.59,1.75,4.6,8.72,4.78,8.72,0.25,0-1.87,3.58-5.61,7.97-8.31,11.05-6.85,13.08-12.84,11.97-35.53-0.93-19.43-0.85-19.71,5.12-21.22,8.65-2.18,13.29,0.3,13.29,7.15,0,3.26,1.06,6.6,2.4,7.44,1.34,0.82,2.24,4.37,2,7.91-0.24,3.52,1.91,11.04,4.81,16.65,4.12,7.98,4.71,11.28,2.72,14.97-2.85,5.34-5.04,5.9-8.69,2.28-2.73-2.73-10.46-0.67-10.46,2.75,0,1.18,1.69,2.13,3.75,2.13,2.01,0,3.07-1.09,2.25-2.41-0.81-1.32-0.33-2.4,1.06-2.4s2.53,2.11,2.53,4.65c0,5.2,6.79,8.28,12.97,5.91,2.22-0.87,4.67-4.69,5.44-8.47,1.53-7.67,2.69-8.09,11.43-4.09,7.09,3.24,7.87,10.76,3.22,30.84-3.16,13.7-7.07,16.9-13.59,11-4.88-4.43-8.16-4.82-14.1-1.66-2.24,1.22-6.07,2.82-8.37,3.53-3.14,0.97-4.19,3.84-4.19,11.41l0.1,0.16c0,7.88,0.61,9.48,2.84,7.25,1.58-1.58,4.82-2.88,7.19-2.88,4.43,0,5.2-1.95,4.43-11.15-0.62-7.83,4.71-9.54,9.57-3.07,3.69,4.86,5.03,5.26,10.19,2.91,6.5-2.97,11.03-16.85,11.96-36.59,0.48-10.14,0-11.02-7.87-14.85-4.62-2.26-9.68-5.23-11.28-6.62-1.58-1.39-3.8-2.5-4.88-2.5-1.1,0-3.81-3.13-6.06-6.94-4.48-7.57-5.6-21.81-1.75-21.81,1.32,0,2.41,1.08,2.41,2.4s1.09,2.38,2.4,2.38c1.32,0,2.38-1.69,2.38-3.75,0-2.69-1.82-3.55-6.35-3-3.88,0.46-6.83-0.55-7.5-2.56-0.86-2.52,0.4-2.95,5.16-1.75,3.72,0.93,6.31,0.58,6.31-0.85,0-1.34-1.53-2.47-3.4-2.47-4.61,0-5.94-4.77-3.38-11.72,3.33-9,0.26-8.96-3.91,0l-3.74,8.1,1.09-8.38c0.63-4.63,1.73-11.12,2.5-14.4,1.94-8.5-12.28-34.98-20.66-38.47-3.5-1.45-8.91-5.34-12-8.66-3.1-3.31-8.78-7.65-12.62-9.65l-6.97-3.63,6.37-3.91c3.51-2.12,6.41-5.79,6.41-8.15,0-3.46,1.26-3.98,6.69-2.69,3.61,0.89,6.93,2.55,7.37,3.66,0.45,1.12,1.91,2.03,3.25,2.03,1.56,0,1.86-3.27,0.81-8.85-1.5-8-1.28-8.54,2.32-5.56,2.23,1.85,3.42,5.27,2.75,7.85-1.15,4.38-0.94,4.4,3.43,0.4,2.54-2.31,4.6-5.63,4.6-7.4,0-4.57,3.21-4,7,1.25,4.5,6.27,18.04,30.54,24.25,43.43,7.25,15.14,13.77,27.7,22.97,44.35,15.19,27.48,23.43,33.46,34.47,25.12,4.62-3.5,5.87-6.57,5.87-15.72v-11.37l-11.25-3.81c-16.03-5.41-24.4-14.5-29.12-31.47-2.19-7.85-5.05-14.28-6.35-14.28-1.31,0-2.4-1.06-2.4-2.38s1.69-2.41,3.75-2.41c5.86,0,2.99-8.27-3.19-9.15-6.87-0.97-6.85-3.45,0-6.47,4.32-1.9,5.36-4.17,5.12-11.47-0.22-6.69,0.56-8.76,2.91-7.91,4.26,1.64,6.43-2.24,4.56-8.15-1.56-4.9-11.25-6.74-13.59-2.95-0.75,1.17,4.62,2.31,6.75,2.1,6.5-0.55,6.29,4.99-0.25,6.63-5.82,1.47-8.65,6.22-3.69,6.22,1.32,0,2.41,2.7,2.41,6,0,3.36-1.41,6-3.19,6-3.76,0-13.84,10.93-11.84,12.91,0.74,0.68,3.87,0.68,7-0.1,6.34-1.6,7.44,1.82,2.03,6.31-4.68,3.89-4.68,9.87,0,8.03,3.81-1.43,4.34-0.46,8.37,15.22,3.57,13.96,12.68,23.84,26.5,28.75,9.44,3.36,12.02,5.49,13.22,10.91,1.85,8.43-4.27,18.53-11.22,18.53-6.49,0-16.89-11.31-23.65-25.69-2.94-6.27-7.27-14.14-9.57-17.43-2.27-3.3-6.05-11.78-8.37-18.85-2.33-7.08-6.24-14.88-8.69-17.34-2.46-2.45-7.72-11.68-11.75-20.53-7.04-15.56-7.13-16.41-3.62-25.25,4.5-11.21,4.46-11.47,0.22-11.47-1.89,0-3.79-2.42-4.19-5.38-0.44-3.07-1.48-4.3-2.44-2.84-0.91,1.41-0.23,5.4,1.56,8.84,4,7.74,2.36,9.77-4.37,5.35-7.26-4.75-13.45-1-8.56,5.22,3,3.94,2.8,3.92-1.97-0.19-2.99-2.51-5.35-3.49-5.35-2.09,0,1.35,1.61,3.82,3.6,5.46,2,1.64,3.59,5.17,3.59,7.85,0,4.72-0.16,4.74-4.81,0.53-2.64-2.38-4.85-6.03-4.85-8.13-0.1-3.16-0.52-3.07-2.65,0.53-1.29,2.44-1.98,6.55-1.28,9.16,0.76,2.91,0.18,4.38-1.5,3.81-1.5-0.5-3.5-3.53-4.38-6.71-1.46-5.26-1.63-5.33-1.87-0.79-0.19,4.12-1.38,4.84-6.41,3.88-3.41-0.65-7.12-3.46-8.25-6.25-1.91-4.73-2.05-4.64-2.19,1.25-0.1,3.54,1.44,6.95,3.44,7.72,1.98,0.75,3.59,2.5,3.59,3.87s-3.24-0.37-7.21-3.94c-5.05-4.5-6.85-7.92-5.97-11.4,1.19-4.8,1.17-4.81-0.97-0.16-1.21,2.63-2.8,6.66-3.53,8.97-2.26,7.18-6.67,4.63-6.22-3.59,0.62-11.29,0.15-13-2.44-8.97-1.27,1.98-1.75,5.28-1.13,7.37,0.65,2.08-1.18,5.85-4.06,8.38s-4.41,3.24-3.44,1.56c2.63-4.49,3.95-17.68,1.63-16.25-1.09,0.68-2.63,4.41-3.37,8.35-1.63,8.06-8.46,12.91-13.72,9.68-2.94-1.82-2.86-2.58,0.59-5.22,4.66-3.58,9.11-18.03,4.66-15.28-1.5,0.93-2.72,3.79-2.72,6.35,0,2.55-1.57,4.65-3.57,4.65-2.87,0-2.68-1.45,1.19-7.81,5.37-8.81,6.1-12.5,1.97-9.94-1.85,1.14-2.37,0.45-1.37-2.06,1.27-3.36,0.71-3.34-5.53,0.22-3.88,2.19-7.07,5.79-7.07,7.97,0,3.18-2.13,3.82-11.4,3.18-6.26-0.43-14.38-1.91-18-3.31-7.04-2.7-12.38-12.82-10.5-19.97,0.62-2.37-0.22-5.68-1.88-7.34s-3.78-7-4.65-11.88c-1.39-7.37-0.79-9.56,3.5-13.09,2.85-2.34,7.13-7.42,9.53-11.28l4.4-7.03,4.31,8.22c2.38,4.52,8.88,12.74,14.44,18.28,10.01,9.98,10.09,10.14,6.6,17.97-1.87,4.34-5.18,10.05-7.25,12.69-3.76,4.72-3.82,4.75-7.22,0.15-2.45-3.3-6.34-6.22-6.34-3.77,0,1.9,6.66,9.03,11.27,12.71,7.64,6.1,8.38,6.28,8.38,2,0-2.58,1.35-5.16,3-5.75s2.33-1.82,1.5-2.72-3.28,0.11-5.41,2.25c-3.12,3.12-3.87,3.2-3.87,0.47,0-1.86,2.15-5.33,4.78-7.72,2.64-2.38,4.81-6.36,4.81-8.84,0-2.47,1.64-5.14,3.66-5.91,2.33-0.89,3.13-3.07,2.22-5.91-1.61-5.1,1.31-5.93,5.62-1.62,1.6,1.6,2.88,1.8,2.88,0.47,0-4.16-5.25-7.82-9.16-6.35-2.43,0.94-3.1,0.44-1.97-1.4,2.54-4.11,10.31-3.42,12.03,1.06,1.16,3.03,2.2,3.27,4.85,1.06,2.64-2.19,5.56-1.72,13.18,2.19,10.38,5.27,17.28,4.1,20.16-3.41,1.07-2.79,3.78-3.26,11.75-2.22,8.24,1.13,11.1,0.56,13.88-2.87,2.85-3.42,2.85-3.9,0.21-2.31-3.57,2.15-31.5,2.02-33.68-0.16-0.72-0.71,0.79-2.85,3.34-4.72,4.11-3.01,4.16-3.4,0.53-3.4-2.26,0-5.19,2.76-6.43,6.15-3.26,8.42-3.02,8.96,2.46,7.53,5.69-1.49,6.47,2.59,0.91,4.72-2.13,0.82-7.03-0.38-10.91-2.68-4.26-2.51-9.35-3.63-12.78-2.76-3.13,0.78-6.37,0.36-7.18-0.96-2.26-3.61-8.66-2.91-13.5,1.46-5.88,5.28-10.27,3.03-17.91-9.15-3.56-5.67-8.55-13.38-11.13-17.13-3.26-4.73-4.26-9.01-3.28-13.9,1.69-8.46-4.15-18.82-10.62-18.82-2.4,0-4.94-0.87-5.63-2-0.69-1.12-4.78-1.93-9.09-1.81zm12.53,6.16c3.86,0,9.27,7.27,9.37,12.56,0.16,8.74-3.68,5.12-11.43-10.78-0.48-0.99,0.45-1.81,2.06-1.81zm-17.06,7.22c1.24,0,2.74,0.8,3.31,1.78,1.6,2.77-1.89,10.68-3.84,8.72-2.52-2.51-2.11-10.5,0.53-10.5zm-9.25,0.15c1.44,0,2.22,1.57,2.22,4.63,0,3.19-1.6,4.81-4.78,4.81-5.43,0-6.16-2.49-1.94-6.72,1.85-1.84,3.38-2.74,4.5-2.72zm23.18,2.25c1.88,0,2.96,1.28,2.44,2.85-1.45,4.34-5.84,4.96-5.84,0.81,0-2.01,1.54-3.66,3.4-3.66zm-24.09,9.63c1.46,0,2.53,2.08,2.53,5.94,0,6.98-0.27,7.14-4.12,2.5-1.6-1.92-2.2-4.63-1.35-6,1.03-1.66,2.06-2.43,2.94-2.44zm17.31,2.34c9.7,0,13.55,6.21,9.28,14.97-1.24,2.59-4.75,4.19-9.09,4.19-5.53,0-7.39-1.28-8.56-5.97-2.27-9.02,0.37-13.19,8.37-13.19zm62.1,76.75c1.25,0,1.91,1.66,1.15,4.57-0.67,2.55-2.62,5.15-4.34,5.81-3.3,1.27-3.5-2.48-0.37-7.47,1.24-2.03,2.58-2.93,3.56-2.91zm86.81,2.57c0.36-0.13,1.68,0.64,4.03,1.87,2.97,1.56,5.41,3.89,5.41,5.16,0,3.41-1.17,2.87-6.25-2.85-2.55-2.87-3.66-4.13-3.19-4.18zm-157.34,5.09c-1.38,0-2.97,0.26-4.88,0.81-5.49,3.91-6.82,0-8.58-3.19l-3.43-0.22c3.75,3.25,7.05,11.17,11.57,6.25l6.35,0.88-5.75,6.19c-3.16,3.41-5.72,7.38-5.72,8.84,0,1.45,1.02,1.07,2.25-0.87,1.23-1.9,2.98-2.8,3.87-1.91,2.44,2.44-0.96,9.56-3.75,7.84-1.33-0.82-2.4,0.2-2.4,2.25,0,4.37,3.94,5.04,5.31,0.91,0.53-1.58,2.73-2.15,5-1.28l19.72-4.88c3.85,0.74,11.13,0.49,10.51-1.21-1-3.01-16.57-2.54-20.07,0.81-3.93,3.79-8.5,2.39-8.5-2.6,0-2.64-1.16-4.78-2.53-4.78-1.39,0-1.87-1.12-1.04-2.43,0.83-1.38,2.29-1.98,3.25-1.38,0.96,0.59,3.3,0.13,5.22-1.06,2.99-1.84,2.94-2.72-0.5-6.16-1.87-1.87-3.61-2.77-5.9-2.81zm180.68,158.78,0.25,8.87c0.24,9.47-5.56,15.32-11.5,11.66-2.23-1.39-1.72-2.25,1.82-3.16,2.95-0.74,5.76-4.45,7.15-9.31zm-16.93,57.53c0.64-0.1,3.03,1.9,3.55,2.74,0.98,1.58-3.54,6.59-4.52,10.01-3.23,3.23-3.19-1.56-3.19-4.5,0-4.44,2.21-8.1,4.16-8.25z"/>
   <path fill="#000" d="m-663.68-128.58c0-2.85,1.65-8.79,3.85-13.18,7.43-14.81,7.98-16.29,7.98-21.13,0-2.64,1.13-4.82,2.49-4.82,1.68,0,1.66-1.53,0-4.79-1.75-3.26-1.77-4.79,0-4.79,3.52,0,3.09-6.56-0.5-7.86-1.65-0.6-2.25-1.87-1.37-2.82,0.91-0.99,2.93-0.99,4.51,0,3.57,2.2,1.48,25.54-3.19,35.89-11.23,24.72-13.44,28.53-13.58,23.5z"/>
   <path fill="#000" d="m-627.89-154.16c0-2.52-2.9-5.2-7.19-6.71-9.29-3.24-9.1-5.78,0.6-8.12l7.79-1.9-6.59-0.96c-3.62-0.52-6.59-2.06-6.59-3.4s1.34-1.94,2.99-1.36c1.66,0.6,4.89,0,7.22-1.11,2.32-1.19,4-1.31,3.69-0.26-0.29,1.03,0.86,4.43,2.56,7.5,2.87,5.2,2.73,5.51-1.87,4.05-6.04-1.92-6.4,0.41-0.98,6.37,3.07,3.4,3.35,5.1,1.2,7.26-2.18,2.18-2.83,1.85-2.83-1.36z"/>
   <path fill="#000" d="m-622.5-182.67c0.36-1.78-1.37-2.71-4.19-2.3-3.86,0.57-10.55,3.78-7.72,1.89,2.32-3.09,10.98-6.11,13.04-3.31,3.66,3.04,4.02,6.76,0.67,6.76-1.32,0-2.14-1.34-1.8-3z"/>
   <path fill="#000" d="m-620.78-478c-1.65,0.13-4.22,0.88-7.66,2.31-7.6,3.17-14.81,10.57-12.11,13.28,1.16,2.01,1.27,6.49,2.48,7.37,2,1.45,1.64,0.69,0.97-7.09-0.12-1.46,1.04-2.99,0.79-4.87,0.86-2.73,3.36-4.88,5.59-4.78,2.49,0.12,2.88,0.66,1.03,1.4-1.65,0.67-3,3.83-3,7.04,0,12.36,22.63,12.78,24.38,0.46,0.53-3.72,2.68-5.76,6.56-6.31,5.39-0.76,5.5-0.55,1.78,3.16-5.7,5.71-1.29,12.48,11.72,18.06,11.59,4.97,15.62,13.04,11.16,22.28-1.38,2.86-3.09,7.93-3.79,11.25-1.65,7.71-16.15,27.17-38.12,51.19-9.51,10.39-20.72,24.28-24.91,30.84-15.57,24.27-14.67,49.67,2.03,58.32,20.89,10.78,45.6-6.42,41.41-28.82-1.92-10.18-10.15-26.63-19.47-38.84-4.29-5.63-5.52-9.05-3.84-10.72,2.71-2.73,14.84,10.51,20.69,22.59,3.04,6.28,3.65,6.55,5.78,2.76,1.87-3.34,1.01-5.51-3.91-10.04l-6.31-5.78,7.19,1.41c6.42,1.26,6.76,1.07,3-1.88-5.42-4.26-5.32-6.37,0.31-6.37,2.49,0,5.09-2.14,5.78-4.78,1.99-7.61,8.94-8.83,14.09-2.47,2.47,3.04,3.87,6.14,3.1,6.91-0.76,0.75-2.31-0.1-3.41-1.88-1.15-1.86-3.74-2.6-5.97-1.75-3.33,1.28-3.73,3.78-2.34,15.91,1.12,10.1,0.75,15.46-1.34,18-1.9,2.26-2.08,3.59-0.47,3.59,1.39,0,3.18-1.04,3.97-2.31,1.2-1.96,10.84,5.21,10.84,8.06,0,0.5-3.38,0.78-7.53,0.59-2.01-0.1-3.91,0.15-5.44,0.6l6.66,1.25c7.88,1.48,8.96,1.02,11.12-4.63,3.19-8.41,3-9.44-1.09-6.03-5.99,4.96-12.46-3.93-14.38-19.69-1.77-14.73-1.43-15.36,5.85-10.81,3.91,2.44,5.44,2.21,8.87-1.22,3.69-3.69,3.71-4.15,0.28-4.15-2.1,0-4.46-1.62-5.22-3.63-0.77-2.01-3.87-4.62-6.87-5.78-4.6-1.79-6.96-0.48-15.41,8.47-5.51,5.8-10.55,10.53-11.22,10.53s-3.38-2.99-6-6.66l-4.75-6.68,8.41-9.5c16.79-19.02,26.64-33.74,31.62-47.32,8.8-23.97,7.07-29.04-13.84-40.53-8.48-4.67-9.72-9.09-2.53-9.09,4.12,0,4.49-0.75,2.31-4.81-4.63-8.64-15.61-4.33-19.94,7.78-0.94,2.76-4,4.22-8.81,4.22-10.45,0-12.04-6.28-3.34-13.22,6.04-4.84,6.88-7.49,3.25-7.19zm35.03,168.69-2.06-0.41,0.81,0.84c0.37-0.16,0.8-0.3,1.25-0.43zm-1.25,0.43c-0.99,0.45-1.68,1.01-1.91,1.63-0.58,1.65,0.67,3,2.75,3,2.09,0,3.78,1.06,3.78,2.37,0,1.32-1.49,2.41-3.31,2.41-3.67,0-6.25,5.02-6.25,12.16,0,5.46-15.94,23.78-20.68,23.78-3.72,0-3.83,0.7-3.35,19.25,0.29,11.11-0.6,14.32-5.65,19.78-9.32,10.07-23.24,8.56-37.04-3.97l-5.59-5.12,0.59,10.4c3.67,22.45,4.81,21.95,14.32,26.81,5.12,2.61,10.45,6.89,11.87,9.5,1.41,2.64,2.98,4.79,3.53,4.79,1.99,0-1.2-10.78-3.4-11.5-1.27-0.43-5.85-3.17-10.19-6.1-5.87-3.92-8.11-7.37-8.69-13.34-0.69-7-0.21-7.78,3.6-6.09,2.39,1.07,8.75,2.38,14.12,2.93,7.95,0.81,11.16-0.21,17.38-5.43,7.01-5.9,7.59-7.55,7.59-20.85,0-14.08,0.29-14.72,10.5-23.72,7.28-6.4,11.52-12.58,13.72-20.06,2.57-8.63,4.07-10.55,7.47-9.47,5.8,1.84,5.35-2.64-0.88-8.87zm-42.34-39.03,4.46,5.5c2.48,3.02,8.19,11.81,12.72,19.53,13.48,23.02,10.66,40.52-7.62,47.47-8,3.04-10.35,2.86-19.19-1.5-18.18-8.99-16.85-36.26,3.09-62.37z"/>
   <path fill="#000" d="m-783.62-186.87c0-1.32,1.62-2.39,3.59-2.39,1.98,0,3.6,1.07,3.6,2.39s-1.62,2.4-3.6,2.4c-1.97,0-3.59-1.08-3.59-2.4z"/>
   <path fill="#000" d="m-755.67-193.26c-3.22-3.22-1.39-4.39,7.1-4.58,7.81-0.24,8.24,0.24,4.34,2.99-4.78,3.5-8.96,4.08-11.44,1.59z"/>
   <path fill="#000" d="m-784.82-200.33-14.37-5.75,10.77,1.53c5.92,0.84,14.53,3.55,19.13,6.01,11.97,6.43,2.26,5.3-15.53-1.79z"/>
   <path fill="#000" d="m-742-245.16c0.81-2.42,1.51-4.84,1.51-5.39s4.86-1.01,10.78-1.01c5.91,0,10.78,1.01,10.78,2.26,0,1.24-3.91,1.6-8.75,0.81-6.85-1.1-9.51-0.43-12.29,3.14-3.3,4.24-3.45,4.24-2.03,0.24z"/>
   <path fill="#000" d="m-637.09-456.47c-0.26,0.1-0.38,0.23-0.38,0.59,0,1.45,2.99,5.17,6.63,8.26,3.86,3.25,6.28,7.41,5.78,9.93-1.11,5.74,11.15,17.48,13.06,12.5,0.72-1.9,0.62-4.56-0.25-5.93-0.86-1.38,0.1-2.54,2.03-2.54,1.99,0,5.53,3.24,7.88,7.19,2.32,3.95,5.61,7.19,7.31,7.19,1.68,0,3.09,1.56,3.09,3.47,0,3.45-18.52,29.21-29.5,41.06l-5.75,6.19-11.72-13.94c-6.47-7.68-13.1-15.4-14.75-17.16s-4.12-5.28-5.46-7.81c-3.99-7.45,8.1-6.15,13.03,1.38,3.22,4.9,5.86,6,14.53,6,7.55,0,11.36,1.2,13.18,4.18,2.16,3.5,2.46,3,1.91-3-0.51-5.48-2.59-8.15-8.87-11.28-6.54-3.26-7.4-4.42-4.19-5.65,5.29-2.04,5.29-10.19,0-9.75-3.91,0.32-6.78-3.77-13.25-18.82-2.35-5.43-4.91-7.39-10.47-7.93-4.9-0.72-17.96,8.09-19.02,10.9-3.48,4.2,8.45-2.76,12.52-6.81,4.29-4.3,11.96-0.18,15.03,8.09,4.53,12.29,6.18,14.74,11.88,17.63,5.83,2.95,3.03,6.61-3.22,4.22-2.08-0.81-3.82-0.35-3.82,1.03,0,3.47,9.74,10,14.91,10,2.35,0,4.28,1.09,4.28,2.4,0,1.32-4.94,2.38-11,2.38-9.99,0-11.23-0.62-13.72-7.16-1.9-5.04-3.87-6.84-6.62-5.96-3.24,1.01-3.93-0.41-3.69-7.79,0.24-7.61-0.57-9.14-5.03-9.78-11.62-1.65-8.55,20.73,4.91,35.81,20.13,22.62,25.35,30.38,22.22,33-3.62,3-11.89-6.02-30.22-32.96-13.1-19.3-15.8-35.75-6.91-41.97,3.06-2.16,4.35-3.91,2.81-3.91-4.12,0-10.06,6.74-11.68,13.28-2,7.91,9.7,32.12,24.24,50.22,6.35,7.91,12.53,15.65,13.72,17.22,1.39,1.84,0.22,5.45-3.28,10.19-6.87,9.27-9.59,9.31-7.75,0.15,1.56-7.79-4.12-19.18-9.56-19.18-1.7,0-6.19,3.24-10,7.22-5.53,5.78-6.29,7.75-3.84,10.15,1.65,1.64,2.73,1.91,2.34,0.59-1.17-4.12,6.08-13.18,10.56-13.18,5.05,0,8.79,8.4,7.35,16.56-0.55,3.16-0.44,7.26,0.25,9.12,1.2,3.09,33.7-28.56,52.56-51.18,10.83-13.01,19.02-35.73,11.09-30.82-1.15,0.71-5.01-2.48-8.53-7.12-7.19-9.39-9.96-10.28-14.22-4.47-1.58,2.16-4.12,3.18-5.65,2.25-4.51-2.78-3.14-8.61,2.46-10.69,4.84-1.79,4.67-2.05-2.21-3.43-4.1-0.82-9.68-3.88-12.41-6.82-2.07-2.2-3.84-3.44-4.59-3.31zm-23.03,25.22c2.73,0,3.59,1.83,3.06,6.41-0.89,7.33-6.04,10.2-8.22,4.56-2.04-5.33,0.61-10.97,5.16-10.97z"/>
   <path fill="#000" d="m-752.47-346.05c0-0.58,1.07-1.72,2.39-2.54,1.32-0.81,2.4-0.34,2.4,1.06,0,1.39-1.08,2.54-2.4,2.54s-2.39-0.48-2.39-1.06z"/>
   <path fill="#000" d="m-898.58-357.28c0-3.46,1.31-7.35,2.95-8.65,4.76-3.75,15.74-5.66,17.37-3.03,2.18,3.52,5.53,2.93,6.42-1.13,0.51-2.31,1.89-2.83,4.01-1.5,2.57,1.61,2.66,3.12,0.43,7.29-2.64,4.94-3.16,5.03-8.55,1.5-8.09-5.3-10.69-4.69-10.69,2.49,0,4.85-0.89,5.9-4,4.71-2.21-0.85-4.88-0.14-5.96,1.54-1.29,2.04-1.96,0.95-1.98-3.22z"/>
   <path fill="#000" d="m-890.23-361.76c0.81-1.32,0.4-2.4-0.92-2.4s-3.06,1.08-3.88,2.4c-0.81,1.31-0.4,2.39,0.92,2.39s3.06-1.08,3.88-2.39z"/>
   <path fill="#000" d="m-697.63-356.08c-1.54-1.87-2.14-4.1-1.27-4.94,0.84-0.85,1.53-0.28,1.53,1.25,0,1.54,1.01,2.8,2.23,2.8,1.36,0,1.36-2.98,0-7.77-2.88-10.05-2.88-10.12,1.36-6.61,2.45,2.02,3.6,2.13,3.6,0.33,0-1.46-3.79-4.24-8.39-6.16-7.78-3.25-11.5-8.54-5.99-8.54,1.32,0,2.4,1.14,2.4,2.53,0,1.4,1.03,1.9,2.3,1.13,2.61-1.62,0.53-8.78-3.33-11.41-1.7-1.18-1.56-1.77,0.48-1.8,1.7,0,4.19,2.91,5.56,6.5,1.36,3.6,3.71,7.31,5.24,8.25,1.51,0.94,2.59,6.08,2.37,11.43-0.24,5.35,0.63,9.72,1.87,9.72,4.2,0,2.33,4.22-2.42,5.46-2.58,0.68-5.99-0.3-7.54-2.17z"/>
   <path fill="#000" d="m-763.38-361.96c-0.88-1.42-4.17-1.94-7.32-1.15-5.86,1.47-7.46-0.69-3.54-4.76,1.21-1.26,2.68-4.98,3.27-8.27,0.87-4.87,1.13-4.48,1.4,2.05,0.25,6.22,1.17,7.72,4.04,6.62,2.14-0.82,3.1-0.42,2.26,0.94-0.81,1.3,0.12,2.37,2.07,2.37,1.94,0,4.62-2.96,5.94-6.59,1.62-4.44,2.47-5.17,2.6-2.24,0.4,9.36-7.02,17.01-10.72,11.03z"/>
   <path fill="#000" d="m-748.78-367.76c0.93-3.95,3.1-8.69,4.84-10.53,2.58-2.76,2.61-1.82,0.23,5.35-3.81,11.09-7.19,14.61-4.97,5.18z"/>
   <path fill="#000" d="m-811.23-373.92c0.31-4.05,2.34-8.9,4.5-10.79,2.16-1.88,2.85-2.13,1.54-0.54-1.31,1.58-2.39,6.44-2.39,10.79s-0.95,7.9-2.12,7.9c-1.16,0-1.85-3.31-1.53-7.36z"/>
   <path fill="#000" d="m-793.2-368.75c0-1.21,1.35-2.75,2.99-3.41,2.3-0.94,2.21-1.77-0.39-3.58-2.85-1.99-2.71-3.03,0.92-6.66,4.14-4.14,4.26-3.97,3.27,4.57-0.74,6.31-0.12,8.88,2.15,8.88,1.75,0,3.81-1.62,4.56-3.6,0.76-1.97,2.39-3.59,3.61-3.59,1.25,0,1.1,2.09-0.34,4.79-2.61,4.88-16.77,7.07-16.77,2.6z"/>
   <path fill="#000" d="m-738.6-373.74c0.57-3.96,1.46-7.19,1.96-7.19,0.53,0,0.94,3.23,0.94,7.19,0,3.95-0.89,7.18-1.99,7.18-1.08,0-1.51-3.23-0.91-7.18z"/>
   <path fill="#000" d="m-842.65-374.94c0.76-1.98,0.3-3.6-1.02-3.6-2.17,0-7.27-9.87-5.9-11.43,0.32-0.36,2.44,0,4.71,0.93,3.29,1.26,3.48,2.01,0.95,3.65-2.41,1.55-1.83,2.44,2.33,3.57,3.55,0.98,5.05,2.76,4.19,4.99-0.74,1.91-1.33,3.93-1.33,4.48s-1.2,1-2.66,1-2.03-1.61-1.27-3.59z"/>
   <path fill="#000" d="m-803.53-372.9c-2.81-2.8-1.83-5.64,1.94-5.64,1.98,0,3.6-2.06,3.6-4.59,0-6.51,2.48-12.18,5.34-12.18,1.61,0,1.59,1.01-0.1,3.01-1.37,1.65-2.85,6.69-3.28,11.19-0.77,7.93-4.15,11.6-7.54,8.21z"/>
   <path fill="#000" d="m-731.49-377.43c0.89-4.61,1.78-5.46,3.26-3.12,1.42,2.24,2.04,1.29,2.06-3.12,0-3.67,1.73-6.97,4.05-7.87,3.04-1.16,3.33-2.19,1.2-4.32-4.19-4.18-3.38-7.37,1.39-5.55,3.35,1.28,3.59,1,1.2-1.42-1.66-1.66-3-4.66-3-6.67,0-2.61,1.01-2.2,3.57,1.46,4,5.72,2.47,20.07-2.06,19.23-1.48-0.28-2.44,1.19-2.11,3.26,0.34,2.07-1.94,6.17-5.08,9.11l-5.67,5.35,1.19-6.34z"/>
   <path fill="#000" d="m-759.66-461.09c0,2.02-1.88,4.26-4.18,4.97-9.29,2.87-11.23,5.18-11.54,14.03,1.79,8.28,1.02,9.67,4.13,10.25,5.58,1.47,5.7,4.72,0.22,6.15-2.52,0.66-1.52,1.21,2.53,1.38,3.82,0.15,6.1,1.29,5.25,2.65-0.81,1.32,0.25,2.41,2.37,2.41,2.13,0,3.22-1.09,2.41-2.41-2.25-3.64,1.07-2.84,5.13,1.22,3.19,3.19,3.02,3.56-1.75,3.56-6.8,0-4.16,2.94,3.15,3.5,8.17,0.63,11.64-3.04,9.82-10.31-2.48-9.81-6.55-12.76-13.97-9.93-7.5,2.85-10.75,1.42-10.75-4.79,0-2.48-1.09-5.18-2.41-6-3.98-2.46-2.7-5.56,3-7.31,2.96-0.91,7.45-3.82,9.97-6.47,4.03-4.23,6.66-4.66,22.03-3.5,9.58,0.73,19.38,2.41,21.75,3.75,3.86,2.17,3.42,2.88-4.03,6.32-10.84,5.6-9.01,4.54-1.59,2.84,8.5-1.27,10.7,3.48,5.4,11.59-2.15,3.28-2.99,5.97-1.87,5.97,1.13,0,3.48-2.74,5.25-6.06,3.36-6.25,7.31-6.79,9.15-1.25,0.63,1.89,0,2.5-1.65,1.5-4.58-2.83-3.01,2.1,2.06,6.44,2.64,2.26,4.62,5.46,4.62,7.12-0.14,2.38-0.44,2.38-1.4,0-0.67-1.64-2.37-3-3.82-3-1.43,0-0.27,2.51,2.6,5.56,5.92,6.29,7.07,10.96,1.56,6.38-2.01-1.66-4.35-2.35-5.19-1.5-0.84,0.84-0.18,1.56,1.5,1.56,1.85,0,2.43,1.56,1.6,3.78-0.79,2.07,0.1,5.28,1.93,7.13,1.88,1.86,2.83,5.44,2.16,7.97-0.64,2.52,0.1,6.85,1.53,9.62,2.9,5.45,6.15,6.44,8.5,2.63,0.81-1.31-0.18-2.38-2.25-2.38-4.38,0-4.09,1.59-4.62-23.78-0.29-13.5-1.39-20.53-3.35-21.19-1.63-0.54-2.97-2.97-2.97-5.43,0-2.45-2.25-6.05-5.03-8-4.14-2.83-4.89-5.45-4.15-13.13,0.69-7.42,0.23-9.05-2.06-7.16-1.74,1.44-6.99,1.76-12.69,0.79-5.39-0.9-15.4-1.88-22.28-2.16,0,0-15.63,1.94-16.07,4.66zm7.32,31c3.54-0.1,7.06,1.36,7.06,3.62,0,1.03-1.68,2.52-3.72,3.31-2.14,0.82-3.09,0.42-2.25-0.93,0.81-1.31-1.04-2.44-4.09-2.44-4.72-0.1-4.94-0.43-1.54-2.41,1.3-0.75,2.93-1.11,4.54-1.15z"/>
   <path fill="#000" d="m-855.66-391.71c-0.12-1.32-0.5-4.83-0.83-7.8-0.57-5.1-0.35-5.18,3.81-1.41,2.42,2.19,3.6,4.62,2.62,5.4s-2.59,2.49-3.57,3.81c-1.2,1.6-1.87,1.6-2.03,0z"/>
   <path fill="#000" d="m-715.19-411.9c-3.93-4.38-4.03-4.94-0.6-3.63,5.53,2.14,5.1,0.48-1.94-7.11-6.28-6.76-7.65-11.01-3.6-11.01,1.32,0,2.4,1.49,2.4,3.31,0,1.81,2.25,4.79,5,6.62,3.57,2.36,4.77,5.29,4.2,10.17l-0.82,6.83-4.64-5.18z"/>
   <path fill="#000" d="m-799.86-423.01c-6.26-4.38-7.01-12.53-1.35-14.71,2.61-1,5.7,0.59,8.99,4.63,2.75,3.38,7.16,6.67,9.8,7.31,3.83,0.93,3.55,1.21-1.41,1.44-4.5,0.19-6.98-1.43-9.02-5.9-2.67-5.85-7.6-6.96-9.15-2.06-1.9,6.01,4.54,9.49,20.09,10.85l16.26,1.42-14.44,0.38c-9.71,0.25-16.19-0.85-19.77-3.36z"/>
   <path fill="#000" d="m-719.79-439.63c-0.94-2.44,0-3.6,3.25-3.6,3.14,0,4.2,1.16,3.26,3.6-0.74,1.97-2.23,3.59-3.26,3.59s-2.51-1.62-3.25-3.59z"/>
   <path fill="#000" d="m-748.72-445.37c-1.87-3.01,4.37-4.98,10.6-3.35,3.93,1.03,4.43,1.86,2.01,3.39-4.19,2.67-10.95,2.65-12.61-0.1z"/>
   <path fill="#000" d="m-748.2-453.55c3.32-1.49,6.32-1.6,7.66-0.26,1.31,1.33-0.84,2.3-5.47,2.46-7.13,0.25-7.28,0.1-2.19-2.2z"/>
  </g>
  <g stroke-linejoin="round" transform="matrix(0.90149,0,0,0.90149,23.431,0.81781)" stroke="#18140c" stroke-linecap="round" stroke-dasharray="none" stroke-miterlimit="4">
   <path d="m231.16,57.818c-1.29-0.239-3.04-0.191-4.01-0.947-0.4-1.142-2.14-0.466-2.44-1.685-1.01-0.928-2.26-1.722-2.9-2.931,1.75,1.761,4.6,2.536,6.88,1.336l1.63-1.368c2.62-3.932,0.4-10.016-4.21-11.184-2.34-0.54-5.19-0.265-6.71,1.794,0.36-2.425-1.8-4.14-3.9-4.745-3.17-1.524-7.74-1.171-9.5,2.263-2.21,3.31-1.38,8.21,1.85,10.528-2.64,1.841-5.43,5.115-4.34,8.553,1.63,3.679,6.93,4.699,10.18,2.671,2.27-1.34,2.14-4.256,2.47-6.518,1.25,1.924,1.96,4.151,3.43,5.902,1.13,1.812,2.06,3.959,3.8,5.311-1.96-0.05-3.8,2.112-2.56,3.94,0.47,0.865,1.56,1.359,2.41,1.394-1.02,0.881-1.28,2.345-0.88,3.599,5.65-1.324,11.21-2.989,17.07-2.977,11.65-0.542,23.41,0.763,34.69,3.516,0.91,0.973,2.19,2.491,3.69,1.585,1.92-0.453,3.42-2.297,3.13-4.338-1.29-0.106-0.93-0.322-0.23-0.945,1.63-2.016-0.86-4.459-2.93-4.466-0.33-0.137,1.06-0.737,1.25-1.158,2.37-2.721,5.15-5.254,6.62-8.594,0.3,3.643,4.44,6.782,7.95,5.414,3.31-2.023,5.13-7.178,2.17-10.269-0.52-0.801-1.73-1.302-2.3-1.544,3.73-1.883,4.82-7.741,1.4-10.447-2.52-2.458-7.33-3.22-9.57-0.04-1.17,1.344-1.41,3.35-1.51,4.905-1.21-1.093-2.13-2.554-3.82-2.951-2.28-0.736-5.17-0.614-7.12,0.807-2.01,2.061-2.02,5.481-0.27,7.706,1.41,2.693,4.71,4.349,7.64,3.261-0.81,2.038-3.32,2.204-4.65,3.748-3.29,1.541-7.06,2.058-10.67,1.366-3.55,0.3-7.55-1.197-9.32-4.406-0.69-1.923-1.42-4.35-1.34-6.142,2.12,3.836,8.03,4.018,11.03,1.206,2.3-2.288,2.74-6.821-0.31-8.683-2.36-1.678-5.44-0.773-8-0.209-1.4,0.61,0-0.284,0.47-0.725,1.68-1.123,1.85-3.44,0.59-4.938-1.79-2.626-4.97-4.857-8.27-4.765-3.53-0.07-7.53,3.288-6.23,7.019,0.21,0.69,0.91,1.553,0.91,2.083-2.38-0.808-5.1-2.575-7.59-1.057-3.19,1.41-4.58,5.596-2.93,8.643,0.33,1.353,1.24,2.493,2.4,3.23l4.87,0.689c1.81-0.141,3.59-1.523,3.84-3.261,1.06,3.663-1.02,8.681-5.19,9.003z" stroke-width="2.55200005" fill="#2a57c6"/>
   <path opacity="0.98999999" style="enable-background:accumulate;color:#000000;" d="m223.04,67.175c19.18-2.578,38.49-2.102,55.69,2.019" stroke-dashoffset="0" stroke-width="1.91406" fill="none"/>
  </g>
  <path opacity="0.98999999" stroke-linejoin="round" style="enable-background:accumulate;color:#000000;" d="m149.68,327.98c-6.02,1.34-13.03,2.33-16.94,6.94-1.34-7.14,1.03-8.24,11.78-18.71,4.7,3.73,5.88,7.68,5.16,11.77z" fill-rule="nonzero" stroke="#000" stroke-linecap="round" stroke-width="4" fill="#0039a6"/>
  <path opacity="0.98999999" stroke-linejoin="round" style="enable-background:accumulate;color:#000000;" d="m136.45,292.5c3.23,3.82,3.28,7.42,0.49,10.81-4.36-3.04-11.54,1.99-17.1,5.32,2.75-8.25,3.48-13.7,16.61-16.13z" fill-rule="nonzero" stroke-dashoffset="0" stroke="#000" stroke-linecap="round" stroke-miterlimit="4" stroke-dasharray="none" stroke-width="4" fill="#0039a6"/>
  <path opacity="0.98999999" stroke-linejoin="round" style="enable-background:accumulate;color:#000000;" d="m151.13,290.73c4.94,0.13,9.21,3.61,15.32-2.1-3.68-8.36-8.25-11.31-20-11.61,7.57,10.91,7.71,12.98,3.71,14.03" fill-rule="nonzero" stroke-dashoffset="0" stroke="#000" stroke-linecap="round" stroke-miterlimit="4" stroke-dasharray="none" stroke-width="4" fill="#0039a6"/>
  <path opacity="0.98999999" stroke-linejoin="round" style="enable-background:accumulate;color:#000000;" d="m108.55,201.05c0.57-6.73-1.77-9.66-5.49-10.81-9.65,5-10.25,10.59-6.608,16.45,3.978-1.67,1.452-10.21,12.418-4.51" fill-rule="nonzero" stroke-dashoffset="0" stroke="#000" stroke-linecap="round" stroke-miterlimit="4" stroke-dasharray="none" stroke-width="4" fill="#0039a6"/>
  <path opacity="0.98999999" stroke-linejoin="round" style="enable-background:accumulate;color:#000000;" d="m94.355,165.4c4.082,3.52,0.969,6.01-0.645,8.71-2.879-2.97-7.674,2-10.968,4.84,1.42-9.93,5.09-18.92,11.613-13.55z" fill-rule="nonzero" stroke-dashoffset="0" stroke="#000" stroke-linecap="round" stroke-miterlimit="4" stroke-dasharray="none" stroke-width="4" fill="#0039a6"/>
  <path opacity="0.98999999" stroke-linejoin="round" style="enable-background:accumulate;color:#000000;" d="m112.26,155.08c3.45,0.54,5.2-1.83,5.64-6.45-0.1-15.4-12.74-5.67-19.997-2.9,12.557,3.12,16.737,6.17,13.387,11.45" fill-rule="nonzero" stroke-dashoffset="0" stroke="#000" stroke-linecap="round" stroke-miterlimit="4" stroke-dasharray="none" stroke-width="4" fill="#0039a6"/>
  <path opacity="0.98999999" stroke-linejoin="round" style="enable-background:accumulate;color:#000000;" d="m190,98.145c-10.89-6.371-10.54-0.742-8.71,6.455l18.06,5.16,31.94,4.84c5.11-3.17,5.9-6.08-3.55-8.39l-27.74-1.61z" fill-rule="nonzero" stroke-dashoffset="0" stroke="#000" stroke-linecap="round" stroke-miterlimit="4" stroke-dasharray="none" stroke-width="4" fill="#0039a6"/>
 </g>
</svg>
