<?xml version="1.0" standalone="no"?>
<!DOCTYPE svg PUBLIC "-//W3C//DTD SVG 20010904//EN"
 "http://www.w3.org/TR/2001/REC-SVG-20010904/DTD/svg10.dtd">
<svg version="1.0" xmlns="http://www.w3.org/2000/svg"
 width="768.000000pt" height="461.000000pt" viewBox="0 0 768.000000 461.000000"
 preserveAspectRatio="xMidYMid meet">

<g transform="translate(0.000000,461.000000) scale(0.100000,-0.100000)"
fill="#000000" stroke="none">
<path d="M0 4035 l0 -575 3840 0 3840 0 0 575 0 575 -3840 0 -3840 0 0 -575z"/>
<path d="M1818 3280 c-408 -65 -721 -350 -820 -747 -31 -124 -31 -330 0 -457
27 -106 94 -254 156 -340 52 -72 161 -181 231 -232 102 -73 250 -136 390 -165
96 -20 294 -16 398 10 371 89 648 366 739 738 31 130 29 323 -5 454 -28 107
-75 215 -132 305 -48 75 -172 203 -251 260 -86 61 -234 129 -334 154 -97 23
-286 34 -372 20z m367 -79 c44 -12 121 -41 170 -65 490 -237 669 -838 389
-1308 -65 -110 -202 -247 -312 -312 -470 -280 -1071 -101 -1308 389 -143 294
-119 639 61 911 100 150 263 282 430 349 171 68 392 82 570 36z"/>
<path d="M1844 3190 c-164 -21 -342 -101 -471 -212 -353 -303 -410 -841 -128
-1208 119 -154 287 -269 472 -322 66 -19 102 -23 233 -23 184 0 245 13 395 85
220 106 382 295 460 540 37 114 46 305 21 431 -33 162 -109 308 -229 435 -193
205 -477 308 -753 274z m303 -76 c376 -95 633 -418 634 -796 0 -124 -13 -206
-47 -297 -113 -301 -382 -509 -694 -539 -604 -59 -1064 514 -874 1088 41 122
99 215 199 316 134 136 289 216 470 244 77 11 237 3 312 -16z"/>
<path d="M1800 3086 c-329 -70 -580 -331 -631 -657 -14 -88 -6 -240 15 -324
23 -86 97 -230 156 -302 102 -125 269 -231 425 -270 93 -22 288 -23 370 -1
213 58 372 170 485 345 88 134 124 258 124 428 0 145 -18 222 -79 350 -98 202
-277 353 -495 415 -96 28 -277 35 -370 16z m88 -144 c-3 -69 -11 -110 -24
-138 l-19 -39 33 -66 c22 -44 35 -86 39 -125 l5 -59 -45 -18 c-25 -10 -53 -27
-63 -38 -9 -10 -22 -19 -29 -19 -21 0 -121 98 -145 143 -22 42 -26 45 -75 50
-55 6 -215 79 -215 98 0 21 135 152 201 195 96 62 230 112 308 113 l34 1 -5
-98z m262 77 c126 -35 224 -92 323 -191 50 -49 86 -91 82 -98 -13 -21 -168
-91 -214 -97 -41 -5 -49 -10 -68 -43 -32 -54 -66 -93 -111 -124 l-40 -27 -42
30 c-22 16 -54 33 -71 36 -28 6 -29 8 -23 48 8 60 33 137 56 175 l20 33 -20
48 c-13 29 -24 83 -28 139 l-7 92 34 0 c19 0 68 -9 109 -21z m-758 -466 c37
-24 76 -59 87 -77 20 -32 24 -34 94 -38 39 -3 97 -15 127 -27 l55 -21 -1 -82
-1 -83 -57 -23 c-31 -13 -87 -26 -124 -29 -64 -6 -69 -8 -109 -53 -23 -26 -72
-67 -109 -90 -75 -50 -73 -51 -104 50 -52 165 -48 326 11 484 24 64 16 65 131
-11z m1251 25 c40 -105 49 -169 45 -298 -4 -100 -10 -142 -32 -208 l-27 -83
-47 27 c-80 46 -142 95 -157 124 -13 25 -20 28 -89 33 -41 4 -99 16 -128 28
l-53 22 0 84 0 83 55 21 c30 12 87 24 126 26 65 5 73 8 88 34 9 15 36 43 59
62 41 34 126 87 138 87 4 0 14 -19 22 -42z m-605 -145 c49 -36 66 -70 66 -126
0 -91 -59 -150 -151 -151 -55 -1 -89 17 -125 65 -22 29 -33 87 -24 123 8 34
54 86 91 102 39 18 110 12 143 -13z m-214 -288 c18 -14 48 -30 66 -36 l33 -12
-7 -61 c-4 -40 -17 -84 -39 -126 l-33 -65 20 -34 c15 -25 21 -60 25 -137 l6
-104 -24 0 c-52 0 -160 34 -251 78 -79 38 -110 61 -182 132 -49 48 -88 91 -88
96 0 19 158 95 209 101 47 5 53 9 82 54 31 49 123 139 141 139 5 0 24 -11 42
-25z m379 -38 c34 -34 68 -76 76 -93 11 -29 17 -32 65 -36 56 -5 206 -72 213
-95 7 -21 -148 -167 -224 -212 -76 -45 -184 -84 -267 -96 l-48 -8 4 104 c3 73
9 115 22 141 18 37 18 39 -2 71 -23 40 -48 117 -56 174 -6 39 -5 42 23 48 16
3 46 19 67 35 22 16 45 30 52 30 7 0 41 -28 75 -63z"/>
<path d="M1898 2404 c-32 -17 -58 -62 -58 -99 0 -99 124 -149 193 -77 91 96
-19 240 -135 176z m90 -50 c25 -17 31 -71 10 -92 -21 -21 -75 -15 -92 10 -22
31 -20 45 9 73 28 29 42 31 73 9z"/>
<path d="M0 575 l0 -575 3840 0 3840 0 0 575 0 575 -3840 0 -3840 0 0 -575z"/>
</g>
</svg>
