<?xml version="1.0" encoding="UTF-8"?>
<svg version="1.0" viewBox="0 0 600 300" xml:space="preserve" xmlns="http://www.w3.org/2000/svg" xmlns:xlink="http://www.w3.org/1999/xlink">
<path d="m0 0v300h600v-300h-600" fill="#da121a"/>
<path d="m200 100h400v100h-400z" fill="#fff"/>
<g transform="matrix(.072 0 0 .072 22.5 72.5)">
<circle cx="1050" cy="1050" r="1035" fill="#fff" stroke="#000" stroke-width="30"/>
<circle cx="1050" cy="1050" r="870.9" fill="#da121a" stroke="#000" stroke-width="14"/>
<use transform="matrix(.5 .866 -.866 .5 1434.2 -383.91)" width="100%" height="100%" stroke="#000000" xlink:href="#a"/>
<g id="a" transform="translate(-118,-233)" stroke="#000">
<g id="b" stroke-width="9">
<path d="m1101 970.7c45.17-8.866 90.6-8.686 132.7 0 2.24 0.47 4.55 0.71 6.93 0.71 18.78 0 34-15.22 34-34 0-15.73-10.68-28.96-25.17-32.82-56.16-11.34-111.9-11.16-164.2 0-14.5 3.89-25.18 17.12-25.18 32.82 0 18.78 15.22 34 34 34 2.38 0 4.69-0.24 6.93-0.71m-15.29-433.1c18.94 20.13 23.28 81.28 5.69 128-43.61 99.06-35.15 199.8 10.9 235.9 44.53-7.262 88.72-7.166 130.2-0.32 46.02-36.06 54.15-136.6 10.52-235.6-17.59-46.64-13.55-108.1 5.69-128 14.57-19.44 18.29-42.84-27.88-44.13-36.83-1.025-72.99-0.8562-107.3 0.15-44.15 1.295-40.26 28.23-27.88 43.99zm-64.58-78.74c0 21.7 17.6 39.3 39.3 39.3 1.33 0 2.64-0.06 3.96-0.2 70.64-8.7 140.6-8.39 206.4 0 1.38 0.14 2.69 0.21 4.01 0.21 21.7 0 39.3-17.6 39.3-39.3 0-20.01-14.95-36.52-34.28-39.01l-0.17-0.05c-76.66-9.303-152.5-8.942-223.9 0-19.3 2.47-34.49 19.03-34.49 39.03z" fill="#fff"/>
<circle cx="1168" cy="324.7" r="33" fill="none"/>
</g>
<use transform="matrix(1,0,0,-1,0,2565)" width="100%" height="100%" xlink:href="#b"/>
</g>
<use transform="matrix(-.5 .866 -.866 -.5 2483.2 665.69)" width="100%" height="100%" stroke="#000000" xlink:href="#a"/>
<g stroke="#000">
<circle cx="1050" cy="1050" r="321.4" fill="#fff" stroke-width="15"/>
<circle cx="1050" cy="1050" r="265.5" fill="none" stroke-width="14"/>
<circle cx="1050" cy="1050" r="148" fill="#da121a" stroke-width="20"/>
</g>
</g>
</svg>
