<?xml version="1.0" encoding="UTF-8"?>
<svg version="1.1" xmlns="http://www.w3.org/2000/svg" width="1200" height="800">
<path d="M0 0 C396 0 792 0 1200 0 C1200 264 1200 528 1200 800 C804 800 408 800 0 800 C0 536 0 272 0 0 Z " fill="#040605" transform="translate(0,0)"/>
<path d="M0 0 C128.7 0 257.4 0 390 0 C391.98 11.88 393.96 23.76 396 36 C400.66323969 52.58780977 405.83628967 68.38545797 413 84 C413.69295233 85.55848529 414.38565597 87.11708117 415.078125 88.67578125 C425.81565643 112.4512204 440.57890689 133.82279729 457 154 C457.41556152 154.51997559 457.83112305 155.03995117 458.25927734 155.57568359 C465.30023856 164.35149373 473.13592359 172.34411595 481.0625 180.3125 C481.56929291 180.82455994 482.07608582 181.33661987 482.59823608 181.86419678 C489.39645386 188.71696298 496.4450893 194.97431965 504 201 C505.17856592 202.00019501 506.35249763 203.00590399 507.51953125 204.01953125 C532.77219039 225.62471178 563.37597874 244.23479093 594 257 C595.12148438 257.49113281 596.24296875 257.98226563 597.3984375 258.48828125 C602.7491951 259.24852989 606.24841593 257.27549341 611 254.9375 C611.95551758 254.48431396 612.91103516 254.03112793 613.89550781 253.56420898 C624.89727502 248.24896002 635.47841015 242.19912384 646 236 C646.80953125 235.52949219 647.6190625 235.05898438 648.453125 234.57421875 C660.58399701 227.51144595 671.84893931 219.51435668 683 211 C683.65516602 210.50467773 684.31033203 210.00935547 684.98535156 209.49902344 C692.74790634 203.62125433 700.02451048 197.38483254 707.109375 190.70703125 C709.40689051 188.55543902 711.72969789 186.47740159 714.125 184.4375 C722.02715805 177.58784926 729.25525184 169.98010203 736 162 C737.21236328 160.60394531 737.21236328 160.60394531 738.44921875 159.1796875 C778.03079079 113.41012201 801.47302825 59.68880228 810 0 C938.37 0 1066.74 0 1199 0 C1199 131.67 1199 263.34 1199 399 C803.33 399 407.66 399 0 399 C0 267.33 0 135.66 0 0 Z " fill="#F4CE15" transform="translate(0,400)"/>
<path d="M0 0 C5.00980268 0.00008084 10.0195131 -0.00680912 15.02929688 -0.02050781 C40.60051416 -0.08933439 66.13279186 -0.00874133 91.68261719 1.13452148 C92.65096497 1.17773844 93.61931274 1.22095539 94.61700439 1.26548195 C97.32931373 1.38989483 100.04116264 1.52105241 102.75292969 1.65673828 C103.53349731 1.69473982 104.31406494 1.73274136 105.11828613 1.77189445 C109.97151874 2.03158469 114.73927669 2.54918091 119.55761719 3.18530273 C121.35033008 3.30520837 123.14487412 3.40192236 124.94042969 3.46655273 C125.88015625 3.50393555 126.81988281 3.54131836 127.78808594 3.57983398 C129.7255756 3.65043077 131.66307572 3.72074099 133.60058594 3.79077148 C138.35240822 3.98032148 142.86735999 4.3772662 147.55761719 5.18530273 C151.26184678 5.51180109 154.97272204 5.74506257 158.68261719 5.99780273 C170.08975056 6.82150349 181.44322796 7.97496703 192.80761719 9.24780273 C193.59751038 9.33575104 194.38740356 9.42369934 195.20123291 9.51431274 C202.0111233 10.2752701 208.79995091 11.03673119 215.55761719 12.18530273 C215.60523047 27.58518415 215.6400278 42.98505981 215.66124153 58.38499832 C215.67137164 65.54225445 215.68512082 72.69946334 215.70849609 79.85668945 C215.82514468 116.34417852 215.38663676 152.73261624 213.55761719 189.18530273 C213.50385674 190.25706379 213.45009628 191.32882484 213.39470673 192.43306351 C213.22650506 195.75863346 213.05578973 199.08406093 212.88354492 202.40942383 C212.83174167 203.41196072 212.77993841 204.4144976 212.72656536 205.4474144 C210.4603456 248.34271043 205.01022256 288.49354275 187.55761719 328.18530273 C187.20699219 328.99273926 186.85636719 329.80017578 186.49511719 330.63208008 C174.81738115 357.30042551 157.7673936 381.42051643 138.55761719 403.18530273 C137.90760742 403.92288818 137.25759766 404.66047363 136.58789062 405.42041016 C130.97631094 411.72570189 125.14824329 417.77779014 119.18261719 423.74780273 C118.31378906 424.62887695 117.44496094 425.50995117 116.54980469 426.41772461 C110.53387254 432.44700572 104.20626149 437.87029192 97.55761719 443.18530273 C95.74253689 444.74480458 93.92945393 446.30664085 92.12011719 447.87280273 C78.30838537 459.3796013 63.07467061 469.15508281 47.55761719 478.18530273 C46.82333496 478.61294922 46.08905273 479.0405957 45.33251953 479.48120117 C40.12899292 482.48879629 34.86291322 485.36194523 29.55761719 488.18530273 C28.73487305 488.63309082 27.91212891 489.08087891 27.06445312 489.54223633 C24.55755229 490.89473193 22.03127119 492.20114126 19.49511719 493.49780273 C18.35345093 494.12162842 18.35345093 494.12162842 17.1887207 494.75805664 C13.15809211 496.7528403 10.52984897 497.59048682 6.15527344 496.23217773 C4.60588132 495.58904333 3.07339722 494.90408553 1.55761719 494.18530273 C0.73382568 493.81171631 -0.08996582 493.43812988 -0.9387207 493.05322266 C-3.63369566 491.79198755 -6.28925126 490.46974098 -8.94238281 489.12280273 C-9.90217041 488.6381958 -10.86195801 488.15358887 -11.85083008 487.65429688 C-25.99181145 480.43639418 -39.385155 472.20219424 -52.44238281 463.18530273 C-53.02052734 462.78875488 -53.59867188 462.39220703 -54.19433594 461.98364258 C-67.21121238 453.02078205 -79.48298859 443.11737851 -91.07128906 432.37280273 C-93.13694494 430.46709056 -95.2397086 428.63098264 -97.37988281 426.81030273 C-100.89006899 423.75514069 -104.2072645 420.52854166 -107.50488281 417.24780273 C-107.98755615 416.76972168 -108.47022949 416.29164063 -108.9675293 415.79907227 C-120.89882838 403.81746411 -132.15583234 390.30859825 -141.44238281 376.18530273 C-142.37945174 374.81781974 -143.31700114 373.45066594 -144.25488281 372.08374023 C-169.71528686 334.48387186 -185.47490816 292.27365039 -190.44238281 247.18530273 C-190.55418381 246.20663239 -190.55418381 246.20663239 -190.66824341 245.20819092 C-192.27015124 231.05132297 -193.1148918 216.88087317 -193.82006836 202.65405273 C-194.00256999 198.98184028 -194.1935431 195.31014398 -194.38574219 191.63842773 C-195.84093378 163.32813795 -196.59818965 135.0643664 -196.54003906 106.71655273 C-196.53759457 103.95975777 -196.53669685 101.20296283 -196.53575134 98.44616699 C-196.5326973 92.03339244 -196.52456788 85.62063585 -196.51440185 79.20786905 C-196.50305145 71.88199682 -196.49768363 64.55612353 -196.49270642 57.23024464 C-196.48237698 42.21525416 -196.4648983 27.20028028 -196.44238281 12.18530273 C-184.82491102 10.24032736 -173.29111898 8.6243783 -161.54785156 7.65014648 C-160.09983533 7.52520843 -158.6518638 7.39975149 -157.20393372 7.27381897 C-154.19529321 7.01352935 -151.18632785 6.75761084 -148.17700195 6.50537109 C-144.42000771 6.19037428 -140.66379247 5.86705106 -136.90775871 5.54082298 C-91.21992667 1.57656363 -45.85004195 -0.00368458 0 0 Z " fill="#F4CD17" transform="translate(590.4423828125,150.814697265625)"/>
<path d="M0 0 C2.6875 -0.375 2.6875 -0.375 6 0 C9.24874132 3.09403935 10.78539715 5.52127056 12.625 9.625 C14.88739117 14.53001615 18.5712058 18.12995169 22.29150391 21.96337891 C26 25.8124339 26 25.8124339 26 28 C26.87011719 28.38091797 26.87011719 28.38091797 27.7578125 28.76953125 C33.77403538 32.07111698 38.39675109 38.28253 42.67578125 43.5546875 C45.07599528 46.17439013 46.68145753 46.97793813 50.21484375 47.22265625 C54.12575267 46.99260278 57.7723392 46.36938688 61.5625 45.4375 C62.2944458 45.25968994 63.0263916 45.08187988 63.78051758 44.89868164 C78.90113438 41.10549379 93.5704152 35.87406561 108.1875 30.5 C108.83431732 30.26221832 109.48113464 30.02443665 110.14755249 29.77944946 C116.23728255 27.53688856 122.3195431 25.27834392 128.36328125 22.9140625 C162.87590537 9.50666293 162.87590537 9.50666293 178 13 C183.11101678 16.36350001 184.96057476 19.19308271 187 25.0625 C187.36327393 26.10144409 187.36327393 26.10144409 187.73388672 27.16137695 C188.51487666 29.43318768 189.26035134 31.71441899 190 34 C190.25813477 34.77891602 190.51626953 35.55783203 190.78222656 36.36035156 C197.74666508 57.5470883 201.18753038 78.47769734 201.18530273 100.73852539 C201.18747986 103.16505742 201.20566618 105.59112664 201.22460938 108.01757812 C201.30355647 130.0893306 201.30355647 130.0893306 198 140 C198.58040039 140.03440186 199.16080078 140.06880371 199.75878906 140.10424805 C236.33432678 142.40179595 270.8659698 151.4804467 305.32885742 163.45751953 C306.32484703 163.80062668 306.32484703 163.80062668 307.34095764 164.15066528 C309.12913328 164.76807078 310.91453542 165.39349292 312.69970703 166.01953125 C316.13085022 167.03887368 319.44951276 167.58103687 323 168 C322.40169302 164.27720104 321.3152035 161.35991969 319.625 158 C311.61627862 140.56652245 313.34737948 123.76110242 316.5 105.4375 C319.57816056 87.51376361 322.04112045 70.84204999 311.75 54.625 C309.83440638 51.6001213 308.97881458 49.89583833 308.25 46.3125 C309.27087362 41.80364152 311.44168137 38.9253856 315 36 C318.45601645 34.26288101 321.86257317 33.60576883 325.6706543 33.01318359 C334.53760094 31.62437218 340.58222835 29.12533845 347.9375 23.921875 C349.01 23.16390625 350.0825 22.4059375 351.1875 21.625 C352.00178467 21.04661377 352.00178467 21.04661377 352.83251953 20.45654297 C361.19096271 14.63169958 370.61103017 8.94004213 381 8.75 C381.845625 8.72421875 382.69125 8.6984375 383.5625 8.671875 C386.47264128 9.06362479 387.8220601 10.08421954 390 12 C389.81640625 14.3203125 389.81640625 14.3203125 389 17 C386.77734375 18.5546875 386.77734375 18.5546875 383.9375 19.875 C375.08932548 24.38471476 369.44122998 30.35621243 363.30859375 38.09375 C361.74917497 40.05687618 360.15679888 41.99420227 358.53515625 43.90625 C357.34212891 45.31390625 357.34212891 45.31390625 356.125 46.75 C355.40570312 47.59046875 354.68640625 48.4309375 353.9453125 49.296875 C349.68371574 55.21861187 348.49983927 60.21371515 348.6484375 67.34765625 C348.65765228 68.13004166 348.66686707 68.91242706 348.67636108 69.71852112 C348.872579 78.09295281 350.13996935 86.20984549 351.625 94.4375 C351.89969304 96.02017297 352.17385341 97.60293847 352.44750977 99.18579102 C354.23744451 109.39585033 356.35196182 119.51114563 358.66503906 129.61572266 C368.60941278 173.21847793 368.60941278 173.21847793 368.6875 190 C368.69442871 190.86471924 368.70135742 191.72943848 368.70849609 192.62036133 C368.59892476 196.25298633 368.2285589 198.56579839 366.51953125 201.8125 C362.99586549 204.87180671 359.3379375 206.35571213 355 208 C353.98953613 208.38526855 352.97907227 208.77053711 351.93798828 209.16748047 C348.48966552 210.45430477 345.02970698 211.70248525 341.5625 212.9375 C340.33072021 213.37698975 339.09894043 213.81647949 337.82983398 214.26928711 C309.72967725 224.17219146 309.72967725 224.17219146 296.49609375 224.1328125 C295.77696304 224.13376923 295.05783234 224.13472595 294.31690979 224.13571167 C292.79647738 224.13639028 291.27604203 224.13455827 289.75561523 224.13037109 C287.46916897 224.12507338 285.18292413 224.13029825 282.89648438 224.13671875 C273.58546053 224.14140625 264.30641512 224.02732768 255.0925293 222.52636719 C251.98475365 222.04523119 250.02294283 222.07774626 247 223 C243.07800418 226.33694672 239.93193067 230.16970182 236.640625 234.11376953 C227.7804923 244.30028519 216.9689941 252.70512238 206.04150391 260.53662109 C204.00208344 261.99850656 201.97547005 263.47696562 199.94921875 264.95703125 C177.89763469 280.92948747 154.05328752 294.30392693 130 307 C130 307.66 130 308.32 130 309 C130.82242188 309.21914063 131.64484375 309.43828125 132.4921875 309.6640625 C154.2175984 315.83548407 167.46390339 331.47453958 180.19140625 349.30737305 C191.18554528 364.6969095 200.43155565 374.0242973 219 379.5 C221.86125465 380.44681518 223.2085749 381.16884635 225.625 383.125 C227.67608173 387.41362544 227.56865705 390.52308053 226 395 C224.15561074 397.80757032 222.18035574 400.37223742 220.0078125 402.93359375 C215.29841992 410.12595402 214.4506128 418.62052422 213.5 427 C211.95612166 440.60900169 209.07679326 453.00010548 198 462 C195.37328813 461.94162863 193.88893674 461.88893674 192 460 C191.63909774 452.54135338 191.63909774 452.54135338 194 449 C194.25366378 446.50760586 194.37999654 444.18077129 194.375 441.6875 C194.37556396 440.97762939 194.37612793 440.26775879 194.37670898 439.53637695 C194.25192408 433.41237025 192.83879389 428.05935988 190.93359375 422.23828125 C190.04534379 419.15728033 189.73904525 416.56370529 189.625 413.375 C189.02338819 405.32991655 186.00803869 398.9402519 180.2265625 393.2890625 C176.65280755 390.28763665 172.84820635 387.63443517 169 385 C167.83210938 384.19175781 167.83210938 384.19175781 166.640625 383.3671875 C151.85827715 373.18689134 136.60710652 363.73029544 121.19921875 354.53125 C83.73971875 332.10957812 83.73971875 332.10957812 75 319 C75.21515079 312.49761633 77.22397656 307.61899853 80.0859375 301.84765625 C80.50235504 300.98925644 80.91877258 300.13085663 81.34780884 299.2464447 C82.23150991 297.43256929 83.12106652 295.62153629 84.01611328 293.81323242 C85.35188509 291.10929046 86.66352859 288.39465647 87.97265625 285.67773438 C98.85040806 263.35254083 112.43173972 244.54478498 129.9375 226.9375 C130.50549316 226.36483398 131.07348633 225.79216797 131.65869141 225.20214844 C135.75379817 221.12310091 135.75379817 221.12310091 138 220 C137.39319213 216.31298264 136.32289275 213.3172284 134.75 209.9375 C132.35094239 204.32342623 130.72463647 198.67087236 129.25 192.75 C129.03956055 191.91073975 128.82912109 191.07147949 128.61230469 190.20678711 C118.35552266 147.70661053 131.81892165 99.26951614 148 60 C143.05230986 61.32184558 139.72818997 63.5694578 135.875 66.8125 C130.00326099 71.53019693 124.20774129 74.65543643 117 77 C116.278125 77.24363281 115.55625 77.48726563 114.8125 77.73828125 C105.00327158 80.46925962 94.12909807 79.60926903 84.3125 77.5 C69.59177957 74.34924931 54.86589753 74.22340086 41.40625 81.37890625 C35.90345596 84.28776274 32.2734314 86.06329346 26 85 C19.90649468 80.36363725 18.80645532 74.72938136 17.625 67.5 C15.56582529 55.09533305 11.21484664 43.62507478 6.375 32.0625 C5.40194209 29.72075931 4.43052851 27.37833453 3.4609375 25.03515625 C3.03603027 24.0181665 2.61112305 23.00117676 2.17333984 21.95336914 C0.17260551 16.91739676 -1.27032336 12.70128275 -1.1875 7.25 C-1.18105469 6.30640625 -1.17460937 5.3628125 -1.16796875 4.390625 C-1 2 -1 2 0 0 Z " fill="#050605" transform="translate(402,175)"/>
<path d="M0 0 C2.6875 -0.375 2.6875 -0.375 6 0 C9.24874132 3.09403935 10.78539715 5.52127056 12.625 9.625 C14.88739117 14.53001615 18.5712058 18.12995169 22.29150391 21.96337891 C26 25.8124339 26 25.8124339 26 28 C26.87011719 28.38091797 26.87011719 28.38091797 27.7578125 28.76953125 C33.77403538 32.07111698 38.39675109 38.28253 42.67578125 43.5546875 C45.07599528 46.17439013 46.68145753 46.97793813 50.21484375 47.22265625 C54.12575267 46.99260278 57.7723392 46.36938688 61.5625 45.4375 C62.2944458 45.25968994 63.0263916 45.08187988 63.78051758 44.89868164 C78.90113438 41.10549379 93.5704152 35.87406561 108.1875 30.5 C108.83431732 30.26221832 109.48113464 30.02443665 110.14755249 29.77944946 C116.23728255 27.53688856 122.3195431 25.27834392 128.36328125 22.9140625 C162.87590537 9.50666293 162.87590537 9.50666293 178 13 C183.11101678 16.36350001 184.96057476 19.19308271 187 25.0625 C187.36327393 26.10144409 187.36327393 26.10144409 187.73388672 27.16137695 C188.51487666 29.43318768 189.26035134 31.71441899 190 34 C190.25813477 34.77891602 190.51626953 35.55783203 190.78222656 36.36035156 C197.74666508 57.5470883 201.18753038 78.47769734 201.18530273 100.73852539 C201.18747986 103.16505742 201.20566618 105.59112664 201.22460938 108.01757812 C201.30355647 130.0893306 201.30355647 130.0893306 198 140 C201.3 140.33 204.6 140.66 208 141 C206 143 206 143 202.4375 143.5 C201.303125 143.665 200.16875 143.83 199 144 C197.38434982 147.23130035 197.59692617 149.40087177 198 153 C199.68190896 156.27135496 201.85452689 159.12864989 204.0625 162.0625 C205.35708397 163.84387937 206.64999552 165.6264751 207.94140625 167.41015625 C208.61316895 168.32941895 209.28493164 169.24868164 209.97705078 170.19580078 C213.24882802 174.73111738 216.37055292 179.3658687 219.5 184 C223.30892766 189.62029549 227.14049503 195.22070237 231.05859375 200.765625 C231.70957031 201.68730469 232.36054687 202.60898437 233.03125 203.55859375 C234.27836609 205.31937856 235.5295134 207.07731682 236.78515625 208.83203125 C237.33945312 209.61449219 237.89375 210.39695312 238.46484375 211.203125 C238.955896 211.89051758 239.44694824 212.57791016 239.95288086 213.28613281 C241 215 241 215 241 217 C209.98 217 178.96 217 147 217 C147.33 216.01 147.66 215.02 148 214 C147.34 213.67 146.68 213.34 146 213 C146 214.32 146 215.64 146 217 C144.02 216.67 142.04 216.34 140 216 C139.67 216.99 139.34 217.98 139 219 C133.60353834 208.67069022 130.60712933 198.29842861 128 187 C127.75121094 185.99710938 127.50242187 184.99421875 127.24609375 183.9609375 C118.7726832 143.78630564 132.8299138 96.81596073 148 60 C143.05230986 61.32184558 139.72818997 63.5694578 135.875 66.8125 C130.00326099 71.53019693 124.20774129 74.65543643 117 77 C116.278125 77.24363281 115.55625 77.48726563 114.8125 77.73828125 C105.00327158 80.46925962 94.12909807 79.60926903 84.3125 77.5 C69.59177957 74.34924931 54.86589753 74.22340086 41.40625 81.37890625 C35.90345596 84.28776274 32.2734314 86.06329346 26 85 C19.90649468 80.36363725 18.80645532 74.72938136 17.625 67.5 C15.56582529 55.09533305 11.21484664 43.62507478 6.375 32.0625 C5.40194209 29.72075931 4.43052851 27.37833453 3.4609375 25.03515625 C3.03603027 24.0181665 2.61112305 23.00117676 2.17333984 21.95336914 C0.17260551 16.91739676 -1.27032336 12.70128275 -1.1875 7.25 C-1.18105469 6.30640625 -1.17460937 5.3628125 -1.16796875 4.390625 C-1 2 -1 2 0 0 Z " fill="#050705" transform="translate(402,175)"/>
<path d="M0 0 C4.52734979 4.18232871 7.89417867 8.86838108 11.375 13.9375 C11.98150391 14.81212891 12.58800781 15.68675781 13.21289062 16.58789062 C18.30301662 23.94377526 23.33785041 31.33795752 28.35913086 38.7409668 C31.55372852 43.44392683 34.77764446 48.12240101 38.05859375 52.765625 C38.70957031 53.68730469 39.36054687 54.60898437 40.03125 55.55859375 C41.27836609 57.31937856 42.5295134 59.07731682 43.78515625 60.83203125 C44.33945312 61.61449219 44.89375 62.39695312 45.46484375 63.203125 C45.955896 63.89051758 46.44694824 64.57791016 46.95288086 65.28613281 C48 67 48 67 48 69 C16.98 69 -14.04 69 -46 69 C-41.97227898 62.67072412 -37.95624854 56.35991573 -33.78515625 50.12890625 C-33.32572128 49.44046127 -32.86628632 48.7520163 -32.39292908 48.04270935 C-30.9505574 45.88189939 -29.50657734 43.72217032 -28.0625 41.5625 C-27.10210374 40.12442228 -26.14181674 38.68627159 -25.18164062 37.24804688 C-23.31861225 34.45767453 -21.45475724 31.66785715 -19.59033203 28.87841797 C-17.95854826 26.43642207 -16.32898901 23.99297976 -14.70263672 21.54736328 C-11.17886662 16.24972253 -7.63343574 10.97306388 -4 5.75 C-3.41025391 4.90115234 -3.41025391 4.90115234 -2.80859375 4.03515625 C-1.87340757 2.68940053 -0.93687098 1.34458336 0 0 Z " fill="#F0CA16" transform="translate(595,323)"/>
<path d="M0 0 C-0.573138 4.29853503 -1.62504468 7.8512375 -3.375 11.8125 C-5.52998092 16.81580354 -7.35589069 21.80807586 -9 27 C-11 24 -11 24 -10.6875 22 C-10.460625 21.34 -10.23375 20.68 -10 20 C-9.22227595 17.66682784 -8.57584432 15.38564077 -8 13 C-8.99 12.67 -9.98 12.34 -11 12 C-11 12.66 -11 13.32 -11 14 C-11.99 14 -12.98 14 -14 14 C-14.33 12.02 -14.66 10.04 -15 8 C-13.45025019 6.65186813 -11.88462935 5.3219657 -10.3125 4 C-9.44238281 3.2575 -8.57226562 2.515 -7.67578125 1.75 C-4.76416967 -0.15423648 -3.39853912 -0.39190361 0 0 Z " fill="#F1CC18" transform="translate(550,235)"/>
<path d="M0 0 C0.33 0.99 0.66 1.98 1 3 C2.32303717 3.3721042 3.65737935 3.70630173 5 4 C5.33 4.66 5.66 5.32 6 6 C6.99 6.33 7.98 6.66 9 7 C9.33 7.99 9.66 8.98 10 10 C8.9375 11.5625 8.9375 11.5625 7 13 C0.66666667 12.66666667 0.66666667 12.66666667 -2 10 C-2 8.68 -2 7.36 -2 6 C-3.65 5.67 -5.3 5.34 -7 5 C-7 4.34 -7 3.68 -7 3 C-5.35 2.34 -3.7 1.68 -2 1 C-2.33 1.99 -2.66 2.98 -3 4 C-2.34 4 -1.68 4 -1 4 C-0.67 2.68 -0.34 1.36 0 0 Z " fill="#030503" transform="translate(550,622)"/>
<path d="M0 0 C1.98 0.66 3.96 1.32 6 2 C6 2.99 6 3.98 6 5 C5.34 5 4.68 5 4 5 C3.67 5.99 3.34 6.98 3 8 C2.01 8.495 2.01 8.495 1 9 C0.731875 9.825 0.46375 10.65 0.1875 11.5 C-0.204375 12.325 -0.59625 13.15 -1 14 C-3.625 14.8125 -3.625 14.8125 -6 15 C-5.79375 14.4225 -5.5875 13.845 -5.375 13.25 C-4.91020077 10.46120465 -5.70116889 9.43530833 -7 7 C-6.67 6.34 -6.34 5.68 -6 5 C-5.01 5.33 -4.02 5.66 -3 6 C-2.67 5.34 -2.34 4.68 -2 4 C-1.01 4 -0.02 4 1 4 C0.01 3.34 -0.98 2.68 -2 2 C-1.34 1.34 -0.68 0.68 0 0 Z " fill="#040606" transform="translate(720,565)"/>
<path d="M0 0 C0.66 0.33 1.32 0.66 2 1 C1.34 2.65 0.68 4.3 0 6 C1.65 6.99 3.3 7.98 5 9 C5 8.34 5 7.68 5 7 C5.66 7 6.32 7 7 7 C7 6.34 7 5.68 7 5 C7.99 5 8.98 5 10 5 C10 3.68 10 2.36 10 1 C10.99 1 11.98 1 13 1 C11.59317287 6.15836613 8.26493469 9.89989694 4 13 C1.125 13 1.125 13 -1 12 C-2.87643761 10.12356239 -2.17984987 7.50194299 -2.23046875 5.0078125 C-2 3 -2 3 0 0 Z " fill="#120F08" transform="translate(596,624)"/>
<path d="M0 0 C-5.94 3.63 -11.88 7.26 -18 11 C-18.33 9.68 -18.66 8.36 -19 7 C-18.01 7 -17.02 7 -16 7 C-15.67 6.01 -15.34 5.02 -15 4 C-10.8357493 -1.28539511 -6.07463068 -3.03731534 0 0 Z " fill="#100F06" transform="translate(664,626)"/>
<path d="M0 0 C1.32 0.66 2.64 1.32 4 2 C3.01 2.495 3.01 2.495 2 3 C0.86897474 5.34038186 0.86897474 5.34038186 -0.125 8.0625 C-0.47820313 8.98160156 -0.83140625 9.90070312 -1.1953125 10.84765625 C-1.46085938 11.55792969 -1.72640625 12.26820313 -2 13 C-3.65 13 -5.3 13 -7 13 C-6.67 9.7 -6.34 6.4 -6 3 C-4.68 2.67 -3.36 2.34 -2 2 C-1.34 1.34 -0.68 0.68 0 0 Z " fill="#040504" transform="translate(747,538)"/>
<path d="M0 0 C0.33 0 0.66 0 1 0 C1.66 13.86 2.32 27.72 3 42 C1.515 42.495 1.515 42.495 0 43 C-1.38018297 39.16615843 -0.565398 35.95778601 0 32 C-0.34659295 29.67841935 -0.34659295 29.67841935 -1 28 C-0.67 28 -0.34 28 0 28 C0.33 25.36 0.66 22.72 1 20 C0.34 20 -0.32 20 -1 20 C-0.67 13.4 -0.34 6.8 0 0 Z " fill="#080905" transform="translate(396,340)"/>
<path d="M0 0 C0 0.33 0 0.66 0 1 C-0.96421875 1.06058594 -1.9284375 1.12117187 -2.921875 1.18359375 C-4.18515625 1.26738281 -5.4484375 1.35117188 -6.75 1.4375 C-8.00296875 1.51871094 -9.2559375 1.59992188 -10.546875 1.68359375 C-13.18317553 1.92515522 -15.48037294 2.24283934 -18 3 C-17.34 3.33 -16.68 3.66 -16 4 C-16 4.66 -16 5.32 -16 6 C-18.64 6.33 -21.28 6.66 -24 7 C-24 6.34 -24 5.68 -24 5 C-24.66 4.67 -25.32 4.34 -26 4 C-25.01 3.67 -24.02 3.34 -23 3 C-25.64 2.67 -28.28 2.34 -31 2 C-31 1.67 -31 1.34 -31 1 C-20.63946908 0.16639406 -10.3905794 -0.12288464 0 0 Z " fill="#CAAA14" transform="translate(528,152)"/>
<path d="M0 0 C0.99 0.33 1.98 0.66 3 1 C3.66 0.67 4.32 0.34 5 0 C4.74443878 2.58567818 4.47122959 5.16739048 4.1875 7.75 C4.11724609 8.47960937 4.04699219 9.20921875 3.97460938 9.9609375 C3.50187804 14.12097328 2.94211224 16.93697904 0 20 C-0.19522373 17.41703983 -0.38144403 14.83395921 -0.5625 12.25 C-0.61857422 11.52039063 -0.67464844 10.79078125 -0.73242188 10.0390625 C-0.97709908 6.45046349 -0.99666259 3.44972775 0 0 Z " fill="#EBC718" transform="translate(602,240)"/>
<path d="M0 0 C2.475 0.495 2.475 0.495 5 1 C5.33 2.32 5.66 3.64 6 5 C6.33 4.34 6.66 3.68 7 3 C9.5625 2.375 9.5625 2.375 12 2 C12 2.66 12 3.32 12 4 C12.99 4 13.98 4 15 4 C14.67 4.66 14.34 5.32 14 6 C13.34 5.67 12.68 5.34 12 5 C12 6.32 12 7.64 12 9 C9.03 8.505 9.03 8.505 6 8 C5.67 8.99 5.34 9.98 5 11 C3.35 7.37 1.7 3.74 0 0 Z " fill="#0D0C09" transform="translate(536,383)"/>
<path d="M0 0 C0.33 0.99 0.66 1.98 1 3 C0.67 3.66 0.34 4.32 0 5 C0.99 5.33 1.98 5.66 3 6 C1.625 7.5 1.625 7.5 0 9 C-0.66 9 -1.32 9 -2 9 C-2.99 9.33 -3.98 9.66 -5 10 C-5.66 10.12375 -6.32 10.2475 -7 10.375 C-9.35642189 11.11138184 -10.39866286 12.15846229 -12 14 C-12.99 13.67 -13.98 13.34 -15 13 C-14.00097656 12.14535156 -13.00195312 11.29070313 -11.97265625 10.41015625 C-10.66925232 9.29429246 -9.36586791 8.17840586 -8.0625 7.0625 C-7.0734668 6.21655273 -7.0734668 6.21655273 -6.06445312 5.35351562 C-5.43603516 4.81533203 -4.80761719 4.27714844 -4.16015625 3.72265625 C-3.57886963 3.22515869 -2.99758301 2.72766113 -2.39868164 2.21508789 C-1.57708043 1.5013317 -0.76957015 0.76957015 0 0 Z " fill="#0C0C08" transform="translate(703,580)"/>
<path d="M0 0 C0.66 0 1.32 0 2 0 C2 0.66 2 1.32 2 2 C2.66 2 3.32 2 4 2 C6.24828052 6.49656104 6.16682272 10.07872966 6 15 C6.66 15.33 7.32 15.66 8 16 C6.35 16.33 4.7 16.66 3 17 C3 15.02 3 13.04 3 11 C2.01 10.67 1.02 10.34 0 10 C0.66 7.69 1.32 5.38 2 3 C1.01 2.67 0.02 2.34 -1 2 C-0.67 1.34 -0.34 0.68 0 0 Z " fill="#030506" transform="translate(419,486)"/>
<path d="M0 0 C5.66261699 1.24577574 8.87452052 2.87452052 13 7 C13.875 9.3125 13.875 9.3125 14 11 C10.30123909 9.62712658 7.0485524 7.93644547 3.6875 5.875 C2.80449219 5.33617187 1.92148437 4.79734375 1.01171875 4.2421875 C0.34785156 3.83226562 -0.31601562 3.42234375 -1 3 C-0.67 2.01 -0.34 1.02 0 0 Z " fill="#0E0E06" transform="translate(517,522)"/>
<path d="M0 0 C0.99 0.33 1.98 0.66 3 1 C3.19655987 5.91399678 2.5399062 9.3802814 1 14 C0.54503845 17.32471903 0.25126353 20.65422777 0 24 C-0.33 24 -0.66 24 -1 24 C-1.02887236 20.18751574 -1.04675492 16.3750593 -1.0625 12.5625 C-1.07087891 11.47388672 -1.07925781 10.38527344 -1.08789062 9.26367188 C-1.09111328 8.22919922 -1.09433594 7.19472656 -1.09765625 6.12890625 C-1.10289307 5.17056885 -1.10812988 4.21223145 -1.11352539 3.22485352 C-1 1 -1 1 0 0 Z " fill="#E9C416" transform="translate(396,296)"/>
<path d="M0 0 C2 2 2 2 2 6 C0.68 6.33 -0.64 6.66 -2 7 C-2 7.66 -2 8.32 -2 9 C-2.66 9 -3.32 9 -4 9 C-4.33 10.32 -4.66 11.64 -5 13 C-6.65 13.33 -8.3 13.66 -10 14 C-7.20307439 8.72887096 -4.01764453 4.40601683 0 0 Z " fill="#E4C214" transform="translate(762,216)"/>
<path d="M0 0 C0 0.66 0 1.32 0 2 C-1.7015625 2.6496875 -1.7015625 2.6496875 -3.4375 3.3125 C-4.613125 3.869375 -5.78875 4.42625 -7 5 C-7.33 5.99 -7.66 6.98 -8 8 C-9.98 8 -11.96 8 -14 8 C-14 7.01 -14 6.02 -14 5 C-14.99 4.67 -15.98 4.34 -17 4 C-14.91891315 3.32635339 -12.8350329 2.66133202 -10.75 2 C-9.58984375 1.62875 -8.4296875 1.2575 -7.234375 0.875 C-4 0 -4 0 0 0 Z " fill="#181608" transform="translate(490,214)"/>
<path d="M0 0 C2.3125 2.5 2.3125 2.5 4 5 C2.5 6.1875 2.5 6.1875 0 7 C-2.78824238 6.27101296 -5.37665092 5.1843275 -8 4 C-7.67 3.01 -7.34 2.02 -7 1 C-4.37869511 -0.31065245 -2.90828303 -0.415469 0 0 Z " fill="#E5C318" transform="translate(539,480)"/>
<path d="M0 0 C0.33 1.32 0.66 2.64 1 4 C1.556875 4.99 1.556875 4.99 2.125 6 C3.21394868 8.48902555 2.89325337 9.48264959 2 12 C1.67 12.99 1.34 13.98 1 15 C-0.65 15.33 -2.3 15.66 -4 16 C-2.68 10.72 -1.36 5.44 0 0 Z " fill="#171508" transform="translate(540,262)"/>
<path d="M0 0 C1.5625 1 1.5625 1 3 3 C2.84646726 7.83628128 2.64323258 11.50249672 -1 15 C-1.66 15 -2.32 15 -3 15 C-2.69163768 12.87439563 -2.37818386 10.74952935 -2.0625 8.625 C-1.88847656 7.44164062 -1.71445312 6.25828125 -1.53515625 5.0390625 C-1 2 -1 2 0 0 Z " fill="#0F0F06" transform="translate(797,416)"/>
<path d="M0 0 C-0.4794463 4.21912747 -1.16625119 6.79663178 -4 10 C-4.2475 9.38125 -4.495 8.7625 -4.75 8.125 C-6.20628639 5.64931313 -7.37812506 5.04874998 -10 4 C-6.58908673 0.88145073 -4.68377325 -0.53528837 0 0 Z " fill="#E6C515" transform="translate(550,235)"/>
<path d="M0 0 C0.99 0 1.98 0 3 0 C3.66 5.61 4.32 11.22 5 17 C4.34 17 3.68 17 3 17 C1.79727181 14.59454362 1.89928528 13.05003047 1.9375 10.375 C1.94652344 9.55773437 1.95554687 8.74046875 1.96484375 7.8984375 C1.97644531 7.27195312 1.98804688 6.64546875 2 6 C1.01 6.33 0.02 6.66 -1 7 C-1 4.37886292 -0.68707555 2.49064888 0 0 Z " fill="#F0CA16" transform="translate(387,400)"/>
<path d="M0 0 C2.27141109 0.11402064 4.54214552 0.24158505 6.8125 0.375 C8.07707031 0.44460938 9.34164062 0.51421875 10.64453125 0.5859375 C14 1 14 1 17 3 C17.99 2.67 18.98 2.34 20 2 C19.67 3.32 19.34 4.64 19 6 C12.3227105 5.39297368 6.29872004 3.22368606 0 1 C0 0.67 0 0.34 0 0 Z " fill="#DCBB14" transform="translate(706,338)"/>
<path d="M0 0 C0.99 0 1.98 0 3 0 C3.79953138 3.28696233 4.09658936 4.71023192 3 8 C3 8.99 3 9.98 3 11 C1.02 11 -0.96 11 -3 11 C-2.88590407 9.54077307 -2.75834456 8.08259402 -2.625 6.625 C-2.55539062 5.81289063 -2.48578125 5.00078125 -2.4140625 4.1640625 C-2 2 -2 2 0 0 Z " fill="#E6C318" transform="translate(603,304)"/>
<path d="M0 0 C0 0.99 0 1.98 0 3 C-3.96 4.32 -7.92 5.64 -12 7 C-11.67 6.01 -11.34 5.02 -11 4 C-10.34 4 -9.68 4 -9 4 C-9.33 2.68 -9.66 1.36 -10 0 C-6.30581799 -1.231394 -3.7943739 -0.64432764 0 0 Z " fill="#E8C613" transform="translate(533,195)"/>
<path d="M0 0 C4.58716587 4.44381694 8.78762713 9.20228499 13 14 C12.34 14.66 11.68 15.32 11 16 C11 15.34 11 14.68 11 14 C10.34 14 9.68 14 9 14 C7.97702078 13.02351983 6.98095748 12.01868662 6 11 C5.278125 10.484375 4.55625 9.96875 3.8125 9.4375 C2.9153125 8.7259375 2.9153125 8.7259375 2 8 C2 7.34 2 6.68 2 6 C1.67 5.01 1.34 4.02 1 3 C0.34 2.67 -0.32 2.34 -1 2 C-0.67 1.34 -0.34 0.68 0 0 Z " fill="#E4C410" transform="translate(452,549)"/>
<path d="M0 0 C1.32 0.33 2.64 0.66 4 1 C1.36 3.64 -1.28 6.28 -4 9 C-4.99 8.67 -5.98 8.34 -7 8 C-6.67 6.68 -6.34 5.36 -6 4 C-5.360625 3.87625 -4.72125 3.7525 -4.0625 3.625 C-3.0415625 3.315625 -3.0415625 3.315625 -2 3 C-1.67 2.34 -1.34 1.68 -1 1 C-0.67 0.67 -0.34 0.34 0 0 Z " fill="#ECC71A" transform="translate(530,400)"/>
<path d="M0 0 C-1.37154504 2.95409701 -2.98863724 5.44008376 -5 8 C-9.75 7.25 -9.75 7.25 -12 5 C-10.37750059 4.16180842 -8.75191503 3.3295884 -7.125 2.5 C-6.22007812 2.0359375 -5.31515625 1.571875 -4.3828125 1.09375 C-2 0 -2 0 0 0 Z " fill="#E3C014" transform="translate(630,646)"/>
<path d="M0 0 C0.66 0 1.32 0 2 0 C2 0.66 2 1.32 2 2 C-0.1171875 3.5078125 -0.1171875 3.5078125 -2.875 5.125 C-3.77992188 5.66382813 -4.68484375 6.20265625 -5.6171875 6.7578125 C-8 8 -8 8 -10 8 C-9.34 5.69 -8.68 3.38 -8 1 C-6.865625 1.020625 -5.73125 1.04125 -4.5625 1.0625 C-1.18424326 1.41577477 -1.18424326 1.41577477 0 0 Z " fill="#0F0D06" transform="translate(571,457)"/>
<path d="M0 0 C1.32 0.33 2.64 0.66 4 1 C5.31909709 7.4489191 4.69508823 13.48755792 4 20 C3.67 20 3.34 20 3 20 C2.95101562 19.2265625 2.90203125 18.453125 2.8515625 17.65625 C2.41252377 11.53998633 1.69992464 5.89307209 0 0 Z " fill="#181506" transform="translate(594,600)"/>
<path d="M0 0 C3.25696479 0.41755959 4.63443291 0.63443291 7 3 C6.625 5.625 6.625 5.625 6 8 C4.68 7.67 3.36 7.34 2 7 C1.87625 6.195625 1.7525 5.39125 1.625 4.5625 C1.315625 3.2940625 1.315625 3.2940625 1 2 C0.34 1.67 -0.32 1.34 -1 1 C-0.67 0.67 -0.34 0.34 0 0 Z " fill="#181709" transform="translate(785,184)"/>
<path d="M0 0 C0.66 0.66 1.32 1.32 2 2 C3.2375 3.2065625 3.2375 3.2065625 4.5 4.4375 C7 7 7 7 9 10 C5.39426104 10 4.58663434 9.18292538 1.8125 7 C1.09707031 6.443125 0.38164063 5.88625 -0.35546875 5.3125 C-0.89816406 4.879375 -1.44085937 4.44625 -2 4 C-1.34 2.68 -0.68 1.36 0 0 Z M8 4 C8.33 4.66 8.66 5.32 9 6 C8.01 5.67 7.02 5.34 6 5 C6.66 4.67 7.32 4.34 8 4 Z " fill="#110F09" transform="translate(520,609)"/>
<path d="M0 0 C0.99 0.33 1.98 0.66 3 1 C3 1.66 3 2.32 3 3 C3.99 2.67 4.98 2.34 6 2 C6 3.98 6 5.96 6 8 C6.66 8.33 7.32 8.66 8 9 C8.75 10.9375 8.75 10.9375 9 13 C8.34 13.66 7.68 14.32 7 15 C4.69 10.05 2.38 5.1 0 0 Z " fill="#181606" transform="translate(414,488)"/>
<path d="M0 0 C0.33 0 0.66 0 1 0 C1 2.31 1 4.62 1 7 C1.66 7 2.32 7 3 7 C3.33 7.99 3.66 8.98 4 10 C2.71034824 11.37562854 1.37310707 12.70766393 0 14 C-0.66 14 -1.32 14 -2 14 C-1.34 9.38 -0.68 4.76 0 0 Z M5 7 C5.33 7.66 5.66 8.32 6 9 C5.34 8.67 4.68 8.34 4 8 C4.33 7.67 4.66 7.34 5 7 Z " fill="#151309" transform="translate(721,265)"/>
<path d="M0 0 C1 3 1 3 1 6 C0.01 6.495 0.01 6.495 -1 7 C-1.71727778 8.64551962 -2.38325228 10.31422289 -3 12 C-3.33 12.66 -3.66 13.32 -4 14 C-4.99 12.35 -5.98 10.7 -7 9 C-6.57847656 8.51789062 -6.15695312 8.03578125 -5.72265625 7.5390625 C-5.17480469 6.90742187 -4.62695312 6.27578125 -4.0625 5.625 C-3.51722656 4.99851562 -2.97195313 4.37203125 -2.41015625 3.7265625 C-0.93041376 2.04367666 -0.93041376 2.04367666 0 0 Z M1 4 C1.66 4 2.32 4 3 4 C2.67 4.66 2.34 5.32 2 6 C1.67 5.34 1.34 4.68 1 4 Z " fill="#E1C015" transform="translate(609,625)"/>
<path d="M0 0 C0.66 0.33 1.32 0.66 2 1 C2.44921875 2.9609375 2.44921875 2.9609375 2.6875 5.375 C2.77386719 6.16648437 2.86023438 6.95796875 2.94921875 7.7734375 C3 10 3 10 2 13 C1.01 12.67 0.02 12.34 -1 12 C-1.02687279 10.18757948 -1.04633715 8.37504767 -1.0625 6.5625 C-1.07410156 5.55316406 -1.08570313 4.54382813 -1.09765625 3.50390625 C-1 1 -1 1 0 0 Z " fill="#E7C314" transform="translate(594,604)"/>
<path d="M0 0 C0.33 0 0.66 0 1 0 C1.32523926 3.57763189 1.42956587 5.39542581 -0.6875 8.375 C-3.38790237 10.27258004 -4.77060081 10.35882213 -8 10 C-7.59007812 9.52949219 -7.18015625 9.05898438 -6.7578125 8.57421875 C-6.21898437 7.95160156 -5.68015625 7.32898438 -5.125 6.6875 C-4.59132813 6.07261719 -4.05765625 5.45773437 -3.5078125 4.82421875 C-1.8359553 2.86501788 -1.8359553 2.86501788 0 0 Z " fill="#E6C414" transform="translate(740,557)"/>
<path d="M0 0 C-1.5 2 -1.5 2 -4 4 C-6.75871627 4.35800135 -9.20097524 4.18660165 -12 4 C-12 3.34 -12 2.68 -12 2 C-13.65 2 -15.3 2 -17 2 C-17 1.67 -17 1.34 -17 1 C-11.29014022 0.25983299 -5.75813575 -0.10469338 0 0 Z " fill="#DAB917" transform="translate(476,155)"/>
<path d="M0 0 C0.33 0.66 0.66 1.32 1 2 C0.01 2.66 -0.98 3.32 -2 4 C-2.25030977 6.58380177 -2.25030977 6.58380177 -2 9 C-3.65 9.33 -5.3 9.66 -7 10 C-7 11.65 -7 13.3 -7 15 C-7.33 15 -7.66 15 -8 15 C-8.42056594 11.56537817 -8.63981991 9.00514918 -6.734375 6.01171875 C-2.80099278 1.40049639 -2.80099278 1.40049639 0 0 Z " fill="#1B1709" transform="translate(719,210)"/>
<path d="M0 0 C2 4 2 4 1.4375 6.125 C-0.40333211 8.52608536 -2.15576074 9.10181918 -5 10 C-5.66 9.34 -6.32 8.68 -7 8 C-4.69 5.36 -2.38 2.72 0 0 Z " fill="#171407" transform="translate(734,547)"/>
<path d="M0 0 C1.33895632 1.66215268 2.67130142 3.32963607 4 5 C4.5775 5.721875 5.155 6.44375 5.75 7.1875 C7 9 7 9 7 11 C4.13275314 10.42655063 3.1385485 10.1385485 1 8 C0.30062468 6.68352881 -0.36729133 5.34977849 -1 4 C-1.33 3.34 -1.66 2.68 -2 2 C-1.34 2 -0.68 2 0 2 C0 1.34 0 0.68 0 0 Z " fill="#E5C317" transform="translate(618,355)"/>
<path d="M0 0 C1.32 0 2.64 0 4 0 C4 0.99 4 1.98 4 3 C2.35 3.66 0.7 4.32 -1 5 C-1 5.66 -1 6.32 -1 7 C-2.65 7.33 -4.3 7.66 -6 8 C-5.09970429 6.65555841 -4.17911978 5.32468562 -3.25 4 C-2.48429688 2.88625 -2.48429688 2.88625 -1.703125 1.75 C-0.86007812 0.88375 -0.86007812 0.88375 0 0 Z " fill="#E8C419" transform="translate(769,208)"/>
<path d="M0 0 C3.64566574 2.43044383 3.9977335 3.82388959 5 8 C4.625 10.375 4.625 10.375 4 12 C3.01 11.67 2.02 11.34 1 11 C0.66666667 9.33333333 0.33333333 7.66666667 0 6 C-0.20625 5.0925 -0.4125 4.185 -0.625 3.25 C-0.74875 2.5075 -0.8725 1.765 -1 1 C-0.67 0.67 -0.34 0.34 0 0 Z M1 4 C2 6 2 6 2 6 Z " fill="#100E08" transform="translate(587,201)"/>
<path d="M0 0 C2.53910197 0.38520564 3.72751123 0.70097943 5.484375 2.62890625 C5.90203125 3.26699219 6.3196875 3.90507813 6.75 4.5625 C7.17796875 5.20316406 7.6059375 5.84382812 8.046875 6.50390625 C8.36140625 6.99761719 8.6759375 7.49132812 9 8 C8.67 8.66 8.34 9.32 8 10 C7.401875 9.505 6.80375 9.01 6.1875 8.5 C4.02970006 6.71723582 4.02970006 6.71723582 1 7 C1 6.34 1 5.68 1 5 C1.99 5 2.98 5 4 5 C4 4.34 4 3.68 4 3 C3.01 3 2.02 3 1 3 C0.67 2.01 0.34 1.02 0 0 Z " fill="#E5C416" transform="translate(580,568)"/>
<path d="M0 0 C0.33 0 0.66 0 1 0 C1.33 8.58 1.66 17.16 2 26 C1.67 26 1.34 26 1 26 C1 24.02 1 22.04 1 20 C0.34 20 -0.32 20 -1 20 C-0.67 13.4 -0.34 6.8 0 0 Z " fill="#3A320C" transform="translate(396,340)"/>
<path d="M0 0 C-5.91684902 5.05908096 -5.91684902 5.05908096 -10.4375 4.8125 C-11.7059375 4.4103125 -11.7059375 4.4103125 -13 4 C-8.74310869 0.5314219 -5.44072603 -1.61377467 0 0 Z " fill="#130F06" transform="translate(778,186)"/>
<path d="M0 0 C0.66 0 1.32 0 2 0 C2.33 3.63 2.66 7.26 3 11 C1.68 11 0.36 11 -1 11 C-1.14285714 3.57142857 -1.14285714 3.57142857 0 0 Z " fill="#E6C212" transform="translate(810,400)"/>
<path d="M0 0 C2.21399303 3.79541663 3.00980198 7.75629421 4 12 C1 11 1 11 -1 9 C-1.75 5.5 -1.75 5.5 -2 2 C-1.34 1.34 -0.68 0.68 0 0 Z " fill="#DFBD16" transform="translate(532,371)"/>
<path d="M0 0 C0.33 0 0.66 0 1 0 C1.08082094 1.95766281 1.13910778 3.91626728 1.1875 5.875 C1.22230469 6.96554688 1.25710938 8.05609375 1.29296875 9.1796875 C1.19628906 10.11039063 1.09960938 11.04109375 1 12 C0.01 12.66 -0.98 13.32 -2 14 C-3.32854177 8.0819503 -2.66464729 5.22270869 0 0 Z " fill="#1A1708" transform="translate(749,236)"/>
<path d="M0 0 C0 3 0 3 -1.4375 4.625 C-5.14606533 6.61496188 -8.84635683 6.74261613 -13 7 C-10.63456284 4.63456284 -8.42932795 3.72458677 -5.375 2.375 C-4.37210938 1.92898438 -3.36921875 1.48296875 -2.3359375 1.0234375 C-1.56507813 0.68570313 -0.79421875 0.34796875 0 0 Z " fill="#141308" transform="translate(616,640)"/>
<path d="M0 0 C1.79379098 0.44994757 3.58498928 0.91024143 5.375 1.375 C6.37273438 1.63023437 7.37046875 1.88546875 8.3984375 2.1484375 C11 3 11 3 13 5 C11.20866022 5.05391993 9.41686101 5.09275571 7.625 5.125 C6.62726562 5.14820313 5.62953125 5.17140625 4.6015625 5.1953125 C2 5 2 5 0 3 C0 2.01 0 1.02 0 0 Z " fill="#100E06" transform="translate(612,552)"/>
<path d="M0 0 C2.39489543 0.74324341 3.70777616 1.47057354 4.93359375 3.69140625 C5.67219923 5.44073501 6.34049685 7.21934149 7 9 C6.01 9 5.02 9 4 9 C1.25 6.1875 1.25 6.1875 -1 3 C-0.67 2.01 -0.34 1.02 0 0 Z " fill="#E3C117" transform="translate(563,497)"/>
<path d="M0 0 C0.66 0.33 1.32 0.66 2 1 C2 1.66 2 2.32 2 3 C1.34 3 0.68 3 0 3 C0 3.66 0 4.32 0 5 C-2 6.625 -2 6.625 -4 8 C-5.32 7.34 -6.64 6.68 -8 6 C-5.36 4.02 -2.72 2.04 0 0 Z " fill="#E8C616" transform="translate(606,436)"/>
<path d="M0 0 C0.33 0 0.66 0 1 0 C1.33 5.94 1.66 11.88 2 18 C-1 18 -1 18 -3 17 C-2.01 15.515 -2.01 15.515 -1 14 C-0.70547416 11.61322924 -0.5071783 9.21373906 -0.375 6.8125 C-0.30023437 5.54019531 -0.22546875 4.26789063 -0.1484375 2.95703125 C-0.09945312 1.98121094 -0.05046875 1.00539063 0 0 Z " fill="#C8AC15" transform="translate(770,360)"/>
<path d="M0 0 C0.99 0.33 1.98 0.66 3 1 C0.14723863 3.93200474 -2.65079784 6.64315404 -6 9 C-6.33 7.35 -6.66 5.7 -7 4 C-5.35 4 -3.7 4 -2 4 C-2 3.01 -2 2.02 -2 1 C-1.34 0.67 -0.68 0.34 0 0 Z " fill="#171406" transform="translate(700,594)"/>
<path d="M0 0 C0.66 0.33 1.32 0.66 2 1 C2 3.97 2 6.94 2 10 C0.02 10.99 0.02 10.99 -2 12 C-1.85831863 10.56208484 -1.71148957 9.1246763 -1.5625 7.6875 C-1.48128906 6.88699219 -1.40007813 6.08648438 -1.31640625 5.26171875 C-1 3 -1 3 0 0 Z " fill="#E7C118" transform="translate(618,583)"/>
<path d="M0 0 C0.99 0 1.98 0 3 0 C4.49140021 3.62197194 5.7874262 7.27566618 7 11 C6.01 11.495 6.01 11.495 5 12 C4.15885829 10.56705502 3.32734313 9.12845595 2.5 7.6875 C1.80390625 6.48673828 1.80390625 6.48673828 1.09375 5.26171875 C0 3 0 3 0 0 Z " fill="#E3C213" transform="translate(432,497)"/>
<path d="M0 0 C0 1.32 0 2.64 0 4 C-0.61875 4.144375 -1.2375 4.28875 -1.875 4.4375 C-4.03258322 4.93152225 -4.03258322 4.93152225 -6 6 C-6 5.34 -6 4.68 -6 4 C-6.99 3.67 -7.98 3.34 -9 3 C-5.92807025 0.26939578 -4.09590633 -0.34132553 0 0 Z " fill="#E9C615" transform="translate(616,432)"/>
<path d="M0 0 C3.3 1.98 6.6 3.96 10 6 C5.6371591 7.09071022 4.88012354 6.73584474 1 5 C0.34 5 -0.32 5 -1 5 C-0.67 3.35 -0.34 1.7 0 0 Z " fill="#DFC016" transform="translate(531,622)"/>
<path d="M0 0 C8.44646925 6.15034169 8.44646925 6.15034169 12 10 C10.35 9.67 8.7 9.34 7 9 C7 8.34 7 7.68 7 7 C6.01 7 5.02 7 4 7 C0 2.65714286 0 2.65714286 0 0 Z " fill="#E3C114" transform="translate(497,596)"/>
<path d="M0 0 C0.66 0 1.32 0 2 0 C2.25 6.625 2.25 6.625 0 10 C-0.66 10 -1.32 10 -2 10 C-1.125 2.25 -1.125 2.25 0 0 Z " fill="#DFBE13" transform="translate(804,435)"/>
<path d="M0 0 C0.33 0.66 0.66 1.32 1 2 C0.67 2.99 0.34 3.98 0 5 C-0.66 5 -1.32 5 -2 5 C-2.33 6.65 -2.66 8.3 -3 10 C-5.475 9.01 -5.475 9.01 -8 8 C-5.33333333 5.33333333 -2.66666667 2.66666667 0 0 Z " fill="#E4C312" transform="translate(700,597)"/>
<path d="M0 0 C0.99 0 1.98 0 3 0 C3 0.66 3 1.32 3 2 C3.66 2 4.32 2 5 2 C5.33 1.34 5.66 0.68 6 0 C5.50168276 3.68754757 4.89932357 5.60490662 2 8 C2 7.01 2 6.02 2 5 C1.01 5.495 1.01 5.495 0 6 C0 4.02 0 2.04 0 0 Z " fill="#EBC810" transform="translate(800,448)"/>
<path d="M0 0 C3.39417765 3.12621626 5.6062718 5.56541027 7 10 C3.91505409 8.9716847 2.91731521 8.52737004 1 6 C0.3125 2.8125 0.3125 2.8125 0 0 Z " fill="#1B1909" transform="translate(407,175)"/>
<path d="M0 0 C0.66 1.32 1.32 2.64 2 4 C-0.57213134 5.61949011 -1.67669159 6.04408751 -4.75 5.625 C-5.4925 5.41875 -6.235 5.2125 -7 5 C-2.25 1.125 -2.25 1.125 0 0 Z " fill="#EAC713" transform="translate(653,632)"/>
<path d="M0 0 C0.350625 0.515625 0.70125 1.03125 1.0625 1.5625 C0.0725 3.0475 0.0725 3.0475 -0.9375 4.5625 C-3.5775 3.2425 -6.2175 1.9225 -8.9375 0.5625 C-8.9375 0.2325 -8.9375 -0.0975 -8.9375 -0.4375 C-2.41442308 -1.79134615 -2.41442308 -1.79134615 0 0 Z " fill="#EAC615" transform="translate(582.9375,635.4375)"/>
<path d="M0 0 C-2.31 2.31 -4.62 4.62 -7 7 C-8 4 -8 4 -7.25 1.875 C-5.12549708 -1.31175437 -3.46820912 -1.15606971 0 0 Z " fill="#1A1808" transform="translate(639,409)"/>
<path d="M0 0 C0.33 0 0.66 0 1 0 C1.36552803 1.41377782 1.71695495 2.83120576 2.0625 4.25 C2.25972656 5.03890625 2.45695313 5.8278125 2.66015625 6.640625 C3.01497267 9.10394822 2.76877544 10.65604132 2 13 C1.34 13 0.68 13 0 13 C-1.28571429 4.57142857 -1.28571429 4.57142857 0 0 Z " fill="#1B1A07" transform="translate(762,315)"/>
<path d="M0 0 C3.96 0.33 7.92 0.66 12 1 C12 1.33 12 1.66 12 2 C10.02 2.33 8.04 2.66 6 3 C6.66 3.66 7.32 4.32 8 5 C6.02 5 4.04 5 2 5 C1.34 3.35 0.68 1.7 0 0 Z " fill="#D7B611" transform="translate(781,160)"/>
<path d="M0 0 C4.77576339 0.4682121 8.04476345 1.24331998 12 4 C11.67 4.66 11.34 5.32 11 6 C6.95743617 4.77782954 3.50711041 3.37245704 0 1 C0 0.67 0 0.34 0 0 Z " fill="#E2BF19" transform="translate(587,641)"/>
<path d="M0 0 C0.33 0 0.66 0 1 0 C1 1.98 1 3.96 1 6 C1.66 6 2.32 6 3 6 C3 6.66 3 7.32 3 8 C-2.75 9.125 -2.75 9.125 -5 8 C-4.360625 7.236875 -3.72125 6.47375 -3.0625 5.6875 C-0.85767219 3.11753287 -0.85767219 3.11753287 0 0 Z " fill="#DDBC18" transform="translate(628,567)"/>
<path d="M0 0 C0 3 0 3 -1 5 C-1.66 5 -2.32 5 -3 5 C-3.33 5.66 -3.66 6.32 -4 7 C-5.65 6.67 -7.3 6.34 -9 6 C-6.11912454 3.59927045 -3.43595166 1.52708963 0 0 Z " fill="#E4C216" transform="translate(563,464)"/>
<path d="M0 0 C2.31 0.66 4.62 1.32 7 2 C4.38485683 4.12038635 1.80362384 6.13091744 -1 8 C-1 7.34 -1 6.68 -1 6 C-1.66 5.67 -2.32 5.34 -3 5 C-1.68 5 -0.36 5 1 5 C0.67 3.35 0.34 1.7 0 0 Z " fill="#141108" transform="translate(591,440)"/>
<path d="M0 0 C1.32 0.66 2.64 1.32 4 2 C1.51047079 4.66735273 -0.63408134 6.55746343 -4 8 C-4.33 7.01 -4.66 6.02 -5 5 C-3.35 4.34 -1.7 3.68 0 3 C0 2.01 0 1.02 0 0 Z " fill="#E4C313" transform="translate(662,608)"/>
<path d="M0 0 C0.625 1.875 0.625 1.875 1 4 C-1 6 -1 6 -4.625 6.125 C-5.73875 6.08375 -6.8525 6.0425 -8 6 C-5.38485683 3.87961365 -2.80362384 1.86908256 0 0 Z " fill="#E0BE14" transform="translate(584,451)"/>
<path d="M0 0 C0.33 0.66 0.66 1.32 1 2 C1.99 2 2.98 2 4 2 C3.67 3.65 3.34 5.3 3 7 C2.34 7 1.68 7 1 7 C0.67 7.66 0.34 8.32 0 9 C-0.87890625 2.84765625 -0.87890625 2.84765625 -1 1 C-0.67 0.67 -0.34 0.34 0 0 Z " fill="#131206" transform="translate(394,422)"/>
<path d="M0 0 C0.99 0.33 1.98 0.66 3 1 C1.02 3.31 -0.96 5.62 -3 8 C-3.66 7.34 -4.32 6.68 -5 6 C-3.86525052 2.59575156 -3.03188696 1.78346291 0 0 Z " fill="#E3C214" transform="translate(520,411)"/>
<path d="M0 0 C0.66 0.33 1.32 0.66 2 1 C0.68 4.96 -0.64 8.92 -2 13 C-4 10 -4 10 -3.6875 8 C-3.460625 7.34 -3.23375 6.68 -3 6 C-2.67 5.01 -2.34 4.02 -2 3 C-1.34 2.01 -0.68 1.02 0 0 Z " fill="#E1BE15" transform="translate(543,249)"/>
<path d="M0 0 C2.64752004 2.57784846 4.94432065 4.91648098 7 8 C4.69 7.34 2.38 6.68 0 6 C0 4.02 0 2.04 0 0 Z " fill="#E0C217" transform="translate(477,494)"/>
<path d="M0 0 C0.99 0.33 1.98 0.66 3 1 C3 1.66 3 2.32 3 3 C3.66 3.33 4.32 3.66 5 4 C3.68 4 2.36 4 1 4 C0.855625 4.61875 0.71125 5.2375 0.5625 5.875 C0 8 0 8 -1 10 C-1.66 9.67 -2.32 9.34 -3 9 C-2.690625 8.443125 -2.38125 7.88625 -2.0625 7.3125 C-0.94238179 4.87459567 -0.43962636 2.63775814 0 0 Z " fill="#030604" transform="translate(428,498)"/>
<path d="M0 0 C0.68707555 2.49064888 1 4.37886292 1 7 C-0.65 7.66 -2.3 8.32 -4 9 C-2.94124926 5.59687262 -1.99097846 2.98646769 0 0 Z " fill="#171408" transform="translate(499,444)"/>
<path d="M0 0 C0.66 0.66 1.32 1.32 2 2 C1.7578125 4.3828125 1.7578125 4.3828125 1.125 7.125 C0.92132812 8.03507812 0.71765625 8.94515625 0.5078125 9.8828125 C0.34023438 10.58148438 0.17265625 11.28015625 0 12 C-0.66 11.67 -1.32 11.34 -2 11 C-1.85892253 9.54119891 -1.71197585 8.08296449 -1.5625 6.625 C-1.48128906 5.81289063 -1.40007813 5.00078125 -1.31640625 4.1640625 C-1 2 -1 2 0 0 Z " fill="#EBC714" transform="translate(788,442)"/>
<path d="M0 0 C1.65 0.33 3.3 0.66 5 1 C5 1.66 5 2.32 5 3 C-0.75 6 -0.75 6 -3 6 C-3 5.34 -3 4.68 -3 4 C-2.34 3.67 -1.68 3.34 -1 3 C-0.67 2.01 -0.34 1.02 0 0 Z " fill="#141107" transform="translate(445,250)"/>
<path d="M0 0 C0.33 0.99 0.66 1.98 1 3 C1.33 3.66 1.66 4.32 2 5 C1.01 5 0.02 5 -1 5 C-1.33 5.99 -1.66 6.98 -2 8 C-2.99 7.01 -3.98 6.02 -5 5 C-3.35 3.35 -1.7 1.7 0 0 Z " fill="#1F1908" transform="translate(719,564)"/>
<path d="M0 0 C2.97 1.98 2.97 1.98 6 4 C5.34 4.66 4.68 5.32 4 6 C1.06546739 5.63318342 0.13562754 5.13562754 -2 3 C-1.34 2.67 -0.68 2.34 0 2 C0 1.34 0 0.68 0 0 Z " fill="#E3C214" transform="translate(573,561)"/>
<path d="M0 0 C0.66 0 1.32 0 2 0 C1.8125 2.8125 1.8125 2.8125 1 6 C-1.5625 7.875 -1.5625 7.875 -4 9 C-2.80100302 5.9168649 -1.52299523 2.93720508 0 0 Z " fill="#0F0E06" transform="translate(772,490)"/>
<path d="M0 0 C1.32 0.33 2.64 0.66 4 1 C2.515 4.96 2.515 4.96 1 9 C0.67 9 0.34 9 0 9 C0 6.03 0 3.06 0 0 Z " fill="#EAC716" transform="translate(476,482)"/>
<path d="M0 0 C1.32 0.33 2.64 0.66 4 1 C1.0278901 2.9814066 -0.49389321 3.7434556 -4 4 C-6.3125 2.5625 -6.3125 2.5625 -8 1 C-2.25 0.875 -2.25 0.875 0 2 C0 1.34 0 0.68 0 0 Z " fill="#120E06" transform="translate(740,386)"/>
<path d="M0 0 C0.97608217 2.92824652 1.08226668 4.95613276 1 8 C-0.98 8.33 -2.96 8.66 -5 9 C-3.35 6.03 -1.7 3.06 0 0 Z " fill="#DDBF14" transform="translate(573,355)"/>
<path d="M0 0 C0.66 0 1.32 0 2 0 C1.67 2.31 1.34 4.62 1 7 C-0.98 5.35 -2.96 3.7 -5 2 C-4.34 1.67 -3.68 1.34 -3 1 C-2.34 1.33 -1.68 1.66 -1 2 C-0.67 1.34 -0.34 0.68 0 0 Z " fill="#DBBC14" transform="translate(445,213)"/>
<path d="M0 0 C0 3 0 3 -1.125 4.625 C-3.64613093 6.47382935 -5.93350175 6.65927797 -9 7 C-6.24479785 4.04070881 -3.53372712 1.96318174 0 0 Z " fill="#141406" transform="translate(763,190)"/>
<path d="M0 0 C0.33 0 0.66 0 1 0 C1.33 3.63 1.66 7.26 2 11 C1.34 11 0.68 11 0 11 C-1.28571429 3.57142857 -1.28571429 3.57142857 0 0 Z " fill="#CBAD13" transform="translate(390,406)"/>
<path d="M0 0 C0.66 0.33 1.32 0.66 2 1 C2.40729228 3.32156597 2.74438677 5.6568787 3 8 C1.68 7.67 0.36 7.34 -1 7 C-0.67 4.69 -0.34 2.38 0 0 Z " fill="#151209" transform="translate(596,228)"/>
<path d="M0 0 C0.66 0 1.32 0 2 0 C2 3.63 2 7.26 2 11 C0.35122815 7.70245629 -0.53158436 5.55995883 -1 2 C-0.67 1.34 -0.34 0.68 0 0 Z " fill="#EAC418" transform="translate(596,218)"/>
<path d="M0 0 C2.97 1.65 5.94 3.3 9 5 C7.02 5.99 7.02 5.99 5 7 C4.34 6.34 3.68 5.68 3 5 C2.01 4.34 1.02 3.68 0 3 C0 2.01 0 1.02 0 0 Z " fill="#181308" transform="translate(551,622)"/>
<path d="M0 0 C2.31 0.33 4.62 0.66 7 1 C7.33 2.32 7.66 3.64 8 5 C4.62496331 3.8141763 2.35277269 2.72426311 0 0 Z " fill="#E1C217" transform="translate(552,622)"/>
<path d="M0 0 C0.6875 1.8125 0.6875 1.8125 1 4 C-0.4375 5.75 -0.4375 5.75 -2 7 C-2.99 6.34 -3.98 5.68 -5 5 C-3.35 3.35 -1.7 1.7 0 0 Z " fill="#231E08" transform="translate(713,570)"/>
<path d="M0 0 C2.31 1.98 4.62 3.96 7 6 C6.34 6.66 5.68 7.32 5 8 C3.5 6.625 3.5 6.625 2 5 C2 4.34 2 3.68 2 3 C1.01 2.67 0.02 2.34 -1 2 C-0.67 1.34 -0.34 0.68 0 0 Z " fill="#E1C114" transform="translate(469,569)"/>
<path d="M0 0 C3.93846154 3.32307692 3.93846154 3.32307692 4.25 6.75 C4.1675 7.4925 4.085 8.235 4 9 C0.06153846 5.67692308 0.06153846 5.67692308 -0.25 2.25 C-0.1675 1.5075 -0.085 0.765 0 0 Z " fill="#E6C613" transform="translate(467,545)"/>
<path d="M0 0 C0.66 0.99 1.32 1.98 2 3 C1.1875 4.9375 1.1875 4.9375 0 7 C-0.99 7.33 -1.98 7.66 -3 8 C-1.125 2.25 -1.125 2.25 0 0 Z " fill="#DFBF13" transform="translate(786,486)"/>
<path d="M0 0 C0.99 0.99 1.98 1.98 3 3 C2.34 3 1.68 3 1 3 C0.67 3.99 0.34 4.98 0 6 C-2.0625 6.6875 -2.0625 6.6875 -4 7 C-2.68 4.69 -1.36 2.38 0 0 Z " fill="#DCBC15" transform="translate(584,339)"/>
<path d="M0 0 C0.66 0 1.32 0 2 0 C2.25 6.625 2.25 6.625 0 10 C-1.125 2.25 -1.125 2.25 0 0 Z " fill="#E0BF16" transform="translate(756,278)"/>
<path d="M0 0 C1.65 0 3.3 0 5 0 C5 0.99 5 1.98 5 3 C3.35 3.66 1.7 4.32 0 5 C0 3.35 0 1.7 0 0 Z " fill="#DEBC18" transform="translate(545,235)"/>
<path d="M0 0 C0.33 0.66 0.66 1.32 1 2 C0.67 2.66 0.34 3.32 0 4 C-2.97 4 -5.94 4 -9 4 C-6.01353231 2.00902154 -3.40312738 1.05875074 0 0 Z " fill="#211D0A" transform="translate(501,209)"/>
<path d="M0 0 C-1.98 0.99 -1.98 0.99 -4 2 C-3.67 2.66 -3.34 3.32 -3 4 C-4.32 4.33 -5.64 4.66 -7 5 C-7.33 3.68 -7.66 2.36 -8 1 C-2.25 -1.125 -2.25 -1.125 0 0 Z " fill="#221D09" transform="translate(550,193)"/>
<path d="M0 0 C0.33 0.99 0.66 1.98 1 3 C-1.39509338 5.89932357 -3.31245243 6.50168276 -7 7 C-4.66666667 4.66666667 -2.33333333 2.33333333 0 0 Z " fill="#181407" transform="translate(703,580)"/>
<path d="M0 0 C0.598125 0.165 1.19625 0.33 1.8125 0.5 C4.11344336 1.1114124 4.11344336 1.1114124 7 1 C6.01 2.485 6.01 2.485 5 4 C3.35 3.67 1.7 3.34 0 3 C0 2.01 0 1.02 0 0 Z " fill="#020405" transform="translate(463,554)"/>
<path d="M0 0 C2.0625 1.75 2.0625 1.75 4 4 C3.75 6.25 3.75 6.25 3 8 C1.35 6.02 -0.3 4.04 -2 2 C-1.34 1.34 -0.68 0.68 0 0 Z " fill="#171407" transform="translate(458,552)"/>
<path d="M0 0 C2.12508244 3.18762365 2.5020163 5.26512223 3 9 C2.01 9 1.02 9 0 9 C0 6.03 0 3.06 0 0 Z " fill="#D6B614" transform="translate(398,446)"/>
<path d="M0 0 C1.45742463 -0.08096803 2.91612807 -0.13917774 4.375 -0.1875 C5.18710937 -0.22230469 5.99921875 -0.25710937 6.8359375 -0.29296875 C7.55007813 -0.19628906 8.26421875 -0.09960938 9 0 C9.66 0.99 10.32 1.98 11 3 C9.02 3 7.04 3 5 3 C5 2.67 5 2.34 5 2 C3.35 1.67 1.7 1.34 0 1 C0 0.67 0 0.34 0 0 Z " fill="#E2BE15" transform="translate(457,250)"/>
<path d="M0 0 C0.99 0.33 1.98 0.66 3 1 C2.67 2.32 2.34 3.64 2 5 C-0.64 4.34 -3.28 3.68 -6 3 C-6 2.67 -6 2.34 -6 2 C-4.02 2 -2.04 2 0 2 C0 1.34 0 0.68 0 0 Z " fill="#E4C214" transform="translate(580,185)"/>
<path d="M0 0 C1.423125 0.2784375 1.423125 0.2784375 2.875 0.5625 C5.89868793 1.28686632 5.89868793 1.28686632 8 0 C7.6875 1.9375 7.6875 1.9375 7 4 C6.01 4.33 5.02 4.66 4 5 C1.8125 3.6875 1.8125 3.6875 0 2 C0 1.34 0 0.68 0 0 Z " fill="#E8C718" transform="translate(594,635)"/>
<path d="M0 0 C1.32 0 2.64 0 4 0 C4.66 1.98 5.32 3.96 6 6 C3.5625 5.25 3.5625 5.25 1 4 C0.1875 1.875 0.1875 1.875 0 0 Z " fill="#171404" transform="translate(544,628)"/>
<path d="M0 0 C4.875 4.75 4.875 4.75 6 7 C4.0625 6.6875 4.0625 6.6875 2 6 C1.67 5.01 1.34 4.02 1 3 C0.34 2.67 -0.32 2.34 -1 2 C-0.67 1.34 -0.34 0.68 0 0 Z " fill="#DBBD12" transform="translate(452,549)"/>
<path d="M0 0 C1.04187157 3.12561472 1.23843794 4.04680182 0 7 C-2.0625 8.25 -2.0625 8.25 -4 9 C-2.80100302 5.9168649 -1.52299523 2.93720508 0 0 Z " fill="#DBBC16" transform="translate(780,498)"/>
<path d="M0 0 C-2.97 2.475 -2.97 2.475 -6 5 C-6 3.35 -6 1.7 -6 0 C-3.50907189 -1.24546405 -2.58919267 -0.7767578 0 0 Z " fill="#E3C117" transform="translate(534,401)"/>
<path d="M0 0 C3 1 3 1 4.1875 3.0625 C4.455625 3.701875 4.72375 4.34125 5 5 C2 5 2 5 -1 4 C-0.67 2.68 -0.34 1.36 0 0 Z " fill="#E4C216" transform="translate(636,383)"/>
<path d="M0 0 C1.231394 2.46278801 1.07159196 4.2795055 1 7 C0.01 7.495 0.01 7.495 -1 8 C-1.66 6.02 -2.32 4.04 -3 2 C-2.01 1.34 -1.02 0.68 0 0 Z " fill="#0E0B08" transform="translate(725,330)"/>
<path d="M0 0 C3.3 0.33 6.6 0.66 10 1 C10.33 1.99 10.66 2.98 11 4 C7.37 3.01 3.74 2.02 0 1 C0 0.67 0 0.34 0 0 Z " fill="#D0B412" transform="translate(691,333)"/>
<path d="M0 0 C3.3 0.33 6.6 0.66 10 1 C6.77208445 3.1519437 5.71599191 3.20086443 2 3 C2 2.34 2 1.68 2 1 C1.34 0.67 0.68 0.34 0 0 Z " fill="#151308" transform="translate(642,321)"/>
<path d="M0 0 C0.66 0.33 1.32 0.66 2 1 C1.01 3.97 0.02 6.94 -1 10 C-1.66 10 -2.32 10 -3 10 C-2.01 6.7 -1.02 3.4 0 0 Z " fill="#201A07" transform="translate(546,245)"/>
<path d="M0 0 C0.33 0.66 0.66 1.32 1 2 C-0.32 2.33 -1.64 2.66 -3 3 C-3 3.66 -3 4.32 -3 5 C-4.65 5 -6.3 5 -8 5 C-5.64722731 2.27573689 -3.37503669 1.1858237 0 0 Z " fill="#D3B514" transform="translate(788,193)"/>
</svg>
