<!-- Created with Inkscape (http://www.inkscape.org/) -->
<svg xmlns:rdf="http://www.w3.org/1999/02/22-rdf-syntax-ns#" xmlns="http://www.w3.org/2000/svg" height="300" width="500" version="1.1" xmlns:cc="http://creativecommons.org/ns#" xmlns:dc="http://purl.org/dc/elements/1.1/">
 <metadata>
  <rdf:RDF>
   <cc:Work rdf:about="">
    <dc:format>image/svg+xml</dc:format>
    <dc:type rdf:resource="http://purl.org/dc/dcmitype/StillImage"/>
    <dc:title/>
   </cc:Work>
  </rdf:RDF>
 </metadata>
 <rect height="150" width="500" y="0" x="-3.5119E-7" fill="#000"/>
 <path style="color:#000000;enable-background:accumulate;" fill="#ffd200" stroke-miterlimit="4" d="m0.25103,149.75,0.71466,150,498.78-0.2607-0.04-149.58"/>
 <g transform="matrix(0.3125,0,0,0.3125,166.6875,59.75)">
  <path fill="#dc281e" d="m272.57,289.53,260.9,0c5.346,77.447-7.1296,150.78-64.32,213.8-80.84,72.126-137.33,82.261-196.58,88.78z"/>
  <rect height="276.3" width="261.81" y="9.1533" x="270.3" fill="#0039a6"/>
  <path stroke-linejoin="miter" d="m535,8-265,0,0,585c125,0,265-110,265-250z" stroke="#000" stroke-linecap="butt" stroke-miterlimit="4" stroke-dasharray="none" stroke-width="6" fill="none"/>
  <path stroke-linejoin="miter" d="m4,8,265,0,0,585c-125,0-265-110-265-250z" stroke="#000" stroke-linecap="butt" stroke-miterlimit="4" stroke-dasharray="none" stroke-width="6" fill="#f4f0e8"/>
  <path style="baseline-shift:baseline;block-progression:tb;color:#000000;direction:ltr;text-indent:0;text-align:start;enable-background:accumulate;text-transform:none;" d="m379.09,373.56c-21.175,21.606-42.284,43.277-63.5,64.844,20.795,21.06,41.438,42.269,62.281,63.281,21.812-21.041,43.522-42.188,65.375-63.188-21.387-21.644-42.725-43.337-64.156-64.938zm0.0312,15.688,48.5,49.062-49.562,47.906l-47.03-47.81,48.09-49.16z" stroke="#000" stroke-miterlimit="4" stroke-dasharray="none" stroke-width="3" fill="#ffd200"/>
  <g transform="translate(-6.452959,5.0766313)" stroke="#000" stroke-miterlimit="4" stroke-dasharray="none" stroke-width="3" fill="#ffd200">
   <path stroke-linejoin="round" d="m312,54,68,0,0,86-68,0,0-33,16,0,0,17,19,0,0-17,17,0,0-20-17,0,0-16-19,0,0,16-16,0z" stroke-linecap="butt"/>
   <path stroke-linejoin="round" d="m397.91,358.64c5.1254,2.8589,3.0556,8.5537-0.91592,10.064-10.863,5.8621-30.708-0.15848-25.208-8.6585,5.3579-5.0738,16.936-5.3141,26.124-1.4059z" stroke-linecap="butt"/>
   <path style="baseline-shift:baseline;block-progression:tb;color:#000000;direction:ltr;text-indent:0;text-align:start;enable-background:accumulate;text-transform:none;" d="m380,34,0.32029,322.44,12.601,0.32029l0.2-322.44c0-6.282-13.08-6.598-13.12-0.317z"/>
  </g>
  <path stroke-linejoin="round" d="m200.01,83.843c0,23.431-16.055,42.426-35.86,42.426s-35.86-18.995-35.86-42.426,16.055-42.426,35.86-42.426,35.86,18.995,35.86,42.426z" transform="matrix(1.2914659,0,0,1.0915962,-66.499306,-6.8251273)" stroke="#000" stroke-linecap="butt" stroke-miterlimit="4" stroke-dasharray="none" stroke-width="2.52667141" fill="#ffd200"/>
  <path stroke-linejoin="round" d="m113.61,122.01c11.519-17.295,8.0907-27.281,33.199-27.831,16.755-0.5927,19.637,14.397,28.004,30.06,14.765,12.869,23.758,22.915,41.552,29.882,10.645,12.405,12.448,40.12,20.484,59.048l-3.9004,11.701c0.0421,19.485-4.1807,37.837-12.575,50.091-0.0342,9.6722-1.4313,17.982-5.084,24.035,1.1984,23.228,2.6543,46.585-0.83664,67.468-6.4351,14.43-11.122,31.774-24.42,34.766l-0.72964-65.66c-13.35,16.233-21.354,36.207-45.773,44.691-18.016-4.4826-31.82-21.601-45.072-40.374l-0.8699,62.738c-17.11-3.88-29.483-30.48-28.686-44.15l1.6716-183.46c0.89355-16.015,24.119-38.053,43.052-53.017z" stroke="#000" stroke-linecap="butt" stroke-miterlimit="4" stroke-dasharray="none" stroke-width="3" fill="#dc281e"/>
  <path stroke-linejoin="round" d="m87.559,148.2c10.188,7.8837,17.375,25.631,19.125,61.242,0.92392,67.098,21.474,107.41,38.49,117.38,18.579-10.387,35.495-68.699,33.788-118.15,2.1518-26.698,4.6114-53.065,22.119-63.226" stroke="#000" stroke-linecap="butt" stroke-miterlimit="4" stroke-dasharray="none" stroke-width="3" fill="none"/>
  <path d="m193.31,273.91c5.2563,4.2404,10.074,8.2167,13.036,6.825,4.3167-2.0286,5.7075-10.878,7.2034-8.9496,8.9397,7.0743,14.476,18.817-6.0969,21.947-13.711-4.6508-11.613-14.053-14.142-19.822z" stroke="#000" stroke-miterlimit="4" stroke-dasharray="none" stroke-width="3" fill="#f4f0e8"/>
  <path stroke-linejoin="miter" d="m189.97,401.75,0.036,95.339-91.507,0.55719-1.2186-94.537" stroke="#000" stroke-linecap="butt" stroke-miterlimit="4" stroke-dasharray="none" stroke-width="3" fill="none"/>
  <path style="baseline-shift:baseline;block-progression:tb;color:#000000;direction:ltr;text-indent:0;text-align:start;enable-background:accumulate;text-transform:none;" d="m427.48,372.78c-21.175,21.606-42.284,43.277-63.5,64.844,20.795,21.06,41.438,42.269,62.281,63.281,21.812-21.041,43.522-42.188,65.375-63.188-21.387-21.644-42.725-43.337-64.156-64.938zm0.0312,15.688,48.5,49.062-49.562,47.906-47.031-47.812,48.094-49.156z" stroke="#000" stroke-miterlimit="4" stroke-dasharray="none" stroke-width="3" fill="#ffd200"/>
  <g transform="matrix(-1,0,0,1,813.17388,4.7101669)" stroke="#000" stroke-miterlimit="4" stroke-dasharray="none" stroke-width="3" fill="#ffd200">
   <path stroke-linejoin="round" d="m312,54,68,0,0,86-68,0,0-33,16,0,0,17,19,0,0-17,17,0,0-20-17,0,0-16-19,0,0,16-16,0z" stroke-linecap="butt"/>
   <path stroke-linejoin="round" d="m397,358.19c4.1645,3.6596,1.9071,8.9518-0.46296,11.423-4.9102,4.2654-32.414,2.2162-26.114-8.2055,5.5-5.5,17.665-7.9527,26.577-3.2178z" stroke-linecap="butt"/>
   <path style="baseline-shift:baseline;block-progression:tb;color:#000000;direction:ltr;text-indent:0;text-align:start;enable-background:accumulate;text-transform:none;" d="m380,34-0.32029,322.28,13.082-0.16014,0.20325-321.97c0-5.794-11.96-5.951-12.96-0.15z"/>
  </g>
  <g stroke-linejoin="miter" transform="translate(-180.32267,182.25404)" stroke="#000" stroke-linecap="butt" stroke-dasharray="none" stroke-miterlimit="4">
   <path d="m295,247,60,0,0,50c0,20-15,35-30,35s-30-15-30-35z" stroke-width="3" fill="#ffd200"/>
   <path d="m295,287,60,0,0,0" stroke-width="14" fill="none"/>
  </g>
  <path stroke-linejoin="round" d="m91.684,224.08c2.1473,4.5585,4.2946,6.1328,6.4419,17.368v98.612" stroke="#000" stroke-linecap="butt" stroke-miterlimit="4" stroke-dasharray="none" stroke-width="3" fill="none"/>
  <path stroke-linejoin="miter" d="m209.33,152.74c-12.443,21.212-24.543,40.733-28.211,70.153l7.9201,114.5" stroke="#000" stroke-linecap="butt" stroke-miterlimit="4" stroke-dasharray="none" stroke-width="3" fill="none"/>
  <path stroke-linejoin="round" d="m122.94,106.11c9.8344,7.7301,25.043,11.8,41.981,0.8282" stroke="#000" stroke-linecap="butt" stroke-miterlimit="4" stroke-dasharray="none" stroke-width="3" fill="none"/>
  <path stroke-linejoin="miter" d="m115.48,122c17.684,15.416,35.475,14.686,57.885,0" stroke="#000" stroke-linecap="butt" stroke-miterlimit="4" stroke-dasharray="none" stroke-width="3" fill="none"/>
  <path stroke-linejoin="miter" d="m271.02,288.05,262.57-0.61721" stroke="#000" stroke-linecap="butt" stroke-miterlimit="4" stroke-dasharray="none" stroke-width="6" fill="none"/>
  <g stroke-linejoin="miter" transform="translate(-3.057663,0.94081923)" stroke="#000" stroke-linecap="butt" stroke-dasharray="none" stroke-miterlimit="4">
   <path d="m295,247,60,0,0,50c0,20-15,35-30,35s-30-15-30-35z" stroke-width="3" fill="#f4f0e8"/>
   <path d="M325,332,325.45,247.91,325,332" stroke-width="10" fill="none"/>
   <path d="m295,287,60,0,0,0" stroke-width="10" fill="none"/>
  </g>
  <path stroke-linejoin="miter" d="m392.92,403.1,11.851,12.011" stroke="#000" stroke-linecap="butt" stroke-miterlimit="4" stroke-dasharray="none" stroke-width="3" fill="none"/>
  <path stroke-linejoin="miter" d="m399.85,394.65,11.851,12.011" stroke="#000" stroke-linecap="butt" stroke-miterlimit="4" stroke-dasharray="none" stroke-width="3" fill="none"/>
  <path stroke-linejoin="miter" d="m401.92,398.89-5.4838,5.5776" stroke="#ffd200" stroke-linecap="butt" stroke-miterlimit="4" stroke-dasharray="none" stroke-width="3.5" fill="none"/>
  <path stroke-linejoin="miter" d="m409.84,406.78-5.4838,5.5776" stroke="#ffd200" stroke-linecap="butt" stroke-miterlimit="4" stroke-dasharray="none" stroke-width="3.5" fill="none"/>
  <path style="baseline-shift:baseline;block-progression:tb;color:#000000;direction:ltr;text-indent:0;text-align:start;enable-background:accumulate;text-transform:none;" d="m208.35,157.2,0.10145,54.766-21.188,0.17183c-5.402,0.0577-4.1352,9.0271-0.15625,8.8905l46.188,0.0704h0.0937c4.9301-0.33774,4.2071-7.6698,0.5-7.9609-5.7084-0.64061-11.417-0.32035-17.125-0.96096l0.18759-55.109c-0.95485-4.648-8.4218-3.8363-8.6014,0.13279z" stroke="#000" stroke-miterlimit="4" stroke-dasharray="none" stroke-width="3" fill="#ffd200"/>
  <path style="baseline-shift:baseline;block-progression:tb;color:#000000;direction:ltr;text-indent:0;text-align:start;enable-background:accumulate;text-transform:none;" fill="#000" d="m64.375,58.488c-12.404,0.53811-21.01,8.8036-22.844,18.231-0.01109,0.04149-0.0215,0.08317-0.03125,0.125-1.4665,10.79,2.6161,19.234,9.7812,23.125,0.0077,0.0042,0.02352-0.0042,0.03125,0,0.01273,0.0071,0.01852,0.02422,0.03125,0.03125,5.5038,3.0405,11.316,2.9864,14.9,1.5429,5.6194-2.1431,9.1507-8.5923,9.4121-14.012-0.473-3.962-1.788-7.109-4.155-9.403-2.4066-2.2902-4.8387-3.768-8.1152-3.6757-4.0756,0.11475-6.0023,0.75662-7.9979,3.1054-2.5118,2.9564-2.3643,5.4956-2.0216,7.7265,1.0325,2.5586,2.5783,4.3379,5.2238,4.3899,3.8753-0.31324,5.3992-5.0813,5.3992-5.0813,2.7951-0.37066,3.5706,0.97175,3.668,3.1602-0.43327,3.1831-2.4161,4.8924-4.7812,5.875-1.9547,0.78727-4.2831,1.2418-7.6875-0.65625-0.02074-0.0106-0.04158-0.02102-0.0625-0.03125-4.371-2.3522-6.8458-6.4169-5.6875-15,2.6562-9.2747,8.0318-11.891,14.906-12.25,8.3444,0.34732,14.232,4.6081,14.719,10.281l0.17232,39.996c-4.562,5.7118-4.5344,5.9786,0.04485,10.409l2.2359,385.02c0.59658,5.6886,9.9217,8.9369,9.9217,8.9369l-4.158-394.28c5.0478-4.0983,4.8208-4.3997-0.04411-10.249-0.322-13.63,0.556-26.498-0.676-40.067-1.591-10.079-11.53-17.443-22.185-17.245z"/>
  <path d="m73.841,225.51c5.0173-5.0836,10.4,7.7747,17.521-1.6716,7.3266,9.391-1.1144,22.4-1.1144,22.4-25.235-2.71-19.645-11.42-16.407-20.73z" stroke="#000" stroke-miterlimit="4" stroke-dasharray="none" stroke-width="3" fill="#f4f0e8"/>
  <path stroke-linejoin="miter" d="m175.9,480.1c11.68,0.55867,13.595,5.3025,13.438,10.934,2.7776,9.2613-10.554,3.8776-16.202,5.4797l2.7642-16.414" stroke="#000" stroke-linecap="butt" stroke-width="1px" fill="#000"/>
  <path stroke-linejoin="miter" d="m113.55,481.15c-7.4542-0.9302-11.98,2.643-13.438,10.934-2.7776,9.2613,10.554,3.8776,16.202,5.4797l-2.7642-16.414" stroke="#000" stroke-linecap="butt" stroke-width="1px" fill="#000"/>
  <path stroke-linejoin="miter" d="m186.81,221.66c-2.5234,17.197,1.6575,33.156,5.3511,49.778,10.673,19.448,21.964,5.6199,30.826-0.37524,5.5227-10.668,8.9542-24.415,10.265-49.402z" stroke="#000" stroke-linecap="butt" stroke-miterlimit="4" stroke-dasharray="none" stroke-width="3" fill="#f4f0e8"/>
  <path stroke-linejoin="miter" d="m201.83,260.39s14.015-3.2022,11.249,1.3039" stroke="#000" stroke-linecap="round" stroke-miterlimit="4" stroke-dasharray="none" stroke-width="3" fill="none"/>
  <path stroke-linejoin="miter" d="m194.82,231.27c1.8888-1.5945,4.5394-1.5006,8.8421-0.0777-0.17636,4.429-7.904,5.0308-7.904,5.0308z" stroke="#000" stroke-linecap="butt" stroke-width="1px" fill="#000"/>
  <path stroke-linejoin="miter" d="m217.4,229.51,5.4449,1.2812-2.242,4.8044c-15.102-2.2199-4.6959-4.0919-3.2029-6.0855z" stroke="#000" stroke-linecap="butt" stroke-width="1px" fill="#000"/>
  <path stroke-linejoin="miter" d="m207.95,232.64c3.6742,2.4508-1.984,20.619,1.6902,18.239" stroke="#000" stroke-linecap="round" stroke-miterlimit="4" stroke-dasharray="none" stroke-width="3" fill="none"/>
  <path stroke-linejoin="miter" d="m192.77,228.2c3.6742-2.4508,7.3484-2.5522,11.023-0.17153" stroke="#000" stroke-linecap="round" stroke-miterlimit="4" stroke-dasharray="none" stroke-width="3" fill="none"/>
  <path stroke-linejoin="miter" d="m213.38,227.98c3.6742-2.4508,7.3484-2.5522,11.023-0.17153" stroke="#000" stroke-linecap="round" stroke-miterlimit="4" stroke-dasharray="none" stroke-width="3" fill="none"/>
  <g stroke-linejoin="miter" transform="translate(159.27909,0.20883591)" stroke="#000" stroke-linecap="butt" stroke-dasharray="none" stroke-miterlimit="4">
   <path d="m295,247,60,0,0,50c0,20-15,35-30,35s-30-15-30-35z" stroke-width="3" fill="#f4f0e8"/>
   <path d="M325,332,325.45,247.91,325,332" stroke-width="10" fill="none"/>
   <path d="m295,287,60,0,0,0" stroke-width="10" fill="none"/>
  </g>
 </g>
</svg>
