<?xml version="1.0" encoding="UTF-8" standalone="no"?>
<svg
   xmlns:dc="http://purl.org/dc/elements/1.1/"
   xmlns:cc="http://creativecommons.org/ns#"
   xmlns:rdf="http://www.w3.org/1999/02/22-rdf-syntax-ns#"
   xmlns:svg="http://www.w3.org/2000/svg"
   xmlns="http://www.w3.org/2000/svg"
   xmlns:xlink="http://www.w3.org/1999/xlink"
   xmlns:sodipodi="http://sodipodi.sourceforge.net/DTD/sodipodi-0.dtd"
   xmlns:inkscape="http://www.inkscape.org/namespaces/inkscape"
   sodipodi:docname="Flag of Heidelberg.svg"
   inkscape:version="1.0 (4035a4fb49, 2020-05-01)"
   id="svg8"
   version="1.1"
   viewBox="0 0 132.29166 79.375002"
   height="300"
   width="500">
  <defs
     id="defs2">
    <inkscape:perspective
       sodipodi:type="inkscape:persp3d"
       inkscape:vp_x="0 : 526.18109 : 1"
       inkscape:vp_y="0 : 1000 : 0"
       inkscape:vp_z="744.09448 : 526.18109 : 1"
       inkscape:persp3d-origin="372.04724 : 350.78739 : 1"
       id="perspective10" />
    <inkscape:perspective
       id="perspective2390"
       inkscape:persp3d-origin="372.04724 : 350.78739 : 1"
       inkscape:vp_z="744.09448 : 526.18109 : 1"
       inkscape:vp_y="0 : 1000 : 0"
       inkscape:vp_x="0 : 526.18109 : 1"
       sodipodi:type="inkscape:persp3d" />
  </defs>
  <sodipodi:namedview
     inkscape:window-maximized="1"
     inkscape:window-y="-8"
     inkscape:window-x="-8"
     inkscape:window-height="987"
     inkscape:window-width="1680"
     units="px"
     showgrid="false"
     inkscape:document-rotation="0"
     inkscape:current-layer="layer1"
     inkscape:document-units="px"
     inkscape:cy="82.913388"
     inkscape:cx="177.39172"
     inkscape:zoom="0.7"
     inkscape:pageshadow="2"
     inkscape:pageopacity="0.0"
     borderopacity="1.0"
     bordercolor="#666666"
     pagecolor="#ffffff"
     id="base" />
  <metadata
     id="metadata5">
    <rdf:RDF>
      <cc:Work
         rdf:about="">
        <dc:format>image/svg+xml</dc:format>
        <dc:type
           rdf:resource="http://purl.org/dc/dcmitype/StillImage" />
        <dc:title></dc:title>
      </cc:Work>
    </rdf:RDF>
  </metadata>
  <g
     id="layer1"
     inkscape:groupmode="layer"
     inkscape:label="Calque 1">
    <g
       id="g169">
      <g
         id="g146">
        <rect
           y="-5.0000006e-07"
           x="-3.3764652e-06"
           height="39.6875"
           width="132.29167"
           id="rect136"
           style="fill:#000000;fill-opacity:1;stroke:none;stroke-width:0.262583" />
        <rect
           style="fill:#ffdd00;fill-opacity:1;stroke:none;stroke-width:0.262583"
           id="rect138"
           width="132.29167"
           height="39.6875"
           x="-6.7529299e-06"
           y="39.6875" />
      </g>
      <g
         id="g134"
         transform="matrix(0.10002541,0,0,0.10002541,45.391692,16.598642)">
        <path
           id="path77"
           d="m 0,0 v 255 a 205,205 0 0 0 410,0 V 0" />
        <path
           id="path79"
           stroke-width="3"
           stroke="#ffdd00"
           d="m 9,9 v 246 a 196,196 0 0 0 392,0 V 9 Z" />
        <circle
           id="circle81"
           fill="#ee2211"
           r="4"
           cy="46"
           cx="213" />
        <circle
           id="circle83"
           fill="#ee2211"
           r="4"
           cy="46"
           cx="245" />
        <g
           id="g101"
           stroke="#111111">
          <path
             id="path85"
             fill="#009933"
             d="m 205,357 c -35,0 -44,32 -44,32 -13,-26 -81,-17 -89,12 20,19 68,52 133,52 65,0 113,-33 133,-52 -5,-28 -76,-38 -89,-12 0,0 -9,-32 -44,-32 z"
             stroke-width="3" />
          <g
             stroke-width="2"
             id="b">
            <path
               id="path87"
               fill="#ffdd00"
               d="M 122,350 H 83 c -11,0 -10.1,11 -7.9,13 3.9,5 9.9,6 11.9,0 l 9,-5 2,1 v 3 l -16.2,8 c -8.8,0 -7.8,12 -0.9,13 4.1,1 9.1,0 9.1,-6 l 11,-7 2,1 v 3 l -13,8 c -14.6,9 13,25 13,5 l 19,-11 h 5 l 7,8 c -4,21 23,13 13,-3 l -6.2,-8.7 -3.8,-5.3 7,-10" />
            <path
               id="path89"
               fill="#ee2211"
               d="m 75,355 c -5,4 -5,13 0.8,18 0,-9 5.2,-9 5.2,-9 4,-3 1,-11 -6,-9 z m 3,20 c -3,3 -2,15 6,16 -1,-6 1,-7 2,-11 0.9,-4 -4,-9 -8,-5 z m 58,12 c 0,4 0,7 -6,11 11,1 13,-1 16,-8 0,-7 -6,-7 -10,-3 z m -47.2,0 c -2.5,4 -0.8,13 8.2,13 -2,-4 -0.4,-6 0,-9 2,-6 -6,-8 -8.2,-4 z"
               stroke-linejoin="round"
               style="fill:#ee2211;fill-opacity:1" />
          </g>
          <g
             id="a">
            <path
               id="path92"
               fill="#ffdd00"
               d="m 44,183 c 4,3 8,0 8,0 l 3,2 v 4 l -10.4,3 c -7.2,-4 -14.9,4.1 -10.7,11 4.1,7 12.7,4 13.3,-1 H 52 l 3,2 v 4 l -6.4,3 c -8.1,2 -7.86,11.1 -2.5,14 6.9,4 12.9,-1 11.9,-7 l 13,-8 5,2 c -3.2,6 1,13 8.1,12 8.1,0 9.9,-12 3.9,-15 v -8 c 14,-4.1 3,7.4 18.7,4.7 l 0.3,-8.7 9.5,-2 -0.5,9 9.3,-1.7 0.7,-9.4 9.4,-2 -0.7,9.8 9.3,-1.7 0.9,-10.1 3.1,-32.9 -71,26 -21,-9 c -7,-12 -23.1,1.4 -12,10 z" />
            <path
               id="path94"
               fill="#ee2211"
               d="m 38.7,187 c 4.9,-8 6,-5 9.4,-8 1.8,-1 5,-5 -1.3,-8 -5.8,-3 -13,5 -8.1,16 z m -1,26 c -1.3,-4 -2.3,-7 2.3,-9 3.9,-2 0.5,-13 -6.9,-8 -4.8,3 -5.2,12 4.6,17 z m 6.3,6 c -1,7 3,12 13,11 -2,-2 -5.6,-6 -3.5,-10 1.8,-4 -7.5,-11 -9.5,-1 z m 24.5,5 c 8.5,7 13.5,5 17.5,-3 3,-6 -7.2,-9 -9,-5 -1,6 -2,6 -8.5,8 z"
               stroke-width="2"
               style="fill:#ee2211;fill-opacity:1" />
          </g>
          <use
             id="use97"
             transform="matrix(0.395,0.919,-0.919,0.395,262,-61.3)"
             xlink:href="#a"
             x="0"
             y="0"
             width="100%"
             height="100%"
             style="fill:#ffdd00;fill-opacity:1" />
          <use
             id="use99"
             xlink:href="#b"
             x="168"
             y="14"
             width="100%"
             height="100%"
             style="fill:#ffdd00;fill-opacity:1" />
        </g>
        <path
           id="path103"
           fill="#ffdd00"
           d="m 218,212 9,9 -7,3 -10,-8 z m 14,-8 11,10 -8,3 -10,-9 z m 13,-10 10,11 -6,5 -10,-11 z M 136,367 c 11,-10 8,3 19,-4 l -5,-7 7,-6 5,9 7,-5 -5,-10 6,-5 7,11 7,-5 -7,-12 6,-5 8,12 7,-4 -8,-14 12,-37 c 1,-2 2,-3 4,-4 l 37,-12 c 4,-1 7,-10 0,-15 l -19,-13 h -74 v 9 h 16 v 8 h -16 v 8 h 16 v 8 h -16 v 8 h 16 v 8 h -16 c -1.19,8.3 5.19,9.9 12,20 l -42,42 m 20,-163 26,-4 7,7 -18,3 6,6 18,-2 6,6 -19,2 6,7 20,-2 7,7 -21,1 6,6 h 25 l 36,25 c 7,5 7,10 4,20 l -21,67 h 10 l 5,-15 9,1 -5,14 h 9 l 5,-13 9,1 -4,12 h 9 l 4,-11 9,1 -4,10 c 14,2 8,-10 23,-8 l -18,37 16,12 3,-4 c 4,-7 10,4 19,-12 h -11 l 4,-8 h 13 l 5,-8 h -13 l 5,-8 h 14 l 5,-8 h -15 l 5,-8 h 16 l 5,-8 -61,-16 c -3,-1 -4,-2 -4,-5 l 5,-46 c 12,12 28,8 37,1 8,-7 14,-19 8,-33 l -5,-10 7,-10 -4.11,-8.22 -6.89,10.22 -4,-8 6.78,-10.44 -4.11,-8.23 -6.67,9.67 -4,-8 6.56,-9.89 -4.12,-8.22 -7.44,10.11 -4,-8 7.33,-10.33 -4.11,-8.23 -7.22,9.56 -4,-8 7.11,-9.78 -4.11,-8.22 -7,10 -4,-9 c -5,-8 5,-18 16,-18 h 50 l 4,-7.8 h -29 l 4,-7.8 h 29 l 3,-7.8 h -28 l 4,-7.8 h 28 l 4,-7.8 h -58 c -34,0 -46,32 -36,52 l 50,102 c 8,18 -18,42 -38,22 l -52,-55 4,-8 11,12 2,-9 -11,-11 v -11 l 13,13 1,-11 -14,-12 v -11 l 15,12 v -11 l -15,-12 v -11 l 14,10 -1,-11 -13,-10 V 94.7 l 11,8.3 -2,-11.8 h -24 v -4.1 h 19 c 6,0 12,-0.9 12,-23.9 -10,0 -2,2.6 -15,2.6 V 62 h -56 v 5.8 h -24 c -1,0 -2,0.2 -2,2.2 v 4.5 h 11 C 186,81 175,77 175,84 v 11 c 7,-2 4,-8 26,-8 v 22 c -19,0 -12,2 -22,2 l -4,-3 v 14 c 10,0 4,-7 26,-7 v 7 c 0,7 -6,12 -13,14 l -48,16" />
        <path
           id="path105"
           d="m 140,159 14,-1 1,7 -13,1 z m 62,-88.6 h 21 c 0,3.6 -5,3 -5,3 0,0 -3,5.8 -10,5.8 v -5.8 c 0,0 -6,-0.4 -6,-3 z m -58,104 14,-2 3,7 -14,1 z" />
        <path
           id="path107"
           d="m 156,67 c -19,-4 -19,4.4 -15,10 l 18,23 c 2,3 3.3,4 7,4 h 34 v -4.6 h -32 c -3,0 -4,-1.3 -6,-4.4 L 149,75 c -2,-3 0,-7 7,-8 z M 229,22 215,36 229,49.9 243,36 Z m -28,28 v 8.7 h 56 V 50 Z m -15,-25 15,25 4,-14 z m 86,0 -19,11 4,14 z"
           fill="#ee2211" />
      </g>
    </g>
  </g>
</svg>
