<svg xmlns="http://www.w3.org/2000/svg" height="300" width="500">
    <path style="fill:#fff;fill-opacity:1;stroke:#000;stroke-width:.40000001;stroke-miterlimit:4;stroke-dasharray:none;stroke-opacity:1" d="M.2 752.562h499.6v60H.2zM.2 992.162h499.6v60H.2z" transform="translate(0 -752.362)"/>
    <path style="fill:#da121a;fill-opacity:1" d="M0 812.36h500v180H0z" transform="translate(0 -752.362)"/>
    <g transform="matrix(.17225 0 0 .17225 190.423 49.196)">
        <path style="display:inline;fill:#fff;fill-opacity:1;fill-rule:nonzero;stroke:none" d="m713.93 691.922.016-566.135H5.315l-.03 566.93c.176 196.936 158.828 354.33 354.33 354.33 195.501 0 354.315-158.848 354.315-355.125z"/>
        <path style="display:inline;fill:#fff;fill-opacity:1;stroke:#000;stroke-width:3.54331;stroke-linecap:butt;stroke-linejoin:miter;stroke-miterlimit:4;stroke-dasharray:none;stroke-opacity:1" d="M347.002 647.125c9.167-16.69 24.827-6.791 45.81.353-2.03-24.198-1.43-66.367-.352-74.002-6.413-16.944-23.884-10.275-45.11-10.377-21.253-.102-40.27-5.898-45.454 15.31 4.59 2.159 10.62 15.486 8.528 31.461-1.634 12.477-1.298 26.862 7.33 36.903 11.706-9.668 21.299-8.767 29.248.352z"/>
        <path style="display:inline;fill:#da121a;fill-opacity:1;stroke:#000;stroke-width:7.08661;stroke-linecap:round;stroke-linejoin:round;stroke-miterlimit:4;stroke-dasharray:none;stroke-dashoffset:0;stroke-opacity:1" d="M565.189 317.049H676.03V496.58H565.189zM259.986 260.848h199.826v179.531H259.986z"/>
        <path style="display:inline;fill:#da121a;fill-opacity:1;fill-rule:nonzero;stroke:#000;stroke-width:7.08661;stroke-linecap:round;stroke-linejoin:round;stroke-miterlimit:4;stroke-dasharray:none;stroke-dashoffset:0;stroke-opacity:1" d="M42.208 319.391h110.841v179.531H42.208z"/>
        <path style="display:inline;fill:#ed1c24;fill-opacity:1;stroke:#000;stroke-width:5.31496;stroke-linecap:round;stroke-linejoin:round;stroke-miterlimit:4;stroke-dasharray:none;stroke-dashoffset:0;stroke-opacity:1" d="M203.395 299.29h20.059v188.312h-20.059zM495.328 302.802h20.059v188.312h-20.059z"/>
        <path style="display:inline;fill:#da121a;fill-opacity:1;stroke:#000;stroke-width:7.08661;stroke-linecap:butt;stroke-linejoin:miter;stroke-miterlimit:4;stroke-dasharray:none;stroke-opacity:1" d="M46.896 858.187C4.978 740.46 77.472 619.869 203.786 610.583c-.557-208.46 314.416-212.696 311.146-1.576 92.6 4.163 195.918 92.593 164.8 233.359 22.364-46.596 34.994-96.814 34.214-149.65V432.638h-59.804V477.3h-60.028v-44.663h-54.673V477.3H476.24v-44.663h-55.084v-51.485H298.943v51.485h-52.24V477.3h-61.217v-44.663h-57.058V477.3H66.757v-44.663H5.285v260.078c.516 59.266 14.037 114.53 41.611 165.47Z"/>
        <path style="display:inline;fill:none;stroke:#000;stroke-width:7.08661;stroke-linecap:butt;stroke-linejoin:miter;stroke-miterlimit:4;stroke-dasharray:none;stroke-opacity:1" d="M5.802 521.305h222.027M492.002 521.305h222.027"/>
        <path style="display:inline;fill:#da121a;fill-opacity:1;stroke:#000;stroke-width:7.087;stroke-linecap:butt;stroke-linejoin:miter;stroke-miterlimit:4;stroke-dasharray:none;stroke-opacity:1" d="m35.182 319.78 63.227-83.91 63.936 83.91zM557.875 319.228l63.226-83.91 63.937 83.91zM254.857 261.274l104.116-92.19 105.286 92.19Z"/>
        <ellipse ry="9.659" rx="10.211" cy="155.174" cx="111.217" style="display:inline;fill:#000;stroke:#000;stroke-width:.953576;stroke-linecap:round;stroke-linejoin:miter;stroke-miterlimit:4;stroke-dasharray:none;stroke-dashoffset:0;stroke-opacity:1" transform="matrix(1.04862 0 0 1.04875 -17.963 59.792)"/>
        <ellipse ry="9.659" rx="10.211" cy="155.174" cx="111.217" transform="matrix(1.16533 0 0 1.16577 229.387 -23.799)" style="display:inline;fill:#000;stroke:#000;stroke-width:.857964;stroke-linecap:round;stroke-linejoin:miter;stroke-miterlimit:4;stroke-dasharray:none;stroke-dashoffset:0;stroke-opacity:1"/>
        <ellipse ry="9.659" rx="10.211" cy="155.174" cx="111.217" style="display:inline;fill:#000;stroke:#000;stroke-width:.953576;stroke-linecap:round;stroke-linejoin:miter;stroke-miterlimit:4;stroke-dasharray:none;stroke-dashoffset:0;stroke-opacity:1" transform="matrix(1.04862 0 0 1.04875 504.454 61.724)"/>
        <path style="display:inline;fill:#000;stroke:#000;stroke-width:1;stroke-linecap:round;stroke-linejoin:round;stroke-miterlimit:4;stroke-dasharray:none;stroke-dashoffset:0;stroke-opacity:1" d="M90.408 350.614h15.026v33.174H90.408zM317.163 299.485h20.059v43.907h-20.059zM381.755 299.68h20.059v43.907h-20.059zM614.56 351.004h15.026v33.174H614.56z"/>
        <path style="display:inline;fill:#fcdd09;fill-opacity:1;stroke:#000;stroke-width:5.31496;stroke-linecap:round;stroke-linejoin:round;stroke-miterlimit:4;stroke-dashoffset:0;stroke-opacity:1" d="M495.328 163.86h20.06v31.653h30.169v23.222h-30.17v68.65h-20.059v-68.65h-29.722v-23.222h29.722zM203.395 163.727h20.06v31.652h30.169v23.223h-30.17v68.65h-20.059v-68.65h-29.722v-23.223h29.722z"/>
        <ellipse ry="9.659" rx="10.211" cy="155.174" cx="111.217" style="display:inline;fill:#fcdd09;fill-opacity:1;stroke:#000;stroke-width:2.92222;stroke-linecap:round;stroke-linejoin:miter;stroke-miterlimit:4;stroke-dasharray:none;stroke-dashoffset:0;stroke-opacity:1" transform="matrix(1.8151 0 0 1.82252 13.106 9.818)"/>
        <ellipse ry="9.659" rx="10.211" cy="155.174" cx="111.217" transform="matrix(1.8151 0 0 1.82252 305.039 9.818)" style="display:inline;fill:#fcdd09;fill-opacity:1;stroke:#000;stroke-width:2.92222;stroke-linecap:round;stroke-linejoin:miter;stroke-miterlimit:4;stroke-dasharray:none;stroke-dashoffset:0;stroke-opacity:1"/>
        <path style="display:inline;fill:#fcdd09;fill-opacity:1;stroke:#000;stroke-width:5.31496;stroke-linecap:butt;stroke-linejoin:round;stroke-miterlimit:4;stroke-dasharray:none;stroke-opacity:1" d="m494.806 621.714 33.255 18.352-6.21 5.934 13.18 24.608c32.915-11.834 59.053 38.927 52.502 73.086 4.6-1.516 9.756-.678 13.799 3.083 9.66 8.988-4.375 21.053-12.372 28.31-10.579 9.602-23.678 14.256-30.775 8.509l-40.292-32.632c-27.553-29.822-23.962-61.857-2.275-71.62l-11.705-23.685-8.555 1.655z"/>
        <path style="display:inline;fill:#fff;fill-opacity:1;stroke:#000;stroke-width:3.54331;stroke-linecap:butt;stroke-linejoin:round;stroke-miterlimit:4;stroke-dasharray:none;stroke-opacity:1" d="M111.832 871.243c-13.651 15.749 29.483 46.854 62.5 44.4l26.782-11.276 1.057-33.829-27.49.205c-11.676.087-6.2 9.86-.17 19.132-13.837-15.12-24.275-18.956-31.19-18.898z"/>
        <path style="display:inline;fill:#0f47af;fill-opacity:1;stroke:#000;stroke-width:5.31496;stroke-linecap:round;stroke-linejoin:round;stroke-miterlimit:4;stroke-dasharray:none;stroke-opacity:1" d="M175.685 914.965c9.718-2.491 19.63-6.463 26.358-10.7l.087-35.125 43.798-138.381c17.602-16.467 41.859-38.259 66.31-53.087l.78 59.78c12.706 36.37 26.484 25.352 39.076 15.155 9.645 17.694 19.487 10.185 39.943-7.12l.008-64.211c0-2.998 1.142-7.474 7.529-6.174 18.419 3.748 48.082 10.578 76.372 29.79 40.02 27.177 83.35 57.22 111.327 108.505 2.6 28.564 1.35 57.711-.647 80.95-21.317 19.852-58.672 42.377-88.148 63.589l1.6 59.055c-87.454 33.013-163.267 35.79-233.067 15.84l-1.01-96.238s-46.024 43.093-50.508 43.16c-9.72.14-29.56-7.821-39.028-14.05-2.406-15.948-2.87-35.04-.78-50.738z"/>
        <path d="m90.993 870.863 161.084-.483" style="display:inline;fill:none;stroke:#000;stroke-width:5.31496;stroke-linecap:round;stroke-linejoin:miter;stroke-miterlimit:4;stroke-dasharray:none;stroke-opacity:1"/>
        <path d="m202.224 867.35.78 108.238" style="display:inline;fill:none;stroke:#000;stroke-width:7.08661;stroke-linecap:round;stroke-linejoin:miter;stroke-miterlimit:4;stroke-dasharray:none;stroke-opacity:1"/>
        <path style="display:inline;fill:#da121a;fill-opacity:1;stroke:#000;stroke-width:3.54331;stroke-linecap:round;stroke-linejoin:round;stroke-miterlimit:4;stroke-dasharray:none;stroke-dashoffset:0;stroke-opacity:1" d="M94.077 819.736H193.6v49.806H94.077z"/>
        <path style="display:inline;fill:#da121a;fill-opacity:1;stroke:#000;stroke-width:3.54331;stroke-linecap:round;stroke-linejoin:round;stroke-miterlimit:4;stroke-dashoffset:0;stroke-opacity:1" d="M111.792 769.736H193.6v49.806H77.068Z"/>
        <path style="display:inline;fill:#da121a;fill-opacity:1;stroke:#000;stroke-width:3.54331;stroke-linecap:round;stroke-linejoin:round;stroke-miterlimit:4;stroke-dasharray:none;stroke-dashoffset:0;stroke-opacity:1" d="M192.077 716.31h56.201v153.232h-56.201z"/>
        <path d="m180.368 716.31 38.194-51.127 38.622 51.126z" style="display:inline;fill:#da121a;fill-opacity:1;stroke:#000;stroke-width:3.54331;stroke-linecap:butt;stroke-linejoin:round;stroke-miterlimit:4;stroke-dasharray:none;stroke-opacity:1"/>
        <ellipse ry="9.659" rx="10.211" cy="155.174" cx="111.217" transform="matrix(1.12506 0 0 1.1254 93.352 478.342)" style="display:inline;fill:#000;stroke:#000;stroke-width:.888707;stroke-linecap:round;stroke-linejoin:miter;stroke-miterlimit:4;stroke-dasharray:none;stroke-dashoffset:0;stroke-opacity:1"/>
        <path style="display:inline;fill:#000;stroke:#000;stroke-width:1;stroke-linecap:round;stroke-linejoin:round;stroke-miterlimit:4;stroke-dasharray:none;stroke-dashoffset:0;stroke-opacity:1" d="M213.518 735.596h11.136v25.889h-11.136zM213.518 819.596h11.136v25.889h-11.136zM155.84 835.602h12.24v18.438h-12.24zM116.184 835.602h12.24v18.438h-12.24z"/>
        <path style="display:inline;fill:none;stroke:#000;stroke-width:8.85827;stroke-linecap:round;stroke-linejoin:miter;stroke-miterlimit:4;stroke-dasharray:none;stroke-opacity:1" d="m273.07 708.919 1.475 189.899c.082 10.573 6.095 17.183 15.525 17.041l81.469-1.227"/>
        <path style="display:inline;fill:#fff;fill-opacity:1;stroke:#000;stroke-width:5.31496;stroke-linecap:butt;stroke-linejoin:miter;stroke-miterlimit:4;stroke-dasharray:none;stroke-opacity:1" d="M392.42 837.525c-9.549.207-17.818-.518-15.317-13.937 1.676-8.988 11.43-7.489 21.112-4.691"/>
        <path style="display:inline;fill:#fcdd09;fill-opacity:1;stroke:#000;stroke-width:5.31496;stroke-linecap:butt;stroke-linejoin:miter;stroke-miterlimit:4;stroke-dasharray:none;stroke-opacity:1" d="M337.501 1045.056 464.45 560.448c2.06-7.864 22.416-3.72 19.87 6.071l-124.74 479.641"/>
        <path style="display:inline;fill:none;stroke:#000;stroke-width:5.31496;stroke-linecap:butt;stroke-linejoin:miter;stroke-miterlimit:4;stroke-dasharray:none;stroke-opacity:1" d="M587.435 742.85c-9.9 10.758-20.889 20.973-34.93 29.661M535.732 670.28l-20.959 9.4M522.624 645.305 502.01 655.89M501.56 691.909c-14.988-9.318-28.689-21.69-37.4-33.26"/>
        <path style="display:inline;fill:none;stroke:#000;stroke-width:5.31496;stroke-linecap:round;stroke-linejoin:round;stroke-miterlimit:4;stroke-dasharray:none;stroke-dashoffset:0;stroke-opacity:1" d="M466.28 635.509c1.394 2.612 2.118 5.481 2.118 9.574 0 12.179-4.63 15.026-10.342 15.026-5.712 0-17.63-6.761-18.539-23.612-.392-7.28 3.361-11.039 8.105-12.169"/>
        <path style="display:inline;fill:none;stroke:#000;stroke-width:7.08661;stroke-linecap:round;stroke-linejoin:miter;stroke-miterlimit:4;stroke-dasharray:none;stroke-opacity:1" d="m331.799 781.098 2.341 132.306M283.599 915.356l-18.539 23.221M473.373 705.159l-.781 124.685M552.72 807.82c-31.892 8.452-56.89 15.434-89.92 26.048-5.965 1.917-6.32 8.646-6.317 18.075l.031 134.823"/>
        <path d="M496.098 960.615c-18.387 13.378-30.454 20.297-40.283 26.335-6.038 3.71-9.333 4.44-16.652 4.762-17.078.75-20.605-12.423-20.37-25.609 2.262-127.225 13.493-121.207 42.765-132.135" style="display:inline;fill:none;stroke:#000;stroke-width:7.08661;stroke-linecap:round;stroke-linejoin:miter;stroke-miterlimit:4;stroke-dasharray:none;stroke-opacity:1"/>
        <path style="display:inline;fill:#fff;fill-opacity:1;stroke:#000;stroke-width:5.31496;stroke-linecap:butt;stroke-linejoin:miter;stroke-miterlimit:4;stroke-dasharray:none;stroke-opacity:1" d="m417.258 828.418-4.425 16.75c-25.296-7.745-38.074-11.523-44.86 10.457-2.338 7.573-.62 15.925 7.56 21.261-19.176-.943-19.2 23.644-9.137 27.734 5.698 2.316 8.386.4 7.6-6.238-1.033-8.721 22.235-1.708 33.327 2.893 20.134 8.351 38.868-.473 43.88-21.25 9.732-40.353-11.185-46.49-33.945-51.607z"/>
        <path d="M285.357 595.055c4.933 15.152-23.392 17.389-15.463-3.754" style="display:inline;fill:#000;stroke:#000;stroke-width:5.31496;stroke-linecap:round;stroke-linejoin:miter;stroke-miterlimit:4;stroke-dasharray:none;stroke-opacity:1"/>
        <path style="display:inline;fill:#0f47af;fill-opacity:1;stroke:#000;stroke-width:5.31496;stroke-linecap:round;stroke-linejoin:miter;stroke-miterlimit:4;stroke-dasharray:none;stroke-dashoffset:0;stroke-opacity:1" d="M428.712 564.525c10.67 9.509 8.564 22.109 6.73 36.878-.382 3.08-4.207 4.591-8.3 4.138-4.272-.472-7.604-4.13-7.318-10.243.704-15.004-23.015-23.86-31.945-27.836l-81.229 2.487c-5.986 4.644-16.172 16.838-20.732 24.106-1.854 2.955-6.751 4.761-10.472 4.608-6.16-.253-11.946-18.669 8.929-35.249-3.133-6.903-7.273-16.775 2.406-22.89 15.956-10.083 19.343-16.713 28.344-17.241-1.267-4.185.591-8.668 2.91-11.513 4.64-5.693 8.127-5.606 13.7-1.865-5.638-12.01 15.97-18.066 35.329-7.733 10.827 5.78 25.723 12.016 28.312 12.016 3.07 0 21.329 9.79 13.02 23.169 14.274 3.487 24.897 8.563 20.316 27.168z"/>
        <path style="display:inline;fill:none;stroke:#000;stroke-width:3.54331;stroke-linecap:round;stroke-linejoin:miter;stroke-miterlimit:4;stroke-dasharray:none;stroke-opacity:1" d="M308.007 585.188c7.415 2.272 12.393.447 17.101-1.759 8.21-3.846 20.232-5.683 14.924 18.796-3.718 17.145-2.166 24.653 7.694 24.92 11.714.316 14.24-7.555 9.659-16.364M390.896 590.474c-13.214-7.439-39.754-12.697-35.196 9.284M352.486 717.861l.043 34.128"/>
        <path d="M381.734 599.636c-7.15-4.952-14.302-3.013-21.453-.583M330.286 600.34c-6.206-.882-12.493-2.007-16.872 2.59" style="display:inline;fill:none;stroke:#000;stroke-width:3.54331;stroke-linecap:round;stroke-linejoin:miter;stroke-miterlimit:4;stroke-dasharray:none;stroke-opacity:1"/>
        <ellipse ry="9.659" rx="10.211" cy="155.174" cx="111.217" style="display:inline;fill:#000;stroke:#000;stroke-width:2.43884;stroke-linecap:round;stroke-linejoin:miter;stroke-miterlimit:4;stroke-dasharray:none;stroke-dashoffset:0;stroke-opacity:1" transform="matrix(.43485 0 0 .38663 272.836 544.79)"/>
        <ellipse ry="9.659" rx="10.211" cy="155.174" cx="111.217" transform="matrix(.5125 0 0 .44135 313.798 533.128)" style="display:inline;fill:#000;stroke:#000;stroke-width:2.10262;stroke-linecap:round;stroke-linejoin:miter;stroke-miterlimit:4;stroke-dasharray:none;stroke-dashoffset:0;stroke-opacity:1"/>
        <path d="M365.426 520.942c-5.242 15.21-9.44 21.756-21.039 21.743-12.911-.015-19.505-8.624-28.36-18.688M408.534 537.139c-11.96 0-27.223-6.912-44.665-6.912M296.903 552.09c-4.1 3.115-7.682 6.398-11.898 10.903M429.395 565.278c-4.14-2.995-12.732-5.516-17.666-6.75M285.004 603.688c-.536 18.122 5.142 40.023-5.349 52.226-12.444 14.476-3.626 26.455 19.31 29.826" style="display:inline;fill:none;stroke:#000;stroke-width:5.31496;stroke-linecap:round;stroke-linejoin:miter;stroke-miterlimit:4;stroke-dasharray:none;stroke-opacity:1"/>
        <path d="M392.835 680.332c-22.184-25.821-40.686-17.059-45.633-31.943.286 15.325-16.512 13.811-34.67 29.246" style="display:inline;fill:none;stroke:#000;stroke-width:5.31496;stroke-linecap:round;stroke-linejoin:round;stroke-miterlimit:4;stroke-dasharray:none;stroke-opacity:1"/>
        <path d="M391.954 648.265c1.276 10.608 2.114 22.18 10.261 26.375M425.078 605.098c-8.01 12.984-5.13 37.594 2.175 43.96 10.736 9.355 9.005 33.764-6.714 30.868" style="display:inline;fill:none;stroke:#000;stroke-width:5.31496;stroke-linecap:round;stroke-linejoin:miter;stroke-miterlimit:4;stroke-dasharray:none;stroke-opacity:1"/>
        <path d="M317.248 647.208c-9.558 6.98-14.181 12.022-8.592 32.542" style="display:inline;fill:none;stroke:#000;stroke-width:3.54331;stroke-linecap:round;stroke-linejoin:miter;stroke-miterlimit:4;stroke-dasharray:none;stroke-opacity:1"/>
        <path d="M333.281 666.06c4.839 6.863 15.409 13.566 23.829 5.585" style="display:inline;fill:none;stroke:#000;stroke-width:5.31496;stroke-linecap:round;stroke-linejoin:miter;stroke-miterlimit:4;stroke-dasharray:none;stroke-opacity:1"/>
        <path d="M713.946 692.716V125.787H5.315l.13 566.135c.177 196.936 159.288 355.125 354.17 355.125s354.33-158.053 354.33-354.33z" style="display:inline;fill:none;stroke:#000;stroke-width:10.6299;stroke-linecap:square;stroke-linejoin:miter;stroke-miterlimit:4;stroke-dasharray:none;stroke-opacity:1"/>
    </g>
</svg>
