<svg xmlns="http://www.w3.org/2000/svg" width="2500" height="1500"><path fill="#005dbeff" d="M0 0h2500v1500H0"/><path fill="#fff" d="M0 300h2500v900H0"/><path fill="#f02c2d" d="m0 1028.27v-556.533c0 110.537 374.865 200.97 668.424 200.97 0-167.096-97.0434-372.704-163.258-372.704h452.105c-78.0044 0-163.262 210.446-163.262 372.704 588.321 0 1705.99-71.0772 1705.99-200.97v556.533c0-134.736-1109.81-200.97-1705.99-200.97-3.9281 147.739 85.2581 372.703 163.262 372.703h-452.105c74.0723 0 163.258-220.118 163.258-372.703-230.67 0-668.424 56.5595-668.424 200.97"/></svg>